<?xml version="1.0" encoding="utf-8"?>
<!-- Generator: Adobe Illustrator 26.0.1, SVG Export Plug-In . SVG Version: 6.00 Build 0)  -->
<svg version="1.1" id="レイヤー_1" xmlns="http://www.w3.org/2000/svg" xmlns:xlink="http://www.w3.org/1999/xlink" x="0px"
	 y="0px" viewBox="0 0 211.6 221.6" style="enable-background:new 0 0 211.6 221.6;" xml:space="preserve">
<style type="text/css">
	.st0{display:none;fill:#28313B;enable-background:new    ;}
	.st1{display:none;}
	.st2{display:inline;fill:#C65439;}
	.st3{fill:#C65439;}
	.st4{fill:#28313B;stroke:#28313B;stroke-width:6;stroke-linejoin:round;stroke-miterlimit:10;}
</style>
<path class="st0" d="M205.4,82.1c-3.5-13.5-9.5-25.9-17.6-37.1c-8.2-11.2-18.1-20.4-29.6-27.5c-11.1-6.9-26.4-12.3-38.8-14
	C109.6,2.2,93,2.2,78.5,6.4C65.6,10.1,53.7,16.3,43,24.9c-10.4,8.4-19.1,18.5-25.8,30.3c-0.1,0.1-0.2,0.3-0.2,0.4L16.7,56
	C9.7,68.5,5.3,82.1,3.4,96.6c-1.8,14.5-0.9,28.8,2.8,42.8c3.5,13.5,9.5,25.9,17.6,37.1c8.2,11.2,18.1,20.4,29.6,27.5
	c9.4,5.8,19.5,9.9,30.1,12.4c4.7,1.5,8.1,1.7,9.1,1.7c4.4,0.6,8.9,0.9,13.3,0.9c9.2,0,18.4-1.3,27.3-3.9
	c12.9-3.7,24.8-9.9,35.5-18.5c10.6-8.5,19.5-19,26.2-31c7-12.5,11.5-26.1,13.3-40.6C210,110.4,209,96,205.4,82.1z M88,12.6
	c-1.4,1-2.6,1.9-3.7,2.8l-1,0.8c-10.5,8-18.9,18.7-25.6,32.7C43.5,80,41.1,101.9,40.9,112c-0.1,2.1-0.1,4.6-0.2,6.7
	c0,1.9-0.1,4.2-0.2,5.1c-0.1,0-0.3-0.1-0.6-0.2c-5.4-2.1-10.8-7-13.1-11.9c-5.6-12.1-7.7-24.5-6.4-36.8c0.9-8.5,3.1-14.2,3.7-15.6
	C30.4,48.5,38.4,39.1,48,31.4c9.8-7.9,20.8-13.6,32.6-17C83.1,13.7,85.5,13.1,88,12.6z M184.4,117.5c-7.6,5.3-17.2,10.5-27.8,14.9
	c-13.9,5.8-26.5,9.4-45,12.8c-17.5,3.6-33.2,5.3-46.8,4.9c-5.4-0.1-9.7-0.4-13.5-0.8c-0.7-5.4-1.3-10.8-1.3-13.4
	c10.1,0.7,20.4-4.7,27.3-9.4c9.7-6.6,25.7-23.1,39.9-37.7c8.3-8.6,16.2-16.7,20.6-20.5c11.5-9.8,20.7-16.5,29.1-21.2
	c4.2-1.9,7.2-3.2,9-3.9c1.9,2.2,3.7,4.4,5.4,6.7c7.5,10.3,13,21.8,16.3,34.3c1.6,6,2.7,10.1,3.1,16.3
	C196.7,106.9,191.3,112.6,184.4,117.5z M161.9,37.8c-11.4,5.3-20.7,13.4-27.5,19.4c-1.2,1-2.3,2-3.3,2.9c-5.3,4.5-15.2,14-25.7,24
	C90.6,98.3,70.3,117.7,66,119.7c-7.3,3.5-13.7,5.3-15.7,5.5c-0.1,0-0.2,0-0.2,0c-0.1-0.1-0.1-0.3-0.3-0.7c-0.2-0.8-0.1-3.9,0-6.2
	c0-1.1,0.1-2.2,0.1-3.4c2.3-25.1,4.9-33.4,16.2-61c5.6-10.3,14.4-25,25.5-33.7c6.2-4.4,12.5-6.1,17.9-7.4c4.6-1.1,7.9-1.1,8.8-1.1
	c12.7,1.8,24.6,6.1,35.6,12.8c6,3.7,10.2,6.8,14.3,10.6C166.4,35.9,164.3,36.7,161.9,37.8z M11.5,97.6c0.2-1.6,0.4-3.3,0.7-4.9
	c0.9,8.6,3.1,16.7,6.6,24.3c0,0.1,0,0.1,0.1,0.2c3.2,6,6.6,10.5,13.1,14.3c1.8,1.3,4.7,3,8.7,3.9c0.2,5.6,0.4,8.8,1,13
	c-1.7-0.3-3.1-0.7-4.7-1.3c-0.8-0.2-1.6-0.5-2.4-0.8c-0.1,0-0.2,0-0.2-0.1c-7.3-1.5-14.7-5.2-20.5-10
	C10.7,123.7,9.9,110.7,11.5,97.6z M31.6,154.7c3.6,1.1,7.4,1.9,12.1,2.7c0.9,5.8,1.8,9.5,2.5,11.9c-3.2-0.4-7.4-0.8-10.3,0.3
	c-2.1,0.8-3.5,1.6-4.5,2.4c-0.3-0.4-0.6-0.8-1-1.3c-4.6-6.4-8.5-13.2-11.6-20.4C22.2,151.9,26.4,153.2,31.6,154.7z M39.4,179.9h0.2
	c5.8-0.5,7.6-0.7,8.4-0.2c1.1,0.7,2.9,2.7,3.5,3.4c2.2,6.3,4.3,10.5,6.5,13.8c-0.1,0-0.1-0.1-0.2-0.1c-8-5-13.8-9.7-19.6-16.2
	C38.3,180.5,38.7,180.2,39.4,179.9z M60.2,181.8c7.5,0.9,14.5,3.1,21.3,6.5c15.4,7.8,31.5,12.6,45.3,13.7c3.8,0.5,11.8,0.5,15.5,0.3
	c0.1,0,0.1,0,0.2,0c0.7-0.1,1.3-0.2,2-0.3c-4.3,2-8.8,3.7-13.5,5.1c-12.3,3.5-24.9,4.4-37.6,2.7c-2.5-0.3-5-0.8-7.5-1.4
	c-3.8-1.3-9.5-4-15.1-9.9C65.5,192.9,62,185.5,60.2,181.8z M119.4,192.3c-1.6-0.2-3.2-0.6-4.8-1.1l-1.1-0.4
	c-8.8-2.9-13.6-4.6-27.9-10.9c-11.8-5.9-25-8.5-30-9.4c-0.6-2.3-1.5-6.8-2.3-11c3.5,0.4,7.1,0.6,11.2,0.7c1,0,9.7,0,18.1,0h2.3
	c0.1,0,0.2,0,0.3,0c10.1-0.9,16.2-1.7,28.9-4.1c18.2-3.8,33.5-8.3,46.7-13.8c10.7-4.5,20.1-9.6,28.5-15.5c4.6-3.3,8.3-6.6,11.1-9.7
	c-0.1,2.3-0.4,4.6-0.6,6.8c-1.7,13.4-5.8,26-12.3,37.5c-5.8,10.3-13.3,19.4-22.2,27c-8.6,3.5-19.8,6.8-37.7,5L119.4,192.3z"/>
<g class="st1">
	<path class="st2" d="M118.4,11.7c-0.9,0-4.2,0-8.8,1.1c-5.4,1.3-11.7,3-17.9,7.4c-11.1,8.7-19.9,23.3-25.5,33.7
		c-11.3,27.6-13.9,35.9-16.2,61c0,1.1-0.1,2.3-0.1,3.4c-0.1,2.3-0.2,5.5,0,6.2c0.1,0.3,0.2,0.5,0.3,0.7c0.1,0,0.1,0,0.2,0
		c2-0.1,8.4-2,15.7-5.5c4.2-2,24.5-21.4,39.3-35.6c10.5-10,20.3-19.4,25.7-24c1-0.9,2.2-1.9,3.3-2.9c6.8-6,16.1-14.1,27.5-19.4
		c2.5-1.1,4.6-2,6.3-2.7c-4.1-3.8-8.3-7-14.3-10.6C143,17.8,131,13.5,118.4,11.7z"/>
	<path class="st2" d="M117.1,88.8C103,103.4,87,119.9,77.2,126.5c-6.9,4.7-17.2,10.1-27.3,9.4c0.1,2.6,0.6,8,1.3,13.4
		c3.8,0.4,8,0.7,13.5,0.8c13.6,0.3,29.3-1.3,46.8-4.9c18.4-3.4,31-7,45-12.8c10.6-4.4,20.2-9.6,27.8-14.9
		c6.9-4.8,12.3-10.5,16.2-16.9c-0.5-6.2-1.5-10.3-3.1-16.3c-3.3-12.5-8.7-24-16.3-34.3c-1.7-2.3-3.5-4.5-5.4-6.7
		c-1.8,0.7-4.8,2-9,3.9c-8.4,4.7-17.7,11.4-29.1,21.2C133.3,72.1,125.5,80.2,117.1,88.8z"/>
	<path class="st2" d="M187.8,161.3c6.5-11.5,10.6-24.2,12.3-37.5c0.3-2.3,0.5-4.6,0.6-6.8c-2.8,3.1-6.5,6.5-11.1,9.7
		c-8.5,6-17.8,11.1-28.5,15.5c-13.3,5.5-28.5,10.1-46.7,13.8c-12.7,2.5-18.9,3.2-28.9,4.1c-0.1,0-0.2,0-0.3,0h-2.3
		c-8.4,0-17.1,0-18.1,0c-4.1-0.1-7.7-0.3-11.2-0.7c0.8,4.2,1.8,8.7,2.3,11c4.9,0.9,18.2,3.5,30,9.4c14.2,6.4,19.1,8,27.9,10.9
		l1.1,0.4c1.6,0.5,3.2,0.9,4.8,1.1l8.5,1c17.9,1.8,29.1-1.5,37.7-5C174.5,180.8,182,171.7,187.8,161.3z"/>
	<path class="st2" d="M126.8,202c-13.8-1.1-29.8-5.9-45.3-13.7c-6.8-3.4-13.8-5.6-21.3-6.5c1.7,3.8,5.3,11.1,10.6,16.7
		c5.6,5.9,11.3,8.6,15.1,9.9c2.5,0.6,5,1,7.5,1.4c12.7,1.8,25.4,0.9,37.6-2.7c4.6-1.3,9.1-3,13.5-5.1c-0.6,0.1-1.3,0.2-2,0.3
		c-0.1,0-0.1,0-0.2,0C138.6,202.5,130.6,202.5,126.8,202z"/>
	<path class="st2" d="M31.4,172c1-0.8,2.4-1.6,4.5-2.4c3-1.1,7.1-0.7,10.3-0.3c-0.7-2.4-1.6-6-2.5-11.9c-4.7-0.8-8.5-1.6-12.1-2.7
		c-5.2-1.5-9.3-2.8-12.8-4.4c3.1,7.2,6.9,14.1,11.6,20.4C30.7,171.2,31.1,171.6,31.4,172z"/>
	<path class="st2" d="M57.7,196.9c0.1,0,0.1,0.1,0.2,0.1c-2.2-3.4-4.3-7.5-6.5-13.8c-0.5-0.7-2.3-2.7-3.5-3.4
		c-0.8-0.5-2.6-0.4-8.4,0.2h-0.2c-0.7,0.3-1,0.6-1.3,0.8C43.8,187.1,49.6,191.9,57.7,196.9z"/>
	<path class="st2" d="M48,31.4c-9.6,7.7-17.6,17.1-23.8,27.9c-0.6,1.4-2.8,7.2-3.7,15.6c-1.4,12.4,0.8,24.8,6.4,36.8
		c2.3,4.9,7.6,9.8,13.1,11.9c0.3,0.1,0.4,0.1,0.6,0.2c0.1-0.9,0.1-3.2,0.2-5.1c0-2.2,0.1-4.6,0.2-6.7c0.2-10.2,2.6-32.1,16.7-63.2
		c6.7-14,15.1-24.7,25.6-32.7l1-0.8c1.1-0.9,2.4-1.8,3.7-2.8c-2.5,0.5-5,1.1-7.4,1.8C68.8,17.8,57.8,23.5,48,31.4z"/>
	<path class="st2" d="M18.9,117.1c-3.5-7.6-5.7-15.8-6.6-24.3c-0.3,1.6-0.5,3.2-0.7,4.9c-1.6,13.1-0.9,26.1,2.3,38.7
		c5.7,4.8,13.1,8.4,20.5,10c0.1,0,0.2,0,0.2,0.1c0.9,0.3,1.7,0.5,2.4,0.8c1.7,0.5,3,1,4.7,1.3c-0.5-4.2-0.8-7.4-1-13
		c-4-0.9-6.8-2.5-8.7-3.9c-6.6-3.7-9.9-8.3-13.1-14.3C18.9,117.2,18.9,117.1,18.9,117.1z"/>
</g>
<ellipse class="st3" cx="105.6" cy="111" rx="99.7" ry="103.6"/>
<path class="st4" d="M205.2,124.5c-1.8,14.1-6.1,27.4-12.9,39.5c-6.6,11.7-15.1,21.9-25.5,30.2c-10.3,8.3-21.9,14.3-34.4,18
	c-8.7,2.5-17.5,3.8-26.4,3.8c-4.4,0-8.7-0.3-13.1-0.9c0,0-0.1,0-0.2,0c-0.8,0-4-0.1-8.4-1.6c-10.3-2.4-20.2-6.4-29.3-12
	c-11.2-6.9-20.9-15.9-28.8-26.7c-7.9-10.8-13.7-23-17.1-36.1C5.6,125.1,4.6,111.1,6.4,97c1.8-14.1,6.1-27.4,12.9-39.5
	c0.1-0.2,0.2-0.3,0.3-0.5c0,0,0-0.1,0-0.1l0,0c6.5-11.5,15-21.5,25.2-29.6C55.1,19,66.7,13,79.2,9.4c12.9-3.7,28.8-4.3,39.7-2.8
	S145,13,156.6,20.1c11.2,6.9,20.9,15.9,28.8,26.7c7.9,10.8,13.7,23,17.1,36.1C206,96.5,207,110.5,205.2,124.5z M118.7,6.1
	 M176.8,39.8c-1.5,0.4-5.2,1.9-11.2,4.7c-7.8,4.3-17.1,10.8-29.7,21.6c-11.9,10.1-44.9,47.5-60.3,58s-24.7,8.9-25.8,8.9
	c-1.2,0-2,0-2.6,0.7c-0.7,0.7,0.5,11.5,1.5,18.4c5.1,0.7,10.5,1,16,1.1c14.3,0.3,30.5-1.5,47.5-5c19.7-3.6,32.2-7.4,45.5-13
	c10.7-4.4,20.5-9.7,28.4-15.2c12-8.4,16.6-17.2,17.6-18.6c-0.4-6.9-1.5-11.1-3.3-17.8c-3.4-12.8-9-24.7-16.8-35.3
	C181.5,45.2,179.2,42.4,176.8,39.8z M118.6,8.8C118.6,8.8,118.6,8.8,118.6,8.8c-0.8,0-4.5,0-9.7,1.2c-5.4,1.3-12.3,3.1-19,7.9
	C79,26.3,70.4,40,63.4,52.7c-11.7,28.6-14.2,37.1-16.5,62.1c-0.1,4.7-0.4,9.3,0,10.6c0.4,1.4,1.1,3,3.5,2.8
	c2.5-0.2,9.2-2.1,16.8-5.8s52-48.3,65.6-60c7.1-6.1,17.2-15.9,30.2-21.9c5-2.3,8.5-3.5,10.6-4.1c-5.8-6.1-11.1-10.1-18.3-14.5
	C144.2,15.1,131.8,10.6,118.6,8.8z M21.5,58.1c-0.4,1.1-2.9,7.3-4,16.6c-1,9.4-0.6,22.7,6.6,38.4c2.6,5.7,8.6,11.1,14.7,13.4
	c3.2,1.2,4.3-0.9,4.6-1.8c0.2-0.9,0.2-7.7,0.4-12.5c0.2-11.8,3.3-33,16.5-62.1c6.5-13.6,14.7-24,24.7-31.6
	c4.8-3.7,10.8-8.9,22.7-10.7c-0.7,0-1.5,0-2.2,0c-8.7,0-17.4,1.2-25.8,3.7C67.6,15.1,56.2,21,46.1,29.1
	C36.2,37.1,27.9,46.9,21.5,58.1z M11.2,138c5.8,5.1,13.8,9.4,22.5,11.3c4.1,1.2,6.3,2.3,11.5,2.5c-1-6.9-1.3-10-1.5-18.9
	c-5.2-0.7-8.5-2.7-10-3.9c-6.1-3.4-9.1-7.5-12.1-13.2c-7.5-16.2-7.2-31.8-6.2-41.5c0.2-2.1,0.5-4,0.9-5.7c-3.9,9-6.5,18.6-7.7,28.6
	C6.8,111.1,7.7,124.8,11.2,138z M28,172.6c1.2,1.7,2.1,2.6,3.4,4.1c0.8-1.5,1.7-2.7,5.6-4.2s11.7,0.6,13,0.1s-1.3-0.9-3.7-17.7
	c-5-0.8-9.4-1.6-13.9-3c-10.6-3.1-15.8-5-19.9-10.2C15.9,152.8,21.1,163.2,28,172.6z M73.7,208c0,0-4.8-2.7-7-5
	c-5.4-5.7-8.7-9.8-12.6-21c-0.2-0.5-2.8-3.5-4.5-4.6c-1.7-1.1-3.7-0.9-11.1-0.2c-2.6,1.4-3.3,1.8-3.9,4.3c6.6,7.7,13,12.9,21.5,18.1
	C61.7,202.9,73.7,208,73.7,208z M162.2,194.9c-7,2.1-12.9,3.5-20.1,4.4c-3.7,0.2-11.5,0.2-15-0.2c-11.9-0.9-27.6-5-44.2-13.4
	c-10.9-5.5-20.4-6.7-25.4-7.1c-0.7-0.1-1,1-0.4,3.7c2.2,4.8,5.8,12.3,11.5,18.3c6.1,6.4,12.3,9.4,16.5,10.7c2.6,0.6,5.2,1.1,7.9,1.4
	c13.1,1.8,26.2,0.9,38.9-2.8C142.7,206.8,152.9,201.8,162.2,194.9z M127.6,196.4c18.2,1.8,29.9-1.4,39.6-5.4
	c9.3-7.9,17.1-17.3,23.2-28.1C197,151,201.3,138,203,124.2c0.7-5.6,1-11.2,0.8-16.7c-1.7,3.6-6.9,10.4-16,16.8
	c-8,5.7-17.1,10.7-28,15.2c-13.5,5.6-29,10.1-46.2,13.6c-12.8,2.5-18.9,3.2-28.6,4.1c-1.4,0-19,0-20.4,0c-5.4-0.1-10-0.5-15-1.1
	c1,5.8,3.3,16.8,3.7,17c0.4,0.2,17,2.5,31,9.5c15,6.7,19.6,8.2,29.2,11.4c1.7,0.6,3.5,1,5.4,1.2L127.6,196.4z"/>
</svg>
