<svg xmlns="http://www.w3.org/2000/svg" viewBox="0 0 638.59 401.25"><g id="レイヤー_2" data-name="レイヤー 2"><g id="トップページ"><path d="M243.79,265.62a51,51,0,0,1,4.38,20.63c0,36.25-33.75,72.5-56.25,89.37a138.26,138.26,0,0,1-80.63,25.63c-20.62,0-39.37-4.37-55-13.13-29.37-15.62-55-55-56.25-106.24C-2.46,155.62,109.42,42.5,180,10.62,196.29,4.38,213.79,0,229.42,0s30,4.38,40.62,13.12c21.25,18.76,37.5,43.13,37.5,67.5a81,81,0,0,1-8.75,36.26c-10.62,21.24-19.37,42.5-23.75,56.24-3.12,10.63-11.87,16.88-24.37,9.38-12.5-8.12-21.25-21.88-21.25-40a77.57,77.57,0,0,1,3.75-23.12C235.67,110,240,100,243.79,90.62c8.75-21.87,16.25-41.87,8.75-50-15-16.24-103.75,38.13-155.62,121.88-27.5,44.38-39.38,95.62-39.38,133.12,0,53.76,23.75,77.5,46.25,77.5,34.38,0,78.75-40,115-109.37C223.17,255,237.54,251.25,243.79,265.62Z"/><path d="M280,362.62a32.05,32.05,0,0,1-17.75-5.5A53,53,0,0,0,260,371.88c0,11,4.5,18.74,12,18.74,19,0,35.75-18.5,46-34,2.75-4,6-4.5,8,.5.75,2.26,1,9.5-3.5,16.26-10.5,15.24-30.5,27-50,27.24-23.25.26-36-15-36-35,0-9,2.5-18.74,7.75-28.74,13-26.5,33.25-39.76,47.75-39.76,3.5,0,6.25.5,8.75,2,7,4,12,8,15.5,13a18.23,18.23,0,0,1,2.5,9.26C318.78,336.38,302,362.62,280,362.62Zm-14.25-15a10,10,0,0,0,5.5,1.76c6,0,14-7.5,19-14.26,7.25-9.74,12.5-21.5,9.75-23.74C296.28,308.38,277.78,323.62,265.78,347.62Z"/><path d="M362,311.12a31.81,31.81,0,0,1-.25,5c10.75-10,22.75-18.24,31.75-18.24,7.25,0,14,8.74,14,18.24,0,5.5-4.5,13.5-12.5,27.5-8,12.76-16.5,29.26-16.5,38.5,0,5.26,1.75,8.5,5,8.5,8.5,0,21.5-16.24,30.5-33,2.5-4.74,6-4.5,8.25-1,2,3,2.25,10.76-1.25,17.5-7,13.76-25.25,27-40.25,27-16.75,0-24-8.5-24-21.5,0-13.5,11.5-36.5,21.25-52,5.25-8.24,9.25-14.74,7.5-14.74-2.25,0-14.5,7-28.25,22.5-13.75,14.5-25,39-35.25,61.5-1.75,4-5,5.5-9,1.5a18.26,18.26,0,0,1-5.5-13.76,45.84,45.84,0,0,1,2.25-13c4.75-14,24-49,39.5-72.24,3.25-4.76,7-4.5,9.5,0A22.51,22.51,0,0,1,362,311.12Z"/><path d="M416.52,351.62a523.64,523.64,0,0,1,24.5-50c-7.75-1-12.25-3.74-14.25-6.74-3.5-5.26-1-7.76,4.75-7.5a144.88,144.88,0,0,0,18-.5c7.75-13.5,13-21.76,18.75-30,3.75-5.5,6.75-5.26,9.5-.5a22.47,22.47,0,0,1,2.75,10.24c0,4.5-1,10.26-4,17.26,7.75,1,12,5,13.75,8,2.5,4.5.75,7.5-5.25,6.74-4.5-.5-11,0-16.5.76-9.5,16.24-23.75,41-32.5,60a47.36,47.36,0,0,0-4.5,18.74c0,7.5,2.5,12.76,6.75,12.76,9.75,0,22.75-15.76,31.5-34.5,2.75-6,8.5-6.5,10.25.24,1.25,5.26.25,9-2.5,14.76-3.5,7.5-20.25,29-41.25,29-13.25,0-24.75-10.76-24.75-28C411.52,366.88,413,359.88,416.52,351.62Z"/><path d="M636.27,374.12c-6.25,15.5-24.75,26.26-39.5,26.26-15.75,0-24.5-11-24.5-25.76a43.34,43.34,0,0,1,2.5-13.74c4.25-13.5,14-27.26,24-39a50,50,0,0,1-18.5,4.24c-20.5,42.76-47.25,73.26-77.75,73.76-23,.24-35.75-14.76-35.75-34.5,0-8.76,2.5-18.76,7.5-28.76,13-25.5,33.5-39.5,47.75-39.5a15.86,15.86,0,0,1,8.5,2c6.75,4.26,11.5,8,15.5,13a17.69,17.69,0,0,1,2.25,8.26c0,7.24-3.75,17.5-10.5,26.24-7.25,9-16.75,15.26-27.75,15.26a30.24,30.24,0,0,1-17.75-5.5A52.85,52.85,0,0,0,490,371.12c0,11.5,4.5,19,11.5,19,25,0,51-36,64.25-66.5-4.5-2.74-7-6.5-7-11,0-13.24,16.75-31.5,25.25-31.74,5.25,0,7.25,3.24,7.25,8.74,0,5.26-2,12.76-4.75,21,7-1.74,13.5-5.24,21.75-10.5,4-2.5,7.5-4.24,10.5-.24,3.25,4.24,7.5,11,7.5,17.24,0,3-1.25,6.26-4.25,9.5-10.75,12.5-23,29.5-27.5,42.26a41.76,41.76,0,0,0-1.75,10.74c0,6.5,2,10.76,5.5,10.76,9,0,23.25-15.26,30.75-32.76,2.25-4.74,6-5.74,8.5-.24C638.77,360.12,639.52,367.12,636.27,374.12Zm-140.5-27a12.17,12.17,0,0,0,5.5,1.5c6.5,0,13.25-7.24,18.25-14,7-9,12.75-21.24,10.25-23.24-4.5-3.5-21.5,11-31.75,31.24A38,38,0,0,0,495.77,347.12Z"/></g></g></svg>