<svg xmlns="http://www.w3.org/2000/svg" viewBox="0 0 442.26 94.37"><defs><style>.cls-1{fill:#fff;stroke:#000;stroke-miterlimit:10;stroke-width:3px;}</style></defs><g id="レイヤー_2" data-name="レイヤー 2"><g id="コンテ"><path class="cls-1" d="M1.5,91.46V2.2h45v8.2H11.22V42.15H43.67v8.08H11.22V91.46Z"/><path class="cls-1" d="M123.79,55.62c0,26.83-13.82,37.25-31.62,37.25-16.64,0-29.88-9.72-29.88-36.66V2.32H72v54c0,20.27,8.9,28.47,20.61,28.47,12.89,0,21.44-8.67,21.44-28.47v-54h9.72Z"/><path class="cls-1" d="M202.39,91.46H190.91L161.75,46.72l-8.32,9.72v35h-9.72V2.2h9.72V45.78h.47c2.22-3.4,4.68-6.68,6.91-9.61L188,2.2h12l-31.39,38Z"/><path class="cls-1" d="M273,55.62c0,26.83-13.83,37.25-31.63,37.25-16.64,0-29.87-9.72-29.87-36.66V2.32h9.72v54c0,20.27,8.9,28.47,20.62,28.47,12.88,0,21.43-8.67,21.43-28.47v-54H273Z"/><path class="cls-1" d="M292.94,3.37A142.18,142.18,0,0,1,315.43,1.5c35.84,0,46.15,21.2,46.15,43.11,0,14.17-3.75,26.24-12.18,35-7.85,8.09-20.85,12.54-37.13,12.54a158.54,158.54,0,0,1-19.33-.94Zm9.72,80.36a80.06,80.06,0,0,0,11.36.59c24.14,0,37.37-13.71,37.37-39.24,0-23.2-12.41-35.73-35.61-35.73a69.59,69.59,0,0,0-13.12,1.17Z"/><path class="cls-1" d="M440.18,91.46H429.87l-9.6-28.93h-31l-9.38,28.93h-10L399.42,2.2h11.24ZM418.28,54.8l-8.79-26.47c-1.87-6.1-3.4-11.72-4.57-17h-.35c-1.17,5.39-2.81,11-4.45,16.63l-8.9,26.83Z"/></g></g></svg>