<svg xmlns="http://www.w3.org/2000/svg" viewBox="0 0 402.2 70.04"><defs><style>.cls-1{fill:#003258;stroke:#003258;stroke-miterlimit:10;stroke-width:2px;}</style></defs><g id="レイヤー_2" data-name="レイヤー 2"><g id="コンテ"><path class="cls-1" d="M1,2.54H27.7v2.8c-7.8.7-9.2,1.4-9.2,10.3v17.2c2-.2,4.3-1.8,7.2-4.6,5.6-5.3,12.3-12.1,16.9-17.3,3-3.4,2.7-4.7-1.6-5.3l-2.8-.3V2.54H62.5v2.8c-7.5.9-10.1,1.4-16.8,8.3-3,2.9-10.8,10.5-17.2,16.8,7.6,9,18.7,21.8,23.9,27.3s6.4,6.3,12.6,7v2.8H49c-7.7-8.7-15.8-18.4-24.9-29-2.3-2.8-4-3-5.6-2.9v19c0,8.7.9,9.4,9.2,10.1v2.8H1v-2.8c8.2-.7,9-1.4,9-10.1v-39c0-9-.7-9.7-9-10.3Z"/><path class="cls-1" d="M66.3,67.54v-2.8c8.2-.9,9-1.3,9-9.8V15.24c0-8.6-.8-9-9-9.9V2.54H93.1v2.8c-8.3.9-9.1,1.3-9.1,9.9v39.7c0,8.6.8,8.9,9.1,9.8v2.8Z"/><path class="cls-1" d="M161.3,68.34c-1.3,0-2.4-.1-3.7-.2-7.3-.5-11.2-2.4-15.6-8.6-3.7-5.1-7.3-11.4-10.5-16.5-2-3.2-3.3-3.8-8.4-3.8h-3.5v15.7c0,8.5,1.1,9,9.1,9.8v2.8H102v-2.8c8.3-.9,9-1.3,9-9.8V15c0-8.5-1.1-8.8-9-9.7V2.54h25.5c7.3,0,12.2.9,16,3.4,4.1,2.6,6.8,7.1,6.8,13.2,0,8.6-5.5,14-12.9,17.2,1.8,3.1,6.1,9.8,9.1,14.3a91.82,91.82,0,0,0,7.9,10.3,14.39,14.39,0,0,0,7.3,4.6Zm-36.9-32.5c5.2,0,8.5-.8,11-2.9,3.9-2.9,5.5-6.9,5.5-12.3,0-10.7-7.1-14.6-14.8-14.6-2.9,0-4.6.4-5.3,1-.9.7-1.2,1.7-1.2,4.3v24.5Z"/><path class="cls-1" d="M163.3,67.54v-2.8c8.2-.9,9-1.3,9-9.8V15.24c0-8.6-.8-9-9-9.9V2.54h26.8v2.8c-8.3.9-9.1,1.3-9.1,9.9v39.7c0,8.6.8,8.9,9.1,9.8v2.8Z"/><path class="cls-1" d="M233.7,17.74c-1.7-6.6-4.5-13.1-13.9-13.1-7.8,0-10.5,5.7-10.5,10.9,0,6.9,4.4,10.4,12.7,14.7,12,6.2,17.2,10.8,17.2,20.3,0,10.5-9.1,18.5-22,18.5a41.72,41.72,0,0,1-15.3-3.3,136.45,136.45,0,0,1-2.7-15l3.1-.8c2,6.7,6.4,15.4,16.8,15.4,7.2,0,11.6-5,11.6-11.5,0-7.7-4.1-10.8-12.9-15.6-10.5-5.7-16.4-10.5-16.4-19.8,0-8.9,7.4-17.3,20.6-17.3,5.6,0,11.1,1.5,13.2,1.9.4,3.6.8,7.6,1.6,14.1Z"/><path class="cls-1" d="M281.9,67.54v-2.8c6.5-.8,7.3-1.8,5.9-5.6s-3.3-8.9-5.4-15.2H260.8c-1.6,4.5-3.1,8.4-4.5,12.5-2.2,6.5-.8,7.3,7.4,8.3v2.8H240.6v-2.8c6.3-.8,7.9-1.5,11.4-10.5l20.7-52.5,3.2-.6c6.3,17.1,13.2,36,19.5,53.3,3.2,8.7,4.1,9.5,11.2,10.3v2.8Zm-10-53.3c-3.2,8.6-6.6,17.7-9.6,25.6H281Z"/><path class="cls-1" d="M309.1,2.54h26.7v2.8c-7.8.7-9.2,1.4-9.2,10.3v17.2c2-.2,4.3-1.8,7.2-4.6,5.6-5.3,12.3-12.1,16.9-17.3,3-3.4,2.7-4.7-1.6-5.3l-2.8-.3V2.54h24.3v2.8c-7.5.9-10.1,1.4-16.8,8.3-3,2.9-10.8,10.5-17.2,16.8,7.6,9,18.7,21.8,23.9,27.3s6.4,6.3,12.6,7v2.8h-16c-7.7-8.7-15.8-18.4-24.9-29-2.3-2.8-4-3-5.6-2.9v19c0,8.7.9,9.4,9.2,10.1v2.8H309.1v-2.8c8.2-.7,9-1.4,9-10.1v-39c0-9-.7-9.7-9-10.3Z"/><path class="cls-1" d="M374.4,67.54v-2.8c8.2-.9,9-1.3,9-9.8V15.24c0-8.6-.8-9-9-9.9V2.54h26.8v2.8c-8.3.9-9.1,1.3-9.1,9.9v39.7c0,8.6.8,8.9,9.1,9.8v2.8Z"/></g></g></svg>