<svg xmlns="http://www.w3.org/2000/svg" viewBox="0 0 760.17 281.19"><defs><style>.cls-1{stroke:#000;stroke-miterlimit:10;stroke-width:4px;}</style></defs><g id="レイヤー_2" data-name="レイヤー 2"><g id="レイヤー_1-2" data-name="レイヤー 1"><g id="_3列目" data-name="3列目"><path class="cls-1" d="M90.75,96.38l-.31,26.24c2.81-2.18,5-3.12,7.18-3.12,6.57,0,39.38,33.44,39.38,39.06,0,4.38-6.88,10.94-11.25,10.94-2.19,0-4.37-1.56-6.56-4.69-7.5-10-19.07-22.5-29.07-31.87L88.56,271.06c0,5.32-1.56,8.13-5.31,8.13-4.69,0-16.56-4.69-16.56-13.44a11.88,11.88,0,0,1,.31-3.13,116.73,116.73,0,0,0,2.81-22.81s.63-53.75,1.25-88.43c0-6.88.94-23.44.94-23.44-15,45-60.62,89.37-68.44,89.37-1.25,0-1.56-.62-1.56-1.87,0-1.56,1.25-4.38,3.75-7.82,23.44-29.37,43.75-65,61.56-109.06l-29.69,2.5a81.33,81.33,0,0,1-8.12.63C19.19,101.69,12,90.75,12,83.88c0-.94.31-1.57,1.56-1.57.63,0,.94.31,1.56.31a57.56,57.56,0,0,0,12.5,1.88c1.26,0,2.5-.31,3.76-.31l40.31-3.44.62-58.44c0-5.93-1.25-10-3.75-13.43C67.31,7,66.69,5.75,66.69,4.5c0-1.56,1.56-2.5,4.06-2.5,0,0,20.94,1.88,20.94,12.5l-.94,64.38,18.13-1.57a39.53,39.53,0,0,0,11.24-2.5,7,7,0,0,1,2.5-.31c4.07,0,15.94,9.69,15.94,14.38,0,2.5-2.81,3.74-7.18,4.06Zm76.56,153.43.31,14.69c0,4.06-1.56,6.56-5,6.56-.31,0-16.56-2.5-16.56-12.18a11.48,11.48,0,0,1,.32-3.13c1.24-6.25,1.56-13.44,1.56-21.25l-3.13-170a59,59,0,0,0-3.12-18.12,12.22,12.22,0,0,1-.94-4.38c0-1.88.94-3.12,3.75-3.12,3.44,0,9.69,1.87,20.31,6.87l81.88-5.31c1.87,0,3.75-.32,5.31-.32,11.25,0,13.75,10.32,13.75,11.88,0,3.12-2.19,5.62-2.19,8.12l-4.37,167.82c5.93,5.94,8.43,10.31,8.43,13.12,0,3.75-3.74,5.32-8.43,5.63ZM243.25,57.94l-79.06,5,.62,41.25,77.5-4.38ZM242,117l-76.88,4.06.94,45,75-4.06Zm-1.25,62.5-74.37,3.44.62,48.75,72.81-2.5Z"/><path class="cls-1" d="M313.92,265.08l.38,5.87v.75c0,1.5-.38,2.5-1.88,2.5s-6.87-1.75-6.87-5.12c0-.38.12-.88.12-1.38a27.09,27.09,0,0,0,.13-3.25c0-1.12,0-2.37-.13-3.87l-3.62-64.25a14.42,14.42,0,0,0-1.88-7,5.38,5.38,0,0,1-1-2.25c0-.63.38-.88,1.25-.88,1.38,0,4.38.75,9.38,2.5l75.25-4h1.37c3.38,0,6.88,2.75,6.88,4.88,0,1.25-.88,2.12-1,3.25l-5.75,62.75c2.37,2.62,3.37,4.37,3.37,5.5,0,1.37-1.5,1.75-4,1.87Zm27.88-71-31.75,1.62,1.5,25.88,30.25-1.38Zm0,33.25-29.88,1.25,1.63,29.5,28.25-.88Zm39.25-1.75L349.55,227l-.25,30,29.62-1ZM383.42,192l-33.5,1.75-.25,26.13,31.88-1.38Z"/><path class="cls-1" d="M579.42,236.7c-3.12,0-4.5-4.87-4.75-6.25V230c0-1,.38-2.25.38-3.25,0-2.37.25-36.12.25-38.12,0-3.13-2.63-4.88-2.63-6.25v-.25c.25-.63,1.5-1,3.13-1,7.75,0,7.87,3.37,7.87,6v2.25c0,3.87-.25,38.37-.25,41.37,0,2.75-1.25,5.63-3.37,6Zm40.38-28.5c-.75,36.63-11.38,54-38.5,68a13.94,13.94,0,0,1-5.25,1.88c-.63,0-1-.25-1-.63,0-.87,1.37-2.5,4.25-4.75,21.12-15.75,31.62-29.5,31.62-69.87,0-5.38-.12-11.5-.37-17.25-.25-4-2.5-5.38-2.5-6.75v-.25c.12-.63,1.25-.88,2.5-.88a17.76,17.76,0,0,1,5.25.88c3.37,1.25,3.62,2.5,3.62,5v1c.25,6.5.38,13.62.38,19.75Z"/><path class="cls-1" d="M753.3,251.08c0,2.5-1.88,2.87-5.38,3.37-9.62.88-45,3.63-55.37,4.25-1,0-2,.13-2.88.13-5.87,0-7.75-7.25-7.75-7.75a1.24,1.24,0,0,1,.5-1.13,1.07,1.07,0,0,1,.75-.37c1.38,0,3.38,1.5,7.25,1.5h1.25c10.25-.88,38.88-2.75,50.25-4,1-6.25,3-19.38,6.13-44.63-12.5,1.38-40,3.63-50.13,4.75-1.25.13-2.37.38-3.5.38-4.37,0-7.37-6.5-7.37-7.88a1.2,1.2,0,0,1,.5-1.12c.12-.13.37-.13.62-.13,1.38,0,3.88,1.25,7.13,1.25.5,0,.87-.12,1.37-.12,11.38-1.13,43.38-3.88,54.13-5.25h.5c2.12,0,5.37,1.37,6.5,3.5a3.73,3.73,0,0,1,.37,1.5c0,1.12-.87,1.87-1.12,3.87l-6.25,43.88c1.12,1,2.37,2.25,2.5,3.5Z"/></g></g></g></svg>