<svg xmlns="http://www.w3.org/2000/svg" viewBox="0 0 897.39 286.55"><g id="レイヤー_2" data-name="レイヤー 2"><g id="レイヤー_1-2" data-name="レイヤー 1"><g id="_4列目" data-name="4列目"><path d="M153.12,120l-34.68,1.88c-.63,27.81-4.38,53.43-12.82,80C90,250,45.31,278.75,36.56,278.75c-1.56,0-2.18-.63-2.18-1.87,0-1.57,1.87-4.38,5.62-8.13,34.06-31.25,56.25-71.87,57.19-145.63l-72.81,4.07c-2.82,0-5.32.31-7.5.31-3.76,0-6.88-.31-8.13-1.56A31.55,31.55,0,0,1,.31,111.88c0-.32-.31-.94-.31-1.26a1.66,1.66,0,0,1,1.88-1.87,2.34,2.34,0,0,1,1.24.31,42.76,42.76,0,0,0,11.26,1.25h4.06l104.68-5.93V70L73.44,72.81c-2.82,0-5.32.31-7.5.31-3.75,0-6.88-.31-8.13-1.56A31.39,31.39,0,0,1,49.38,57.5c0-.31-.32-.94-.32-1.25a1.66,1.66,0,0,1,1.88-1.87,2.39,2.39,0,0,1,1.25.31,43.11,43.11,0,0,0,11.25,1.25H67.5l55.62-3.13V20c0-5.31-1.56-9.38-4.37-13.75a6.55,6.55,0,0,1-1.25-3.44C117.5.94,119.06,0,121.56,0c4.06,0,22.82,3.44,22.82,12.5l-.32,39.38,49.06-2.82a32.82,32.82,0,0,0,10.63-2.5,1.89,1.89,0,0,1,1.25-.31c4.38,0,15.62,9.06,15.62,14.69,0,2.81-3.12,3.75-7.18,4.06l-69.69,3.75-.31,34.69,100-5.63a32.57,32.57,0,0,0,10.62-2.5,1.9,1.9,0,0,1,1.25-.31c4.38,0,15.63,9.06,15.63,14.69,0,2.81-3.13,3.75-7.19,4.06l-91.87,5,2.81,139.37c0,4.07.62,7.5.62,10.32,0,8.44-7.19,16.56-14.37,16.56-12.19,0-52.82-33.44-52.82-40.94,0-1.25.94-1.87,2.5-1.87,1.88,0,5.63,1.25,10.32,3.43a273.24,273.24,0,0,0,33.44,13.44ZM10.94,229.06c-2.82,1.25-4.69,1.88-5.94,1.88a2.23,2.23,0,0,1-2.5-2.19c0-1.56,1.25-4.06,4.06-6.87,12.82-12.19,48.13-50.32,48.13-70.32.31-3.75,1.25-5.62,3.43-5.62,5.63,0,19.69,10.94,19.69,16.56a8.31,8.31,0,0,1-1.56,4.38C56.56,192.81,37.5,213.44,12.5,228.12Zm228.12-12.81c-13.75-17.81-33.12-40-47.81-54.06-2.81-2.81-4.37-4.69-4.37-6.57,0-2.5,6.56-10,10.31-10,7.81,0,52.5,47.5,58.12,53.76q3.75,4.22,3.75,7.5c0,7.18-10.31,13.74-13.44,13.74C243.44,220.62,241.25,219.38,239.06,216.25Z"/><path d="M378.52,185.3,307,189.92c-1.38.13-2.5.25-3.5.25-6.38,0-7.88-8-7.88-8,0-.37.25-.62.75-.62.13,0,.25.12.5.12a38,38,0,0,0,6.63.75h.75l75.87-4.75h1.13c4.62,0,6.5,3.38,6.5,5.13,0,1.25-.75,2.12-.75,2.62l-1.13,88.88c0,1.25.13,2.37.13,3.25a6.66,6.66,0,0,1-6.38,6.75,12,12,0,0,1-5.12-1.63c-11.75-5.87-25.5-13.5-25.5-15.87,0-.63.62-1,1.62-1a10.28,10.28,0,0,1,3.5.62c7.13,2.38,14.5,5.25,23.25,7.38ZM312,210.17c-.88,0-1.75.13-2.5.13-2.38,0-3.63-.38-4.75-1.38a15.24,15.24,0,0,1-3.38-5.5,1.15,1.15,0,0,1-.12-.62.66.66,0,0,1,.75-.75c.12,0,.25.12.5.12a22.18,22.18,0,0,0,5.87.88h.75l41.38-2.38a22.2,22.2,0,0,0,4.87-1,2.89,2.89,0,0,1,1-.12c1.38,0,7,3.62,7,5.87,0,1-1.12,1.63-3.12,1.75Zm8.12,43,.25,2.38v.37c0,1.5-.75,2.63-2.25,2.63-2.12,0-6.75-2.13-6.75-4.38a4.53,4.53,0,0,1,.13-1.25,35.12,35.12,0,0,0,.37-3.87,9.9,9.9,0,0,0-.12-1.88l-1.88-16.37a16.74,16.74,0,0,0-1.75-6.5,7.53,7.53,0,0,1-1.12-2.75c0-.5.37-.75,1.12-.75,1.38,0,4.25.87,9.38,2.75l30.25-1.5h.75c3.75,0,6,2.25,6,4.37,0,1.13-.75,2.25-.88,2.88l-2.87,15.37c2.62,2.63,3.62,4.25,3.62,5.38,0,1.37-1.62,1.75-3.87,1.87Zm25.13-23.87-27.13,1.25,1.38,15.75,23.62-1Z"/><path d="M555.64,238.05c-11.37,13.12-19.25,18.25-20.87,18.25a.89.89,0,0,1-1-.88c0-.87.62-2.25,2.12-3.87a196.88,196.88,0,0,0,28.88-40.88,11.26,11.26,0,0,0,1.62-5.62c0-1.5.38-2.25,1.38-2.25,2.5,0,7.37,4.75,7.37,6.5,0,1.37-6,11.12-12.12,19.37l.37,53.88a2.17,2.17,0,0,1-2.37,2.37c-2.5,0-6.38-2.12-6.38-5.12a4.5,4.5,0,0,1,.13-1.25,38.8,38.8,0,0,0,.62-7.5Zm-16.25-22.13a.66.66,0,0,1-.75-.75c0-.75.75-2.12,2.5-3.87,12.38-12.13,25.63-30.38,25.63-36,0-1.5.37-2.38,1.37-2.38,2.38,0,7.75,5,7.75,6.88a2.62,2.62,0,0,1-.62,1.5C562.39,200.42,543.14,215.92,539.39,215.92Zm40.75,61.13c-1.25,0-2.37.12-3.5.12-2.12,0-3.75-.25-4.62-1.37a14.9,14.9,0,0,1-3-5.75c0-.13-.13-.38-.13-.5a.89.89,0,0,1,.88-1,1.15,1.15,0,0,1,.62.12,21,21,0,0,0,6.13,1.13h.62l9-.25-.5-44.88a9.35,9.35,0,0,0-1.75-5.62,2.86,2.86,0,0,1-.37-1.13c0-.62.5-.87,1.5-.87a12.6,12.6,0,0,1,4.75,1.25c3.37,1.5,4,2.12,4,4.12l.37,46.75,14.25-.5.5-73.62-17,.87c-1.87.13-3.5.25-4.75.25h-.62c-1.63-.12-2.75-.37-3.5-1.12-1.5-1.5-3.63-4.5-3.63-6.13,0-.5.38-.75,1-.75a2.39,2.39,0,0,1,.88.13,19.24,19.24,0,0,0,5.37.75h1l42.63-2.25a17.61,17.61,0,0,0,5.87-1.13,4.91,4.91,0,0,1,1.75-.37c1.25,0,7,3.87,7,6.25,0,1.12-1.37,1.5-3.12,1.62L617,194.55l-.25,31.75,9.87-.5a18.15,18.15,0,0,0,5.88-1.25,2.21,2.21,0,0,1,.87-.25c.75,0,7,3.87,7,6.37,0,1.13-1.5,1.63-3.25,1.75l-20.37,1-.25,35,22.25-.75a19.28,19.28,0,0,0,6.25-.87,6.16,6.16,0,0,1,1.37-.25c1.88,0,6.88,4.25,6.88,6.5,0,1.12-1.25,1.5-2.88,1.62Z"/><path d="M722.64,224.3l.13,55.62c0,2.38-.88,3.38-2.25,3.38a6.75,6.75,0,0,1-3.38-1.13c-2.87-1.62-4.25-2.75-4.25-5a5.38,5.38,0,0,1,.13-1.37,39.53,39.53,0,0,0,.87-7.5V224.8l-38,2.12a30.43,30.43,0,0,1-3.25.13,6.76,6.76,0,0,1-4-.88,13.75,13.75,0,0,1-3.87-7.25.66.66,0,0,1,.75-.75,4.14,4.14,0,0,1,1,.25,16.93,16.93,0,0,0,5.12.63h1.5l40.75-2.25V180.17a8.39,8.39,0,0,0-1.5-5.37,2.66,2.66,0,0,1-.62-1.38c0-.62.62-.87,1.75-.87a21.33,21.33,0,0,1,4.62.75c4,1,4.5,1.87,4.5,3.87V216.3l36.88-2.13a18.35,18.35,0,0,0,5.12-1,2.23,2.23,0,0,1,.88-.12c2.62,0,7.5,4.5,7.5,6.37,0,1.38-1.38,2.13-3.25,2.25Z"/><path d="M806.14,234.42l.25,26.88a234,234,0,0,0,22-9.25c-2.75-3.13-5.5-6-8.62-9.13a2.62,2.62,0,0,1-.88-1.75c0-2.5,4.13-3.75,4.5-3.75,2.88,0,16,14.63,22.88,24.38a4.6,4.6,0,0,1,1.12,2.62c0,2.63-4.37,4.5-5.25,4.5-1.25,0-2-.87-2.75-2-2.37-3.87-4.75-7.12-7-10.12-30.12,16.25-36.37,16.62-36.87,16.62-1.13,0-4.63-1.12-7-5.62a1.69,1.69,0,0,1-.25-1c0-.63.5-.88,1.5-1a25.12,25.12,0,0,0,7.37-1.38l1.5-.5-.25-65a31.82,31.82,0,0,0-1.25-9.62,3.24,3.24,0,0,1-.12-1c0-.5.12-.88.87-.88,1.25,0,3.75.88,8.5,3.13l9.5-.63-.25-12.5a6.33,6.33,0,0,0-1.5-4.25,1.29,1.29,0,0,1-.5-1c0-.62.88-1,2.25-1,2,0,7.38,1,7.38,3.75l-.13,14.5,11.5-.87c.5,0,.88-.13,1.38-.13,1.62,0,5.75,1.5,5.75,4.38,0,1-.63,2-.75,3.25l-2.75,30.62c2.5,2.75,3.5,4.25,3.5,5.13,0,1.12-1.38,1.25-3.25,1.37Zm27-39.37-27.25,1.87L806,208.8l26.37-1.5ZM832,213.55l-26,1.37.12,13.13,25-1Zm21.75-15.5c0-6,0-9.38-1.38-12.88a8.28,8.28,0,0,1-.87-2.75c0-.5.37-.87,1.12-.87,1.5,0,4.38,1,9.75,3.12l26.38-1.75c.62,0,1.12-.12,1.62-.12,2.13,0,5.63,1.75,5.63,3.75,0,1.25-1.38,2.37-1.75,3.12A165.73,165.73,0,0,1,880,213.42a1.52,1.52,0,0,0-.5,1.13c0,.5.5,1,1.37,1.75,5.75,4.87,16.5,15.25,16.5,30,0,2.12-.12,14-7.12,14-6,0-25.63-12.25-25.63-15.63,0-.37.38-.62,1-.62a9.73,9.73,0,0,1,3.75,1A111.14,111.14,0,0,0,887,250.67a2,2,0,0,0,.87.13.81.81,0,0,0,.88-.75,15.58,15.58,0,0,0,.75-4.63,25.4,25.4,0,0,0-2.13-9c-2.75-7-8.12-12.37-14.25-17.5a4.33,4.33,0,0,1-1.75-3.37,7.26,7.26,0,0,1,1.5-4c4.88-6.88,8.13-14,12.5-22.13l-23.87,1.38.37,93c0,1.62-.5,2.75-1.87,2.75s-7.13-2.13-7.13-5.5a3.36,3.36,0,0,1,.13-1.13,67.23,67.23,0,0,0,.87-11.75Z"/></g></g></g></svg>