<svg xmlns="http://www.w3.org/2000/svg" viewBox="0 0 1483.96 250.05"><defs><style>.cls-1{stroke:#000;stroke-miterlimit:10;stroke-width:4px;}</style></defs><g id="レイヤー_2" data-name="レイヤー 2"><g id="レイヤー_1-2" data-name="レイヤー 1"><g id="_1列目" data-name="1列目"><path class="cls-1" d="M199.81,2c9.07,0,15,10.31,15,13.75,0,2.5-1.87,5.31-5.31,7.19-1.88,1.25-4.38,2.5-6.56,4.06-33.44,27.19-71.88,53.75-89.69,64.38C89.5,168.25,25.44,229.5,13.56,229.5c-3.44,0-3.44-2.19-3.44-3.44,0-3.12,2.5-6.87,5.63-9.37C33.56,200.12,82,137.62,94.81,74.19V72.94c0-2.19-.31-5.32-.93-6.56C92.31,62,89.19,59.81,89.19,57c0-2.5,2.81-3.12,5.62-3.12,6.57,0,24.38,2.81,24.38,12.18a25,25,0,0,1-.94,5.94c15-11.56,38.44-30.94,58.75-50C136.06,27,79.19,33.25,27,42.31a37.17,37.17,0,0,1-7.19.94C9.81,43.25,2,24.81,2,22.62c0-1.24.31-1.87,1.25-2.18a5.21,5.21,0,0,1,2.19-.32c3.12,0,7.18,1.57,9.37,2.19a15.94,15.94,0,0,0,4.07.63h1.24C77.94,13.88,179.81,3.88,198.25,2Z"/><path class="cls-1" d="M160.46,231.3c0-1.13.37-1.75.37-3.13v-58.5c0-3-2.37-4.62-2.37-6.12v-.13c0-.75,1-1.12,2.37-1.12a17.08,17.08,0,0,1,5.5,1.25c2.88,1.12,3.13,2.62,3.13,5v2.75c0,2.75,0,40.75-.13,54.75,21.88-9.88,51.88-32,63.25-46.75,1.63-2,2.88-2.75,3.75-2.75.63,0,1,.5,1,1.5,0,8.75-34.75,43.75-70.5,59.25a3.32,3.32,0,0,1-1.5.37c-3.5,0-4.87-5.37-4.87-5.75Z"/><path class="cls-1" d="M316.21,165.92c-13.88,18.5-30.88,30.38-35.5,33.75a5.94,5.94,0,0,1-3,1.13,1.58,1.58,0,0,1-1.38-.5,1.42,1.42,0,0,1-.37-1c0-1,1.25-2.25,2.25-3.13a165.18,165.18,0,0,0,31.12-35.5,8.18,8.18,0,0,0,1-3.37v-.13c0-1.37-1.12-2.62-1.12-3.62a1.5,1.5,0,0,1,.62-1.25,1.35,1.35,0,0,1,1-.25,11.62,11.62,0,0,1,2.88.75c4.62,2.25,6.5,4.37,6.75,5.75,6.25-.75,27.5-3.25,28.5-3.25,2.12,0,6.25,2.12,6.25,4.62,0,1.63-1.75,2.75-2.13,3.38-23.75,51.5-70,80.87-79,80.87a1.63,1.63,0,0,1-1.5-.75.76.76,0,0,1-.12-.5c0-1,1.25-2.12,3.75-3.5,15.12-8.5,47-36.12,67-76.37C331.58,164.17,324,165.3,319,165.8a11.94,11.94,0,0,1-2,.12Z"/><path class="cls-1" d="M491,179.05c0,1.75-1.25,2.37-4.13,2.37-8.37.13-17.87.75-27.5,1.5-.12,3-.25,5.38-.25,6.88-1.25,33.5-21.62,47.75-37.25,55.12a10.36,10.36,0,0,1-4.12,1.38,1.58,1.58,0,0,1-1.38-.75,1.42,1.42,0,0,1-.12-.63c0-1,1.12-2,3.5-3.37,13.37-7.75,30.37-22.88,31.5-52.25,0-1.25.12-3.25.25-5.75-7.88.75-15.63,1.62-22.88,2.37.25,8,.5,16,.88,24.25v.5c0,.75,0,5.75-3.38,5.75s-4.5-5.37-4.62-6.25v-.37c0-1,.37-2.25.37-3.25s-.37-10-.87-19.75c-9.38,1.25-17.63,2.37-23.38,3.25a14.08,14.08,0,0,1-3.12.37c-3.38,0-7.38-5.37-7.38-7.25,0-.75.75-.75,1.38-.75,1.25,0,3,.38,3.75.38h2.87l25.63-3.13c-.13-6.75-.75-19.87-.75-19.87a7.69,7.69,0,0,0-1-2.63c-.63-1.12-1.75-2.25-1.75-3v-.25c.25-.62,1.12-.87,2.37-.87a31.44,31.44,0,0,1,4.38.5c3,.75,3.37,2.5,3.5,5,.37,6.87.62,13.62.87,20.25l23.25-2.38c.13-5.62.38-11.62.38-16.12,0-1.75,0-3.38-.13-4.5a5.47,5.47,0,0,0-.87-2.75c-.75-1.38-1.88-2.25-1.88-3.25,0-.25.13-.38.13-.5q.18-.75,2.25-.75a19.89,19.89,0,0,1,5.25.87c2.62.75,3.12,1.88,3.25,4.63v2.12c0,4.13-.13,11.75-.38,19.5,7.38-.62,14.38-1.25,20.63-1.5,1.37,0,2.75-.75,4.25-.75h.25c1.87.13,5.87,2.88,6.25,5.13Z"/><path class="cls-1" d="M528.21,163.17c1.62,0,20.75,8,28.25,13.13a3.58,3.58,0,0,1,2,3c0,1.75-1.63,5.87-4.75,5.87a3.42,3.42,0,0,1-2.13-.75c-4.75-3.75-18.25-11.37-24.75-13.75a3.37,3.37,0,0,1-2.5-3,3.17,3.17,0,0,1,.63-2C526,163.92,527,163.17,528.21,163.17Zm6.12,73.13c-3.12,0-7.37-6.13-7.37-8.63a1.2,1.2,0,0,1,.5-1.12,2,2,0,0,1,1.12-.38c.63,0,1.38.25,2.75.25a14,14,0,0,0,3.88-.62c27.62-7.63,65.5-39.25,72.12-47.5,2.13-2.63,4-3.88,5.13-3.88.62,0,1,.38,1,1.13,0,6-30.75,42.25-75.13,59.62A10.3,10.3,0,0,1,534.33,236.3Z"/><path class="cls-1" d="M672.46,158.05a7.6,7.6,0,0,0-.75-3.5c-.63-1.38-1.88-2.5-1.88-3.63a1.07,1.07,0,0,1,.13-.62c.12-.38,1-.63,2-.63a18.74,18.74,0,0,1,5.5,1c3,1.25,3.25,2.88,3.25,5.63v28.37c12.12,2.88,35.12,11.13,39.5,14.38a3.58,3.58,0,0,1,1.62,3.12c0,2.5-1.37,5.13-3.75,5.13a7.76,7.76,0,0,1-3.12-1c-8.63-4.25-22.63-10.63-34.25-14v49.5c0,2.87-.5,5.5-2.88,6.12a1.53,1.53,0,0,1-.75.13c-3.25,0-4.87-4.88-5.37-7a2.39,2.39,0,0,1-.13-.88c0-1.5.88-2.37.88-3.62Zm39.87,18.25a3,3,0,0,1-2.25-1.13A103.1,103.1,0,0,0,699,164.05a2,2,0,0,1-.88-1.75,3.49,3.49,0,0,1,3.25-3.25c2.75,0,14.88,10.37,14.88,13.62C716.21,173.8,714.58,176.3,712.33,176.3Zm9-7.5a2.6,2.6,0,0,1-2-1,82.93,82.93,0,0,0-11.62-10.88,1.76,1.76,0,0,1-.88-1.5,3.77,3.77,0,0,1,3.63-3.25c1.75,0,14.87,9.13,14.87,12.63a4.07,4.07,0,0,1-1.25,2.87A5,5,0,0,1,721.33,168.8Z"/><path class="cls-1" d="M782.58,179.8c2.63-.13,63.25-7.38,64.38-7.38,2.5,0,6.12,2.25,6.12,4.25,0,1.13-.75,2.25-1.37,3.88C833,227.92,789.08,245.8,782,245.8c-.63,0-1-.13-1-.5,0-.88,2.37-2.88,7-5.75,20.37-12.25,39.75-27.13,53.62-58.75-17,1.62-55.87,6.62-58.5,6.87a18.67,18.67,0,0,1-2.5.13c-3.62,0-7.12-6-7.12-8a1.08,1.08,0,0,1,.87-1.13h.25c1.25,0,3.5,1.13,7.13,1.13Zm12.88-22.75c3.25-.25,28.87-2.5,35.25-4.25,3.62-1,3.62-1,4.12-1,2.13,0,5.75,1.75,5.75,5.12,0,2-1.87,2.88-5.37,3.38-9.5,1.5-30,3.87-40.38,4.37-.5,0-1,.13-1.5.13-3.25,0-7.12-4.5-7.12-7.25a1.33,1.33,0,0,1,.62-1.13,1.94,1.94,0,0,1,.88-.12c1.5,0,4.12.75,6.87.75Z"/><path class="cls-1" d="M928,192.92c0-6.37,3.62-10.62,10-10.62,5.62,0,12,7.12,12,13.62s-3.88,10.25-9.88,10.25C933.83,206.17,928,198.8,928,192.92Z"/><path class="cls-1" d="M1096.33,171.67c2.38,0,5.88,2.63,5.88,4.5,0,1.38-1.38,2.63-1.5,3.88-4.75,26.75-11.13,52.87-21.13,61.75-1.62,1.5-3,2.87-4.87,2.87-4.25,0-23.13-15.62-23.13-17.5a3.13,3.13,0,0,1,.25-1,1.46,1.46,0,0,1,1.25-.5,7.4,7.4,0,0,1,3.13.88c6.25,3.25,12.62,6,18.25,8.25,7.25-5.75,13.87-31.88,17.87-55.13-6.62.75-17,2.25-27.12,3.75-15.63,42.13-42,64.38-46.25,64.38-.63,0-.88-.25-.88-.88,0-1,.88-2.75,3-5A168.39,168.39,0,0,0,1056,184.8c-22,3.25-22,3.25-23.38,3.25-5.87,0-7.25-7.63-7.25-7.75a1.11,1.11,0,0,1,1-1.25h.5a24.21,24.21,0,0,1,3.38.75c1,.12,2.75.25,3.75.25l24.75-3.25a165.19,165.19,0,0,0,6.12-24.13,6.22,6.22,0,0,0-.37-2c-.38-1-1.5-2.25-1.5-3.12a.48.48,0,0,1,.12-.38,2.41,2.41,0,0,1,1.88-.62c1.25,0,9.25.62,9.25,5,0,2.37-2.63,13.37-6.25,24,11.37-1.63,22.62-3.25,27.87-3.88Zm13.13,5a2.4,2.4,0,0,1-2-1.12c-2.13-3.5-7.5-9.38-10.13-11.75a2.48,2.48,0,0,1-.75-1.75,3.41,3.41,0,0,1,3.13-3.38,3.31,3.31,0,0,1,1.75.63c3.12,2.37,12.12,11.25,12.12,13.25A4.23,4.23,0,0,1,1109.46,176.67Zm9.75-6.62a2.82,2.82,0,0,1-2.25-1.25,72,72,0,0,0-10.5-11.25,2.2,2.2,0,0,1-.75-1.63,3.75,3.75,0,0,1,3.5-3.37c2.25,0,9.75,7.62,13.25,11.62a2.8,2.8,0,0,1,.5,1.63,5.24,5.24,0,0,1-1.13,3.12A3.65,3.65,0,0,1,1119.21,170.05Z"/><path class="cls-1" d="M1173,179.67c-2.5,35.25-19.38,52.13-30.25,60.75-1.75,1.38-3.13,2-3.88,2a.92.92,0,0,1-1-1c0-1,1-2.62,2.63-4.12,8-7.88,21.5-26.63,23.87-56v-.5c0-2.88-1.5-3.88-1.5-5.38a1.53,1.53,0,0,1,.13-.75c.12-.37.75-.5,1.62-.5a21.63,21.63,0,0,1,5.25.88c2.13.62,3.13,1.25,3.13,3.75Zm11,52.63c0-1.13.37-1.88.37-3.13.13-23.87.13-53.62.13-61.62,0-3.38-2.25-5.38-2.25-6.88v-.12c0-.5.87-.75,1.87-.75a18.17,18.17,0,0,1,5.63,1.12c2.87,1.13,3.25,2.75,3.25,5.13v2.62c0,2.75-.25,42.63-.25,57.25,15-10,32.87-25.62,43.75-40.5,1.87-2.25,3.12-3.25,3.87-3.25s.88.5.88,1.38a9.46,9.46,0,0,1-1.25,4.25c-12.5,24.5-48.5,51.12-51,51.12-2.88,0-5-5.37-5-6.12Z"/><path class="cls-1" d="M1302.46,193.8c0,.12-.5,4.87-4,4.87a6.18,6.18,0,0,1-2.25-.62,120.38,120.38,0,0,0-23-9.25c-1.75-.5-3.13-1.13-3.13-2.63,0-2,2.25-4.5,3.75-4.5.88,0,19.75,4.88,26.38,8.63A4.18,4.18,0,0,1,1302.46,193.8Zm-24.38,35.5c0-.63.5-.88,1.5-.88a7.47,7.47,0,0,1,1.63.13,7.37,7.37,0,0,0,1.62.12,14.51,14.51,0,0,0,4.75-.75c29.88-9.12,65-42.12,72.13-50.62,2.12-2.5,3.87-3.63,4.87-3.63.63,0,1,.38,1,1.25,0,5.88-30.87,44.25-75.5,62a11.42,11.42,0,0,1-4.12,1,4.32,4.32,0,0,1-3.38-1.62C1280.33,234.17,1278.08,230.17,1278.08,229.3Zm29.25-53.63c-5.12-3.87-16.25-8.75-22.5-10.75-1.87-.62-2.62-1.62-2.62-2.87,0-.38.87-4.13,3.87-4.13,2.5,0,20.75,6.5,25.88,10.13a3.7,3.7,0,0,1,1.87,3.12c0,1.88-1.75,5.38-4.25,5.38A4,4,0,0,1,1307.33,175.67Z"/><path class="cls-1" d="M1476,155.17c3.62,0,6,4.13,6,5.5a3.59,3.59,0,0,1-2.13,2.88c-.75.5-1.75,1-2.62,1.62-13.38,10.88-28.75,21.5-35.88,25.75-9.5,30.75-35.12,55.25-39.87,55.25-1.38,0-1.38-.87-1.38-1.37a5.51,5.51,0,0,1,2.25-3.75c7.13-6.63,26.5-31.63,31.63-57v-.5a7.79,7.79,0,0,0-.38-2.63c-.62-1.75-1.87-2.62-1.87-3.75s1.12-1.25,2.25-1.25c2.62,0,9.75,1.13,9.75,4.88a10.15,10.15,0,0,1-.38,2.37c6-4.62,15.38-12.37,23.5-20-16.37,2-39.12,4.5-60,8.13a14.92,14.92,0,0,1-2.87.37c-4,0-7.13-7.37-7.13-8.25,0-.5.13-.75.5-.87a2.07,2.07,0,0,1,.88-.13,15.09,15.09,0,0,1,3.75.88,6.55,6.55,0,0,0,1.62.25h.5c23.13-3.63,63.88-7.63,71.25-8.38Z"/></g></g></g></svg>