<svg xmlns="http://www.w3.org/2000/svg" viewBox="0 0 742.8 292.75"><defs><style>.cls-1{stroke:#000;stroke-miterlimit:10;stroke-width:4px;}</style></defs><g id="レイヤー_2" data-name="レイヤー 2"><g id="レイヤー_1-2" data-name="レイヤー 1"><g id="_1列目" data-name="1列目"><path class="cls-1" d="M25.44,127.62c-3.13,0-5.63.32-7.82.32C4.81,127.94,2,113.56,2,112.31c0-1.56.62-2.19,1.88-2.19a3.33,3.33,0,0,1,1.56.32,44.27,44.27,0,0,0,11.25,1.25h3.43l114.38-5.31-.31-19.69L89.5,89.19c-3.12,0-5.62.31-7.81.31-3.75,0-6.25-.31-7.81-1.56C67.62,83.25,64.5,76.38,64.5,74.5c0-.94.62-1.56,2.19-1.56h1.56a77.71,77.71,0,0,0,12.19.94h3.75l50-2.82-.31-17.81L72.31,56.38c-3.75,0-6.56.31-9.37.31s-5-.31-6.56-1.25c-3.44-2.5-8.76-10-8.76-14.06a2.13,2.13,0,0,1,2.19-2.19,4,4,0,0,1,1.88.31,44.22,44.22,0,0,0,11.25,1.25h3.75l67.19-3.44-.32-18.43a26.84,26.84,0,0,0-3.44-12.5,8.08,8.08,0,0,1-.62-2.19c0-1.57,1.25-2.19,4.38-2.19a36,36,0,0,1,8.43,1.25c8.75,1.87,10.31,4.06,10.31,9.37V36.06l60.94-3.12a44.91,44.91,0,0,0,11.56-2.19,3.43,3.43,0,0,1,1.88-.31c3.44,0,14.38,6.87,14.38,13.12,0,2.5-2.5,4.06-5.94,4.38l-82.82,4.37-.31,17.81,48.13-2.81a69.87,69.87,0,0,0,11.25-1.87c.62,0,1.25-.32,1.87-.32,6.25,0,15,10.32,15,13.13,0,2.5-2.81,3.44-6.25,3.75l-70,3.75v19.69L262,100.12a72.29,72.29,0,0,0,11.88-2.18,13.77,13.77,0,0,0,1.56-.32c3.75,0,14.68,7.5,14.68,13.44,0,2.5-2.5,4.06-6.24,4.38Zm180,101.26-119.38,5-.62,49.68c0,3.44-1.88,5.94-5.32,5.94-4.37,0-15.31-5.31-15.31-12.19a6.18,6.18,0,0,1,.31-2.19,86,86,0,0,0,2.19-17.81l1.57-95c0-6.25-.63-11.87-2.5-16.25-1.26-2.81-2.19-5-2.19-6.56s.93-2.19,2.81-2.19c3.12,0,9.06,2.19,20.62,7.5l119.69-6.25h2.81c8.13,0,14.07,5.94,14.07,11.56,0,2.19-.94,4.38-.94,5.63l1.25,113.13c0,3.12.31,5.62.31,7.81,0,7.5-5.93,14.06-12.5,14.06-9.37,0-53.43-28.75-53.43-37.19,0-1.25.93-1.87,2.5-1.87,1.87,0,5,.93,9.06,2.81a215.14,215.14,0,0,0,35.31,13.12Zm-.32-37.5L86.69,196.69l-.31,21.25,119.06-5Zm-.31-35.94-117.5,5.62L87,180.75l118.12-5.63Z"/><path class="cls-1" d="M263.55,255.8a37.09,37.09,0,0,1-4.75.87,4.68,4.68,0,0,1-4.25-4.37,4.86,4.86,0,0,1,.12-1.25,24.68,24.68,0,0,0,.88-7.38l.5-28.5a8,8,0,0,0-1.5-4.87,4.22,4.22,0,0,1-.5-1.25c0-.63.37-.88,1.25-.88a14.19,14.19,0,0,1,4,1c3.12,1.25,3.5,2,3.5,3.75l-.75,35.88,8.25-1.13.12-56.25a8.65,8.65,0,0,0-1.37-4.87,2,2,0,0,1-.5-1.13c0-.5.37-.75,1.25-.75a12.09,12.09,0,0,1,4,.88c3,1,3.5,1.62,3.5,3.25l-.25,57.87,8.12-1.12.25-33.75a9,9,0,0,0-1.5-5.13,2,2,0,0,1-.37-1c0-.5.37-.75,1.25-.75a12.32,12.32,0,0,1,3.75.88c3.12,1.12,3.62,1.75,3.62,3.5l-.62,47.75c0,1.75-.63,3-2.13,3s-5.12-2-5.12-4.25c0-.25,0-.25.5-3.75Zm67.62,11.5v17.12c0,2-.62,3.25-2,3.25a6.39,6.39,0,0,1-3-1.12c-2.37-1.5-3-2.63-3-3.75a5,5,0,0,1,.13-1.38,46.37,46.37,0,0,0,.5-8v-5.87l-22.63.87h-1.62c-6.25,0-6.38-6.37-6.38-6.37a.46.46,0,0,1,.5-.5c.13,0,.38.12.5.12a24.71,24.71,0,0,0,4.63.38h2l23-.88v-8.75l-11.13.5H311.3c-2.88,0-4.63,0-6.75-5.25a.72.72,0,0,1-.13-.5c0-.37.25-.62.75-.62h.25a18.59,18.59,0,0,0,3.88.37c.87,0,1.87-.12,3.12-.12l11.38-.5v-7.63l-15.75.75h-2c-1.5,0-4.5,0-5.63-5.12a1.64,1.64,0,0,1-.12-.75c0-.5.25-.75.62-.75.13,0,.25.12.38.12a22,22,0,0,0,4.87.5h1.63l16-.75v-4.12c0-2.38-.13-3.88-1.13-5.25a3,3,0,0,1-.75-1.75c0-.5.38-.75,1.5-.75a21.92,21.92,0,0,1,3.88.62c3.62.88,3.87,2.25,3.87,3.75v7.13l10.63-.5a18,18,0,0,0,4.62-.88,4.91,4.91,0,0,1,1.75-.37c3,0,5.88,4.62,5.88,5.37,0,1-1.38,1.38-3.5,1.5l-19.38.88v7.75l7.25-.38a17.73,17.73,0,0,0,4.63-.75,5.48,5.48,0,0,1,1.75-.37c1,0,1.87.5,3.12,1.62q2.63,2.45,2.63,3.75c0,1-1.25,1.38-3.38,1.5l-16,.75v8.75l21-.87a13,13,0,0,0,4.38-.88,4.37,4.37,0,0,1,1.75-.37c1.62,0,6.12,3.37,6.12,5.62,0,1.13-1.37,1.63-3.5,1.75Zm12.25-81.75c3,0,5.75,3,5.75,4.37s-1.75,2.5-2.5,3.63a116.27,116.27,0,0,1-14.25,16.62,123.46,123.46,0,0,0,30.5,15.88c1.25.5,1.88,1,1.88,1.62,0,1.25-4.13,4.75-6,4.75-1.5,0-17.75-7.62-31.25-17.87-13.38,12-29.75,18.5-32.75,18.5-.88,0-1.38-.25-1.38-.75,0-.88,1.13-2,3.63-3.38a133.48,133.48,0,0,0,25.5-18.5,109.17,109.17,0,0,1-12.13-11.87c-1.75,1.87-12.12,12.37-15.25,12.37a.66.66,0,0,1-.75-.75,6.41,6.41,0,0,1,1.88-3.25c10.37-11.25,19.37-24.75,19.37-30.75v-.37c0-1,.38-1.63,1.38-1.63,1.87,0,7.37,3,7.37,5.13,0,1.37-3.87,6.75-4.87,8l22.75-1.75ZM314.3,193.8a97.19,97.19,0,0,0,12.62,12.25,91.51,91.51,0,0,0,11.13-13.88Z"/><path class="cls-1" d="M560.42,221.55c11.38,23.12,29.75,44.12,52.25,55,1.5.75,2.25,1.25,2.25,2,0,1.25-5.5,6-7.5,6-1.75,0-32.62-16.25-52.87-58.38-11,45.13-53,59.13-54.75,59.13-1,0-1.5-.38-1.5-1s.87-1.88,2.75-3c33.37-19.88,42.12-44.88,45.37-59l-28,1.5c-1.37,0-2.75.12-3.87.12-4,0-5.5-2-7.38-6.87a1.64,1.64,0,0,1-.12-.75c0-.38.25-.75.87-.75.13,0,.25.12.5.12a28.2,28.2,0,0,0,5.63.5h1.62l32.25-1.87a171.59,171.59,0,0,0,2.13-28.25,11.46,11.46,0,0,0-1.88-6.25,3.06,3.06,0,0,1-.5-1.5c0-.63.38-.88,1.25-.88.5,0,10.38,1,10.38,6.38v.37a268.5,268.5,0,0,1-2.38,29.63l36.38-2.13a13.06,13.06,0,0,0,4.87-1.12,2.45,2.45,0,0,1,1.13-.25c1.87,0,7.25,4,7.25,6.5,0,1.5-1.63,2.25-3.38,2.37Z"/><path class="cls-1" d="M652.42,230.17l-4.12.25c-3,21.63-9.13,37.13-22.38,48.5a4.6,4.6,0,0,1-2.75,1.38c-.5,0-.75-.25-.75-.88a4.07,4.07,0,0,1,1-2.25c10.38-14.12,14.63-26.87,17.13-46.25l-6.25.5a31.77,31.77,0,0,1-3.25.13c-1.63,0-3.88-.13-5.88-5.5a2.3,2.3,0,0,1-.25-1.13c0-.37.25-.62.75-.62a2.58,2.58,0,0,1,.88.12,17.24,17.24,0,0,0,3.75.38h1.5l14.87-1-.12-35.75c0-2.88-.25-4.88-1.25-6.75a3.08,3.08,0,0,1-.25-.88c0-.5.5-.87,1.37-.87s7.5,1,7.5,4.37l-.25,39.38,9.75-.63a10.22,10.22,0,0,0,4.25-.87,2.48,2.48,0,0,1,1.25-.25c1.88,0,5.38,3.25,5.38,5.25,0,1.12-1.13,1.87-2.75,2l-12,.87-.5,31.75c3.37-3.5,6.62-7.37,9.75-11,1.25-1.5,2.37-2.25,3-2.25s.75.38.75,1c0,3-7.25,14.13-15.5,24.38-1.75,2.12-3.38,3.25-5,3.25a2.07,2.07,0,0,1-.88-.13,12.36,12.36,0,0,1-5.87-4,1.46,1.46,0,0,1-.5-1c0-.37.25-.62.87-.75,2-.37,3-.87,5.75-3l.38-.37Zm-13-11.12c-1.12,0-2-.75-2.5-2.75a83.53,83.53,0,0,0-7-17.63,3,3,0,0,1-.5-1.62c0-2.5,4.5-3.63,4.5-3.63,2.75,0,10.63,19.5,10.63,21.88S640.92,219.05,639.42,219.05Zm23.25-28.5c0-.75.38-1,1.13-1,2,0,7.5,2.87,7.5,5.12a3.34,3.34,0,0,1-.38,1.5c-7.62,18.75-13.12,22.75-14.62,22.75-.38,0-.63-.25-.63-.87a9.4,9.4,0,0,1,.88-3.38c1.5-3.62,2.75-6.87,3.75-10.12a63.88,63.88,0,0,0,2.25-9.38,17.72,17.72,0,0,0,.25-2.37c0-.63-.13-1.25-.13-1.88Zm44.25,73.87v21.25c0,1.63-.5,2.75-2,2.75a7.07,7.07,0,0,1-2.62-.75c-2.38-1.12-3.13-2.12-3.13-3.75v-.75a98.09,98.09,0,0,0,.63-9.87v-8.63l-20.5.75c-1.38,0-2.63.13-3.63.13-1.5,0-2.62-.25-3.37-1.13-.25-.37-2.88-3.62-2.88-5.5,0-.5.25-.62.63-.62a2.5,2.5,0,0,1,.87.12,35.64,35.64,0,0,0,5.13.5h1l22.75-.87V249.8l-11.63.37v1.25c0,1.5-.62,2.25-1.87,2.25-1.75,0-5.88-1.12-5.88-4.37a5.86,5.86,0,0,1,.13-1.5,9.39,9.39,0,0,0,.25-2.63,17,17,0,0,0-.13-2.5l-1.5-19.87a19.62,19.62,0,0,0-1.25-6.13,7,7,0,0,1-.5-1.87c0-.5.25-.75,1-.75,1.13,0,3.38.62,7.38,2.25l14.12-.75v-7.13l-9.37.5c-1.13,0-2.13.13-3,.13-1.5,0-2.5-.13-3.13-.75-1.75-1.75-3-4.38-3-5.25,0-.38.25-.5.63-.5a2.5,2.5,0,0,1,.87.12,28.11,28.11,0,0,0,5,.5h1l11-.62v-2.88a12.38,12.38,0,0,0-1.25-5.37,2,2,0,0,1-.37-1c0-.5.5-.88,1.62-.88s7.13.38,7.13,3.75v6l5-.25a21.86,21.86,0,0,0,4.5-.75,5.5,5.5,0,0,1,1.37-.25c2.75,0,6,3.38,6,4.5s-1.12,1.63-2.87,1.75l-14,.75v7.25l17.12-.87h1.13c2.75,0,5.12,2.25,5.12,3.87,0,.88-.62,1.63-.75,2.38l-2.87,22.37c2,2.25,2.75,3.63,2.75,4.5,0,1.13-1.38,1.25-3,1.38l-19.63.75v8.25l22-.75a18.29,18.29,0,0,0,4.5-.63,3.14,3.14,0,0,1,1.13-.25c2.12,0,6.25,3.88,6.25,5.63,0,1-1.13,1.5-2.75,1.62Zm-24.25-71.87c-3.12,15.37-4.75,16.37-6.25,16.37-.25,0-5.37-1-5.37-3.62a5.33,5.33,0,0,1,.5-1.75,72.46,72.46,0,0,0,5.87-21c.25-1.88.75-2.75,2.5-2.75.25,0,4.25,0,4.25,2.62,0,.25-.12.63-.12,1l-.38,2.75,46.75-3c.63,0,1.38-.12,2.13-.12,2.25,0,5,2,5,4.12,0,1.25-1.38,2.13-1.63,2.75-3.25,7.25-8.75,15.25-11.25,15.25-.62,0-1-.5-1-1.37a9.2,9.2,0,0,1,1-3.25,58.41,58.41,0,0,0,3.88-10.63Zm17.25,29.25-13.87.62.62,7.5,13.25-.5Zm0,13.5-12.87.5.62,8.37,12.13-.5Zm21-.88-13.87.5-.13,8.5,13.13-.5Zm1.38-13.75-15.25.75v7.63l14.5-.63Z"/></g></g></g></svg>