<svg xmlns="http://www.w3.org/2000/svg" viewBox="0 0 779.52 288.39"><defs><style>.cls-1{stroke:#000;stroke-miterlimit:10;stroke-width:4px;}</style></defs><g id="レイヤー_2" data-name="レイヤー 2"><g id="レイヤー_1-2" data-name="レイヤー 1"><g id="_3列目" data-name="3列目"><path class="cls-1" d="M174.5,54.5c-8.12,17.81-13.44,29.38-18.75,29.38-1.87,0-3.44-1.88-3.44-5.63,0-2.19,4.07-17.19,5.94-22.81L98.56,58.88,101.38,77v1.88c0,3.43-1.26,5.62-5.32,5.62-2.5,0-15.62-1.25-15.62-10.94V66.69a38.94,38.94,0,0,0-.32-5.94v-.94l-52.5,3.13a63.38,63.38,0,0,1-7.18.31c-5.63,0-8.44-.63-10.63-2.81C6.69,57.62,2,51.06,2,47.31c0-1.25.62-1.87,2.5-1.87a4.72,4.72,0,0,1,1.88.31A47.56,47.56,0,0,0,17.62,47c1.57,0,3.44-.31,5.32-.31l54.68-3.13-2.5-15.62c-.31-2.5-3.43-8.75-7.18-12.5-1.25-1.25-2.19-2.5-2.19-3.75,0-1.57,1.87-2.81,6.56-2.81a49.56,49.56,0,0,1,8.44.93C89.81,11.38,92,14.5,92.62,18.25l3.76,24.06L162,38.56c1.25-6.56,2.19-12.81,3.12-19.68V16.69a18.83,18.83,0,0,0-2.5-10,6,6,0,0,1-.93-2.81c0-1.26.93-1.88,2.5-1.88,1.87,0,23.12,5.94,23.12,14.38a4.64,4.64,0,0,1-.31,2.18c-1.88,6.56-3.75,12.5-6.25,19.06l42.81-2.5c6.56-.31,10.94-.93,15.63-2.5a12.6,12.6,0,0,1,4.69-.93c5.31,0,15,9.37,15,14.37,0,2.82-2.82,3.75-6.88,4.06ZM2.31,282.62c0-1.87,2.5-4.68,7.5-8.12,36.25-23.12,50.31-53.12,50.94-82.19,0-2.5-.31-6.56-2.5-9.69a6.87,6.87,0,0,1-.94-3.12c0-1.56,1.57-2.5,4.38-2.5,3.43,0,20.93,1.56,20.93,13.75-.93,68.13-65.93,94.06-76.87,94.06C3.56,284.81,2.31,284.19,2.31,282.62ZM81.69,121.69l-.63,9.06v4.06c0,17.19,7.5,18.44,37.5,18.44,14.06,0,52.5-.63,72.82-9.06a13.24,13.24,0,0,1,1.56-.31c6.25,0,17.18,8.12,17.18,14.06,0,3.12-2.5,5.31-7.18,5.94-33.44,5-59.38,6.87-83.13,6.87-33.43,0-57.5-.31-57.5-33.44v-2.19l.31-12.5-18.43.94c-2.81,0-5.31.32-7.19.32-5.31,0-14.06,0-20.62-14.69a7.81,7.81,0,0,1-.63-2.19c0-.94.63-1.56,1.87-1.56a9.61,9.61,0,0,1,2.5.62,51.57,51.57,0,0,0,15.32,1.88H39.5l79.69-4.38V86.38a22.62,22.62,0,0,0-3.44-12.19,5.9,5.9,0,0,1-.94-2.81c0-1.26,1.25-1.88,3.44-1.88,4.69,0,20,3.12,20,9.38l-.94,23.74,60.63-3.12a88.57,88.57,0,0,0,20.94-3.44,9.24,9.24,0,0,1,3.12-.62c5.31,0,16.88,7.18,16.88,13.44,0,2.5-1.88,4.37-5.32,4.68ZM114.5,263.88c.62-6.57.94-13.44.94-21.88l.62-45.31c0-5.63-.94-10-3.12-13.75a8.64,8.64,0,0,1-1.56-3.75c0-2.19,1.87-3.13,5-3.13,2.18,0,19.37.63,19.37,13.13l-.31,80.93c0,4.69-2.19,7.5-6.25,7.5-1.57,0-14.69-3.74-14.69-12.18Zm58.75-74.07c0-4.06-.63-8.75-3.13-11.56a6.64,6.64,0,0,1-1.56-3.44c0-1.56,1.56-2.5,4.69-2.5,3.75,0,19.69,1.88,19.69,11.88l-.63,62.5c0,11.56,0,11.56,25.31,11.56,34.69,0,35.32,0,39.38-9.37,5-12.5,5.31-26.88,8.12-43.13,1.26-7.19,3.44-10.63,5.63-10.63,4.69,0,4.69,11.88,4.69,30.32,0,50-5.94,51.25-60.63,51.25-30.31,0-41.87-1.88-41.87-30.94Z"/><path class="cls-1" d="M339,219.52c-21.5,32.62-47.38,48.37-50.5,48.37-.75,0-1.13-.37-1.13-.87s.63-1.63,2-2.75C307,249.39,322,233.39,335.77,211.14l-27.5,1.5c-1.5.13-2.75.13-3.75.13-2.13,0-5.5,0-7.75-5.88a3.63,3.63,0,0,1-.25-1c0-.62.37-.87,1-.87a1.94,1.94,0,0,1,.75.12,21.33,21.33,0,0,0,5.12.5h1.88L339,203.77V178.14a9.41,9.41,0,0,0-1.63-5.37,3.18,3.18,0,0,1-.62-1.38c0-.75.62-1,1.75-1a16.73,16.73,0,0,1,4.5,1c3.62,1.25,4,2,4,3.63v28.25l30.87-1.75a22.68,22.68,0,0,0,5.5-1,3.54,3.54,0,0,1,1.13-.25c2.5,0,7.37,4.62,7.37,6.12,0,1.13-1.37,1.63-3.12,1.75l-39.88,2.25c14.75,19,33.25,35.63,53.25,46.75,1,.63,1.5,1.13,1.5,1.63,0,1.87-5.62,4.75-6.62,4.75a4.93,4.93,0,0,1-2.75-1.13C376.14,250,360.14,235.77,347,217.52v65c0,2.37-1,3.37-2.38,3.37a6,6,0,0,1-2.62-.75c-2.38-1.12-4-2.37-4-4.37,0-.25.12-.63.12-.88a39.74,39.74,0,0,0,.88-7.75Z"/><path class="cls-1" d="M600.77,272.89v10.5c0,1.88-.63,3-2,3-2.13,0-6.88-3-6.88-6a6.53,6.53,0,0,1,.25-1.5,29.66,29.66,0,0,0,.75-7.37l.38-56.25c-2.13,3-10.63,13.5-12.75,13.5-.38,0-.63-.25-.63-.75a7.76,7.76,0,0,1,1.38-3.25c1.75-2.63,3.37-5.25,5-7.88-.25,0-9.63.88-9.63.88l.38,53c0,1.5.12,2.75.12,4,0,3.75-2.37,7.37-5.75,7.37-5.37,0-20.25-13.25-20.25-16.62a.59.59,0,0,1,.63-.63,6.59,6.59,0,0,1,2.87,1.13,56.82,56.82,0,0,0,14.75,6.5s-.12-23.88-.12-39.75c0-3.63.25-9.63.25-9.63-6.5,19.38-30.13,43.38-34,43.38-.63,0-.88-.38-.88-1a7.51,7.51,0,0,1,2-3.88c11.5-13.62,19-24.5,27.75-43L548,219.89c-1.5.13-2.63.25-3.63.25-6.37,0-7.25-5.37-7.25-6s.25-.75.88-.75h.5a26.58,26.58,0,0,0,4.62.38,25.08,25.08,0,0,0,3-.13l2.88-.25,1.62-24.5h-1.87c-1.38,0-4.88,0-6.5-5.75a1.53,1.53,0,0,1-.13-.75.59.59,0,0,1,.63-.62c.25,0,.37.12.62.12a21.33,21.33,0,0,0,4.75.63c.75,0,1.38-.13,2.13-.13l27.5-1.75a14.39,14.39,0,0,0,5.37-1.12,3.36,3.36,0,0,1,1.13-.13c2.75,0,6.5,3.75,6.5,5.13,0,1.12-1,1.75-2.75,1.87l-11.63.75.25,24a18.93,18.93,0,0,0,3.25-1,5.57,5.57,0,0,1,1.38-.25c2.62,0,6,3.63,6.37,4.5,10.13-17,16.13-36.62,16.13-40a8.08,8.08,0,0,0-.38-2.5,4,4,0,0,1-.25-1c0-.75.38-1,1.13-1,2.12,0,8.75,3.5,8.75,5.5a2.07,2.07,0,0,1-.13.88,165.56,165.56,0,0,1-10.12,24.25l16.5-1.13c2.62-5.37,6.5-14.12,6.5-18.37a6.92,6.92,0,0,0-.25-2.25c0-.25-.13-.63-.13-.75,0-.75.38-1.13,1-1.13,1.5,0,8.38,3.75,8.38,5.75a3,3,0,0,1-.25,1,124.08,124.08,0,0,1-8,15.25l9.25-.62a16.75,16.75,0,0,0,4.37-.75,5,5,0,0,1,1.75-.38c2.75,0,6.25,4.38,6.25,5.63,0,1-1.37,1.5-3.12,1.62l-19.63,1.25-.12,14.5,6.62-.37a17.26,17.26,0,0,0,4.88-.88,3.32,3.32,0,0,1,1.5-.37c2.25,0,6.5,3.75,6.5,5.62,0,1.25-1.5,1.63-3.25,1.75l-16.25.88-.13,13.75,7.75-.38a19.28,19.28,0,0,0,4.38-.75A4.87,4.87,0,0,1,639,239c2.12,0,6.5,3.62,6.5,5.62,0,1.13-1.25,1.63-3,1.75l-17.5.88-.13,17.62,14.25-.5a24.68,24.68,0,0,0,6-1,4.91,4.91,0,0,1,1.75-.37c3,0,6.88,4.75,6.88,6s-1.38,1.75-3.38,1.87ZM569,187.64l-11.13.75-1.5,24.5,12.75-1ZM617.89,206l-17.5,1.12.13,14.5,17.25-1Zm-.25,21.12-17.12,1,.12,13.75,16.88-.87Zm-.25,20.5-16.75.88v17.37l16.5-.62Z"/><path class="cls-1" d="M774.39,228.64l-49.75,2.75a217.71,217.71,0,0,1,2,29.25c0,1.88-.12,3.75-.12,5.5-.25,10.25-1.5,20-7.13,20-5.87,0-29.25-16.87-29.25-21,0-.5.38-.75,1-.75a9.69,9.69,0,0,1,4.13,1.5,163.72,163.72,0,0,0,21,9.88h.25a.66.66,0,0,0,.75-.75,149.29,149.29,0,0,0,1.25-19.88,158.77,158.77,0,0,0-1.63-23.37l-46.37,2.5c-1.25.12-2.38.12-3.25.12-1.63,0-2.88-.25-3.63-1-.37-.37-3.25-3.37-3.25-6.12,0-.63.38-.88,1-.88a1.53,1.53,0,0,1,.75.13,20.05,20.05,0,0,0,4.75.5h1.38l47.37-2.63a47.54,47.54,0,0,0-4.25-12,6.4,6.4,0,0,1-1-2.62c0-2.5,5.25-3.38,5.25-3.38,1.13,0,1.88.75,2.75,2.25,8-6.12,16.25-13.5,21.25-20.25l-46.25,3.38c-1.62.12-3,.25-4.12.25-3.75,0-5.63-4.38-6.38-6.13a6.8,6.8,0,0,1-.25-1.12c0-.5.25-.75.88-.75a1.94,1.94,0,0,1,.75.12,17.83,17.83,0,0,0,4.37.5c.75,0,1.5-.12,2.13-.12l53.87-3.88c.63,0,1.13-.12,1.63-.12,2.37,0,6.25,2.75,6.25,5.12,0,1.5-2,2.5-2.75,3.25a193.54,193.54,0,0,1-28.5,26.5c.75,2.5,1.5,5.5,2.12,8.5L762,221.77a30.94,30.94,0,0,0,6.87-1.25,3.36,3.36,0,0,1,1.13-.13c3.25,0,7.5,4.25,7.5,6.25,0,1.13-1.25,1.88-2.88,2Z"/></g></g></g></svg>