<svg xmlns="http://www.w3.org/2000/svg" viewBox="0 0 722.96 284.31"><defs><style>.cls-1{stroke:#000;stroke-miterlimit:10;stroke-width:4px;}</style></defs><g id="レイヤー_2" data-name="レイヤー 2"><g id="レイヤー_1-2" data-name="レイヤー 1"><g id="_1列目" data-name="1列目"><path class="cls-1" d="M39.19,257.62l.93,18.13v.94q0,5.63-5.62,5.62c-5.94,0-16.88-3.12-16.88-12.5v-1.25a99.26,99.26,0,0,0,.63-10.31c0-4.06-.31-8.44-.63-13.13L9.5,96.38a42.35,42.35,0,0,0-5-18.44c-1.56-2.82-2.5-5-2.5-6.56,0-1.26.94-2.19,3.44-2.19,3.75,0,11.25,2.19,24.37,6.87l19.38-1.25C64.5,55.75,87.94,24.5,87.94,10.12c0-1.24-.32-2.18-.32-3.43V5.75c0-2.5,1.26-3.75,3.44-3.75,4.06,0,22.5,7.81,22.5,15.94,0,4.37-15,27.5-41.87,55.62L185.12,67h2.5c12.19,0,19.69,6.56,19.69,12.19,0,3.12-2.19,5.62-2.5,7.81L192.94,233.56c5.94,7.5,8.44,12.19,8.44,15,0,3.75-4.07,4.38-9.38,4.69ZM182.94,86.38,30.44,94.81l3.12,59.38,145-6.88Zm-5.63,79.68L34.5,172.94l3.75,65.94,134.37-4.07Z"/><path class="cls-1" d="M233.21,208.77c-.75,0-1.13-.38-1.13-.88,0-.75.88-2.12,3-3.5,21.13-14.62,39.63-32,52.25-52.25a8.62,8.62,0,0,0,1.38-5c0-1.12.37-2,1.37-2,2.25,0,8.13,4.75,8.13,6.63,0,.37-.13,1.37-4.25,6.75A261.53,261.53,0,0,0,349.33,197c1.25.62,1.88,1.25,1.88,2,0,1.87-4.75,5.62-6.38,5.62a2.48,2.48,0,0,1-1.62-.5,326.35,326.35,0,0,1-53.5-39.75C264.58,195.89,235.21,208.77,233.21,208.77Zm14.25,46.62c-1,0-1.88.13-2.75.13-1.5,0-2.63-.13-3.25-.75-1.88-1.88-3.38-4.38-3.38-6.38,0-.5.25-.75.63-.75a1.53,1.53,0,0,1,.75.13,21,21,0,0,0,5.62.62l41.63-1.12-.13-30.88-26.12,1.25c-1,0-1.88.13-2.63.13-2.25,0-4.37-.25-6.5-5.88a6.8,6.8,0,0,1-.25-1.12.66.66,0,0,1,.75-.75,1.64,1.64,0,0,1,.75.12,14.8,14.8,0,0,0,4.13.5h1.5l28.37-1.25-.12-13.87-10.25.62c-1,0-1.88.13-2.63.13-1.62,0-4.5-.13-6.5-5.38a6.8,6.8,0,0,1-.25-1.12.66.66,0,0,1,.75-.75,1.64,1.64,0,0,1,.75.12,14.8,14.8,0,0,0,4.13.5H274l28.5-1.87a15.63,15.63,0,0,0,4.87-1,1.8,1.8,0,0,1,.88-.13c1.62,0,6.5,3.38,6.5,5.63,0,1.12-1.38,1.62-3,1.75l-17.13,1-.12,14,24.5-1.13a15.88,15.88,0,0,0,5-1,1.39,1.39,0,0,1,.75-.12c1.25,0,6.5,3.5,6.5,5.75,0,1.25-1.25,1.75-2.88,1.87L294.46,216l-.25,31,38.25-1a13.35,13.35,0,0,0,5-1,1.3,1.3,0,0,1,.75-.13c1.62,0,6.87,4.13,6.87,6.13,0,1.25-1.5,1.75-3.25,1.87ZM273.71,245c-.88,0-1.5-.63-2.25-2a96.13,96.13,0,0,0-12.13-16.75,2.93,2.93,0,0,1-.87-1.75c0-2,3.37-3.88,3.87-3.88,2.5,0,16.75,17.63,16.75,20.25C279.08,242.14,275.83,245,273.71,245Zm28.37-1.13a5.91,5.91,0,0,1,1.63-3.25c10.87-14.25,11.5-19.37,11.62-21.37.13-1.38.38-2.25,1.38-2.25,1.25,0,7.12,3.75,7.12,6.37,0,3-16.37,21.38-20.75,21.38A.9.9,0,0,1,302.08,243.89Z"/><path class="cls-1" d="M501,202.64c-1.5.13-2.75.25-3.88.25s-4.25-.12-6.87-5.87a2.92,2.92,0,0,1-.38-1.13c0-.37.38-.62,1-.62.25,0,.63.12,1,.12a33.32,33.32,0,0,0,4.88.38h1.62L525,193.52a7.33,7.33,0,0,1,1.62-.13c2.25,0,6.13,2.25,6.13,4.75,0,1.63-1.5,2.63-1.75,3.13-15,35.37-43.88,49.25-47.5,49.25-.75,0-1.25-.25-1.25-.75s.62-1.63,2.12-2.63c16-11.5,30.13-28.12,37.63-46.25Zm38.75-23.37L516.21,181c-1.75.12-3,.25-4.13.25-5,0-7.12-6.13-7.12-6.88,0-.5.37-.87,1.12-.87a6,6,0,0,0,.63.12,17.24,17.24,0,0,0,3.75.38c1,0,2.12-.13,3.12-.13L541,171.77c.62,0,1.25-.13,1.75-.13,2.25,0,6.12,1.88,6.12,4.63,0,1-.62,2-.62,3v12.62c2.75,4.5,5.5,8.75,8.37,12.75,8.63-6,15.63-12,21.13-18.87a8.6,8.6,0,0,0,2.12-4.75c.13-1.25.63-1.88,1.38-1.88,2,0,6.62,5.38,6.62,7.5s-16,16.13-27,23.5a121.47,121.47,0,0,0,37.38,31.5c1.5.75,2.25,1.38,2.25,2,0,.88-4.63,5.25-7.63,5.25a3,3,0,0,1-1.87-.75c-16-10.62-31.38-26.5-42.88-43.62l-.12,44c0,1.75.12,3.25.12,4.75,0,4.62-3.25,7-6,7-5.5,0-26-14.13-26-17.38,0-.62.5-1,1.25-1a6,6,0,0,1,2.5.75A110.9,110.9,0,0,0,539.46,250Zm13-11.38a190.22,190.22,0,0,0-29-12.5c-1.63-.5-2.38-1.12-2.38-2.37a6.23,6.23,0,0,1,.38-1.88c.75-2.12,1.5-2.87,2.62-2.87,2.75,0,26.13,9.25,31.38,11.62,1.87.88,2.75,1.63,2.75,3,0,2.5-2,5.75-3.5,5.75A4.71,4.71,0,0,1,552.71,167.89Z"/><path class="cls-1" d="M628,201.14a126.94,126.94,0,0,0-16.38-13.25c-1.12-.75-1.62-1.37-1.62-2.12s1.5-4.5,3.62-4.5,11.25,6.75,19.25,12.87c1.25,1,2,1.75,2,2.75,0,1.75-3,5.5-4.62,5.5A3.4,3.4,0,0,1,628,201.14Zm-8.75,53.13c-4-.5-7.88-3.63-7.88-4.63,0-.37.25-.75,1-1.12a12.93,12.93,0,0,0,4.88-4.25,324.53,324.53,0,0,0,20.25-32.5c1.37-2.5,2.62-3.75,3.5-3.75.5,0,.87.5.87,1.62a13.82,13.82,0,0,1-.75,3.75c-3.75,11-9.87,23.88-16.37,35.38-2,3.5-3,5.5-5.13,5.5Zm21.5-78.13a3.45,3.45,0,0,1-2.38-1.5A124.45,124.45,0,0,0,623.71,160c-1.13-.88-1.63-1.63-1.63-2.5s1.75-4.13,4-4.13c2.88,0,19.63,15.5,19.63,17.75S642.08,176.14,640.71,176.14Zm12.75,19.25C667.83,170.77,674,156,674,152.52a8.57,8.57,0,0,0-.38-2.38c0-.25-.12-.5-.12-.75,0-.62.37-1,1.12-1,1.5,0,8.88,3.13,8.88,5.63,0,1-7.38,18.12-21.13,40.5,13-1.38,25.75-3.13,39.63-5.38-3.13-4.25-6.38-8-9.5-11.5-1.13-1.25-1.75-2.12-1.75-3,0-1.75,3.62-3.5,4.37-3.5s1.75.5,2.88,1.75c9,9.63,23,26.5,23,29.25,0,1.63-3.63,5-5.63,5-1,0-1.87-.75-2.87-2.37-2-3.25-4-6.38-6.13-9.5-39.87,7-57.25,8.37-57.5,8.37-3.87,0-6.37-6.75-6.37-7.12,0-.63.37-.88,1.12-.88h.63a17.87,17.87,0,0,0,2.62.25c1.5,0,3-.25,5-.37Zm10.62,57.5.38,4.5V258c0,1.5-.5,2.62-2,2.62-.25,0-7.38-1.37-7.38-5.12,0-.25.13-.5.13-.88a20.19,20.19,0,0,0,.37-4.12,27.16,27.16,0,0,0-.12-3L653.71,222a18.53,18.53,0,0,0-1.5-7,5.08,5.08,0,0,1-.63-2c0-.5.25-.88,1.25-.88,1.38,0,4,.63,8.63,2.25l42.62-2H705c3.62,0,6.37,3.13,6.37,4.88,0,1.25-.87,2-1,3l-3.5,24c2.25,2.87,3.13,4.62,3.13,5.75,0,1.37-1.5,1.62-3.5,1.75Zm37.5-33-39.75,1.63,1.75,24.12,35.25-1.12Z"/></g></g></g></svg>