<svg xmlns="http://www.w3.org/2000/svg" viewBox="0 0 657.36 280.25"><defs><style>.cls-1{stroke:#000;stroke-miterlimit:10;stroke-width:4px;}</style></defs><g id="レイヤー_2" data-name="レイヤー 2"><g id="レイヤー_1-2" data-name="レイヤー 1"><g id="_1列目" data-name="1列目"><path class="cls-1" d="M62,157C37.31,184.81,8.88,206.69,4.19,206.69c-1.57,0-2.19-.63-2.19-1.88,0-1.87,1.56-5,5.31-8.75C38.88,164.5,67.62,129.5,87.94,85.12l-48.44,5c-4.38.32-7.81.94-10.94.94-2.81,0-10.62-.31-17.18-15.31a7.72,7.72,0,0,1-.63-2.19c0-1.25.94-1.87,2.5-1.87h1.56a69.87,69.87,0,0,0,11.57.93,44.21,44.21,0,0,0,6.24-.31l62.82-6.25a36.34,36.34,0,0,1,5.31-.31c9.06,0,13.13,8.13,13.13,10.31,0,2.5-13.13,28.75-33.44,57.5,2.81,2.5,36.25,31.56,36.25,38.75,0,1.25-4.07,12.81-10.31,12.81-1.88,0-3.44-1.56-5.63-4.37a316.88,316.88,0,0,0-21.56-27.19l-.31,115.63c0,5.62-1.57,9.06-5.32,9.06-4.37,0-15.94-6.56-15.94-13.75,0-.62.32-1.25.32-2.19,1.25-6.25,2.18-20.62,2.18-25.31ZM84.81,57.31c-2.19,0-4.06-1.87-5.93-4.37A369,369,0,0,0,47.31,16.06c-1.87-1.87-2.81-3.44-2.81-5C44.5,7,50.12,2,54.19,2q2.34,0,5.62,2.81C70.75,14.5,97.94,40.12,97.94,46.06,97.94,48.56,90.12,57.31,84.81,57.31Zm53.75-13.75h-3.75c-5,0-8.75-.62-11.87-2.81-5.63-4.06-10-12.5-10-13.75s1.25-1.56,3.12-1.56a14.13,14.13,0,0,1,3.44.31,71.6,71.6,0,0,0,8.12.63c1.88,0,4.07-.32,6.26-.32L250.75,19.5a46.43,46.43,0,0,0,10.31-1.88,13.86,13.86,0,0,1,3.13-.62c6.56,0,15.31,10.94,15.31,14.06,0,2.82-3.44,4.38-7.81,4.69Zm10.63,217.19.31,7.19v1.25c0,4.06-1.25,6.56-5,6.56-3.44,0-15-3.44-15-12.81v-1.56c.31-4.69.62-8.44.62-13.13v-3.13l-4.06-77.18a37.45,37.45,0,0,0-4.68-17.82,9.18,9.18,0,0,1-1.26-3.43c0-1.25.94-2.19,3.44-2.19,3.44,0,9.38,1.56,20,5l121.25-5.62c.94,0,1.88-.32,2.81-.32,2.19,0,11.88,4.69,11.88,11.56,0,2.19-1.25,4.07-1.56,5.94l-8.75,80.32c6.87,7.18,9.69,11.24,9.69,13.43,0,2.5-3.44,2.81-8.76,3.13Zm16.56-135.94v2.5c0,4.38-1.25,7.5-5.31,7.5-1.88,0-14.69-2.19-14.69-10.31v-1.25a53.14,53.14,0,0,0,.63-6.25c0-1.56-.32-2.81-.32-4.38L142,80.12a30.35,30.35,0,0,0-5-14.06c-1.25-1.56-1.88-2.81-1.88-4.06s.94-1.88,3.76-1.88c3.43,0,10.31,1.26,21.24,4.38l81.26-4.69h2.81c6.56,0,12.19,5.63,12.19,9.69,0,2.19-1.26,3.75-1.88,6.25l-5.62,30.63c4.68,5.62,6.56,9.06,6.56,10.93,0,3.13-4.06,3.44-9.38,3.75Zm25,38.44-46.56,2.19,1.56,30,44.69-1.88Zm-.31,45.63-44.06,1.56,1.87,33.75,41.87-.94Zm43.44-132.5-72.5,4.06,2.81,28.75,65.93-3.44Zm20,130.31-45.63,1.56-.31,34.37,42.81-.93Zm3.74-46.25-49.06,2.18-.31,30.32,46.87-1.56Z"/><path class="cls-1" d="M319.36,252.55l.38,5.87v.75c0,1.5-.38,2.5-1.88,2.5s-6.87-1.75-6.87-5.12c0-.38.12-.88.12-1.38a27.09,27.09,0,0,0,.13-3.25c0-1.12,0-2.37-.13-3.87l-3.62-64.25a14.42,14.42,0,0,0-1.88-7,5.38,5.38,0,0,1-1-2.25c0-.63.38-.88,1.25-.88,1.38,0,4.38.75,9.38,2.5l75.25-4h1.37c3.38,0,6.88,2.75,6.88,4.88,0,1.25-.88,2.12-1,3.25L392,243.05c2.37,2.62,3.37,4.37,3.37,5.5,0,1.37-1.5,1.75-4,1.87Zm27.88-71-31.75,1.62,1.5,25.88,30.25-1.38Zm0,33.25-29.88,1.25,1.63,29.5,28.25-.88Zm39.25-1.75L355,214.42l-.25,30,29.62-1Zm2.37-33.63-33.5,1.75-.25,26.13L387,205.92Z"/><path class="cls-1" d="M655.36,243.3c0,15.62-2.87,18.62-9.87,19.62a137.71,137.71,0,0,1-20.13,1.5c-15.62,0-20.37-1.75-20.37-12.5v-.5l.25-13.12-8.38.37c-9.87,20.75-26.75,25.25-47.5,28.13-.37,0-.62.12-.87.12-1.38,0-2.13-.5-2.13-1.25s.75-1.37,2.38-1.87c18.5-5.13,31.37-10.13,39.25-24.88l-9.13.38.13,1.37v.38a1.75,1.75,0,0,1-1.88,2c-.75,0-6.25-1.5-6.25-4.38v-.75a34,34,0,0,0,.38-5.12c0-1-.13-2.13-.13-3.25l-1.25-22a21.38,21.38,0,0,0-1.5-7.38,11.73,11.73,0,0,1-.62-2.12c0-.5.37-.88,1.25-.88,1.25,0,3.62.75,8,2.5l48.25-2.5c.5,0,1-.12,1.5-.12,2.62,0,6.12,2.37,6.12,4.62,0,1-.75,1.88-.87,2.88l-2.25,26.87c2.37,2.38,3.25,3.88,3.25,4.75,0,1.13-1.63,1.13-3.5,1.25l-16.38.63v13c0,5.37,1.13,5.75,12.75,5.75a119.57,119.57,0,0,0,17.5-1.25c2.63-.38,5.13-1.75,7.75-15.13.63-3.12,1.63-4.62,2.5-4.62s1.63,1.62,1.75,5Zm-90.5-67.38a120.17,120.17,0,0,1-6.62,17.25,2.64,2.64,0,0,1-2.38,1.5c-3.12,0-5.5-2.75-5.5-3.62a4.4,4.4,0,0,1,.63-1.63,103,103,0,0,0,9.75-25.37c.5-1.75,1-2.75,2.37-2.75a6.17,6.17,0,0,1,1.88.37c2.12.63,3,1.38,3,2.75,0,.13,0,.5-1.25,5.13l30.5-1.63v-7.37a8.92,8.92,0,0,0-1.88-5,2.86,2.86,0,0,1-.62-1.25c0-.63.75-1,1.87-1,2.13,0,8.75,1.12,8.75,4l-.25,10.25,43-2.5H649c2.75,0,6.25,2.37,6.25,4.37,0,1.38-1.63,2.25-2.25,3.38-7.63,12.75-13.75,17.37-15,17.37-.38,0-.63-.37-.63-1a8.91,8.91,0,0,1,1.38-3.87,71,71,0,0,0,5.75-13.75Zm50.13,13c-2.63,5.13-4.75,8.88-7.13,8.88-.5,0-1-.5-1-1.38a5.8,5.8,0,0,1,.5-2.25l1.5-4.87-16.37,1,1,5.37v.5c0,1.25-.75,1.88-2.25,1.88-4.5,0-5.25-1.88-5.25-3.13a27.75,27.75,0,0,0-.25-3l-.25-1.25-14.63.88h-2c-3.62,0-4.62-1.75-5.87-5.13a1.53,1.53,0,0,1-.13-.75c0-.37.13-.5.5-.5s.38.13.63.13a12.5,12.5,0,0,0,3.75.5c.62,0,1.37-.13,2.25-.13l14.62-.87-.37-1.88a6.85,6.85,0,0,0-2-4,2.35,2.35,0,0,1-.88-1.5c0-.5.5-.75,1.75-.75,5.63,0,7.25,1.38,7.5,3.13l.88,4.62,18.62-1.12c.75-3.38.75-3.75.75-4.63a13.36,13.36,0,0,0-.25-2.37c0-.38-.12-.63-.12-.88a1.12,1.12,0,0,1,1.25-1.25c2.25,0,7.37,3,7.37,5l-1.5,3.75,7.88-.5a15,15,0,0,0,4.25-.75,5.5,5.5,0,0,1,1.37-.25c1.13,0,5,2.13,5,4.5,0,1.13-1,1.75-2.5,1.88Zm9.25,14.25L577,205.42l.37,5.5,46.5-2.12Zm-.63,10.88-46,2.12.25,5.5,45.38-2Zm-.75,11.12-44.62,1.88.37,6.37,43.88-1.75Z"/></g></g></g></svg>