<svg xmlns="http://www.w3.org/2000/svg" viewBox="0 0 785.74 279.42"><g id="レイヤー_2" data-name="レイヤー 2"><g id="レイヤー_1-2" data-name="レイヤー 1"><g id="_2列目" data-name="2列目"><path d="M60,155C35.31,182.81,6.88,204.69,2.19,204.69c-1.57,0-2.19-.63-2.19-1.88,0-1.87,1.56-5,5.31-8.75C36.88,162.5,65.62,127.5,85.94,83.12l-48.44,5c-4.38.32-7.81.94-10.94.94-2.81,0-10.62-.31-17.18-15.31a7.72,7.72,0,0,1-.63-2.19c0-1.25.94-1.87,2.5-1.87h1.56a69.87,69.87,0,0,0,11.57.93,44.21,44.21,0,0,0,6.24-.31l62.82-6.25a36.34,36.34,0,0,1,5.31-.31c9.06,0,13.13,8.13,13.13,10.31,0,2.5-13.13,28.75-33.44,57.5,2.81,2.5,36.25,31.56,36.25,38.75,0,1.25-4.07,12.81-10.31,12.81-1.88,0-3.44-1.56-5.63-4.37a316.88,316.88,0,0,0-21.56-27.19l-.31,115.63c0,5.62-1.57,9.06-5.32,9.06-4.37,0-15.94-6.56-15.94-13.75,0-.62.32-1.25.32-2.19,1.25-6.25,2.18-20.62,2.18-25.31ZM82.81,55.31c-2.19,0-4.06-1.87-5.93-4.37A369,369,0,0,0,45.31,14.06c-1.87-1.87-2.81-3.44-2.81-5C42.5,5,48.12,0,52.19,0q2.34,0,5.62,2.81C68.75,12.5,95.94,38.12,95.94,44.06,95.94,46.56,88.12,55.31,82.81,55.31Zm53.75-13.75h-3.75c-5,0-8.75-.62-11.87-2.81-5.63-4.06-10-12.5-10-13.75s1.25-1.56,3.12-1.56a14.13,14.13,0,0,1,3.44.31,71.6,71.6,0,0,0,8.12.63c1.88,0,4.07-.32,6.26-.32L248.75,17.5a46.43,46.43,0,0,0,10.31-1.88,13.86,13.86,0,0,1,3.13-.62c6.56,0,15.31,10.94,15.31,14.06,0,2.82-3.44,4.38-7.81,4.69Zm10.63,217.19.31,7.19v1.25c0,4.06-1.25,6.56-5,6.56-3.44,0-15-3.44-15-12.81v-1.56c.31-4.69.62-8.44.62-13.13v-3.13l-4.06-77.18a37.45,37.45,0,0,0-4.68-17.82,9.18,9.18,0,0,1-1.26-3.43c0-1.25.94-2.19,3.44-2.19,3.44,0,9.38,1.56,20,5l121.25-5.62c.94,0,1.88-.32,2.81-.32,2.19,0,11.88,4.69,11.88,11.56,0,2.19-1.25,4.07-1.56,5.94l-8.75,80.32c6.87,7.18,9.69,11.24,9.69,13.43,0,2.5-3.44,2.81-8.76,3.13Zm16.56-135.94v2.5c0,4.38-1.25,7.5-5.31,7.5-1.88,0-14.69-2.19-14.69-10.31v-1.25a53.14,53.14,0,0,0,.63-6.25c0-1.56-.32-2.81-.32-4.38L140,78.12a30.35,30.35,0,0,0-5-14.06c-1.25-1.56-1.88-2.81-1.88-4.06s.94-1.88,3.76-1.88c3.43,0,10.31,1.26,21.24,4.38l81.26-4.69h2.81c6.56,0,12.19,5.63,12.19,9.69,0,2.19-1.26,3.75-1.88,6.25l-5.62,30.63c4.68,5.62,6.56,9.06,6.56,10.93,0,3.13-4.06,3.44-9.38,3.75Zm25,38.44-46.56,2.19,1.56,30,44.69-1.88Zm-.31,45.63-44.06,1.56,1.87,33.75,41.87-.94Zm43.44-132.5-72.5,4.06,2.81,28.75,65.93-3.44Zm20,130.31-45.63,1.56-.31,34.37,42.81-.93Zm3.74-46.25-49.06,2.18-.31,30.32,46.87-1.56Z"/><path d="M371.74,233.92v42.25c0,2.25-1,3.25-2.38,3.25s-6.87-1.75-6.87-6.12a4.39,4.39,0,0,1,.12-1.25,39.56,39.56,0,0,0,.88-7.5V234.3l-28.75,1.37c-7.75,32-33.75,41.25-35,41.25-.63,0-.88-.25-.88-.62,0-.63.88-1.88,2.88-3.5,12.75-10.13,20.75-21.5,24.75-36.75l-22.13,1.12c-1.75.13-3.12.13-4.25.13-2.12,0-3.25-.25-4.5-1.38-1.87-1.87-3.25-4.37-3.25-6,0-.5.25-.75,1-.75h.75a37.91,37.91,0,0,0,6.38.75h.62l27-1.25c1.13-7,1.5-15.87,1.63-25l-16.63,1a35,35,0,0,1-3.5.13h-1.25c-5.37-.63-6.5-5.88-6.5-7,0-.63.25-.88.75-.88a2.39,2.39,0,0,1,.88.13,20.06,20.06,0,0,0,5.5.62h1.62l19.25-1.25c0-7-.12-13.87-.25-19.87a10.7,10.7,0,0,0-1.75-5.63,2.67,2.67,0,0,1-.62-1.37c0-.63.62-1,1.62-1,2,0,9.13,1.5,9.13,4.62.12,4.25.12,9.5.12,15.38v7.37l25.38-1.5V173.17a7.89,7.89,0,0,0-2.25-5.5,1.92,1.92,0,0,1-.63-1.37c0-.63.63-.88,1.63-.88a15.9,15.9,0,0,1,5.12,1.13c3.63,1.25,4.25,2,4.25,4.12v23.25l13.13-.87a26.65,26.65,0,0,0,5.62-1.13,1.94,1.94,0,0,1,.88-.12c2.25,0,7,4.75,7,6.25,0,1.12-1.38,1.62-3.13,1.75l-23.5,1.37.13,25.38,22.75-1.13a21.33,21.33,0,0,0,5.75-1.12,2.78,2.78,0,0,1,1-.25c1.87,0,7.25,4.25,7.25,6.62,0,1.13-1.38,1.5-3,1.63Zm-8.25-32.25-25.5,1.5a235.18,235.18,0,0,1-1.75,25l27.25-1.25Z"/><path d="M557,212.3c-1.25,2.12-12.63,20.12-16.13,20.12-.37,0-.62-.25-.62-.87a7.25,7.25,0,0,1,1.5-3.75c15.87-25.5,26.12-51.25,26.12-56.63v-.5c0-1.12.38-1.75,1.25-1.75s2.38.63,4.13,1.88c2.25,1.37,3,2.25,3,3.37,0,1.5-6.25,15.13-12.13,26.25l-.25,75c0,1.75-.87,2.5-2.12,2.5-1,0-6.25-1.5-6.25-5.37a2.83,2.83,0,0,1,.12-1,30.87,30.87,0,0,0,.63-6.75Zm35.75,37.25c17.5,9.62,35.62,15.75,63.62,17.62,1.38.13,2.13.5,2.13,1.13s-3.75,6.75-6.88,6.75a4.9,4.9,0,0,1-1.37-.13c-24.25-3.62-40.38-8.5-58.13-18.37-2.12-1.13-4-2.5-6-3.5-5.62,11.12-15.87,22.87-18.5,22.87-.5,0-.75-.37-.75-1a7.41,7.41,0,0,1,1.63-3.75,122.88,122.88,0,0,0,11.37-20.25,12.17,12.17,0,0,0-3-.25,26.93,26.93,0,0,0-5.87.75,3,3,0,0,1-1,.13c-1.5,0-2.13-1-2.38-3.38v-.62c0-2,1.5-3.13,8.63-3.13a23.27,23.27,0,0,1,6,.63,122.22,122.22,0,0,0,6-21l-6,.87c-2,.25-3.38.75-4.63.75a4.59,4.59,0,0,1-4.5-4.62,5,5,0,0,1,.63-2.25,141.72,141.72,0,0,0,12.37-24.63l-4.87,1a23.66,23.66,0,0,1-3.75.38,5.91,5.91,0,0,1-3-.75,9.32,9.32,0,0,1-3.75-4.75,1.32,1.32,0,0,1-.13-.63c0-.37.38-.62,1.13-.62h.5a25.15,25.15,0,0,0,4.12.37,24.89,24.89,0,0,0,4.38-.37l8.25-1.13a10.22,10.22,0,0,1,1.75-.25c2.87,0,4.87,3.13,4.87,4,0,1.5-1.37,2.63-1.75,3.38A235.58,235.58,0,0,1,582,218.17l8.25-1c.5,0,.87-.12,1.25-.12,2.87,0,6.12,2.37,6.12,4.62,0,1.25-1.12,2.13-1.37,3.13a137,137,0,0,1-7.5,22.62Zm33-5.5v13.5c0,1.75-.25,2.75-1.5,2.75-.13,0-6.38-1.13-6.38-5.13a5.38,5.38,0,0,1,.13-1.37,40.78,40.78,0,0,0,.62-8v-1.5l-13.87.75h-1.63c-2,0-3.87-.13-5-.88-.87-.5-3.62-2.5-3.62-5.12,0-.5.12-.75.75-.75a2.5,2.5,0,0,1,.87.12,18.53,18.53,0,0,0,4.13.38c.87,0,1.75-.13,2.62-.13l15.75-.75.13-8-7.75.5c-1.13,0-2.13.13-3.13.13-1.62,0-3-.13-3.75-.75-1.5-1.25-3.12-3.25-3.12-5.13,0-.62.25-.87.62-.87a1.42,1.42,0,0,1,.63.12,12.47,12.47,0,0,0,3.87.5c1.13,0,2.13-.12,3.13-.12l9.5-.63v-7.75l-6.75.5c-1.25,0-2.38.13-3.5.13a6.34,6.34,0,0,1-2.38-.38,8.67,8.67,0,0,1-3-3l-.75-1.5a1.15,1.15,0,0,1-.12-.62.66.66,0,0,1,.75-.75c.12,0,.25.12.5.12a25.38,25.38,0,0,0,3.25.25c1.12,0,2.12-.12,2.87-.12l9.25-.63v-8.5l-15.12.88c-1,0-2,.12-2.88.12a4.09,4.09,0,0,1-2.62-.62c-.63-.63-3.38-3.88-3.38-5.13,0-.37.13-.62.63-.62.25,0,.37.12.62.12a19.93,19.93,0,0,0,3.63.38c.75,0,1.62-.13,2.25-.13l16.87-1v-7.37l-7.62.62h-1.63c-3.25,0-5.75-.37-7.87-5a4.12,4.12,0,0,1-.25-.75c0-.25.25-.37.62-.37h.63a26.86,26.86,0,0,0,4.37.37h.63c.5,0,1-.12,1.25-.12l10-.75v-6.88c0-1.5-.25-4.5-1.63-6.25a2,2,0,0,1-.37-1c0-.62.5-.87,1.37-.87a11.66,11.66,0,0,1,4,.87c3.25,1.25,3.5,1.88,3.5,3.5v10.25L638,180.8c.37,0,.75-.13,1.12-.13,2.25,0,5,2,5,4.38,0,1.12-.75,2-.87,3.12l-.5,5.88a16.91,16.91,0,0,0,4.62-1.13,3.83,3.83,0,0,1,1.13-.25c2.37,0,6,3.13,6,4.88,0,1.12-1.13,1.75-2.63,1.87l-9.75.63-.75,8.37c1.88,2.38,2.63,3.75,2.63,4.63,0,1.12-1.25,1.37-3.13,1.5l-15.12,1v7.75l7.5-.38a15.17,15.17,0,0,0,4.87-1.25,3.85,3.85,0,0,1,1.25-.25c1.5,0,6.38,3.25,6.38,5.25,0,1.13-1.13,1.75-2.63,1.88l-17.37,1v8l14.87-.75a19,19,0,0,0,5.75-1.63,5.85,5.85,0,0,1,1.25-.25c3,0,6.75,4.5,6.75,5.75s-1.5,1.88-2.62,2Zm10.87-57.25-10.75.75v7.5l10.13-.63Zm-1.12,13.62-9.63.5v8.63l8.88-.63Z"/><path d="M720.61,165.55a1.33,1.33,0,0,1,1.5-1.5c1.88,0,8.38,2.87,8.38,5.5,0,.25,0,1.12-2.25,4.75,15.12,19.37,33.87,33.87,55.12,42.62,1.5.63,2.38,1.13,2.38,1.88,0,1.87-6,6-7.25,6a3.33,3.33,0,0,1-1.63-.63c-21.12-11.37-37.62-23.75-52.62-43.37-24.75,38.25-55.38,47.12-56.25,47.12s-1.13-.25-1.13-.75c0-.75.88-1.75,2.63-2.87,42.87-27.88,51.12-55.25,51.12-57.5ZM705,217.3a10.7,10.7,0,0,0-1.75-5.63,2.61,2.61,0,0,1-.63-1.37c0-.63.63-1,1.63-1,2.5,0,9.37,1.87,9.37,4.62-.12,13.13-.62,23.75-3.75,35.25-5.5,19.88-29.5,28.75-31.62,28.75-.75,0-1.25-.25-1.25-.75,0-.75,1-2,2.87-3.37,11.13-8.13,18.75-15.25,21.88-27.25A115.94,115.94,0,0,0,705,218.8Zm33.12-2.13a7.85,7.85,0,0,0-2.25-5.5,1.91,1.91,0,0,1-.62-1.37c0-.63.62-.88,1.62-.88a16,16,0,0,1,5.13,1.13c3.62,1.25,4.5,2,4.5,4.12l.12,63.5c0,2.25-1.12,3.25-2.62,3.25-1.25,0-6.88-1.87-6.88-6a4.9,4.9,0,0,1,.13-1.37,42,42,0,0,0,.87-7.5Z"/></g></g></g></svg>