<svg xmlns="http://www.w3.org/2000/svg" viewBox="0 0 901.21 284.36"><g id="レイヤー_2" data-name="レイヤー 2"><g id="レイヤー_1-2" data-name="レイヤー 1"><g id="_2列目" data-name="2列目"><path d="M86.25,262.81l.94,10.31v1.57c0,5-2.81,7.19-6.25,7.19-4.38,0-16.56-4.38-16.56-13.76a8.73,8.73,0,0,1,.31-2.81,52.49,52.49,0,0,0,.62-10c0-2.81,0-5.93-.31-9.37L58.75,177.5c-.63-5.62-1.25-11.88-3.13-15.94-1.24-2.81-2.18-4.68-2.18-6.25,0-1.25.62-1.87,2.5-1.87,3.44,0,10,2.18,22.5,6.56l47.81-2.19-.31-55.93L26.88,107.5a80,80,0,0,1-8.13.31c-10.31,0-15.94-7.19-18.44-16.56A3.43,3.43,0,0,1,0,89.69c0-1.57.62-2.19,1.88-2.19.62,0,.93.31,1.56.31A69,69,0,0,0,17.5,89.38h2.81l105.63-5.94-.32-65.32c0-4.68-1.24-8.43-3.74-12.81a5,5,0,0,1-.94-2.81c0-1.56,1.25-2.5,4.68-2.5,5.32,0,21.26,1.88,21.26,10.94l-.63,71.25,98.44-5.63a62.43,62.43,0,0,0,12.5-2.18,10.82,10.82,0,0,1,3.12-.63c5,0,17.5,9.37,17.5,15.31,0,3.13-3.75,4.38-7.81,4.69l-123.75,6.87-.63,56.57,60.32-2.81h3.44c9.06,0,15,7.18,15,11.87,0,2.81-2.19,4.37-2.5,5.94l-8.44,69.69c5.31,6.87,7.5,10.93,7.5,13.74,0,3.44-4.06,4.07-9.06,4.38Zm113.75-90-121.25,5L84.69,245l109.06-3.12Z"/><path d="M317.58,209.74l-.12,9.37a5.33,5.33,0,0,1,3-1.25,2.93,2.93,0,0,1,2.5,1.5c5.25,7.38,8.87,14.38,8.87,15.63,0,1.62-3.12,3.75-4.87,3.75-1,0-1.63-.75-2.25-2.25-2-4.88-4.63-8.88-7.25-13.38l-.75,56.25c0,2-.88,3-2.25,3-.13,0-5.75-1.12-5.75-5a6,6,0,0,1,.25-1.5,25.85,25.85,0,0,0,.87-6.75s.38-21.87.38-35.62c0-4.63.62-12.5.62-12.5-4.37,14.37-17.5,37.25-21.25,37.25-.5,0-.75-.38-.75-1a6,6,0,0,1,1-2.88c7.38-13,12.5-26.5,18.13-43.87l-7.13.62c-1.37.13-2.62.25-3.75.25-4.5,0-6-6.12-6-6.37,0-.5.25-.75.88-.75a5.26,5.26,0,0,0,.62.12,18.83,18.83,0,0,0,3.63.38c.75,0,1.5-.13,2.12-.13l12.13-.87.25-24a9.05,9.05,0,0,0-1.5-4.88,2,2,0,0,1-.38-1.12c0-.63.63-1,1.5-1a12.16,12.16,0,0,1,4,1c3.38,1.37,3.63,2,3.63,3.75l-.38,25.75,5.75-.38a15.86,15.86,0,0,0,4.38-1,1.91,1.91,0,0,1,.87-.12c2,0,6,3.62,6,5.12,0,1.13-1.12,1.75-2.62,1.88ZM356.71,227v.5c0,1.62-.63,2.62-1.88,2.62-1.62,0-5.37-1.5-5.37-4.37v-.63a10.49,10.49,0,0,0,.12-1.87,13.45,13.45,0,0,0-.12-2l-.63-6.63a23.63,23.63,0,0,0-.75-3.75c-8.5,7.75-17.25,13.13-19.25,13.13-.75,0-1.25-.38-1.25-.88s.5-1.5,1.75-2.5c7.63-6.25,14.5-12.5,20.13-19.5l-11.25.63a23.32,23.32,0,0,1-2.63.12c-2,0-4.12-.37-6.12-5.12a1.53,1.53,0,0,1-.13-.75c0-.5.25-.75.88-.75a3.24,3.24,0,0,1,1,.12,16.88,16.88,0,0,0,3.62.38c.63,0,1.38-.13,2.13-.13l17.12-1a90,90,0,0,0,5.13-8.87c-6.38,1.12-12.63,2-18.88,2.62-.62,0-1.25.13-1.75.13-2.12,0-3.12-.5-3.12-1.13s1.5-1.75,4.25-2.37c35.25-7.38,39.62-11.38,41.87-13.63a1.56,1.56,0,0,1,1.13-.5c2.37,0,5.75,6,5.75,7,0,1.25-.13,1.88-19.88,6.13a79.1,79.1,0,0,1-6.12,10l27.12-1.63a22.61,22.61,0,0,0,4.63-.87,5.08,5.08,0,0,1,1.37-.25c2.88,0,5.63,4.5,5.63,5.25,0,1.12-1.25,1.5-2.75,1.62l-18.88,1.13a90.89,90.89,0,0,0,25.5,16.62c1.38.63,2.13,1.13,2.13,1.88,0,1-3.75,4.5-5.63,4.5-.87,0-13.37-5.38-30.12-22.5l-13.75.87c-2,2.5-4.13,4.75-6.25,7l3.62,1,20.38-1.25h1.12c2.63,0,4.5,2.63,4.5,3.75a8.67,8.67,0,0,1-.5,1.75l-1.25,7.75c1.63,2,2.25,3.25,2.25,4,0,1-1.37,1.13-3.5,1.25Zm32.5,10.87-46.75,2.25.12,37.88c0,1.75-.62,3.12-2.37,3.12s-6.13-1.75-6.13-5c0-.25.13-.62.13-1a52.13,52.13,0,0,0,.5-7.75l.25-26.25a16,16,0,0,0-1.25-6.75,3.36,3.36,0,0,1-.5-1.75c0-.62.37-1,1.37-1,1.38,0,3.75.75,7.88,2.25l48.37-2.37h1.38c3.25,0,5.37,2.62,5.37,4.37,0,1-.75,1.75-.75,2.5l-.25,33.38c0,1.5.13,2.75.13,4a6,6,0,0,1-5.38,6.37c-2.25,0-19.5-9.12-19.5-12.5,0-.5.5-.75,1.38-.75a10.21,10.21,0,0,1,3.37.63c4.88,1.5,8.38,2.87,12.38,3.75Zm-31.13,27.5.13.88V267c0,1.5-.38,2.37-1.5,2.37s-5.25-1.25-5.25-3.5v-.5a26.1,26.1,0,0,0,.12-3.12,16.7,16.7,0,0,0-.12-2.38l-.88-8.75a13.68,13.68,0,0,0-1.62-5.37,3.28,3.28,0,0,1-.5-1.25c0-.5.5-.88,1.5-.88,1.25,0,3.5.5,7.12,1.88l18-1c.63,0,1.13-.13,1.5-.13a4.81,4.81,0,0,1,4.63,3.63c0,.75-.63,1.37-.75,2l-1.75,9.75c1.62,2,2.37,3.25,2.37,4,0,1-1.37,1.12-3.62,1.25Zm15.38-52.25-18,.88.75,7.5,16.62-.88Zm.12,37.13-16.62.62.75,9,15-.5Z"/><path d="M564.58,191.36c-.25,23.13-.62,62.5-21.87,86.25l-.63.63c-1.12,1.12-1.87,1.5-2.37,1.5s-.75-.25-.75-.88a7.81,7.81,0,0,1,1.12-3.12c12-21.88,16.25-45,16.25-78.75v-3.63a32.93,32.93,0,0,0-1.5-10.37,4.34,4.34,0,0,1-.37-1.5c0-.63.25-1,1-1,1.25,0,3.87,1.12,9.25,4.12l32.75-1.87-.13-8.88a7.15,7.15,0,0,0-1.75-4.62A1.89,1.89,0,0,1,595,168c0-.63.62-.88,1.62-.88.38,0,8.5.63,8.5,4.25L605,182.24l25.75-1.5a20.15,20.15,0,0,0,6.12-1.5,1.53,1.53,0,0,1,.75-.13c1.5,0,6.63,3.38,6.63,5.88,0,1.25-1.25,1.75-2.88,1.87Zm2.88,81.75c-2.5,0-8-3.87-8-6,0-.62.5-1,1.75-1.12,7.75-1,21.5-7.88,32.87-15a6.77,6.77,0,0,1,3.13-1.25c.62,0,.87.25.87.75,0,.87-.75,2.12-2.5,3.62C578.46,268.49,569.33,273.11,567.46,273.11Zm31.75-37.62-15,.75c-.88,0-2,.12-3.13.12-2.5,0-4.37,0-6.75-5.12a6.86,6.86,0,0,1-.25-1.13c0-.62.25-.87.88-.87a2.5,2.5,0,0,1,.87.12,14.71,14.71,0,0,0,3.38.38c.87,0,1.75-.13,2.62-.13l17.38-.87v-8.63l-23.38,1.25c-1.37,0-2.62.13-3.75.13-6.12,0-6.87-6.13-6.87-6.38a.66.66,0,0,1,.75-.75h.5a20.66,20.66,0,0,0,5.5.63h1.62l25.63-1.25v-7.5l-15.63.87c-1.25.13-2.75.25-4,.25-2.37,0-3.87-.75-6-5.25a4.91,4.91,0,0,1-.25-1.12.59.59,0,0,1,.63-.63,6.8,6.8,0,0,1,1.12.25,13,13,0,0,0,3.88.5c.62,0,1.37-.12,2.25-.12l18-1.13v-.37a12.43,12.43,0,0,0-1.88-7,2.78,2.78,0,0,1-.75-1.5c0-.38.38-.63,1.13-.63a17.42,17.42,0,0,1,4,.75c4.5,1.13,4.87,2.38,4.87,4v4.38l21-1.25h1c4.13,0,5.88,2.62,5.88,4.37,0,1.25-1,2.25-1.13,3.13l-.87,6.37,6.25-.37a18.18,18.18,0,0,0,5.37-1,2.48,2.48,0,0,1,1.25-.25c2.38,0,6,3.25,6,5,0,1.12-1.5,1.75-3.62,1.87l-16.25.88-1.25,9c2.75,2.87,3.75,4.5,3.75,5.37,0,1.13-1.63,1.25-3.75,1.38l-23.63,1.12v4.63a119.23,119.23,0,0,0,10,9.5c11.25-6.25,16.88-11.75,17.5-14.5.25-.88.63-1.38,1-1.38,1.63,0,4.63,5.5,4.63,7.25a2.3,2.3,0,0,1-.75,1.75,109.89,109.89,0,0,1-16.88,11,105.33,105.33,0,0,0,29.38,14.38,2,2,0,0,1,1.62,1.75c0,1.37-4,5.5-5.37,5.5,0,0-22.38-6.38-41.13-27.38v21.25c0,2.25.38,4.38.38,6.25,0,5-3.75,7.63-6.38,7.63-5.5,0-19.62-12.63-19.62-15,0-.5.37-.88,1.12-.88a6.64,6.64,0,0,1,2.5.88,80.36,80.36,0,0,0,14.5,5.62Zm-15.38,16.75a99.61,99.61,0,0,0-12.62-9.38c-1-.62-1.5-1.25-1.5-2,0-1.5,1.87-3.62,3-3.62s17,8.12,17,11.37c0,.88-1.5,4.38-3.88,4.38A3.07,3.07,0,0,1,583.83,252.24Zm42-47.5-19.25,1.12v7.5l18.38-1Zm-1.62,13.87-17.63,1v8.75l16.63-.75Z"/><path d="M672.83,263.61a12.32,12.32,0,0,1-6.5-4,2.72,2.72,0,0,1-.75-1.5c0-.5.5-.87,1.38-1.25,4.37-2.37,8-4.75,29.87-31.62a3.49,3.49,0,0,0,.63-.75c1.62-1.75,2.75-2.5,3.5-2.5.5,0,.75.37.75,1.12a8.78,8.78,0,0,1-1.38,4c-3.87,6.88-22.25,36.63-26.87,36.63C673.21,263.74,673.08,263.61,672.83,263.61Zm17.88-54.37a179.79,179.79,0,0,0-16.5-18.13A3.52,3.52,0,0,1,673,189c0-1.75,3-4.25,4.25-4.25,2.62,0,21.37,18.25,21.37,21.5,0,1.5-2.75,5.25-4.87,5.25C692.71,211.49,691.83,210.61,690.71,209.24ZM741.46,218a82.33,82.33,0,0,1-2,12.12c7.87,19.63,24.37,33.88,40.37,43.88,1,.62,1.63,1.12,1.63,1.75s-4,5-6.38,5a3,3,0,0,1-1.87-.75c-13.25-9.25-27.88-22.38-36.63-39.88A51.4,51.4,0,0,1,732,250.49c-13.13,21-36.75,30.87-39,30.87-1,0-1.5-.5-1.5-1.12s.62-1.75,2.12-2.63c12-7.5,25.5-19.25,31.5-30.75C730.83,236,733,221.49,733,218.24a7.81,7.81,0,0,0-.88-3.75,3.79,3.79,0,0,1-.37-1.38c0-.75.5-1.12,1.5-1.12,1.87,0,8.25,1.5,8.25,5Zm-17.75-13.88c-7.88,16.5-16.38,26.25-18.63,26.25-.5,0-.75-.37-.75-1a7.71,7.71,0,0,1,1.13-3.25c12.62-21.37,20.12-50.5,20.12-53.75a12,12,0,0,0-.25-2c0-.25-.12-.5-.12-.75a1.19,1.19,0,0,1,1.37-1.37c.63,0,8.13,1.87,8.13,5,0,2.12-4,14.37-7.88,23.75l39.75-2.63a18.46,18.46,0,0,1,2.38-.12c2.62,0,5.37,2.37,5.37,4.12s-15,25-19.25,25c-.5,0-.75-.37-.75-1a8.77,8.77,0,0,1,1.25-3.62,162.73,162.73,0,0,0,8.13-17Z"/><path d="M810,232.24l.25,26.87a232.4,232.4,0,0,0,22-9.25c-2.75-3.12-5.5-6-8.63-9.12a2.63,2.63,0,0,1-.87-1.75c0-2.5,4.12-3.75,4.5-3.75,2.87,0,16,14.62,22.87,24.37a4.65,4.65,0,0,1,1.13,2.63c0,2.62-4.38,4.5-5.25,4.5-1.25,0-2-.88-2.75-2-2.38-3.88-4.75-7.13-7-10.13-30.13,16.25-36.38,16.63-36.88,16.63-1.12,0-4.62-1.13-7-5.63a1.67,1.67,0,0,1-.25-1c0-.62.5-.87,1.5-1a24.88,24.88,0,0,0,7.38-1.37l1.5-.5-.25-65a31.88,31.88,0,0,0-1.25-9.63,3,3,0,0,1-.13-1c0-.5.13-.87.88-.87,1.25,0,3.75.87,8.5,3.12l9.5-.62-.25-12.5A6.29,6.29,0,0,0,818,171a1.29,1.29,0,0,1-.5-1c0-.63.87-1,2.25-1,2,0,7.37,1,7.37,3.75l-.12,14.5,11.5-.88c.5,0,.87-.12,1.37-.12,1.63,0,5.75,1.5,5.75,4.37,0,1-.62,2-.75,3.25l-2.75,30.63c2.5,2.75,3.5,4.25,3.5,5.12,0,1.13-1.37,1.25-3.25,1.38Zm27-39.38-27.25,1.88.12,11.87,26.38-1.5Zm-1.13,18.5-26,1.38.13,13.12,25-1Zm21.75-15.5c0-6,0-9.37-1.37-12.87a8.49,8.49,0,0,1-.88-2.75c0-.5.38-.88,1.13-.88,1.5,0,4.37,1,9.75,3.13l26.37-1.75c.63,0,1.13-.13,1.63-.13,2.12,0,5.62,1.75,5.62,3.75,0,1.25-1.37,2.38-1.75,3.13a165.37,165.37,0,0,1-14.25,23.75,1.54,1.54,0,0,0-.5,1.12c0,.5.5,1,1.38,1.75,5.75,4.88,16.5,15.25,16.5,30,0,2.13-.13,14-7.13,14-6,0-25.62-12.25-25.62-15.62,0-.38.37-.63,1-.63a9.77,9.77,0,0,1,3.75,1,111.07,111.07,0,0,0,17.62,5.63,2.23,2.23,0,0,0,.88.12.8.8,0,0,0,.87-.75,15.47,15.47,0,0,0,.75-4.62,25.32,25.32,0,0,0-2.12-9c-2.75-7-8.13-12.38-14.25-17.5a4.33,4.33,0,0,1-1.75-3.38,7.26,7.26,0,0,1,1.5-4c4.87-6.87,8.12-14,12.5-22.12l-23.88,1.37.38,93c0,1.63-.5,2.75-1.88,2.75s-7.12-2.12-7.12-5.5a3.57,3.57,0,0,1,.12-1.12,67.13,67.13,0,0,0,.88-11.75Z"/></g></g></g></svg>