<svg xmlns="http://www.w3.org/2000/svg" viewBox="0 0 777.61 289.94"><defs><style>.cls-1{stroke:#000;stroke-miterlimit:10;stroke-width:4px;}</style></defs><g id="レイヤー_2" data-name="レイヤー 2"><g id="レイヤー_1-2" data-name="レイヤー 1"><g id="_3列目" data-name="3列目"><path class="cls-1" d="M7,56.69V51.06c0-7.81-.31-14.37-2.5-20.31-1.25-2.81-2.19-5.31-2.19-6.87s.63-2.19,2.5-2.19c3.44,0,10.31,2.5,23.44,7.81l40.94-3.75c1.87,0,3.12-.31,4.37-.31,4.69,0,13.13,4.68,13.13,9.68,0,2.82-3.13,5-4.38,7.5C72.94,60.75,65.75,73.25,56.06,87.31a4.49,4.49,0,0,0-.62,1.88A4.33,4.33,0,0,0,56.38,92c8.43,9.38,23.43,27.19,23.43,53.75l3.44-1.87c24.06-12.19,51.25-28.76,75.63-50a415.55,415.55,0,0,1-32.82-29.69C106.38,85.12,86.38,99.5,81.69,99.5c-1.25,0-1.88-.62-1.88-1.56,0-1.88,1.57-4.69,5-8.13,25-26.25,55-67.81,55-82.81V6.06c0-2.5.94-4.06,3.44-4.06,4.69,0,18.44,7.5,18.44,12.81,0,2.81-7.19,12.81-12.19,20l61.88-4.69h3.12c7.19,0,14.69,6.57,14.69,11.26,0,3.43-4.07,5.62-6.25,8.43a282.65,282.65,0,0,1-37.5,42.81c24.68,16.88,52.18,30,83.12,40,3.13.94,4.69,2.19,4.69,4.07,0,2.81-9.06,12.5-14.69,12.5-4.37,0-45-15.94-86.25-45-26.87,21.87-55.62,36.56-85.31,47.5l-4.06,1.25-3.13.62c-.31,9.38-5.31,22.19-15,22.19-12.5,0-38.75-27.19-38.75-35,0-1.25.32-1.87,1.56-1.87,1.57,0,4.07,1.24,7.82,3.74a92.89,92.89,0,0,0,23.12,11.26h.63A2,2,0,0,0,61.06,152a37.66,37.66,0,0,0,.63-6.25c0-15-3.44-27.19-19.69-46.56a13.45,13.45,0,0,1-3.75-9.38,16.14,16.14,0,0,1,2.81-8.75c7.5-11.87,13.44-23.44,20.63-38.44L26.06,45.75,22.94,277c0,5.31-1.56,8.75-5.63,8.75-5.93,0-15.31-6.87-15.31-12.5a12.94,12.94,0,0,1,.31-3.44A130.19,130.19,0,0,0,4.5,245.44ZM180.44,225.75v54.06c0,5-1.56,8.13-5.32,8.13,0,0-14.68-2.82-14.68-11.56a21.71,21.71,0,0,1,.62-4.07c.94-5.31,1.25-11.25,1.25-20V226.38L92,228.56H87.94C73.56,228.56,72,214.81,72,212.62a1.14,1.14,0,0,1,1.25-1.24c.31,0,.94.31,1.25.31a62.26,62.26,0,0,0,11.56.93h5l21.56-.62,2.5-39.06H109.5c-3.12,0-13.12,0-16.25-13.44a4,4,0,0,1-.31-1.88c0-1.24.62-1.87,1.56-1.87.31,0,.62.31.94.31a55.45,55.45,0,0,0,12.18,1.25h4.07l50.62-2.5V141.69c0-5.94-.31-9.69-2.81-13.13-1.25-1.87-1.88-3.12-1.88-4.37s.94-1.88,3.44-1.88a53.85,53.85,0,0,1,9.69,1.57c9.06,2.18,9.69,5.62,9.69,9.37v20.63l20.94-1.26a44.66,44.66,0,0,0,11.56-1.87,12.13,12.13,0,0,1,4.37-.94c7.5,0,14.69,11.57,14.69,13.44,0,2.81-3.44,4.06-8.75,4.37l-42.81,2.19V209.5L227,207.94a32.29,32.29,0,0,0,10.94-2.19,10.68,10.68,0,0,1,4.06-.94c4.69,0,15.62,9.07,15.62,14.38,0,2.81-3.43,4.06-8.74,4.37Zm-18.13-55.31L132.94,172l-2.19,39.38,31.56-1.26ZM137.62,51.06l-1.24,1.25a395.39,395.39,0,0,0,35,30.31,222.29,222.29,0,0,0,30-36.56Z"/><path class="cls-1" d="M308,228.58c-3.63,18.25-9.75,33.75-20,46.37a3.49,3.49,0,0,0-.63.75c-1.12,1.13-1.87,1.63-2.37,1.63s-.63-.38-.63-.88a7.81,7.81,0,0,1,1.25-3.62c10.25-19.5,15.38-40.38,17.75-65.5l-7.5.5a30.62,30.62,0,0,1-3.12.12,5.11,5.11,0,0,1-3.13-.62c-2.37-2.25-3.75-5-3.75-6.13,0-.37.25-.62.75-.62a2.58,2.58,0,0,1,.88.12,20.79,20.79,0,0,0,5,.63h1.12l15.5-1-.37-15.5a9.45,9.45,0,0,0-1.5-4.88,2.9,2.9,0,0,1-.5-1.5c0-.62.5-1,1.37-1,2.13,0,8.25,1.63,8.25,4.75l-.12,17.63,7-.5a25,25,0,0,0,5.12-1,1.8,1.8,0,0,1,.88-.13c2,0,5.75,3.5,5.75,5.25,0,1-1.13,1.63-2.75,1.75L311,206.7c-.5,4.63-1,10.75-1.75,15.13l13.5-.88h.87c1.38,0,5.5,1.25,5.5,4.25,0,1.25-.75,2.25-.87,3.13-4.13,43.37-8,47.5-10.63,49.12-1.5.88-2.62,1.5-3.62,1.5-3.38,0-14.88-12.25-14.88-17,0-.5.25-.87.75-.87.75,0,1.88.62,3.38,2a50,50,0,0,0,9.62,6.5c.13.12.25.12.5.12,1.5,0,5.25-16,7.63-41.75Zm39.5-30.38c-6.38,9.75-15.88,19.25-18,19.25a.66.66,0,0,1-.75-.75,6.58,6.58,0,0,1,1.62-3.37C340,200.2,348.61,184,348.61,177.2v-1.5c0-.87.38-1.25,1-1.25.88,0,7.63,2.88,7.63,5.63a4.14,4.14,0,0,1-.25,1c-1.75,3.75-3.5,7-5.38,10.37l28.63-2a15.79,15.79,0,0,0,5.5-1.12,3.56,3.56,0,0,1,1.25-.25c2.5,0,6.5,3.62,6.5,5.62,0,1.13-.88,1.63-2.13,1.75Zm-7,62.88c-1.5,0-3,.12-4.38.12-1.87,0-3.37-.12-4.25-1a11.56,11.56,0,0,1-3-5.5c0-.37.25-.62.75-.62a3.21,3.21,0,0,1,1,.12,20.4,20.4,0,0,0,5.13.63h1.37l12.13-.5L348.61,218l-1,.13c-1.62.12-3,.25-4.12.25-5,0-6.25-6-6.25-6,0-.38.25-.63.87-.63.25,0,.5.13.75.13a22.9,22.9,0,0,0,4.63.5c.62,0,1.25-.13,1.87-.13l3.13-.25v-3a9.26,9.26,0,0,0-1.5-5.37,2,2,0,0,1-.38-1c0-.63.38-.88,1.38-.88a18.06,18.06,0,0,1,4.12.75c3.25.88,3.75,1.88,3.75,4.5v4.63l17.63-1.13.12-4.75c0-2.25-.12-3.87-1.37-5.62a2,2,0,0,1-.5-1.13c0-.5.37-.75,1.25-.75a14.41,14.41,0,0,1,4.5,1.13c3,1,3.62,2,3.62,4.25v.62l-.25,5.75a23.78,23.78,0,0,0,4.5-.87,5.56,5.56,0,0,1,1.88-.38c3.12,0,5.62,3.88,5.62,5.13,0,1-.75,1.5-1.75,1.62l-10.37.63-1.38,37,6.13-.25a18,18,0,0,0,6.25-1,6,6,0,0,1,2.25-.63c2.87,0,6.25,4.25,6.25,5.88,0,1.12-.88,1.62-2.25,1.75Zm-10,23.5c-.75,0-1.13-.25-1.13-.63,0-.62.63-1.37,2-2.37,15.25-11,16.63-16.25,17.13-18.5.12-.88.62-1.5,1.37-1.5,1.88,0,6.38,4.62,6.38,6.75C356.24,271.08,336.61,284.58,330.49,284.58Zm42.87-68-17.5,1v8.12l17.25-1ZM373,230.45l-17.13.88.13,8,16.75-1Zm-.38,13.5L356,245v9.13l16.25-.75Zm14,38.25A98.93,98.93,0,0,0,370.36,268a2.16,2.16,0,0,1-1.12-1.75c0-.25,1.25-4.12,3.62-4.12,1.88,0,20.63,14,20.63,16.87,0,1.38-2.63,5-4.5,5C388.11,284,387.49,283.2,386.61,282.2Z"/><path class="cls-1" d="M603.24,266.7c0,6.38,3.87,6.5,14,6.5,15.5,0,17.37-1.87,18.37-5.62a148.58,148.58,0,0,0,4.13-19.13c.5-3.5,1.5-5.25,2.37-5.25,1.5,0,1.88,3.88,1.88,12,0,4.75-.25,9.63-.63,14.63-.75,8.62-5.87,11.62-25.62,11.62-10.38,0-22.75,0-22.75-13.37v-.38l.87-38.5-11.37.63c-10.13,45.75-48.13,54.37-49.13,54.37-.75,0-1.12-.25-1.12-.62,0-.63,1-1.75,2.87-2.88,18.38-10.62,31.75-24.87,38.38-50.37l-23.63,1.37c-1.37.13-2.62.13-3.62.13a7.62,7.62,0,0,1-3.5-.5,9,9,0,0,1-4.38-6.38c0-.5.25-.75.88-.75a2.32,2.32,0,0,1,.87.13,27.71,27.71,0,0,0,4.88.37h1.87l37.5-2.12L586,184.83c0-2.5-.88-4-2.13-6a2,2,0,0,1-.37-1c0-.63.62-1,1.75-1,0,0,9.25.87,9.25,4.62l-.13,40.63,32.38-1.88a21.87,21.87,0,0,0,5.37-1,3.83,3.83,0,0,1,1.13-.25c2.25,0,7.12,4.25,7.12,6,0,1.25-1.25,1.75-3,1.88L604,228.7l-.75,37.63ZM571.74,218c-.88,0-1.5-.5-2.25-1.5a143.08,143.08,0,0,0-15.25-17.37,3.45,3.45,0,0,1-1.5-2.38c0-.87,2.37-3.87,4.12-3.87,2.88,0,20.38,18.25,20.38,20.62C577.24,214.7,574,218,571.74,218Zm30.37.88c-.5,0-.75-.25-.75-.63a4.32,4.32,0,0,1,1.25-2.37c4.88-5.63,15.38-20.25,15.38-26.38,0-1.25.5-1.87,1.37-1.87,2.5,0,8.38,4.25,8.38,6.5a2.23,2.23,0,0,1-.5,1.12C613.86,213.45,603.11,218.83,602.11,218.83Z"/><path class="cls-1" d="M684.61,282.2c0,2-.87,3-2.25,3-1.75,0-5.87-2.25-5.87-5a6,6,0,0,1,.25-1.5,25.85,25.85,0,0,0,.87-6.75s.25-19.5.38-32.5c0-4.25.37-10.75.37-10.75-3.37,12-15.37,33.75-19.25,33.75-.5,0-.75-.37-.75-1a6,6,0,0,1,1-3c6.38-11.75,12.88-28.37,17.75-45.25L670,214c-1.38.13-2.63.25-3.75.25-4.25,0-6-5.62-6-6.37,0-.5.25-.75.87-.75a6,6,0,0,0,.63.12,18.81,18.81,0,0,0,3.62.38c.75,0,1.5-.13,2.13-.13l10.75-1,.25-23.62A9.05,9.05,0,0,0,677,178a2,2,0,0,1-.38-1.12c0-.63.63-1,1.5-1a12.16,12.16,0,0,1,4,1c3.38,1.37,3.75,2,3.75,3.75l-.37,25.12,2.25-.25a15.79,15.79,0,0,0,4.37-1,1.94,1.94,0,0,1,.88-.12c2,0,6,3.62,6,5.12,0,1.13-1.13,1.75-2.63,1.88l-10.87,1-.13,10.12a4.29,4.29,0,0,1,1.75-.62c2.5,0,11.75,14.5,11.75,16.5,0,2.75-4.5,3.75-5,3.75-1,0-1.62-.75-2.25-2.38a109.55,109.55,0,0,0-6.37-11.37Zm50.25-21.87a11.09,11.09,0,0,1,2.63-.38c1.12,0,1.62.38,1.62.88,0,.75-1,1.75-3.25,2.62-20.5,8.88-34.25,13-37,13-3.12,0-6-4.62-6.75-6.25a6.8,6.8,0,0,1-.25-1.12c0-.63.38-.75,1.25-.75h2.38c3.75,0,10.25-.63,21-3.25,3.75-6.75,6.62-14.63,6.62-18v-1.63c0-.87.25-1.37,1-1.37s7.13,2.87,7.13,5.25a2,2,0,0,1-.38,1.12,96.47,96.47,0,0,1-8,13.13ZM709.11,215.2a12.34,12.34,0,0,1-2.12.13c-3.5,0-5.5-1.25-7-5.5a2.39,2.39,0,0,1-.13-.88c0-.37.13-.62.5-.62.13,0,.25.12.38.12a17.47,17.47,0,0,0,5.12.75h1l6-.37V199l-9.87.63c-.88,0-1.63.12-2.38.12-2.75,0-4.87-.62-6.87-5.87a2.39,2.39,0,0,1-.13-.88c0-.37.13-.62.5-.62.13,0,.25.12.38.12a18.84,18.84,0,0,0,5.5,1h.75l12.12-.75v-8.12A11.13,11.13,0,0,0,711,179.2a2.38,2.38,0,0,1-.63-1.5c0-.5.25-.75,1-.75a15.78,15.78,0,0,1,5,1.25c3.13,1.13,3.75,1.75,3.75,3.5l-.25,10.5,6-.37a13.1,13.1,0,0,0,4.88-.88,3.75,3.75,0,0,1,1.25-.37c1.62,0,6,3.5,6,5.25,0,1.12-1.38,1.62-2.75,1.75l-15.5,1-.13,9.87,1.25-.12a15.47,15.47,0,0,0,5-.88,4.15,4.15,0,0,1,1.13-.37c2.5,0,5.87,4.12,5.87,5.25s-1.12,1.37-2.62,1.5Zm-.87,28.5v.88c0,1-.75,1.37-1.63,1.37-1.12,0-5.37-.75-5.37-4v-.75a17.4,17.4,0,0,0,.12-2.62,15.72,15.72,0,0,0-.12-2.25l-1-8.25a15.62,15.62,0,0,0-1.38-5.25,3.7,3.7,0,0,1-.5-1.38c0-.5.38-.87,1.25-.87,1.25,0,3.5.62,7.38,2l20-1.25h1.25c2.75,0,4.62,2.12,4.62,3.37,0,1-.62,1.75-.87,2.88l-1.88,9.12c1.88,2.25,2.63,3.63,2.63,4.38,0,1.25-1.5,1.25-3.38,1.37Zm1.37,20.63c-1.25,0-1.62-1-2.12-2.38a45.57,45.57,0,0,0-4.75-10.12,5.55,5.55,0,0,1-1.13-2.38c0-1.87,3.13-3.12,4.13-3.12,2.5,0,8.5,12.62,8.5,14.75S710.86,264.33,709.61,264.33Zm15.25-37-17.87,1,.75,9.5,16-1Zm29.25-13.88-10.75.75a20.34,20.34,0,0,1-2.75.13c-2.25,0-4-.25-4.62-1-1.38-1.63-3.25-4.75-3.25-6.38,0-.5.12-.62.5-.62a1.4,1.4,0,0,1,.62.12,16.78,16.78,0,0,0,5.5.88h1.13l13.62-.88L754,185.2a11.48,11.48,0,0,0-2.13-6.5,4.18,4.18,0,0,1-1-2c0-.5.5-.75,1.25-.75a21.57,21.57,0,0,1,5.63,1.38c3.37,1.25,4,2.12,4,4.5l.12,24h.5a18.1,18.1,0,0,0,5.13-1,3.27,3.27,0,0,1,1.37-.38c2.75,0,6.75,4.88,6.75,6.25,0,1.13-1.25,1.38-2.87,1.5l-10.88.75L762,274.7c0,1.63.25,3,.25,4.38a5.79,5.79,0,0,1-1.88,4.5c-1.5,1.25-2.5,1.87-3.75,1.87-4,0-20.62-12.5-20.62-16,0-.5.25-.75,1-.75a9.78,9.78,0,0,1,3.5,1.13,86.94,86.94,0,0,0,14,5.75Zm-18.87,12.13c0-1.75,3.5-3.13,4.37-3.13s1.5.63,2.25,1.88c3.13,5.25,8.75,15.75,8.75,19.37,0,2-3.37,4.25-5.25,4.25-1,0-1.75-.87-2.25-2.62a84.5,84.5,0,0,0-7.37-18.25A2.37,2.37,0,0,1,735.24,225.58Z"/></g></g></g></svg>