<svg xmlns="http://www.w3.org/2000/svg" viewBox="0 0 906.89 287.5"><g id="レイヤー_2" data-name="レイヤー 2"><g id="レイヤー_1-2" data-name="レイヤー 1"><g id="_2列目" data-name="2列目"><path d="M162.5,203.44c38.12,16.56,75.62,30.94,124.38,43.12,3.43.94,5.31,1.56,5.31,3.13,0,3.43-9.69,13.43-15,13.43-7.19,0-48.13-11.56-126.88-50v67.5c0,5-1.56,6.88-4.37,6.88a15,15,0,0,1-6.56-1.88c-6.88-3.12-9.07-5.62-9.07-9.37a11.88,11.88,0,0,1,.31-3.13,89.13,89.13,0,0,0,1.57-18.43V213.44c-45,25.94-78.44,42.5-121.25,51.87a36.68,36.68,0,0,1-5,.63c-3.75,0-5.94-1.25-5.94-2.82,0-1.87,2.5-4.68,9.06-6.87,37.82-13.44,68.75-29.69,104.38-50.63L47.5,208.44c-2.5,0-4.69.31-6.56.31-4.38,0-7.19-.63-9.69-2.81-4.69-4.06-7.81-11.25-7.81-12.82,0-1.24.62-1.56,1.56-1.56a3.92,3.92,0,0,1,1.88.32,45.65,45.65,0,0,0,12.18,1.87h1.88l91.25-4.06v-5.31c0-2.82-.94-5-3.13-8.44a5.07,5.07,0,0,1-.94-2.5c0-1.25.94-1.88,3.13-1.88,3.44,0,19.06,2.19,19.06,8.75v8.75l83.13-3.75a40.52,40.52,0,0,0,12.81-2.81,9.17,9.17,0,0,1,2.81-.62c6.25,0,14.69,9.37,14.69,13.12,0,2.81-3.44,4.06-7.19,4.38ZM178.44,45.62c-2.5,5-10.94,20.94-16.56,20.94-1.88,0-3.13-1.56-3.13-4.68a29.3,29.3,0,0,1,1.56-7.5,73.76,73.76,0,0,0,2.5-7.82l-51.87,3.13L112.81,60c0,.94.31,1.88.31,2.5,0,3.12-1.24,5-5,5-.93,0-15.31-.31-15.31-11.88v-5L40.94,53.75a55.9,55.9,0,0,1-6.88.31c-5.31,0-8.75-.62-10.94-2.81-5.62-5-7.81-10.63-7.81-11.87,0-.94.63-1.57,1.88-1.57a6.18,6.18,0,0,1,2.19.31,39.59,39.59,0,0,0,10,1.26c1.56,0,3.12-.32,5-.32l55.93-3.44L88.12,24.38a18.75,18.75,0,0,0-6.87-10.94C80,12.19,79.06,10.94,79.06,10c0-1.56,2.19-2.81,7.19-2.81,15.94,0,18.44,5.31,19.06,9.06l3.13,18.44,58.44-3.44a148.5,148.5,0,0,0,2.81-15.31v-2.5a17.06,17.06,0,0,0-2.19-8.75,7.31,7.31,0,0,1-.94-2.81c0-1.26.94-1.88,2.5-1.88,5,0,21.88,7.5,21.88,14.69a5.24,5.24,0,0,1-.32,2.19c-1.56,4.37-3.12,8.74-5,13.12l46.26-2.81c6.56-.31,10.93-.94,15.62-2.5a12.42,12.42,0,0,1,4.69-.94c4.69,0,14.69,7.81,14.69,13.44,0,2.5-2.82,3.43-6.57,3.75ZM93.75,171.88c-7.19.31-9.69,1.87-12.5,1.87-1.56,0-3.13-.63-5.94-2.19-4.69-3.12-5-6.25-5-13.44l-.93-51.24-22.5,1.24c-2.19,0-4.38.32-6.57.32-3.43,0-6.87-.32-8.12-1.56-5.31-3.76-9.69-12.5-9.69-13.76,0-.93.62-1.87,2.19-1.87a6.18,6.18,0,0,1,2.19.31,60,60,0,0,0,11.24.94h3.44l27.5-1.56V85.31c0-6.25-.62-10.31-3.75-15a3.38,3.38,0,0,1-.93-2.19c0-1.24,1.56-2.18,4.68-2.18,3.75,0,18.75,1.87,18.75,9.37V90l34.38-1.88-.31-10.31a31,31,0,0,0-4.69-15.62,4.15,4.15,0,0,1-.94-2.19c0-1.25,1.25-1.88,3.75-1.88,2.81,0,18.44,1.26,18.44,9.38l.31,19.69,37.19-1.88.62-10.62a33.24,33.24,0,0,0,.32-5.63c0-4.37-.63-8.12-2.5-10.62a5,5,0,0,1-.94-2.5c0-1.25,1.25-1.88,3.75-1.88.31,0,18.75,1.88,18.75,10.63,0,.62-.32,1.25-.32,2.19l-1.87,17.18,30.63-1.56c4.37-.31,11.56-1.56,15.93-3.44a11.14,11.14,0,0,1,4.38-.94c5.93,0,17.19,9.38,17.19,14.69,0,2.19-2.5,3.44-5.63,3.75L191.88,100l-2.5,20.94c5.93,6.56,8.43,10.62,8.43,12.5,0,2.5-3.43,2.81-8.75,3.12l-49.37,2.19v3.13c0,3.43-1.25,5.31-3.75,5.31,0,0-15-1.88-15-10.94a7.82,7.82,0,0,1,.31-2.5c.94-5.31,1.56-8.44,1.56-13.44v-3.12l-.31-13.13-34.38,1.88.32,50.31,119.06-4.69c5.62-.31,9.69-1.87,14.38-3.44a8.67,8.67,0,0,1,2.81-.31c5,0,17.5,7.81,17.5,14.07,0,2.81-3.13,4.06-6.57,4.37Zm80.94-70.94-35.63,2.18.32,20.63,33.74-1.25Z"/><path d="M320.39,275.3c-3.25.25-4.75,1-6.25,1-1.87,0-5.75-2-5.75-5a3.88,3.88,0,0,1,.38-1.63,21,21,0,0,0,1.12-7L309,220.05c0-2.5-.13-5.25-1.5-7.25a2.28,2.28,0,0,1-.5-1.25c0-.63.5-.88,1.5-.88a16.73,16.73,0,0,1,4.5,1c3.37,1.25,4.62,1.88,4.62,4.63l.25,51.37,30.13-2.5-.5-79.25a11.31,11.31,0,0,0-1.75-6.25,2.61,2.61,0,0,1-.63-1.37c0-.5.5-.88,1.63-.88.12,0,9.37.88,9.37,4.5v82.5l31.38-2.5.37-44.75c0-2.75,0-5.37-1.37-7.25a2,2,0,0,1-.5-1.25c0-.5.37-.87,1.37-.87a10.11,10.11,0,0,1,3.63.75c4,1.37,5.5,2,5.5,4.62l-.75,66.25c0,2.13-.63,3.13-2,3.13-1.75,0-7.13-2.25-7.13-5.5a3.36,3.36,0,0,1,.13-1.13,40.69,40.69,0,0,0,.75-6.37Z"/><path d="M547.64,256.92a8.09,8.09,0,0,1,1.5-3.5c9.38-13.75,17.88-27.25,22.13-44.12a12.55,12.55,0,0,0,.5-3,6.38,6.38,0,0,0-.38-2.13,2.5,2.5,0,0,1-.12-.87c0-.75.37-1.13,1.25-1.13q1.88,0,5.62,2.25c3.13,1.88,4.25,3.38,4.25,4.63a2.18,2.18,0,0,1-.12.87c-13.25,31-31.13,47.88-33.88,47.88C547.89,257.8,547.64,257.55,547.64,256.92Zm53-76.62a7.76,7.76,0,0,0-1.62-5,2.55,2.55,0,0,1-.63-1.13c0-.5.5-.75,1.38-.75,1.25,0,9.75,1.25,9.75,4.38l-.38,92.37c0,1.75.13,3.5.13,5,0,6.5-5.25,7.38-6.13,7.38-3.87,0-27.75-14.63-27.75-18,0-.75.63-1.13,1.63-1.13a8.36,8.36,0,0,1,3.25.88,160.35,160.35,0,0,0,20,7.37Zm53.25,73.12a2.86,2.86,0,0,1-2.62-1.87c-7.88-15.88-15.5-29.5-25.88-42.88a3,3,0,0,1-.75-1.87c0-1.63,3.13-4.38,5.5-4.38a2.84,2.84,0,0,1,2.38,1.38c12.25,15.87,27.75,42.12,27.75,44.5C660.27,251.17,655.27,253.42,653.89,253.42Z"/><path d="M733.27,217.05c12.12,24,31.5,45.25,51.87,55.62,1.5.75,2.25,1.38,2.25,2.13,0,2.25-6.5,5.37-7.87,5.37-1.88,0-34.13-19.75-53.38-61.5a120.84,120.84,0,0,1-7.5,19.5c-15.12,30-44.75,44-48.87,44-.88,0-1.25-.37-1.25-.87,0-.75.75-2,2.62-3.13,10.63-6.87,36.63-25.87,46.25-60.25l-29,1.5c-1.37,0-2.62.13-3.87.13-2.5,0-5.13-.25-7.13-6.75a1.64,1.64,0,0,1-.12-.75.66.66,0,0,1,.75-.75c.12,0,.25.12.5.12a27.72,27.72,0,0,0,5.5.5h1.62l33.75-2A162.64,162.64,0,0,0,723,182.05v-.5a12.29,12.29,0,0,0-1.63-5.75,3.25,3.25,0,0,1-.37-1.38c0-.62.37-.87,1.25-.87a16.9,16.9,0,0,1,5.5,1.62c3.25,1.25,4.37,2.63,4.37,5.13v.5a177.26,177.26,0,0,1-3.75,28.62L767,207.17a15.89,15.89,0,0,0,4.75-1,1.64,1.64,0,0,1,.75-.12c3,0,7.75,5.12,7.75,6.62s-1.75,1.88-3.63,2Zm-.25,56a3.21,3.21,0,0,1-2.5-1.63c-4.63-6-10-12.5-14.38-16.37-1.12-1-1.62-1.75-1.62-2.5,0-1.75,2.75-3.88,4-3.88a3.74,3.74,0,0,1,2.37,1.13c1.5,1.37,17.13,15.37,17.13,18.37C738,269.92,734.77,273.05,733,273.05Z"/><path d="M815.64,235.17l.25,26.88a234,234,0,0,0,22-9.25c-2.75-3.13-5.5-6-8.62-9.13a2.62,2.62,0,0,1-.88-1.75c0-2.5,4.13-3.75,4.5-3.75,2.88,0,16,14.63,22.88,24.38a4.6,4.6,0,0,1,1.12,2.62c0,2.63-4.37,4.5-5.25,4.5-1.25,0-2-.87-2.75-2-2.37-3.87-4.75-7.12-7-10.12-30.12,16.25-36.37,16.62-36.87,16.62-1.13,0-4.63-1.12-7-5.62a1.69,1.69,0,0,1-.25-1c0-.63.5-.88,1.5-1a25.12,25.12,0,0,0,7.37-1.38l1.5-.5-.25-65a31.82,31.82,0,0,0-1.25-9.62,3.24,3.24,0,0,1-.12-1c0-.5.12-.88.87-.88,1.25,0,3.75.88,8.5,3.13l9.5-.63-.25-12.5a6.33,6.33,0,0,0-1.5-4.25,1.29,1.29,0,0,1-.5-1c0-.62.88-1,2.25-1,2,0,7.38,1,7.38,3.75l-.13,14.5,11.5-.87c.5,0,.88-.13,1.38-.13,1.62,0,5.75,1.5,5.75,4.38,0,1-.63,2-.75,3.25l-2.75,30.62c2.5,2.75,3.5,4.25,3.5,5.13,0,1.12-1.38,1.25-3.25,1.37Zm27-39.37-27.25,1.87.13,11.88,26.37-1.5Zm-1.12,18.5-26,1.37.12,13.13,25-1Zm21.75-15.5c0-6,0-9.38-1.38-12.88a8.28,8.28,0,0,1-.87-2.75c0-.5.37-.87,1.12-.87,1.5,0,4.38,1,9.75,3.12l26.38-1.75c.62,0,1.12-.12,1.62-.12,2.13,0,5.63,1.75,5.63,3.75,0,1.25-1.38,2.37-1.75,3.12a165.73,165.73,0,0,1-14.25,23.75,1.52,1.52,0,0,0-.5,1.13c0,.5.5,1,1.37,1.75,5.75,4.87,16.5,15.25,16.5,30,0,2.12-.12,14-7.12,14-6,0-25.63-12.25-25.63-15.63,0-.37.38-.62,1-.62a9.73,9.73,0,0,1,3.75,1,111.14,111.14,0,0,0,17.63,5.62,2,2,0,0,0,.87.13.81.81,0,0,0,.88-.75,15.58,15.58,0,0,0,.75-4.63,25.4,25.4,0,0,0-2.13-9c-2.75-7-8.12-12.37-14.25-17.5a4.33,4.33,0,0,1-1.75-3.37,7.26,7.26,0,0,1,1.5-4c4.88-6.88,8.13-14,12.5-22.13L871,191.55l.37,93c0,1.62-.5,2.75-1.87,2.75s-7.13-2.13-7.13-5.5a3.36,3.36,0,0,1,.13-1.13,67.23,67.23,0,0,0,.87-11.75Z"/></g></g></g></svg>