<svg xmlns="http://www.w3.org/2000/svg" viewBox="0 0 657.05 285.27"><defs><style>.cls-1{stroke:#000;stroke-miterlimit:10;stroke-width:4px;}</style></defs><g id="レイヤー_2" data-name="レイヤー 2"><g id="レイヤー_1-2" data-name="レイヤー 1"><g id="_3列目" data-name="3列目"><path class="cls-1" d="M65.44,174.81a291.28,291.28,0,0,1-52.5,36.57c-3.44,1.87-6.25,2.81-8.13,2.81S2,213.25,2,212c0-2.19,2.19-5.62,7.19-9.06,47.5-35.63,83.43-82.19,85.31-97.82.62-3.74,1.56-5.62,3.75-5.62,4.37,0,17.19,9.06,17.19,16.56,0,7.19-29.69,38.44-31.25,40.32l.62,119.68c0,3.13-1.87,5-5.31,5-5,0-17.19-6.25-17.19-13.44,0-.62.31-1.24.31-2.18a161.43,161.43,0,0,0,1.88-26.88ZM182,64.81c-10,25.31-15,36.57-20,36.57-2.19,0-3.44-2.19-3.44-6.26a32.62,32.62,0,0,1,.94-6.87l5.62-22.5-51.24,3.13,3.74,24.68v1.56c0,3.76-1.87,5.63-5.31,5.63-6.25,0-15.93-3.75-15.93-10.31V88.88A83.53,83.53,0,0,0,97,80.44a43,43,0,0,0-.62-5.94l-.94-4.38L36.06,73.56a61.41,61.41,0,0,1-7.18.32c-5.63,0-8.44-.63-10.63-2.82-4.06-3.75-7.81-12.18-7.81-13.75,0-1.25.62-1.87,2.5-1.87a4.65,4.65,0,0,1,1.87.31A43.81,43.81,0,0,0,25.12,57c1.88,0,3.44-.31,5.32-.31l62.18-3.75L87.94,28.25c-.94-5.63-3.75-9.06-7.19-13.13a6.45,6.45,0,0,1-1.56-3.74c0-1.88,1.87-2.82,6.25-2.82a49.83,49.83,0,0,1,8.44.94c9.06,1.56,11.24,4.06,11.87,8.44l5.31,33.75,57.5-3.44c1.88-10,3.44-18.75,4.38-28.13V17a19.3,19.3,0,0,0-2.5-10.31,5.9,5.9,0,0,1-.94-2.81c0-1.26.94-1.88,2.81-1.88,4.07,0,23.44,6.88,23.44,14.38,0,.62-.31,1.24-.31,1.87A257.2,257.2,0,0,1,187.62,47l47.82-2.81c6.56-.31,10.94-.94,15.62-2.5a12.46,12.46,0,0,1,4.69-.94c5.63,0,15,9.37,15,14.69,0,2.81-2.81,4.06-6.87,4.37Zm-23.12,165c0,18.44,12.5,23.13,47.5,23.13,12.5,0,26.24-.94,38.12-3.44,10-1.88,17.19-3.75,23.44-50,1.25-9.69,3.75-14.38,5.94-14.38,5.62,0,6.24,23.13,6.24,34.38,0,30-2.5,46.25-30,50a349.24,349.24,0,0,1-45.62,3.12c-44.06,0-65.31-3.74-65.31-39.06L139.81,122a28.44,28.44,0,0,0-4.06-15.62,3.37,3.37,0,0,1-.63-2.19c0-1.57.94-2.19,3.44-2.19.94,0,21.56,2.81,21.56,11.56l-.62,59.06A301.25,301.25,0,0,0,217,134.5c3.75-3.12,5.94-8.12,7.19-14.38.62-2.81,1.56-4.06,3.12-4.06,2.19,0,5.94,3.13,10.94,9.69,3.75,5.31,5.31,8.75,5.31,11.56a5.86,5.86,0,0,1-2.5,4.69c-24.68,19.69-51.87,34.69-81.87,47.19l-.31,39.69Z"/><path class="cls-1" d="M312.92,194.52c-6.12,17.87-8,18.12-9,18.12-2.37,0-5.75-2.75-5.75-4.37a2.1,2.1,0,0,1,.38-1.25,107.55,107.55,0,0,0,10.5-24.25c.5-1.63,1-2.5,2.37-2.5.88,0,4.88.5,4.88,3a30.25,30.25,0,0,1-1.13,4.37L344.55,186l-.13-10.25a8.87,8.87,0,0,0-1.87-5,2.3,2.3,0,0,1-.5-1.38c0-.62.62-1,1.87-1,3.75,0,8.88,1.63,8.88,4.13l-.13,13,42.75-2.5h.88c5,0,6.25,4,6.25,4.37,0,1.5-1.75,2.38-2.5,3.5-12.75,17.63-17.5,17.88-17.63,17.88a.66.66,0,0,1-.75-.75,8.65,8.65,0,0,1,1.75-4c3.25-4.88,6.5-9.63,8.13-13.75Zm13.38,81.25.37,5v.37c0,1.5-.75,2.13-2,2.13a8.64,8.64,0,0,1-3-.75c-3.37-1.5-4.12-2.88-4.12-4.25,0-.38.12-.75.12-1.13a36.26,36.26,0,0,0,.38-5c0-1.12-.13-2.37-.25-3.75l-1.63-17a22.86,22.86,0,0,0-2.25-7.25,3.45,3.45,0,0,1-.5-1.75c0-.62.38-1,1.38-1,1.5,0,4.37.88,9.37,2.75l10.75-.5a59.51,59.51,0,0,0,7-10,10.9,10.9,0,0,0,1-3.25l-12.87.63.25,2v.25a1.84,1.84,0,0,1-2,2c-2.13,0-6.63-2-6.63-4.75,0-.38.13-.75.13-1.25a29.8,29.8,0,0,0,.25-3.38c0-.87-.13-2-.25-3.12l-1.38-11a20.66,20.66,0,0,0-2-7,4.29,4.29,0,0,1-.62-1.75c0-.5.25-.75,1.25-.75,1.37,0,4.12.62,8.87,2.25l42.5-2.5h.88c4.87,0,7.5,3.25,7.5,4.62s-1,2.25-1.25,3.13L374.42,222c2.25,2.5,3.5,4.12,3.5,5.25s-1.25,1.5-3.62,1.62l-25.25,1.25c1.25.88,1.87,1.75,1.87,2.63,0,2-5.5,8.25-7.75,10.5l35.13-1.5h1.37c2.88,0,7,2.37,7,4.87,0,1.63-1.5,2.75-1.62,3.63L381.67,267c2.63,3.12,3.75,4.87,3.75,6,0,1.37-1.75,1.5-4.5,1.62Zm50-26.38-52,1.88,1.37,17L373.42,267Zm-7-40.37-41.38,2.37,1.38,12.88,37.5-2Z"/><path class="cls-1" d="M553.05,259c-1.13,0-2.13.12-3,.12-1.88,0-5.38-.25-7.5-6.62a1.32,1.32,0,0,1-.13-.63c0-.37.13-.5.5-.5a2.39,2.39,0,0,1,.88.13,18.86,18.86,0,0,0,5.5.75h1.12l88.75-3.88a26.92,26.92,0,0,0,6.75-1,8.22,8.22,0,0,1,2.25-.5c1.63,0,6.88,3.75,6.88,6,0,1.25-1.5,1.63-3.38,1.75Zm-.38,23.37c-1.25,0-2-.37-2-.87s1-1.63,3.25-2.63a138.72,138.72,0,0,0,25.25-14.5A7.76,7.76,0,0,0,582.3,260c.25-1,.75-1.63,1.5-1.63,2.25,0,6.75,5.5,6.75,8.25a2.07,2.07,0,0,1-1,1.88C574.42,277.64,557.17,282.39,552.67,282.39Zm26.38-38.75.12,1.63v.37A2.11,2.11,0,0,1,576.8,248c-1.5,0-6.5-1.25-6.5-4.63,0-.37.12-.62.12-1a27,27,0,0,0,.63-5.5v-1.37l-1.5-32.5a16.94,16.94,0,0,0-1.38-5.88,6.19,6.19,0,0,1-.87-2.37c0-.75.5-1.13,1.5-1.13,1.5,0,4.25.88,9.25,3l16.5-1,.12-8-24.75,1.5a22.19,22.19,0,0,1-2.87.13c-2,0-3.63-.25-4.75-1.13a8.51,8.51,0,0,1-2.88-4.87c0-.63.25-.88.63-.88a1.07,1.07,0,0,1,.62.13,15.36,15.36,0,0,0,4.88.75h1l28.25-1.75v-5.25a13.48,13.48,0,0,0-1.63-6.5,3.25,3.25,0,0,1-.37-1.38c0-.62.37-1,1.25-1a17.88,17.88,0,0,1,4.87,1.13c3,.87,3.88,2,3.88,3.62l-.38,9,22-1.25a25,25,0,0,0,6.88-1.5,2.52,2.52,0,0,1,1-.12c1.87,0,6.87,3.25,6.87,5.25,0,1.12-1.37,1.5-2.75,1.62l-34.25,2-.25,8.13,22.13-1.38h.75c2.5,0,6.37,2.25,6.37,4.25,0,1-.87,1.75-1,2.63l-2.12,35c2.62,2.62,3.62,4,3.62,4.75s-1.75.75-3.75.87ZM622.3,200l-44.88,2.5.25,7.25,44.25-2.38Zm-.63,13.5-43.75,2.25.38,7.25,43-2.13Zm-.62,13.25-42.5,2.12.25,8.75,41.87-1.87Zm14.87,54.62a184.44,184.44,0,0,0-26.37-14.5c-1.38-.62-2.13-1.37-2.13-2.5,0-1.87,2.25-5.12,3.5-5.12,1,0,11,3.62,28.13,13.75,2,1.12,3,2,3,3.5,0,.87-.88,5.75-3.75,5.75A4.28,4.28,0,0,1,635.92,281.39Z"/></g></g></g></svg>