<svg xmlns="http://www.w3.org/2000/svg" viewBox="0 0 790.42 275.77"><defs><style>.cls-1{stroke:#000;stroke-miterlimit:10;stroke-width:4px;}</style></defs><g id="レイヤー_2" data-name="レイヤー 2"><g id="レイヤー_1-2" data-name="レイヤー 1"><g id="_3列目" data-name="3列目"><path class="cls-1" d="M155.44,176.06l.31,85c0,4.38-2.19,6.25-5,6.25-5.94,0-17.5-5.31-17.5-13.43,0-.94.31-1.57.31-2.5a123.1,123.1,0,0,0,1.25-18.76l.31-55.93L32.31,180.75c-4.37.31-7.81.31-10.62.31-5.31,0-8.13-.62-11.25-3.44C2.94,170.12,2,162.94,2,162.94c0-1.25.94-1.88,2.81-1.88H6.69a48,48,0,0,0,14.37,1.88h3.13l110.93-4.06.32-36.57-50,2.5.62,6.57v1.24c0,4.07-1.25,5.94-5,5.94-2.5,0-16.87-2.5-16.87-10.31,0-.63.31-1.25.31-1.87a32,32,0,0,0,.62-7.82,76.72,76.72,0,0,0-.31-8.12L57.62,29.5a47,47,0,0,0-5-18.12c-1.24-2.19-2.18-4.07-2.18-5.63s1.25-2.5,3.75-2.5c3.75,0,10.93,1.87,22.81,6.56L219.5,2h1.56c9.38,0,15,8.75,15,11.25,0,2.81-1.87,4.69-2.18,7.5l-7.82,79.37c6.56,7.82,9.06,12.19,9.06,14.69,0,3.13-4.06,3.13-9.37,3.44l-70.31,3.13v36.56l100.94-3.75a53.26,53.26,0,0,0,14.37-2.81,9.06,9.06,0,0,1,3.13-.63c5,0,17.5,10.31,17.5,15.63,0,3.12-3.44,4.37-7.5,4.68ZM213.88,19.5,77,27.31,79.5,57l132.19-7.19Zm-3.76,47.19L81.06,73.25l2.82,34.06,123.74-5.93Z"/><path class="cls-1" d="M318.17,175.14a16.84,16.84,0,0,0-1.75-7.75,2.76,2.76,0,0,1-.37-1.25c0-.62.5-1,1.62-1,.13,0,9.13.75,9.13,4.5,0,17-.38,35.5-1.5,49.38-2.75,31.75-23.38,50.75-27,50.75a1,1,0,0,1-1-1.13,5.28,5.28,0,0,1,1.25-3c17.5-23.37,19.62-41,19.62-83Zm31.75,1.63c0-2.75-.12-4.75-1-6.25a3.06,3.06,0,0,1-.5-1.5c0-.63.38-1,1.63-1,1.75,0,8.5.62,8.5,5.12v79.75c0,2-.63,3-2.13,3-2.25,0-7-2.12-7-5.37a7.47,7.47,0,0,1,.13-1.63,39.79,39.79,0,0,0,.62-8.37Zm34.25-7.5a11.51,11.51,0,0,0-1.37-6,3,3,0,0,1-.5-1.5c0-.75.5-1.13,1.75-1.13s8.62.38,8.62,4.88V270.27c0,1.75-.62,2.62-1.87,2.62-.75,0-7.38-2.12-7.38-6,0-.25.13-.5.13-.75a44.7,44.7,0,0,0,.87-8.62Z"/><path class="cls-1" d="M615.3,253.52c0,6.12,1.25,7,16.37,7,16.38,0,19.38-1.13,20.75-5.25a83.79,83.79,0,0,0,3.5-15.75c.5-3.38,1.25-5.13,2.13-5.13,2.25,0,2.25,10.5,2.25,11.13,0,19-2.75,21-11.13,22.12a140.61,140.61,0,0,1-18.12,1.25c-16,0-24.13-.75-24.13-13.5V255l.63-37.63-10,1.13c-7.13,30.87-23.25,45.12-44.75,51.62a9.05,9.05,0,0,1-2.75.5c-1.13,0-1.75-.37-1.75-.87,0-.75.87-1.75,2.87-2.75,18.5-9.75,31.88-21.88,37.75-47.5-.12,0-16.25,1.87-20.37,1.87-2.13,0-3-.5-4-1.62-2.5-2.88-3.38-5.38-3.38-5.88a1,1,0,0,1,1.13-1c.25,0,.37.13.62.13a22.93,22.93,0,0,0,5,.5c.75,0,1.63-.13,2.63-.13l3.12-.12a142.63,142.63,0,0,0,17-23,8.35,8.35,0,0,0,1.25-4.13c0-.37-.12-.62-.12-1l-23.5,1.38a34.21,34.21,0,0,1-3.5.12c-2.75,0-5.5-.5-7.38-5.5a1.64,1.64,0,0,1-.12-.75.89.89,0,0,1,1-.87c.25,0,.37.12.62.12a23.1,23.1,0,0,0,5,.5h1.5l34-2.12-.12-10.25a9.58,9.58,0,0,0-1.63-5.13,2,2,0,0,1-.5-1.25c0-.62.75-1,2.13-1s8.25.75,8.25,3.13l-.13,14,26.63-1.63a37.34,37.34,0,0,0,6.37-1,7.66,7.66,0,0,1,1.63-.25c3,0,7.12,3.25,7.12,5.25,0,1.25-1.37,1.88-2.75,2l-47.62,2.88c2.12,1.25,2.87,2.5,2.87,3.5,0,2.5-13.75,19.25-18.62,24.37,13.25-.87,28.62-2.12,41.37-3.87a110.34,110.34,0,0,0-9.87-8.25c-1.5-1.13-2.13-2-2.13-2.88,0-1.87,2.38-4.12,4-4.12,3.25,0,21.75,16.75,27.13,21.75a4.68,4.68,0,0,1,1.87,3.37,6,6,0,0,1-1.5,3.38q-1.68,2.25-3,2.25c-.87,0-1.75-.75-2.87-2-2.38-2.63-5-5.38-7.88-8.13-4.75.75-9.62,1.5-14.37,2.13l-.5,36.62Z"/><path class="cls-1" d="M691.55,213.39a143,143,0,0,0-16.25-12.62c-1.13-.75-1.75-1.5-1.75-2.38,0-1.37,1.87-4.12,3.25-4.12,2,0,13.62,8.25,19.5,12.75,1.37,1,2,1.75,2,2.75,0,1.25-2.38,5.12-4.13,5.12A4.75,4.75,0,0,1,691.55,213.39Zm-9.88,51.75c-4.12-.5-7.37-3.25-7.37-4.12,0-.38.25-.75,1-1.25a16.9,16.9,0,0,0,4.62-4.38,298.35,298.35,0,0,0,20.25-32.62c1.38-2.5,2.63-3.63,3.5-3.63.63,0,1,.63,1,1.63,0,2.75-6.87,19.5-17.5,38.87-2,3.5-3,5.5-5.12,5.5Zm18.38-78A176.67,176.67,0,0,0,684.8,173a3,3,0,0,1-1.5-2.38,4.32,4.32,0,0,1,1.12-2.5,3,3,0,0,1,2.25-1.5c2.75,0,20.38,15.25,20.38,17.25,0,1.38-2.63,4.88-4.5,4.88C701.8,188.77,701.05,188.27,700.05,187.14Zm85.5,49.38-37.88,1.75L747.55,271c0,2-1,2.75-2.38,2.75a7.57,7.57,0,0,1-3-.75c-2.37-1.13-3.5-2-3.5-4a5,5,0,0,1,.13-1.38,47.9,47.9,0,0,0,.75-8.12l.12-20.88-27.37,1.25h-2c-2.25,0-3.75-.12-4.38-.75-1.25-1.25-3.25-4.12-3.25-5.87,0-.38.25-.63.75-.63a2.09,2.09,0,0,1,.75.13,18,18,0,0,0,4.5.5h1.5l29.63-1.5.12-15.5-16,1a20.12,20.12,0,0,1-2.62.12c-1.88,0-3.13-.25-3.88-.87a11,11,0,0,1-3.12-5.75c0-.38.25-.63.75-.63a2.15,2.15,0,0,1,.75.13,18.65,18.65,0,0,0,4.5.5h1.5l18.12-1,.13-14.13-21.63,1.25c-1.12,0-2.25.13-3.25.13-2.25,0-3.25-.25-3.75-1.38-1.5-1.75-2.62-3.87-2.62-5.12,0-.38.25-.63.75-.63a2.15,2.15,0,0,1,.75.13,18.65,18.65,0,0,0,4.5.5h1.5l26.5-1.63c11.62-18.37,12-22.75,12-25v-.37c0-1.13.5-1.75,1.37-1.75.5,0,7.88,3,7.88,5.87,0,1.25-6.5,12-13.38,20.75l16.75-1a19.56,19.56,0,0,0,4.75-.75,3.83,3.83,0,0,1,1.13-.25c2,0,5.87,3.5,5.87,5.5,0,1-1.25,1.5-2.75,1.63l-28.62,1.62v14.13l15.25-.88a17.84,17.84,0,0,0,4.75-.75,3,3,0,0,1,1-.25c1.5,0,6.12,3.25,6.12,5.25,0,1-1.25,1.5-2.87,1.63l-24.38,1.5v15.62L776.55,230a16.64,16.64,0,0,0,4.75-.75,1.53,1.53,0,0,1,.75-.13c2.25,0,6.37,4.13,6.37,5.63,0,1-1,1.62-2.5,1.75Zm-50.13-48.38c-1,0-1.62-.62-2.37-1.87a82.85,82.85,0,0,0-12.5-15c-.88-.88-1.38-1.5-1.38-2.25,0-1.13,2.13-3.88,3.88-3.88s8.25,5.88,16.37,16a4.65,4.65,0,0,1,1.13,2.63C740.55,186,736.42,188.14,735.42,188.14Z"/></g></g></g></svg>