<svg xmlns="http://www.w3.org/2000/svg" viewBox="0 0 791.77 274.49"><defs><style>.cls-1{stroke:#000;stroke-miterlimit:10;stroke-width:4px;}</style></defs><g id="レイヤー_2" data-name="レイヤー 2"><g id="レイヤー_1-2" data-name="レイヤー 1"><path class="cls-1" d="M69.19,35.12c-.63,30.94-.94,68.44-5.31,97.19C52.62,207,13.56,260.75,3.88,260.75c-1.26,0-1.88-.94-1.88-2.5,0-1.87.94-5,3.44-9.06,39.68-69.07,41.87-142.5,42.81-212.81,0-7.82,0-12.82-2.19-18.76a19.64,19.64,0,0,1-1.56-6.56c0-1.87.62-2.81,3.12-2.81,3.44,0,10,2.5,22.19,8.13L235.44,5.75a49.21,49.21,0,0,0,15-3.13,7.4,7.4,0,0,1,2.5-.62c5.94,0,18.75,11.25,18.75,16.25,0,3.13-3.44,4.37-8.44,4.69ZM182.31,72.94c0,28.12-.62,48.75-7.81,75.62,33.12,53.44,68.75,79.06,115.31,95,3.44,1.25,5.63,2.19,5.63,4.38,0,4.68-9.06,15.94-15,15.94-2.5,0-67.5-22.82-112.5-95-27.19,63.43-107.5,95-117.82,95-2.81,0-4.37-.94-4.37-2.5,0-1.88,2.19-4.38,7.81-7.19C155.44,201.38,161.69,130.75,161.69,89.5c0-8.75-.31-17.81-.63-28.12a23.45,23.45,0,0,0-4.37-13.13,5.8,5.8,0,0,1-1.25-3.44c0-1.56,1.56-2.5,4.68-2.5,3.76,0,22.19,1.57,22.19,11.57ZM124.19,164.5c-3.13,0-5-2.5-6.88-6.88a314.59,314.59,0,0,0-27.19-48.74,7.58,7.58,0,0,1-1.87-4.69c0-6.25,11.87-9.07,11.87-9.07,2.5,0,4.07,1.57,6.26,4.38,9.37,12.5,32.18,47.19,32.18,54.06C138.56,157.94,129.19,164.5,124.19,164.5ZM231.69,87c0-2.19.93-3.75,3.12-3.75,4.69,0,20.31,9.06,20.31,15.31,0,7.82-46.87,63.75-59.37,63.75a1.65,1.65,0,0,1-1.87-1.87c0-1.88,1.24-4.38,3.43-7.5,33.75-45,34.38-57.5,34.38-62.5Z"/><path class="cls-1" d="M336.52,236.24,314.89,240a40.14,40.14,0,0,1-4.62.87c-3.13,0-4.5-3.75-4.5-4.5a4.9,4.9,0,0,1,.12-1.25,24.61,24.61,0,0,0,.88-7.37l.5-30.25a8.38,8.38,0,0,0-1.5-5,3.34,3.34,0,0,1-.38-1.25c0-.5.25-.75,1-.75a15.42,15.42,0,0,1,4.13,1c3.25,1.12,3.5,1.87,3.5,3.75l-.75,37.62,8.5-1.25.12-58.75a8.39,8.39,0,0,0-1.37-5,2,2,0,0,1-.5-1.12c0-.5.37-.75,1.25-.75.37,0,7.62.62,7.62,4.25l-.25,60.5,8.25-1.25.38-35.5a9,9,0,0,0-1.5-5.13,2,2,0,0,1-.38-1c0-.5.38-.75,1.13-.75a12.16,12.16,0,0,1,3.87.88c3.25,1.12,3.63,1.75,3.63,3.5l-.5,49.75c0,1.75-.75,2.87-2.13,2.87-2.62,0-5.37-2.37-5.37-4.25a3.24,3.24,0,0,1,.12-1Zm56-26.13-37.38,2.25a20.34,20.34,0,0,1-2.75.13c-3.87,0-5.5-.75-7.12-6.25a1.32,1.32,0,0,1-.13-.63c0-.37.13-.5.5-.5a2.39,2.39,0,0,1,.88.13,21.56,21.56,0,0,0,5.12.62h1.25l53-3.12a11.7,11.7,0,0,0,4.38-1.25,1.84,1.84,0,0,1,1.12-.25c2.63,0,6.5,4.25,6.5,5.75,0,1.25-1.25,1.62-2.5,1.75l-15.5,1,.38,51.87c0,1.38.12,2.63.12,3.75a6.46,6.46,0,0,1-5.62,6.63c-3.38,0-22.25-12.38-22.25-15.5,0-.63.37-.88,1.12-.88a10.53,10.53,0,0,1,3.38,1,120,120,0,0,0,15.75,5.75Zm-14-28.5c-.25.88-.63,1.63-.88,2.38a178.06,178.06,0,0,1,21.63,9.5,2.69,2.69,0,0,1,1.5,2.37c0,1-1.25,5.25-3.25,5.25a3,3,0,0,1-1.75-.75,113.42,113.42,0,0,0-20.88-11c-6.25,9.75-19.12,15.13-21.87,15.13-.75,0-1.25-.25-1.25-.88s.62-1.5,2.25-2.5c8.62-5.62,14-11.62,16.87-19l-14.62,1c-1.13,0-2.25.25-3.25.25-2.88,0-4-2.12-5.38-5.87a3.45,3.45,0,0,1-.25-.88A.59.59,0,0,1,348,176a1.4,1.4,0,0,1,.62.12,16.67,16.67,0,0,0,4.38.75h.75l18.87-1.25a45.13,45.13,0,0,0,.88-9.5c0-3.25-.13-4.75-.88-6.12a3.79,3.79,0,0,1-.37-1.38c0-.62.37-.87,1.12-.87a12.75,12.75,0,0,1,4.13,1.12c3.12,1.13,3.62,1.88,3.62,3.75A65.05,65.05,0,0,1,380,175.24l15.5-1a12.23,12.23,0,0,0,4.12-.75,2.88,2.88,0,0,1,1-.25c1.5,0,5.38,3.37,5.38,5.25,0,1-1,1.37-2.25,1.5Zm-17.63,65,.25,2.88v.5c0,1.5-.5,2.25-1.37,2.25-1.38,0-5.63-1.25-5.63-5.13v-.87a16.2,16.2,0,0,0,.13-2.63,19.45,19.45,0,0,0-.13-2.62l-1.25-13.38a18.52,18.52,0,0,0-1.37-6,5.63,5.63,0,0,1-.75-2c0-.5.37-.75,1.12-.75,1.13,0,3.38.63,7.38,2.13l17.5-1h1c2.87,0,5.37,2,5.37,3.87a12.1,12.1,0,0,1-.62,2.25l-1.75,13.63c2.25,2.5,3,3.87,3,4.75,0,1.25-1.5,1.25-3.25,1.37Zm14.25-20.12-15.62.75,1,13.25,13.62-.5Z"/><path class="cls-1" d="M573,220.74c-6.5,8.12-19.38,20.12-23,20.12-.5,0-.75-.25-.75-.62,0-.75.75-2,2.25-3.63,11.5-11.75,23.12-26.62,30.62-42.87l-18,1.75a45.81,45.81,0,0,1-4.87.5c-3.88,0-6.75-6.63-6.75-7.13s.37-.75,1-.75h.62a22.82,22.82,0,0,0,4.38.38,18.65,18.65,0,0,0,2.75-.13l24-2.12a19.59,19.59,0,0,1,2.5-.13,3,3,0,0,1,2.37.75c2,1.63,2.63,2.75,2.63,3.5,0,.5-4.88,9.25-12.75,21,12.5,8.38,16.62,11.88,16.62,13.25s-2,5.13-4,5.13c-.62,0-1.37-.5-2.37-1.63a108.94,108.94,0,0,0-10.25-9.5l-.13,49.13c0,2.37-.75,3.37-2.12,3.37-.25,0-6.38-.62-6.38-5.12a4.06,4.06,0,0,1,.13-1.25,54.94,54.94,0,0,0,.75-7.75Zm7.5-37a3.28,3.28,0,0,1-2.63-1.75,123.28,123.28,0,0,0-12.62-14.38,2.53,2.53,0,0,1-1-1.75c0-.62,1.75-3.5,3.75-3.5s17.25,14.13,17.25,16.75C585.27,180.11,582.89,183.74,580.52,183.74ZM631.77,237v31.5c0,2.62-1,3.62-2.5,3.62-1.88,0-6.88-1.75-6.88-5.37a10.22,10.22,0,0,1,.25-1.75,37.23,37.23,0,0,0,1-8.38l.13-19.37L602,238c-1.25,0-2.5.12-3.5.12a4.72,4.72,0,0,1-2.88-.62,12,12,0,0,1-3.12-6.13c0-.5.25-.75.62-.75a1.53,1.53,0,0,1,.75.13,18.37,18.37,0,0,0,4.63.5h1.37l23.88-.88.12-16.37-12.37.62c-1.25,0-2.5.13-3.5.13-2.25,0-3.38-.38-4.75-2.88a7.82,7.82,0,0,1-1.25-3.37c0-.63.25-.88.75-.88a1.31,1.31,0,0,1,.62.13,15.8,15.8,0,0,0,4.38.5h1.62l14.5-.63.13-14-16.63.88c-1.25,0-2.5.12-3.5.12A4.66,4.66,0,0,1,601,194c-1.38-1.13-3.13-3.88-3.13-5.63,0-.5.25-.75.63-.75a1.53,1.53,0,0,1,.75.13,16.7,16.7,0,0,0,4.5.5h1.5l22-1.38c9.25-13.5,12.12-21.75,12.12-25.12v-.63c0-1.12.38-1.62,1.38-1.62s2.5.75,4.5,2.25,2.75,2.5,2.75,3.62c0,2.25-8.13,14.13-13.75,21l12.12-1a22.74,22.74,0,0,0,5-.75,4.7,4.7,0,0,1,1.25-.25c2.75,0,6.25,3.63,6.25,5.5,0,1.13-1.25,1.63-2.75,1.75l-24.37,1.5v14.13l10.62-.5a26.4,26.4,0,0,0,5.13-.88,3,3,0,0,1,1.12-.25c1.38,0,6.25,3.13,6.25,5.38,0,1.12-1.25,1.62-2.87,1.75l-20.25,1v16.37l22.62-.87a15.91,15.91,0,0,0,4.88-.75,2.85,2.85,0,0,1,1.12-.25c2.5,0,6.5,4,6.5,5.75,0,1.25-1.25,1.75-3,1.87Zm-12.5-51.63c-.88,0-1.5-.62-2.13-1.62a87,87,0,0,0-11.25-15.25,2.64,2.64,0,0,1-.87-1.63c0-.87,2.25-3.75,4.25-3.75a2.56,2.56,0,0,1,1.87,1.13c6.25,6.5,13.38,15.5,13.38,17.25C624.52,183.49,620.27,185.36,619.27,185.36Z"/><path class="cls-1" d="M688.52,221.86c-1.13,0-2.13.13-3.13.13-3.87,0-6.5-.63-9.12-6.5a2.39,2.39,0,0,1-.13-.88c0-.5.25-.75,1-.75h.63a22.88,22.88,0,0,0,7,.88h1.75l26.62-1.13,5.5-17.87-12.75.75a23.08,23.08,0,0,1-2.75.12c-5.87,0-7.5-5.87-7.62-6.5a1.31,1.31,0,0,1-.13-.62.59.59,0,0,1,.63-.63,1.31,1.31,0,0,1,.62.13,25.71,25.71,0,0,0,6.13.75,14.49,14.49,0,0,0,2.37-.13l15.63-1,4.25-14L702.77,176c-1.38.12-2.38.12-3.25.12-1.88,0-3-.25-3.88-1a9.49,9.49,0,0,1-3.5-5.37A1.64,1.64,0,0,1,692,169a.66.66,0,0,1,.75-.75c.12,0,.25.12.5.12a36.19,36.19,0,0,0,6.37.63h1.25L757,165.61a17.45,17.45,0,0,0,5.87-1.12,4,4,0,0,1,1.63-.25c3.5,0,6.75,4.5,6.75,5.75s-1.13,1.87-3.13,2l-34.62,2.12-4.25,14L756,186.49c.5,0,.87-.13,1.25-.13,3.25,0,5.75,3.5,5.75,5,0,1-.63,1.63-.75,2.38l-3.38,17.87,13.38-.62a39.11,39.11,0,0,0,8.75-1.5,3.7,3.7,0,0,1,1.25-.13c3,0,7.5,4.5,7.5,6.5,0,1.13-1,1.63-2.13,1.75Zm23.62,43.63.25,3.87v.38c0,2-.87,2.75-2.25,2.75-.62,0-6.37-.75-6.37-4.88,0-.37.12-.75.12-1.12.13-1.5.25-2.88.25-4.38a25.08,25.08,0,0,0-.12-3L702.39,240a20.81,20.81,0,0,0-1.62-6.5,6.68,6.68,0,0,1-.75-2c0-.63.37-.88,1.25-.88,1.37,0,4.12.75,8.87,2.5L757.52,231h1.62c3.88,0,6,2.87,6,4.5a8.48,8.48,0,0,1-.75,2.5l-3.25,19.5c1.88,2.75,2.75,4.5,2.75,5.5,0,1.37-1.62,1.37-3.75,1.5Zm43.63-27.25-45.5,1.87,1.37,18.25,41.5-1Zm-2-44.5-26.63,1.5-5.5,18,29-1.25Z"/></g></g></svg>