<svg xmlns="http://www.w3.org/2000/svg" viewBox="0 0 653.64 277.5"><g id="レイヤー_2" data-name="レイヤー 2"><g id="レイヤー_1-2" data-name="レイヤー 1"><g id="_2列目" data-name="2列目"><path d="M68.12,32.19c0,30.62-1.87,72.5-5.93,101.56-14.07,102.5-54.38,133.13-60,133.13A2.23,2.23,0,0,1,0,264.38c0-1.88,1.25-5,3.75-8.76C43.44,195.31,47.19,97.19,47.19,34.06c0-6.56-.31-15-2.81-19.06-1.88-3.12-3.44-5.62-3.44-7.5,0-1.25.94-1.88,2.81-1.88,3.44,0,10.63,2.5,24.37,8.44L233.44,3.44A39.64,39.64,0,0,0,246.25.62a5.93,5.93,0,0,1,2.5-.62c2.19,0,5,1.25,10,5.31q7.5,6.57,7.5,10.31c0,2.5-3.13,4.07-8.44,4.38ZM57.19,255.62c-1.57,0-2.5-.62-2.5-1.87s1.56-3.75,4.69-6.87c29.68-29.69,45.31-53.76,45.31-63.76,0-2.81.62-4.68,2.5-4.68,2.19,0,19.69,10,19.69,17.5C126.88,201.88,74.38,255.62,57.19,255.62Zm103.43-88.74-42.81,1.56v2.5c0,3.75-.93,5.94-3.75,5.94-.94,0-17.81-3.76-17.81-14.69v-1.57a46.87,46.87,0,0,0,.63-9.68,61.36,61.36,0,0,0-.32-7.82L90.94,89.38c-.63-5.94-1.56-13.13-3.75-16.57C85.94,70.62,85,68.75,85,67.5s.94-1.88,3.12-1.88c3.44,0,10.94,1.88,23.76,6.26l29.06-1.57c2.18-3.12,16.87-25,16.87-37.5,0-2.81.63-4.37,2.5-4.37,5.31,0,20,9.37,20,14.68a7.65,7.65,0,0,1-1.25,3.76,129.64,129.64,0,0,1-17.5,22.18L228.44,65c.94,0,2.18-.31,3.12-.31,10.32,0,15.32,10,15.32,12.19,0,3.12-2.19,5.31-2.5,7.18l-8.13,63.75c6.25,5.94,8.75,10,8.75,12.19,0,3.44-4.38,4.06-10.94,4.38l-53.75,1.87L180,247.5c0,5,.62,9.38.62,13.12,0,10.94-8.43,16.88-15,16.88-11.56,0-56.24-39.06-56.24-45,0-1.25.93-1.88,2.5-1.88,2.18,0,5.62.94,10.31,3.44,8.12,4.38,25.31,12.5,37.81,16.56Zm62.82-84.07-112.5,5.94,1.87,22.5,108.44-5.63Zm-3.75,39.69-105.31,5.31,1.87,24.07,100.94-3.44Zm55,111.56c0,5.94-10.94,13.13-14.07,13.13-2.18,0-4.06-1.25-5.93-3.75a334.55,334.55,0,0,0-45.94-47.5c-2.19-1.88-3.44-3.75-3.44-5.63,0-3.43,5.31-10.93,10.31-10.93,2.19,0,4.38,1.24,7.5,3.74C223.12,183.12,274.69,224.69,274.69,234.06Z"/><path d="M428.89,225.67c-1.37.13-2.5.13-3.37.13a6.11,6.11,0,0,1-3.75-.88c-2-1.62-4-6.25-4-7.25,0-.5.25-.75.62-.75a4,4,0,0,1,1,.25,18.81,18.81,0,0,0,4.75.63c.75,0,1.5-.13,2.25-.13l88.63-4.5a17.15,17.15,0,0,0,5.25-1.12,1.53,1.53,0,0,1,.75-.13c2,0,7.37,3.88,7.37,6.63,0,1.37-1.25,2-2.87,2.12Z"/><path d="M615.89,215.3c3.88,14,6.38,20,8.25,24.12a110.85,110.85,0,0,0,9.25-15,11.09,11.09,0,0,0,1-4.12v-1c0-1,.38-1.5,1-1.5,1.5,0,7.13,4,7.13,7,0,1.25-6,12.25-14.63,22.12,4.38,8.13,9.63,15.5,15.13,19.75a1.5,1.5,0,0,0,1.12.5c.38,0,.63-.25.88-.75a101.08,101.08,0,0,0,4.5-17c.5-3.75,1.5-5.75,2.5-5.75s1.62,2.13,1.62,6.38c0,19.12-1.62,26.62-7.87,26.62-6.88,0-15.75-9.62-23.5-23.87-12.38,12.37-28.63,20.87-31.25,20.87-.75,0-1.13-.25-1.13-.75,0-.75,1-2.12,3.13-3.62a153.33,153.33,0,0,0,25.87-23.25,177.1,177.1,0,0,1-10.5-30.38l-57.75,3c-.87,0-1.87.13-2.75.13-1.62,0-3-.13-3.62-.75a14,14,0,0,1-3.5-6.38c0-.5.12-.62.5-.62a2.5,2.5,0,0,1,.87.12,23.68,23.68,0,0,0,5.13.63h.87l24.13-1.25V196.8l-9.25.5c-1.38,0-2.75.12-3.88.12-1.5,0-2.62-.12-3.25-.75a13,13,0,0,1-3.37-5.87.46.46,0,0,1,.5-.5,1.64,1.64,0,0,1,.75.12,27.8,27.8,0,0,0,5.75.5h1.62l11.25-.62V175.92a8.41,8.41,0,0,0-1.25-4.75,3.72,3.72,0,0,1-.5-1.37c0-.5.25-.88,1.13-.88s8.37,2,8.37,4.25L580,189.8l8.75-.5a15.44,15.44,0,0,0,5.12-1.13c.25,0,.38-.12.63-.12,1.5,0,6.12,3.5,6.12,5.5,0,1.25-1.37,1.75-3,1.87l-17.75,1-.12,13.75,27.12-1.37c-1.87-10-3.25-21-4.5-34.5-.25-3.13-.75-4.88-2.12-6.88a3.74,3.74,0,0,1-.75-1.75c0-.62.5-.87,1.5-.87,1.62,0,8.37,1,8.62,4,1.13,16.75,2.63,29,4.75,39.62l22-1.12a24.35,24.35,0,0,0,5.25-1,3.54,3.54,0,0,1,1.13-.25c2,0,6.75,4.12,6.75,6,0,1.25-1.5,1.62-3.5,1.75Zm-49.75,46.87.38,4.75v.38c0,1.5-.63,2.12-1.88,2.12,0,0-6.5-.25-6.5-4.75v-.75c.13-2,.38-3.75.38-5.37a9.15,9.15,0,0,0-.13-1.88l-2-20.87a14.19,14.19,0,0,0-1.87-5.88,4.83,4.83,0,0,1-.63-1.75c0-.62.38-1,1.38-1,1.37,0,4,.75,8.37,2.38l28.13-1.63h.75c1.87,0,5.75,2.13,5.75,4.5,0,.75-.63,1.38-.75,2.13l-2.5,20c2.62,2.75,3.62,4.37,3.62,5.12,0,1.25-1.87,1-4,1.13Zm23-27.37-25,1.25,1.5,19.25,21.75-1Zm43.13-35a145.17,145.17,0,0,0-14.63-14.5,2.79,2.79,0,0,1-1.25-1.88c0-1.62,2.5-4.25,3.88-4.25a3,3,0,0,1,1.5.63c2.37,1.87,16.87,13.5,16.87,16,0,1.75-2.62,5.12-4.62,5.12A2.53,2.53,0,0,1,632.27,199.8Z"/></g></g></g></svg>