<svg xmlns="http://www.w3.org/2000/svg" viewBox="0 0 785.14 284.17"><defs><style>.cls-1{stroke:#000;stroke-miterlimit:10;stroke-width:4px;}</style></defs><g id="レイヤー_2" data-name="レイヤー 2"><g id="レイヤー_1-2" data-name="レイヤー 1"><g id="_1列目" data-name="1列目"><path class="cls-1" d="M70.12,34.19c0,30.62-1.87,72.5-5.93,101.56-14.07,102.5-54.38,133.13-60,133.13A2.23,2.23,0,0,1,2,266.38c0-1.88,1.25-5,3.75-8.76C45.44,197.31,49.19,99.19,49.19,36.06c0-6.56-.31-15-2.81-19.06-1.88-3.12-3.44-5.62-3.44-7.5,0-1.25.94-1.88,2.81-1.88,3.44,0,10.63,2.5,24.37,8.44L235.44,5.44a39.64,39.64,0,0,0,12.81-2.82,5.93,5.93,0,0,1,2.5-.62c2.19,0,5,1.25,10,5.31q7.5,6.57,7.5,10.31c0,2.5-3.13,4.07-8.44,4.38ZM59.19,257.62c-1.57,0-2.5-.62-2.5-1.87s1.56-3.75,4.69-6.87c29.68-29.69,45.31-53.76,45.31-63.76,0-2.81.62-4.68,2.5-4.68,2.19,0,19.69,10,19.69,17.5C128.88,203.88,76.38,257.62,59.19,257.62Zm103.43-88.74-42.81,1.56v2.5c0,3.75-.93,5.94-3.75,5.94-.94,0-17.81-3.76-17.81-14.69v-1.57a46.87,46.87,0,0,0,.63-9.68,61.36,61.36,0,0,0-.32-7.82L92.94,91.38c-.63-5.94-1.56-13.13-3.75-16.57C87.94,72.62,87,70.75,87,69.5s.94-1.88,3.12-1.88c3.44,0,10.94,1.88,23.76,6.26l29.06-1.57c2.18-3.12,16.87-25,16.87-37.5,0-2.81.63-4.37,2.5-4.37,5.31,0,20,9.37,20,14.68a7.65,7.65,0,0,1-1.25,3.76,129.64,129.64,0,0,1-17.5,22.18L230.44,67c.94,0,2.18-.31,3.12-.31,10.32,0,15.32,10,15.32,12.19,0,3.12-2.19,5.31-2.5,7.18l-8.13,63.75c6.25,5.94,8.75,10,8.75,12.19,0,3.44-4.38,4.06-10.94,4.38l-53.75,1.87L182,249.5c0,5,.62,9.38.62,13.12,0,10.94-8.43,16.88-15,16.88-11.56,0-56.24-39.06-56.24-45,0-1.25.93-1.88,2.5-1.88,2.18,0,5.62.94,10.31,3.44,8.12,4.38,25.31,12.5,37.81,16.56Zm62.82-84.07-112.5,5.94,1.87,22.5,108.44-5.63Zm-3.75,39.69-105.31,5.31,1.87,24.07,100.94-3.44Zm55,111.56c0,5.94-10.94,13.13-14.07,13.13-2.18,0-4.06-1.25-5.93-3.75a334.55,334.55,0,0,0-45.94-47.5c-2.19-1.88-3.44-3.75-3.44-5.63,0-3.43,5.31-10.93,10.31-10.93,2.19,0,4.38,1.24,7.5,3.74C225.12,185.12,276.69,226.69,276.69,236.06Z"/><path class="cls-1" d="M310.39,221.92a143.84,143.84,0,0,0-15.75-12.75c-1.12-.75-1.75-1.37-1.75-2.12s1.5-4,3.25-4,21.38,12.62,21.38,15.37c0,2-3.13,5-4.5,5A4.12,4.12,0,0,1,310.39,221.92Zm-7.12,52.5c-2.5-.5-7.88-2.62-7.88-4.25a1.82,1.82,0,0,1,1-1.25,14.43,14.43,0,0,0,4.5-4.62,311.5,311.5,0,0,0,16.88-32.38c1.25-2.75,2.37-4,3.12-4,.5,0,.88.63.88,1.88,0,4.62-13.38,44.62-18.13,44.62Zm14.5-77.12c-.88,0-1.63-.63-2.63-1.75a118.16,118.16,0,0,0-14.37-14.13c-1.13-.87-1.63-1.5-1.63-2.25,0-.5,1.38-3.87,3.63-3.87,2.5,0,19.75,14.87,19.75,17.37C322.52,193.67,319.89,197.3,317.77,197.3Zm49.12,62.37V279.3c0,1.87-.75,2.87-2.12,2.87-1.63,0-6.25-1.37-6.25-4.62,0-.25.12-.5.12-.88a44.84,44.84,0,0,0,.88-9.75l.12-7.12-15.62.5c-.88,0-1.75.12-2.5.12-2,0-5.63-.25-6.75-5.62a1.53,1.53,0,0,1-.13-.75.66.66,0,0,1,.75-.75,1.64,1.64,0,0,1,.75.12,21.16,21.16,0,0,0,6,.63l17.5-.5.13-7.13-21.5.75c-1,0-1.88.13-2.75.13-5,0-6.63-4.38-6.63-6.75,0-.5.25-.63.63-.63a3,3,0,0,1,1,.13,20.94,20.94,0,0,0,5.62.62l15.75-.62a3.45,3.45,0,0,1-1-1.25,49.27,49.27,0,0,0-5.87-7.25,2.16,2.16,0,0,1-.75-1.5c0-.5.37-1.13,1.37-2l-13.5.62c-1.12,0-2,.13-2.87.13a6.36,6.36,0,0,1-6.63-6.13c0-.5.25-.75.63-.75a2,2,0,0,1,.87.13,13.7,13.7,0,0,0,4,.5c.63,0,1.25-.13,1.88-.13l29.75-1.37-.13-7.13-14.62.75c-1,0-1.75.13-2.5.13-5.25,0-7-5-7-6.38a.66.66,0,0,1,.75-.75,3.29,3.29,0,0,1,.87.25,15.43,15.43,0,0,0,4.38.5H343l16.62-.75v-.5a9.4,9.4,0,0,0-1-4.87,3.46,3.46,0,0,1-.75-1.63c0-.5.5-.75,1.38-.75s7.75.38,7.75,4.13v3.25l13.75-.63a23.41,23.41,0,0,0,5-.87,1.78,1.78,0,0,1,.87-.13c3,0,6.25,4.13,6.25,5s-1.25,1.63-3.37,1.75l-22.63,1.13-.12,7.12,29-1.37a20.77,20.77,0,0,0,4.5-.88,3.77,3.77,0,0,1,1.12-.25c2.25,0,6.25,3.63,6.25,5.63q0,1.3-3,1.5l-25.5,1.25c2,1.37,2.75,2.5,2.75,3.25a1.42,1.42,0,0,1-.37,1,55.68,55.68,0,0,1-7.88,8.62l14.38-.5a17.08,17.08,0,0,0,4.87-.75c.25,0,.38-.12.63-.12,1.87,0,6.5,2.75,6.5,5.12,0,1.13-1.13,1.75-3.13,1.88l-30,1.12v7.25l14-.37a18.18,18.18,0,0,0,4.75-.75,2.7,2.7,0,0,1,1.13-.13c2.12,0,6.62,2.88,6.62,5,0,1-1,1.63-3,1.75ZM337.52,200.3l.12.5v.5c0,1.37-.5,2.5-2.12,2.5,0,0-5.63-.63-5.63-4.5v-.63a15.3,15.3,0,0,0,.13-2.5,8,8,0,0,0-.13-1.75l-1.5-10.62a11.91,11.91,0,0,0-1.5-4.63,7.69,7.69,0,0,1-1-2.25c0-.62.5-.87,1.5-.87a29.92,29.92,0,0,1,7.25,1.62l57.5-3.25h1.13c2,0,5.25,1.5,5.25,3.75,0,.75-.63,1.5-.88,2.25l-2.5,12c1.88,2,2.63,3.25,2.63,4,0,1.13-1.38,1.13-2.63,1.25Zm11.12-17.75-13.25.75,1.5,11.37,12.88-.62Zm1.5,45.25c1.5,1.37,7.25,7,7.25,8.75,0,.75-.62,1.62-2.12,2.75l-.5.5-.63.25,12.38-.38c7.25-8.62,7.37-10.75,7.37-13Zm18.5-46.25-13,.62.88,11.5,11.75-.5Zm21.25-1.13-14.37.75-.63,11.75,13-.62Z"/><path class="cls-1" d="M613,262.3c0,5.62,1,6.62,14.37,6.62a86.89,86.89,0,0,0,14-1.12c2.38-.38,3.63-1.13,4.63-4a94.3,94.3,0,0,0,3.87-15c.63-3.38,1.75-5.25,2.75-5.25s1.75,1.75,1.75,5.37a110.52,110.52,0,0,1-1.25,17c-1.5,8.13-2.62,11.38-27.12,11.38-12,0-21.25-.13-21.25-13.63v-.37l.5-27-9.88.37c-6.75,21.88-22.87,37.38-46.12,43.13a8.43,8.43,0,0,1-2.25.37c-1.38,0-2-.5-2-1.12s1-1.88,3.12-2.63c19.13-7.5,33.38-20.75,38.63-39.37l-7.88.37.13.88v.37c0,1.5-.75,2-2,2-2.5,0-6.25-1.87-6.25-4.75v-.62c.12-1.38.25-2.5.25-3.38a25.28,25.28,0,0,0-.25-3l-2-15.62a14.54,14.54,0,0,0-1.88-6,4.75,4.75,0,0,1-.62-1.88c0-.5.25-.87,1.25-.87,1.37,0,4,.75,8.37,2.37l18.88-1c.12-2.87.25-7.25.25-12l-32.25,2c-.88,0-1.63.13-2.38.13-2.12,0-3.5-.38-4.12-.88-3.13-3.12-3.5-5.62-3.5-6.25s.12-.75.62-.75a1.53,1.53,0,0,1,.75.13,16.62,16.62,0,0,0,5.25.75h1.25l34.38-2c0-12.25,0-15.38-1.75-17.63a2.72,2.72,0,0,1-.75-1.5c0-.62.5-.87,1.5-.87,1.75,0,9.25.87,9.25,5,0,3.75,0,9-.13,14.5l31-1.88a23,23,0,0,0,5.13-1,3.77,3.77,0,0,1,1.12-.25c3,0,6.5,4.38,6.5,5.63s-1.37,1.75-3.12,1.87L603,193.42c-.13,4.88-.25,9.25-.25,12.13l22.75-1.25h.75c2.62,0,6,2.5,6,4.5,0,.87-.63,1.5-.75,2.25l-3.38,17.87c2.38,2.25,3.38,3.75,3.38,4.75,0,1.25-1.75,1.5-3.75,1.63l-14.38.62L613,261.55Zm10.25-51-46.88,2.25,1.75,16.87,42.63-1.75Z"/><path class="cls-1" d="M686.27,234.05c-8.13,9.87-16.5,17.12-19,17.12a.66.66,0,0,1-.75-.75c0-1,.75-2.5,2.5-4.5,7.37-8.5,27.5-36,27.5-44.12,0-1.38.37-2,1.25-2,2.75,0,7.12,4.62,7.12,6.5,0,1.37-6.87,11.87-11.62,18.75l-.13,54.12c0,1.38-.37,2.25-1.5,2.25-.5,0-6.62-1.5-6.62-5.5a7.52,7.52,0,0,1,.12-1.5c.38-2.75.5-6.87.63-12.25Zm-15.13-23.13a.59.59,0,0,1-.62-.62c0-.75.87-2.13,2.75-4.13a159.36,159.36,0,0,0,22-29.12,12.94,12.94,0,0,0,1.37-4.5c.13-1.5.63-2.13,1.38-2.13,2.12,0,7,4.38,7,6.5a2.1,2.1,0,0,1-.38,1.25C686.39,204.42,672.52,210.92,671.14,210.92Zm33.75,62.25c-1,0-5.37-1.87-5.37-4.37a3.75,3.75,0,0,1,.62-1.75,89.29,89.29,0,0,0,9.13-19.63,2.1,2.1,0,0,1,2-1.62c1.75,0,4.62,1.5,4.62,3.12,0,.88-2.25,9.75-9.12,22.75C706.27,272.67,705.64,273.17,704.89,273.17Zm14.63-37.37.25,2.12v.63c0,1.12-.38,2.12-1.88,2.12-2.5,0-6-1.62-6-5v-.87a28.36,28.36,0,0,0,.13-3.38,20.26,20.26,0,0,0-.25-3.75l-1.5-12.75a14.67,14.67,0,0,0-2-6.62,4.43,4.43,0,0,1-.88-2c0-.38.25-.63,1-.63,1.25,0,3.75.75,8.5,2.5l18.25-1.12.25-12-12.87.75c-2.5.12-4.25.25-5.5.25a7.49,7.49,0,0,1-7.75-6.63c0-.37.25-.62.75-.62a2.5,2.5,0,0,1,.87.12,26.14,26.14,0,0,0,5.88.63c1.12,0,2.37,0,3.75-.13l15-.87.12-9.75c0-2.75-.25-5-1.5-7.13a2.76,2.76,0,0,1-.37-1.25c0-.37.25-.62,1-.62a21.12,21.12,0,0,1,4.25.87c3.5,1,4.12,2.38,4.12,4.38l-.25,13.12,12-.75a18,18,0,0,0,7-1.5,4.83,4.83,0,0,1,2.13-.5c2.25,0,6.87,3.75,6.87,6,0,1-.87,1.38-2.12,1.5l-26,1.63-.25,12,23.37-1.38c.63,0,1.25-.12,1.75-.12,2.38,0,5.5,2,5.5,4.25,0,1-.75,1.75-.87,2.62l-3,15.25c2.75,2.63,3.75,4.13,3.75,5s-1.13,1-2.75,1.13Zm8.5-22.13-10.88.63,1.63,15.12,10.25-.5Zm26.62,57c4.38,0,8.13-.37,8.13-1a1.85,1.85,0,0,0-.25-.75c-6.38-11.75-6.38-11.75-6.38-13.12,0-.63.25-1,.75-1,.75,0,2.25,1,4.13,3.12a90.89,90.89,0,0,0,10,9.75c2,1.63,3.12,2.88,3.12,4.13,0,.75-.5,6.5-18.12,6.5-6.63,0-13.38-.88-18.88-3.25-13.5-5.88-16.87-22.13-16.87-23,0-2.13,4-2.25,4.37-2.25a2.54,2.54,0,0,1,2.63,1.75C730.64,263.17,737,270.67,754.64,270.67Zm-9.5-14.62a133.15,133.15,0,0,0-13-11.38,2.14,2.14,0,0,1-1-1.62,3.77,3.77,0,0,1,1.13-2.25c1-1.13,1.62-1.63,2.37-1.63,1.5,0,16.5,10.88,16.5,13.25,0,1.38-2.25,4.75-4,4.75C746.39,257.17,745.89,256.8,745.14,256.05Zm.75-43.38-11,.63.88,15.25,9.25-.38Zm18.5-1.12-11.5.62-1,15.63,10.63-.5ZM777,262.3a127.21,127.21,0,0,0-14.88-14.75,2.81,2.81,0,0,1-1.25-2.13c0-1.37,2-4,3.75-4a3.07,3.07,0,0,1,2,.88c15.88,13,16.5,15.12,16.5,16.37,0,2.5-3,4.88-4.12,4.88A2.74,2.74,0,0,1,777,262.3Z"/></g></g></g></svg>