<svg xmlns="http://www.w3.org/2000/svg" viewBox="0 0 790.21 284.58"><defs><style>.cls-1{stroke:#000;stroke-miterlimit:10;stroke-width:4px;}</style></defs><g id="レイヤー_2" data-name="レイヤー 2"><g id="レイヤー_1-2" data-name="レイヤー 1"><path class="cls-1" d="M44.5,123.56c-3.75.32-6.88.63-9.69.63s-10.62-.31-17.19-14.69a7.25,7.25,0,0,1-.93-2.81c0-.94.93-1.57,2.5-1.57.62,0,1.56.32,2.5.32a83.8,83.8,0,0,0,12.19.94h4.06l60.94-5a18.75,18.75,0,0,1,4.06-.32c5,0,15,5,15,11.88,0,4.06-3.75,6.56-4.06,7.81-19.07,58.44-49.69,96.56-100.94,130-3.75,2.5-6.56,3.44-8.44,3.44A2.23,2.23,0,0,1,2,252c0-2.19,1.56-5,5.31-8.44,41.88-39.06,70-75.62,84.07-123.75ZM93.88,77.94A395.17,395.17,0,0,0,44.5,52c-3.75-1.56-5.94-3.12-5.94-5.94,0-1.25,2.5-10.62,7.5-10.62,4.69,0,32.19,10.94,57.5,24.37,5,2.81,7.5,4.38,7.5,7.5,0,2.19-3.44,13.75-9.68,13.75C99.19,81.06,97,79.81,93.88,77.94Zm44.37-54.38c0-6.56-2.5-11.25-5.63-15.94a6.61,6.61,0,0,1-1.24-3.43c0-1.57,1.24-2.19,3.43-2.19,7.5,0,25,5.62,25,12.5l-.31,71.25c6.88,10.94,14.06,21.56,20.94,31.56C202.31,100.75,234.81,72,237,56.38c.31-3.13,1.56-5,3.44-5q3.75,0,11.25,9.37c4.06,5,5.31,8.13,5.31,10.63,0,7.5-43.75,45.62-65.94,61.24,27.19,36.57,64.06,71.26,102.19,94.07,3.44,2.19,5.31,3.43,5.31,5.31,0,3.75-15.62,13.12-19.06,13.12a8.31,8.31,0,0,1-4.38-1.56c-44.68-32.81-85.31-74.68-115.62-125l-.31,134.06c0,4.38.31,8.13.31,11.88,0,5.31-.94,9.69-5.94,13.75a13.77,13.77,0,0,1-9.06,3.44c-14.69,0-68.44-34.69-68.44-43.13,0-1.87,1.25-2.81,3.44-2.81a12.86,12.86,0,0,1,5.94,1.56c18.75,8.75,34.68,14.38,52.81,17.81Z"/><path class="cls-1" d="M312.46,279.83h-2.63c-3.25,0-4.5-.38-6.87-3.88a11.86,11.86,0,0,1-1.13-2.62,1.94,1.94,0,0,1-.12-.75.89.89,0,0,1,.87-1,1.64,1.64,0,0,1,.75.12,16.92,16.92,0,0,0,5.5.88h1l41.5-1.25-.12-14.13-20,.75c-1.38,0-2.5.13-3.38.13a4.66,4.66,0,0,1-3-.63c-3.75-3.25-3.87-6-3.87-6.25a.66.66,0,0,1,.75-.75,2.32,2.32,0,0,1,.87.13,23.19,23.19,0,0,0,5,.62h1l22.5-.87v-5.88a9,9,0,0,0-1.62-5.87,2.17,2.17,0,0,1-.75-1.38c0-.62.75-1,1.87-1a12.79,12.79,0,0,1,4.5,1c3.75,1.38,4.25,2.13,4.25,4.13V250l17.25-.62a19,19,0,0,0,5-1,1.8,1.8,0,0,1,.88-.13c1.5,0,6.5,3.75,6.5,5.88,0,1.12-1.25,1.62-2.75,1.75l-26.88,1v14.25l40-1.25a15.07,15.07,0,0,0,5.13-1,1.53,1.53,0,0,1,.75-.13c1.87,0,6.75,4.13,6.75,6.13,0,1.12-1.25,1.62-2.75,1.75Zm7.25-83.25a159.15,159.15,0,0,1-7.38,16.87c-.62,1.25-1.37,2-2.37,2-1.25,0-5.63-1.75-5.63-4.5a4,4,0,0,1,.75-2.12A126.9,126.9,0,0,0,316,183.7c.5-1.62,1.12-2.5,2.62-2.5,1,0,4.75.25,4.75,3.25a4.54,4.54,0,0,1-.25,1.75,30.32,30.32,0,0,1-1,3.25l29.5-1.75-.12-9.87a9.93,9.93,0,0,0-1.75-5.5,2.61,2.61,0,0,1-.63-1.38c0-.75.75-1.12,1.88-1.12a15.5,15.5,0,0,1,4.5,1c3.75,1.25,4.25,2.12,4.25,3.87v12.63l41.62-2.5h1.13a5.58,5.58,0,0,1,5.75,4.25c0,1.5-1.38,2.62-1.75,3.37-7,11.75-13.88,20.63-16.25,20.63-.63,0-1-.38-1-1.25a7.29,7.29,0,0,1,1.12-3.13,91.71,91.71,0,0,0,6.88-16.37Zm34.5,15a176.82,176.82,0,0,1-14.25,17c10.12-.63,20.62-1.75,31.37-3.25-2-2-4-3.88-6.12-5.75-1.13-1-1.75-1.63-1.75-2.38,0-1,2.62-4,4.12-4,2.75,0,22.5,19.13,22.5,21.5,0,.88-.62,1.75-1.87,3s-2.25,1.88-3,1.88-1.63-.63-2.63-1.88c-2-2.5-4-4.75-6-6.87-11.12,1.75-41.87,6.25-49.37,6.25a9.52,9.52,0,0,1-3.75-.75c-1.25-1.13-3.88-4.25-3.88-6.88,0-.62.25-.87.75-.87a1.64,1.64,0,0,1,.75.12,26.14,26.14,0,0,0,5.88.63h1.25l2.75-.13a180.23,180.23,0,0,0,13.5-17.12l-12.38.75a21.05,21.05,0,0,1-2.62.12c-2.88,0-5.13-.62-7.63-5.87a3.45,3.45,0,0,1-.25-.88c0-.5.25-.62,1-.62h.63a32.32,32.32,0,0,0,5.12.5h1.13l46.12-2.5a19.6,19.6,0,0,0,5.63-1.13,2.83,2.83,0,0,1,1-.12c2.75,0,6.75,4.5,6.75,5.87,0,1-1.25,1.38-2.88,1.5Z"/><path class="cls-1" d="M653.71,225.45l-44.38,2.38a142.41,142.41,0,0,0,13.88,16.75c6.5-4.25,16.5-11.63,16.75-15.25.12-1,.5-1.63,1.12-1.63,2,0,5.63,5.25,5.63,6.88,0,2.5-10.63,9.62-18.75,14.5a115.38,115.38,0,0,0,37.87,22.5c1.75.62,2.5,1.12,2.5,1.75a3,3,0,0,1-1.12,1.87c-2.63,3-4,3.75-5,3.75-.13,0-34.38-9.62-61.38-50.75l-7,.38-.5,41.25c7.63-2,15.25-4.38,23.13-7a11.47,11.47,0,0,1,3-.63c1.25,0,1.87.38,1.87,1,0,.88-1.12,2-3.5,3.25C597.08,276.7,580.71,282.2,578,282.2a3.31,3.31,0,0,1-2.38-.87,13.38,13.38,0,0,1-5.12-6.75c0-.5.5-.75,1.37-.75h1.25a50.49,50.49,0,0,0,12.38-2l.37-42.88-10.75.63c-3.62,31.5-22,53-25.12,53-.5,0-.75-.38-.75-1.13a10.47,10.47,0,0,1,1.87-4.87c16-27.25,17.13-51.25,17.13-73.5,0-14.38-.13-17.25-1.13-19.75a8.66,8.66,0,0,1-.75-2.63c0-.62.38-1,1.25-1,1.25,0,4.13,1,9.13,3.13l58.87-3.75a20,20,0,0,0,6.13-1.25,5.08,5.08,0,0,1,1.37-.25c3.38,0,7.5,5,7.5,6.25s-1.37,1.87-3.25,2l-70.5,4.25v5.75c0,8.5-.12,16.75-1,26.62l66.88-3.5a20.12,20.12,0,0,0,5.87-1.12,3.54,3.54,0,0,1,1.13-.25c2.5,0,7.12,4,7.12,6,0,1.12-1.12,1.75-2.75,1.87ZM593.46,208.7c-1.38.13-2.63.13-3.75.13-1.63,0-3-.13-3.63-.75a12.1,12.1,0,0,1-3.62-6.13c0-.5.25-.62.87-.62a3.21,3.21,0,0,1,1,.12,29.74,29.74,0,0,0,4.88.38H591l35.5-2a25.85,25.85,0,0,0,5.75-1,3.48,3.48,0,0,1,1.12-.25c2.5,0,7.13,3.75,7.13,5.75,0,1.12-1.25,1.62-3,1.75Z"/><path class="cls-1" d="M727.71,214.7l-21.25,7.63-.25,35.12v.75c0,10.13,2.62,11.5,12.37,12.75a162.68,162.68,0,0,0,21,1.25A183.76,183.76,0,0,0,768.83,270c8.5-1.37,10.13-3.25,11.75-9.25a112.32,112.32,0,0,0,2.88-16.25c.37-3.12,1.37-4.87,2.25-4.87,1.62,0,2.5,3.5,2.5,17.25,0,12.75-.25,18.75-16.5,20.87a245.85,245.85,0,0,1-31.88,2.13,217,217,0,0,1-24.25-1.38c-10.75-1.25-17.37-4.25-17.37-18.62v-.38l.25-34.25L685,230.08c-2.13.75-3.63,1.37-5,1.37-.5,0-3.25,0-6.5-4a2,2,0,0,1-.38-1c0-.5.25-.87,1-1a29.62,29.62,0,0,0,7.5-1.75l16.88-6.25.12-15.12a15.83,15.83,0,0,0-1.87-8.25,3.84,3.84,0,0,1-.38-1.38c0-.5.38-.75,1.13-.75a18.27,18.27,0,0,1,4.37,1c4.25,1.38,4.75,2.38,4.75,4.63l-.12,17,21.37-7.88.13-24.87a17,17,0,0,0-1.75-7.63,2,2,0,0,1-.38-1.12c0-.5.38-.75,1.25-.75a12.89,12.89,0,0,1,4.25,1c3.13,1.12,4.38,2,4.38,4.62l-.13,25.88,24.88-9a5.68,5.68,0,0,1,2.37-.5c.88,0,5.88.37,5.88,4.37,0,1.5-.63,3-.63,3.88a302.87,302.87,0,0,1-2.5,36.25c-.62,4.75-1,9-4.12,11.75a7.42,7.42,0,0,1-4.5,2.12c-5.13,0-18-13.62-18-16.5a.92.92,0,0,1,1-1,7.76,7.76,0,0,1,3.25,1.38c6.75,4.37,11.87,6.5,12.37,6.5s1-.25,1.13-1.38a181.26,181.26,0,0,0,3.37-35.25v-3.37l-24.5,8.75-.25,45.87c0,1.63-.62,2.75-2,2.75s-6.62-2.25-6.62-5.62a3.21,3.21,0,0,1,.12-1,48.67,48.67,0,0,0,.75-9.25Z"/></g></g></svg>