<svg xmlns="http://www.w3.org/2000/svg" viewBox="0 0 692.31 254.63"><defs><style>.cls-1{stroke:#000;stroke-miterlimit:10;stroke-width:4px;}</style></defs><g id="レイヤー_2" data-name="レイヤー 2"><g id="レイヤー_1-2" data-name="レイヤー 1"><path class="cls-1" d="M35.44,230.44l.31,12.81v1.56c0,5.63-1.87,7.81-5,7.81-4.37,0-17.81-5.62-17.81-14.06,0-.62.31-1.56.31-2.18A97.32,97.32,0,0,0,14.19,222v-6.25l-5-184.69c-.31-6.56-2.19-15-5-20.31C2.94,8.25,2,6.06,2,4.5S2.94,2,5.44,2C9.19,2,16.38,4.19,28.56,9.81L166.38,2.62h2.18c5.63,0,15.32,5,15.32,11.88,0,2.5-1.26,4.38-1.57,6.56L173.56,207c6.25,7.81,8.75,12.5,8.75,15,0,3.44-4.37,3.44-10,3.75ZM160.75,21.69,29.5,28.56l2.19,79.38,125.93-6.25ZM157,120.75,32.31,126.38l2.5,85.31,118.75-3.75Z"/><path class="cls-1" d="M294.44,150.81l-73.25,4.13v74.75c0,1.87-.75,3.12-2.38,3.12-.5,0-6.75-1.37-6.75-5.62a16.1,16.1,0,0,1,.25-2.25,72.19,72.19,0,0,0,.75-10.63l.25-54.37a49.84,49.84,0,0,0-1.5-13.25,9.14,9.14,0,0,1-.25-1.63c0-.5.25-.87,1-.87,1.38,0,4.13,1,9.88,3.75l15.87-1c13.88-21.63,14-24.63,14-27.38,0-1,.5-1.37,1.13-1.37,2.12,0,7.62,4,7.62,6.37a2.78,2.78,0,0,1-.25,1,206.48,206.48,0,0,1-13.75,20.88l49.13-3c.62,0,1.12-.13,1.75-.13,2.37,0,5.37,2.13,5.37,4.63,0,1.12-.62,2-.62,2.62l-.25,70.13c0,2.37.12,4,.12,5.25,0,4-3.5,6.75-5.5,6.75-4.12,0-26.75-13.25-26.75-17.75,0-.5.38-.88,1.25-.88a8,8,0,0,1,3.38,1,102.68,102.68,0,0,0,19.5,7.38Zm-47.38,52.13.25,2.75v.37a1.71,1.71,0,0,1-1.87,1.88,8.68,8.68,0,0,1-3.38-1.13c-2.5-1.25-3.12-2.5-3.12-4v-.5c.12-1.75.37-3.62.37-5.37,0-.63-.12-1.13-.12-1.75l-1.63-17.75a21.27,21.27,0,0,0-1.75-7.25,5.62,5.62,0,0,1-.75-2.38c0-.5.25-.87,1.13-.87,1.37,0,4.12.87,9,3.12l25.5-1.87c.5,0,1-.13,1.5-.13,1.25,0,5.75,2.38,5.75,5,0,1.25-.88,2-1,2.75l-3,19.25c3.12,2.88,4.25,4.5,4.25,5.5s-1.38,1.38-3,1.5Zm21.88-27.63-23.75,1.5,1.5,19.63,19.87-.75Z"/><path class="cls-1" d="M467.81,146.56c0,12.63-.12,26.25-1,38.63-2.12,27.12-14.5,45.12-17.12,45.12-.5,0-.75-.5-.75-1.25a5.58,5.58,0,0,1,.62-2.5c10.38-21.5,11-45.12,11-70.37,0-5.25-.12-10.13-.12-13.88,0-2-.63-5-1.63-6.12a1.53,1.53,0,0,1-.5-1c0-.5.5-.75,1.63-.75.62,0,7.87.5,7.87,3.87Zm8.38.5c0-2.75,0-5.12-1-6.5a1.5,1.5,0,0,1-.5-1.12q0-.75,1.5-.75a12.59,12.59,0,0,1,3.62.62c3.13.88,3.5,1.88,3.5,3.75v62.13c0,1.87-.62,2.62-1.87,2.62-1.75,0-6-2-6-5.12a6.33,6.33,0,0,1,.12-1.5,40.37,40.37,0,0,0,.88-8.38Zm16-11.37v-1.38c0-2,0-3.62-.88-4.62a2.17,2.17,0,0,1-.75-1.38q0-.75,1.5-.75c1.63,0,7.38.63,7.38,4.38v93.12c0,1.63-.5,2.5-1.75,2.5-.25,0-6.25-1.37-6.25-5.37a4,4,0,0,1,.12-1.25,44.68,44.68,0,0,0,.88-8.63Zm28.5,70c0-.75.37-1.13,1-1.13.87,0,6.87,3.75,6.87,6.5a1.41,1.41,0,0,1-.37,1c-14,16.13-27.13,21-29.38,21-.62,0-1-.25-1-.62,0-.63.63-1.38,1.88-2.5C512.81,219.44,520.31,209.81,520.69,205.69Zm-2.75-2.75.12,2v.25a2.13,2.13,0,0,1-2.25,2.12c-1.25,0-5.5-1.37-5.5-4.5,0-.25.13-.62.13-1,.12-1.37.25-2.75.25-4.12v-1.5l-1.38-38.25a19.63,19.63,0,0,0-1.12-6.63,7.34,7.34,0,0,1-.63-2.37c0-.5.25-.75,1-.75,1.25,0,3.63.75,7.75,2.25l7.13-.5c1.75-2.75,5.5-9.38,5.5-11.88a7.33,7.33,0,0,0-.13-1.62l-15.87,1.12a31.62,31.62,0,0,1-3.38.13c-4.12,0-5.87-2.25-7-5.38a1.64,1.64,0,0,1-.12-.75c0-.5.25-.75.87-.75a5.59,5.59,0,0,0,.63.13,15.06,15.06,0,0,0,4.12.5c.75,0,1.5-.13,2.38-.13l39.25-2.37a20.85,20.85,0,0,0,5.12-1,3.54,3.54,0,0,1,1.13-.25c2,0,6.75,3.37,6.75,5.5,0,.75-.88,1.25-2.25,1.37l-27,1.5c2.87,2,3.87,3.13,3.87,4.13,0,.75-3.5,6.25-5.75,9.25l18.25-1.13c.75,0,1.38-.12,1.88-.12.87,0,4.87,1.62,4.87,4.12,0,1-.87,1.63-.87,2.5l-1.63,40.25c2.38,2.63,3.25,4.13,3.25,5,0,1.13-1.37,1.13-3,1.25Zm30.25-48.25-31.88,2,.38,8.87,31.25-1.75Zm-.5,14.87-30.88,1.88.38,8.87,30.12-1.5Zm-.5,15.13-29.75,1.5.37,10.37,29-1.25Zm11.25,46.87c-.75,0-1.5-.5-2.38-1.62a144.28,144.28,0,0,0-17.25-18.38c-1.12-1-1.75-1.75-1.75-2.5,0-1.37,2.38-3.5,4-3.5,2.63,0,21.63,18.5,21.63,21.75C562.69,229.19,560.06,231.56,558.44,231.56Z"/><path class="cls-1" d="M635.81,187.56l-.12,45c0,2.25-1,3.13-2.5,3.13-.63,0-6.63-.75-6.63-5.25a4.5,4.5,0,0,1,.13-1.25,46,46,0,0,0,.75-8.25l.12-33.13-42.5,1.88c-1.62,0-2.87.12-4,.12-1.37,0-2.37-.12-2.87-.62-2-2.13-3.63-4.88-3.63-6.38a.89.89,0,0,1,1-.87,1.64,1.64,0,0,1,.75.12,15.06,15.06,0,0,0,4.75.63h1.38l45.25-1.88.25-45.87-27.25,1.5c-1.38.12-2.63.12-3.75.12a8.66,8.66,0,0,1-1.88-.12c-2.87-.75-4.62-6-4.62-6.75,0-.5.25-.75.87-.75a1.64,1.64,0,0,1,.75.12,18.57,18.57,0,0,0,4.63.5h1.5l62.62-3.62a22.68,22.68,0,0,0,5.5-1,3.36,3.36,0,0,1,1.13-.13c3.12,0,6.87,4,6.87,5.75,0,1.25-1.5,1.75-3.12,1.88l-35.13,2-.12,46,40.75-1.75a22.77,22.77,0,0,0,5.5-1,3.31,3.31,0,0,1,1.12-.13c3.88,0,7,4.5,7,5.75s-1.5,1.88-3.12,2Zm-21.62-13.37c-1,0-1.75-.75-2.5-2.13a144.78,144.78,0,0,0-13.88-21.25c-.87-1.12-1.5-1.87-1.5-2.62,0-1.75,3.13-3.63,4.5-3.63,3.38,0,19.13,23.25,19.13,25.13S615.19,174.19,614.19,174.19Zm44.75-32.88c0-1.25.62-1.87,1.62-1.87,2.13,0,7.88,3.37,7.88,5.62s-15.5,26.13-23.75,30.25a3.78,3.78,0,0,1-1.75.75.59.59,0,0,1-.63-.62c0-.63.63-1.75,1.75-3.38,7.25-10.37,14.88-24.62,14.88-29.62Z"/></g></g></svg>