<svg xmlns="http://www.w3.org/2000/svg" viewBox="0 0 791.52 294.63"><defs><style>.cls-1{stroke:#000;stroke-miterlimit:10;stroke-width:4px;}</style></defs><g id="レイヤー_2" data-name="レイヤー 2"><g id="レイヤー_1-2" data-name="レイヤー 1"><path class="cls-1" d="M137.62,6.06c0-2.5.94-4.06,3.13-4.06,5.63,0,20.63,10.94,20.63,16.25,0,2.5-5.94,12.19-6.26,12.5,38.44,50,86.57,89.06,136.88,115,3.12,1.56,4.69,3.13,4.69,4.69S287,164.5,279.81,164.5c-6.56,0-81.25-50.62-135-117.5-35,52.81-75.31,92.19-131.56,123.75q-5.62,2.81-8.44,2.81c-1.87,0-2.81-.62-2.81-1.87,0-1.88,2.19-5,7.19-8.75C64.5,121.38,106.38,75.12,134.81,19.81a30.22,30.22,0,0,0,2.81-12.19ZM84.81,197c-3.12,0-5.93.31-8.12.31H73.56a9.76,9.76,0,0,1-6.25-2.81,36.18,36.18,0,0,1-7.19-12.19,16,16,0,0,1-.62-2.81c0-1.56.62-2.19,2.19-2.19a4.65,4.65,0,0,1,1.87.31A50.45,50.45,0,0,0,77,179.19h3.44L217,172.31h4.69c12.81,0,14.69,9.38,14.69,10.63,0,3.12-2.82,5.31-4.07,7.18-28.75,49.38-75.62,102.5-84.37,102.5-2.19,0-14.69-5.31-14.69-11.24,0-1.88,1.56-3.76,4.37-6.26a345.76,345.76,0,0,0,70.32-84.06Zm26.88-56.88c-2.81,0-5.31.32-7.19.32-3.75,0-6.56-.32-8.12-1.88-7.5-6.25-9.38-13.12-9.38-15a1.65,1.65,0,0,1,1.88-1.87,4,4,0,0,1,1.87.31,57.48,57.48,0,0,0,10.94.94h4.06l68.75-3.75a47.09,47.09,0,0,0,12.81-2.81,6.76,6.76,0,0,1,2.5-.32c6.57,0,18.13,10,18.13,15,0,2.82-3.44,4.06-8.44,4.38Z"/><path class="cls-1" d="M332,233.24c-1,0-1.88.12-2.63.12-1.62,0-5.75,0-7.87-6.5a1.78,1.78,0,0,1-.13-.75c0-.37.13-.5.5-.5a1.53,1.53,0,0,1,.75.13,15.38,15.38,0,0,0,4.88.62h1.62l25.38-1.12V207l-38.25,2c-1.25,0-2.38.12-3.38.12-5.62,0-7.37-6.25-7.37-7.37,0-.38.12-.5.5-.5a2.9,2.9,0,0,1,.87.12,16.14,16.14,0,0,0,5,.63h1.63l41-2.25V183.86a9.64,9.64,0,0,0-1.75-5.5,2.58,2.58,0,0,1-.5-1.37c0-.63.62-1,1.62-1,1.88,0,9,1.37,9,4.87l-.12,18.5,35.62-2a24.24,24.24,0,0,0,5.88-1.25,6.53,6.53,0,0,1,1.5-.25c1.87,0,7.37,3.63,7.37,6.38,0,1.12-1.37,1.62-3,1.75l-47.5,2.5-.12,18.37,18.75-.87a16.18,16.18,0,0,0,5.62-1.25,3.34,3.34,0,0,1,1.5-.38c1.63,0,7,3.63,7,6.25,0,1.13-1.37,1.63-3,1.75Zm7,48,.37,4.75v.37a2.2,2.2,0,0,1-2.25,2.38c-1,0-7-1.5-7-5.5,0-.25.13-.5.13-.88a42,42,0,0,0,.37-5.5c0-1.37-.12-2.75-.25-4.25l-2-19.12a34.79,34.79,0,0,0-1.5-7.38,5.48,5.48,0,0,1-.37-1.75c0-.75.37-1.12,1.37-1.12,1.38,0,4.13.87,9.13,2.75l46.75-2h1.37c3,0,6.25,2.12,6.25,4.62a16.88,16.88,0,0,1-.62,2.63l-4,21.87c2.62,2.88,3.62,4.63,3.62,5.75,0,1.63-2.37,1.5-5,1.63Zm43.12-30.13-45.5,1.63,1.75,21.62,40.5-1Z"/><path class="cls-1" d="M582.27,229c-.13,4.37-.5,8.62-.88,12.37.5-.12,17.38-4.75,18.5-4.75s1.75.38,1.75.88c0,1.5-3.87,3.37-21.12,9.87-2.75,15.88-8.63,27.75-24.63,38.38a4.77,4.77,0,0,1-2.12.75c-.63,0-1-.25-1-.88a3.74,3.74,0,0,1,1.37-2.25c10.13-10,16.13-19.62,18.88-33.37-8.75,3.12-14,4.75-15.88,4.75-4.75,0-6.62-6.13-6.62-6.5s.12-.5.5-.5h.37c.38,0,.88.12,1.25.12,3.75,0,17.88-3.62,21.5-4.62.5-4.13.75-8.88.88-13.75l-7.13.5c-.5,0-1.12.12-1.5.12-4.62,0-7.25-4.12-7.25-6.37,0-.38.13-.5.5-.5s.5.12.88.12a20.3,20.3,0,0,0,3.87.38c.63,0,1.38-.13,1.88-.13l9-.62V211.86l-10,.75a30.52,30.52,0,0,1-3.25.13h-1.13c-2.75-.5-4.62-4.88-4.62-6.38,0-.37.25-.5.75-.5h.75c1.37.13,3.12.38,4.87.38h.75l14.63-1c.5-1,9.87-17.75,9.87-23.38v-.62c0-1.38.38-2.13,1.25-2.13.63,0,7.25,2.38,7.25,6a3.32,3.32,0,0,1-.37,1.5,147.74,147.74,0,0,1-11.38,18.13l3.38-.25a18.22,18.22,0,0,0,4.5-.88,1.91,1.91,0,0,1,.87-.12c1.38,0,5.88,3.12,5.88,5.12,0,.88-.75,1.38-1.88,1.63a1.64,1.64,0,0,1-.75.12l-13.87,1-.25,11,3.5-.25a15.83,15.83,0,0,0,4.62-.87,1.11,1.11,0,0,1,.63-.13c1,0,2.25.63,4.12,2q2.25,1.69,2.25,3c0,1.13-1.12,1.88-2.87,2Zm-10-25.25c-1,0-1.75-.75-2.63-2.38a99.18,99.18,0,0,0-8.5-12.87,3.79,3.79,0,0,1-1.12-2.25c0-1.25,2.37-3.5,3.87-3.5,2.5,0,13.25,14.75,13.25,17.12C577.14,201.24,574.52,203.74,572.27,203.74Zm25.62,57.37c-2,0-5-1.87-6.5-3-.75-.5-1-1-1-1.37s.38-.88,1.38-1.25c2.75-1.13,7.37-3.25,21.5-20.25,1.25-1.5,2.37-2.13,3-2.13s.87.38.87,1.13c0,2.5-7.5,14-14.62,23.37C600.64,260.11,599.52,261.11,597.89,261.11Zm20.63-66.37L606.89,196c-1.62.12-3,.25-4,.25-1.37,0-2.25-.13-2.75-.63a12.18,12.18,0,0,1-3.5-6,.66.66,0,0,1,.75-.75,1.32,1.32,0,0,1,.63.13,16.63,16.63,0,0,0,4.25.5,13.07,13.07,0,0,0,2.25-.13l15.12-1.62a10.44,10.44,0,0,1,1.88-.13,5,5,0,0,1,4.87,4c0,.88-.5,1.75-.5,2.88l-.12,82.62c0,1,.25,2,.25,3.13,0,2.75-3,6.12-5.88,6.12-4,0-18-12.62-18-14.75,0-.62.38-.87,1-.87a6.16,6.16,0,0,1,2.75.87,111.67,111.67,0,0,0,12.63,5.63Zm-7.13,35.5c-.87,0-1.62-.75-2.37-2.38A100.31,100.31,0,0,0,600.64,214a4.66,4.66,0,0,1-1.25-2.5c0-1.25,2.25-3.25,3.88-3.25,2.62,0,12.87,15.87,12.87,18.12C616.14,228.24,612.64,230.24,611.39,230.24Zm23,26c-2.25,0-7.5-2.63-7.5-3.75,0-.38.5-.75,1.38-1.25a15.67,15.67,0,0,0,5.37-3.63,127.15,127.15,0,0,0,12.25-15.25C647,230.74,648,230,648.77,230c.5,0,.75.37.75,1.25,0,3.12-9.25,19.12-10.13,20.5C637.39,255.11,636.14,256.24,634.39,256.24Zm16.75-63.88-12.62,1.25c-1.5.13-2.88.25-3.88.25-1.37,0-2.37-.12-2.87-.62-2-1.88-3.5-4.75-3.5-5.75,0-.5.25-.75.87-.75h.5a26.27,26.27,0,0,0,4.63.5,9.06,9.06,0,0,0,1.87-.13l16.25-1.5a11.29,11.29,0,0,1,1.88-.12,4.49,4.49,0,0,1,4.75,4c0,1-.5,1.75-.5,2.75l-.38,86.62c0,1.13.25,2,.25,3,0,2.5-2.75,6-5.62,6-4,0-19.25-12.62-19.25-15.25,0-.62.37-.87,1-.87a7,7,0,0,1,2.87,1,83.73,83.73,0,0,0,13.5,6Zm-7.62,35.88c-.88,0-1.5-.75-2.38-2.25A100.74,100.74,0,0,0,631,211.11a4.19,4.19,0,0,1-1.13-2.25,3.42,3.42,0,0,1,1.5-2.37,3.82,3.82,0,0,1,2.25-1.13c2.88,0,14.63,17.38,14.63,19C648.27,226.49,644.89,228.24,643.52,228.24Z"/><path class="cls-1" d="M690,237.36c-1.38.13-2.5.13-3.38.13a6.13,6.13,0,0,1-3.75-.88c-2-1.62-4-6.25-4-7.25,0-.5.25-.75.63-.75a4.14,4.14,0,0,1,1,.25,18.68,18.68,0,0,0,4.75.63c.75,0,1.5-.13,2.25-.13l88.62-4.5a17,17,0,0,0,5.25-1.12,1.53,1.53,0,0,1,.75-.13c2,0,7.38,3.88,7.38,6.63,0,1.37-1.25,2-2.88,2.12Z"/></g></g></svg>