<svg xmlns="http://www.w3.org/2000/svg" viewBox="0 0 644 285.44"><defs><style>.cls-1{stroke:#000;stroke-miterlimit:10;stroke-width:4px;}</style></defs><g id="レイヤー_2" data-name="レイヤー 2"><g id="レイヤー_1-2" data-name="レイヤー 1"><path class="cls-1" d="M54.81,105.12c-23.75,33.13-45.93,52.5-50.93,52.5C2.62,157.62,2,157,2,155.44c0-1.88,1.25-4.69,4.06-8.44C36.38,107.31,63.88,61.38,78.88,20.75a39.46,39.46,0,0,0,1.56-9.69,24.25,24.25,0,0,0-.63-4.68c0-.63-.31-.94-.31-1.26C79.5,2.94,81.06,2,83.25,2c6.25,0,20.31,7.81,20.31,13.12,0,5.63-15.31,37.5-30.62,63.44l-.63,195.32c0,4.37-2.19,6.24-5.62,6.24-5,0-15.63-5.31-15.63-13.12a13.7,13.7,0,0,1,.32-3.44,81.72,81.72,0,0,0,1.56-17.5ZM177,162.94c-3.12,15.31-23.12,83.44-76.56,113.12l-1.56.94c-4.07,1.88-6.88,2.81-8.76,2.81-1.56,0-2.5-.62-2.5-1.87,0-1.88,1.88-5,5.94-8.44,25.94-22.19,51.88-58.44,62.5-105.62l-21.25.93a82.44,82.44,0,0,1-8.43.31h-3.13c-4.06-.31-7.19-1.24-9.06-3.12-4.38-4.38-8.44-12.81-8.44-15.31,0-1.25.63-1.57,2.19-1.57a7.62,7.62,0,0,1,2.5.32,51.86,51.86,0,0,0,12.18,1.25h3.76l33.43-1.57c2.5-14.06,4.38-28.12,5.63-44.06l-55,3.44a82.73,82.73,0,0,1-8.44.31H98.88c-1.88,0-8.44-.93-10.63-5-.31-.31-6.56-7.19-6.56-12.5,0-.93.62-1.56,1.87-1.56a7.82,7.82,0,0,1,2.5.31,52,52,0,0,0,12.19,1.25H102l64.69-3.75,1.56-41.25L142,43.88a82.63,82.63,0,0,1-8.44.31h-3.12c-1.88,0-8.44-.94-10.63-5-.31-.31-6.56-6.57-6.56-12.19,0-1.56.94-2.19,2.5-2.19a4.65,4.65,0,0,1,1.87.31,52,52,0,0,0,12.19,1.26h3.75L247,19.5h3.44c7.18,0,15.31,5.94,15.31,12.19,0,2.81-1.56,4.69-1.87,6.87l-3.76,39.69,12.5-.94a43,43,0,0,0,12.19-2.81,7.46,7.46,0,0,1,2.5-.62c6.57,0,17.19,10.62,17.19,15.31,0,2.5-2.19,3.75-5.62,4.06l-40.63,2.5-4.06,44.06c5.62,7.19,7.81,11.57,7.81,14.38,0,3.75-4.06,4.69-10.62,5ZM236.69,97l-50,3.12c-1.57,15.94-3.13,30-5.63,44.07l52.19-2.5Zm4.37-59.06L189.5,41.06c-.62,15-.94,28.75-1.88,41.25l50.32-2.81Z"/><path class="cls-1" d="M357,237.31l-45.75,1.88c-4.5,19.5-15.13,30.5-27.5,40.5-1.87,1.5-3.37,2.12-4.25,2.12-.62,0-.88-.25-.88-.87s.63-1.88,2-3.38c20.63-22.75,25.38-39.75,25.38-76V189.81a32.88,32.88,0,0,0-1.25-10.62,4.91,4.91,0,0,1-.37-1.75c0-.63.37-1,1.12-1,1.38,0,4,1,8.75,3.37l44.63-2.62c.5,0,1-.13,1.37-.13,3.13,0,5.37,3.25,5.37,4.63,0,1.12-.74,1.87-.74,3.12l.62,86.63c0,1.62.12,3,.12,4.25,0,5.87-4.74,7.75-6.37,7.75-4.63,0-22.25-14.75-22.25-18.13,0-.5.25-.75.88-.75a9.27,9.27,0,0,1,4.12,1.63,78.67,78.67,0,0,0,15.25,7Zm-.12-26.37L314,212.56a180.67,180.67,0,0,1-1.5,19.75l44.5-1.87Zm-.13-26.38-42.25,2.63-.25,18.62,42.63-2.12Z"/><path class="cls-1" d="M543.12,214.44c-8.62,11.62-16.5,18.87-18.62,18.87-.5,0-.75-.25-.75-.87a6.56,6.56,0,0,1,1.63-3.38c18.62-24.87,29-49.25,29-53.75a9.49,9.49,0,0,0-.38-2.62,1.42,1.42,0,0,1-.12-.63c0-.75.62-1.12,1.5-1.12,2.62,0,8,2.87,8,5.62,0,4-12.5,26.13-13.13,27.25v74.25c0,1.75-.87,2.38-2.13,2.38s-6.12-1.25-6.12-4.88a6.33,6.33,0,0,1,.12-1.5,39.94,39.94,0,0,0,.63-7Zm68.76,17.62c4,0,6.5,2.88,6.5,4.5s-1.63,2.75-2,3.5a79.46,79.46,0,0,1-14.13,17.63,116.67,116.67,0,0,0,37,15.37c1.75.5,2.75.88,2.75,1.63,0,1.5-4.12,5.75-6.38,5.75-1.5,0-20.37-4.88-38.87-18-19.13,15.12-40.25,18.25-40.87,18.25-1.26,0-1.88-.38-1.88-.88s1-1.5,3-2.37c12-4.63,24.12-10.63,34.38-19.13a115.57,115.57,0,0,1-13.26-12.75c-9.37,9.38-19.24,15-21.12,15-.62,0-.88-.25-.88-.75s.63-1.62,2-2.75c9.76-8.25,18.38-18.25,23.88-27.87a11.78,11.78,0,0,0,1.12-4.63v-.37c.13-1,.38-1.75,1.26-1.75,1.74,0,7,4.25,7,6.62a2,2,0,0,1-.38,1.13,15.08,15.08,0,0,1-3,3.25l23.12-1.38Zm-54.38,3.5c-.62,0-1-.25-1-.62,0-.63.5-1.38,1.75-2.25,4.13-3,22.87-17.5,22.87-24.38,0-.87.38-1.25.88-1.25,2.38,0,6.75,5.25,6.75,7a1.6,1.6,0,0,1-.5,1.13C575.75,228.06,559.75,235.56,557.5,235.56Zm15.38-35.87c7.87-10.63,15.5-22.63,15.5-29,0-1.25.37-2,1.24-2s2.38.87,4.5,2.62c1.76,1.5,2.5,2.5,2.5,3.5,0,1.5-7.12,13.13-15.74,24.25,10.37-.87,21.74-2.12,32-3.62-2.88-2.5-5.63-4.75-7.76-6.38-1.12-.75-1.62-1.5-1.62-2.25,0-1.62,2.75-4,3.75-4,2.37,0,16.75,12.75,22.63,18.63,1,1,1.5,1.75,1.5,2.62,0,1.88-2.63,4.75-4.26,4.75-.74,0-1.5-.62-2.5-1.75-1.74-2-4-4.25-6.24-6.5-16,3-33.26,5.25-48.63,6.63-.63,0-1.5.25-2.37.25-4.5,0-6.38-6.13-6.5-6.5a1.53,1.53,0,0,1-.13-.75.79.79,0,0,1,.87-.88,1.57,1.57,0,0,1,.76.13,20.75,20.75,0,0,0,5,.5h1.74Zm10.24,40.5-.5.62a84.39,84.39,0,0,0,13.76,12.88,71.17,71.17,0,0,0,11.12-14.5Zm27.13-23.25c0,2.37.63,4,7.63,4,1.37,0,7.87-.38,11-1.75a4.29,4.29,0,0,1,1.37-.25c2.5,0,6,3.62,6,5.37,0,.88-.87,1.5-2.63,1.75a106.71,106.71,0,0,1-16.24,1.25c-1.38,0-2.76-.12-3.88-.12-7.38-.38-10.38-2.75-10.38-10.38v-.5l.13-5.87a8,8,0,0,0-.87-4.25,3.47,3.47,0,0,1-.63-1.5c0-.38.37-.63,1.13-.63,1.5,0,7.74,1,7.74,3.88l-.37,8.25Z"/></g></g></svg>