<svg xmlns="http://www.w3.org/2000/svg" viewBox="0 0 778.67 281.19"><defs><style>.cls-1{stroke:#000;stroke-miterlimit:10;stroke-width:4px;}</style></defs><g id="レイヤー_2" data-name="レイヤー 2"><g id="レイヤー_1-2" data-name="レイヤー 1"><g id="_1列目" data-name="1列目"><path class="cls-1" d="M90.75,96.38l-.31,26.24c2.81-2.18,5-3.12,7.18-3.12,6.57,0,39.38,33.44,39.38,39.06,0,4.38-6.88,10.94-11.25,10.94-2.19,0-4.37-1.56-6.56-4.69-7.5-10-19.07-22.5-29.07-31.87L88.56,271.06c0,5.32-1.56,8.13-5.31,8.13-4.69,0-16.56-4.69-16.56-13.44a11.88,11.88,0,0,1,.31-3.13,116.73,116.73,0,0,0,2.81-22.81s.63-53.75,1.25-88.43c0-6.88.94-23.44.94-23.44-15,45-60.62,89.37-68.44,89.37-1.25,0-1.56-.62-1.56-1.87,0-1.56,1.25-4.38,3.75-7.82,23.44-29.37,43.75-65,61.56-109.06l-29.69,2.5a81.33,81.33,0,0,1-8.12.63C19.19,101.69,12,90.75,12,83.88c0-.94.31-1.57,1.56-1.57.63,0,.94.31,1.56.31a57.56,57.56,0,0,0,12.5,1.88c1.26,0,2.5-.31,3.76-.31l40.31-3.44.62-58.44c0-5.93-1.25-10-3.75-13.43C67.31,7,66.69,5.75,66.69,4.5c0-1.56,1.56-2.5,4.06-2.5,0,0,20.94,1.88,20.94,12.5l-.94,64.38,18.13-1.57a39.53,39.53,0,0,0,11.24-2.5,7,7,0,0,1,2.5-.31c4.07,0,15.94,9.69,15.94,14.38,0,2.5-2.81,3.74-7.18,4.06Zm76.56,153.43.31,14.69c0,4.06-1.56,6.56-5,6.56-.31,0-16.56-2.5-16.56-12.18a11.48,11.48,0,0,1,.32-3.13c1.24-6.25,1.56-13.44,1.56-21.25l-3.13-170a59,59,0,0,0-3.12-18.12,12.22,12.22,0,0,1-.94-4.38c0-1.88.94-3.12,3.75-3.12,3.44,0,9.69,1.87,20.31,6.87l81.88-5.31c1.87,0,3.75-.32,5.31-.32,11.25,0,13.75,10.32,13.75,11.88,0,3.12-2.19,5.62-2.19,8.12l-4.37,167.82c5.93,5.94,8.43,10.31,8.43,13.12,0,3.75-3.74,5.32-8.43,5.63ZM243.25,57.94l-79.06,5,.62,41.25,77.5-4.38ZM242,117l-76.88,4.06.94,45,75-4.06Zm-1.25,62.5-74.37,3.44.62,48.75,72.81-2.5Z"/><path class="cls-1" d="M312.92,258.08l.38,5.87v.75c0,1.5-.38,2.5-1.88,2.5s-6.87-1.75-6.87-5.12c0-.38.12-.88.12-1.38a27.09,27.09,0,0,0,.13-3.25c0-1.12,0-2.37-.13-3.87l-3.62-64.25a14.42,14.42,0,0,0-1.88-7,5.38,5.38,0,0,1-1-2.25c0-.63.38-.88,1.25-.88,1.38,0,4.38.75,9.38,2.5l75.25-4h1.37c3.38,0,6.88,2.75,6.88,4.88,0,1.25-.88,2.12-1,3.25l-5.75,62.75c2.37,2.62,3.37,4.37,3.37,5.5,0,1.37-1.5,1.75-4,1.87Zm27.88-71-31.75,1.62,1.5,25.88,30.25-1.38Zm0,33.25-29.88,1.25,1.63,29.5,28.25-.88Zm39.25-1.75L348.55,220l-.25,30,29.62-1ZM382.42,185l-33.5,1.75-.25,26.13,31.88-1.38Z"/><path class="cls-1" d="M550.05,214c-1.25,0-2.38.13-3.25.13-1.25,0-4.5-.13-6.38-5.38a3.24,3.24,0,0,1-.37-1.37c0-.38.25-.63.75-.63a2.32,2.32,0,0,1,.87.13,16,16,0,0,0,5.13.62h1.75l42.37-1.87-.25-7.13-16.87.75.12,1.5v.38c0,1.62-.75,2.25-2.12,2.25-.5,0-6.5-.63-6.5-4.38v-.62a30.06,30.06,0,0,0,.25-3.13,32.28,32.28,0,0,0-.25-3.25l-1.75-19.37a14.49,14.49,0,0,0-2-5.88,2.37,2.37,0,0,1-.5-1.5c0-.5.37-.87,1.5-.87,1.37,0,4,.62,8.37,2.25l51.25-2.88h1.13c2.75,0,5.25,2.5,5.25,3.88,0,.75-.63,1.25-.75,1.87l-2.75,21.25c1.87,2.38,2.62,3.88,2.62,4.63,0,1.25-1.37,1.25-3.25,1.37L598.67,198l-.12,7.25,38.5-1.75a26.65,26.65,0,0,0,6.12-1,1.64,1.64,0,0,1,.75-.12c2.5,0,6.5,3.12,6.5,5.37a1.92,1.92,0,0,1-1.87,1.88Zm-4,55.5c-.88,0-1.38-.25-1.38-.75s1-1.62,2.88-2.62c8.25-4.5,21.25-12.5,23-17.88.5-1.37,1-2.25,1.75-2.25,1.5,0,6,4.75,6,7.13C578.3,256.58,551.8,269.45,546.05,269.45Zm53.62-28.12.38,21.25c0,1.87.25,3.5.25,5,0,3.87-3,6.62-5.63,6.62-4.37,0-20.37-11.62-20.37-13.87,0-.5.37-.75,1.12-.75a8,8,0,0,1,3.13.87,102.73,102.73,0,0,0,14,5.13l-.13-24-16.12.75v.75c0,1.75-.75,2.75-2.13,2.75-1.75,0-6.25-1.75-6.25-4.38v-.87c.13-1.5.25-2.5.25-3.63a8.64,8.64,0,0,0-.12-1.75l-1.13-8.12a22.63,22.63,0,0,0-1.5-6.5,4.34,4.34,0,0,1-.37-1.5c0-.75.5-1.13,1.75-1.13s3.75.5,7.5,1.88l45-2.25c.62,0,1.25-.13,1.75-.13,1.37,0,5.25,1.5,5.25,4.13,0,1-.75,2-.88,2.62l-2.37,10.63c2,2.37,2.87,3.75,2.87,4.5,0,1-1.37,1-3.62,1.12Zm20-71.5-48.37,2.75.75,7.5,46.87-2.63ZM618.3,183l-45.75,2.5.75,8,44.12-2.25Zm-1.25,41-42.5,2,1.12,10.63L615.42,235Zm19.62,43.63a146.32,146.32,0,0,0-23.12-14.5c-1.13-.63-1.75-1.25-1.75-2.25,0-.38,1.5-4.75,3.75-4.75a4.78,4.78,0,0,1,2.25.75c24.62,12.75,25.25,14.87,25.25,16.37,0,2.38-1.88,5.75-3.63,5.75A5.12,5.12,0,0,1,636.67,267.58Z"/><path class="cls-1" d="M690.92,192c0,28.13-1.12,56.13-24.37,77.5-.25.25-.5.38-.63.63-1.62,1.25-2.75,1.75-3.5,1.75a.92.92,0,0,1-1-1,7.19,7.19,0,0,1,1.75-3.63c16.5-21,19.13-43.37,19.13-69.87V192.7c-.13-3-.13-5.75-1.13-8.5a4.84,4.84,0,0,1-.37-1.62c0-.5.25-.75.87-.75,1.25,0,4,1,9.63,3.62l25.25-1.12V165a8.89,8.89,0,0,0-1.88-5.5,1.62,1.62,0,0,1-.37-.87c0-.5.62-.75,1.75-.75,1.87,0,8.62.75,8.62,4.62l-.12,7.75,24.87-1.62a16.11,16.11,0,0,0,4.25-.75,3.54,3.54,0,0,1,1.13-.25c1.87,0,6.12,3.5,6.12,5.12,0,1.13-1.37,1.75-3.12,1.88l-33.38,2.12L724.3,184l41.5-2c.62,0,1.12-.12,1.62-.12,2.63,0,6.38,3.25,6.38,5.25,0,1.37-1.5,2.12-2.13,2.87-5.87,7.88-13.75,15.25-16.37,15.25-.63,0-1-.37-1-1.12a6.22,6.22,0,0,1,1.62-3.38,53,53,0,0,0,7.13-12Zm27.63,43c-1.25,15.88-9.38,30.5-30.5,36.75a16.12,16.12,0,0,1-4.13.75c-1.12,0-1.62-.25-1.62-.75,0-.75,1.25-2,3.75-3.25,22.12-11.12,23.87-28.62,23.87-31.5a9.48,9.48,0,0,0-1.62-5.12,2.83,2.83,0,0,1-.38-1.25c0-.63.38-1,1.63-1s9,1.5,9,5.12Zm4.25-24.75v5.5c0,3.25,1.87,3.5,11,3.5,13,0,17.37-1.37,20.75-2.37a2.63,2.63,0,0,1,1-.13c.87,0,5.5,2.75,5.5,5.38,0,1.37-1.5,2.25-3.63,2.5a264.17,264.17,0,0,1-27.12,1.62c-1.88,0-3.63-.12-5.38-.12-6.37-.13-9.87-3.25-9.87-9.13v-6.12L702.17,212a11,11,0,0,1-2,.13c-4.37,0-5.75-3.63-6.12-5.38a2.32,2.32,0,0,1-.13-.87c0-.38.13-.63.63-.63.12,0,.25.13.5.13a23.18,23.18,0,0,0,4.12.5h.88l15.12-1.38v-4.62a7.16,7.16,0,0,0-1.87-5,2,2,0,0,1-.38-1c0-.63.5-1.13,2-1.13.5,0,7.88.25,7.88,4.38v6.75l18.12-1.63a12.35,12.35,0,0,0,4.25-1,2.8,2.8,0,0,1,1.25-.37c1.5,0,5.88,3.12,5.88,5.12,0,1.13-1.13,1.75-2.5,1.88Zm16.5,47.63c0,3.37.12,5.12,14,5.12a104.45,104.45,0,0,0,12-.87c2.5-.38,3.25-1.75,4.12-4.38a68.18,68.18,0,0,0,2.75-11.62c.5-3.88,1.5-5.75,2.5-5.75,1.5,0,2,5.25,2,10.12,0,14.38-1.37,17.63-8.87,18.63a108.75,108.75,0,0,1-14.88,1.12c-17,0-21.87-1.37-21.87-11.37V258l.75-20.75v-.5a9.12,9.12,0,0,0-1.75-5.25,2,2,0,0,1-.38-1.12c0-.5.38-.88,1.63-.88,2.5,0,8.87,1.5,8.87,4.75v.38l-.87,22.25Z"/></g></g></g></svg>