<svg xmlns="http://www.w3.org/2000/svg" viewBox="0 0 771.14 280.45"><defs><style>.cls-1{stroke:#000;stroke-miterlimit:10;stroke-width:4px;}</style></defs><g id="レイヤー_2" data-name="レイヤー 2"><g id="レイヤー_1-2" data-name="レイヤー 1"><path class="cls-1" d="M33.25,265.12c-4.06,0-7.5.32-10.31.32C4.81,265.44,2,247,2,246.69a1.66,1.66,0,0,1,1.88-1.88,6.13,6.13,0,0,1,2.18.31A69.24,69.24,0,0,0,22.94,247h3.75l126.25-3.75c16.56-33.44,28.75-69.37,28.75-78.13a30.58,30.58,0,0,0-.94-7.5,13.76,13.76,0,0,1-.63-3.12c0-1.56.94-2.81,3.44-2.81,7.5,0,23.44,7.19,23.44,13.12,0,2.81-13.75,39.69-37.19,78.13l80.94-2.5a60.66,60.66,0,0,0,15.63-2.5,15.25,15.25,0,0,1,3.74-.63c7.19,0,19.07,12.19,19.07,16.57,0,2.81-3.44,3.74-7.81,4.06ZM96.69,58.88c5.93,5.31,27.81,24.68,27.81,31.24,0,2.5-5.62,10.63-10.62,10.63-1.88,0-3.44-1.25-5.32-3.75-6.25-9.06-14.37-18.75-21.87-25.31-2.19-2.19-3.44-3.75-3.44-5.63S84.5,62,87.31,59.5l-17.5,1.25c-16.56,22.81-51.56,58.13-59.37,58.13a2.14,2.14,0,0,1-2.19-2.19c0-1.57,1.25-4.38,3.75-7.19C43.88,73.25,71.06,27.31,71.06,11.38c0-3.76.94-5.63,3.13-5.63,5.31,0,18.75,9.37,18.75,14.69a12,12,0,0,1-1.25,4.06c-3.44,6.56-6.88,12.81-10.63,18.75l45.32-3.13a38.16,38.16,0,0,0,12.18-2.5,9.23,9.23,0,0,1,2.82-.62C144.19,37,157,44.5,157,50.75c0,2.81-3.12,4.06-6.88,4.37ZM63.25,152c-4.37,0-7.81.31-10.94.31-13.75,0-17.19-16.25-17.19-16.56,0-1.56.63-2.19,1.88-2.19a6,6,0,0,1,2.19.32,47.87,47.87,0,0,0,13.75,1.56H57l77.19-4.06-.63-13.44c-.31-6.25-2.5-10.32-5.62-15.32a4.91,4.91,0,0,1-.94-2.5c0-1.56,1.56-2.5,4.38-2.5a37.91,37.91,0,0,1,12.18,2.5c10,3.13,10.63,5.32,10.63,9.38l-.31,20.62,65.62-3.43a66.34,66.34,0,0,0,14.06-2.81,9,9,0,0,1,2.82-.63c4.68,0,16.87,10,16.87,15,0,2.81-3.44,4.06-7.81,4.37Zm47.81,86.88c-3.75,0-5-2.5-6.25-6.88A395.63,395.63,0,0,0,82,172.62c-.94-2.18-1.56-3.74-1.56-5.31,0-4.06,8.44-8.12,12.5-8.12,3.12,0,4.68,1.87,6.87,5.93,14.07,27.5,26.25,58.44,26.25,63.44C126.06,234.5,115.75,238.88,111.06,238.88ZM210.75,54.81c18.75,14.38,33.13,29.07,33.13,33.44,0,3.13-6.26,11.56-10.94,11.56-1.88,0-3.44-.93-5-3.12-11.25-13.75-19.38-21.88-28.13-28.75-2.5-1.88-3.75-3.75-3.75-5.94,0-1.88.94-4.06,3.13-6.56l-21.57,1.25c-15.31,20.31-35,37.5-40.62,37.5a1.66,1.66,0,0,1-1.88-1.88c0-1.56.94-4.06,3.44-7.5C173.25,40.44,178.88,11.06,178.88,7V6.06c0-2.81.62-4.06,2.81-4.06,5,0,19.69,6.88,19.69,12.5,0,3.44-7.82,17.5-12.19,25l59.06-4.06a47.46,47.46,0,0,0,12.19-2.19,11.17,11.17,0,0,1,3.12-.63c6.25,0,15.32,10,15.32,13.76,0,2.81-3.13,4.06-6.88,4.37Z"/><path class="cls-1" d="M325.27,274.58c0,2.12-.5,3.12-1.88,3.12s-6.37-1.62-6.37-5.12a6,6,0,0,1,.25-1.5,34.11,34.11,0,0,0,.87-7.88s.25-23.37.5-36.75c0-3.12.25-7.75.25-7.75-5,15-21.12,34.75-24.12,34.75a.89.89,0,0,1-.88-1,5.8,5.8,0,0,1,1.25-2.87c8.88-13,15.63-26.5,22.25-45.5l-9.37.75c-1.5.12-2.75.25-3.75.25-5,0-6.38-6.88-6.38-6.88,0-.37.25-.62.88-.62a5.26,5.26,0,0,0,.62.12,14.48,14.48,0,0,0,4,.5c.75,0,1.38-.12,2.13-.12l13.5-1,.25-21.63a9.33,9.33,0,0,0-1.63-5.25,3.15,3.15,0,0,1-.62-1.37c0-.75.62-1.13,1.62-1.13a12.41,12.41,0,0,1,4,1c3.63,1.38,4,2.13,4,4l-.37,23.88,8.37-.75a19.29,19.29,0,0,0,4.63-1,2,2,0,0,1,.87-.13c1.88,0,6.13,3,6.13,5.25,0,1.13-1.25,1.75-2.75,1.88l-17.25,1.5L326,216.45l.37-.25a4,4,0,0,1,2.38-1c2.5,0,9.5,12.88,11.37,16.5a4.78,4.78,0,0,1,.75,2.25c0,2.13-4,4-5,4s-1.37-.62-2-2A141.8,141.8,0,0,0,326,221Zm24.37-11.5c6.25-11.13,18.88-37.88,18.88-44.88a9.06,9.06,0,0,0-.13-1.87,1.64,1.64,0,0,1-.12-.75c0-1,.62-1.38,1.62-1.38,2.88,0,7.75,3.88,7.75,5.63,0,.75-6.5,19.75-19.5,42.12,10-1.37,21.5-3.25,32-5.37a153,153,0,0,0-8-14,4.27,4.27,0,0,1-.87-2.13c0-2.12,3.5-3.62,4.62-3.62.88,0,1.63.62,2.75,2.25,3.75,5.62,16.38,27,16.38,30.5,0,2.37-4,3.87-5.88,3.87-1.25,0-2-.87-2.62-2.5-1.13-2.87-2.13-5.62-3.5-8.5-19.63,4.5-45.63,8.88-47.5,8.88a4.22,4.22,0,0,1-3.13-1.13c-1.87-1.5-3.75-6.25-3.75-6.75a.66.66,0,0,1,.75-.75,2.39,2.39,0,0,1,.88.13,21,21,0,0,0,4.87.62,14.14,14.14,0,0,0,2.25-.12Zm-8-34.75a10.2,10.2,0,0,1,1.25-3.88c11.88-21.87,16-40.5,16-43.25a21.75,21.75,0,0,0-.25-2.62c0-.25-.12-.5-.12-.75a1.38,1.38,0,0,1,1.5-1.5c2.12,0,7.75,3,7.75,6.25a3.31,3.31,0,0,1-.13,1.12c-8.5,26.63-22.87,45.63-25.37,45.63C341.77,229.33,341.64,229,341.64,228.33Zm68-5.25c.75,1,1.25,1.62,1.25,2.25,0,1-4.37,3.87-6.5,3.87a2.12,2.12,0,0,1-2-1.12,228.23,228.23,0,0,1-26-49.13c-.62-1.87-1-3.12-2.25-4.25-.62-.62-1-1-1-1.5,0-.75,1.13-1.12,2.88-1.12,6.25,0,6.75,1.37,7.87,4.87C387.52,187.2,393.39,203.58,409.64,223.08Z"/><path class="cls-1" d="M557.39,208.33c-1.25.12-2.37.12-3.25.12-2.5,0-5.37-.5-7.12-5.87a1.53,1.53,0,0,1-.13-.75c0-.38.25-.63.75-.63.13,0,.25.13.5.13a32.51,32.51,0,0,0,5.88.5h2l42.75-2.13V188.08l-22.38,1.12h-2c-2.25,0-3.87-.25-5.12-1.37a10.92,10.92,0,0,1-2.75-4.5,1.11,1.11,0,0,1-.13-.63c0-.37.25-.62.75-.62.13,0,.25.12.5.12a25.54,25.54,0,0,0,6.13.63h1.75l23.37-1.25V171.2a8.87,8.87,0,0,0-1.5-5.75,1.54,1.54,0,0,1-.5-1.12c0-.5.63-.88,1.63-.88s8.37.5,8.37,4.88l-.12,12.87,18.5-1a31.29,31.29,0,0,0,6.62-1.12c.25,0,.5-.13.75-.13,3.38,0,6.75,4.63,6.75,5.5s-1.12,1.5-2.75,1.63l-30,1.5-.12,11.62,37.62-1.87a19.67,19.67,0,0,0,7-1.25,4.34,4.34,0,0,1,1.25-.25c2.5,0,6.75,3.12,6.75,5.62,0,1-.75,1.75-2.12,1.88Zm49.38,41.75L607,276c0,1.5-.63,2.5-2.13,2.5-1.75,0-6.75-2.12-6.75-4.87V273a74.59,74.59,0,0,0,.88-12.37l-.13-10.13-24.37.88h-1.63c-3.62,0-6.75-.5-8.25-6.25a1.18,1.18,0,0,1-.12-.63c0-.37.25-.62.75-.62.12,0,.25.12.5.12a24.49,24.49,0,0,0,6,.63h1.87l25.13-1-.13-12.13-32.87,1.63a30.7,30.7,0,0,1-3.13.12c-6.12,0-7.75-6.12-7.75-7a.66.66,0,0,1,.75-.75c.25,0,.5.13.75.13a23.65,23.65,0,0,0,6.63.75h1.75l42.37-2c10.75-11.13,11.13-14.63,11.25-16.5.13-1.25.5-2,1.38-2,2,0,7.5,4.75,7.5,6.62,0,1.13-6.13,7-12.75,11.5l23-1.12a21.83,21.83,0,0,0,7.25-1.25,4.29,4.29,0,0,1,1.62-.38c2.5,0,6.5,3.88,6.5,6,0,1.13-.87,1.63-2,1.75l-44.37,2.13.12,12.25,22.75-.88a20.87,20.87,0,0,0,6.63-1.12,3.48,3.48,0,0,1,1.12-.25c2.5,0,6.25,3.62,6.25,6,0,1.12-1,1.62-2.62,1.75ZM591,224.58a4.31,4.31,0,0,1-2.88-1.75,82,82,0,0,0-9.87-9.88,2.39,2.39,0,0,1-.88-1.5,4,4,0,0,1,1.38-2.37,4.11,4.11,0,0,1,2.62-1.5c2.25,0,14.25,10,14.25,12.37C595.64,221.2,593,224.58,591,224.58Z"/><path class="cls-1" d="M726.89,236.83C714.77,267.08,679.77,276,676.52,276c-1.13,0-1.75-.37-1.75-.87,0-.75,1-1.75,3-2.63,16-7.25,32.62-18,40.5-35.25l-22.13,1.13c-1.25,0-2.5.12-3.5.12a5.83,5.83,0,0,1-3-.5,11.76,11.76,0,0,1-4.12-5.12,2.48,2.48,0,0,1-.25-1.25c0-.38.25-.63.75-.63.25,0,.5.13.87.13a49.14,49.14,0,0,0,5.63.5h1l27.37-1.38c.5-1.37,1.88-5.37,1.88-7.87a6.64,6.64,0,0,0-.5-2.63,2.79,2.79,0,0,1-.38-1.25c0-.62.38-.87,1.13-.87,1.62,0,8.12,1.5,8.12,5.12a8.31,8.31,0,0,1-.37,2.25,44.08,44.08,0,0,1-1.38,4.75L762.77,228h1.37c2.25,0,5,2.38,5,4.5,0,1-.62,1.88-.75,2.75a204.62,204.62,0,0,1-5,26.25c-1.37,5.25-1.87,9.5-5.62,12.63a6.16,6.16,0,0,1-4,1.62c-4.75,0-25.75-15.12-25.75-18,0-.62.5-1,1.37-1a7,7,0,0,1,2.75.75,181.89,181.89,0,0,0,19.63,8.5,1.53,1.53,0,0,0,.75.13c1.62,0,5-12.13,7.87-31Zm-23.5-20,.13,1.12v.38c0,1.75-.88,2.37-2.25,2.37-2.75,0-6-2.12-6-5.25v-.37c.12-1.75.12-3.38.12-5V208l-1.87-26.75a15.89,15.89,0,0,0-2-6.5,5.08,5.08,0,0,1-.63-2c0-.5.25-.87,1.25-.87,1.5,0,4,.75,8.63,2.37l58.62-3.5h1.75a5.71,5.71,0,0,1,5.63,4.5c0,1-.75,1.5-.88,2.13L762.39,207c2.38,2.75,3.25,4.38,3.25,5.25,0,1.38-1.62,1.5-3.87,1.63Zm22.13-37.38-24.88,1.38.88,11.5L725.39,191Zm-.25,17.5L702,198l.87,12.38L725,209.2Zm31.12-1.37-24.12,1L732,208.7l23.25-1.25Zm1.75-18-25.5,1.5-.25,11.37L757,189.08Z"/></g></g></svg>