<svg xmlns="http://www.w3.org/2000/svg" viewBox="0 0 763.9 255.73"><defs><style>.cls-1{stroke:#000;stroke-miterlimit:10;stroke-width:4px;}</style></defs><g id="レイヤー_2" data-name="レイヤー 2"><g id="キャラページ"><path class="cls-1" d="M117.88,163.16c-27.29,58.5-97,89.43-112.22,89.43-2.54,0-3.66-.84-3.66-2.25,0-1.68,2.25-4.5,7.59-7,35.72-18,71.72-47.81,89.72-83.81C113.94,130,116.75,96.78,116.75,65c0-15.19-.56-29.81-.84-43.88,0-5.9-.29-11-3.66-15.46-.56-.85-1.13-1.41-1.13-2,0-1.13,1.41-1.69,4.22-1.69,20.54,0,20.54,5.91,20.54,10.69,0,12.37.28,24.47.28,36.28,0,24.47-.85,48.09-4.78,70,27.84,57.38,65,96.47,114.74,115.88,3.1,1.12,5.35,2.53,5.35,4.21,0,2.53-10.69,13.22-17.16,13.22a8.24,8.24,0,0,1-2.53-.56c-47-21.66-83-61.59-106.87-109.41C122.94,149.38,121,156.41,117.88,163.16ZM78.22,136.44c-3.1,0-5.34-2-7.31-5.63a568.69,568.69,0,0,0-38-55.12c-1.41-2-2.25-3.38-2.25-4.78,0-5.35,8.43-9.57,10.4-9.57s3.66,1.41,5.91,3.94c26.44,30.1,45,56,45,60.19C92,130.25,81.88,136.44,78.22,136.44Zm124.87-83c5.07,0,18.29,9.84,18.29,14.34a4.54,4.54,0,0,1-.85,2.53c-21.09,34-61.87,64.69-67.78,64.69-1.41,0-2.25-.56-2.25-2,0-1.68,1.41-4.22,4.5-7.59,42.19-47,44.44-59.35,45-67.22C200,55.16,201.12,53.47,203.09,53.47Z"/><path class="cls-1" d="M296.28,203c-10,11.25-21.63,19.38-23.88,19.38-.62,0-.87-.25-.87-.75,0-.75.62-1.88,2.25-3.38a143.27,143.27,0,0,0,32-43l-18.38,2.13c-1.75.12-3.25.37-4.37.37a4.76,4.76,0,0,1-3-.87,12.17,12.17,0,0,1-4.13-6.13c0-.5.38-.75,1-.75h.63a25.1,25.1,0,0,0,4.5.38,17.69,17.69,0,0,0,2.62-.13l24.25-2.62a17.05,17.05,0,0,1,2.38-.13c3.25,0,5.12,2.63,5.12,4,0,.88-7.87,15.25-13.12,22.63v.62c15.62,10.88,17.62,13.88,17.62,15,0,1.75-2.62,5.13-4,5.13-.75,0-1.62-.63-2.5-1.75a114,114,0,0,0-11.12-10.88L303.15,249c0,2-.87,3.38-2.25,3.38-2.12,0-6.37-2.88-6.37-5.5,0-.25.12-.5.12-.88a77.44,77.44,0,0,0,.88-10.12Zm7.87-38.62c-.87,0-1.62-.75-2.37-1.75a125.87,125.87,0,0,0-13-14.75,2.8,2.8,0,0,1-1.13-2c0-1.63,2.25-3.5,3.5-3.5,2.13,0,18.13,14,18.13,17.37C309.28,161.23,305.65,164.36,304.15,164.36ZM346.4,248a120.29,120.29,0,0,0,.63-12.37l.12-20.13-14.37.63.25,3.37v.25A2.07,2.07,0,0,1,330.9,222a4.78,4.78,0,0,1-2.25-.75c-3-1.87-3.62-2.87-3.62-4.5v-.5c.12-1.62.12-2.87.12-4.5,0-1.12,0-2.37-.12-3.87l-2.5-33.38a24.56,24.56,0,0,0-1.63-7.5,5.09,5.09,0,0,1-.5-1.5c0-.75.5-1.12,1.5-1.12,1.38,0,4,.75,8.13,2.37l17.37-1,.13-16.25a12.36,12.36,0,0,0-1.88-6.87,2.8,2.8,0,0,1-.37-1.25c0-.63.37-.88,1.37-.88,1.63,0,8.25,1,8.25,5.5v19.25l20-1.12h.63c2.62,0,6.37,1.87,6.37,4.87,0,1.25-.75,2.25-.87,3.25l-3.88,35.38c2.13,2.37,2.88,3.87,2.88,4.87s-1,1.5-2.5,1.63l-22.75,1-.13,36.12c0,1.63-.75,2.5-2,2.5-.12,0-6.25-1-6.25-5Zm1-75.75L330,173.36l.87,13.87,16.38-.87Zm-.12,20.5-15.88.88,1,16,14.75-.75Zm25.87-22-18.25,1.13L354.78,186l17.25-.87Zm-1.62,20.75-16.75.88v16.12l15.5-.75Z"/><path class="cls-1" d="M584.15,186.61c11.38,23.12,29.75,44.12,52.25,55,1.5.75,2.25,1.25,2.25,2,0,1.25-5.5,6-7.5,6-1.75,0-32.62-16.25-52.87-58.38-11,45.13-53,59.13-54.75,59.13-1,0-1.5-.38-1.5-1s.87-1.88,2.75-3c33.37-19.88,42.12-44.88,45.37-59l-28,1.5c-1.37,0-2.75.12-3.87.12-4,0-5.5-2-7.38-6.87a1.64,1.64,0,0,1-.12-.75c0-.38.25-.75.87-.75.13,0,.25.12.5.12a28.2,28.2,0,0,0,5.63.5h1.62l32.25-1.87a171.59,171.59,0,0,0,2.13-28.25,11.46,11.46,0,0,0-1.88-6.25,3.06,3.06,0,0,1-.5-1.5c0-.63.38-.88,1.25-.88.5,0,10.38,1,10.38,6.38v.37a268.5,268.5,0,0,1-2.38,29.63L617,176.73a13.06,13.06,0,0,0,4.87-1.12,2.45,2.45,0,0,1,1.13-.25c1.87,0,7.25,4,7.25,6.5,0,1.5-1.63,2.25-3.38,2.37Z"/><path class="cls-1" d="M722,185.86a126.14,126.14,0,0,0,7.62,25.75c3.38-4.63,11-17.75,11-21.63,0-.37-.12-.75-.12-1.12v-.63c0-.75.12-1.25.87-1.25,1.13,0,7.38,3.75,7.38,6.5a2.55,2.55,0,0,1-.38,1.38c-4.75,9.37-9.62,17.12-15.25,23.62,4.88,9.25,11.25,17.63,18.5,23.5a1.48,1.48,0,0,0,1,.5c.38,0,.63-.25.88-.75a116.88,116.88,0,0,0,4.25-17c.75-3.75,1.75-5.62,2.5-5.62s1.5,2.12,1.62,6.37c0,23.63-3.5,26.63-7.5,26.63-8.37,0-20.62-16.25-27.12-27.88-11.63,11.38-26.38,19.5-29.13,19.5-.75,0-1.12-.25-1.12-.75,0-.75,1-2.12,3.25-3.75,9.37-6.75,17.12-13.37,23.87-21.12-4.87-9.88-7.25-18.88-10-31.88l-23.5,1.25.13,18.13c4.87-1.5,10-3.13,15.25-5a8,8,0,0,1,3-.63c1.25,0,1.87.5,1.87,1.13,0,1.75-2.25,3.37-20,10.87l.13,27c0,2.63.25,4.38.25,5.75,0,3.38-4,5.88-6,5.88-4.13,0-20.75-12.38-20.75-16.75,0-.63.5-1,1.25-1a7.41,7.41,0,0,1,3.37,1.25,84.65,84.65,0,0,0,14,6.75l-.12-26c-2.13.75-19.63,7-21.75,7-.13,0-3.5,0-6.88-6.75a1.69,1.69,0,0,1-.25-1c0-.5.38-.63,1.25-.63h1.5c2.38,0,8.63-.87,26.13-5.62L682.9,188l-21.12,1.13h-2.5a6.94,6.94,0,0,1-3.75-.63,10.62,10.62,0,0,1-3.25-5.87,4.08,4.08,0,0,0-.13-.75c0-.38.13-.5.5-.5a2.25,2.25,0,0,1,.75.12,23.52,23.52,0,0,0,5,.63h1l23.5-1.38-.12-14.62c-10.25,3.75-17.63,5.12-19.25,5.12-1.38,0-2.13-.37-2.13-1s1.25-1.75,3.63-2.62c10-3.63,31.5-14,32.87-18.38.25-.62.63-1.25,1.13-1.25,1.37,0,5.37,4.63,5.37,7.5,0,1.63-.12,2-13.87,7.88l.12,17L713,179.11c-1.63-9.63-2.75-19.38-3.5-29.75-.25-3.13-.63-5-2-6.88a2.82,2.82,0,0,1-.88-1.75c0-.5.5-.75,1.38-.75,1.87,0,8.75,1.25,9,3.88,1.12,13.75,2.25,24.75,3.87,34.87l24.63-1.37a27.92,27.92,0,0,0,5.12-.88,5.57,5.57,0,0,1,1.38-.25c2,0,6.25,3.75,6.25,5.88,0,1.25-1.38,1.75-3.25,1.87Zm17.62-14a123.88,123.88,0,0,0-13.75-13.5c-.75-.63-1.37-1.25-1.37-2,0-1.5,3-4,4.37-4,2.13,0,17.38,13.62,17.38,15.37s-3,5.25-4.75,5.25A3.06,3.06,0,0,1,739.65,171.86Z"/></g></g></svg>