<svg xmlns="http://www.w3.org/2000/svg" viewBox="0 0 779.24 273.36"><g id="レイヤー_2" data-name="レイヤー 2"><g id="レイヤー_1-2" data-name="レイヤー 1"><g id="_2列目" data-name="2列目"><path d="M45,117.5A399,399,0,0,0,4.06,85.94C1.25,84.06,0,82.5,0,80.31,0,77.5,3.75,69.06,9.06,69.06c5,0,53.75,30.94,53.75,38.75,0,1.57-5.62,13.44-10.93,13.44C49.69,121.25,47.81,120,45,117.5ZM21.56,246.25C10.94,245,1.88,238.12,1.88,235.62c0-.93.93-1.87,2.81-3.12a41.69,41.69,0,0,0,11.56-10.62,872.09,872.09,0,0,0,55.31-83.13C75,132.81,78.44,130,80.62,130c1.57,0,2.5,1.56,2.5,4.06,0,9.06-21.56,55.63-47.5,99.06-4.68,8.13-7.5,13.13-13.12,13.13ZM63.44,53.44C51.56,41.25,36.25,26.56,24.69,16.88c-2.81-2.19-4.07-4.07-4.07-5.94C20.62,6.56,27.81,0,30.31,0c2.19,0,6.25.94,47.81,38.44,2.5,2.18,3.44,3.75,3.44,5.62C81.56,47.19,75,57.5,70,57.5,67.81,57.5,65.94,55.94,63.44,53.44ZM221.25,42.81l-105,5c-4.06,0-8.13.63-11.56.63-15.63,0-18.44-19.06-18.44-19.06,0-.94.31-1.26,1.25-1.26a7.62,7.62,0,0,1,2.5.32,60.22,60.22,0,0,0,13.12,1.25h4.38l145.31-6.88A42,42,0,0,0,265,20.31a6.93,6.93,0,0,1,2.5-.31c3.12,0,17.5,8.12,17.5,15,0,3.12-3.75,4.69-7.81,5l-35.63,1.88.32,196.24c0,4.38.93,8.44.93,11.88,0,9.69-9.69,16.88-15.31,16.88-9.69,0-64.06-34.07-64.06-43.76,0-1.24.94-1.87,2.5-1.87,2.18,0,5.62.94,10,3.13a270.63,270.63,0,0,0,45.62,16.24ZM131.88,164.06l.31,5.94v1.25c0,4.37-1.57,6.25-4.38,6.25-4.69,0-15.31-4.06-15.31-10.31,0-.63.31-1.57.31-2.5a48.55,48.55,0,0,0,.63-9.69,71.57,71.57,0,0,0-.32-8.12l-3.74-41.26c-.63-5.62-1.88-10-4.38-13.74-1.56-1.88-2.5-3.76-2.5-4.69,0-1.25.94-1.88,2.81-1.88,3.44,0,9.38,1.57,20,5.63l51.57-3.13h2.5c7.81,0,13.12,5.94,13.12,10.31,0,2.19-1.56,3.76-1.88,5.32L185.31,145c6.25,6.88,8.75,10.94,8.75,13.12,0,3.44-4.37,3.44-9.06,3.76ZM170.62,105l-42.5,2.5,2.5,40,37.19-1.56Z"/><path d="M318.49,175.24c0,12.25-.75,29-2.38,40.62-5.62,41-21.75,53.25-24,53.25a.89.89,0,0,1-.87-1,7.52,7.52,0,0,1,1.5-3.5c15.87-24.12,17.37-63.37,17.37-88.62,0-2.63-.12-6-1.12-7.63a7.55,7.55,0,0,1-1.38-3c0-.5.38-.75,1.13-.75,1.37,0,4.25,1,9.75,3.38l66.12-4.25a16,16,0,0,0,5.13-1.13,2.41,2.41,0,0,1,1-.25c.87,0,2,.5,4,2.13s3,3.12,3,4.12-1.25,1.63-3.38,1.75Zm-4.38,89.37c-.62,0-1-.25-1-.75s.63-1.5,1.88-2.75c11.87-11.87,18.12-21.5,18.12-25.5,0-1.12.25-1.87,1-1.87s7.88,4,7.88,7C342,243.11,321,264.61,314.11,264.61Zm41.38-35.5-17.13.63v1c0,1.5-.37,2.37-1.5,2.37-.37,0-7.12-1.5-7.12-5.87v-.63a18.89,18.89,0,0,0,.25-3.87,24.18,24.18,0,0,0-.13-3.13l-2.25-21.5c-.25-2.37-.62-5.25-1.5-6.62a5.42,5.42,0,0,1-.87-2.13c0-.5.37-.75,1.25-.75,1.37,0,4.37.75,9.5,2.5l11.62-.62c.88-1.25,6.75-10,6.75-15,0-1.13.25-1.75,1-1.75,2.13,0,8,3.75,8,5.87a3,3,0,0,1-.5,1.5,52.24,52.24,0,0,1-7,8.88l26.75-1.63c.38,0,.88-.12,1.25-.12a6.56,6.56,0,0,1,6.13,4.87c0,1.25-.88,2.13-1,2.88l-3.25,25.5c2.5,2.37,3.5,4,3.5,4.87,0,1.38-1.75,1.63-4.38,1.75l-21.5.75-.12,32.5c0,2,.25,3.75.25,5.25a6.43,6.43,0,0,1-6,6.75c-4.63,0-22.5-15.62-22.5-18,0-.5.37-.75,1-.75a9.63,9.63,0,0,1,4.12,1.38,110.4,110.4,0,0,0,15.13,6.62Zm25.12-33.62-45,2.37.75,9,43.38-2.25Zm-1.5,15.87L337,213.49l.75,9.62,40.37-1.37Zm22,44.63c0,2.37-4.37,5.25-5.62,5.25a3,3,0,0,1-2.38-1.5,133.26,133.26,0,0,0-18.37-19,3.19,3.19,0,0,1-1.38-2.25c0-1.38,2.13-4.38,4.13-4.38.87,0,1.75.5,3,1.5C380.49,235.61,401.11,252.24,401.11,256Z"/><path d="M560.36,212.24a129.7,129.7,0,0,0-16.12-12.63c-1.13-.75-1.75-1.5-1.75-2.37s1.5-4.13,3.12-4.13c2,0,21.63,12.25,21.63,15.5,0,1.38-2.5,5.13-4.25,5.13A4.12,4.12,0,0,1,560.36,212.24Zm-9.75,52c-2.37-.25-7.5-2.38-7.5-4.13,0-.37.25-.75,1-1.25a15.37,15.37,0,0,0,4.63-4.37,317,317,0,0,0,19.62-32.63c1.38-2.62,2.63-3.75,3.38-3.75s1,.63,1,1.75c0,3.5-6.38,20.13-16.75,38.75-2,3.63-3.13,5.63-5.13,5.63Zm5.63-97c2.87,0,20.25,14.75,20.25,17.25,0,1.37-2.63,4.87-4.5,4.87-.75,0-1.5-.5-2.5-1.62a131.89,131.89,0,0,0-15.13-14.13c-1.12-.87-1.62-1.5-1.62-2.37C552.74,171.24,554,167.24,556.24,167.24Zm27.37,52.62c-1.5,0-2.87.13-4.12.13-2.25,0-5.25-.13-7.38-6.5a1.64,1.64,0,0,1-.12-.75.59.59,0,0,1,.62-.63,1.53,1.53,0,0,1,.75.13,26.24,26.24,0,0,0,5.88.75h1l29.12-1.5.13-18.5-17,.87c-3.13,5.5-11.13,17.38-14.5,17.38-.38,0-.63-.25-.63-.88a7.57,7.57,0,0,1,1.13-3c8.5-14.5,12.12-29.62,12.12-33.5,0-.62-.12-1.25-.12-1.75v-.37c0-.63.25-1,.87-1,.88,0,8.5,3,8.5,5.37a73.64,73.64,0,0,1-4,10.63l13.75-.75.13-19.75a7.56,7.56,0,0,0-2-5.5c-.5-.63-.75-1-.75-1.38s.5-.75,1.25-.75c.25,0,9.25,1.38,9.25,4.75l-.13,22.13,13.13-.75a17.62,17.62,0,0,0,4.87-1.13,4.14,4.14,0,0,1,1-.25c1.75,0,6.75,4.13,6.75,6.13,0,1.25-1.37,1.62-2.75,1.75l-23.12,1.25-.13,18.62,27.63-1.5a14.81,14.81,0,0,0,4.62-1,3.13,3.13,0,0,1,1-.25c2.5,0,6.88,4.63,6.88,6.25,0,1.13-1.25,1.5-2.88,1.63Zm13.63,45.75.37,4.63v.5c0,1.5-.62,2.12-1.62,2.12a8.64,8.64,0,0,1-3-.75c-2.75-1.12-3.75-2.37-3.75-4.25v-.62c.12-2,.37-3.75.37-5.38a9.8,9.8,0,0,0-.12-1.87l-2-22.25a15.65,15.65,0,0,0-1.88-6.25,5,5,0,0,1-.62-1.75c0-.63.37-1,1.37-1,1.38,0,4,.75,8.38,2.37l37.37-1.62h.75a6,6,0,0,1,5.88,4.62c0,1-.63,1.63-.75,2.38l-3.13,21.25c2.63,2.75,3.63,4.37,3.63,5.37,0,1.25-1.88,1.25-4,1.38Zm32.37-28.75-34.37,1.25,1.5,20.13,30.5-.75Z"/><path d="M679.74,219.86c-1.38.13-2.5.13-3.38.13a6.13,6.13,0,0,1-3.75-.88c-2-1.62-4-6.25-4-7.25,0-.5.25-.75.63-.75a4.14,4.14,0,0,1,1,.25A18.68,18.68,0,0,0,675,212c.75,0,1.5-.13,2.25-.13l88.62-4.5a17,17,0,0,0,5.25-1.12,1.53,1.53,0,0,1,.75-.13c2,0,7.38,3.88,7.38,6.63,0,1.37-1.25,2-2.88,2.12Z"/></g></g></g></svg>