<svg xmlns="http://www.w3.org/2000/svg" viewBox="0 0 784.39 281.74"><g id="レイヤー_2" data-name="レイヤー 2"><g id="レイヤー_1-2" data-name="レイヤー 1"><g id="_4列目" data-name="4列目"><path d="M77.19,224.38v2.81c0,3.75-1.57,5.93-5,5.93-1.57,0-14.38-2.81-14.38-11.56V220a47.73,47.73,0,0,0,.63-7.19c0-2.81-.32-5.93-.63-9.06l-5-57.19c-.31-4.68-2.5-13.12-4.69-16.87A9.21,9.21,0,0,1,46.25,125c0-1.25.63-1.88,2.81-1.88,3.44,0,10,1.88,21.25,5.94l57.19-3.12V105.31l-100.94,5c-2.18,0-4.68.31-6.56.31-3.12,0-15.62,0-19.69-15.93A13.94,13.94,0,0,0,0,93.12c0-.93.31-1.56,1.25-1.56a2.74,2.74,0,0,1,1.56.32,41.49,41.49,0,0,0,12.81,1.56h4.07L92.81,90l-.93-30.31-35,2.19c-1.88,0-4.07.31-6.26.31-3.43,0-14.37,0-19.37-13.75a6.15,6.15,0,0,1-.31-2.19,1.65,1.65,0,0,1,1.87-1.87,6.15,6.15,0,0,1,2.19.31,40.73,40.73,0,0,0,10.94,1.25c1.56,0,3.44-.32,4.68-.32l40.32-2.5c-1.25-23.74-1.56-28.43-4.69-31.87C85,9.69,84.38,8.44,84.38,7.5s.93-1.56,3.43-1.56a42.76,42.76,0,0,1,9.07,1.25c10.31,2.19,11.87,4.06,12.18,9.69l.94,25,57.19-3.13.93-16.56V19.38c0-5-.62-11.88-2.81-14.69a5.15,5.15,0,0,1-1.25-2.81C164.06.62,165,0,167.19,0c5.31,0,21.56,3.75,21.56,12.81,0,.94-.31,1.88-.31,3.13,0,0-.94,8.75-1.88,21.56l21.25-1.25a52.5,52.5,0,0,0,15-3.75,9.35,9.35,0,0,1,3.13-.62c6.56,0,17.81,10.93,17.81,15,0,2.81-2.81,4.06-6.25,4.37L185,54.38l-1.88,31.24,63.44-3.12c7.19-.31,11.56-.62,16.56-2.5a14,14,0,0,1,4.69-.94c6.88,0,16.88,12.5,16.88,15.63,0,2.81-3.44,3.12-7.81,3.43l-130,6.26V125l62.5-3.44h3.74c7.5,0,13.13,5.63,13.13,10.63,0,2.81-1.87,5.31-2.19,7.5l-7.5,62.5c5.63,6.87,7.82,10.62,7.82,12.81,0,3.12-3.76,3.12-9.07,3.44ZM18.44,279.69c-4.38,0-6.88-1.25-6.88-3.13,0-1.56,2.19-3.44,7.19-4.68,25.94-7.19,77.81-25.63,82.19-38.76,1.25-3.12,2.5-4.68,4.68-4.68,3.76,0,15,12.81,15,20.31,0,3.13-1.87,4.69-4.06,5.63-34.68,14.06-65.62,22.18-95.94,25.31ZM127.5,142.81l-56.25,2.81,1.56,21.57,54.69-2.5Zm0,38.44-53.44,2.19,1.88,24.68,51.56-2.5ZM165.94,55.31l-55,3.13.94,30.62,52.5-2.5Zm38.75,83.44-57.81,3.13-.32,21.87,55.94-2.81Zm-3.75,39.06-54.38,2.5V205l52.19-2.5Zm32.18,100.31a582.77,582.77,0,0,0-72.18-30.93c-3.75-1.25-5.63-3.13-5.63-6.25,0-2.82,1.88-11.56,8.44-11.56a15.57,15.57,0,0,1,4.69.93c77.5,25,82.5,31.25,82.5,36.88,0,4.06-4.38,13.43-10,13.43A17.32,17.32,0,0,1,233.12,278.12Z"/><path d="M299.27,274.11c-2.38-.25-8-2-8-3.75a1.79,1.79,0,0,1,1-1.25,14.43,14.43,0,0,0,4.5-4.62,231,231,0,0,0,16.25-33c1.12-2.75,2.25-4,3.12-4,.63,0,1.13.75,1.13,2.25,0,2.25-3.25,15.62-13,38-2,4.37-3.38,6.37-4.88,6.37Zm10-52a139.17,139.17,0,0,0-16-12.87c-1-.75-1.63-1.38-1.63-2.25,0-2,2.63-4,3.13-4,1.62,0,12.5,7.25,19.62,13,1.38,1,2,1.75,2,2.62,0,2-3.12,5-4.5,5A4.75,4.75,0,0,1,309.27,222.11Zm4.37-24.37c-.87,0-1.62-.63-2.62-1.88a112.93,112.93,0,0,0-12.63-13.75c-1-.87-1.5-1.5-1.5-2.37,0-.38,1.75-4,3.75-4,2.5,0,17.75,14.87,17.75,17.37S314.14,197.74,313.64,197.74Zm23.5,46.5c0-3.88.63-10,.63-10-4.25,13.87-20.25,31.75-24.5,31.75a.66.66,0,0,1-.75-.75,7,7,0,0,1,1.87-3.38c7.25-8.5,14-20,19.63-33.37l-4.25.12v1.75c0,1.13-.25,1.63-1.25,1.63-.13,0-5.38,0-5.38-3.5,0-.25.13-.63.13-1a14.14,14.14,0,0,0,.12-2.25,18.3,18.3,0,0,0-.12-2.5l-1-12.25a10.43,10.43,0,0,0-1.25-4.75,5.93,5.93,0,0,1-1.13-2.5c0-.5.5-.88,1.5-.88,1.25,0,3.63.63,7.38,1.88l8.5-.5v-9l-8.13.62c-1.5.13-2.75.25-3.75.25-2.37,0-4.87-1.25-6.37-5.62a1.53,1.53,0,0,1-.13-.75.66.66,0,0,1,.75-.75,3.08,3.08,0,0,1,.88.25,25.24,25.24,0,0,0,4.62.62h.75l11.38-.87V177.61a10.29,10.29,0,0,0-1-4.62,3,3,0,0,1-.5-1.63c0-.5.37-.87,1.25-.87a11.88,11.88,0,0,1,3.37.75c2.63.87,3.5,1.62,3.5,2.62V188l6.5-.5a21,21,0,0,0,5-.88,3.13,3.13,0,0,1,1-.25c2,0,6,3.25,6,5,0,1.13-1.37,1.63-2.62,1.75l-15.88,1.13v9.12l11.13-.62h.75c3.37,0,4.87,3.75,4.87,4.12,0,.88-.87,1.5-1,2.38l-1.87,12.5c2.12,2.25,3,3.62,3,4.5s-1.13,1.12-2.63,1.25l-14.25.62v5.25a2.6,2.6,0,0,1,1.75-.87c3.13,0,16.5,15.87,16.5,18.25,0,1.37-2.37,4.12-4.37,4.12-.88,0-1.5-.62-2.25-1.75A102.3,102.3,0,0,0,343.89,238v38.75c0,2-.37,3.25-1.87,3.25a5.76,5.76,0,0,1-2.25-.75c-2.5-1.38-3.38-2.25-3.38-3.88a3.67,3.67,0,0,1,.13-1.12,65.37,65.37,0,0,0,.62-9.38Zm.13-34.63-8.88.5.88,12.75,7.87-.37Zm15.75-.75-9.13.5v12.88l7.88-.38Zm19.37,46.75c0-1,.25-1.62,1-1.62,2.25,0,6.88,4.5,6.88,6.37a1.41,1.41,0,0,1-.38,1c-11.37,14.75-24.12,20.38-25.12,20.38-.63,0-.88-.25-.88-.75a4.09,4.09,0,0,1,1.63-2.38c9.37-8.25,16.87-18.87,16.87-22.37Zm-.62-5.12v2c0,1.62-.5,2.62-1.75,2.62s-5.63-1.75-5.63-4.37a4.5,4.5,0,0,1,.13-1.25,36.16,36.16,0,0,0,.25-5.5L364,208v-2.13a10.73,10.73,0,0,0-.5-4.25,5.47,5.47,0,0,1-.5-2.12c0-.63.25-1,1.12-1,1.13,0,3.38.62,7.13,2.25l2-.13a62.31,62.31,0,0,0,5.62-9.37,4.89,4.89,0,0,0,.63-2.5,4.55,4.55,0,0,0-.25-1.25.74.74,0,0,1-.13-.5l-10.75.75c-1.62.12-2.75.25-3.62.25-2,0-4.75-1.88-6-5.75a1.11,1.11,0,0,1-.13-.63c0-.37.25-.62.75-.62a1.42,1.42,0,0,1,.63.12,21.59,21.59,0,0,0,4,.38c.75,0,1.62-.13,2.62-.13l27.63-1.62a23,23,0,0,0,4.62-.75,6.14,6.14,0,0,1,1.38-.25c2.87,0,6.25,4.37,6.25,5.37,0,.75-.75,1.13-2.25,1.25l-21,1.38,1,.5c2.5,1.25,3.37,2.5,3.37,3.37a1.41,1.41,0,0,1-.37,1c-2.13,3-4.5,5.88-6.5,8.38l13.5-1.13a13.45,13.45,0,0,1,2-.12c1.87,0,4.75,2.12,4.75,3.87,0,1-.88,1.63-.88,2.5l-1.5,38c2.5,2.75,3.38,4.25,3.38,5,0,1-1.13,1-2.63,1.13Zm21-45.25-22,1.62.12,8.13,21.63-1.38Zm-.38,14.12L371,220.74l.25,8.12,20.87-1Zm-.5,14.25-20.5,1,.25,9.75,20-1Zm10.38,47.13c-.75,0-1.5-.75-2.38-2a169.45,169.45,0,0,0-15-18.5c-1-1-1.5-1.75-1.5-2.5,0-1.63,2.5-3.38,3.75-3.38,3,0,19.63,18.75,19.63,22C406.77,277.61,404.14,280.74,402.27,280.74Z"/><path d="M562.14,222.49A142.14,142.14,0,0,0,546,209.86c-1.13-.75-1.75-1.5-1.75-2.5,0-.37.87-4.25,3.25-4.25,1.5,0,21.25,12.38,21.25,15.38,0,1.37-2.5,5.37-4.13,5.37A4.22,4.22,0,0,1,562.14,222.49Zm-8.5,51.5c-2.37-.25-8-2.88-8-4.63,0-.37.25-.75,1-1.25,6.5-4.12,22.75-30.25,26.13-36.5,1.37-2.5,2.75-3.62,3.62-3.62.63,0,1,.5,1,1.5,0,3.87-13.62,30.75-18.37,39-2,3.5-3,5.5-5,5.5Zm15.25-77.63a173.16,173.16,0,0,0-15-14.12c-1.12-.88-1.62-1.63-1.62-2.38,0-1.37,2-4.25,3.75-4.25a4.63,4.63,0,0,1,2.62,1.13,178.22,178.22,0,0,1,15.88,13.5,3.62,3.62,0,0,1,1.5,2.62c0,.75-2.38,5.13-4.63,5.13C570.64,198,569.89,197.49,568.89,196.36Zm2,74c-.62,0-1-.25-1-.87s.75-1.75,2.25-3.13A115.31,115.31,0,0,0,589.52,248a10.19,10.19,0,0,0,1.5-4.63c0-.75.37-1.12,1-1.12,2.37,0,6.75,4.37,6.75,7.12a1.06,1.06,0,0,1-.25.88C585.39,263.74,573.14,270.36,570.89,270.36Zm16.38-75.5a13.17,13.17,0,0,1-2.13.13c-5.75,0-6.87-6.88-6.87-6.88,0-.5.25-.75.87-.75a3,3,0,0,1,1,.13,16.39,16.39,0,0,0,3.38.37c.62,0,1.25-.12,2-.12l24.5-1.38-.25-12.75a8.58,8.58,0,0,0-1.75-4.87,2.22,2.22,0,0,1-.38-.88c0-.5.38-.62,1.13-.62a24.26,24.26,0,0,1,4.87.75c2.88.62,4.5,1.25,4.5,3.62l-.25,14.25,26.63-1.75a16,16,0,0,0,4.5-1,1.64,1.64,0,0,1,.75-.12c2.25,0,5.87,4.5,5.87,6.12,0,1.25-1.25,1.88-2.5,2Zm23.37,40.38-12.75.5.13,1v.37c0,1.63-.88,2.75-2.38,2.75s-5.75-1.75-5.75-5V234a21.36,21.36,0,0,0,.13-2.88,23.13,23.13,0,0,0-.13-2.87l-1.37-15a16,16,0,0,0-1.75-6.88,3.72,3.72,0,0,1-.5-1.37c0-.5.5-.88,1.5-.88,1.37,0,3.87.63,7.87,1.88l41-2.13a5.85,5.85,0,0,1,1.38-.12c3.75,0,4.87,4,4.87,4.12,0,.88-.5,1.5-.62,2.5l-2.38,17.5c2.13,2.38,2.88,3.75,2.88,4.63,0,1.25-1.38,1.37-3.5,1.5l-20.88.87.5,35.38c0,1.62.25,3,.25,4.37,0,3.63-4,6.75-6.75,6.75-4.25,0-19.62-14.25-19.62-17,0-.62.37-.87,1-.87a7.41,7.41,0,0,1,3.37,1.25,65.73,65.73,0,0,0,14,6.62ZM634,210.86l-38,1.75,1.37,16.88,35.13-1.63Zm-.88,31.5c2.75,0,22.13,18.5,22.13,21.63,0,2.37-3.13,5-4.5,5a3.63,3.63,0,0,1-2.63-1.5,160.26,160.26,0,0,0-17.75-18.75,3.46,3.46,0,0,1-1.25-2.25c0-.75.5-1.5,1.38-2.63S632.27,242.36,633.14,242.36Z"/><path d="M730.27,213.61c12.12,24,31.5,45.25,51.87,55.63,1.5.75,2.25,1.37,2.25,2.12,0,2.25-6.5,5.38-7.87,5.38-1.88,0-34.13-19.75-53.38-61.5a121.2,121.2,0,0,1-7.5,19.5c-15.12,30-44.75,44-48.87,44-.88,0-1.25-.38-1.25-.88,0-.75.75-2,2.62-3.12,10.63-6.88,36.63-25.88,46.25-60.25l-29,1.5c-1.37,0-2.62.12-3.87.12-2.5,0-5.13-.25-7.13-6.75a1.64,1.64,0,0,1-.12-.75.66.66,0,0,1,.75-.75c.12,0,.25.13.5.13a28.48,28.48,0,0,0,5.5.5h1.62l33.75-2A162.63,162.63,0,0,0,720,178.61v-.5a12.29,12.29,0,0,0-1.63-5.75A3.24,3.24,0,0,1,718,171c0-.63.37-.88,1.25-.88a16.74,16.74,0,0,1,5.5,1.63c3.25,1.25,4.37,2.62,4.37,5.12v.5A177.53,177.53,0,0,1,725.39,206L764,203.74a16.54,16.54,0,0,0,4.75-1,1.53,1.53,0,0,1,.75-.13c3,0,7.75,5.13,7.75,6.63s-1.75,1.87-3.63,2Zm-.25,56a3.2,3.2,0,0,1-2.5-1.62c-4.63-6-10-12.5-14.38-16.38-1.12-1-1.62-1.75-1.62-2.5,0-1.75,2.75-3.87,4-3.87a3.72,3.72,0,0,1,2.37,1.12c1.5,1.38,17.13,15.38,17.13,18.38C735,266.49,731.77,269.61,730,269.61Z"/></g></g></g></svg>