<svg xmlns="http://www.w3.org/2000/svg" viewBox="0 0 787.92 293.05"><defs><style>.cls-1{stroke:#000;stroke-miterlimit:10;stroke-width:4px;}</style></defs><g id="レイヤー_2" data-name="レイヤー 2"><g id="レイヤー_1-2" data-name="レイヤー 1"><path class="cls-1" d="M131.06,124.81C77.31,206.38,12.62,245.75,4.81,245.75c-1.87,0-2.81-.94-2.81-2.19,0-1.56,1.56-4.06,5-6.87C51.06,199.5,88.56,159.5,122.94,103.88l-68.75,3.74c-3.75.32-6.88.32-9.38.32-5.31,0-13.75,0-19.37-14.69a9.38,9.38,0,0,1-.63-2.5c0-1.56.94-2.19,2.5-2.19a4.58,4.58,0,0,1,1.88.32A54.39,54.39,0,0,0,42,90.12h4.69l84.37-4.68V21.38A23.6,23.6,0,0,0,127,7.94c-.94-1.56-1.56-2.5-1.56-3.44,0-1.88,1.56-2.5,4.37-2.5,2.5,0,6.57.94,11.25,2.5,9.06,3.12,10,5,10,9.06V84.19l77.19-4.38A55.24,55.24,0,0,0,242,77.31a9.24,9.24,0,0,1,2.81-.62c6.25,0,18.44,11.56,18.44,15.31,0,2.81-3.44,4.06-7.81,4.38L155.75,102c36.87,47.5,83.13,89.06,133.13,116.88,2.5,1.56,3.74,2.81,3.74,4.06,0,4.68-14.06,11.87-16.56,11.87-2.18,0-4.06-.93-6.87-2.81-45.31-30.94-85.31-66.56-118.13-112.19v162.5c0,5.94-2.5,8.44-5.94,8.44a15.24,15.24,0,0,1-6.56-1.87c-5.94-2.82-10-5.94-10-10.94,0-.63.32-1.56.32-2.19a100.2,100.2,0,0,0,2.18-19.37Z"/><path class="cls-1" d="M326.42,232.42c-1,0-1.87.13-2.62.13-1.63,0-5.75,0-7.88-6.5a1.94,1.94,0,0,1-.12-.75c0-.38.12-.5.5-.5a1.64,1.64,0,0,1,.75.12,15.31,15.31,0,0,0,4.87.63h1.63l25.37-1.13V206.17l-38.25,2c-1.25,0-2.37.13-3.37.13-5.63,0-7.38-6.25-7.38-7.38,0-.37.13-.5.5-.5a2.74,2.74,0,0,1,.88.13,16.14,16.14,0,0,0,5,.62h1.62l41-2.25V183.05a9.54,9.54,0,0,0-1.75-5.5,2.69,2.69,0,0,1-.5-1.38c0-.62.63-1,1.63-1,1.87,0,9,1.38,9,4.88l-.13,18.5,35.63-2a25.14,25.14,0,0,0,5.87-1.25,6,6,0,0,1,1.5-.25c1.88,0,7.38,3.62,7.38,6.37,0,1.13-1.38,1.63-3,1.75l-47.5,2.5-.13,18.38,18.75-.88a16.06,16.06,0,0,0,5.63-1.25,3.32,3.32,0,0,1,1.5-.37c1.62,0,7,3.62,7,6.25,0,1.12-1.38,1.62-3,1.75Zm7,48,.38,4.75v.38a2.19,2.19,0,0,1-2.25,2.37c-1,0-7-1.5-7-5.5,0-.25.12-.5.12-.87a42.16,42.16,0,0,0,.38-5.5c0-1.38-.13-2.75-.25-4.25l-2-19.13a35.47,35.47,0,0,0-1.5-7.37,5.54,5.54,0,0,1-.38-1.75c0-.75.38-1.13,1.38-1.13,1.37,0,4.12.88,9.12,2.75l46.75-2h1.38c3,0,6.25,2.13,6.25,4.63a15.46,15.46,0,0,1-.63,2.62l-4,21.88c2.63,2.87,3.63,4.62,3.63,5.75,0,1.62-2.38,1.5-5,1.62Zm43.13-30.12-45.5,1.62,1.75,21.63,40.5-1Z"/><path class="cls-1" d="M570.3,237.92l-9.38.63c-.75,0-1.5.12-2,.12-2.37,0-4.75-1-6.12-5.37a1.53,1.53,0,0,1-.13-.75.79.79,0,0,1,.88-.88,1.53,1.53,0,0,1,.75.13,26.15,26.15,0,0,0,4.62.5h1l10.38-.75.12-11-2.5.12a11,11,0,0,1-2,.13,4.68,4.68,0,0,1-4.87-3c-7.5,9.25-14.75,16.37-16.75,16.37a.66.66,0,0,1-.75-.75,5.68,5.68,0,0,1,1.5-2.87c10.12-13.13,27.25-40.38,27.25-49.75v-1c0-.88.25-1.5,1.12-1.5,1.75,0,7.63,3.12,7.63,5.62a6.9,6.9,0,0,1-.63,2.13c-.75,1.62-1.5,3.25-2.37,4.87,14.5,9.88,18.37,13.5,18.37,15.38,0,2.5-3.25,4.87-4.12,4.87a4.31,4.31,0,0,1-2.75-1.62,175.9,175.9,0,0,0-14.5-13.13,144.66,144.66,0,0,1-11.63,18.13c.63,0,1.25.12,1.88.12s1.12-.12,1.5-.12l13.5-1a16.92,16.92,0,0,0,3.87-.75,6.14,6.14,0,0,1,1.38-.25c2.62,0,5.62,4,5.62,5s-1.25,1.5-3,1.62l-10.75.75-.12,11.13,5.5-.38a18,18,0,0,0,4.12-.75,9.14,9.14,0,0,1,1.63-.25c2.75,0,5.62,3.63,5.62,4.88s-1.25,1.75-3.12,1.87l-13.75,1-.25,32c5.5-1.5,11.12-3.25,16.62-5a10.84,10.84,0,0,1,3.5-.62c1.13,0,1.63.37,1.63.87,0,3.88-39.88,17.5-44.5,17.5-3,0-5.25-2.87-6.13-5.37a3.28,3.28,0,0,1-.37-1.25c0-.5.37-.88,1.25-.88h1.62c1.63,0,6.25-.12,19.25-3.5Zm-7.75,27.25c-1.25,0-1.63-1-2-2.62a119.29,119.29,0,0,0-4.75-14.63,6,6,0,0,1-.63-2.25c0-2.25,3.5-2.62,3.88-2.62,1,0,1.37.75,2,1.87a113.46,113.46,0,0,1,6.25,17C567.3,264.05,563.55,265.17,562.55,265.17Zm17.12-2a10.2,10.2,0,0,1,.75-3c2.13-5.75,4.75-13.5,4.75-18.25,0-1.25.38-2,1.13-2,1.25,0,6.25,2.75,6.25,5s-9.13,19.13-12.38,19.13C579.8,264.05,579.67,263.8,579.67,263.17Zm51.63-23.25c8.5,19.5,18.25,31.25,31.62,40.63,1.25.87,1.75,1.37,1.75,2,0,1.37-5.37,4.5-6.87,4.5a2.94,2.94,0,0,1-1.88-.88c-12.75-11.12-21.87-22.87-29.75-40.87-4.75,16.37-14.62,30.5-34.25,40.87a7.09,7.09,0,0,1-3.25,1c-.75,0-1.25-.37-1.25-.87,0-.75.88-2,2.75-3.38,11.75-8.87,24.13-21.12,29.5-42.5l-13.5.75c-1,0-1.87.13-2.62.13-2,0-3.5-.25-4.5-1.25a9.43,9.43,0,0,1-2.88-5.88c0-.5.13-.75.5-.75a4,4,0,0,1,1,.25,18.34,18.34,0,0,0,5.25.63h1.38l16.87-.88a148.31,148.31,0,0,0,2.25-19.75l-12.87.63c-3.75,8.62-9.13,17.75-11.88,17.75-.62,0-.87-.5-.87-1.5a8.36,8.36,0,0,1,1-3.63c6.75-13.87,9.25-29.5,9.25-33.5a11.32,11.32,0,0,0-.38-2.87,3.24,3.24,0,0,1-.12-1c0-.63.37-1,1.12-1,2.75,0,8,2.37,8,5a2.5,2.5,0,0,1-.12.87,122.3,122.3,0,0,1-3.38,12.88l10.5-.63V200.3c0-5.13,0-10.13-.12-14.75a10.73,10.73,0,0,0-1.63-6.5,2.8,2.8,0,0,1-.37-1.25c0-.5.5-.88,1.62-.88a19.71,19.71,0,0,1,4.38.75c2.87.63,3.75,1.88,3.75,4.25,0,7.75,0,16.13-.25,24.38l7.87-.38a17.64,17.64,0,0,0,4.38-.75,2.18,2.18,0,0,1,.87-.12c1.5,0,6.75,2.62,6.75,5.37,0,1-1,1.75-3,1.88l-17.12.87a165.34,165.34,0,0,1-1.88,19.75l17.5-.87a41,41,0,0,0,5.13-.75c.25,0,.37-.13.62-.13,1.13,0,6.38,2.88,6.38,5.5,0,1.13-1.13,1.88-2.75,2Z"/><path class="cls-1" d="M731.42,242.92l-.12,45c0,2.25-1,3.13-2.5,3.13-.63,0-6.63-.75-6.63-5.25a4.5,4.5,0,0,1,.13-1.25,46,46,0,0,0,.75-8.25l.12-33.13-42.5,1.88c-1.62,0-2.87.12-4,.12-1.37,0-2.37-.12-2.87-.62-2-2.13-3.63-4.88-3.63-6.38a.89.89,0,0,1,1-.87,1.64,1.64,0,0,1,.75.12,15.06,15.06,0,0,0,4.75.63h1.38l45.25-1.88.25-45.87-27.25,1.5c-1.38.12-2.63.12-3.75.12a8.66,8.66,0,0,1-1.88-.12c-2.87-.75-4.62-6-4.62-6.75,0-.5.25-.75.87-.75a1.64,1.64,0,0,1,.75.12,18.57,18.57,0,0,0,4.63.5h1.5l62.62-3.62a22.68,22.68,0,0,0,5.5-1,3.36,3.36,0,0,1,1.13-.13c3.12,0,6.87,4,6.87,5.75,0,1.25-1.5,1.75-3.12,1.88l-35.13,2-.12,46,40.75-1.75a22.77,22.77,0,0,0,5.5-1,3.31,3.31,0,0,1,1.12-.13c3.88,0,7,4.5,7,5.75s-1.5,1.88-3.12,2ZM709.8,229.55c-1,0-1.75-.75-2.5-2.13a144.78,144.78,0,0,0-13.88-21.25c-.87-1.12-1.5-1.87-1.5-2.62,0-1.75,3.13-3.63,4.5-3.63,3.38,0,19.13,23.25,19.13,25.13S710.8,229.55,709.8,229.55Zm44.75-32.88c0-1.25.62-1.87,1.62-1.87,2.13,0,7.88,3.37,7.88,5.62s-15.5,26.13-23.75,30.25a3.78,3.78,0,0,1-1.75.75.59.59,0,0,1-.63-.62c0-.63.63-1.75,1.75-3.38,7.25-10.37,14.88-24.62,14.88-29.62Z"/></g></g></svg>