<svg xmlns="http://www.w3.org/2000/svg" viewBox="0 0 788.3 288.75"><g id="レイヤー_2" data-name="レイヤー 2"><g id="レイヤー_1-2" data-name="レイヤー 1"><g id="_4列目" data-name="4列目"><path d="M129.06,122.81C75.31,204.38,10.62,243.75,2.81,243.75c-1.87,0-2.81-.94-2.81-2.19,0-1.56,1.56-4.06,5-6.87C49.06,197.5,86.56,157.5,120.94,101.88l-68.75,3.74c-3.75.32-6.88.32-9.38.32-5.31,0-13.75,0-19.37-14.69a9.38,9.38,0,0,1-.63-2.5c0-1.56.94-2.19,2.5-2.19a4.58,4.58,0,0,1,1.88.32A54.39,54.39,0,0,0,40,88.12h4.69l84.37-4.68V19.38A23.6,23.6,0,0,0,125,5.94c-.94-1.56-1.56-2.5-1.56-3.44C123.44.62,125,0,127.81,0c2.5,0,6.57.94,11.25,2.5,9.06,3.12,10,5,10,9.06V82.19l77.19-4.38A55.24,55.24,0,0,0,240,75.31a9.24,9.24,0,0,1,2.81-.62c6.25,0,18.44,11.56,18.44,15.31,0,2.81-3.44,4.06-7.81,4.38L153.75,100c36.87,47.5,83.13,89.06,133.13,116.88,2.5,1.56,3.74,2.81,3.74,4.06,0,4.68-14.06,11.87-16.56,11.87-2.18,0-4.06-.93-6.87-2.81-45.31-30.94-85.31-66.56-118.13-112.19v162.5c0,5.94-2.5,8.44-5.94,8.44a15.24,15.24,0,0,1-6.56-1.87c-5.94-2.82-10-5.94-10-10.94,0-.63.32-1.56.32-2.19a100.2,100.2,0,0,0,2.18-19.37Z"/><path d="M329.17,214.42l-.12,8.88a2.8,2.8,0,0,1,2.12-1c3.25,0,14.5,14.87,15.63,16.5a3,3,0,0,1,.75,1.87c0,2.5-4,4.25-4.63,4.25-1,0-1.75-.75-2.62-2.12a126,126,0,0,0-11.38-15.13l-.62,55.5c0,2.13-.63,3.13-2.13,3.13s-6.62-1.25-6.62-5.13a5.81,5.81,0,0,1,.12-1.37,46.41,46.41,0,0,0,1.13-9.13s.25-23.25.37-34.62c0-2.75.5-7.38.5-7.38-4.25,13.5-22.25,34.88-26.62,34.88-.5,0-.63-.25-.63-.75a6.67,6.67,0,0,1,1.5-3.13c9.5-12,17.13-26.62,24.25-44.62l-11.5.75c-1.25.12-2.25.25-3.25.25-4.12,0-7-4.38-7-7.13,0-.37.13-.62.63-.62.25,0,.37.12.62.12a25,25,0,0,0,5.38.63h1.12l15.38-1,.25-23.75a8.6,8.6,0,0,0-1.5-5.38,2.92,2.92,0,0,1-.63-1.5c0-.62.5-1.12,1.63-1.12.37,0,8.25.62,8.25,4.87l-.38,26.38,6.63-.5a16.1,16.1,0,0,0,4.5-1,2.63,2.63,0,0,1,1-.13c1.62,0,6.37,3.88,6.37,5.75,0,1-1.12,1.5-2.87,1.63Zm55.38-1-24.88,1.63a22,22,0,0,1-2.75.12c-2.25,0-4-.25-4.62-1-1.38-1.62-3.25-4.75-3.25-6.37,0-.5.12-.63.5-.63a1.31,1.31,0,0,1,.62.13,17,17,0,0,0,5.5.87h1.13l27.75-1.75-.13-21.12a10.64,10.64,0,0,0-2.12-6.5,4.13,4.13,0,0,1-1-2c0-.63.5-.88,1.37-.88a20.26,20.26,0,0,1,6,1.5c3.38,1.13,4,2.13,4,4.5l.13,24,6.62-.37a20.71,20.71,0,0,0,5.5-1,3.28,3.28,0,0,1,1.38-.38c2.75,0,6.75,4.88,6.75,6.25,0,1.13-1.25,1.38-2.88,1.5l-17.37,1.13.37,62c0,1.5.25,2.87.25,4.12,0,3.63-3.25,6.63-5.75,6.63-4,0-23.12-12.75-23.12-16.88,0-.5.37-.87,1.12-.87a8.16,8.16,0,0,1,3.63,1.25,80.94,80.94,0,0,0,15.62,6.62Zm-12.5,34.25c-.88,0-1.63-.62-2.38-2a109.88,109.88,0,0,0-12.12-17.62,2.57,2.57,0,0,1-.63-1.5c0-2.5,3.88-3.88,4.38-3.88,3,0,16.25,18.88,16.25,20.38C377.55,244.8,373.42,247.67,372.05,247.67Z"/><path d="M564.8,218.17c-3,4.25-16.75,21.5-20.63,21.5-.5,0-.75-.25-.75-.87a6.56,6.56,0,0,1,1.63-3.38c12.25-15.87,24.37-37.75,30.37-54a15.61,15.61,0,0,0,.63-3.87,10.1,10.1,0,0,0-.25-1.88c0-.25-.13-.37-.13-.5,0-.87.63-1.25,1.5-1.25,1.38,0,8.13,2.75,8.13,5.38,0,1.62-7.38,18.12-13,27.62V283.8c0,1.75-.88,2.5-2.13,2.5-.25,0-6.62-1.13-6.62-5.5a3.63,3.63,0,0,1,.12-1.13,32.4,32.4,0,0,0,.63-7Zm26.62-11.37c-1.37.12-2.75.25-4,.25-2.5,0-5.37-.5-7.5-6.75a1.64,1.64,0,0,1-.12-.75.59.59,0,0,1,.62-.63,1.53,1.53,0,0,1,.75.13,26.24,26.24,0,0,0,5.88.75h1l57.75-3.5a15.1,15.1,0,0,0,4.62-1,2.88,2.88,0,0,1,1-.25c2.5,0,6.88,4.62,6.88,6.25,0,1.12-1.25,1.62-2.88,1.75Zm11,16c-1.5,0-2.87.12-4.12.12-2.25,0-5.13-.12-7.38-6.37a1.64,1.64,0,0,1-.12-.75.59.59,0,0,1,.62-.63,1.53,1.53,0,0,1,.75.13,26.24,26.24,0,0,0,5.88.75h1l35-1.88a16.62,16.62,0,0,0,4.62-1,2.89,2.89,0,0,1,1-.12c2.25,0,6.63,4,6.63,5.87,0,1.13-1.13,1.63-2.63,1.75Zm0,15.75c-1.5,0-2.87.12-4.12.12-2.25,0-5.13-.12-7.38-6.37a1.64,1.64,0,0,1-.12-.75.59.59,0,0,1,.62-.63,1.53,1.53,0,0,1,.75.13,26.24,26.24,0,0,0,5.88.75h1l35-1.88a16.62,16.62,0,0,0,4.62-1,2.89,2.89,0,0,1,1-.12c1.88,0,6.75,3.75,6.75,5.87,0,1.13-1.37,1.63-2.75,1.75Zm1.75,41.5.25,2.5v.37c0,1.88-1,2.63-2.5,2.63-1.87,0-6.5-1.63-6.5-4.88v-.62c.13-2,.38-3.75.38-5.38a9.06,9.06,0,0,0-.13-1.87l-1.75-17.5a15.79,15.79,0,0,0-1.87-6.25,5.28,5.28,0,0,1-.5-1.5c0-.75.5-1.13,1.62-1.13,1.5,0,4.13.63,8.38,2.25l37.5-1.5c5.75,0,6.75,4,6.75,4.5,0,1-.63,1.75-.75,2.5l-3.25,17.88c2.62,2.75,3.62,4.5,3.62,5.5,0,1.37-1.87,1.37-4,1.5Zm32-25.63-34.12,1.25,1.5,17,30.25-.62Zm-9.5-62a197.11,197.11,0,0,0-21.12-8.62c-1.63-.63-2.38-1.25-2.38-2.5a6.23,6.23,0,0,1,.38-1.88c.62-1.87,1.25-2.5,2.5-2.5a6.17,6.17,0,0,1,1.87.38,206.67,206.67,0,0,1,21.63,7.62c1.87.88,2.75,1.63,2.75,3,0,1.75-1.38,5.25-3.25,5.25A5.62,5.62,0,0,1,626.67,192.42Z"/><path d="M723.17,173.17a1.33,1.33,0,0,1,1.5-1.5c1.88,0,8.38,2.88,8.38,5.5,0,.25,0,1.13-2.25,4.75,15.12,19.38,33.87,33.88,55.12,42.63,1.5.62,2.38,1.12,2.38,1.87,0,1.88-6,6-7.25,6a3.4,3.4,0,0,1-1.63-.62c-21.12-11.38-37.62-23.75-52.62-43.38-24.75,38.25-55.38,47.13-56.25,47.13s-1.13-.25-1.13-.75c0-.75.88-1.75,2.63-2.88,42.87-27.87,51.12-55.25,51.12-57.5Zm-15.62,51.75a10.67,10.67,0,0,0-1.75-5.62,2.61,2.61,0,0,1-.63-1.38c0-.62.63-1,1.63-1,2.5,0,9.37,1.88,9.37,4.63-.12,13.12-.62,23.75-3.75,35.25-5.5,19.87-29.5,28.75-31.62,28.75-.75,0-1.25-.25-1.25-.75,0-.75,1-2,2.87-3.38,11.13-8.12,18.75-15.25,21.88-27.25a115.94,115.94,0,0,0,3.25-27.75Zm33.12-2.12a7.81,7.81,0,0,0-2.25-5.5,1.91,1.91,0,0,1-.62-1.38c0-.62.62-.87,1.62-.87a15.9,15.9,0,0,1,5.13,1.12c3.62,1.25,4.5,2,4.5,4.13l.12,63.5c0,2.25-1.12,3.25-2.62,3.25-1.25,0-6.88-1.88-6.88-6a5,5,0,0,1,.13-1.38,41.86,41.86,0,0,0,.87-7.5Z"/></g></g></g></svg>