<svg xmlns="http://www.w3.org/2000/svg" viewBox="0 0 782.96 283.64"><defs><style>.cls-1{stroke:#000;stroke-miterlimit:10;stroke-width:4px;}</style></defs><g id="レイヤー_2" data-name="レイヤー 2"><g id="レイヤー_1-2" data-name="レイヤー 1"><g id="_3列目" data-name="3列目"><path class="cls-1" d="M2,210.75c0-1.87,1.25-4.69,3.75-8.75,23.44-34.38,44.69-68.12,55.31-110.31a31.12,31.12,0,0,0,1.25-7.5,15.93,15.93,0,0,0-.93-5.31,6,6,0,0,1-.32-2.19c0-1.88.94-2.81,3.13-2.81q4.68,0,14.06,5.62c7.81,4.69,10.63,8.44,10.63,11.56a5.21,5.21,0,0,1-.32,2.19C55.44,170.75,10.75,212.94,3.88,212.94,2.62,212.94,2,212.31,2,210.75ZM134.5,19.19a19.37,19.37,0,0,0-4.06-12.5c-.94-1.25-1.56-2.19-1.56-2.81,0-1.26,1.24-1.88,3.43-1.88,3.13,0,24.38,3.12,24.38,10.94l-.94,230.94c0,4.37.31,8.74.31,12.5,0,16.24-13.12,18.43-15.31,18.43-9.69,0-69.37-36.56-69.37-45,0-1.87,1.56-2.81,4.06-2.81a20.89,20.89,0,0,1,8.12,2.19c18.44,7.81,34.06,14.06,50,18.43ZM267.62,202c-3.43,0-5.31-2.19-6.56-4.69-19.68-39.69-38.75-73.75-64.68-107.19a7.44,7.44,0,0,1-1.88-4.68c0-4.06,7.81-10.94,13.75-10.94,2.5,0,4.37,1.25,5.94,3.44,30.62,39.68,69.37,105.31,69.37,111.25C283.56,196.38,271.06,202,267.62,202Z"/><path class="cls-1" d="M310.83,211.64l-6.75.5a18.58,18.58,0,0,1-2.62.13c-2,0-5.25,0-7.63-6.5a1.42,1.42,0,0,1-.12-.63.59.59,0,0,1,.62-.62,1.42,1.42,0,0,1,.63.12,16.75,16.75,0,0,0,4.5.63c.75,0,1.5-.13,2.25-.13l9.12-.62V181.39a9.41,9.41,0,0,0-1.87-5.87,2.61,2.61,0,0,1-.63-1.38q0-.75,1.5-.75s8.75.88,8.75,4.38L318.33,204l3.75-.25a14.74,14.74,0,0,0,5.25-1.25,1.8,1.8,0,0,1,.88-.13c2.25,0,6.12,4.38,6.12,6.13,0,.87-.87,1.37-2.37,1.5l-13.63,1-.25,26c4.13-2.13,8.25-4.38,12-6.5a7.34,7.34,0,0,1,3.13-1.13c.75,0,1.12.38,1.12.88,0,.75-.75,2-2.25,3.25-11.37,9.25-29.75,21.62-33.5,21.62-1,0-1.12-.12-3.87-1.75a16.4,16.4,0,0,1-3.75-4.25,2.89,2.89,0,0,1-.38-1.12c0-.5.25-.75.88-.88,5.37-.75,9.25-1.5,19.37-6.62Zm36-7.87c-.75,28.12-7.12,52.12-21.87,70.25a3.49,3.49,0,0,0-.63.75c-1.62,1.75-2.75,2.5-3.5,2.5-.5,0-.87-.38-.87-1.13a10.16,10.16,0,0,1,1.5-4.25c16.25-29.25,18-52.37,18-85a34.09,34.09,0,0,0-1.25-9,4.9,4.9,0,0,1-.38-1.75c0-.62.38-1,1.13-1,1.37,0,3.87.88,8.75,3.13l44-2.88h1.12a5.67,5.67,0,0,1,5.88,4.63c0,1.25-.75,2.12-1,3L395,194.39c2.5,2.63,3.62,4.25,3.62,5.25s-1.5,1.38-4.12,1.5Zm43-21.75-42.37,2.75c0,4-.13,8-.38,12.37l40.38-2.25Zm-32,90.12c-3,.25-4.5,1.25-6,1.25a3.29,3.29,0,0,1-2.37-.87c-1.75-1.25-2.38-2.25-2.38-3.5a9.63,9.63,0,0,1,.25-1.5,33.51,33.51,0,0,0,1.13-6l.87-9c0-.5.13-1,.13-1.5a7.67,7.67,0,0,0-1.5-5,2.49,2.49,0,0,1-.5-1c0-.38.5-.63,1.37-.63,1.25,0,7.88.75,7.88,4V249l-1.38,16.37,14.88-1,.12-25.87-9.25.87c-2.75.25-4.12,1.25-5.5,1.25s-4.37-1.37-4.37-4.25a5.81,5.81,0,0,1,.12-1.37,35.24,35.24,0,0,0,.75-6l.25-6.63v-1.25a8.26,8.26,0,0,0-1.37-5,1.35,1.35,0,0,1-.38-.87c0-.38.5-.75,1.5-.75,2.13,0,7.5,1.12,7.5,4v.37l-.87,14.38,11.62-.88.13-19.75c0-2-.38-4.5-1.38-5.75a1.54,1.54,0,0,1-.5-1.12c0-.5.5-.75,1.63-.75.5,0,7.87.37,7.87,3.87l-.37,23,12.37-.87V220c0-2.38-.12-4.88-1.25-6.13a1.51,1.51,0,0,1-.5-1c0-.37.38-.62,1.25-.62a19.27,19.27,0,0,1,4.13.75c3,.87,3.5,1.75,3.5,3.75l-.63,23c-.12,1.62-.62,2.37-1.75,2.37-2,0-5.75-2-5.75-3.87a5.59,5.59,0,0,0,.13-.63l.25-.87-11.75,1.12-.5,26,17.12-1,.13-10.25c0-2.25-.25-5.37-1.75-6.87a1.09,1.09,0,0,1-.38-.75c0-.5.38-.75,1.38-.75s8,.62,8,4.75l-.63,27.5c0,1.5-.62,2.37-1.87,2.37-1.75,0-6-2.25-6-4.87a3.54,3.54,0,0,1,.25-1.13,13.71,13.71,0,0,0,.75-3.87Z"/><path class="cls-1" d="M561.08,221A129.7,129.7,0,0,0,545,208.39c-1.13-.75-1.75-1.5-1.75-2.37s1.5-4.13,3.12-4.13c2,0,21.63,12.25,21.63,15.5,0,1.38-2.5,5.13-4.25,5.13A4.12,4.12,0,0,1,561.08,221Zm-9.75,52c-2.37-.25-7.5-2.38-7.5-4.13,0-.37.25-.75,1-1.25a15.37,15.37,0,0,0,4.63-4.37,317,317,0,0,0,19.62-32.63c1.38-2.62,2.63-3.75,3.38-3.75s1,.63,1,1.75c0,3.5-6.38,20.13-16.75,38.75-2,3.63-3.13,5.63-5.13,5.63ZM557,176c2.87,0,20.25,14.75,20.25,17.25,0,1.37-2.63,4.87-4.5,4.87-.75,0-1.5-.5-2.5-1.62a131.89,131.89,0,0,0-15.13-14.13c-1.12-.87-1.62-1.5-1.62-2.37C553.46,180,554.71,176,557,176Zm27.37,52.62c-1.5,0-2.87.13-4.12.13-2.25,0-5.25-.13-7.38-6.5a1.64,1.64,0,0,1-.12-.75.59.59,0,0,1,.62-.63,1.53,1.53,0,0,1,.75.13,26.24,26.24,0,0,0,5.88.75h1l29.12-1.5.13-18.5-17,.87c-3.13,5.5-11.13,17.38-14.5,17.38-.38,0-.63-.25-.63-.88a7.57,7.57,0,0,1,1.13-3c8.5-14.5,12.12-29.62,12.12-33.5,0-.62-.12-1.25-.12-1.75v-.37c0-.63.25-1,.87-1,.88,0,8.5,3,8.5,5.37a73.64,73.64,0,0,1-4,10.63l13.75-.75.13-19.75a7.56,7.56,0,0,0-2-5.5c-.5-.63-.75-1-.75-1.38s.5-.75,1.25-.75c.25,0,9.25,1.38,9.25,4.75l-.13,22.13,13.13-.75a17.62,17.62,0,0,0,4.87-1.13,4.14,4.14,0,0,1,1-.25c1.75,0,6.75,4.13,6.75,6.13,0,1.25-1.37,1.62-2.75,1.75L618,201.27l-.13,18.62,27.63-1.5a14.81,14.81,0,0,0,4.62-1,3.13,3.13,0,0,1,1-.25c2.5,0,6.88,4.63,6.88,6.25,0,1.13-1.25,1.5-2.88,1.63ZM598,274.39l.37,4.63v.5c0,1.5-.62,2.12-1.62,2.12a8.64,8.64,0,0,1-3-.75c-2.75-1.12-3.75-2.37-3.75-4.25V276c.12-2,.37-3.75.37-5.38a9.8,9.8,0,0,0-.12-1.87l-2-22.25a15.65,15.65,0,0,0-1.88-6.25,5,5,0,0,1-.62-1.75c0-.63.37-1,1.37-1,1.38,0,4,.75,8.38,2.37l37.37-1.62h.75a6,6,0,0,1,5.88,4.62c0,1-.63,1.63-.75,2.38l-3.13,21.25c2.63,2.75,3.63,4.37,3.63,5.37,0,1.25-1.88,1.25-4,1.38Zm32.37-28.75L596,246.89l1.5,20.13,30.5-.75Z"/><path class="cls-1" d="M676.33,273.52c-.12,0-5.75-1.63-5.75-4.63a4.34,4.34,0,0,1,.75-2.12,108,108,0,0,0,11-27.25c.38-1.5,1-2.13,2.5-2.13s5,.63,5,2.75c0,.88-2.87,14.75-10.87,31C678.21,272.77,677.46,273.52,676.33,273.52Zm25.38-47.88c-2,.13-3.5.25-4.75.25-4.75,0-6.38-2.87-7.63-6.62a6,6,0,0,0-.12-.63,1.12,1.12,0,0,1,1.25-1.25,4.14,4.14,0,0,1,1,.25,22.06,22.06,0,0,0,6.75,1h1.12l20.75-1.12.25-18.38-32.12,1.63c-2,.12-3.5.25-4.63.25-6.75,0-7.37-7.38-7.37-7.38,0-.5.25-.75.87-.75.25,0,.5.13.75.13a30.64,30.64,0,0,0,5.88.5h2.12l34.63-1.88.12-13.62c0-3-.12-5.38-1.62-7.88a2,2,0,0,1-.38-1c0-.62.63-1,1.75-1,2.63,0,8.88,1.63,8.88,4.25l-.5,18.75,27.37-1.5a32.06,32.06,0,0,0,8.5-1.25,3.85,3.85,0,0,1,1.25-.25c2.88,0,7.38,4.5,7.38,6.63,0,1-.88,1.62-2.38,1.75l-42.25,2.12-.37,18.5,16.25-.87A36.2,36.2,0,0,0,753,215a6.12,6.12,0,0,1,1.62-.25c3.38,0,7.5,4.62,7.5,6.5,0,1.12-1,1.62-2.5,1.75ZM742,269.14c9.62,0,9.62-.37,9.62-1.12a1.42,1.42,0,0,0-.12-.63c-1.5-5.12-4.88-16.62-4.88-18.62,0-1.25.5-2,1.13-2,.87,0,2.12,1.25,3.25,3.62a190.06,190.06,0,0,0,9.62,16.88,8.6,8.6,0,0,1,1.63,4.37c0,3.5-4,5.88-18.13,5.88-12.25,0-24.62-2.13-31.87-7.5-12.75-9.5-15-29.38-15-29.88,0-1.5.87-2.75,5-2.75,2,0,2.87.88,3.12,2.75C708.46,257.52,714.08,269.14,742,269.14Zm-4-21.87c0,1.25-2.88,4.87-5,4.87a3.45,3.45,0,0,1-2.38-1.5,215.88,215.88,0,0,0-16-16.12,3,3,0,0,1-1.25-2.13c0-1.12,1.88-4.12,3.75-4.12a3.23,3.23,0,0,1,2.25,1.12C728.71,237,738,245.27,738,247.27Zm38,12a3.67,3.67,0,0,1-2.63-1.75,149.65,149.65,0,0,0-17.87-18.88c-1.38-1.25-2-2-2-2.87a4.22,4.22,0,0,1,1.37-2.5,3.63,3.63,0,0,1,2.63-1.5,4.25,4.25,0,0,1,2.62,1.25c3.38,2.87,20.88,17.87,20.88,21.25C781,256.39,777.08,259.27,776,259.27Z"/></g></g></g></svg>