<svg xmlns="http://www.w3.org/2000/svg" viewBox="0 0 747.71 286.52"><defs><style>.cls-1{stroke:#000;stroke-miterlimit:10;stroke-width:4px;}</style></defs><g id="レイヤー_2" data-name="レイヤー 2"><g id="レイヤー_1-2" data-name="レイヤー 1"><g id="_3列目" data-name="3列目"><path class="cls-1" d="M39.19,257.62l.93,18.13v.94q0,5.63-5.62,5.62c-5.94,0-16.88-3.12-16.88-12.5v-1.25a99.26,99.26,0,0,0,.63-10.31c0-4.06-.31-8.44-.63-13.13L9.5,96.38a42.35,42.35,0,0,0-5-18.44c-1.56-2.82-2.5-5-2.5-6.56,0-1.26.94-2.19,3.44-2.19,3.75,0,11.25,2.19,24.37,6.87l19.38-1.25C64.5,55.75,87.94,24.5,87.94,10.12c0-1.24-.32-2.18-.32-3.43V5.75c0-2.5,1.26-3.75,3.44-3.75,4.06,0,22.5,7.81,22.5,15.94,0,4.37-15,27.5-41.87,55.62L185.12,67h2.5c12.19,0,19.69,6.56,19.69,12.19,0,3.12-2.19,5.62-2.5,7.81L192.94,233.56c5.94,7.5,8.44,12.19,8.44,15,0,3.75-4.07,4.38-9.38,4.69ZM182.94,86.38,30.44,94.81l3.12,59.38,145-6.88Zm-5.63,79.68L34.5,172.94l3.75,65.94,134.37-4.07Z"/><path class="cls-1" d="M255.21,232.77c-.75,0-1.13-.38-1.13-.88,0-.75.88-2.12,3-3.5,21.13-14.62,39.63-32,52.25-52.25a8.62,8.62,0,0,0,1.38-5c0-1.12.37-2,1.37-2,2.25,0,8.13,4.75,8.13,6.63,0,.37-.13,1.37-4.25,6.75A261.53,261.53,0,0,0,371.33,221c1.25.62,1.88,1.25,1.88,2,0,1.87-4.75,5.62-6.38,5.62a2.48,2.48,0,0,1-1.62-.5,326.35,326.35,0,0,1-53.5-39.75C286.58,219.89,257.21,232.77,255.21,232.77Zm14.25,46.62c-1,0-1.88.13-2.75.13-1.5,0-2.63-.13-3.25-.75-1.88-1.88-3.38-4.38-3.38-6.38,0-.5.25-.75.63-.75a1.53,1.53,0,0,1,.75.13,21,21,0,0,0,5.62.62l41.63-1.12-.13-30.88-26.12,1.25c-1,0-1.88.13-2.63.13-2.25,0-4.37-.25-6.5-5.88a6.8,6.8,0,0,1-.25-1.12.66.66,0,0,1,.75-.75,1.64,1.64,0,0,1,.75.12,14.8,14.8,0,0,0,4.13.5h1.5l28.37-1.25-.12-13.87-10.25.62c-1,0-1.88.13-2.63.13-1.62,0-4.5-.13-6.5-5.38a6.8,6.8,0,0,1-.25-1.12.66.66,0,0,1,.75-.75,1.64,1.64,0,0,1,.75.12,14.8,14.8,0,0,0,4.13.5H296l28.5-1.87a15.63,15.63,0,0,0,4.87-1,1.8,1.8,0,0,1,.88-.13c1.62,0,6.5,3.38,6.5,5.63,0,1.12-1.38,1.62-3,1.75l-17.13,1-.12,14,24.5-1.13a15.88,15.88,0,0,0,5-1,1.39,1.39,0,0,1,.75-.12c1.25,0,6.5,3.5,6.5,5.75,0,1.25-1.25,1.75-2.88,1.87L316.46,240l-.25,31,38.25-1a13.35,13.35,0,0,0,5-1,1.3,1.3,0,0,1,.75-.13c1.62,0,6.87,4.13,6.87,6.13,0,1.25-1.5,1.75-3.25,1.87ZM295.71,269c-.88,0-1.5-.63-2.25-2a96.13,96.13,0,0,0-12.13-16.75,2.93,2.93,0,0,1-.87-1.75c0-2,3.37-3.88,3.87-3.88,2.5,0,16.75,17.63,16.75,20.25C301.08,266.14,297.83,269,295.71,269Zm28.37-1.13a5.91,5.91,0,0,1,1.63-3.25c10.87-14.25,11.5-19.37,11.62-21.37.13-1.38.38-2.25,1.38-2.25,1.25,0,7.12,3.75,7.12,6.37,0,3-16.37,21.38-20.75,21.38A.9.9,0,0,1,324.08,267.89Z"/><path class="cls-1" d="M529.21,277.64c.25-2.87.75-8.12.75-30a87,87,0,0,1,1-9.62c-1,2.12-3.25,7.12-4.5,9-11.38,17.37-19.88,23.75-21.38,23.75a.59.59,0,0,1-.62-.63c0-.75.75-2.12,2.25-4,7.37-9.25,14.5-21.12,21.37-35.87l-11.62.87a21.32,21.32,0,0,1-2.75.13,4.57,4.57,0,0,1-3.25-.88,12.89,12.89,0,0,1-3.25-5.75c0-.5.25-.75.87-.75a3,3,0,0,1,1,.13,16.07,16.07,0,0,0,4.25.5h1.5l15.38-1,.12-9-6.5.5c-1.25.12-2.25.25-3.12.25-1.25,0-3.88-.13-5.75-5.38a3.63,3.63,0,0,1-.25-1c0-.62.37-.87,1-.87a6.75,6.75,0,0,1,1.25.25,12.91,12.91,0,0,0,3.25.37c.62,0,1.37-.12,2.12-.12l8-.5.13-8.25-10.63.87a21.4,21.4,0,0,1-2.62.13c-5.13,0-6.25-5.13-6.25-6.25,0-.5.25-.63.87-.63A4.18,4.18,0,0,1,513,194a15.21,15.21,0,0,0,3.25.37c.62,0,1.37-.12,2.12-.12l12.13-1,.12-12.13a10.9,10.9,0,0,0-2-7,.76.76,0,0,1-.12-.5c0-.5.5-.87,1.87-.87S538,173,538,177l-.13,15.75,6.38-.5a23.27,23.27,0,0,0,5.25-1,5.08,5.08,0,0,1,1.37-.25c2.38,0,5.25,3.62,5.25,5.25,0,1.12-1.12,1.75-2.87,1.87l-15.38,1.13-.12,8.25,4.12-.25a14.28,14.28,0,0,0,4.38-1,4.21,4.21,0,0,1,1.25-.25c2,0,5.5,3.25,5.5,5.25,0,1.12-1.13,1.75-2.88,1.87l-12.37.88-.13,9,9.88-.63a16.64,16.64,0,0,0,4.75-1,1.64,1.64,0,0,1,.75-.12c2.37,0,5.37,3.5,5.37,5.37,0,1-.75,1.63-2,1.75h-.25l-18.5,1.25v6.63a2.83,2.83,0,0,1,1.75-1c2.13,0,16.88,13.62,16.88,15.5s-2.5,4.75-4.38,4.75c-.87,0-1.62-.63-2.62-1.88A159.05,159.05,0,0,0,537.46,241l-.25,40c0,1.75-.63,3.12-2,3.12-.63,0-6-1.37-6-5.75Zm65.37-40.75-18.25.75c-4.62,31.38-22.5,43.63-24.12,43.63-.5,0-.75-.38-.75-.88,0-.87.5-2.25,1.87-4.12C562.58,263.89,567,251.89,569,238l-8.13.37c-1.37,0-2.62.13-3.62.13-1.5,0-2.5-.13-3.38-1-.5-.5-3.37-3.5-3.37-6.25,0-.5.25-.75.62-.75a2.58,2.58,0,0,1,.88.12,18.83,18.83,0,0,0,5.12.75H558l11.87-.62c.5-9.63.63-16.75.63-21.38l-5.63.25c-1.37.13-2.62.25-3.75.25a5.26,5.26,0,0,1-4.37-1.87,9.59,9.59,0,0,1-2.38-3.88,1.67,1.67,0,0,1-.25-1c0-.37.25-.62.75-.62a2.25,2.25,0,0,1,.75.12,21.29,21.29,0,0,0,4.88.5h1.37l8.63-.5c0-18.62-.25-22.25-2.25-25.5a2.61,2.61,0,0,1-.63-1.37c0-.63.63-1,1.63-1,0,0,8.75,1.12,8.75,4.62,0,6.63.12,14.63.12,22.88l16.38-1V179.14c0-2.12-.88-4-2.25-6.12a2,2,0,0,1-.5-1.13c0-.5.5-.75,1.25-.75,1.87,0,9,1.25,9,5.25l.12,24.5,3.63-.25a15.08,15.08,0,0,0,4.87-1,3.83,3.83,0,0,1,1.13-.25c1.5,0,6.37,4,6.37,6,0,1.13-1.37,1.38-3,1.5l-13,.75.13,21.5,9.87-.5a17.82,17.82,0,0,0,4.5-1,2.23,2.23,0,0,1,.88-.12c2.87,0,6.75,4.62,6.75,6.5,0,1.12-1.38,1.5-3.13,1.62l-18.87.88.12,44.37c0,2.63-.75,3.63-2,3.63-1,0-6.75-1.63-6.75-5.13a3.31,3.31,0,0,1,.13-1.12,36.42,36.42,0,0,0,.87-8ZM594.46,208l-16.5.87c0,9.13-.38,17-.75,21.5l17.37-.87Z"/><path class="cls-1" d="M738.46,281.39c-22.38-.75-58.75-7.62-77.63-11.5a54.55,54.55,0,0,0-11.62-1.5,42,42,0,0,0-13.13,2.25A7.62,7.62,0,0,1,634,271c-2.88,0-3.13-3.75-3.13-5.38,0-2.25,1.63-3,11.75-4a101,101,0,0,0,12.88-13.37c.12-.25.25-.38.25-.63,0-.5-1.13-2.25-9.25-7.62-2.25-1.5-3.38-3-3.38-4.88,0-2.5,1.88-5.25,10.38-17l-11.88,1.5a26.22,26.22,0,0,1-2.75.25c-.5,0-5.12,0-6.62-6a1.53,1.53,0,0,1-.13-.75c0-.62.25-.87.75-.87.25,0,.5.12.75.12a19.09,19.09,0,0,0,3.75.38,10.29,10.29,0,0,0,2-.13l19-2c.5,0,1-.12,1.38-.12,1.87,0,5,2.25,5,4.25,0,1.37-1.5,2.37-2.25,3.25-3.13,4-11.63,15-11.63,16,0,.37.13.62.63.87,6.87,4.38,12.62,8.13,12.62,12.75,0,2-.37,4.25-11.37,13.88a61.59,61.59,0,0,1,9.25,1.25c19.25,3.75,55.5,10.5,80.25,10.5h.62c1.88,0,2.88.25,2.88,1.12,0,.38-2.25,7-6.5,7Zm-79.63-78c-1,0-2-.75-3.12-2.25a134.65,134.65,0,0,0-15.38-16.87q-1.5-1.32-1.5-2.25c0-2,3.5-3.88,4.38-3.88,2.5,0,20.62,17.38,20.62,20.38C663.83,200.27,660.58,203.39,658.83,203.39Zm18.88,19.75c-1.38.13-2.75.25-4,.25-2,0-5.38-.25-7.5-6.5a1.53,1.53,0,0,1-.13-.75.59.59,0,0,1,.63-.62,1.64,1.64,0,0,1,.75.12,25.51,25.51,0,0,0,5.87.75h1l26-1.5.13-15.5-14.13.88c-5,7.62-11.37,14.5-13.87,14.5a.66.66,0,0,1-.75-.75,5.61,5.61,0,0,1,1.25-3c4.5-7.25,12.12-22.38,12.12-29.75A14.14,14.14,0,0,0,685,179v-.5c0-.88.25-1.38,1.12-1.38,2,0,8.25,3.75,8.25,6a1.42,1.42,0,0,1-.12.63,53.88,53.88,0,0,1-4,9.5l10.25-.63.12-14.75a7.07,7.07,0,0,0-2-5.5,1.51,1.51,0,0,1-.5-1c0-.5.5-.75,1.38-.75,1.62,0,9.12,1.13,9.12,4.38l-.12,17.12,10.62-.62a23.44,23.44,0,0,0,4.88-1.13,2.5,2.5,0,0,1,.87-.12c1.25,0,6.88,3.5,6.88,5.87,0,1.13-1.38,1.5-2.75,1.63l-20.5,1.12-.13,15.5,24-1.37a15.1,15.1,0,0,0,4.63-1,2.78,2.78,0,0,1,1-.25c2.25,0,6.87,4.37,6.87,6.12,0,1.13-1.25,1.5-2.87,1.63Zm12.37,37.38.25,1.75v.5c0,1.5-.62,2.12-1.62,2.12a8.64,8.64,0,0,1-3-.75c-2.88-1.12-4-2.37-4-4.25v-.62c.12-2,.37-3.75.37-5.38A9.8,9.8,0,0,0,682,252l-1.88-14a14.67,14.67,0,0,0-1.87-6,4.63,4.63,0,0,1-.63-1.88c0-.5.25-.87,1.25-.87,1.5,0,4.13.75,8.75,2.37l36.25-1.87h.88c2.62,0,6,2.5,6,4.5,0,.87-.63,1.5-.75,2.25l-2.88,16.12c2.38,2.63,3.38,4.25,3.38,5.13,0,1.25-1.63,1.25-3.75,1.37Zm31.25-23.63-33.25,1.5,1.38,15,29.75-1Z"/></g></g></g></svg>