<svg xmlns="http://www.w3.org/2000/svg" viewBox="0 0 906.96 283.52"><defs><style>.cls-1{stroke:#000;stroke-miterlimit:10;stroke-width:4px;}</style></defs><g id="レイヤー_2" data-name="レイヤー 2"><g id="レイヤー_1-2" data-name="レイヤー 1"><path class="cls-1" d="M2,210.75c0-1.87,1.25-4.69,3.75-8.75,23.44-34.38,44.69-68.12,55.31-110.31a31.12,31.12,0,0,0,1.25-7.5,15.93,15.93,0,0,0-.93-5.31,6,6,0,0,1-.32-2.19c0-1.88.94-2.81,3.13-2.81q4.68,0,14.06,5.62c7.81,4.69,10.63,8.44,10.63,11.56a5.21,5.21,0,0,1-.32,2.19C55.44,170.75,10.75,212.94,3.88,212.94,2.62,212.94,2,212.31,2,210.75ZM134.5,19.19a19.37,19.37,0,0,0-4.06-12.5c-.94-1.25-1.56-2.19-1.56-2.81,0-1.26,1.24-1.88,3.43-1.88,3.13,0,24.38,3.12,24.38,10.94l-.94,230.94c0,4.37.31,8.74.31,12.5,0,16.24-13.12,18.43-15.31,18.43-9.69,0-69.37-36.56-69.37-45,0-1.87,1.56-2.81,4.06-2.81a20.89,20.89,0,0,1,8.12,2.19c18.44,7.81,34.06,14.06,50,18.43ZM267.62,202c-3.43,0-5.31-2.19-6.56-4.69-19.68-39.69-38.75-73.75-64.68-107.19a7.44,7.44,0,0,1-1.88-4.68c0-4.06,7.81-10.94,13.75-10.94,2.5,0,4.37,1.25,5.94,3.44,30.62,39.68,69.37,105.31,69.37,111.25C283.56,196.38,271.06,202,267.62,202Z"/><path class="cls-1" d="M291.46,229.14c-.75,0-1.13-.37-1.13-.87,0-.75.88-2.13,3-3.5,21.13-14.63,39.63-32,52.25-52.25a8.64,8.64,0,0,0,1.38-5c0-1.13.37-2,1.37-2,2.25,0,8.13,4.75,8.13,6.62,0,.38-.13,1.38-4.25,6.75a261.16,261.16,0,0,0,55.37,38.5c1.25.63,1.88,1.25,1.88,2,0,1.88-4.75,5.63-6.38,5.63a2.54,2.54,0,0,1-1.62-.5A327.5,327.5,0,0,1,348,184.77C322.83,216.27,293.46,229.14,291.46,229.14Zm14.25,46.63c-1,0-1.88.12-2.75.12-1.5,0-2.63-.12-3.25-.75-1.88-1.87-3.38-4.37-3.38-6.37,0-.5.25-.75.63-.75a1.64,1.64,0,0,1,.75.12,21,21,0,0,0,5.62.63L345,267.64l-.13-30.87L318.71,238c-1,0-1.88.12-2.63.12-2.25,0-4.37-.25-6.5-5.87a6.86,6.86,0,0,1-.25-1.13.66.66,0,0,1,.75-.75,1.53,1.53,0,0,1,.75.13,15.18,15.18,0,0,0,4.13.5h1.5l28.37-1.25-.12-13.88-10.25.63c-1,0-1.88.12-2.63.12-1.62,0-4.5-.12-6.5-5.37a6.86,6.86,0,0,1-.25-1.13.66.66,0,0,1,.75-.75,1.53,1.53,0,0,1,.75.13,15.18,15.18,0,0,0,4.13.5h1.5l28.5-1.88a15.08,15.08,0,0,0,4.87-1,1.94,1.94,0,0,1,.88-.12c1.62,0,6.5,3.37,6.5,5.62,0,1.13-1.38,1.63-3,1.75l-17.13,1-.12,14,24.5-1.12a16.46,16.46,0,0,0,5-1,1.3,1.3,0,0,1,.75-.13c1.25,0,6.5,3.5,6.5,5.75,0,1.25-1.25,1.75-2.88,1.88l-33.87,1.62-.25,31,38.25-1a13.16,13.16,0,0,0,5-1,1.39,1.39,0,0,1,.75-.12c1.62,0,6.87,4.12,6.87,6.12,0,1.25-1.5,1.75-3.25,1.88ZM332,265.39c-.88,0-1.5-.62-2.25-2a96.51,96.51,0,0,0-12.13-16.75,2.88,2.88,0,0,1-.87-1.75c0-2,3.37-3.87,3.87-3.87,2.5,0,16.75,17.62,16.75,20.25C337.33,262.52,334.08,265.39,332,265.39Zm28.37-1.12A5.88,5.88,0,0,1,362,261c10.87-14.25,11.5-19.38,11.62-21.38.13-1.37.38-2.25,1.38-2.25,1.25,0,7.12,3.75,7.12,6.38,0,3-16.37,21.37-20.75,21.37A.89.89,0,0,1,360.33,264.27Z"/><path class="cls-1" d="M496.33,235.64v42.25c0,2.25-1,3.25-2.37,3.25s-6.88-1.75-6.88-6.12a4.06,4.06,0,0,1,.13-1.25,39.53,39.53,0,0,0,.87-7.5V236l-28.75,1.37c-7.75,32-33.75,41.25-35,41.25-.62,0-.87-.25-.87-.62,0-.63.87-1.88,2.87-3.5,12.75-10.13,20.75-21.5,24.75-36.75L429,238.89c-1.75.13-3.13.13-4.25.13-2.13,0-3.25-.25-4.5-1.38-1.88-1.87-3.25-4.37-3.25-6,0-.5.25-.75,1-.75h.75a37.91,37.91,0,0,0,6.37.75h.63l27-1.25c1.12-7,1.5-15.87,1.62-25l-16.62,1c-1.38.13-2.5.13-3.5.13H433c-5.38-.63-6.5-5.88-6.5-7,0-.63.25-.88.75-.88a2.32,2.32,0,0,1,.87.13,20.11,20.11,0,0,0,5.5.62h1.63l19.25-1.25c0-7-.13-13.87-.25-19.87a10.7,10.7,0,0,0-1.75-5.63,2.61,2.61,0,0,1-.63-1.37c0-.63.63-1,1.63-1,2,0,9.12,1.5,9.12,4.62.13,4.25.13,9.5.13,15.38v7.37l25.37-1.5V174.89a7.85,7.85,0,0,0-2.25-5.5,1.91,1.91,0,0,1-.62-1.37c0-.63.62-.88,1.62-.88a16,16,0,0,1,5.13,1.13c3.62,1.25,4.25,2,4.25,4.12v23.25l13.12-.87a26.74,26.74,0,0,0,5.63-1.13,1.91,1.91,0,0,1,.87-.12c2.25,0,7,4.75,7,6.25,0,1.12-1.37,1.62-3.12,1.75l-23.5,1.37.12,25.38,22.75-1.13a21.33,21.33,0,0,0,5.75-1.12,2.88,2.88,0,0,1,1-.25c1.88,0,7.25,4.25,7.25,6.62,0,1.13-1.37,1.5-3,1.63Zm-8.25-32.25-25.5,1.5a235.18,235.18,0,0,1-1.75,25l27.25-1.25Z"/><path class="cls-1" d="M679.71,198.27a171.66,171.66,0,0,1-4.5,29.87c-.38,1.5-.88,2.25-2.13,2.25-1,0-5.62-.75-5.62-3.37a5.19,5.19,0,0,1,.25-1.25,134.69,134.69,0,0,0,5-28.25c.12-1.88.62-2.75,2.62-2.75.38,0,.75.12,1.25.12,2.63.38,3.13,1.13,3.13,2.75Zm5.5-22.25a9.69,9.69,0,0,0-1.5-5.25,2.71,2.71,0,0,1-.75-1.63c0-.5.5-.75,1.37-.75,2.25,0,8.38,1.75,8.38,4.25L692.21,279c0,1.75-.5,2.5-1.63,2.5-.25,0-7.12-1.38-7.12-5.13a7.52,7.52,0,0,1,.12-1.5,40.54,40.54,0,0,0,1-8.12Zm21.87,42a7.07,7.07,0,0,1-2.62.75c-1.13,0-1.63-.88-2.13-2.5a115.87,115.87,0,0,0-6.87-18.5,4.15,4.15,0,0,1-.5-1.88c0-2,3.62-2.62,4.5-2.62s1.62.62,2.25,1.87c2.75,5.5,8.25,18,8.25,20.13C710,216.39,709.08,217.14,707.08,218Zm6,37.87c-1.75,0-3.37.13-4.62.13h-.63c-4.62,0-6.37-4.5-6.75-5.63a4,4,0,0,1-.25-1c0-.37.25-.62.88-.62a2.5,2.5,0,0,1,.87.12,22.86,22.86,0,0,0,5.63.63h1.5l57.37-2A24.76,24.76,0,0,0,774,246a1.78,1.78,0,0,1,.87-.13c2,0,7.38,3.5,7.38,6,0,1.13-1.38,1.5-2.63,1.63Zm-10.37,23.88c-1.13,0-1.75-.38-1.75-.88s.62-1.37,2.25-2.12c9.12-4.5,16.5-9.38,22.5-15.25a8.67,8.67,0,0,0,2.5-4.75q.18-.75.75-.75c1.62,0,6.75,5,6.75,7.37a1.58,1.58,0,0,1-.75,1.38C717.21,278.14,704.08,279.77,702.71,279.77Zm21.62-37.25v1.37c0,1.63-.87,2.25-2.12,2.25a6.06,6.06,0,0,1-2.63-.75c-2.5-1.25-3.25-2-3.25-3.37a3.36,3.36,0,0,1,.13-1.13,23.3,23.3,0,0,0,.37-4.87l-1.25-31.63a16.29,16.29,0,0,0-1.5-6.25,5.45,5.45,0,0,1-.62-1.87c0-.63.37-.88,1.37-.88,1.38,0,3.75.5,7.88,1.75l12.87-.75v-8l-17.12,1a32.69,32.69,0,0,1-3.5.13,8.49,8.49,0,0,1-4.63-1c-.87-.63-3.37-3.63-3.37-5.13,0-.37.25-.62.87-.62a2.58,2.58,0,0,1,.88.12,27,27,0,0,0,5.25.5h1.37l20.38-1.12v-8.38a9.84,9.84,0,0,0-1.38-5,5,5,0,0,1-.62-1.75c0-.5.37-.75,1.12-.75.25,0,8.88,1.13,8.88,3.38l-.25,12.12,14.87-.87a25,25,0,0,0,6.25-1,3.36,3.36,0,0,1,1.13-.13c2.25,0,7,3,7,5.13,0,1-1.13,1.37-2.63,1.5L743.33,188l-.12,8,17.12-1c.38,0,.88-.13,1.5-.13,3,0,5.38,2.13,5.38,4,0,1-.63,1.75-.75,2.5l-1.63,33.25c2.5,2.5,3.38,4,3.38,4.88,0,1.25-1.75,1.25-3.63,1.37Zm34.5-41.5L723,203l.25,7,35.37-2Zm-.5,12.75-35,1.87.25,7.25,34.5-1.87Zm-.5,13.12-34,1.63.25,8,33.5-1.5Zm14.38,51.38c-5.5-4.88-14.38-10.5-22.13-14.75-1.37-.75-2-1.5-2-2.5,0-1.63,2.13-4.5,3.75-4.5s14.38,6.75,25.63,15.12a3.66,3.66,0,0,1,1.75,2.75c0,1-2.13,5.25-4.5,5.25A4.22,4.22,0,0,1,772.21,278.27Z"/><path class="cls-1" d="M806,259.64c-1.63.13-2.88.13-4,.13-2,0-3.38-.25-4.5-1.13-.5-.37-4-4.37-4-6.75,0-.62.25-.87.87-.87a1.64,1.64,0,0,1,.75.12,22.45,22.45,0,0,0,5.38.63c1,0,1.87-.13,2.87-.13L889.58,248a31.19,31.19,0,0,0,6.25-1.13,3.85,3.85,0,0,1,1.25-.25c2.25,0,7.88,4.13,7.88,6.88,0,1.37-1.38,2-3.13,2.12Zm14.87-57.87c-1.37.12-2.5.12-3.62.12-1.75,0-3.13-.12-3.88-.75a11.2,11.2,0,0,1-3.75-6.87.79.79,0,0,1,.88-.88,2.15,2.15,0,0,1,.75.13,20.06,20.06,0,0,0,5.5.62h1.62L871,191a26.66,26.66,0,0,0,5.62-1.25,1.53,1.53,0,0,1,.75-.13c2,0,7.25,4,7.25,6.75,0,1.25-1.5,1.88-3.25,2Z"/></g></g></svg>