<svg xmlns="http://www.w3.org/2000/svg" viewBox="0 0 860.17 256.47"><defs><style>.cls-1{stroke:#000;stroke-miterlimit:10;stroke-width:4px;}</style></defs><g id="レイヤー_2" data-name="レイヤー 2"><g id="キャラページ"><path class="cls-1" d="M2,241.42a7.36,7.36,0,0,1,2.1-5.11c12.6-12.3,24.3-26.4,33.3-43.2,1.5-3,2.7-4.5,4.8-4.5a11.33,11.33,0,0,1,5.4,1.5c3.9,2.4,5.7,4.5,5.7,7.2,0,4.5-29.7,56.11-39.9,56.11C6.2,253.42,2,243.81,2,241.42Zm32.7-55.21c-3,0-5.4.3-7.5.3-3.9,0-14.7-.3-19.8-15.3a3.81,3.81,0,0,1-.3-1.8,1.59,1.59,0,0,1,1.8-1.8,5.86,5.86,0,0,1,2.1.3A89.09,89.09,0,0,0,28.7,170h2.7l87-3.6v-24.3l-45.31,2.1c-3.6.3-6.6.3-9,.3-16.8,0-19.5-15.6-19.5-16.2,0-.9.6-1.8,2.1-1.8a3.81,3.81,0,0,1,1.8.3,66.91,66.91,0,0,0,15,1.5h5.4l49.81-2.4v-23.7l-54.31,2.7.6,6.3v.9c0,2.7-1.2,4.8-5.1,4.8-9,0-14.4-5.4-14.4-11.1v-1.5c.3-3.3.6-6,.6-9,0-2.7-.3-5.7-.6-9L40.7,31.4c-.6-6.9-1.8-14.1-4.8-19.5C34.7,9.8,33.8,8,33.8,6.8S34.7,5,36.5,5c3.3,0,9.3,1.8,20.1,5.7L206.91,2H209c7.8,0,13.5,7.5,13.5,10.5s-1.8,5.1-2.1,6.9L212,81.81c5.7,6,7.8,9.6,7.8,12,0,3-3.3,3.6-7.8,3.9l-75.3,3.6V125l43.2-2.1c9.6-.6,15.6-1.2,21.3-2.7a15.06,15.06,0,0,1,3.6-.6c4.5,0,16.2,7.2,16.2,13.2,0,2.7-2.4,4.2-5.1,4.5l-79.5,3.9v24.3l78.9-3.3a116.48,116.48,0,0,0,21.6-3,23.92,23.92,0,0,1,4.5-.9c5.4,0,15.9,7.8,15.9,14.7,0,2.4-1.8,4.2-5.69,4.2ZM119,22.4,57.5,26l2.1,23.7L119,46.1Zm-.3,38.1L60.8,63.8l2.4,25.51,55.51-2.7ZM110.3,245.92c-2.1,0-3.89-1.5-6-5.11-6.89-11.69-16.2-26.4-25.2-36.9-1.5-1.8-2.4-3.6-2.4-5.1,0-2.1,3.9-7.8,8.4-7.8,6.91,0,36,37.2,36,44.11C121.11,239.62,114.21,245.92,110.3,245.92ZM173,242c-10.2-15-22.5-28.2-34.2-39.9-2.1-2.1-3-3.9-3-5.7,0-3.3,4.5-8.4,8.7-8.4,5.4,0,45.3,39.9,45.3,46.8,0,6-8.7,11.71-10.8,11.71S175.11,245,173,242ZM197,56.3l-60.3,3.3V85.71l57.6-2.7Zm4.2-38.4L137,21.5V45.2l61.8-3.6Zm44.41,228a300.93,300.93,0,0,0-42.91-47.71c-2.4-2.1-3.9-3.6-3.9-5.7,0-3.3,4.5-8.4,8.7-8.4a9.72,9.72,0,0,1,6.3,2.7c21.3,17.1,51,44.4,51,51.61,0,3.59-7.51,12.9-12.61,12.9C250.12,251.32,248,249.22,245.62,245.92Z"/><path class="cls-1" d="M408.55,197l-49.75,2.75a219.37,219.37,0,0,1,2,29.25c0,1.88-.13,3.75-.13,5.5-.25,10.25-1.5,20-7.12,20-5.88,0-29.26-16.87-29.26-21,0-.5.38-.75,1-.75a9.69,9.69,0,0,1,4.13,1.5,163.72,163.72,0,0,0,21,9.88h.25a.66.66,0,0,0,.75-.75,149.29,149.29,0,0,0,1.25-19.88A158.77,158.77,0,0,0,351,200.1l-46.37,2.5c-1.25.12-2.38.12-3.25.12-1.63,0-2.88-.25-3.63-1-.37-.37-3.25-3.37-3.25-6.12,0-.63.38-.88,1-.88a1.64,1.64,0,0,1,.75.12,19.54,19.54,0,0,0,4.75.51h1.38l47.37-2.63a47.8,47.8,0,0,0-4.24-12,6.33,6.33,0,0,1-1-2.63c0-2.5,5.25-3.37,5.25-3.37,1.13,0,1.88.75,2.75,2.25,8-6.13,16.26-13.5,21.26-20.25l-46.26,3.37c-1.62.13-3,.25-4.12.25-3.75,0-5.63-4.37-6.38-6.12a6.86,6.86,0,0,1-.25-1.13c0-.5.25-.75.88-.75a1.8,1.8,0,0,1,.75.13,18.33,18.33,0,0,0,4.37.5c.75,0,1.5-.13,2.13-.13L378.8,149c.62,0,1.12-.13,1.62-.13,2.38,0,6.25,2.75,6.25,5.13,0,1.5-2,2.5-2.75,3.25a193.09,193.09,0,0,1-28.5,26.5c.75,2.5,1.5,5.5,2.13,8.5l38.62-2.13a29.92,29.92,0,0,0,6.88-1.25,3.57,3.57,0,0,1,1.12-.12c3.25,0,7.5,4.25,7.5,6.25,0,1.12-1.25,1.88-2.87,2Z"/><path class="cls-1" d="M612.3,180c0,2.5-2.13,3.12-5,3.25-11,.25-22.63,1-33.63,2.12a4.75,4.75,0,0,1,.63,2.63v.87c-4.88,40.76-39.51,56.63-43.26,56.63a1.54,1.54,0,0,1-1.37-.5.72.72,0,0,1-.13-.5c0-1,1.5-2.25,3.75-3.87,11-7.75,29.13-24.63,32.13-51.38V189a4,4,0,0,0-1.25-2.63c-13.38,1.5-25.5,3.38-34.13,4.76a16.18,16.18,0,0,1-3.25.37c-3.37,0-7.25-5-7.25-7.38a1.15,1.15,0,0,1,.63-1.12,2.34,2.34,0,0,1,1-.13,9.9,9.9,0,0,1,2.5.5,17.91,17.91,0,0,0,2.5.25c.75,0,1.5-.12,2.12-.12,22-2.75,48.88-6.75,73-7.88,1.37-.12,2.62-.75,4-.75h.37c2.38.13,6.5,3.13,6.63,4.88Zm-27.13-28.38c2.13,0,7.63,1.63,7.75,4.75,0,2.13-1.62,2.63-3,2.88-7.37,1.62-45.38,6.5-48.25,6.5-4.38,0-7-5.88-7-7.5,0-.5.12-.88.5-1a1.53,1.53,0,0,1,.75-.13,33.63,33.63,0,0,1,4,.75,10.53,10.53,0,0,0,2.12.25c.5,0,1-.12,1.38-.12,3.5-.25,35.5-3.88,39.38-5.88a5.41,5.41,0,0,1,2-.5Z"/><path class="cls-1" d="M651.54,171.22a5.08,5.08,0,0,1-.87-2.38c0-2.25,3.25-3.25,4.5-3.25a2.7,2.7,0,0,1,2.37,1.38c4.38,5.87,13.63,23.5,13.63,26.88,0,3-3.75,4.37-5.25,4.37s-2.38-1.12-3-2.5C660.42,189,655.29,177.47,651.54,171.22Zm10,69.38c0-.75,1.25-2.13,4.25-4.13,41.26-26.37,55.63-69.13,55.63-71.75,0-1.75-.62-3.38-.62-4.5,0-.5.12-1.38,1.62-1.38,1.25,0,8.63,3,8.63,6.75a7.82,7.82,0,0,1-.63,2.63c-20.25,52.5-60.5,73-67.63,73C661.92,241.22,661.54,241,661.54,240.6Zm15.13-79c0-2.87,4-3.25,4.25-3.25a3,3,0,0,1,2.75,1.75c2,3,9.75,19.25,11.63,25.5a4.59,4.59,0,0,1,.25,1.76c0,2.87-4,3.87-5.38,3.87a3,3,0,0,1-3.13-2.38,196.48,196.48,0,0,0-9.87-25.12A6.6,6.6,0,0,1,676.67,161.59Z"/><path class="cls-1" d="M801.42,188.47c-10.75,3.12-19.5,5.75-21.88,6.5a9.81,9.81,0,0,1-3.25.63c-3.37,0-7.37-4.5-7.37-6.63a1.27,1.27,0,0,1,.62-1.25,1.35,1.35,0,0,1,1-.25c1,0,2.25.37,3.38.37h.25c3.12-.49,3.12-.49,25.25-6.62-3-11.38-5.38-20-5.63-20.75-1.37-4-4.75-4.38-4.75-6a.72.72,0,0,1,.13-.5c.37-1.13,1.75-1.38,3.75-1.38,1,0,2.37.13,3.75.13,3.12.12,4.5,2.12,5,4.5.37,1.75,2.75,10.5,5.75,21.75,17.88-5.13,37.75-11,43.13-12.63a3.57,3.57,0,0,1,1.12-.12c3,0,6.5,3.25,6.5,5.12a4.5,4.5,0,0,1-.87,2.25c-.5.75-1.38,1.25-1.88,2-7.62,10.5-24.37,28.88-28.37,28.88a.92.92,0,0,1-1-1c0-.87.62-2.25,2.12-4a247.52,247.52,0,0,0,16.13-23.63l-34.88,10.25c6.37,23.38,14.38,52.76,15,54.63a10.62,10.62,0,0,1,.25,2c0,4.63-2,5.13-3.37,5.13-3.25,0-5.51-4.88-5.88-5.63s-.12-2.5-.5-4Z"/></g></g></svg>