<svg xmlns="http://www.w3.org/2000/svg" viewBox="0 0 597.3 289.31"><defs><style>.cls-1{stroke:#000;stroke-miterlimit:10;stroke-width:4px;}</style></defs><g id="レイヤー_2" data-name="レイヤー 2"><g id="レイヤー_1-2" data-name="レイヤー 1"><g id="_1列目" data-name="1列目"><path class="cls-1" d="M54.81,57.94a188.81,188.81,0,0,1-40,18.75,34.69,34.69,0,0,1-9.37,1.87C3.25,78.56,2,77.94,2,77c0-1.88,3.12-5,9.69-8.44A278.19,278.19,0,0,0,80.12,17c1.57-1.56,3.76-6.25,4.69-12.19C85.12,2.94,86.06,2,87.31,2c3.13,0,16.88,12.19,16.88,18.12a3,3,0,0,1-1.25,2.82C92,32.31,81.69,40.12,72,47l.94,51.56c0,3.13-1.56,5.63-5,5.63-1.88,0-15-3.13-15-9.38a23.33,23.33,0,0,1,.62-3.75c1.56-6.87,1.56-11.25,1.56-18.12Zm-20,179.68H30.75a19.29,19.29,0,0,1-4.37-.31c-9.38-.93-13.13-10.62-13.13-15,0-1.25.63-1.87,1.56-1.87.63,0,.94.31,1.57.31a58.67,58.67,0,0,0,14.68,1.56l96.56-3.12.32-15.31-49.69,1.87c-1.56,0-3.44.31-5,.31-3.75,0-7.19-.62-8.75-2.18-6.56-6.57-7.19-10.63-7.19-11.88,0-.94.63-1.25,1.57-1.25a6.13,6.13,0,0,1,2.18.31,45.94,45.94,0,0,0,11.25,1.25l55.63-2.19V176.69l-49.06,2.19v.93c0,2.5-1.26,5-5.32,5-6.25,0-13.12-2.5-13.12-9.37v-.94a28.87,28.87,0,0,0,.31-5c0-3.44-.31-6.25-.63-9.69L57.62,127c-.62-7.5-2.18-11.88-4.37-15.31A5.6,5.6,0,0,1,52,108.88c0-1.26,1.25-1.88,3.75-1.88,3.44,0,9.06,1.25,17.81,3.75l131.25-6.87h2.81c6.88,0,14.69,5.93,14.69,10.62,0,2.19-1.25,3.75-1.56,5.94l-6.25,38.75c5,5.31,7.19,8.75,7.19,10.93s-2.19,2.82-6.25,3.13l-70,2.81V189.5l48.44-1.88a37.8,37.8,0,0,0,10.62-1.56,6.93,6.93,0,0,1,2.5-.31c6.56,0,14.06,10,14.06,11.87,0,2.19-2.81,2.82-6.56,3.13l-69.06,2.5-.32,15.31L237,215.75a31.17,31.17,0,0,0,10.94-1.87,4.51,4.51,0,0,1,2.18-.32c3.13,0,14.07,7.82,14.07,12.5,0,2.5-2.81,3.75-6.25,4.06ZM15.12,276.06c0-2.18,1.26-4.37,4.69-6.56a122.07,122.07,0,0,0,25.94-24.69c2.19-2.81,3.44-4.37,5.63-4.37,1.24,0,3.12.62,5.31,2.5,3.12,2.18,4.37,4.06,4.37,5.94,0,6.24-29.68,38.43-35.94,38.43C20.12,287.31,15.12,278.56,15.12,276.06ZM128.56,122,74.5,124.5l.94,13.12,52.81-2.18Zm-.31,25.94-51.56,2.5.93,14.68,50.63-2.18ZM112,284.19c-2.19,0-3.75-1.88-5.62-5.31a159.31,159.31,0,0,0-17.19-25.63c-1.57-2.19-2.81-3.75-2.81-5.31,0-3.75,7.5-8.13,8.74-8.13,4.38,0,28.13,28.13,28.13,34.38C123.25,277,117.31,284.19,112,284.19ZM268.88,68.56c-1.57,37.5-6.88,41.56-15.94,41.56-5.94,0-58.13-5.62-96.88-47.5l-47.18,6.57a32.53,32.53,0,0,1-5.32.31c-8.44,0-13.12-5-16.25-11.25A2.38,2.38,0,0,1,86.69,57a2.69,2.69,0,0,1,2.5-2.5h.31a51.14,51.14,0,0,0,6.56.31,89.34,89.34,0,0,0,9.38-.62l41.87-5.63a165.34,165.34,0,0,1-14.06-31.25c-.94-2.5-3.75-7.81-6.56-10.62-.94-.94-1.25-1.57-1.25-2.19,0-1.25,2.18-1.88,5.94-1.88,7.18,0,15.93.63,17.81,7.19a133.2,133.2,0,0,0,15.93,35.94L226.69,37c4.37-.62,9.69-2.81,13.75-4.38a4.52,4.52,0,0,1,2.18-.62c4.38,0,15.63,6.25,15.63,11.56,0,2.19-1.56,4.06-5.94,4.69L175.44,59.81c33.44,26.88,70.31,31.25,71.87,31.25,3.44,0,9.07-12.81,12.5-24.68,1.88-6.57,4.07-10,5.94-10s3.13,3.12,3.13,9.68ZM172.94,283.25c-2.19,0-3.75-1.87-5.94-5A193.26,193.26,0,0,0,147,252c-1.88-1.88-2.81-3.44-2.81-5,0-1.25,4.69-8.75,8.75-8.75s31.56,28.44,31.56,34.37C184.5,277.62,174.19,283.25,172.94,283.25Zm28.75-165-55.63,2.81-.31,13.44,54.69-2.5Zm-2.5,26.25-53.44,2.81V162l51.87-2.19Zm6.56-111.25a325.24,325.24,0,0,0-37.81-14.69c-2.82-.94-4.38-1.87-4.38-4.37a15.64,15.64,0,0,1,.94-4.69c1.25-3.75,2.5-5.31,5.31-5.31.94,0,20.94,4.69,43.75,13.75,3.75,1.56,5.63,3.12,5.63,5.94,0,2.5-2.19,10.93-7.81,10.93A12.7,12.7,0,0,1,205.75,33.25Zm45.94,251.87c-2.19,0-4.07-1.56-6.88-4.37a278,278,0,0,0-35.31-30c-2.19-1.56-3.12-2.81-3.12-4.37,0-3.13,5-10,8.43-10,4.07,0,47.19,29.06,47.19,36.87,0,1.87-1.25,4.06-3.75,7.19S253.56,285.12,251.69,285.12Z"/><path class="cls-1" d="M418.42,228.52l.13,53.75c0,2.37-.88,3.37-2.25,3.37-.88,0-7.5-2.25-7.5-6.12a5.85,5.85,0,0,1,.12-1.38,39.46,39.46,0,0,0,.88-7.5V228.89l-40.38,2c-1.25,0-2.37.13-3.25.13a6.76,6.76,0,0,1-4-.88,10.74,10.74,0,0,1-3.87-6.87.66.66,0,0,1,.75-.75,3.71,3.71,0,0,1,1,.25,16.93,16.93,0,0,0,5.12.62h1.5l43.13-2.12v-27.5c-10.13,2-20.25,3.5-29.75,4.5-.5,0-1,.12-1.38.12-2.37,0-3.62-.75-3.62-1.62s1.37-1.88,4.37-2.5c20.5-4.13,41.5-10.13,54.75-16.38a10.85,10.85,0,0,0,4.13-3.75c.37-.62.87-1.12,1.37-1.12,2.13,0,6,6.62,6,9.25a2.08,2.08,0,0,1-1.37,2.12A217.32,217.32,0,0,1,418.42,192v28.87l36.88-1.75a18.35,18.35,0,0,0,5.12-1,2.23,2.23,0,0,1,.88-.12c2.62,0,7.5,4.5,7.5,6.25,0,1.25-1.38,1.87-3.25,2Z"/><path class="cls-1" d="M560.55,251.89l.12,24.75c0,1.75.25,3.13.25,4.25a5.17,5.17,0,0,1-5.12,5.25c-5.63,0-24.5-9.62-24.5-12.12,0-.63.5-.88,1.5-.88a9.38,9.38,0,0,1,2.75.5A121.67,121.67,0,0,0,552.92,277l-.25-24.88-60.5,2.25h-3.25c-5.25-.37-6.87-5.75-6.87-7.12a.46.46,0,0,1,.5-.5c.12,0,.25.12.5.12a22,22,0,0,0,5.75.88h.87l63-2.38a9.09,9.09,0,0,0-1.37-4.5,2,2,0,0,1-.38-1.12c0-.5.5-.88,1.38-.88,1.12,0,8.12.75,8.12,4.75v1.5l22.13-.87a16.23,16.23,0,0,0,5.12-1,3.54,3.54,0,0,1,1.13-.25c2.12,0,6.5,4.12,6.5,5.87,0,1.13-1.25,1.63-2.75,1.75ZM519.05,223l-.13,9.37c5.75-.75,11.13-1.5,16-2.25a20.36,20.36,0,0,1,2.38-.25c1.62,0,2.5.38,2.5.88,0,3.75-40.5,11.37-44.75,11.37a3.13,3.13,0,0,1-2.88-1.12c-1.62-1.88-3.12-4.13-3.5-6v-.25c0-.5.25-.63.63-.63h.37a27.78,27.78,0,0,0,5.5.5h1.5c4.75-.37,9.88-.87,14.88-1.37l.12-9.75-6.75.37c-1.62.13-3.12.25-4.25.25-4,0-6.25-5.25-6.25-6.12,0-.5.38-.63,1-.63h.5a26.21,26.21,0,0,0,5.88.63h1.12l22.38-1.38a16.56,16.56,0,0,0,4.62-1.12,1.53,1.53,0,0,1,.75-.13c2.5,0,6.38,4.25,6.38,5.25s-1.13,1.38-2.63,1.5Zm-6.25-11.38c-1.25,0-2.38.13-3.38.13h-.62c-3,0-4.5-3-5.75-5.5a2.92,2.92,0,0,1-.38-1.13c0-.37.25-.62.75-.62a2.25,2.25,0,0,1,.75.12,19.4,19.4,0,0,0,4.63.63c.62,0,1.25-.13,1.87-.13l50.88-2.5.75-7.12-45.25,2.62c-1.13,0-2.38.13-3.5.13a6.52,6.52,0,0,1-6.63-5.63c0-.37.13-.62.63-.62a1.64,1.64,0,0,1,.75.12,12.15,12.15,0,0,0,3.12.25,29.43,29.43,0,0,0,3.5-.12l48-2.63.75-6.62-51.75,3.12c-.87,0-1.87.13-2.87.13-3.25,0-5-.38-7-4.5l-.38-1.13a4,4,0,0,1-.25-1c0-.37.25-.5.63-.5a2.32,2.32,0,0,1,.87.13,26,26,0,0,0,5.88.62h1l56.12-3.37h1c3.13,0,5.63,2,5.63,4.25,0,1.37-.88,2.5-1,3.25l-2.75,18c2.5,2.75,3.5,4.37,3.5,5.25,0,1.12-1.38,1.37-3.5,1.5Zm13.37,59.25a110.22,110.22,0,0,0-13.87-9c-1.5-.87-2.25-1.5-2.25-2.37,0-1.38,1.87-4.25,3.25-4.25a5.68,5.68,0,0,1,2.12.62c14.38,7,16.25,8.5,16.25,10.38,0,1.25-1.87,5.5-3.62,5.5A3.24,3.24,0,0,1,526.17,270.89Zm25-34.37.13.87v.38c0,1.12-.5,2-1.75,2,0,0-6-.5-6-5v-2.38c0-1.25-.13-2.5-.25-3.75l-.75-6.87a14.23,14.23,0,0,0-1.63-5.25,3.56,3.56,0,0,1-.62-1.5c0-.63.5-.88,1.37-.88,1.25,0,3.63.5,7.75,1.88l28.5-1.5a7.47,7.47,0,0,1,1.63-.13,4.69,4.69,0,0,1,4.37,4.13,7.25,7.25,0,0,1-.75,2.62l-2.37,8.38c2.25,2.25,3.12,3.62,3.12,4.5,0,1.12-1.5,1.25-3.37,1.37Zm24.75-16.13L549.55,222l1,8.87,23.87-1Z"/></g></g></g></svg>