<svg xmlns="http://www.w3.org/2000/svg" viewBox="0 0 1029.21 280.64"><g id="レイヤー_2" data-name="レイヤー 2"><g id="レイヤー_1-2" data-name="レイヤー 1"><g id="_4列目" data-name="4列目"><path d="M41.25,101.88c-3.75.31-6.87.62-9.69.62-4.06,0-10.31-.62-17.18-15.31a7.14,7.14,0,0,1-.94-2.81c0-.94.94-1.57,2.5-1.57.62,0,1.56.31,2.5.31a82.4,82.4,0,0,0,12.18.94h4.07l60.93-4.37h3.76c7.5,0,15.31,5.93,15.31,11.56,0,4.37-3.75,7.19-4.07,8.44C91.56,158.75,60,204.38,10,238.75q-4.21,2.81-6.56,2.81c-2.19,0-3.44-1.25-3.44-3.12s1.25-4.69,4.06-7.19c41.56-40,69.69-82.81,83.75-132.5Zm93.44-80.32c0-6.56-2.5-11.25-5.63-15.94a5.78,5.78,0,0,1-1.25-3.43c0-1.57,1.25-2.19,3.75-2.19,6.88,0,25,5.31,25,12.5L156.25,80c6.87,10.94,14.06,21.56,20.94,30.94C202.81,91.88,231.56,64.38,233.75,50c.31-3.12,1.56-4.38,3.44-4.38,5.31,0,16.87,13.44,16.87,19.07,0,6.25-43.44,44.37-66.56,60.93C216.56,165,250.31,197.5,290,220.31c3.75,1.88,5.31,3.44,5.31,5,0,3.75-14.37,13.44-19.06,13.44a8.34,8.34,0,0,1-4.37-1.56c-45.63-33.44-83.13-73.75-115.63-124.07l-.31,133.13c0,4.37.31,8.13.31,11.87,0,5.32-.94,9.69-5.94,13.76a13.74,13.74,0,0,1-9.06,3.43c-14.69,0-68.44-34.69-68.44-43.12,0-1.88,1.25-2.81,3.44-2.81a12.86,12.86,0,0,1,5.94,1.56c18.75,8.75,34.37,14.37,52.5,17.81Z"/><path d="M323.58,231.39c-5.25,37.75-24.5,49.25-26.75,49.25a.78.78,0,0,1-.87-.87c0-1,.75-2.75,2.37-5,15.5-22.25,18.25-43.75,18.25-63.63,0-2-.12-4.25-.12-6.5,0-2.62,0-6-1-8.12a5.08,5.08,0,0,1-.63-2c0-.5.25-.88,1.13-.88,1.5,0,4.37,1,9.62,3.25l61.88-4h1a6,6,0,0,1,6,5.13c0,1.25-.88,2.25-1,3.25L390,221c2.62,2.87,3.75,4.5,3.75,5.62,0,1.38-1.75,1.63-4.38,1.75Zm-8.37-47.62c-.88,0-1.63.12-2.38.12-2.12,0-3.5-.37-4.12-.87-.25-.25-3.5-4.5-3.5-6.88,0-.5.25-.75.62-.75a1.53,1.53,0,0,1,.75.13,29.44,29.44,0,0,0,5.88.75h.62L390,171.52a22.8,22.8,0,0,0,4.87-1,3.6,3.6,0,0,1,1.25-.25c2.5,0,7.25,3.87,7.25,6.25,0,1.12-1.5,1.75-3.75,1.87Zm69.87,17.12-59.87,3.75c0,7-.25,12.88-.75,18.88l57.5-2.88Z"/><path d="M429.58,225.14h-2.12c-2,0-3.5-.12-4.38-1-1.12-1.37-3.12-4.37-3.12-5.75a.66.66,0,0,1,.75-.75,2.32,2.32,0,0,1,.87.13,19.28,19.28,0,0,0,4.75.62h1L457.46,217c5.87-11.13,7.87-16,7.87-20.63v-.87c0-.38-.12-.63-.12-1,0-.88.37-1.38,1.12-1.38s2.75.88,6.13,3.38c1.25,1.12,1.62,2,1.62,2.75a1.75,1.75,0,0,1-.25.87,161.74,161.74,0,0,1-9.37,16.5l12.62-.62a29.52,29.52,0,0,0,6-1,1.53,1.53,0,0,1,.75-.13c1.25,0,6.25,2.63,6.25,5.25,0,1.25-1.25,2-3,2.13Zm5.5-31.12a21.05,21.05,0,0,1-2.62.12c-6,0-6.5-6.62-6.5-6.62,0-.75.37-1,.87-1a2.25,2.25,0,0,1,.75.12,17.84,17.84,0,0,0,4.75.75h.75l17.5-1-.25-10.25a11.77,11.77,0,0,0-1.62-5.25,1.65,1.65,0,0,1-.38-1c0-.62.63-.87,2-.87a17.79,17.79,0,0,1,3.88.5c3.37.75,4,1.37,4,3.87l-.13,12.5,14-.87a22.21,22.21,0,0,0,4.25-.75,2.68,2.68,0,0,1,1-.13c1.5,0,6.25,3,6.25,5.5,0,1-1.12,1.5-2.62,1.63Zm9.13,74.75.37,4.75v.5c0,1.75-.5,2.62-1.87,2.62-2,0-6.63-1.87-6.63-5,0-.37.13-.62.13-1a39.1,39.1,0,0,0,.37-4.87c0-.75-.12-1.5-.12-2.25l-1.75-20.63a26.55,26.55,0,0,0-1.38-6.5,9.42,9.42,0,0,1-.75-2.25c0-.62.38-1,1.25-1,1.38,0,4,.88,8.63,2.75l28.62-1.37h.63c3.62,0,6,2.5,6,4.25,0,1-.88,1.87-1,3L474,261.52c2.12,2.5,3,4.12,3,5,0,1.37-1.5,1.5-3.13,1.62Zm1.62-52.25c-1.25,0-1.87-.88-2.5-2.75a83.88,83.88,0,0,0-6.62-13.5,3.31,3.31,0,0,1-.63-1.75c0-.75.5-1.5,1.75-2.38a4.37,4.37,0,0,1,2.13-.75,2.8,2.8,0,0,1,2.25,1.38c4.37,6.25,8.62,14.87,8.62,16.25C450.83,215,447.58,216.52,445.83,216.52Zm22.75,24.87-26.25,1.13,1.38,19.37,22.87-.5Zm22.13,31.25a76.11,76.11,0,0,0,.87-11.62l.25-71.13c0-6,0-9.37-1.37-12.62a9.89,9.89,0,0,1-.88-2.88c0-.62.25-.87,1-.87,1.38,0,4.13,1,9.38,3.12l23.5-1.62h1c2.87,0,6.25,1.75,6.25,3.75,0,1.25-1.38,2.37-1.75,3.12a186.88,186.88,0,0,1-13.75,23.38,2.21,2.21,0,0,0-.5,1.25,2.57,2.57,0,0,0,1.25,1.87c6,5.38,16,14.63,16,28.88,0,7.12-2.38,14.37-7.25,14.37-6.13,0-23.75-11.62-23.75-14.75,0-.5.37-.87,1.25-.87a10.75,10.75,0,0,1,3.5,1,91.26,91.26,0,0,0,15.87,5.37,2.07,2.07,0,0,0,.88.13c1.37,0,1.75-4.5,1.75-6.13,0-2.5-.63-5-1.88-8.62-2.5-6.75-7.37-11.5-13.75-17a4.71,4.71,0,0,1-1.87-3.5,7.25,7.25,0,0,1,1.5-3.88,171.82,171.82,0,0,0,12.62-21.75l-21.5,1.25v93.63c0,1.5-.5,2.62-2,2.62s-6.62-2.12-6.62-5.5Z"/><path d="M678.33,263c-1.62-.13-7.87-2.25-7.87-4.25,0-.5.37-1,1.25-1.5a13.88,13.88,0,0,0,4.25-3.88A349.18,349.18,0,0,0,696.58,220c1.5-2.75,2.88-4,3.75-4,.63,0,1,.62,1,1.75,0,3.12-8.12,22.87-17.87,40.37C682,261,680.71,263,678.71,263Zm14.13-59.25a153.71,153.71,0,0,0-14.38-14.13c-1-.87-1.62-1.5-1.62-2.37,0-1.63,2.62-4.13,3.87-4.13,2,0,19.75,14.5,19.75,17.38,0,2.37-3.75,5.25-4.62,5.25S693.58,205,692.46,203.77Zm2,70.87c-.88,0-1.38-.25-1.38-.75s.75-1.62,2.63-2.5c7.12-3.62,19.5-11.87,22.12-17.87.5-1.25,1.13-2,2-2,2,0,5.75,5,5.75,6.75C725.58,260.77,701.83,274.64,694.46,274.64Zm50.62-24.75v19.88c0,1.37.25,2.5.25,3.62,0,4.13-4.12,6-5.5,6-3.12,0-16.87-9.75-16.87-12.62,0-.5.37-.75,1.12-.75a8.58,8.58,0,0,1,3.13.87,82.09,82.09,0,0,0,10.37,3.5l-.12-20.25-31,1.13c-1.13,0-2.13.12-3,.12a6.89,6.89,0,0,1-1.63-.12c-2.75,0-4.5-4.38-5-5.75a1.18,1.18,0,0,1-.12-.63c0-.37.25-.5.62-.5a5.59,5.59,0,0,0,.63.13,29.34,29.34,0,0,0,5,.5h1.12l71.5-2.38a10.37,10.37,0,0,0,4-.87,2.88,2.88,0,0,1,1-.25c2.5,0,5.88,4.37,5.88,5.37s-1.13,1.38-2.63,1.5Zm-37.5-66a16.9,16.9,0,0,1-2.5.13,8.88,8.88,0,0,1-4-.63c-2-1.37-3.37-3.5-3.37-4.87,0-.38.25-.5.62-.5h.5a17.81,17.81,0,0,0,3.88.37c.87,0,1.75-.12,2.75-.12l30.37-1.75-.12-5.5c0-1.88-.38-4-1.5-5.25a3,3,0,0,1-.75-1.38c0-.62.62-.87,1.75-.87,2.75,0,8.37,1.25,8.37,4.25V168l-.37,8.12,24.87-1.62a18.89,18.89,0,0,0,5.88-1.13,4.37,4.37,0,0,1,1.75-.37c2.5,0,6.62,3.37,6.62,5,0,1.12-1.37,1.62-3.12,1.75Zm10.63,42.63v.75c0,1.87-.38,2.5-1.38,2.5-.25,0-6.12-.88-6.12-4.5,0-.38.12-.75.12-1.25a29.87,29.87,0,0,0,.25-3.13,27.88,27.88,0,0,0-.25-3L709,195.64a16.15,16.15,0,0,0-2-6.12,5.1,5.1,0,0,1-.88-2c0-.38.25-.63,1-.63,1.25,0,3.88.63,8.75,2.38L768.21,186h.62c1.38,0,6,1.87,6,4.87,0,1.13-.75,2-.87,2.75l-3.63,24.25c2.63,2.25,3.5,3.75,3.5,4.5,0,1.13-1.5,1.25-3.12,1.38Zm3.12,11.87h-2c-2.25,0-3.62-.12-4.37-.87a9.57,9.57,0,0,1-3.13-4.5c-.12-.13-.12-.25-.12-.5s.25-.5.75-.5h.37a20.73,20.73,0,0,0,4.75.5h1.5l42.75-1.88a10.37,10.37,0,0,0,4-.87,2.68,2.68,0,0,1,1-.13c3,0,6,4.5,6,5.13,0,.87-1.25,1.25-2.75,1.37Zm45.13-46.75-50.63,3.13,2,26.25,45.75-2.5Zm-33.88,23V215a1.58,1.58,0,0,1-1.75,1.75c-1.25,0-4.75-1-4.75-3.25a3.36,3.36,0,0,1,.13-1.13,8.69,8.69,0,0,0,.25-1.75,15.25,15.25,0,0,0-.25-2l-.63-3.62a20.38,20.38,0,0,0-1.37-5.13,3.38,3.38,0,0,1-.63-1.5c0-.37.25-.62,1-.62,1,0,3,.5,6.75,1.75l18.75-1.25h1c3,0,4.88,2.25,4.88,3.5a10.19,10.19,0,0,1-.75,2.37l-1.25,5c1.87,1.75,2.5,2.75,2.5,3.38s-1.13.87-2.63,1ZM749.21,203l-17.88,1.12.75,6.13,16.38-1Zm26.87,69.75A128.33,128.33,0,0,0,756,259.27c-1.25-.75-1.88-1.38-1.88-2.13,0-1.25,1.88-4.37,3.5-4.37s15.63,7.5,23.25,13.5a4.07,4.07,0,0,1,1.88,3c0,1.25-1.75,4.75-4,4.75A4.2,4.2,0,0,1,776.08,272.77Z"/><path d="M903.83,275.52a281.51,281.51,0,0,1-76.25-18.13,37.84,37.84,0,0,0-13.37-2.62,33.25,33.25,0,0,0-11.25,2,3.86,3.86,0,0,1-1.63.37c-2.25,0-3.62-3.12-3.62-4.87s.87-2.5,2.87-3.13A44.15,44.15,0,0,1,813.46,247c1.25,0,2.5.12,3.87.25,26.75-14.5,45.63-29.25,62.13-43.5l-57.25,4.75c-1.75.12-3.13.37-4.38.37-1,0-4.25,0-6.37-5.87a4.4,4.4,0,0,1-.38-1.5c0-.63.38-.88,1-.88a1.53,1.53,0,0,1,.75.13,21.32,21.32,0,0,0,5,.62,11.14,11.14,0,0,0,2-.12L848,199l-.38-20a12.81,12.81,0,0,0-1.12-5.13,2.29,2.29,0,0,1-.5-1.37c0-.63.62-1,1.62-1a14.15,14.15,0,0,1,4.25,1c3.5,1.25,4,1.75,4,3.75v22.12l27-2.25a26.36,26.36,0,0,1,2.88-.12c3.25,0,6.5,3,6.5,5.62,0,1.5-1.25,2.63-2.13,3.38A354.75,354.75,0,0,1,828,249.64c25,9.25,51.75,16.63,80.25,17.25,1.87.13,2.75.38,2.75,1.25,0,0-1.75,7.38-6,7.38Z"/><path d="M977.58,246.64a5.55,5.55,0,0,1,1.88-.25c1.25,0,2,.5,2,1.13,0,.87-1,1.87-3.13,2.87-30.75,13.25-52,17.5-52,17.5a3.73,3.73,0,0,1-2.37-.75,14.25,14.25,0,0,1-5-5.87,4.4,4.4,0,0,1-.25-1.13c0-.62.62-.87,1.75-.87h.87a51.79,51.79,0,0,0,11.5-1.63l-.62-67.25c0-3-.13-4.75-1-6.37a5.85,5.85,0,0,1-.88-2.25c0-.5.25-.88,1.13-.88,1.25,0,3.75.75,8.12,2.38L962,181.64c.75,0,1.37-.12,1.87-.12,1.88,0,5,2,5,4.5,0,1.12-.5,1.87-.5,2.62l-.5,60.63Zm-17-58-21,1.38.13,15.5,20.87-1.13Zm-.12,22.63-20.75,1.12.12,15.88L960.46,227Zm0,22.62L940,235l.12,21.25c6.25-1.38,12.75-3,20.25-4.88Zm43.75-26.37c-4.63,33.12-15.63,53.62-36.63,69a5.69,5.69,0,0,1-3,1.25c-.75,0-1.12-.38-1.12-1a4.63,4.63,0,0,1,1.62-2.75c13.5-13.25,26.75-31.88,31-66.13l-10.75.63c-1.62.12-3,.25-4.12.25-3,0-4.75-3-6.38-6a2.86,2.86,0,0,1-.37-1.13c0-.5.37-.75,1-.75a1.8,1.8,0,0,1,.75.13,22.52,22.52,0,0,0,5.12.5h1.5l14.13-.75c.75-7.5,1-14.75,1-21.13v-3.5a11.56,11.56,0,0,0-1.13-5.62,3.06,3.06,0,0,1-.5-1.5c0-.5.5-.75,1.38-.75.37,0,8.87.25,8.87,4.62a258.21,258.21,0,0,1-1.5,27.38l17.13-1h1.12c3.25,0,5.88,2.37,5.88,4.5,0,1.37-.88,2.5-.88,3.37-.75,21.5-3.87,42-6.25,56.13-.75,4.5-2.37,14.62-8.75,14.62a7.93,7.93,0,0,1-4.5-1.75c-7.12-5.12-17.62-14.37-17.62-16.62,0-.5.37-.88,1.12-.88a7.34,7.34,0,0,1,3.13,1.13c6.5,3.75,9.87,5.87,15.87,8.12a1.32,1.32,0,0,0,.63.13.66.66,0,0,0,.75-.75c4-12.75,7.62-40,7.87-60.75Z"/></g></g></g></svg>