<svg xmlns="http://www.w3.org/2000/svg" viewBox="0 0 781.14 288.95"><defs><style>.cls-1{stroke:#000;stroke-miterlimit:10;stroke-width:4px;}</style></defs><g id="レイヤー_2" data-name="レイヤー 2"><g id="レイヤー_1-2" data-name="レイヤー 1"><g id="_3列目" data-name="3列目"><path class="cls-1" d="M147,196.69c36.25,35.62,75.62,59.69,127.5,70.31,3.12.62,4.69,1.88,4.69,3.75,0,3.75-10.31,15.94-15,15.94-4.07,0-80.31-20-133.13-83.13C95.44,272.94,9.19,286.69,6.69,286.69c-3.13,0-4.69-1.25-4.69-2.81s1.88-3.76,5.94-5.32c42.5-16.56,82.81-42.81,104.37-80l-80,3.44c-2.81,0-5.31.31-7.5.31-14.69,0-19.06-15-19.37-15.93a7.81,7.81,0,0,1-.63-2.19,1.49,1.49,0,0,1,1.57-1.57,3.33,3.33,0,0,1,1.56.32,42.73,42.73,0,0,0,14.68,2.18h3.13l92.81-4.37a183,183,0,0,0,4.06-24.69l-39.68,2.19a58.55,58.55,0,0,1-6.88.31c-2.81,0-13.44,0-17.18-15.94a5.34,5.34,0,0,1-.32-1.87c0-1.25.63-1.87,1.56-1.87.32,0,.63.31,1.26.31,5.62,1.56,10,2.5,15.31,2.5h2.5l44.69-2.5c.31-7.5.62-15.31.62-22.81L69.19,119.5a74.26,74.26,0,0,1-7.81.31c-5.63,0-12.82-.93-16.26-15.62a3.44,3.44,0,0,1-.31-1.57c0-.93.31-1.56,1.25-1.56a2.74,2.74,0,0,1,1.56.32,46.24,46.24,0,0,0,13.13,1.56H64.5l60-3.75c0-6.57-.31-12.81-.31-18.44,0-4.06-2.19-7.81-4.07-10.94a4.14,4.14,0,0,1-.93-2.19c0-1.56,1.87-2.5,4.69-2.5,3.74,0,20.62.94,20.62,10V97.94l48.12-2.82A73.35,73.35,0,0,0,207,92.94a13,13,0,0,1,3.44-.63c5,0,15.62,7.19,15.62,13.44,0,2.81-2.5,5-6.87,5.31l-74.69,4.06-.94,23.13,36.25-1.87A59.53,59.53,0,0,0,192,134.19a10.36,10.36,0,0,1,4.69-.94c8.43,0,15.93,11.25,15.93,13.75,0,3.12-3.12,4.38-7.18,4.69l-63.13,3.43a187.53,187.53,0,0,1-3.43,24.69l91.87-4.06a43.57,43.57,0,0,0,13.75-3.13,4.66,4.66,0,0,1,2.19-.31c5,0,16.87,9.07,16.87,15,0,3.13-3.75,4.69-7.5,5ZM46.69,64.81c-15,41.57-19.69,41.88-22.19,41.88-4.06,0-13.44-4.69-13.44-9.69a9,9,0,0,1,1.25-3.75c9.07-15,18.75-39.06,23.75-56.25,1.25-4.38,2.82-6.25,6.25-6.25,2.81,0,12.5,1.56,12.5,7.81A16.23,16.23,0,0,1,54.19,42l-1.88,6.56,70-4.37L122,20.44c0-4.06-1.56-7.82-4.69-12.5a5.87,5.87,0,0,1-1.25-3.44c0-1.56,1.56-2.5,4.69-2.5,9.37,0,22.19,4.06,22.19,10.31l-.32,30.63L244.5,37h2.19c7.5,0,15.93,6.25,15.93,11.25,0,3.44-4.37,5.63-6.56,8.44C239.81,78.25,222,92,217.62,92c-1.56,0-2.18-.62-2.18-2.19,0-2.19,1.56-5.31,4.68-9.69A137.77,137.77,0,0,0,234.81,54.5Z"/><path class="cls-1" d="M306,227.33a102.09,102.09,0,0,0-15.75-12.75c-1.13-.75-1.75-1.38-1.75-2.25,0-.63,1.62-4.13,3.12-4.13,2,0,12.13,7.13,19.5,12.75,1.38,1,2,1.88,2,2.88,0,2-3.12,5-4.5,5C307.77,228.83,307,228.33,306,227.33Zm-8.13,53.87c-3.5-.37-7.87-2.12-7.87-3.75,0-.37.37-.75,1-1.25a13.31,13.31,0,0,0,4.5-4.62c5.87-10.38,12.5-22.88,16.87-32.88,1.25-2.75,2.5-4,3.25-4s1.13.75,1.13,2.13c0,3.12-5.38,20.25-13.75,38.12-2,4.25-3.38,6.25-5,6.25Zm16.38-81.37c-.88,0-1.63-.63-2.63-1.75A116.33,116.33,0,0,0,297.52,184c-1.13-.87-1.63-1.5-1.63-2.25,0-.5,1.38-3.87,3.63-3.87,2.5,0,19.62,14.75,19.62,17.25C319.14,197.08,315.39,199.83,314.27,199.83Zm50.62,35.75-20.25,1.12-.75,5.38c9,9.62,19.63,22.37,19.63,25.25,0,2.12-3.25,4.5-5,4.5-.88,0-1.63-.75-2.5-2.25a103.4,103.4,0,0,0-14-20,53.24,53.24,0,0,1-25.88,31.25,5.76,5.76,0,0,1-2.25.75c-.62,0-1-.25-1-.75s.63-1.38,1.75-2.38c16.25-13.5,21-29,22.88-41.37l-10.13.62a30.55,30.55,0,0,1-3.12.13c-5.88,0-7-6.63-7-6.88,0-.5.25-.75.62-.75a1.11,1.11,0,0,1,.63.13,19.06,19.06,0,0,0,5,.87h.62l14-.75c.13-3.25.25-7.37.25-11.37V215l-8.25.63c-1.37.12-2.37.12-3.12.12-5.88,0-7-6.62-7-6.87,0-.5.25-.75.62-.75a1.18,1.18,0,0,1,.63.12,19.1,19.1,0,0,0,5,.88h.62l14-.88c5.25-8.5,12.13-21.87,12.13-27.5v-.62c0-1,.25-1.5,1-1.5,1.87,0,7.25,3.5,7.25,6.25a2.45,2.45,0,0,1-.38,1.25,179.77,179.77,0,0,1-13.25,21.75l3.5-.25a21.76,21.76,0,0,0,5.88-1,6,6,0,0,1,1.5-.25c2.75,0,6.12,3.75,6.12,5.37,0,1-.87,1.63-2.37,1.75H362l-16.38,1v3.88c0,4-.12,8.25-.37,11.87l8.75-.5a21,21,0,0,0,5.87-1,9.14,9.14,0,0,1,1.63-.25c2.25,0,6,3.25,6,5.38,0,1-.88,1.62-2.38,1.75Zm-29.12-30.75c-1,0-1.63-.75-2.38-2.13A88.52,88.52,0,0,0,324.14,189a3.37,3.37,0,0,1-1-2c0-.75.5-1.37,1.63-2.37a3.77,3.77,0,0,1,2.25-1.13c2.25,0,13.5,15.38,13.5,17.38S337.27,204.83,335.77,204.83Zm51.62-24.63a9.07,9.07,0,0,0-2.25-5.75,1.22,1.22,0,0,1-.25-.75c0-.5.38-.62,1.25-.62,2,0,9.13.75,9.13,4.25L395,274.58c0,1.62.12,3.12.12,4.5,0,7.12-6,7.87-6.37,7.87-3.88,0-21.88-14.12-21.88-17.75,0-.5.25-.75.88-.75a8.58,8.58,0,0,1,3.75,1.38,76.15,76.15,0,0,0,15.62,7.25Zm-17.75,21.5a10.8,10.8,0,0,0-1.75-5.62,6.11,6.11,0,0,1-.25-.75c0-.5.38-.63,1.13-.63,1.12,0,8.12.5,8.12,4.13l.5,57.12c0,2-.75,3.38-2.25,3.38s-6.12-2.13-6.12-5a3.63,3.63,0,0,1,.12-1.13,40.75,40.75,0,0,0,.63-8.37Z"/><path class="cls-1" d="M557.27,227.33l-5.75.37c-1.25.13-2.38.25-3.38.25a3.57,3.57,0,0,1-1.12-.12c-1.63,0-4-2.5-5.13-5.25a2.86,2.86,0,0,1-.37-1.13c0-.5.37-.75.87-.75a2.63,2.63,0,0,1,1,.13,21.14,21.14,0,0,0,4.13.37H549l8.37-.62.13-23.13-7.63.5c-1.37.13-2.5.25-3.5.25-3.87,0-6-3.87-6.5-5.37a6.86,6.86,0,0,1-.25-1.13c0-.5.25-.75.88-.75a2.32,2.32,0,0,1,.87.13,19.07,19.07,0,0,0,3.75.37c.75,0,1.5-.12,2.13-.12l24.5-1.38a16.7,16.7,0,0,0,4.75-1,3.8,3.8,0,0,1,1.25-.25c2.5,0,6.25,4.38,6.25,5.5s-1.25,1.63-2.88,1.75l-16,1-.25,23.13,4.25-.25a16.4,16.4,0,0,0,4.75-1,3.54,3.54,0,0,1,1.13-.25c1.5,0,6.37,3.5,6.37,5.5,0,1.12-1.37,1.62-3,1.75l-13.5.87L564.64,252c5.63-1.87,11.38-4.37,16.5-6.62a10.28,10.28,0,0,1,3.38-1c.87,0,1.5.37,1.5.87,0,.88-1,2.13-3.25,3.5-16.25,10.38-37,20.25-40.38,20.25-1.37,0-2.87-.62-6.12-6.37a2,2,0,0,1-.5-1.25c0-.63.5-1,1.62-1.13,5.75-.62,10.75-2.12,19.75-5.37ZM576.14,239a.85.85,0,0,1-.87-.87c0-.88.62-2.13,1.87-3.88,21.63-28.75,31.38-54,31.38-59.62,0-.38-.13-.75-.13-1a3.24,3.24,0,0,1-.12-1c0-1.13.5-1.63,1.37-1.63,1.25,0,8.63,3.25,8.63,5.88a3.27,3.27,0,0,1-.38,1.37c-.87,2.25-1.75,4.5-2.75,6.63,11.5,15.62,25.13,30.37,39.5,41.87,1.13.88,1.63,1.63,1.63,2.13s-.38,1-1.13,1.5c-3.12,2.12-4.62,2.75-5.5,2.75a1.73,1.73,0,0,1-1.12-.38c-13.38-11.25-26.25-26.37-36.63-40.62C597.77,221.33,579.27,239,576.14,239Zm20.63,5.38c-1.38.12-2.63.25-3.75.25a4.89,4.89,0,0,1-2.75-.63,10.45,10.45,0,0,1-3.63-6.25.59.59,0,0,1,.63-.62,2.5,2.5,0,0,1,.87.12,18.92,18.92,0,0,0,4.75.5h1.38l40-2.37h1.25c3.37,0,5.25,3.75,5.25,4.5,0,1.25-1.25,2-1.75,2.75a173.58,173.58,0,0,1-20.88,27c8.88,8.87,10.13,10.87,10.13,12,0,2.25-3.25,4.75-4.88,4.75-1,0-1.75-.63-2.75-1.88a234.64,234.64,0,0,0-22.37-24.25c-.88-.87-1.38-1.5-1.38-2.25,0-1.62,2.25-3.87,3.63-3.87,1.62,0,4,2,12.75,10.5a138.49,138.49,0,0,0,17-22.5ZM622,231.2a135.32,135.32,0,0,0-19.5-11.37c-1.13-.5-1.75-1.13-1.75-2.13s1-4,3-4c.12,0,4.5.5,21.87,10.5,1.38.75,2,1.38,2,2.38,0,1.5-2.25,5.37-3.87,5.37A3,3,0,0,1,622,231.2Z"/><path class="cls-1" d="M727.77,240c11.37,17.13,29.62,28.25,49.37,36.63,1.25.5,2,1,2,1.75,0,1-4.87,5.12-7,5.12-.87,0-35.25-13.62-52.12-42.75-8.88,24.63-27,35.63-50.38,43.13a8.68,8.68,0,0,1-2.75.5c-1.12,0-1.75-.38-1.75-.88,0-.75.88-1.75,3.13-2.87,18.5-9,35.62-21.5,42.25-38.38l.62-1.5-32.25,1.38h-2.12a8.89,8.89,0,0,1-4.88-1c-2.75-1.5-4.25-5.38-4.25-5.75s.25-.75.88-.75a5.88,5.88,0,0,1,1.12.25,20.37,20.37,0,0,0,5.38.62h1.5l13.25-.5L688,208.08c-.13-2.5-.5-5-2-6.88a7.3,7.3,0,0,1-1-2.5c0-.62.5-1,1.5-1,1.62,0,4.62.88,9.87,2.88l20.25-1c0-20.38-.62-22.5-2.62-25.38a3.78,3.78,0,0,1-.63-1.62c0-.63.63-1,1.75-1a19.48,19.48,0,0,1,5.38,1.12c4.25,1.25,4.75,2.38,4.75,4.75.12,3.5.12,7.13.12,10.75s0,7.25-.12,10.88l24.25-1.25h1.12c4.88,0,6.38,3.37,6.38,4.25,0,1.37-1.13,2.37-1.38,3.25l-2.5,26.87,10.13-.37a24,24,0,0,0,4.87-.88,1.64,1.64,0,0,1,.75-.12c1.13,0,7.13,3.5,7.13,5.62,0,1-1.38,1.38-3,1.5Zm-14.63-6c2.13-8.5,3-18.37,3.38-27.62l-20.38,1,1.38,27.25Zm34.63-29.12L725.14,206A159.66,159.66,0,0,1,722,233.58l23.62-1Z"/></g></g></g></svg>