<svg xmlns="http://www.w3.org/2000/svg" viewBox="0 0 768.39 287.19"><g id="レイヤー_2" data-name="レイヤー 2"><g id="レイヤー_1-2" data-name="レイヤー 1"><g id="_2列目" data-name="2列目"><path d="M36.88,65.31c-15.32,44.69-20,45.31-22.5,45.31C8.44,110.62,0,103.75,0,99.69a5.27,5.27,0,0,1,.94-3.13A268.14,268.14,0,0,0,27.19,35.94c1.25-4.06,2.5-6.25,5.93-6.25,2.19,0,12.19,1.25,12.19,7.5,0,2.5-2.81,10.62-2.81,10.93l73.44-4.06-.32-25.62c0-4.06-1.56-7.82-4.68-12.5a5.8,5.8,0,0,1-1.25-3.44c0-1.56,1.56-2.5,4.69-2.5,9.37,0,22.18,4.06,22.18,10.31l-.31,32.5,106.87-6.25h2.19c12.5,0,15.63,10,15.63,10.94,0,3.75-4.38,5.94-6.25,8.75-31.88,44.06-43.75,44.69-44.07,44.69a1.66,1.66,0,0,1-1.87-1.88c0-1.87,1.25-5.31,4.37-10,8.13-12.18,16.26-24.06,20.32-34.37ZM70.31,268.44l.94,12.5v.94c0,3.74-1.87,5.31-5,5.31a21.69,21.69,0,0,1-7.5-1.88c-8.44-3.75-10.31-7.19-10.31-10.62,0-.94.31-1.88.31-2.81a90.12,90.12,0,0,0,.94-12.5c0-2.82-.31-5.94-.63-9.38L45,207.5a57,57,0,0,0-5.62-18.12A8.58,8.58,0,0,1,38.12,185c0-1.56.94-2.5,3.44-2.5,3.75,0,10.94,2.19,23.44,6.88l26.88-1.26c8.43-10.31,15-19.68,17.5-25a28.16,28.16,0,0,0,2.5-8.12l-32.19,1.56.62,5v.63c0,2.81-1.56,5-5,5-5.31,0-16.56-5-16.56-11.88,0-.93.31-1.87.31-3.12a69.64,69.64,0,0,0,.63-8.44,75.81,75.81,0,0,0-.63-7.81l-3.44-27.5a51.63,51.63,0,0,0-5-17.5c-.93-1.88-1.56-3.13-1.56-4.38s.63-1.87,3.13-1.87c3.43,0,10.31,1.56,22.19,5.62l106.24-6.25h2.19c12.19,0,18.75,8.13,18.75,11.56,0,3.13-2.5,5.63-3.12,7.82l-7.82,30.62c5.63,6.25,8.76,10.32,8.76,13.13,0,2.5-3.13,3.75-9.07,4.06l-63.12,3.13c3.12,2.18,4.69,4.37,4.69,6.56,0,5-13.76,20.62-19.38,26.25l87.81-3.75h3.44c7.19,0,17.5,5.94,17.5,12.18,0,4.07-3.75,6.88-4.06,9.07l-8.44,41.87c6.56,7.82,9.37,12.19,9.37,15,0,3.44-4.37,3.75-11.24,4.06Zm125-65.94-130,4.69,3.44,42.5,119.37-3.13Zm-17.5-100.94L74.38,107.5l3.43,32.19,93.75-5Z"/><path d="M299.52,219l-7,.5a23.28,23.28,0,0,1-2.88.13c-1.75,0-5-.25-7.37-6.5a1.32,1.32,0,0,1-.13-.63.59.59,0,0,1,.63-.62c.25,0,.37.12.62.12a20.94,20.94,0,0,0,5,.5h1.75l9.38-.62v-23a8.81,8.81,0,0,0-1.88-5.5,2.4,2.4,0,0,1-.62-1.5c0-.75.62-1,1.62-1,0,0,8.75.87,8.75,4.37l-.25,26,4-.25a16.34,16.34,0,0,0,5.25-1.12,1.11,1.11,0,0,1,.63-.13c1.62,0,6.87,4,6.87,6.13,0,1.12-1.37,1.5-2.87,1.62l-13.88,1-.25,29.5c5-1.87,10-4,14.5-6a10,10,0,0,1,3.25-1c.75,0,1.13.25,1.13.75,0,3.88-34.5,22.75-39,22.75-2.5,0-7.5-6.75-7.5-8.5a.89.89,0,0,1,1-.87h1.25c1.62,0,5.75,0,18-4.5Zm52,33.38A53.44,53.44,0,0,0,352,244l.12-25.87-13.5,5.37-.5,40.88c0,4.5,1.5,5.87,6,6.37a134.76,134.76,0,0,0,16,1,156.81,156.81,0,0,0,21.38-1.62c5.75-.88,6.62-1.5,9.5-21.13.5-3.62,1.5-5.37,2.25-5.37,1.87,0,1.87,6.87,1.87,12.12,0,13.63-.25,21.25-11.12,22.38a244.08,244.08,0,0,1-24.88,1.37q-8.62,0-16.87-.75c-6.63-.5-11.63-4.37-11.63-12.62v-.25l.5-39.38-6.62,2.63a9.82,9.82,0,0,1-3.38.75c-2.62,0-5.12-2.25-6.25-3.88a3.83,3.83,0,0,1-.5-1.12c0-.5.38-.75,1.5-.75a20.49,20.49,0,0,0,6.38-1.5l9-3.63.12-15.25c0-2-.12-4.12-1.62-6a2.54,2.54,0,0,1-.63-1.12c0-.5.5-.75,1.38-.75a21.67,21.67,0,0,1,4.87,1c3.5,1,3.5,2.5,3.5,4.5L338.77,216l13.37-5.37.13-28.5a10.65,10.65,0,0,0-2-6.38,2,2,0,0,1-.38-1c0-.5.38-.75,1.5-.75a17.54,17.54,0,0,1,4.63.88c3,.87,3.87,2,3.87,4.25l-.12,28.37,18.37-7.37a4.56,4.56,0,0,1,2-.63c1.75,0,5.38,2,5.38,4.25a14.91,14.91,0,0,1-.75,2.75c-2.25,37.25-4.5,47.88-11.5,47.88-2.75,0-8.25-5.38-12.5-11.63l-1.13-1.87v14.62c0,1.75-.62,3.13-2.12,3.13-.63,0-6-1.5-6-5.38ZM359.77,215l-.13,23.88c.13,0,.25-.13.38-.13.75,0,1.75.5,3.25,1.5a60.32,60.32,0,0,0,8.5,5,.44.44,0,0,0,.37.13.68.68,0,0,0,.75-.75c2.75-9.75,3.5-22.13,4.25-36.5Z"/><path d="M548.89,225.33a143.13,143.13,0,0,0-16.25-12.63c-1.12-.75-1.75-1.5-1.75-2.37,0-1.38,1.88-4.13,3.25-4.13,2,0,13.63,8.25,19.5,12.75,1.38,1,2,1.75,2,2.75,0,1.25-2.37,5.13-4.12,5.13A4.84,4.84,0,0,1,548.89,225.33ZM539,277.08c-4.13-.5-7.38-3.25-7.38-4.13,0-.37.25-.75,1-1.25a17,17,0,0,0,4.63-4.37,319.5,319.5,0,0,0,20.87-32.63c1.38-2.37,2.75-3.5,3.63-3.5.62,0,1,.5,1,1.38,0,2.87-8,21.25-18.25,39-2,3.37-3,5.5-5.13,5.5Zm18.37-78A143.4,143.4,0,0,0,542.14,185c-1.12-.87-1.62-1.5-1.62-2.25a5,5,0,0,1,1.25-2.62,3,3,0,0,1,2.25-1.5c2.62,0,20.25,14.62,20.25,17.25s-3.5,4.87-4.38,4.87S558.39,200.2,557.39,199.08ZM569,220.2c-1.25,0-2.25.13-3.13.13-1.37,0-2.25-.13-2.87-.75a10.09,10.09,0,0,1-3-5.75c0-.5.12-.75.62-.75a1.64,1.64,0,0,1,.75.12,25.45,25.45,0,0,0,5.75.5l29.5-1.5-.12-8-12.75.75c-.88,0-1.75.13-2.5.13a5.11,5.11,0,0,1-3.38-.88,10.06,10.06,0,0,1-3.12-4.12,5.21,5.21,0,0,1-.25-1,.66.66,0,0,1,.75-.75,1.64,1.64,0,0,1,.75.12,18.22,18.22,0,0,0,4.37.63c.63,0,1.25-.13,1.75-.13l14.38-.75v-7.37l-19.63,1c-.62,0-1.37.12-2.25.12-6,0-6.87-6.37-6.87-6.5,0-.37.25-.62.75-.62a5.26,5.26,0,0,0,.62.12,29.28,29.28,0,0,0,5.5.63h.63l21.12-1V179.2a13,13,0,0,0-1.5-6.62,2,2,0,0,1-.37-1.13c0-.5.5-.87,1.62-.87,1.5,0,7.88.37,7.88,4.37v9.25l17.37-.87a25.08,25.08,0,0,0,4.75-1c.25,0,.38-.13.63-.13,1.25,0,6.25,2.63,6.25,5,0,1.13-1,1.75-2.63,1.88L604,190.45l-.13,7.38,14.38-.75a17.26,17.26,0,0,0,4.37-1,1.53,1.53,0,0,1,.75-.13c1.5,0,5.63,2.88,5.63,5,0,1-.88,1.5-2.5,1.63l-22.63,1.25V212l29.38-1.5a12.4,12.4,0,0,0,4.62-1,1.94,1.94,0,0,1,.88-.12c2,0,5.87,3.25,5.87,5.5,0,1-.87,1.62-2.62,1.75Zm50.87,39.25-39.12,1.38-.38,19.75c0,1.62-.87,3-2.62,3-.88,0-5.75-1.25-5.75-4.88,0-.25.12-.62.12-.87,1.5-7.63,1.88-40.88,1.88-43V233.2a16.93,16.93,0,0,0-.88-5.87,9.7,9.7,0,0,1-.62-2.38c0-.62.25-.87,1-.87,1.25,0,3.62.75,7.87,2.12l40.13-1.62c2.75,0,6.12,1.12,6.12,4.12,0,.88-.37,1.75-.37,2.75l.37,42.75c0,1.5.25,2.75.25,3.88,0,2.87-3.12,5.87-5.25,5.87-3.62,0-19.25-10.5-19.25-13.12,0-.5.38-.75,1.13-.75a9.66,9.66,0,0,1,2.62.62A94.89,94.89,0,0,0,620,275Zm0-14.37L581,246.45l-.13,7.63,39-1.38Zm-.12-13.75L581.27,233l-.13,7,38.63-1.37Z"/><path d="M663.77,277.83c-.13,0-5.75-1.63-5.75-4.63a4.34,4.34,0,0,1,.75-2.12,108.42,108.42,0,0,0,11-27.25c.37-1.5,1-2.13,2.5-2.13s5,.63,5,2.75c0,.88-2.88,14.75-10.88,31C665.64,277.08,664.89,277.83,663.77,277.83ZM689.14,230c-2,.13-3.5.25-4.75.25-4.75,0-6.37-2.87-7.62-6.62a5.59,5.59,0,0,0-.13-.63,1.12,1.12,0,0,1,1.25-1.25,4,4,0,0,1,1,.25,22.15,22.15,0,0,0,6.75,1h1.13l20.75-1.12.25-18.38-32.13,1.63c-2,.12-3.5.25-4.62.25-6.75,0-7.38-7.38-7.38-7.38,0-.5.25-.75.88-.75.25,0,.5.13.75.13a30.6,30.6,0,0,0,5.87.5h2.13L707.89,196l.13-13.62c0-3-.13-5.38-1.63-7.88a2,2,0,0,1-.37-1c0-.62.62-1,1.75-1,2.62,0,8.87,1.63,8.87,4.25l-.5,18.75,27.38-1.5a32.12,32.12,0,0,0,8.5-1.25,3.8,3.8,0,0,1,1.25-.25c2.87,0,7.37,4.5,7.37,6.63,0,1-.87,1.62-2.37,1.75L716,203l-.38,18.5,16.25-.87a36,36,0,0,0,8.5-1.25,6.13,6.13,0,0,1,1.63-.25c3.37,0,7.5,4.62,7.5,6.5,0,1.12-1,1.62-2.5,1.75Zm40.25,43.5c9.63,0,9.63-.37,9.63-1.12a1.32,1.32,0,0,0-.13-.63c-1.5-5.12-4.87-16.62-4.87-18.62,0-1.25.5-2,1.12-2,.88,0,2.13,1.25,3.25,3.62A187.71,187.71,0,0,0,748,271.58a8.66,8.66,0,0,1,1.62,4.37c0,3.5-4,5.88-18.12,5.88-12.25,0-24.63-2.13-31.88-7.5-12.75-9.5-15-29.38-15-29.88,0-1.5.88-2.75,5-2.75,2,0,2.88.88,3.13,2.75C695.89,261.83,701.52,273.45,729.39,273.45Zm-4-21.87c0,1.25-2.87,4.87-5,4.87A3.42,3.42,0,0,1,718,255a217.82,217.82,0,0,0-16-16.12,3,3,0,0,1-1.25-2.13c0-1.12,1.87-4.12,3.75-4.12a3.23,3.23,0,0,1,2.25,1.12C716.14,241.33,725.39,249.58,725.39,251.58Zm38,12a3.66,3.66,0,0,1-2.62-1.75A150.45,150.45,0,0,0,742.89,243c-1.37-1.25-2-2-2-2.87a4.19,4.19,0,0,1,1.38-2.5,3.62,3.62,0,0,1,2.62-1.5,4.27,4.27,0,0,1,2.63,1.25c3.37,2.87,20.87,17.87,20.87,21.25C768.39,260.7,764.52,263.58,763.39,263.58Z"/></g></g></g></svg>