<svg xmlns="http://www.w3.org/2000/svg" viewBox="0 0 887.46 281.67"><g id="レイヤー_2" data-name="レイヤー 2"><g id="レイヤー_1-2" data-name="レイヤー 1"><g id="_4列目" data-name="4列目"><path d="M73.75,272.5c0,5.31-2.19,7.5-5.63,7.5-5.62,0-15-6.25-15-13.44a9.39,9.39,0,0,1,.32-3.12,72.51,72.51,0,0,0,2.18-17.5s.63-52.5,1.26-85.63c0-7.19.93-24.69.93-24.69-10.93,35.94-46.56,85-56.25,85C.31,220.62,0,220,0,218.44s.94-4.38,3.12-7.82c19.38-29.06,36.57-65.93,52.5-114.37l-23.74,2.5c-4.38.31-8.13.94-10.94.94a10.36,10.36,0,0,1-4.69-.94c-4.06-3.44-10-10-10-14.69,0-1.25.94-1.87,2.5-1.87h1.87a33.3,33.3,0,0,0,7.82.62A46.56,46.56,0,0,0,25,82.5l32.5-3.12.62-60.32A23.18,23.18,0,0,0,54.06,5.31a5.05,5.05,0,0,1-.94-2.81C53.12.94,54.69,0,57.19,0s5.93.94,10,2.5c8.75,3.44,9.69,5.31,9.69,9.69L76.25,77.5l5-.62a46,46,0,0,0,11.25-2.5,4.53,4.53,0,0,1,2.19-.32c6.25,0,15.31,9.38,15.31,13.13,0,2.5-2.5,4.06-6.25,4.37L75.94,94.38,75.62,115a9.42,9.42,0,0,1,3.44-1.25c5.63,0,31.88,31.87,31.88,36.56,0,3.75-8.13,10-12.82,10-2.5,0-4.06-1.87-5.93-5.31a181.54,181.54,0,0,0-16.88-24.06Zm33.44-82.81c-8.13,0-17.81-10.31-17.81-13.13,0-1.25.93-1.87,2.81-2.5,18.75-5,45.93-23.75,63.43-36.87,1.57-19.07,2.19-37.5,2.19-56.88,0-53.75-1.56-60.31-4.69-65a8.72,8.72,0,0,1-1.56-3.75c0-1.56,1.88-2.5,4.69-2.5,1.25,0,19.69.63,19.69,8.44.31,18.12.62,37.19.62,55.94,0,43.75-1.87,86.25-11.56,116.25-20,63.43-71.25,84.69-76.25,84.69-1.87,0-2.81-.63-2.81-1.88,0-2.19,2.5-5.62,7.18-9.38,28.13-22.5,50.94-51.56,59.69-105C141.25,168.44,114.38,189.69,107.19,189.69Zm34.37-65.31c-2.5,0-4.06-1.88-5.94-5.32a300.46,300.46,0,0,0-23.74-38.75c-1.57-2.19-2.5-4.06-2.5-5.62,0-5,8.43-8.75,10.31-8.75,6.25,0,27.5,34.06,32.5,42.18a11.88,11.88,0,0,1,1.87,5.63C154.06,118.75,145.31,124.38,141.56,124.38Zm55.32-105c0-4.07-.32-8.44-2.82-11.88-1.25-1.88-1.87-3.12-1.87-4.06,0-1.88,1.56-2.5,4.37-2.5,5,0,20,2.5,20,8.75l-.94,97.81A208.25,208.25,0,0,0,245,73.44c1.88-2.5,2.81-6.88,2.81-11.25,0-3.13.94-4.69,2.5-4.69,2.19,0,17.19,10,17.19,18.44a7,7,0,0,1-1.88,4.37c-14.68,16.25-29.68,29.07-50,40.63l-.31,17.81c52.19,30,53.13,36.25,53.13,38.75,0,1.56-4.06,13.44-9.69,13.44-1.87,0-3.75-.94-5.94-3.13a264.57,264.57,0,0,0-37.5-29.37l-.62,70c0,15.31,1.87,18.75,29.69,18.75,25.93,0,29.06-3.44,31.56-10.31,2.81-8.13,6.25-25,7.81-38.44.94-8.44,3.13-12.5,5.31-12.5,5,0,5,15,5,28.44,0,44.37,0,52.5-50.94,52.5-26.24,0-47.81-.94-47.81-35Z"/><path d="M376,236.17v42.25c0,2.25-1,3.25-2.38,3.25s-6.87-1.75-6.87-6.12a4.39,4.39,0,0,1,.12-1.25,39.56,39.56,0,0,0,.88-7.5V236.55L339,237.92c-7.75,32-33.75,41.25-35,41.25-.63,0-.88-.25-.88-.62,0-.63.88-1.88,2.88-3.5,12.75-10.13,20.75-21.5,24.75-36.75l-22.13,1.12c-1.75.13-3.12.13-4.25.13-2.12,0-3.25-.25-4.5-1.38-1.87-1.87-3.25-4.37-3.25-6,0-.5.25-.75,1-.75h.75a37.91,37.91,0,0,0,6.38.75h.62l27-1.25c1.13-7,1.5-15.87,1.63-25l-16.63,1a35,35,0,0,1-3.5.13h-1.25c-5.37-.63-6.5-5.88-6.5-7,0-.63.25-.88.75-.88a2.39,2.39,0,0,1,.88.13,20.06,20.06,0,0,0,5.5.62h1.62l19.25-1.25c0-7-.12-13.87-.25-19.87a10.7,10.7,0,0,0-1.75-5.63,2.67,2.67,0,0,1-.62-1.37c0-.63.62-1,1.62-1,2,0,9.13,1.5,9.13,4.62.12,4.25.12,9.5.12,15.38v7.37l25.38-1.5V175.42a7.89,7.89,0,0,0-2.25-5.5,1.92,1.92,0,0,1-.63-1.37c0-.63.63-.88,1.63-.88a15.9,15.9,0,0,1,5.12,1.13c3.63,1.25,4.25,2,4.25,4.12v23.25L389,195.3a26.65,26.65,0,0,0,5.62-1.13,1.94,1.94,0,0,1,.88-.12c2.25,0,7,4.75,7,6.25,0,1.12-1.38,1.62-3.13,1.75l-23.5,1.37L376,228.8l22.75-1.13a21.33,21.33,0,0,0,5.75-1.12,2.78,2.78,0,0,1,1-.25c1.87,0,7.25,4.25,7.25,6.62,0,1.13-1.38,1.5-3,1.63Zm-8.25-32.25-25.5,1.5a235.18,235.18,0,0,1-1.75,25l27.25-1.25Z"/><path d="M618.83,226.3a192.92,192.92,0,0,1-11.25-18.75c-9.37,2-31.37,6-39.37,6-4,0-7.38-4.5-7.38-6.88,0-.5.13-.87.63-1a5.26,5.26,0,0,1,.62-.12,33.21,33.21,0,0,1,4,.75h3.5c6.63-.38,21-2.75,34.38-5.63-2.88-5.5-5.88-11.75-9.38-18.62a14.72,14.72,0,0,0-1.87-2.75c-.88-1.13-2.63-1.88-2.63-3v-.25c.13-1,3.5-1.13,5.5-1.13,3.88,0,4.5,1.38,5.5,3.75,2.5,5.38,6.38,12.88,10.5,20.38,8.63-1.88,16.13-3.75,19.5-5.13,1.25-.5,2.38-1.75,3.75-1.87h.88c1,0,7.62.5,7.62,4.37,0,2.13,0,3.13-27.87,9.5,5.25,9,10.37,17.25,13.5,20.63,1.12,1.25,1.87,2.25,1.87,3.37,0,.5-1.12,5.13-5.62,5.13a10.1,10.1,0,0,1-1.88-.25c-5.12-1.38-11.5-2.5-14-2.88-2.25-.25-4.12-1.25-4.12-2.25,0-.75,1-1.37,3.62-1.75Zm5.25,45.25c-.12,1.75-1.25,3-4.25,3-6.75,0-46.62-12.13-46.62-29.38,0-3.12,1-7,2.75-7h.25c1.75.38.87,5,2.37,7.5,2.5,4.25,5.88,7.13,12.38,10.38,5.62,2.5,14.12,6,23,7.62,1.5.25,3.5.13,4.75.5a8.12,8.12,0,0,1,5.37,7Z"/><path d="M774.83,221.92c0,31.5-56,38-58.62,38-2.25,0-3.5-.62-3.5-1.37s1.5-2,4.62-2.88c16.13-4.25,48.5-14.87,48.5-34.5,0-13.37-9.87-19.37-24.75-19.37-13.25,0-30.37,4.75-48.25,13.12-2.25,1.13-3.62,2.13-5.25,2.13-3.12,0-8-5.13-8-7.13,0-.25,0-.5.25-.62s.63-.25,1.13-.25c.87,0,1.87.12,3,.12a10.15,10.15,0,0,0,4.25-.75c19.62-9.12,38.37-14.12,53.37-14.12,19.5,0,32.63,8.37,33.25,26.5Z"/><path d="M873.33,187.3c3.13,0,8.38,1.75,8.38,5,0,1.25-1.25,1.87-3.88,2.37-6.37,1-13.12,2.38-19.87,3.88,2.87,5,5.75,10.12,8.62,14.87,5-1.25,9-2.37,9.38-2.62,1.5-.88,1.87-1.75,3.5-2a4.9,4.9,0,0,1,1.37-.13c4.25,0,6.63,3,6.63,4.5s-4.75,3.75-16.88,6.88c3.5,5.62,6.75,10.75,9.63,14.62a7.53,7.53,0,0,1,1.5,3.63,3.94,3.94,0,0,1-3.63,3.87,20,20,0,0,1-2.5-.25c-5.12-.87-10.75-2.37-13.25-2.87-2-.38-3-1.25-3-2,0-1.75,3.63-2.13,12-2.5-2-3.13-4.87-7.63-8-12.75-3.12.75-13.37,3.37-21.25,3.37-9.75,0-12.5-1.87-12.5-4.12,0-1,.5-2.13,2.88-2.13.87,0,1.75.13,2.12.13h.63c5.62,0,12.75-1,24.12-3.75-2.87-4.88-5.87-10-8.62-15-7.38,1.75-14.38,3.75-20,5.62-.25.13-4.38,1.75-6.13,1.75-4.37,0-8-5.12-8-5.87,0-1.13,1.63-1.13,2-1.13.75,0,1.5.25,2.25.25a14.61,14.61,0,0,0,5.25-.75q10.5-3.37,21.38-6l-6.88-12.62a10.86,10.86,0,0,0-2.62-2.88c-1-.75-2.38-1-2.38-2.25,0-1.62,3.13-1.75,5.13-1.75,3.87,0,4.5.75,5.62,2.88,2.5,4.62,5.25,9.75,8.13,14.87l14.75-3.37c1.5-.25,1.75-1.63,3.62-1.75Zm-44.87,71.75a16.08,16.08,0,0,1-6.88-12.88c0-4.25,2.25-5.5,2.63-5.5,1.62,0,2.12,1.5,2.25,4.13a8.66,8.66,0,0,0,3,5.75c7.87,7,22.12,13.62,31.75,13.75,6.62,0,7.87,7.25,7.87,7.62,0,1.88-1.62,2.75-3.87,2.75a16.49,16.49,0,0,1-2.38-.25C849.58,271.17,839.46,266.8,828.46,259.05Z"/></g></g></g></svg>