<svg xmlns="http://www.w3.org/2000/svg" viewBox="0 0 793.02 296.5"><defs><style>.cls-1{stroke:#000;stroke-miterlimit:10;stroke-width:4px;}</style></defs><g id="レイヤー_2" data-name="レイヤー 2"><g id="レイヤー_1-2" data-name="レイヤー 1"><path class="cls-1" d="M82.31,203.25c0-4.06.31-11.56.31-11.56C71.69,217.94,14.81,262.62,4.5,262.62c-1.56,0-2.5-.62-2.5-1.87,0-1.87,1.88-4.69,5.31-7.81a339.87,339.87,0,0,0,65-74.38l-22.5,1.56a79.88,79.88,0,0,1-8.43.32H39.81c-5.31,0-10.31-4.06-15.31-14.06a6.18,6.18,0,0,1-.31-2.19c0-.94.31-1.57,1.87-1.57a5.39,5.39,0,0,1,1.88.32,53.61,53.61,0,0,0,12.18,1.25h3.76L82.31,162V141.38a22.34,22.34,0,0,0-4.06-12.82A6.55,6.55,0,0,1,77,125.12c0-1.56,1.25-2.18,3.44-2.18,2.5,0,6.25.94,10.62,2.5,7.82,2.81,9.06,4.68,9.06,9.06v26.25l16.88-.94a39.49,39.49,0,0,0,11.25-2.19,6.15,6.15,0,0,1,2.19-.31c7.18,0,15.31,10.31,15.31,12.81s-2.81,3.76-6.56,4.07l-39.07,2.5v12.19c1.57-2.5,3.13-3.44,5-3.44,4.69,0,40.63,24.06,40.63,30.31,0,3.75-6.56,11.56-10.31,11.56-1.88,0-4.06-1.56-6.88-4.06a286.66,286.66,0,0,0-28.44-23.44l-.31,81.25c0,5.63-2.5,7.82-5.62,7.82-5,0-14.38-4.69-14.38-11.88a25.12,25.12,0,0,1,.63-4.06,97.84,97.84,0,0,0,1.87-18.75ZM233.56,54.19,167,58.56a451.45,451.45,0,0,0,94.69,45.63c4.69,1.56,6.87,2.81,6.87,5,0,3.75-9.06,12.81-14.37,12.81s-53.13-20.94-98.13-55l-.31,72.19c0,5.31-2.19,7.5-5.63,7.5-5,0-15.31-5-15.31-12.81a31.35,31.35,0,0,1,.63-4.69,75.56,75.56,0,0,0,2.18-18.13V69.19c-42.81,41.87-97.18,61.56-107.18,61.56-2.19,0-3.44-.63-3.44-1.87,0-1.88,2.5-4.38,7.5-6.88,35.31-18.44,63.44-37.19,89.06-60.62L80.44,64.19a49,49,0,0,1-6.25.31c-15.31,0-18.44-15.94-18.44-15.94,0-1.25.63-1.56,1.87-1.56.32,0,1.26.31,1.88.31A80.09,80.09,0,0,0,72,48.56h2.5l63.44-4.06V21.06c0-4.37-1.56-8.44-4.38-13.12a7.44,7.44,0,0,1-1.25-3.75c0-1.57,1.25-2.19,3.44-2.19.94,0,20.31,1.88,20.31,11.25V43.56l53.13-3.44A36.82,36.82,0,0,0,221.38,37a9.11,9.11,0,0,1,2.81-.62c4.37,0,15.62,8.12,15.62,13.43,0,2.5-2.5,4.07-5.62,4.38ZM220.12,170.75c24.69,32.19,48.76,53.75,73.76,71.56,3.43,2.5,5.31,4.38,5.31,5.94,0,3.44-11.57,11.56-15.63,11.56-8.12,0-57.5-52.81-69.68-75.31,0,0,.62,8.12.62,11.88,0,35.31-.31,90.62-.31,90.62,0,5.31-1.88,7.5-5,7.5-4.38,0-15-5.31-15-13.44a11.77,11.77,0,0,1,.31-3.12,82.85,82.85,0,0,0,1.88-18.13s.31-38.43.31-62.81c0-3.44.62-10.94.62-10.94-10.93,26.25-65.62,78.75-78.12,78.75-1.57,0-2.19-.62-2.19-1.87,0-1.88,1.56-4.69,5-8.13,25.94-25.31,46.25-50.31,64.38-81.87l-14.69.62c-2.5,0-4.69.32-6.57.32-4.68,0-8.12-.63-9.37-1.57-6.56-5.31-9.06-11.56-9.06-14.37,0-1.25.62-1.56,1.56-1.56a6.15,6.15,0,0,1,2.19.31A47.22,47.22,0,0,0,162,157.94h3.75l30.94-1.56V137a32.45,32.45,0,0,0-3.13-13.12,13.21,13.21,0,0,1-1.25-3.76c0-1.87,1.25-2.5,3.75-2.5a27.89,27.89,0,0,1,9.06,2.19c8.44,2.81,9.38,5,9.38,9.69v25.94l31.56-1.56a51.13,51.13,0,0,0,11.88-2.5,4.51,4.51,0,0,1,2.18-.32c4.07,0,15.63,8.44,15.63,13.44,0,2.5-2.81,3.44-6.25,3.75Z"/><path class="cls-1" d="M326,280.55c-3.25.25-4.75,1-6.25,1-1.88,0-5.75-2-5.75-5a3.86,3.86,0,0,1,.37-1.63,20.79,20.79,0,0,0,1.13-7l-.88-42.62c0-2.5-.12-5.25-1.5-7.25a2.36,2.36,0,0,1-.5-1.25c0-.63.5-.88,1.5-.88a16.65,16.65,0,0,1,4.5,1c3.38,1.25,4.63,1.88,4.63,4.63l.25,51.37,30.12-2.5-.5-79.25a11.31,11.31,0,0,0-1.75-6.25,2.67,2.67,0,0,1-.62-1.37c0-.5.5-.88,1.62-.88.13,0,9.38.88,9.38,4.5v82.5l31.37-2.5.38-44.75c0-2.75,0-5.37-1.38-7.25a2,2,0,0,1-.5-1.25c0-.5.38-.87,1.38-.87a10,10,0,0,1,3.62.75c4,1.37,5.5,2,5.5,4.62l-.75,66.25c0,2.13-.62,3.13-2,3.13-1.75,0-7.12-2.25-7.12-5.5a3.63,3.63,0,0,1,.12-1.13,39.49,39.49,0,0,0,.75-6.37Z"/><path class="cls-1" d="M578.39,280.05l.25,3.62v.63c0,1.62-.5,2.75-2.12,2.75s-6.75-2-6.75-4.75c0-.5.12-1,.12-1.63a47.13,47.13,0,0,0,0-7l-3.75-53.25a22.73,22.73,0,0,0-1.75-7.12,6.47,6.47,0,0,1-.62-2.13c0-.62.37-1,1.37-1,1.5,0,4.38.88,9.13,2.5l29.12-1.5v-25a8.91,8.91,0,0,0-2-5.25,3.16,3.16,0,0,1-.87-1.75c0-.75.75-1.12,2-1.12a22,22,0,0,1,4.62.87c4.25,1.25,4.5,2.38,4.5,4.38l-.12,27.37,32.75-1.75h1.12c4.25,0,7.25,2.88,7.25,4.88,0,1.12-.75,2-.87,3l-5.25,54.5c2.5,2.75,3.5,4.37,3.5,5.37,0,1.25-1.63,1.5-4.13,1.63Zm25-61.75-29.12,1.5,1.5,21.62,27.62-1.37Zm0,28.75-27.12,1.37,1.62,24.25,25.5-.62Zm37.13-1.75-29.25,1.37-.13,25.25,27.63-.75Zm2-29-31,1.62-.13,21.75L641,238.3Z"/><path class="cls-1" d="M743.27,258.8a67.65,67.65,0,0,1,1,7.5c0,.87.12,1.75.12,2.62v3.38c0,11.5-2.5,18.37-7.75,18.37s-25.37-11.62-25.37-15.25c0-.5.37-.87,1.25-.87a8.43,8.43,0,0,1,3.37.87,117.5,117.5,0,0,0,17.63,6c.12,0,.37.13.5.13a1.5,1.5,0,0,0,1.5-1.13,46.33,46.33,0,0,0,1.25-10.87,40.23,40.23,0,0,0-1.25-10.38l-34,1.25c-1.75.13-3,.13-4.13.13-1.75,0-5-.13-6.87-5.75a1.8,1.8,0,0,1-.13-.75.66.66,0,0,1,.75-.75,1.64,1.64,0,0,1,.75.12,29.4,29.4,0,0,0,6.75.75h1.63l33.12-1.37a26.64,26.64,0,0,0-2.87-5.25,4.55,4.55,0,0,1-1.13-2.38c0-1.5,3-2.87,4.25-2.87s2.25,1,3.13,2.25a86.75,86.75,0,0,0,15-10.63L724,236.17a19.59,19.59,0,0,1-2.63.13,5.76,5.76,0,0,1-4.37-1.38l-.88-.75c-19.87,9.75-39.5,15.75-40.87,15.75-1.13,0-1.75-.37-1.75-1,0-.87,1.12-2,3.5-3,19-8,36.5-16.5,52.75-27.12l-41.13,2.25c-1.37,0-2.37.12-3.37.12h-.63c-2.75,0-5.5-3.62-5.5-6.25a.66.66,0,0,1,.75-.75,1.53,1.53,0,0,1,.75.13,18,18,0,0,0,4.5.5h1.5L727,212.55l-.13-13.63-16.5,1.13c-1.62.12-2.75.25-3.75.25-3.62,0-6.37-4.25-6.37-6.25,0-.5.37-.75,1-.75a2.5,2.5,0,0,1,.87.12,24.88,24.88,0,0,0,4.38.38H708l18.87-1.13-.12-9a11.8,11.8,0,0,0-1.5-5.62,2.3,2.3,0,0,1-.5-1.38c0-.62.5-.87,1.37-.87.25,0,8.75.62,8.75,4.75l-.12,11.62,8-.5a16.67,16.67,0,0,0,5.5-1.25,3.8,3.8,0,0,1,1.25-.25c1.87,0,6.25,3.25,6.25,5.25,0,1.25-1.38,1.75-3,1.88l-18,1.12-.13,13.63,5.38-.25a212.14,212.14,0,0,0,23.87-20.38,9.44,9.44,0,0,0,2.38-4.87c.25-1.13.75-1.63,1.37-1.63,2.5,0,6.13,5.88,6.13,7.25a2.2,2.2,0,0,1-.75,1.63,242.81,242.81,0,0,1-19.75,17.12l25-1.37a30.61,30.61,0,0,0,5.5-1,1.53,1.53,0,0,1,.75-.13c2.75,0,6.5,4.5,6.5,5.63s-1.38,1.5-3.13,1.62l-44.25,2.38a189,189,0,0,1-18.5,11.5l30.38-2.25c.62,0,1.12-.13,1.62-.13,4.25,0,6.75,4,6.75,5.25,0,1.63-2.25,2.5-3,3.13a115,115,0,0,1-20.75,14.37l1.13,2.63,26.37-1.13a40.49,40.49,0,0,0,8.88-1.37,1.78,1.78,0,0,1,.87-.13c2.88,0,7.25,4,7.25,6,0,.88-.87,1.25-2,1.38Z"/></g></g></svg>