<svg xmlns="http://www.w3.org/2000/svg" viewBox="0 0 650.74 284.3"><g id="レイヤー_2" data-name="レイヤー 2"><g id="レイヤー_1-2" data-name="レイヤー 1"><path d="M95.62,61.56v30c44.69-9.68,44.69-9.68,46.57-9.68,3.43,0,5,.62,5,1.87,0,9.37-119.07,40.31-128.75,40.31C5.94,124.06,0,108.12,0,105.94c0-1.56.94-2.19,2.81-2.19.63,0,1.25.31,1.88.31a86.18,86.18,0,0,0,8.75.63c.94,0,3.12,0,21.25-2.5L32.81,56.25c-.31-4.69-1.25-9.69-5-14.69a4.18,4.18,0,0,1-.93-2.18c0-1.26,1.24-1.88,3.74-1.88,3.76,0,20.94,1.88,20.94,12.19l.94,50,24.06-4.38V23.75a21,21,0,0,0-5-14.06,5,5,0,0,1-1.25-3.13c0-1.25.94-2.18,4.07-2.18,4.06,0,21.56,1.56,21.56,10V45.62l19.37-1.56a37.39,37.39,0,0,0,11.57-2.5,21.61,21.61,0,0,1,4.06-.62c8.44,0,14.68,10.62,14.68,12.81,0,2.81-3.43,4.37-8.12,4.69ZM16.25,270.62c-2.19,0-3.44-.62-3.44-1.87,0-1.87,2.5-4.37,7.81-7.5,27.5-15.94,52.82-34.06,55.94-44.37.94-2.82,1.88-4.38,3.44-4.38,5.31,0,15.94,12.5,15.94,16.56C95.94,236.88,33.12,270.62,16.25,270.62ZM122.5,204.06c-9.69.94-60.94,4.69-75.94,4.69-14.37,0-18.75-16.25-18.75-19.06,0-1.25.63-1.57,2.19-1.57a11.38,11.38,0,0,1,3.12.32,75.2,75.2,0,0,0,17.5,1.87c6.57,0,18.76,0,25.63-.31,14.37-7.81,27.19-15.31,38.13-22.19C96.25,160,80.94,154.38,67.5,149.69c-5.62-1.88-8.44-3.44-8.44-6.57,0-4.06,3.44-11.56,8.13-11.56,2.81,0,10.93,3.13,20.62,7.19,7.5-5.63,31.57-23.44,36.88-35.31,1.25-2.82,2.5-4.69,4.06-4.69,4.37,0,13.44,12.19,13.44,15.31,0,4.38-29.69,24.38-39.38,30.94l28.13,12.5c39.37-25.94,41.56-33.75,42.18-35.94.94-2.81,1.88-4.37,3.44-4.37,4.69,0,15.94,11.25,15.94,16.25,0,2.18-1.88,3.44-3.12,4.37-31.57,22.19-55.94,36.88-84.07,51.25,30.63-1.25,62.5-3.75,90-6.25q-7-6.09-14.06-11.25c-3.13-2.5-5-4.37-5-6.56,0-2.5,5-9.38,9.37-9.38,7.5,0,55.32,39.69,55.32,47.19,0,2.81-6.56,11.88-11.56,11.88-1.88,0-3.76-1.57-5.94-4.07A148.7,148.7,0,0,0,210,196.25c-24.06,2.5-46.88,4.69-68.75,6.56l.63,73.44c0,4.69-1.88,7.5-5.32,7.5q-2.81,0-7.5-2.81c-6.87-4.69-8.44-7.19-8.44-10.63a13.63,13.63,0,0,1,.32-3.43,99.4,99.4,0,0,0,1.25-17.19ZM174.06,80.94c0,12.18,6.25,12.18,26.88,12.18a272.23,272.23,0,0,0,36.87-2.5c8.44-.93,12.5-5.93,17.5-33.74.94-6.26,3.13-9.38,5-9.38,2.19,0,4.07,3.44,4.38,10.31,0,2.5.31,5.31.31,8.44,0,30.94-4.38,40-24.38,42.19-12.18,1.25-27.5,2.5-42.5,2.5-22.81,0-43.74-.94-43.74-25.94v-.62l1.24-67.5c0-4.69-1.24-8.44-5-13.13A2,2,0,0,1,150,2.19C150,.62,151.88,0,155,0c2.5,0,20.31.62,20.31,10.31l-.62,43.75c40.62-14.06,49.37-22.5,52.19-27.81,1.24-2.19,2.5-3.44,3.74-3.44,4.07,0,10.63,14.38,10.63,17.5,0,2.19-1.56,3.75-4.06,5-19.69,10-40,16.88-62.81,23.44Zm57.5,183.12c-19.37-15.31-35.31-23.75-58.12-36.56-4.06-2.19-5.63-4.06-5.63-6.25,0-1.25,4.38-10.94,9.38-10.94,8.75,0,54.37,29.07,65,35.94,4.06,2.81,5.93,5.31,5.93,8.13s-3.74,12.5-10.31,12.5C236.25,266.88,234.06,265.94,231.56,264.06Z"/><path d="M310.24,186.17c0,12.25-.75,29-2.38,40.63-5.62,41-21.75,53.25-24,53.25a.89.89,0,0,1-.87-1,7.52,7.52,0,0,1,1.5-3.5c15.87-24.13,17.37-63.38,17.37-88.63,0-2.62-.12-6-1.12-7.62a7.55,7.55,0,0,1-1.38-3c0-.5.38-.75,1.13-.75,1.37,0,4.25,1,9.75,3.37l66.12-4.25a15.72,15.72,0,0,0,5.13-1.12,2.27,2.27,0,0,1,1-.25c.87,0,2,.5,4,2.12s3,3.13,3,4.13-1.25,1.62-3.38,1.75Zm-4.38,89.38c-.62,0-1-.25-1-.75s.63-1.5,1.88-2.75c11.87-11.88,18.12-21.5,18.12-25.5,0-1.13.25-1.88,1-1.88s7.88,4,7.88,7C333.74,254.05,312.74,275.55,305.86,275.55Zm41.38-35.5-17.13.62v1c0,1.5-.37,2.38-1.5,2.38-.37,0-7.12-1.5-7.12-5.88v-.62a19,19,0,0,0,.25-3.88,24.11,24.11,0,0,0-.13-3.12l-2.25-21.5c-.25-2.38-.62-5.25-1.5-6.63a5.33,5.33,0,0,1-.87-2.12c0-.5.37-.75,1.25-.75,1.37,0,4.37.75,9.5,2.5l11.62-.63c.88-1.25,6.75-10,6.75-15,0-1.12.25-1.75,1-1.75,2.13,0,8,3.75,8,5.88a3.08,3.08,0,0,1-.5,1.5,51.79,51.79,0,0,1-7,8.87l26.75-1.62c.38,0,.88-.13,1.25-.13a6.55,6.55,0,0,1,6.13,4.88c0,1.25-.88,2.12-1,2.87l-3.25,25.5c2.5,2.38,3.5,4,3.5,4.88,0,1.37-1.75,1.62-4.38,1.75l-21.5.75L355,272.3c0,2,.25,3.75.25,5.25a6.44,6.44,0,0,1-6,6.75c-4.63,0-22.5-15.63-22.5-18,0-.5.37-.75,1-.75a9.58,9.58,0,0,1,4.12,1.37A111.57,111.57,0,0,0,347,273.55Zm25.12-33.63-45,2.38.75,9,43.38-2.25Zm-1.5,15.88-42.12,2.12.75,9.63,40.37-1.38Zm22,44.62c0,2.38-4.37,5.25-5.62,5.25a3,3,0,0,1-2.38-1.5,133.79,133.79,0,0,0-18.37-19,3.19,3.19,0,0,1-1.38-2.25c0-1.37,2.13-4.37,4.13-4.37.87,0,1.75.5,3,1.5C372.24,246.55,392.86,263.17,392.86,266.92Z"/><path d="M567.86,270.42c.38,0,.5-.12.75-.87a37,37,0,0,0,1.13-9,47.75,47.75,0,0,0-.88-8.5c-15.62,4.37-26.62,7.12-28.87,7.12-3,0-4.75-3.75-5.63-6a6.8,6.8,0,0,1-.25-1.12c0-.5.25-.63.75-.63.25,0,.5.13.75.13a29.81,29.81,0,0,0,3.25.25c2.75,0,17-2.75,28.5-5.13a48.41,48.41,0,0,0-3-6.37,5.77,5.77,0,0,1-1.12-2.63c0-1.87,3.87-3,4.62-3,1,0,1.63.5,2.5,1.75a100.89,100.89,0,0,0,10.13-7.12l-26.75,1.87a17.8,17.8,0,0,1-2.5.13c-3.88,0-5.75-2.13-7.38-5.38a2,2,0,0,1-.37-1c0-.5.37-.75,1-.75a3.31,3.31,0,0,1,1.12.13,25.63,25.63,0,0,0,5.38.62h1.25l33.12-1.75c.63,0,1.25-.12,1.75-.12,3.63,0,5.63,4.25,5.63,4.87,0,1.63-2,2.38-2.88,3-6.37,4.38-11.75,7.88-16.5,10.75a30.34,30.34,0,0,1,1.38,3.5c7.12-1.62,14.12-3.25,20.5-4.87a12.93,12.93,0,0,1,2.75-.38c1.25,0,1.87.38,1.87.88,0,1.37-1.87,2.62-23.62,9.12a47.24,47.24,0,0,1,1.25,10.5v1.38c-.25,4.87-.75,10.5-2.13,13.25s-3.12,4.12-5.25,4.12c-4.62,0-21.12-11.87-21.12-14.62,0-.5.37-.75,1-.75a4.28,4.28,0,0,1,2.12.62,97.07,97.07,0,0,0,15.38,6Zm-23-77.12c-1.37.12-2.37.12-3.25.12-3.75,0-5-1.62-6.87-5.62a1.37,1.37,0,0,1-.25-.88c0-.62.37-.87,1.12-.87a3.63,3.63,0,0,1,1.13.12,22.09,22.09,0,0,0,5.25.63h1.25l20.5-1.38-.25-9.25a6.1,6.1,0,0,0-1.13-3.62,4.07,4.07,0,0,1-.87-1.88c0-.5.5-.87,1.62-.87a24.08,24.08,0,0,1,4.13.62c3.25.75,4.12,1.25,4.12,3.25l-.12,11.25,18.87-1.25a17.9,17.9,0,0,0,4.38-.87,6,6,0,0,1,1.5-.25c2.5,0,6.37,3.37,6.37,5.25,0,1.12-1.25,1.75-3,1.87Zm12.38,24.87.12,1v.88c0,1.25-.25,2-1.5,2-1.62,0-6.12-1.25-6.12-4v-.63a14.14,14.14,0,0,0,.12-2.25,10.74,10.74,0,0,0-.25-2.75l-1.12-7a13.05,13.05,0,0,0-1.88-5.5,3.74,3.74,0,0,1-.75-1.75c0-.62.38-.87,1.5-.87,1.38,0,3.88.5,8.13,1.62L584,196.8h1.37a4.15,4.15,0,0,1,2.5.62c2,1.63,2.63,2.75,2.63,3.5s-.63,1.38-.75,2l-2.13,8.13c2,2.12,2.88,3.37,2.88,4.12,0,1-1.5,1.13-3.63,1.25Zm24.75-15-26.25,1.88.75,7,24.25-1.5Zm54.87,1.63c-3,15.62-6.62,27.62-13,40.25a117.18,117.18,0,0,0,25.5,29.87c.88.75,1.38,1.38,1.38,1.88,0,1.25-4.63,4-6.5,4a2.93,2.93,0,0,1-2-.88,131.39,131.39,0,0,1-22.38-27.87c-11.62,18.25-29.37,29.25-31.75,29.25-.62,0-1-.25-1-.88s.63-1.87,2.25-3.25c11.25-9.75,19.75-19.75,26.63-32.12a179.89,179.89,0,0,1-10.75-26.75c-7.38,14.37-9.25,15.37-10,15.37-.5,0-.75-.5-.75-1.37a8.79,8.79,0,0,1,1-3.75c12.62-28.5,15.87-50.5,15.87-53.5a17.91,17.91,0,0,0-.25-2.5v-.38c0-.75.38-1.25,1.13-1.25,2.12,0,8.12,3.88,8.12,6.5,0,1.88-3.25,12.75-7.25,23.13l20.25-1.75a21.34,21.34,0,0,0,5.75-1.13,3.32,3.32,0,0,1,1.5-.37c2.38,0,6.63,3.62,6.63,5.25,0,1-1,1.5-2.25,1.62Zm-26.25,1.87-1.12,2.5a150.76,150.76,0,0,0,10.25,28,136.91,136.91,0,0,0,8.5-31.75Z"/></g></g></svg>