<svg xmlns="http://www.w3.org/2000/svg" viewBox="0 0 754.74 298.38"><defs><style>.cls-1{stroke:#000;stroke-miterlimit:10;stroke-width:4px;}</style></defs><g id="レイヤー_2" data-name="レイヤー 2"><g id="レイヤー_1-2" data-name="レイヤー 1"><g id="_3列目" data-name="3列目"><path class="cls-1" d="M124.81,180.44l-.62,108.12c0,5.63-2.5,7.82-6.25,7.82-4.06,0-15.94-3.44-15.94-12.82,0-.62.31-1.25.31-2.18A131.17,131.17,0,0,0,103.88,262l.31-80.62-68.13,2.81.94,9.37v.94c0,4.38-2.5,5.94-5.94,5.94-5,0-15.62-3.44-15.62-12.19v-2.5c.31-3.44.62-6.25.62-9.06a77.31,77.31,0,0,0-.62-8.75L9.81,99.81A42.33,42.33,0,0,0,4.5,82.31C2.94,79.81,2,77.62,2,76.38c0-1.57.94-2.5,3.44-2.5,3.75,0,10.31,1.87,21.87,6.56l77.5-4.69L105.12,22a26,26,0,0,0-3.43-13.44,7.53,7.53,0,0,1-1.25-4.06c0-1.56,1.56-2.5,4.06-2.5,1.25,0,21.25,1.88,21.25,12.5l-.31,60,84.37-5a58.46,58.46,0,0,1,6.88-.31c12.81,0,15.31,10.93,15.31,12.5,0,3.43-2.5,5.93-2.81,8.75l-8.75,67.5c6.25,7.18,8.75,11.56,8.75,14.06,0,3.75-4.69,4.06-10.63,4.38Zm-20-86.25L28.88,98.56l5.93,67.82,69.69-3.13Zm103.75-5.94-83.12,4.69-.63,69.37,76.25-3.43Z"/><path class="cls-1" d="M304.61,283.74l.25,4.87V289a2.08,2.08,0,0,1-2.37,2.25c-1.25,0-6.88-1.25-6.88-5.38,0-.25.13-.5.13-.87a32.84,32.84,0,0,0,.5-6,25.21,25.21,0,0,0-.13-3.13l-1.62-22.37a20.1,20.1,0,0,0-1.75-7.38c-11.25,8.25-23.75,14.75-26.38,14.75-.75,0-1.12-.25-1.12-.75,0-.75.87-1.75,2.75-3,36.12-23.5,53.12-53.62,53.12-57.62a5.88,5.88,0,0,0-.37-2.13,1.31,1.31,0,0,1-.13-.62c0-.75.5-1.13,1.38-1.13,2.5,0,8.5,3.13,8.5,5.75,0,.63-.75,2-3.75,7.13,17.37,18.62,34,32,55,42.62,1.12.63,1.87,1.13,1.87,1.75a1.94,1.94,0,0,1-.87,1.38c-3,3-4.38,4.12-5.75,4.12s-27.63-14.75-54-44a125.3,125.3,0,0,1-27.13,29.38,48.82,48.82,0,0,1,6.75,2l44.13-2.25h.75c4.25,0,7.5,3.62,7.5,5.25s-1.13,2.62-1.25,3.75l-2.5,22.75c2.75,2.75,3.62,4.62,3.62,5.75,0,1.37-1.37,1.75-2.75,1.75Zm-.75-100.63c0-1.12.38-1.75,1.25-1.75s2.63.88,4.88,2.63,3.12,2.87,3.12,4a3.86,3.86,0,0,1-.87,2.12C299,209,280.49,222,276.74,222c-.63,0-.88-.25-.88-.63,0-.62.63-1.62,1.88-2.75,5-4.62,26.12-26,26.12-34.5ZM345,250.86l-42.38,1.88,1.63,23.87,38.87-1.12Zm16.87-36.12a312.91,312.91,0,0,0-28.37-27.63,2.77,2.77,0,0,1-1.25-1.87c0-.25,1.87-4.25,4-4.25,3,0,25.75,21.12,31.75,27.12a4.14,4.14,0,0,1,1.5,2.63c0,1.5-3.25,5.37-5.25,5.37C363.36,216.11,362.74,215.61,361.86,214.74Z"/><path class="cls-1" d="M537.86,224.24c-6.62,8.37-17.5,19.25-20.62,19.25a.66.66,0,0,1-.75-.75,6.11,6.11,0,0,1,1.62-3.13c19-23.25,33.25-50.25,33.25-56.5,0-.25-.12-.62-.12-1v-.37c0-.75.37-1.13,1.25-1.13,2.12,0,7.75,3.13,7.75,5.63,0,2.12-7.13,15.87-14.88,27.75l-.12,72.12c0,1.75-.88,2.63-2.25,2.63-2.13,0-6.5-2.38-6.5-5.38a5.3,5.3,0,0,1,.12-1.37,29.38,29.38,0,0,0,.75-7.38Zm24.63,43c-1.63,0-2.88.12-4,.12-2,0-3.38-.25-4.5-1.12s-4-4.63-4-6.38c0-.62.25-.87.87-.87a1.64,1.64,0,0,1,.75.12,22.45,22.45,0,0,0,5.38.63c1,0,1.87-.13,2.87-.13l58-2.25a30.33,30.33,0,0,0,6.25-1.25,3.63,3.63,0,0,1,1.13-.12c3.5,0,7.75,5,7.75,6.62,0,1.13-1.13,1.88-2.88,2Zm7.87-50.88c-1.37,0-2.62.13-3.75.13h-1.25c-4.5-.5-6.25-5.5-6.25-7,0-.63.25-.88.75-.88a2.39,2.39,0,0,1,.88.13,29.81,29.81,0,0,0,6,.62h1.12l37.63-2.12a23.54,23.54,0,0,0,5.62-1.25,1.32,1.32,0,0,1,.75-.13c2.5,0,7.13,4.88,7.13,6.38,0,1.12-1.38,1.62-3.13,1.75Z"/><path class="cls-1" d="M649.86,290.49a8.32,8.32,0,0,1-2.12.37c-1,0-1.38-.37-1.38-.87s.88-1.63,2.75-2.63c17.63-8.87,29.5-18.5,33.75-35.12a12.6,12.6,0,0,0,.38-3.13,6.92,6.92,0,0,0-.25-2.25,4.12,4.12,0,0,1-.13-1.12c0-.75.25-1.13,1.25-1.13,1.25,0,8,.88,8,4a3.21,3.21,0,0,1-.12,1C685.11,275.24,670.61,284.36,649.86,290.49Zm13-48.38c-4.5,15.75-6.37,16.88-7.75,16.88a6.43,6.43,0,0,1-3-1.13c-1.75-1.12-2.37-2-2.37-2.87a5.13,5.13,0,0,1,.62-2.13,93,93,0,0,0,8.13-23.12c.25-1.63.75-2.5,2.25-2.5.37,0,4.75.12,4.75,2.75,0,.75,0,.75-.88,5.12l77.88-3.75h1a5.89,5.89,0,0,1,5.75,4.13c0,1.37-1.5,2.25-2.13,3.12a73,73,0,0,1-12.5,14.63c-.25.25-.5.37-.62.62-1.63,1.25-2.75,1.88-3.5,1.88s-1-.38-1-1.13a7.09,7.09,0,0,1,1.75-3.87,115.31,115.31,0,0,0,7-12.25ZM664.49,199h-2.13c-2.75,0-5-.25-7.12-5.63a5.88,5.88,0,0,1-.25-1.12c0-.5.25-.75.87-.75a6,6,0,0,0,.63.12,19.51,19.51,0,0,0,4.75.63H662l32.37-1.75-.12-7a10,10,0,0,0-1.63-5.5,2.86,2.86,0,0,1-.37-1.13c0-.62.5-1,1.5-1a15.09,15.09,0,0,1,4.37,1c3.88,1.25,4.25,2,4.25,3.75l-.12,9.5,29-1.37a18,18,0,0,0,4.62-1,1.53,1.53,0,0,1,.75-.13c1.5,0,6.25,3.38,6.25,5.63,0,1.12-1.25,1.62-2.75,1.75Zm17.62,28,.13.62v.63a2,2,0,0,1-2.25,2.25c-2.63,0-5.63-1.63-5.63-4.25v-.88a6.82,6.82,0,0,0,.13-1.62,35.91,35.91,0,0,0-.5-4.88L673,211a19,19,0,0,0-2-6,5.86,5.86,0,0,1-.75-1.75c0-.63.37-.88,1.37-.88,1.38,0,4,.63,8.75,2.25L720,202.36c5.75,0,7.12,3.63,7.12,4.38s-.5,1.25-.75,1.87l-2.5,10.63c2.5,2.5,3.38,3.87,3.38,4.75s-1,1.12-2.25,1.25ZM718,208.74l-37.75,1.87,1.12,10.25,35.13-1.5Zm-5.25,63.37c0,5.75,2.5,7,14.37,7a87.34,87.34,0,0,0,11.5-.75c5.63-.75,7.5-1.37,9.75-18.87.38-3,1.25-4.38,2-4.38,2.13,0,2.38,9.5,2.38,13.88,0,1.87-.13,3.62-.13,5.37-.37,9.88-4.62,12.13-26.25,12.13-10.75,0-21.62-.25-21.62-12.5v-.38l.37-22.25a9.63,9.63,0,0,0-2-5.62,1.37,1.37,0,0,1-.25-.88c0-.62.63-1.12,1.88-1.12a15.59,15.59,0,0,1,4.37,1c3.75,1.25,4.13,2.25,4.13,4.75l-.5,22.12Z"/></g></g></g></svg>