<svg xmlns="http://www.w3.org/2000/svg" viewBox="0 0 758.74 298.38"><defs><style>.cls-1{stroke:#000;stroke-miterlimit:10;stroke-width:4px;}</style></defs><g id="レイヤー_2" data-name="レイヤー 2"><g id="レイヤー_1-2" data-name="レイヤー 1"><path class="cls-1" d="M124.81,180.44l-.62,108.12c0,5.63-2.5,7.82-6.25,7.82-4.06,0-15.94-3.44-15.94-12.82,0-.62.31-1.25.31-2.18A131.17,131.17,0,0,0,103.88,262l.31-80.62-68.13,2.81.94,9.37v.94c0,4.38-2.5,5.94-5.94,5.94-5,0-15.62-3.44-15.62-12.19v-2.5c.31-3.44.62-6.25.62-9.06a77.31,77.31,0,0,0-.62-8.75L9.81,99.81A42.33,42.33,0,0,0,4.5,82.31C2.94,79.81,2,77.62,2,76.38c0-1.57.94-2.5,3.44-2.5,3.75,0,10.31,1.87,21.87,6.56l77.5-4.69L105.12,22a26,26,0,0,0-3.43-13.44,7.53,7.53,0,0,1-1.25-4.06c0-1.56,1.56-2.5,4.06-2.5,1.25,0,21.25,1.88,21.25,12.5l-.31,60,84.37-5a58.46,58.46,0,0,1,6.88-.31c12.81,0,15.31,10.93,15.31,12.5,0,3.43-2.5,5.93-2.81,8.75l-8.75,67.5c6.25,7.18,8.75,11.56,8.75,14.06,0,3.75-4.69,4.06-10.63,4.38Zm-20-86.25L28.88,98.56l5.93,67.82,69.69-3.13Zm103.75-5.94-83.12,4.69-.63,69.37,76.25-3.43Z"/><path class="cls-1" d="M301.49,218.61l-.13,8.88a2.82,2.82,0,0,1,2.13-1c3.25,0,14.5,14.87,15.62,16.5a3,3,0,0,1,.75,1.87c0,2.5-4,4.25-4.62,4.25-1,0-1.75-.75-2.63-2.12a125.88,125.88,0,0,0-11.37-15.13l-.63,55.5c0,2.13-.62,3.13-2.12,3.13s-6.63-1.25-6.63-5.13A5.38,5.38,0,0,1,292,284a47.14,47.14,0,0,0,1.12-9.13s.25-23.25.38-34.62c0-2.75.5-7.38.5-7.38-4.25,13.5-22.25,34.88-26.63,34.88-.5,0-.62-.25-.62-.75a6.67,6.67,0,0,1,1.5-3.13c9.5-12,17.12-26.62,24.25-44.62L281,220c-1.25.12-2.25.25-3.25.25-4.13,0-7-4.38-7-7.13,0-.37.12-.62.62-.62.25,0,.38.12.63.12a25,25,0,0,0,5.37.63h1.13l15.37-1,.25-23.75a8.6,8.6,0,0,0-1.5-5.38,3,3,0,0,1-.62-1.5c0-.62.5-1.12,1.62-1.12.38,0,8.25.62,8.25,4.87l-.37,26.38,6.62-.5a16,16,0,0,0,4.5-1,2.68,2.68,0,0,1,1-.13c1.63,0,6.38,3.88,6.38,5.75,0,1-1.13,1.5-2.88,1.63Zm55.37-1L332,219.24a22.1,22.1,0,0,1-2.75.12c-2.25,0-4-.25-4.63-1-1.37-1.62-3.25-4.75-3.25-6.37,0-.5.13-.63.5-.63a1.32,1.32,0,0,1,.63.13,17,17,0,0,0,5.5.87h1.12l27.75-1.75-.12-21.12a10.65,10.65,0,0,0-2.13-6.5,4.23,4.23,0,0,1-1-2c0-.63.5-.88,1.38-.88a20.26,20.26,0,0,1,6,1.5c3.37,1.13,4,2.13,4,4.5l.12,24,6.63-.37a20.78,20.78,0,0,0,5.5-1,3.27,3.27,0,0,1,1.37-.38c2.75,0,6.75,4.88,6.75,6.25,0,1.13-1.25,1.38-2.87,1.5l-17.38,1.13.38,62c0,1.5.25,2.87.25,4.12,0,3.63-3.25,6.63-5.75,6.63-4,0-23.13-12.75-23.13-16.88,0-.5.38-.87,1.13-.87a8.13,8.13,0,0,1,3.62,1.25,81,81,0,0,0,15.63,6.62Zm-12.5,34.25c-.87,0-1.62-.62-2.37-2a109.93,109.93,0,0,0-12.13-17.62,2.62,2.62,0,0,1-.62-1.5c0-2.5,3.87-3.88,4.37-3.88,3,0,16.25,18.88,16.25,20.38C349.86,249,345.74,251.86,344.36,251.86Z"/><path class="cls-1" d="M529,267.49c-1.13,0-2.13.12-3,.12-1.88,0-5.38-.25-7.5-6.62a1.32,1.32,0,0,1-.13-.63c0-.37.13-.5.5-.5a2.39,2.39,0,0,1,.88.13,18.86,18.86,0,0,0,5.5.75h1.12l88.75-3.88a26.92,26.92,0,0,0,6.75-1,8.22,8.22,0,0,1,2.25-.5c1.63,0,6.88,3.75,6.88,6,0,1.25-1.5,1.63-3.38,1.75Zm-.38,23.37c-1.25,0-2-.37-2-.87s1-1.63,3.25-2.63a138.72,138.72,0,0,0,25.25-14.5,7.76,7.76,0,0,0,3.13-4.37c.25-1,.75-1.63,1.5-1.63,2.25,0,6.75,5.5,6.75,8.25a2.07,2.07,0,0,1-1,1.88C550.36,286.11,533.11,290.86,528.61,290.86ZM555,252.11l.12,1.63v.37a2.11,2.11,0,0,1-2.37,2.38c-1.5,0-6.5-1.25-6.5-4.63,0-.37.12-.62.12-1a27,27,0,0,0,.63-5.5V244l-1.5-32.5a16.94,16.94,0,0,0-1.38-5.88,6.19,6.19,0,0,1-.87-2.37c0-.75.5-1.13,1.5-1.13,1.5,0,4.25.88,9.25,3l16.5-1,.12-8-24.75,1.5a22.19,22.19,0,0,1-2.87.13c-2,0-3.63-.25-4.75-1.13a8.51,8.51,0,0,1-2.88-4.87c0-.63.25-.88.63-.88a1.07,1.07,0,0,1,.62.13,15.36,15.36,0,0,0,4.88.75h1L570.74,190v-5.25a13.48,13.48,0,0,0-1.63-6.5,3.25,3.25,0,0,1-.37-1.38c0-.62.37-1,1.25-1a17.88,17.88,0,0,1,4.87,1.13c3,.87,3.88,2,3.88,3.62l-.38,9,22-1.25a25,25,0,0,0,6.88-1.5,2.52,2.52,0,0,1,1-.12c1.87,0,6.87,3.25,6.87,5.25,0,1.12-1.37,1.5-2.75,1.62l-34.25,2-.25,8.13L600,202.36h.75c2.5,0,6.37,2.25,6.37,4.25,0,1-.87,1.75-1,2.63l-2.12,35c2.62,2.62,3.62,4,3.62,4.75s-1.75.75-3.75.87Zm43.25-43.62L553.36,211l.25,7.25,44.25-2.38Zm-.63,13.5-43.75,2.25.38,7.25,43-2.13ZM597,235.24l-42.5,2.12.25,8.75,41.87-1.87Zm14.87,54.62a184.44,184.44,0,0,0-26.37-14.5c-1.38-.62-2.13-1.37-2.13-2.5,0-1.87,2.25-5.12,3.5-5.12,1,0,11,3.62,28.13,13.75,2,1.12,3,2,3,3.5,0,.87-.88,5.75-3.75,5.75A4.28,4.28,0,0,1,611.86,289.86Z"/><path class="cls-1" d="M696.24,220.86,675,228.49l-.25,35.12v.75c0,10.13,2.62,11.5,12.37,12.75a162.68,162.68,0,0,0,21,1.25,183.76,183.76,0,0,0,29.25-2.25c8.5-1.37,10.13-3.25,11.75-9.25A112.32,112.32,0,0,0,752,250.61c.37-3.12,1.37-4.87,2.25-4.87,1.62,0,2.5,3.5,2.5,17.25,0,12.75-.25,18.75-16.5,20.87A245.85,245.85,0,0,1,708.36,286a217,217,0,0,1-24.25-1.38c-10.75-1.25-17.37-4.25-17.37-18.62v-.38l.25-34.25-13.5,4.88c-2.13.75-3.63,1.37-5,1.37-.5,0-3.25,0-6.5-4a2,2,0,0,1-.38-1c0-.5.25-.87,1-1a29.62,29.62,0,0,0,7.5-1.75L667,223.61l.12-15.12a15.83,15.83,0,0,0-1.87-8.25,3.84,3.84,0,0,1-.38-1.38c0-.5.38-.75,1.13-.75a18.27,18.27,0,0,1,4.37,1c4.25,1.38,4.75,2.38,4.75,4.63l-.12,17,21.37-7.88.13-24.87a17,17,0,0,0-1.75-7.63,2,2,0,0,1-.38-1.12c0-.5.38-.75,1.25-.75a12.89,12.89,0,0,1,4.25,1c3.13,1.12,4.38,2,4.38,4.62L704.11,210,729,201a5.68,5.68,0,0,1,2.37-.5c.88,0,5.88.37,5.88,4.37,0,1.5-.63,3-.63,3.88a302.87,302.87,0,0,1-2.5,36.25c-.62,4.75-1,9-4.12,11.75a7.42,7.42,0,0,1-4.5,2.12c-5.13,0-18-13.62-18-16.5a.92.92,0,0,1,1-1,7.76,7.76,0,0,1,3.25,1.38c6.75,4.37,11.87,6.5,12.37,6.5s1-.25,1.13-1.38a181.26,181.26,0,0,0,3.37-35.25v-3.37L704.11,218l-.25,45.87c0,1.63-.62,2.75-2,2.75s-6.62-2.25-6.62-5.62a3.21,3.21,0,0,1,.12-1,48.67,48.67,0,0,0,.75-9.25Z"/></g></g></svg>