<svg xmlns="http://www.w3.org/2000/svg" viewBox="0 0 916.96 279"><defs><style>.cls-1{stroke:#000;stroke-miterlimit:10;stroke-width:4px;}</style></defs><g id="レイヤー_2" data-name="レイヤー 2"><g id="レイヤー_1-2" data-name="レイヤー 1"><g id="_1列目" data-name="1列目"><path class="cls-1" d="M82.62,93.88v24.68a10.11,10.11,0,0,1,6.26-2.81c7.18,0,35.93,34.37,35.93,39.37s-9.37,11.26-11.87,11.26c-2.19,0-3.75-1.88-5.63-4.38a246.19,246.19,0,0,0-25-31.88L80.44,269.19c0,5.31-1.88,7.81-5.32,7.81-4.37,0-15.31-5.31-15.31-13.12a12.9,12.9,0,0,1,.31-3.44,84.13,84.13,0,0,0,2.19-19.69s.94-57.19,1.25-91.87c0-7.5.94-21.88.94-21.88-3.75,15.31-47.19,89.38-60.94,89.38-1.25,0-1.56-.63-1.56-2.19s.94-4.07,3.12-7.5c22.5-33.13,38.44-65.94,55-111.25L34.81,97.31c-3.75.31-6.87.63-9.37.63C12.62,97.94,9.5,81.38,9.5,81.06c0-.94.62-1.56,2.19-1.56a13.24,13.24,0,0,0,1.56.31,36.47,36.47,0,0,0,10,1.25c1.87,0,3.44-.31,5.31-.31l35.94-2.5.62-56.87A23.33,23.33,0,0,0,61.06,8.25c-.94-1.56-1.56-2.5-1.56-3.44C59.5,2.94,61.38,2,63.88,2s5.93.94,10,2.5c9.06,3.44,10.31,5.31,10.31,10L82.94,76.69l17.18-1.25a47.67,47.67,0,0,0,11.57-2.19,5.35,5.35,0,0,1,2.19-.31c4.68,0,15.31,7.5,15.31,13.12,0,2.82-3.13,4.38-6.88,4.69Zm52.5-50.94c0-7.82-.62-14.69-4.06-21.88a8.6,8.6,0,0,1-1.56-3.75c0-.93.62-1.25,2.19-1.25,2.81,0,9.06,1.56,21.87,6.25L229.19,17c1.56,0,2.5-.31,3.75-.31,2.81,0,13.75,4.69,13.75,10.62,0,2.19-1.57,4.38-1.88,7.5l-7.5,80c5.31,6.57,7.5,10.31,7.5,12.19,0,2.5-3.43,2.81-9.06,3.12L182,132.62a297.74,297.74,0,0,0,25.62,41.26c11.26-8.13,40-30,44.38-46.57.62-2.5,1.56-4.06,3.44-4.06,4.06,0,13.12,11.25,13.12,17.19,0,6.87-34.37,35-51.25,46.25,20,24.37,44.07,44.69,75.63,61.56,3.12,1.56,4.37,3.13,4.37,4.37,0,3.44-12.5,12.82-15.93,12.82a8.34,8.34,0,0,1-4.38-1.56c-51.88-35-82.5-71.26-112.81-130.32l-11.57.32-.31,105.93c13.75-6.25,30.31-14.06,45.94-22.5a17.94,17.94,0,0,1,7.81-2.5c1.88,0,2.82.63,2.82,1.88,0,8.43-69.69,55-83.13,55a8.26,8.26,0,0,1-3.75-.94c-9.38-5.63-13.75-15.94-13.75-16.56,0-1.57,1.56-1.88,5-2.19a69.18,69.18,0,0,0,20.94-4.69Zm87.82,38.12-70,3.75-.32,32.81,67.82-3.12Zm3.12-46.56-73.12,4.38v30l70.94-4.07Z"/><path class="cls-1" d="M418.08,234.05a190.64,190.64,0,0,1-3,26.25c-.75,4.37-2.75,6.5-5.37,6.5-11,0-29.88-29.88-35.75-54.25-1.25-5.25-2.5-11.13-3.75-17.5l-52,2.75h-2a10.35,10.35,0,0,1-4.13-.5c-2-1.38-4.25-4.63-4.25-6.25,0-.5.25-.75.88-.75a3.24,3.24,0,0,1,1,.12,15.94,15.94,0,0,0,4.37.5h1.63l53.12-2.87c-1.5-8.75-2.87-18.25-4-27.63a11.52,11.52,0,0,0-2.5-6.37,2.37,2.37,0,0,1-.62-1.25c0-.75.87-1.13,2.25-1.13a15.74,15.74,0,0,1,3.75.5c3.5.75,4.12,1.63,4.37,4,1.25,11.38,2.75,22,4.5,31.5l21.25-1.12a24.53,24.53,0,0,0,6-1,6,6,0,0,1,1.5-.25c3.25,0,6.63,4.62,6.63,5.87s-1.38,1.75-3.25,1.88L378,194.67c1.12,5.63,2.25,10.75,3.37,15.13,8.5,32.37,25.13,46.75,26.13,46.75,1.5,0,5-13.75,6.75-23,.62-3,1.62-4.5,2.5-4.5s1.37,1.25,1.37,3.75ZM341.21,206.8c0-1.88-.63-3.38-1.88-5.5a1.25,1.25,0,0,1-.25-.75c0-.5.38-.75,1.25-.75a18.12,18.12,0,0,1,4.13.75c2.62.62,4.25,1.37,4.25,3.25l.12,13.37,6.38-.5a19.93,19.93,0,0,0,5.37-1,6.76,6.76,0,0,1,1.38-.25c2.75,0,6.12,4.38,6.12,5.63s-1.5,1.5-3.25,1.62L349,223.8l.25,20.12c6.62-2,13.37-4.12,20.62-6.75a10.19,10.19,0,0,1,2.88-.62c1.25,0,1.87.5,1.87,1.12,0,.88-1.12,2.13-3.5,3.25-33.5,15.75-52.37,19.25-53.5,19.25-4.25,0-7.37-5.87-7.37-7,0-.62.37-1,1.62-1a51.37,51.37,0,0,0,12.75-2L324,219.92c0-1.87-.63-3.37-1.88-5.5a1.22,1.22,0,0,1-.25-.75c0-.5.38-.75,1.25-.75a18.12,18.12,0,0,1,4.13.75c2.62.63,4.12,1.38,4.12,3.25l.5,31.63,10-2.63Zm-8.13-27.63a28.27,28.27,0,0,1-3.12.13,6.38,6.38,0,0,1-1.63-.13,3.25,3.25,0,0,1-1.75-.5c-.37-.37-3.87-3.37-3.87-6,0-.5.25-.75.87-.75a1.53,1.53,0,0,1,.75.13,21.65,21.65,0,0,0,5.13.62h1.37l17.25-1.12a20.17,20.17,0,0,0,5.38-.88,6.53,6.53,0,0,1,1.5-.25c3.37,0,6,4.5,6,5.38,0,1.12-1.5,1.62-3.25,1.75Zm61.13.88a108.69,108.69,0,0,0-14.63-13c-1.25-.88-1.75-1.63-1.75-2.38a3.82,3.82,0,0,1,1.13-2.25c.87-1.12,1.62-1.62,2.5-1.62,1.87,0,19.37,12.5,19.37,15.75,0,.87-1.87,5.12-4.12,5.12C396,181.67,395.21,181.17,394.21,180.05Z"/><path class="cls-1" d="M465.71,259.55l.25,4.87v.38a2.08,2.08,0,0,1-2.38,2.25c-1.25,0-6.87-1.25-6.87-5.38,0-.25.12-.5.12-.87a32,32,0,0,0,.5-6,27.3,27.3,0,0,0-.12-3.13l-1.63-22.37a19.9,19.9,0,0,0-1.75-7.38c-11.25,8.25-23.75,14.75-26.37,14.75-.75,0-1.13-.25-1.13-.75,0-.75.88-1.75,2.75-3,36.13-23.5,53.13-53.62,53.13-57.62a5.89,5.89,0,0,0-.38-2.13,1.4,1.4,0,0,1-.12-.62c0-.75.5-1.13,1.37-1.13,2.5,0,8.5,3.13,8.5,5.75,0,.63-.75,2-3.75,7.13,17.38,18.62,34,32,55,42.62,1.13.63,1.88,1.13,1.88,1.75a1.93,1.93,0,0,1-.88,1.38c-3,3-4.37,4.12-5.75,4.12s-27.62-14.75-54-44A125.48,125.48,0,0,1,457,219.55a49.23,49.23,0,0,1,6.75,2l44.12-2.25h.75c4.25,0,7.5,3.62,7.5,5.25s-1.12,2.62-1.25,3.75l-2.5,22.75c2.75,2.75,3.63,4.62,3.63,5.75,0,1.37-1.38,1.75-2.75,1.75ZM465,158.92c0-1.12.37-1.75,1.25-1.75s2.62.88,4.87,2.63,3.13,2.87,3.13,4a3.88,3.88,0,0,1-.88,2.12c-13.25,18.88-31.75,31.88-35.5,31.88-.62,0-.87-.25-.87-.63,0-.62.62-1.62,1.87-2.75,5-4.62,26.13-26,26.13-34.5Zm41.12,67.75-42.37,1.88,1.62,23.87,38.88-1.12ZM523,190.55a311.74,311.74,0,0,0-28.38-27.63,2.77,2.77,0,0,1-1.25-1.87c0-.25,1.88-4.25,4-4.25,3,0,25.75,21.12,31.75,27.12a4.1,4.1,0,0,1,1.5,2.63c0,1.5-3.25,5.37-5.25,5.37C524.46,191.92,523.83,191.42,523,190.55Z"/><path class="cls-1" d="M695.58,208.92c-1.5.13-2.75.25-3.87.25s-4.25-.12-6.88-5.87a2.86,2.86,0,0,1-.37-1.13c0-.37.37-.62,1-.62.25,0,.62.12,1,.12a33.29,33.29,0,0,0,4.87.38H693l26.62-2.25a7.47,7.47,0,0,1,1.63-.13c2.25,0,6.12,2.25,6.12,4.75,0,1.63-1.5,2.63-1.75,3.13-15,35.37-43.87,49.25-47.5,49.25-.75,0-1.25-.25-1.25-.75s.63-1.63,2.13-2.63c16-11.5,30.12-28.12,37.62-46.25Zm38.75-23.37-23.5,1.75c-1.75.12-3,.25-4.12.25-5,0-7.13-6.13-7.13-6.88,0-.5.38-.87,1.13-.87a5.26,5.26,0,0,0,.62.12,17.37,17.37,0,0,0,3.75.38c1,0,2.13-.13,3.13-.13l27.37-2.12c.63,0,1.25-.13,1.75-.13,2.25,0,6.13,1.88,6.13,4.63,0,1-.63,2-.63,3v12.62c2.75,4.5,5.5,8.75,8.38,12.75,8.62-6,15.62-12,21.12-18.87a8.54,8.54,0,0,0,2.13-4.75c.12-1.25.62-1.88,1.37-1.88,2,0,6.63,5.38,6.63,7.5s-16,16.13-27,23.5c11,13.63,23.37,24,37.37,31.5,1.5.75,2.25,1.38,2.25,2,0,.88-4.62,5.25-7.62,5.25a3,3,0,0,1-1.88-.75c-16-10.62-31.37-26.5-42.87-43.62l-.13,44c0,1.75.13,3.25.13,4.75,0,4.62-3.25,7-6,7-5.5,0-26-14.13-26-17.38,0-.62.5-1,1.25-1a6.08,6.08,0,0,1,2.5.75,110.52,110.52,0,0,0,19.62,7.38Zm13-11.38a190.22,190.22,0,0,0-29-12.5c-1.62-.5-2.37-1.12-2.37-2.37a6.17,6.17,0,0,1,.37-1.88c.75-2.12,1.5-2.87,2.63-2.87,2.75,0,26.12,9.25,31.37,11.62,1.88.88,2.75,1.63,2.75,3,0,2.5-2,5.75-3.5,5.75A4.78,4.78,0,0,1,747.33,174.17Z"/><path class="cls-1" d="M833.83,210.42c-1,0-1.87.13-2.62.13-1.63,0-5.75,0-7.88-6.5a1.94,1.94,0,0,1-.12-.75c0-.38.12-.5.5-.5a1.64,1.64,0,0,1,.75.12,15.31,15.31,0,0,0,4.87.63H831l25.37-1.13V184.17l-38.25,2c-1.25,0-2.37.13-3.37.13-5.63,0-7.38-6.25-7.38-7.38,0-.37.13-.5.5-.5a2.74,2.74,0,0,1,.88.13,16.14,16.14,0,0,0,5,.62h1.62l41-2.25V161.05a9.54,9.54,0,0,0-1.75-5.5,2.69,2.69,0,0,1-.5-1.38c0-.62.63-1,1.63-1,1.87,0,9,1.38,9,4.88l-.13,18.5,35.63-2a25.14,25.14,0,0,0,5.87-1.25,6,6,0,0,1,1.5-.25c1.88,0,7.38,3.62,7.38,6.37,0,1.13-1.38,1.63-3,1.75l-47.5,2.5-.13,18.38,18.75-.88a16.06,16.06,0,0,0,5.63-1.25,3.32,3.32,0,0,1,1.5-.37c1.62,0,7,3.62,7,6.25,0,1.12-1.38,1.62-3,1.75Zm7,48,.38,4.75v.38a2.19,2.19,0,0,1-2.25,2.37c-1,0-7-1.5-7-5.5,0-.25.12-.5.12-.87a42.16,42.16,0,0,0,.38-5.5c0-1.38-.13-2.75-.25-4.25l-2-19.13a35.47,35.47,0,0,0-1.5-7.37,5.54,5.54,0,0,1-.38-1.75c0-.75.38-1.13,1.38-1.13,1.37,0,4.12.88,9.12,2.75l46.75-2H887c3,0,6.25,2.13,6.25,4.63a15.46,15.46,0,0,1-.63,2.62l-4,21.88c2.63,2.87,3.63,4.62,3.63,5.75,0,1.62-2.38,1.5-5,1.62ZM884,228.3l-45.5,1.62,1.75,21.63,40.5-1Z"/></g></g></g></svg>