<svg xmlns="http://www.w3.org/2000/svg" viewBox="0 0 789.08 275.83"><defs><style>.cls-1{stroke:#000;stroke-miterlimit:10;stroke-width:4px;}</style></defs><g id="レイヤー_2" data-name="レイヤー 2"><g id="レイヤー_1-2" data-name="レイヤー 1"><path class="cls-1" d="M65.12,166.69l-23.43.93.31,4.07v.93c0,4.69-2.19,6.57-5,6.57,0,0-15.31-1.57-15.31-12.81V164.5c.31-3.44.62-6.25.62-9.38,0-1.87-.31-4.06-.31-6.56L17.94,94.19A60.76,60.76,0,0,0,13.88,77C12.62,74.5,12,72.62,12,71.38s.62-1.88,2.5-1.88c3.12,0,9.38,1.88,20.94,6.56L64.5,74.5l-.31-54.06A22.12,22.12,0,0,0,60.44,7.62a5.78,5.78,0,0,1-1.25-3.43C59.19,2.62,60.44,2,62.31,2,64.5,2,83.25,5.44,83.25,13.88V73.56L117.94,72h1.87c4.38,0,15,3.44,15,9.69,0,2.19-1.56,4.37-1.87,6.56l-6.88,59.06c5.32,6.25,7.5,10,7.5,12.19,0,3.12-3.44,3.75-8.12,4.06l-42.19,2.19V224.5c8.75-2.5,16.25-5.31,24.06-8.12-2.19-5.32-4.69-11.26-7.19-15.94a8.61,8.61,0,0,1-1.24-4.38c0-5,7.81-7.81,11.56-7.81,2.5,0,4.06,1.56,5.31,4.69,7.81,17.81,20.31,48.12,20.31,53.12,0,5.63-7.5,8.75-13.44,8.75-3.43,0-5-2.19-5.93-6.25a143.08,143.08,0,0,0-5-18.12c-55.63,22.18-90,30-93.75,30-5.94,0-11.88-5.63-15.63-15.94A4,4,0,0,1,2,242.62c0-1.24.94-1.87,2.5-1.87H5.75a30.53,30.53,0,0,0,5.31.31c7.19,0,15.94-1.25,54.69-11.56Zm-.31-75.31L36.69,92.62l4.06,58.44,24.37-.94Zm47.81-2.19L83.25,90.44v58.75l24.37-1.25Zm51.26,158.12c-3.76,0-6.88.31-9.38.31-3.44,0-5.31-.31-6.25-1.24a44.55,44.55,0,0,1-9.69-15.63c0-.31-.31-.63-.31-.94,0-1.25.94-1.87,2.19-1.87.62,0,.94.31,1.25.31a60.16,60.16,0,0,0,13.12,1.56h2.81l40-1.25L198.56,72,167,73.88c-3.44.31-6.25.31-8.75.31-3.44,0-5.94-.31-6.87-1.25a35.41,35.41,0,0,1-9.69-14.69c0-.31-.31-.63-.31-.94,0-.93,1.24-1.56,2.5-1.56h.93A88.43,88.43,0,0,0,157.94,57h2.81l78.75-4.38a40.81,40.81,0,0,0,13.12-3.43,8.3,8.3,0,0,1,3.76-.94c5,0,17.81,10,17.81,15.63,0,3.12-3.44,4.06-7.5,4.37l-48.13,2.81-.62,156.56,41.25-1.24c6.25-.32,10.93-.63,14.69-1.88a8.68,8.68,0,0,1,4.06-.94c5,0,15.62,11.88,15.62,16.88,0,2.81-2.81,3.12-6.25,3.44Z"/><path class="cls-1" d="M331.33,202l-.12,8.88a2.8,2.8,0,0,1,2.12-1c3.25,0,14.5,14.87,15.63,16.5a3,3,0,0,1,.75,1.87c0,2.5-4,4.25-4.63,4.25-1,0-1.75-.75-2.62-2.12a126,126,0,0,0-11.38-15.13l-.62,55.5c0,2.13-.63,3.13-2.13,3.13s-6.62-1.25-6.62-5.13a5.81,5.81,0,0,1,.12-1.37A46.41,46.41,0,0,0,323,258.2s.25-23.25.37-34.62c0-2.75.5-7.38.5-7.38-4.25,13.5-22.25,34.88-26.62,34.88-.5,0-.63-.25-.63-.75a6.67,6.67,0,0,1,1.5-3.13c9.5-12,17.13-26.62,24.25-44.62l-11.5.75c-1.25.12-2.25.25-3.25.25-4.12,0-7-4.38-7-7.13,0-.37.13-.62.63-.62.25,0,.37.12.62.12a25,25,0,0,0,5.38.63h1.12l15.38-1,.25-23.75a8.6,8.6,0,0,0-1.5-5.38,2.92,2.92,0,0,1-.63-1.5c0-.62.5-1.12,1.63-1.12.37,0,8.25.62,8.25,4.87l-.38,26.38,6.63-.5a16.1,16.1,0,0,0,4.5-1,2.63,2.63,0,0,1,1-.13c1.62,0,6.37,3.88,6.37,5.75,0,1-1.12,1.5-2.87,1.63Zm55.38-1-24.88,1.63a22,22,0,0,1-2.75.12c-2.25,0-4-.25-4.62-1-1.38-1.62-3.25-4.75-3.25-6.37,0-.5.12-.63.5-.63a1.31,1.31,0,0,1,.62.13,17,17,0,0,0,5.5.87H359L386.71,194l-.13-21.12a10.64,10.64,0,0,0-2.12-6.5,4.13,4.13,0,0,1-1-2c0-.63.5-.88,1.37-.88a20.26,20.26,0,0,1,6,1.5c3.38,1.13,4,2.13,4,4.5l.13,24,6.62-.37a20.71,20.71,0,0,0,5.5-1,3.28,3.28,0,0,1,1.38-.38c2.75,0,6.75,4.88,6.75,6.25,0,1.13-1.25,1.38-2.88,1.5L395,200.58l.37,62c0,1.5.25,2.87.25,4.12,0,3.63-3.25,6.63-5.75,6.63-4,0-23.12-12.75-23.12-16.88,0-.5.37-.87,1.12-.87a8.16,8.16,0,0,1,3.63,1.25,80.94,80.94,0,0,0,15.62,6.62Zm-12.5,34.25c-.88,0-1.63-.62-2.38-2a109.88,109.88,0,0,0-12.12-17.62,2.57,2.57,0,0,1-.63-1.5c0-2.5,3.88-3.88,4.38-3.88,3,0,16.25,18.88,16.25,20.38C379.71,232.33,375.58,235.2,374.21,235.2Z"/><path class="cls-1" d="M563.33,206c-2.5,3.63-13.87,20-17.5,20-.62,0-1-.37-1-1.12a7.16,7.16,0,0,1,1.38-3.25c19.37-29.25,27.87-50.25,27.87-55.63a6.85,6.85,0,0,0-.12-1.62c0-.25-.13-.38-.13-.5,0-.75.5-1.13,1.38-1.13.12,0,8.25,1.63,8.25,5.13a3.34,3.34,0,0,1-.38,1.5,227.83,227.83,0,0,1-12.75,26v75.75a2.08,2.08,0,0,1-2.25,2.37c-1.75,0-6-1.5-6-5.12a4.5,4.5,0,0,1,.13-1.25,38.09,38.09,0,0,0,.62-6.75Zm18-6.87a10.39,10.39,0,0,0-1.87-5.63,2,2,0,0,1-.38-1c0-.5.38-.75,1.13-.75a17.72,17.72,0,0,1,4.5,1c3.37,1,3.75,1.88,3.75,4.25l.37,53.88c0,1.37-.62,2.37-2,2.37,0,0-6.37-1.5-6.37-4.5a5.26,5.26,0,0,0,.12-.62,36.72,36.72,0,0,0,.88-8.5ZM643,181.33a75,75,0,0,1-12.25,18.37c9,5.88,19.12,9.63,32.62,14,.63.25,1.25.63,1.25,1.38,0,1.5-3.5,5.12-5.75,5.12a4.69,4.69,0,0,1-2.12-.5c-11.75-4.62-21.88-8.37-31-15.12-12.63,11.25-31,17.5-33.75,17.5-.88,0-1.25-.38-1.25-.88s.62-1.5,2.12-2.37C603,213.08,612,208,620.08,200.33a119.67,119.67,0,0,1-12.25-11.88,69.9,69.9,0,0,1-10.75,9.13,7.21,7.21,0,0,1-3.37,1.5.66.66,0,0,1-.75-.75c0-.63.5-1.63,1.75-3,8.87-9.88,19.12-24.75,19.12-31.13a8.64,8.64,0,0,0-.12-1.75v-.25c0-1,.62-1.37,1.5-1.37,2,0,7.87,3.25,7.87,5.87,0,.13-1.62,3.88-5.75,10.13l25.5-1.63a19.67,19.67,0,0,0,6.25-1.12,5.15,5.15,0,0,1,1.5-.38c2.5,0,6.38,4.25,6.38,5.38s-1.5,1.5-3.5,1.62ZM595.83,272.7a18.26,18.26,0,0,1-2.37.25c-1.63,0-2.5-.5-2.5-1.12s1.12-1.75,3.62-2.63c19.63-6.87,35.63-15.37,49.38-27a9.09,9.09,0,0,0,2.5-4c.25-.87.75-1.5,1.5-1.5,1.75,0,5.5,5,5.5,7.25a1.71,1.71,0,0,1-.63,1.25C636.08,258.83,619.58,267.83,595.83,272.7Zm34.88-62.62c1.37,0,5.5,4.12,5.5,7a1.6,1.6,0,0,1-.63,1.37c-10.5,7.88-19.75,13.88-33.75,17.5a10.51,10.51,0,0,1-3.12.5c-1.13,0-1.75-.37-1.75-.87,0-.75,1.25-2,3.75-3.13,6.12-2.87,26.25-13.75,28.5-21C629.58,210.58,630.08,210.08,630.71,210.08Zm6.5,14.12c2.5,0,5.5,5.75,5.5,7.13a1.45,1.45,0,0,1-.63,1.37c-19.37,15.38-38.87,20-41.37,20-1.25,0-2-.37-2-1,0-.87,1.25-2.12,3.75-3.25,7-3.12,30.75-14.62,33.25-22.75C636.08,224.83,636.58,224.2,637.21,224.2Zm-24.5-41-.5.63A74.7,74.7,0,0,0,625,195.45a61.85,61.85,0,0,0,9.12-13.62Z"/><path class="cls-1" d="M779.83,271.2c-22.37-.75-58.75-7.62-77.62-11.5a54.65,54.65,0,0,0-11.63-1.5,42,42,0,0,0-13.12,2.25,7.68,7.68,0,0,1-2.13.38c-2.87,0-3.12-3.75-3.12-5.38,0-2.25,1.62-3,11.75-4a101.45,101.45,0,0,0,12.87-13.37,1.29,1.29,0,0,0,.25-.63c0-.5-1.12-2.25-9.25-7.62-2.25-1.5-3.37-3-3.37-4.88,0-2.5,1.87-5.25,10.37-17L683,209.45a26.45,26.45,0,0,1-2.75.25c-.5,0-5.13,0-6.63-6a1.64,1.64,0,0,1-.12-.75c0-.62.25-.87.75-.87.25,0,.5.12.75.12a19.09,19.09,0,0,0,3.75.38,10.4,10.4,0,0,0,2-.13l19-2c.5,0,1-.12,1.37-.12,1.88,0,5,2.25,5,4.25,0,1.37-1.5,2.37-2.25,3.25-3.12,4-11.62,15-11.62,16,0,.37.12.62.62.87,6.88,4.38,12.63,8.13,12.63,12.75,0,2-.38,4.25-11.38,13.88a61.59,61.59,0,0,1,9.25,1.25c19.25,3.75,55.5,10.5,80.25,10.5h.63c1.87,0,2.87.25,2.87,1.12,0,.38-2.25,7-6.5,7Zm-79.62-78c-1,0-2-.75-3.13-2.25a135.37,135.37,0,0,0-15.37-16.87q-1.5-1.32-1.5-2.25c0-2,3.5-3.88,4.37-3.88,2.5,0,20.63,17.38,20.63,20.38C705.21,190.08,702,193.2,700.21,193.2ZM719.08,213c-1.37.13-2.75.25-4,.25-2,0-5.37-.25-7.5-6.5a1.64,1.64,0,0,1-.12-.75.59.59,0,0,1,.62-.62,1.64,1.64,0,0,1,.75.12,25.67,25.67,0,0,0,5.88.75h1l26-1.5.12-15.5-14.12.88c-5,7.62-11.38,14.5-13.88,14.5a.66.66,0,0,1-.75-.75,5.69,5.69,0,0,1,1.25-3c4.5-7.25,12.13-22.38,12.13-29.75a13.07,13.07,0,0,0-.13-2.25v-.5c0-.88.25-1.38,1.13-1.38,2,0,8.25,3.75,8.25,6a1.32,1.32,0,0,1-.13.63,52.41,52.41,0,0,1-4,9.5l10.25-.63L742,167.7a7.07,7.07,0,0,0-2-5.5,1.46,1.46,0,0,1-.5-1c0-.5.5-.75,1.37-.75,1.63,0,9.13,1.13,9.13,4.38L749.83,182l10.63-.62a23.34,23.34,0,0,0,4.87-1.13,2.58,2.58,0,0,1,.88-.12c1.25,0,6.87,3.5,6.87,5.87,0,1.13-1.37,1.5-2.75,1.63l-20.5,1.12-.12,15.5,24-1.37a15.1,15.1,0,0,0,4.62-1,2.88,2.88,0,0,1,1-.25c2.25,0,6.88,4.37,6.88,6.12,0,1.13-1.25,1.5-2.88,1.63Zm12.38,37.38.25,1.75v.5c0,1.5-.63,2.12-1.63,2.12a8.64,8.64,0,0,1-3-.75c-2.87-1.12-4-2.37-4-4.25v-.62c.13-2,.38-3.75.38-5.38a9.06,9.06,0,0,0-.13-1.87l-1.87-14a14.54,14.54,0,0,0-1.88-6A4.75,4.75,0,0,1,719,220c0-.5.25-.87,1.25-.87,1.5,0,4.12.75,8.75,2.37l36.25-1.87h.87c2.63,0,6,2.5,6,4.5,0,.87-.62,1.5-.75,2.25l-2.87,16.12c2.37,2.63,3.37,4.25,3.37,5.13,0,1.25-1.62,1.25-3.75,1.37Zm31.25-23.63-33.25,1.5,1.37,15,29.75-1Z"/></g></g></svg>