<svg xmlns="http://www.w3.org/2000/svg" viewBox="0 0 780.42 259.95"><defs><style>.cls-1{stroke:#000;stroke-miterlimit:10;stroke-width:4px;}</style></defs><g id="レイヤー_2" data-name="レイヤー 2"><g id="レイヤー_1-2" data-name="レイヤー 1"><g id="_3列目" data-name="3列目"><path class="cls-1" d="M233.88,72.94c0,6.25-5.32,7.81-12.5,8.12-27.5.63-56.57,2.5-84.07,5.32a11.85,11.85,0,0,1,1.57,6.56v2.18C126.69,197,40.12,236.69,30.75,236.69c-1.56,0-2.81-.31-3.44-1.25a1.9,1.9,0,0,1-.31-1.25c0-2.5,3.75-5.63,9.38-9.69,27.5-19.38,72.81-61.56,80.31-128.44v-.62a10.05,10.05,0,0,0-3.13-6.56c-33.44,3.74-63.75,8.43-85.31,11.87a40.28,40.28,0,0,1-8.13.94C11.69,101.69,2,89.19,2,83.25a2.92,2.92,0,0,1,1.56-2.81,6,6,0,0,1,2.5-.32,23.82,23.82,0,0,1,6.25,1.26,47.46,47.46,0,0,0,6.25.62c1.88,0,3.75-.31,5.32-.31,55-6.88,122.18-16.88,182.5-19.69,3.43-.31,6.56-1.88,10-1.88h.93c5.94.32,16.25,7.82,16.57,12.19ZM166.06,2c5.32,0,19.06,4.06,19.38,11.88,0,5.31-4.06,6.56-7.5,7.18C159.5,25.12,64.5,37.31,57.31,37.31c-10.93,0-17.5-14.69-17.5-18.75,0-1.25.31-2.18,1.25-2.5a4,4,0,0,1,1.88-.31c3.12,0,7.5,1.56,10,1.87a26.93,26.93,0,0,0,5.31.63c1.25,0,2.5-.31,3.44-.31,8.75-.63,88.75-9.69,98.43-14.69,1.57-.94,3.13-.94,5-1.25Z"/><path class="cls-1" d="M201.55,177a5,5,0,0,1-.88-2.37c0-2.25,3.25-3.25,4.5-3.25a2.71,2.71,0,0,1,2.38,1.37c4.37,5.88,13.62,23.5,13.62,26.88,0,3-3.75,4.37-5.25,4.37s-2.37-1.12-3-2.5C210.42,194.7,205.3,183.2,201.55,177Zm10,69.38c0-.75,1.25-2.13,4.25-4.13,41.25-26.37,55.62-69.12,55.62-71.75,0-1.75-.62-3.37-.62-4.5,0-.5.12-1.37,1.62-1.37,1.25,0,8.63,3,8.63,6.75a7.78,7.78,0,0,1-.63,2.62c-20.25,52.5-60.5,73-67.62,73C211.92,247,211.55,246.7,211.55,246.33Zm15.12-79c0-2.88,4-3.25,4.25-3.25a3,3,0,0,1,2.75,1.75c2,3,9.75,19.25,11.63,25.5a4.54,4.54,0,0,1,.25,1.75c0,2.87-4,3.87-5.38,3.87a3,3,0,0,1-3.12-2.37,197.59,197.59,0,0,0-9.88-25.13A6.54,6.54,0,0,1,226.67,167.33Z"/><path class="cls-1" d="M351.42,194.2c-10.75,3.13-19.5,5.75-21.87,6.5a9.91,9.91,0,0,1-3.25.63c-3.38,0-7.38-4.5-7.38-6.63a1.27,1.27,0,0,1,.63-1.25,1.34,1.34,0,0,1,1-.25c1,0,2.25.38,3.37.38h.25c3.13-.5,3.13-.5,25.25-6.63-3-11.37-5.37-20-5.62-20.75-1.38-4-4.75-4.37-4.75-6a.79.79,0,0,1,.12-.5c.38-1.12,1.75-1.37,3.75-1.37,1,0,2.38.12,3.75.12,3.13.13,4.5,2.13,5,4.5.38,1.75,2.75,10.5,5.75,21.75,17.88-5.12,37.75-11,43.13-12.62a3.31,3.31,0,0,1,1.12-.13c3,0,6.5,3.25,6.5,5.13a4.57,4.57,0,0,1-.87,2.25c-.5.75-1.38,1.25-1.88,2-7.62,10.5-24.37,28.87-28.37,28.87a.92.92,0,0,1-1-1c0-.87.62-2.25,2.12-4a248.48,248.48,0,0,0,16.13-23.62l-34.88,10.25c6.38,23.37,14.38,52.75,15,54.62a10.62,10.62,0,0,1,.25,2c0,4.63-2,5.13-3.37,5.13-3.25,0-5.5-4.88-5.88-5.63s-.12-2.5-.5-4Z"/><path class="cls-1" d="M564.55,246c-2.88,0-5.13-3.37-5.13-6a4,4,0,0,1,.38-1.75c1.12-1.62,2.12-2.5,2.87-3.75,4.88-8.25,15.75-20.75,29.25-32,11-9,16.63-17.12,16.63-25.37,0-7.5-4.88-12.75-15.25-12.75-10.13,0-16.75,5-19.63,12.25a5,5,0,0,1-4.25,3.25c-2.5,0-4.87-3.88-4.87-5.63,0-3.5,9.12-17.87,29-17.87,15,0,24.25,8.5,24.25,20.75,0,10.62-7.75,20.87-20.25,31.25s-21.25,19.5-27.13,29.12c5-.5,13.88-.62,18.63-.62,6.25,0,13,.12,18.25.12,2.25,0,6.37-.12,8.12-.12,2.13,0,4.25,3.87,4.25,6.5,0,1.25-.5,2.25-1.87,2.25-1.63,0-6-.5-10.5-.75-5.13-.25-12.38-.25-19.25-.25-9.75,0-14.63,0-22.88,1.37Z"/><path class="cls-1" d="M731.67,248.08a1.53,1.53,0,0,0,1.25-.63,116.25,116.25,0,0,0,9.25-29.25l-37.37,1.63c-2.13.12-3.13.75-4.5.75-1,0-5.25-1.25-5.25-4.25a5,5,0,0,1,.37-1.88L701.8,200l-27.25,1.25a31.77,31.77,0,0,1-3.25.13c-2.13,0-3.13-.25-4.25-1.38-.63-.62-2.75-3.75-2.75-5.62,0-.5.25-.75.87-.75a1.64,1.64,0,0,1,.75.12,27.35,27.35,0,0,0,5.63.63h1.12l92.13-4.25a28.67,28.67,0,0,0,6.37-1,6.14,6.14,0,0,1,1.38-.25c2.5,0,5.87,4.37,5.87,5.87a1.9,1.9,0,0,1-1.87,1.75h-.25l-65.88,3.13-5.62,13.25,39.12-1.63h1c2.63,0,6.5,1.63,6.5,4.75a11.59,11.59,0,0,1-1,3.5,229.65,229.65,0,0,1-6.87,24.75c-1.25,3.88-4.63,13.75-11,13.75-4.75,0-27.75-15.25-27.75-19,0-.62.5-1,1.37-1a11.42,11.42,0,0,1,4.88,1.63,117.31,117.31,0,0,0,20.25,8.5Zm-28.62-65.63.25,2v.25c0,1.88-1.13,2.5-2.63,2.5-2.87,0-5.87-2-5.87-4.87v-.5c.12-1.38.25-2.63.25-4,0-1-.13-2.13-.25-3.38l-1.75-14a20,20,0,0,0-1.75-6.62,6.28,6.28,0,0,1-1-2.63c0-.5.25-.75,1-.75,1.25,0,3.87.88,8.62,2.63l42.88-2.63h1.87c4.5,0,5.63,3.63,5.63,4.38a9.69,9.69,0,0,1-.75,2.62l-3.25,15.88c2.25,2.62,3.12,4.25,3.12,5.12,0,1.38-1.62,1.5-3.75,1.63Zm38-25-40.38,2.38,1.63,15.87,36.25-2.12Z"/></g></g></g></svg>