<svg xmlns="http://www.w3.org/2000/svg" viewBox="0 0 1006.3 284.42"><g id="レイヤー_2" data-name="レイヤー 2"><g id="レイヤー_1-2" data-name="レイヤー 1"><g id="_4列目" data-name="4列目"><path d="M2.19,235.62C.62,235.62,0,235,0,234.06c0-1.56,1.88-4.06,5.31-6.87,24.07-17.81,46.57-34.38,69.69-62.5a154.94,154.94,0,0,0-7.19-18.75c-19.69,11.25-49.06,23.75-54.06,23.75-1.87,0-3.13-.63-3.13-1.88,0-1.87,2.5-4.69,7.5-7.81,15.94-9.06,30-17.19,43.44-26.56a162.54,162.54,0,0,0-22.18-29.69A5.37,5.37,0,0,1,37.5,100c0-4.69,8.12-8.75,10-8.75,2.5,0,4.06,1.56,5.62,3.13a200.07,200.07,0,0,1,22.5,28.12c11.26-9.06,21.57-18.44,24.69-30.31.31-1.88,1.25-3.13,2.81-3.13,2.82,0,15,10,15,17.82a4,4,0,0,1-1.56,3.43,336,336,0,0,1-32.81,25.94c16.56,31.87,16.87,64.37,16.87,70.94,0,20.31-1.87,70.62-22.5,70.62-13.74,0-45.93-34.06-45.93-40a1.43,1.43,0,0,1,1.56-1.25c1.56,0,4.06.94,7.81,2.82,11.25,6.56,20,11.24,31.25,15.31a4,4,0,0,0,1.88.31c1.25,0,2.19-.94,2.5-2.5A213.45,213.45,0,0,0,81.88,210,164.31,164.31,0,0,0,80,185.31C43.44,220.62,4.69,235.62,2.19,235.62ZM175.62,55.94q-5.15,12.66-10.31,23.44c-3.12,6.24-6.56,9.37-9.06,9.37-2.19,0-3.44-1.87-3.44-5.63a23,23,0,0,1,1.25-7.18c1.88-6.25,3.75-12.82,5.32-19.06l-50.63,2.81,2.81,20v1.87c0,3.44-1.25,5.63-5.31,5.63-2.5,0-15.63-1.25-15.63-10.94V69.38a40.11,40.11,0,0,0-.31-5.94L90,60.94,32.5,64.06a61.49,61.49,0,0,1-7.19.32c-5.62,0-8.43-.63-10.62-2.82C9.69,57.19,6.88,50,6.88,48.75s.62-1.87,2.5-1.87a4.67,4.67,0,0,1,1.87.31A48.11,48.11,0,0,0,22.5,48.44c1.56,0,3.44-.32,5.31-.32L87.5,44.69,84.69,25.94c-.31-2.5-3.44-8.75-7.19-12.5-1.25-1.25-2.19-2.5-2.19-3.75,0-1.57,1.88-2.81,6.57-2.81a49.46,49.46,0,0,1,8.43.93c9.07,1.57,11.25,4.69,11.88,8.44l4.06,27.5,56.87-3.44c1.57-8.12,2.82-16.25,3.76-23.43V14.69a18.92,18.92,0,0,0-2.5-10,5.9,5.9,0,0,1-.94-2.81c0-1.26.94-1.88,2.5-1.88,1.87,0,23.12,5.94,23.12,14.38a4.64,4.64,0,0,1-.31,2.18c-1.87,6.88-4.37,14.69-7.19,22.82l46.88-2.82c6.56-.31,10.94-.94,15.62-2.5a12.66,12.66,0,0,1,4.69-.94c6.87,0,15,10,15,14.07,0,2.81-2.81,3.75-6.87,4.06Zm-1.24,50.62c-.32-7.5-.94-11.25-4.69-17.5a6.55,6.55,0,0,1-1.25-3.44c0-1.87,1.25-2.5,3.44-2.5,2.81,0,6.87.94,11.87,2.82,9.06,3.12,10.94,5.31,10.94,11.25,0,28.12-1.57,57.81-7.5,82.81,21.87,36.56,50.93,65,90.93,83.12,2.5.94,3.76,2.19,3.76,3.76,0,3.74-10.63,12.81-15.94,12.81-3.13,0-49.06-22.81-84.69-79.69-21.25,53.44-77.5,81.25-85.63,81.25-1.87,0-2.81-.63-2.81-1.87,0-1.88,1.88-4.38,5.94-7.19,70-48.13,75.63-107.81,75.63-156.88Zm-30.32,80.63c-2.5,0-4.06-1.57-5.62-4.69-7.82-17.5-14.69-30.31-25.32-44.38-1.24-1.87-2.18-3.12-2.18-4.37,0-3.75,7.5-8.75,10.94-8.75,1.87,0,3.74,1.25,5.31,3.12,10.93,14.07,30,44.07,30,49.07C157.19,184.38,144.38,187.19,144.06,187.19Zm93.13-69.07c4.06,0,17.19,12.5,17.19,16.88a4,4,0,0,1-1.26,3.12c-20.31,26.88-47.81,48.13-54.68,48.13a1.66,1.66,0,0,1-1.88-1.87c0-1.26.94-3.44,3.44-6.26,19.06-20.62,33.44-44.37,34.38-54.68C234.38,120,235.31,118.12,237.19,118.12Z"/><path d="M316.67,186.3c0,12.25-.75,29-2.37,40.62-5.63,41-21.75,53.25-24,53.25a.89.89,0,0,1-.88-1,7.52,7.52,0,0,1,1.5-3.5c15.88-24.12,17.38-63.37,17.38-88.62,0-2.63-.13-6-1.13-7.63a7.5,7.5,0,0,1-1.37-3c0-.5.37-.75,1.12-.75,1.38,0,4.25,1,9.75,3.38l66.13-4.25a15.9,15.9,0,0,0,5.12-1.13,2.45,2.45,0,0,1,1-.25c.88,0,2,.5,4,2.13s3,3.12,3,4.12-1.25,1.63-3.37,1.75Zm-4.37,89.37c-.63,0-1-.25-1-.75s.62-1.5,1.87-2.75c11.88-11.87,18.13-21.5,18.13-25.5,0-1.12.25-1.87,1-1.87s7.87,4,7.87,7C340.17,254.17,319.17,275.67,312.3,275.67Zm41.37-35.5-17.12.63v1c0,1.5-.38,2.37-1.5,2.37-.38,0-7.13-1.5-7.13-5.87v-.63a18.89,18.89,0,0,0,.25-3.87,26.19,26.19,0,0,0-.12-3.13l-2.25-21.5c-.25-2.37-.63-5.25-1.5-6.62a5.47,5.47,0,0,1-.88-2.13c0-.5.38-.75,1.25-.75,1.38,0,4.38.75,9.5,2.5l11.63-.62c.87-1.25,6.75-10,6.75-15,0-1.13.25-1.75,1-1.75,2.12,0,8,3.75,8,5.87a3,3,0,0,1-.5,1.5,52.24,52.24,0,0,1-7,8.88l26.75-1.63c.37,0,.87-.12,1.25-.12a6.55,6.55,0,0,1,6.12,4.87c0,1.25-.87,2.13-1,2.88l-3.25,25.5c2.5,2.37,3.5,4,3.5,4.87,0,1.38-1.75,1.63-4.37,1.75l-21.5.75-.13,32.5c0,2,.25,3.75.25,5.25a6.43,6.43,0,0,1-6,6.75c-4.62,0-22.5-15.62-22.5-18,0-.5.38-.75,1-.75a9.66,9.66,0,0,1,4.13,1.38,110.22,110.22,0,0,0,15.12,6.62Zm25.13-33.62-45,2.37.75,9,43.37-2.25Zm-1.5,15.87-42.13,2.13.75,9.62,40.38-1.37Zm22,44.63c0,2.37-4.38,5.25-5.63,5.25a3,3,0,0,1-2.37-1.5,133.84,133.84,0,0,0-18.38-19,3.21,3.21,0,0,1-1.37-2.25c0-1.38,2.12-4.38,4.12-4.38.88,0,1.75.5,3,1.5C378.67,246.67,399.3,263.3,399.3,267.05Z"/><path d="M585.42,224.3c0,.12-.5,4.87-4,4.87a6.29,6.29,0,0,1-2.25-.62,120.12,120.12,0,0,0-23-9.25c-1.75-.5-3.12-1.13-3.12-2.63,0-2,2.25-4.5,3.75-4.5.87,0,19.75,4.88,26.37,8.63A4.18,4.18,0,0,1,585.42,224.3Zm-24.37,35.5c0-.63.5-.88,1.5-.88a7.33,7.33,0,0,1,1.62.13,7.46,7.46,0,0,0,1.63.12,14.6,14.6,0,0,0,4.75-.75c29.87-9.12,65-42.12,72.12-50.62,2.13-2.5,3.88-3.63,4.88-3.63.62,0,1,.38,1,1.25,0,5.88-30.88,44.25-75.5,62a11.51,11.51,0,0,1-4.13,1,4.3,4.3,0,0,1-3.37-1.62C563.3,264.67,561.05,260.67,561.05,259.8Zm29.25-53.63c-5.13-3.87-16.25-8.75-22.5-10.75-1.88-.62-2.63-1.62-2.63-2.87,0-.38.88-4.13,3.88-4.13,2.5,0,20.75,6.5,25.87,10.13a3.72,3.72,0,0,1,1.88,3.12c0,1.88-1.75,5.38-4.25,5.38A3.92,3.92,0,0,1,590.3,206.17Z"/><path d="M730.05,212.42a6.72,6.72,0,0,0-.25-1.75c-9.38,1-18.5,2.25-25.5,3.13a8.07,8.07,0,0,1-1.63.12c-1.75,0-2.75-.62-4.25-2.12-7.75,10.37-18.62,20.87-22.62,20.87a.79.79,0,0,1-.88-.87c0-1,.88-2.63,2.5-4.25,17.63-18.75,25.5-38,25.5-42.5,0-.38-.12-.88-.12-1.13-.25-1.25-1-2.37-1-3.25a1,1,0,0,1,.12-.62c.13-.38.75-.5,1.5-.5,2.25,0,9.25,1.87,9.25,5.12,0,2.13-3.37,11.38-10.62,22,3.87-.12,47-5.12,56.12-7.25,1-.25,1.63-.87,3.13-.87,2.87,0,6.87,2.75,6.87,5,0,2.75-.62,2.87-28.87,5.87a4.2,4.2,0,0,1,.37,1.88,9.43,9.43,0,0,1-.25,1.75c-8.37,37.75-38.37,63.75-44.12,63.75a1.5,1.5,0,0,1-1.5-1.38c0-.87.87-1.75,2.75-3.37,8.25-7.63,27.62-30.25,33.5-58.75Zm34.5-16.75a2.39,2.39,0,0,1-2.25-1.37c-2-3.5-7.25-9.5-9.75-12a2.48,2.48,0,0,1-.75-1.75,3.48,3.48,0,0,1,3.12-3.25c3.13,0,12.88,12.75,13.25,13.37a3.54,3.54,0,0,1,.25,1.13A3.89,3.89,0,0,1,764.55,195.67Zm10.75-5a2.5,2.5,0,0,1-2.13-1,59.89,59.89,0,0,0-10-11.62,2.43,2.43,0,0,1-.87-1.88,3.26,3.26,0,0,1,3.12-3.12c2.13,0,13.88,11.25,13.88,13.87A3.82,3.82,0,0,1,775.3,190.67Z"/><path d="M870.17,200.8c2.25,0,7.25,5.75,7.25,8.25,0,1.25-.87,2.37-3.25,3.62-11.62,6.38-36,14.88-49.12,18.25,0,3.38-.13,6.63-.13,9.38,0,15.37.38,21.25,23,21.25,8.38,0,19.63-.88,26-2.25a20.85,20.85,0,0,1,3-.5c2.63.12,7,3.37,7,6.25,0,2.25-2,2.62-3.37,2.87a204.32,204.32,0,0,1-29.25,2c-25.75,0-34.5-4.25-34.5-26.62,0-14.25,1-46.13,1-48.75a9.26,9.26,0,0,0-.5-3.38c-.5-1-1.75-2.25-1.75-3.25a.79.79,0,0,1,.12-.5,2.11,2.11,0,0,1,1.75-.62,30,30,0,0,1,5.88,1.12,3.33,3.33,0,0,1,2.87,3.75v1.38c-.12,1.5-.62,17.37-1,32a303.17,303.17,0,0,0,41.88-19.13c2.37-1.37,1.12-4.5,2.75-5.12Z"/><path d="M1001.17,253.67c0,2.13-2.25,2.5-5.5,2.75l-44.25,3.13c-.25,4.75-1.87,4.75-3.25,4.75-4,0-5.5-5.88-5.5-7.38v-2.25c-1-10.5-3.87-37.75-5.12-47.75a11.94,11.94,0,0,0-.88-1.75c-.75-1.12-2.5-2.87-2.5-4,.13-.75,1-1,2.13-1,1.5,0,6.87.5,8.75,3.25,11.75-.87,43.12-3.75,54.12-5.25h.5c2.75,0,6.63,2.25,6.63,5a3.34,3.34,0,0,1-.38,1.5c0,.13-.37.88-.5,1.5-2.12,13.63-5.25,33.88-6.62,43.38a5.07,5.07,0,0,1,2.37,3.75Zm-10.37-4.62c1-6.63,2.75-19.38,5.75-43-16.25,1.62-36.25,3.5-50.25,4.75,1,8,3,28.12,4.5,41.5Z"/></g></g></g></svg>