<svg xmlns="http://www.w3.org/2000/svg" viewBox="0 0 793.71 281.08"><defs><style>.cls-1{stroke:#000;stroke-miterlimit:10;stroke-width:4px;}</style></defs><g id="レイヤー_2" data-name="レイヤー 2"><g id="レイヤー_1-2" data-name="レイヤー 1"><path class="cls-1" d="M157.31,112.31c28.44,57.81,74.38,110.31,130.63,137.5,3.75,1.88,5.62,3.13,5.62,5,0,3.13-13.75,15-18.75,15-4.37,0-81.56-40.62-132.19-145.93C115.12,236.69,10.12,271.69,5.75,271.69c-2.5,0-3.75-.94-3.75-2.5,0-1.88,2.19-4.69,6.88-7.5C92.31,212,114.19,149.5,122.31,114.19l-70,3.75c-3.43,0-6.87.31-9.69.31-10,0-13.74-5-18.43-17.19a4,4,0,0,1-.31-1.87c0-.94.62-1.88,2.18-1.88.32,0,.63.31,1.25.31a71.22,71.22,0,0,0,14.07,1.26h4.06l80.62-4.69c3.75-22.19,5.32-46.25,5.32-70.63,0-6.25-1.88-10.94-4.69-15.62a7.44,7.44,0,0,1-1.25-3.75c0-1.57.94-2.19,3.12-2.19,1.25,0,25.94,2.5,25.94,15.94v.94c-.94,26.24-2.5,50.93-5.94,74.06l90.94-5.32a32.91,32.91,0,0,0,12.19-2.81,6.25,6.25,0,0,1,2.81-.62c4.69,0,18.12,10,18.12,16.25,0,3.75-4.06,5.62-8.43,5.94Z"/><path class="cls-1" d="M317.71,210.83l-6.38.37c-1.37.13-2.62.25-3.75.25-1.62,0-4.62-.25-6.62-6.25a1.31,1.31,0,0,1-.13-.62c0-.5.25-.75.63-.75s.37.12.62.12a16.87,16.87,0,0,0,4.88.63h1.37l9.38-.5v-26.5A8.87,8.87,0,0,0,316,172.2a3.48,3.48,0,0,1-.75-1.62c0-.5.5-.75,1.25-.75.25,0,8.62.87,8.62,4.75v29l4.88-.25a19.07,19.07,0,0,0,4.75-.88,1.64,1.64,0,0,1,.75-.12c2,0,6.12,3.87,6.12,5.75,0,1.12-1.37,1.5-2.75,1.62l-13.87.75v32c5.12-1.5,10.25-3.12,14.87-4.62a11.47,11.47,0,0,1,3-.63c1,0,1.5.38,1.5.88s-1,1.75-3,2.87c-11.87,6.25-33.5,15.88-37.5,15.88-3.75,0-7.25-7.5-7.25-7.88s.25-.62.75-.62h1.13c3.37,0,12.87-2,19.12-4Zm60.75,21.62.12,43.25c0,2.38-.75,3.38-2.12,3.38-1.88,0-7-2.38-7-5.75,0-.38.12-.63.12-1a52.41,52.41,0,0,0,1-10.25l-.12-29.25-23.75,1.25c-1.13,0-2.38.12-3.38.12-2.12,0-5.12-.12-7-6.62a1.18,1.18,0,0,1-.12-.63.66.66,0,0,1,.75-.75c.12,0,.25.13.5.13a18.24,18.24,0,0,0,5.5.75h1.25l26.25-1.38-.13-42.87-18.25,1c-1.37.12-2.75.25-3.75.25a4.84,4.84,0,0,1-3.62-1.13,12.21,12.21,0,0,1-3.25-5.87c0-.5.25-.75.62-.75a1.42,1.42,0,0,1,.63.12,15.78,15.78,0,0,0,4.5.5H349l44.5-2.5a18.84,18.84,0,0,0,5.87-1.12,1.8,1.8,0,0,1,.88-.13c2,0,6.87,3.75,6.87,5.75,0,1.25-1.37,1.75-2.87,1.88l-26,1.5.12,43L404.58,224a16.28,16.28,0,0,0,4.88-1.12,1.53,1.53,0,0,1,.75-.13c2.37,0,7,4.63,7,6.13,0,1.25-1.5,1.62-3,1.75Zm-17.63-14.12c-1.25,0-1.87-.75-2.37-1.88A108,108,0,0,0,347,195.7a2.66,2.66,0,0,1-.75-1.62c0-1.38,2.87-3.88,4.75-3.88a2.59,2.59,0,0,1,2.12,1.38,141.23,141.23,0,0,1,12.63,20.75,3.45,3.45,0,0,1,.5,1.75C366.21,217,361,218.33,360.83,218.33Zm32.38-30.75c0-1.25.25-1.88,1.25-1.88,1.25,0,8.37,3.25,8.37,6.38a3.48,3.48,0,0,1-.25,1.12C394,211.83,384,220.33,382.33,220.33c-.5,0-.75-.25-.75-.88a7.57,7.57,0,0,1,1.13-3c10.37-18.12,10.5-26.25,10.5-27.75Z"/><path class="cls-1" d="M627.46,214.7a128.87,128.87,0,0,0,37,26.63c1.5.75,2.37,1.25,2.37,2,0,1.75-5.12,5.37-6.62,5.37-1.25,0-22.13-12.12-41.38-33.62l-25.37,1.25c-16.88,24.5-43.75,35.62-46,35.62-.63,0-1-.25-1-.62,0-.63.87-1.75,2.87-3.13,13.63-9,25.25-18,34.88-31.5l-21.13,1c-2,.13-3.62.25-4.75.25-6,0-7.25-6.5-7.25-6.75a.66.66,0,0,1,.75-.75,4,4,0,0,1,1,.25,30.42,30.42,0,0,0,5.5.5h1.38l29-1.37a62.37,62.37,0,0,0,4.87-10l-11.37.62c-1.13,0-2.13.13-3,.13-1.13,0-4.75,0-6.13-5.75a1,1,0,0,1-.12-.5.59.59,0,0,1,.62-.63,1.32,1.32,0,0,1,.63.13,30.82,30.82,0,0,0,4.87.37h1.5l15.38-.87a75.4,75.4,0,0,0,2.5-8.88l-23.88,1.38c-1.75.12-3.25.12-4.37.12-2,0-3.25-.12-4.25-.87s-3.38-4.5-3.38-5.5c0-.5.25-.75.88-.75a2.5,2.5,0,0,1,.87.12,30.42,30.42,0,0,0,5.5.5h1.38l28.62-1.75,1.13-8v-.62a5.75,5.75,0,0,0-1.38-4,2.66,2.66,0,0,1-.62-1.38c0-.62.5-1,1.75-1,.12,0,8.75.5,8.75,3.88V167L608,177.2l23.87-1.37a19.61,19.61,0,0,0,6.63-1.38,2.67,2.67,0,0,1,1.37-.25c2.88,0,6.63,4.5,6.63,5.88,0,1-1,1.5-2.38,1.62L606.58,184c-.62,3.13-1.37,6-2.25,9L624,191.83a29.3,29.3,0,0,0,4.62-.63,2.89,2.89,0,0,1,1-.12c1.5,0,5.75,3,5.75,5.25,0,.87-.87,1.25-2.37,1.37l-18.5,1c2.37,3.38,4.75,6.63,7.25,9.63l24.62-1.13A22.92,22.92,0,0,0,653,206a4.55,4.55,0,0,1,1.25-.25c1.37,0,2.87.88,4.87,2.88,1.25,1.25,1.88,2.25,1.88,3,0,1-1.13,1.5-2.38,1.62Zm-59.75,54.13a3.34,3.34,0,0,1-1.5-.38A12.79,12.79,0,0,1,561,263.7a1.71,1.71,0,0,1-.25-.75.82.82,0,0,1,.62-.87c5.13-.75,18.75-5.5,36.25-13.63a4.29,4.29,0,0,1,1.88-.5c.75,0,1.25.38,1.25.88a3.39,3.39,0,0,1-1.75,2.25C585,260.83,570.46,268.83,567.71,268.83Zm23.25-21a90.48,90.48,0,0,0-11.5-8.63c-1-.62-1.5-1.25-1.5-1.87,0-1.63,2-4.25,3.62-4.25a2.37,2.37,0,0,1,1.5.5,116.12,116.12,0,0,1,12.63,8,1.69,1.69,0,0,1,.87,1.62c0,1.88-2.12,5.38-4,5.38A2.41,2.41,0,0,1,591,247.83Zm11.37-21.13a10.81,10.81,0,0,0-1.62-6.5,2,2,0,0,1-.38-1c0-.37.38-.62,1.13-.62,1.75,0,8.5,1.12,8.5,5v15.5c1.75,1.62,3.5,3,5.25,4.37,9.75-7.87,10.5-11.75,10.62-13.87,0-1.13.38-1.75,1.13-1.75,2.37,0,6.25,4.75,6.25,6.5s-7,8.37-13.13,12.87a131.5,131.5,0,0,0,30.25,16c.75.38,1.13.88,1.13,1.38a1.83,1.83,0,0,1-.5,1.25c-2.63,3.37-4,4.37-5.25,4.37-.75,0-17-6.12-35.75-23.5v21.88c0,1.5.12,2.87.12,4a6.27,6.27,0,0,1-5.37,6.5c-3.63,0-18.75-11-18.75-14.38,0-.37.25-.62.75-.62a7.11,7.11,0,0,1,2.87.87,63.78,63.78,0,0,0,13,4.38Zm11.38-18c-2.38-3-4.5-6.25-6.75-9.62l-4.88.25a62.82,62.82,0,0,1-4.62,10.12Z"/><path class="cls-1" d="M726.58,165.2a1.33,1.33,0,0,1,1.5-1.5c1.88,0,8.38,2.88,8.38,5.5,0,.25,0,1.13-2.25,4.75,15.12,19.38,33.87,33.88,55.12,42.63,1.5.62,2.38,1.12,2.38,1.87,0,1.88-6,6-7.25,6a3.4,3.4,0,0,1-1.63-.62c-21.12-11.38-37.62-23.75-52.62-43.38-24.75,38.25-55.38,47.13-56.25,47.13s-1.13-.25-1.13-.75c0-.75.88-1.75,2.63-2.88,42.87-27.87,51.12-55.25,51.12-57.5ZM711,217a10.67,10.67,0,0,0-1.75-5.62,2.61,2.61,0,0,1-.63-1.38c0-.62.63-1,1.63-1,2.5,0,9.37,1.88,9.37,4.63-.12,13.12-.62,23.75-3.75,35.25-5.5,19.87-29.5,28.75-31.62,28.75-.75,0-1.25-.25-1.25-.75,0-.75,1-2,2.87-3.38,11.13-8.12,18.75-15.25,21.88-27.25A115.94,115.94,0,0,0,711,218.45Zm33.12-2.12a7.81,7.81,0,0,0-2.25-5.5,1.91,1.91,0,0,1-.62-1.38c0-.62.62-.87,1.62-.87A15.9,15.9,0,0,1,748,208.2c3.62,1.25,4.5,2,4.5,4.13l.12,63.5c0,2.25-1.12,3.25-2.62,3.25-1.25,0-6.88-1.88-6.88-6a5,5,0,0,1,.13-1.38,41.86,41.86,0,0,0,.87-7.5Z"/></g></g></svg>