<svg xmlns="http://www.w3.org/2000/svg" viewBox="0 0 527.24 289.06"><g id="レイヤー_2" data-name="レイヤー 2"><g id="レイヤー_1-2" data-name="レイヤー 1"><g id="_4列目" data-name="4列目"><path d="M103.12,201.88l-.62,46.56c19.06-2.5,39.06-6.25,57.81-10.63a32.66,32.66,0,0,1,7.19-.93c3.75,0,5.94,1.24,5.94,2.81,0,2.19-3.13,4.69-10.32,6.87-39.68,11.88-85.93,22.5-122.5,29.69a34.69,34.69,0,0,1-7.5.94,9.18,9.18,0,0,1-6.24-1.88c-3.76-3.43-10.32-15.62-10.32-18.12,0-1.25.94-2.19,3.13-2.19h1.25a83.11,83.11,0,0,0,8.44.62c2.81,0,5.62-.31,8.43-.31,15.31-.62,30.63-1.56,47.19-4.37l.62-48.44-35.93,1.56H45.94c-4.69,0-7.5-.62-9.38-2.5-7.5-9.06-7.5-12.5-7.5-12.5,0-.94.63-1.56,1.88-1.56a6.1,6.1,0,0,1,2.18.31A68.84,68.84,0,0,0,45,189.06h2.81l38.13-1.56.31-17.5-8.75.62H72.19c-3.44,0-8.75,0-12.5-8.74-16.88,11.87-32.5,21.56-50.31,28.74a17.6,17.6,0,0,1-6.57,1.88c-1.87,0-2.81-.94-2.81-2.19,0-1.87,1.88-4.69,6.25-7.5C35,163.44,65,139.06,83.75,115c1.56-1.56,3.44-5,4.06-9.69.31-2.5,1.57-3.75,3.44-3.75,5.94,0,15,11.56,15,15.32,0,1.87-.94,3.12-2.5,4.68,69.06,28.13,70.63,30.94,70.63,36.25a21.23,21.23,0,0,1-.94,5.63c-1.88,5.31-4.06,7.18-6.88,7.18a10.85,10.85,0,0,1-6.25-2.18c-22.19-13.44-44.06-24.38-67.5-35a295.07,295.07,0,0,1-26.25,23.12c1.25,0,2.5.32,4.06.32s3.13-.32,4.69-.32l34.38-1.87a33.52,33.52,0,0,0,8.43-1.57,12.33,12.33,0,0,1,4.38-.62,7.18,7.18,0,0,1,5.94,2.81c4.68,4.38,6.56,7.19,6.56,8.75,0,2.5-3.12,3.13-7.5,3.44l-24.06,1.25-.32,18.13,28.13-1.26a61.1,61.1,0,0,0,10.94-1.56,21.61,21.61,0,0,1,4.06-.62c5,0,12.81,7.5,12.81,11.87,0,2.5-2.81,3.75-6.87,4.07ZM25,60.31c-.62-6.25-1.25-12.5-2.81-16.25a18.28,18.28,0,0,1-1.88-6.25c0-1.56.63-2.19,2.5-2.19,2.81,0,7.81,1.26,15.94,4.38,20.94-9.06,35.31-22.19,36.87-29.69.63-2.5,1.26-3.75,2.82-3.75,3.75,0,12.81,11.25,12.81,16.88,0,7.5-33.75,25.31-49.69,31.56l4.06,45A188.23,188.23,0,0,0,73.75,80c-3.44-6.56-5.63-9.06-8.75-14.06-1.88-2.5-2.5-4.06-2.5-5.32,0-1.87,3.75-6.87,8.44-6.87S89.38,73.44,96.88,87.19a12,12,0,0,1,1.24,4.06c0,1.87-1.24,3.75-4.68,6.56-2.5,1.88-4.69,2.81-6.56,2.81-2.5,0-4.38-1.56-5.32-4.06-.94-1.87-2.18-4.06-2.18-4.06C55,112.81,33.12,129.06,26.88,129.06c-8.13,0-15.94-10.94-15.94-14.06,0-1.56,1.25-2.5,4.37-2.5s7.19-.31,14.07-3.75ZM65.31,246.56c-2.5,0-4.06-2.18-5.62-5.31-3.44-6.87-7.81-15-11.88-20.63a7.42,7.42,0,0,1-1.87-4.37c0-1.87,1.25-3.44,4.37-5.63,2.19-1.24,3.44-1.87,4.69-1.87,4.38,0,21.56,25.31,21.56,28.75,0,2.5-1.87,4.38-5.62,6.56C68.75,245.62,66.88,246.56,65.31,246.56ZM143.12,42.5c-12.81,40-36.87,58.75-42.81,58.75a2.23,2.23,0,0,1-2.19-2.5c0-1.56.94-3.75,2.82-6.87,10.31-15,17.18-27.19,23.12-47.82l-8.75.63A32.35,32.35,0,0,1,110,45c-3.75,0-5.94-.62-7.81-2.5C96.88,35.31,95,31.25,95,29.06c0-.94.62-1.56,1.88-1.56.31,0,.62.31,1.24.31a51.43,51.43,0,0,0,11.26,1.25h3.43L162.19,25c1.56,0,2.81-.31,4.06-.31,8.75,0,10.94,8.75,10.94,10.31,0,2.19-.94,4.38-1.25,6.56-5,60-11.88,69.06-17.19,74.06-2.81,2.5-5.31,4.07-8.13,4.07-6.87,0-30-22.81-30-26.25a2.23,2.23,0,0,1,2.5-2.19,10.44,10.44,0,0,1,4.38,1.25,131.28,131.28,0,0,0,18.75,7.5c.31,0,.94.31,1.25.31,4.38,0,10-43.12,11.25-59.37ZM127.81,205.94c0-1.56.63-2.5,2.19-2.5,4.38,0,15,6.25,15,11.87a5.54,5.54,0,0,1-1.25,3.13c-2.19,2.5-23.13,25.31-29.69,25.31a2.23,2.23,0,0,1-2.18-2.5c0-1.56.93-3.75,2.81-6.56,4.69-6.25,9.69-14.07,11.87-19.07a24.12,24.12,0,0,0,1.25-6.87ZM195,75.62a28.69,28.69,0,0,0-4.06-14.68,5.77,5.77,0,0,1-1.25-3.13c0-1.56,1.25-2.19,3.43-2.19s5.63.94,10.32,2.5c8.44,2.82,8.44,5.32,8.44,10l.93,142.5c0,5-1.56,6.88-4.37,6.88s-15.32-3.44-15.32-12.5a14.87,14.87,0,0,1,.32-3.75A90.76,90.76,0,0,0,195,183.12Zm48.75-55.31c0-4.69-2.19-10-5-14.37a8.64,8.64,0,0,1-1.56-3.75c0-1.57.93-2.19,3.12-2.19s6.25.94,11.57,3.12c9.06,3.44,10.62,5.32,10.62,10l-.94,248.76c0,4.37.63,7.81.63,10.62,0,7.81-8.44,16.56-15.31,16.56-8.76,0-52.19-35.94-52.19-42.5,0-1.25.93-1.87,2.5-1.87,2.19,0,5.31.93,9.37,3.12a207.54,207.54,0,0,0,36.56,14.69Z"/><path d="M428.74,218.39a98.5,98.5,0,0,1-15.5,17.25c-1.5,1.25-2.63,1.88-3.38,1.88-.5,0-.75-.25-.75-.88a7,7,0,0,1,1.63-3.37c18.75-24.38,29-49.63,29-54.63a13.14,13.14,0,0,0-.25-2c0-.25-.13-.37-.13-.62,0-.88.63-1.25,1.5-1.25,2.25,0,8,3,8,5.12a3.25,3.25,0,0,1-.37,1.38,159.35,159.35,0,0,1-12.38,26l.13,77c0,1.62-.75,2.5-2,2.5-.88,0-6.63-1.5-6.63-4.88a4.53,4.53,0,0,1,.13-1.25,52.12,52.12,0,0,0,.62-7.87Zm61.37,47.75v18.13c0,1.75-.62,2.75-2.12,2.75-2.13,0-6.25-2-6.25-4.63,0-.25.12-.5.12-.75a54.06,54.06,0,0,0,.63-9.12v-6.13l-31.75,1.13c-1,0-2,.12-2.88.12h-.62c-3.5,0-6-4.62-6-6.87,0-.38.12-.63.5-.63a1.31,1.31,0,0,1,.62.13,27.41,27.41,0,0,0,6.75.75l11-.38-.25-10.12h-3.5c-1.75,0-2.62-.13-3.25-.63a12.75,12.75,0,0,1-3.25-5.62c0-.38.25-.5.75-.5h.63a22.57,22.57,0,0,0,4.87.5h1.5l25-1,.13-7.75-15.63.62v.75c0,1.38-.5,2.25-2.12,2.25-1.25,0-6.13-1.37-6.13-4.12v-.63a23.12,23.12,0,0,0,.13-3.12v-1.38l-.63-8.37a15.82,15.82,0,0,0-1.5-5.25,5.94,5.94,0,0,1-.62-2c0-.5.25-.75,1.25-.75,1.25,0,3.87.62,8.25,1.75l37.87-2h.75c2.25,0,5,2.12,5,3.87,0,.75-.62,1.38-.87,2.13l-2,9.75c2.12,2.25,3,3.62,3,4.37,0,1-1.13,1.13-2.38,1.25l-17,.63V243l12.13-.5a17.6,17.6,0,0,0,5.37-.88,2.54,2.54,0,0,1,1-.12c2.5,0,6.75,3.25,6.75,5.12,0,1.25-1.5,1.75-3.25,1.88l-22,.87v10.25l26-.87a10.57,10.57,0,0,0,4.13-.75,3.48,3.48,0,0,1,1.12-.25c1.5,0,5.88,3.25,5.88,5.5,0,1-1.13,1.62-3,1.75ZM450,209.89c-.88,0-1.75.13-2.38.13-4.62,0-6.12-5-6.12-6.38,0-.5.25-.75.62-.75s.38.13.63.13a24,24,0,0,0,4.87.62h.88l22.5-1.25,1.87-8.75-10.25.63c-1.25.12-2.37.12-3.25.12h-.62c-3.88,0-5.63-6-5.63-6.62,0-.38.13-.5.5-.5a1.64,1.64,0,0,1,.75.12,21.65,21.65,0,0,0,5,.5h1.5l13.25-.87,1.5-7.13a11,11,0,0,0,.13-2,8.73,8.73,0,0,0-.5-3.12,3,3,0,0,1-.13-1c0-.75.38-1.13,1.25-1.13,1.75,0,7.63,1.5,7.63,4.13a3.31,3.31,0,0,1-.13,1.12L482,186.52l20.12-1.38c.38,0,.75-.12,1.25-.12.75,0,5.5,1.5,5.5,3.87,0,1.13-.87,2-1.12,3l-1.88,8.63,6.5-.38a15.17,15.17,0,0,0,4.25-.75,3.83,3.83,0,0,1,1.13-.25c2.5,0,6.12,3.38,6.12,5.25,0,1.13-1,1.63-2.87,1.75Zm50.5,9.38L465.74,221l.75,9.37,32.5-1.25Zm-17.88,30.37-15.37.63.12,10.12,15.25-.5Zm17.25-57.87L480.49,193l-1.88,9L498,200.89Z"/></g></g></g></svg>