<svg xmlns="http://www.w3.org/2000/svg" viewBox="0 0 665.14 276.95"><g id="レイヤー_2" data-name="レイヤー 2"><g id="レイヤー_1-2" data-name="レイヤー 1"><g id="_4列目" data-name="4列目"><path d="M75.31,265.94c0,5.31-2.19,7.5-5.62,7.5-5.63,0-15-5.63-15-13.13a16.15,16.15,0,0,1,.62-3.43,82.1,82.1,0,0,0,2.19-18.76s.94-53.12.94-86.87c0-7.19,1.25-22.81,1.25-22.81-1.57,5-19.69,50.62-50.31,80.62-.63.63-1.26.94-1.57,1.56-2.81,2.19-4.69,3.13-5.93,3.13A1.66,1.66,0,0,1,0,211.88c0-1.88,1.25-4.38,3.75-8.13,19.06-28.13,36.56-67.81,52.19-113.13L32.5,92.5c-3.44.31-6.25.62-8.75.62a13.07,13.07,0,0,1-6.87-1.56,33.68,33.68,0,0,1-9.07-12.5,4,4,0,0,1-.31-1.87C7.5,75.62,8.44,75,10,75h1.56a64.38,64.38,0,0,0,10.63.94h3.75l33.44-2.5L60,17.81c0-3.75-1.88-8.75-4.06-12.19A5.75,5.75,0,0,1,54.69,2.5C54.69.94,55.94,0,58.44,0s6.25.94,10.62,2.5c8.13,3.12,9.38,5,9.38,9.69l-.94,60,16.88-1.25a45.14,45.14,0,0,0,11.24-2.19,4.7,4.7,0,0,1,2.19-.31c5,0,15,9.06,15,12.81,0,2.81-2.81,4.37-6.56,4.69L77.5,89.06,77.19,120c2.19-1.56,3.75-2.5,5.31-2.5,5.94,0,32.19,36.88,32.19,41.56,0,5.63-8.75,9.69-11.88,9.69-2.81,0-4.69-2.5-6.56-5.94a270.36,270.36,0,0,0-19.37-30.62ZM243.75,147.81c-9.06,27.81-20,49.07-33.13,65.31,19.07,10.63,36.88,21.57,56.26,34.07,4.37,2.81,6.87,5.93,6.87,9.69,0,5-5,12.18-9.06,12.18-1.88,0-4.07-1.25-7.19-3.12-21.25-14.69-40-27.19-59.38-39.06-35.31,30.62-81.24,42.18-90,42.18-3.12,0-5-.94-5-2.5,0-1.87,2.82-4.37,8.13-6.25,29.06-10.93,52.5-25.93,70.94-43.43-9.38-5.32-20.31-10.63-30.63-16.26-3.75-1.87-11.87-.93-14.06-8.74a21.83,21.83,0,0,1-.62-4.07c0-3.43,1.24-5.62,2.5-7.81,5.93-9.38,11.24-18.75,15.93-27.81l-16.25.93c-4.68.32-8.12.63-11.25.63-3.43,0-12.81-.31-17.81-15.31a4,4,0,0,1-.31-1.88,1.65,1.65,0,0,1,1.87-1.87c.63,0,.94.31,1.56.31a59.24,59.24,0,0,0,16.26,1.88h4.06l30.62-1.57c11.88-24.69,15.32-31.56,15.32-41.25V90.94c0-3.44,1.24-4.69,3.12-4.69,5,0,17.19,8.13,17.19,14.69a5.58,5.58,0,0,1-.63,3.12c-4.68,10.32-9.68,20.32-14.68,30l71.87-3.75a60.1,60.1,0,0,0,16.56-3.12,11.34,11.34,0,0,1,3.44-.63c8.75,0,15.94,9.69,15.94,13.44,0,3.12-2.19,5.31-5.63,5.62ZM149.06,93.44c-2.5,0-4.37-1.88-5.94-5.32a418.26,418.26,0,0,0-31.24-54.37A6.49,6.49,0,0,1,110.31,30c0-3.75,5.63-8.12,10.63-8.12a5.89,5.89,0,0,1,4.68,2.5C145.31,50,160.94,78.75,160.94,83.12,160.94,90.31,150.31,93.44,149.06,93.44Zm26.56,57.81c-5.93,10.94-12.5,21.87-20,33.75,13.76,6.56,26.88,13.12,38.44,19.06C205.62,190,215,172.19,223.12,148.75Zm16.57-72.19c-3.13,0-5-2.5-6.57-8.44C180,49.69,175,36.88,166.56,17.5a9,9,0,0,1-1.25-3.75c0-5.31,10-6.25,10.94-6.25,3.44,0,5.31,2.19,6.87,5.31C202.5,54.69,205,67.5,205,70,205,75,196.88,79.06,192.19,79.06Zm21.87,10c0-1.56.94-4.68,3.13-8.44C228.44,61.56,248.12,21.88,248.12,5c0-2.81.94-4.38,2.82-4.38,5,0,20.62,9.69,20.62,15.94,0,7.19-42.5,74.69-55.94,74.69C214.38,91.25,214.06,90.62,214.06,89.06Z"/><path d="M375.39,231.45V273.7c0,2.25-1,3.25-2.37,3.25s-6.88-1.75-6.88-6.12a4.06,4.06,0,0,1,.13-1.25,39.53,39.53,0,0,0,.87-7.5V231.83l-28.75,1.37c-7.75,32-33.75,41.25-35,41.25-.62,0-.87-.25-.87-.62,0-.63.87-1.88,2.87-3.5,12.75-10.13,20.75-21.5,24.75-36.75L308,234.7c-1.75.13-3.13.13-4.25.13-2.13,0-3.25-.25-4.5-1.38-1.88-1.87-3.25-4.37-3.25-6,0-.5.25-.75,1-.75h.75a37.91,37.91,0,0,0,6.37.75h.63l27-1.25c1.12-7,1.5-15.87,1.62-25l-16.62,1c-1.38.13-2.5.13-3.5.13H312c-5.38-.63-6.5-5.88-6.5-7,0-.63.25-.88.75-.88a2.32,2.32,0,0,1,.87.13,20.11,20.11,0,0,0,5.5.62h1.63L333.52,194c0-7-.13-13.87-.25-19.87a10.7,10.7,0,0,0-1.75-5.63,2.61,2.61,0,0,1-.63-1.37c0-.63.63-1,1.63-1,2,0,9.12,1.5,9.12,4.62.13,4.25.13,9.5.13,15.38v7.37l25.37-1.5V170.7a7.85,7.85,0,0,0-2.25-5.5,1.91,1.91,0,0,1-.62-1.37c0-.63.62-.88,1.62-.88a16,16,0,0,1,5.13,1.13c3.62,1.25,4.25,2,4.25,4.12v23.25l13.12-.87a26.74,26.74,0,0,0,5.63-1.13,1.91,1.91,0,0,1,.87-.12c2.25,0,7,4.75,7,6.25,0,1.12-1.37,1.62-3.12,1.75l-23.5,1.37.12,25.38L398.14,223a21.33,21.33,0,0,0,5.75-1.12,2.88,2.88,0,0,1,1-.25c1.88,0,7.25,4.25,7.25,6.62,0,1.13-1.37,1.5-3,1.63Zm-8.25-32.25-25.5,1.5a235.18,235.18,0,0,1-1.75,25l27.25-1.25Z"/><path d="M597.89,225.45a116.88,116.88,0,0,0,15.13,16c23.25-11.62,25-17.37,25.62-19.25s1.25-2.62,2.13-2.62c2.12,0,5.5,5.87,5.5,8.12a3.63,3.63,0,0,1-1.75,3A142.25,142.25,0,0,1,618.64,246c12.25,8,25.25,13.88,44.88,18.75,1.12.25,1.62.75,1.62,1.25,0,.88-3.75,6.5-7.12,6.5a6.14,6.14,0,0,1-1.38-.25c-31-10.37-50-19.75-67.37-46.25l-8.63.38-.12,36.12c7.5-1.75,16.12-4.12,26.87-7.62a6.26,6.26,0,0,1,2-.38c1,0,1.75.38,1.75,1,0,3.88-40.75,19.25-47.5,19.25a2.45,2.45,0,0,1-1.37-.25,13.75,13.75,0,0,1-5.75-5.62,2,2,0,0,1-.38-1.13c0-.75.5-1.25,1.5-1.25H559c4,0,7.62-.62,13.37-2.12l.38-75.25a33,33,0,0,0-1.38-10.25,5.48,5.48,0,0,1-.37-1.75c0-.5.25-.88,1-.88,1.25,0,4,1,9.25,3.75L599,179l-.25-12.12a7.45,7.45,0,0,0-1.75-4.38c-.13-.25-.25-.37-.25-.62,0-.75,1.37-1.13,3-1.13,2.87,0,7.25,1.5,7.25,3.63l-.13,14.12,21.63-1.25c1.25,0,2-.12,2.75-.12,1.5,0,5.5,1.62,5.5,4.25,0,1.37-1,2.5-1.13,3.87l-3.37,32.13c2.5,2.87,3.62,4.5,3.62,5.37s-1.25,1-3.25,1.13Zm27.88-22-45,2.25-.13,14.13,44-2.25Zm1.62-19.25-46.62,2.25v12.88l45.62-2.63Z"/></g></g></g></svg>