<svg xmlns="http://www.w3.org/2000/svg" viewBox="0 0 794.17 274.83"><defs><style>.cls-1{stroke:#000;stroke-miterlimit:10;stroke-width:4px;}</style></defs><g id="レイヤー_2" data-name="レイヤー 2"><g id="レイヤー_1-2" data-name="レイヤー 1"><path class="cls-1" d="M29.81,73.88c-4.37.31-7.5.62-10.31.62-8.12,0-14.06-5.62-17.19-14.69A4,4,0,0,1,2,57.94c0-1.25.62-1.56,1.88-1.56a7.85,7.85,0,0,1,2.5.31A60.71,60.71,0,0,0,19.5,58.25h2.19L82.31,54.5A53.22,53.22,0,0,0,96.38,52a7.47,7.47,0,0,1,2.81-.62c5.93,0,16.25,9.68,16.25,13.43,0,2.81-3.13,4.07-6.88,4.38Zm20,173.74.63,6.57v1.25c0,4.37-1.88,6.25-4.69,6.25-3.13,0-14.69-3.44-14.69-12.19v-.94c.32-5,.63-9.37.63-13.12v-4.06l-3.44-42.19a32.72,32.72,0,0,0-4.37-14.07c-1.26-2.18-2.19-3.74-2.19-5,0-1.56.93-2.18,3.12-2.18,3.13,0,9.69,1.87,20.94,6.25l39.69-2.5h2.5c5,0,13.12,6.25,13.12,11.25,0,1.87-1.25,3.12-1.56,5l-5.31,42.81c5,5.94,6.87,9.69,6.87,11.56,0,3.13-3.75,3.13-7.81,3.44ZM93.56,146.06l-44.68,2.5c-3.44.32-6.26.32-8.44.32-5.32,0-12.82-.94-17.19-14.07a4,4,0,0,1-.31-1.87c0-.94.62-1.56,1.87-1.56a6.15,6.15,0,0,1,2.19.31,33.12,33.12,0,0,0,10.94,1.56h3.12L72,131.69a37.57,37.57,0,0,0,10.62-2.19,11.35,11.35,0,0,1,3.44-.62c3.44,0,14.38,6.56,14.38,12.5,0,2.81-2.82,4.37-6.25,4.68ZM49.19,111.38c-3.75.31-6.57.31-9.07.31-8.43,0-10.62-4.38-10.62-4.38a22,22,0,0,1-5.94-9.69,4,4,0,0,1-.31-1.87c0-.94.63-1.56,1.87-1.56a6.13,6.13,0,0,1,2.19.31,34.29,34.29,0,0,0,10.94,1.56h3.13l30.31-2.18a36.75,36.75,0,0,0,11.87-2.5A13,13,0,0,1,87,90.75c3.75,0,14.06,8.13,14.06,13.13,0,2.81-2.81,4.06-6.25,4.37ZM74.81,40.12c-9.69-7.18-24.37-16.87-34.37-22.18C36.69,16.06,34.5,14.5,34.5,12c0-3.44,4.06-10,7.5-10a17.56,17.56,0,0,1,6.56,1.88c8.75,4.06,41.88,20.31,41.88,26.56,0,1.25-4.38,12.81-9.38,12.81C79.19,43.25,77.31,42,74.81,40.12Zm6.25,148.13-35.31,2.19,3.13,41.25,28.43-.94ZM170.44,187c-13.75,7.5-45.94,23.44-53.13,23.44-4.69,0-11.25-7.5-14.69-14.06a12.54,12.54,0,0,1-.62-1.88c0-1.25,1.25-1.88,2.5-1.88h.94c.94,0,1.87.32,3.12.32,3.75,0,8.13-.94,13.13-2.19l1.56-.94.31-156.25h-1.87c-3.75.32-6.88.32-9.38.32-4.06,0-12.19-.32-16.56-15.63a13.24,13.24,0,0,0-.31-1.56c0-.94.31-1.25,1.25-1.25a6.18,6.18,0,0,1,2.19.31,44.58,44.58,0,0,0,14.37,2.19h2.81l120.63-7.82c6.56-.31,10.31-.93,14.37-2.18a15.7,15.7,0,0,1,3.44-.63c3.44,0,15.31,8.44,15.31,13.75,0,2.19-2.19,3.13-5.93,3.44l-75,4.69V261.38c0,5-1.57,7.81-5,7.81s-15.94-5.31-15.94-13.13a21.61,21.61,0,0,1,.62-4.06c1.25-5.94,1.56-12.81,1.56-23.12Zm.31-52.5-30.31,1.88-.32,48.43c10.63-3.43,20.63-7.81,30.32-11.56Zm.63-51.25-30.63,1.56L140.44,122l30.62-1.88Zm.31-52.81-30.63,1.87-.31,38.44,30.63-1.87Zm47.19,47.5c-4.38.31-7.19.62-9.69.62-5.94,0-11.88-1.87-16.88-15.31a3.43,3.43,0,0,1-.31-1.56c0-.94.62-1.25,1.56-1.25h1.56a96.2,96.2,0,0,0,12.82.94,82.94,82.94,0,0,0,8.75-.32L262.62,57a27.26,27.26,0,0,1,4.69-.31c5.63,0,13.75,6.56,13.75,11.56,0,2.81-1.87,5-2.5,7.5-6.56,32.81-15,61.87-26.87,90,13.43,24.69,29.69,48.13,50,69.06,1.56,1.57,2.19,2.81,2.19,4.07,0,2.18-9.38,9.06-14.69,9.06-7.5,0-35.31-42.82-46.25-62.82-20.63,37.82-44.06,61.57-49.69,61.57a1.66,1.66,0,0,1-1.87-1.88c0-1.87,1.56-5.31,4.68-9.69,14.38-20.62,26.25-42.81,37.19-68.74a676.76,676.76,0,0,1-29.37-71.26,8.22,8.22,0,0,1-.94-3.74c0-2.5,1.56-4.69,6.87-6.26a24.84,24.84,0,0,1,4.38-.62c3.75,0,5.31,2.19,6.56,5.62a546,546,0,0,0,20.94,54.69c8.12-23.43,13.12-46.56,16.56-70.62Z"/><path class="cls-1" d="M322.17,207.7c-5.12,6.5-9.5,12.25-15.87,17.63-1.5,1.25-2.63,1.87-3.38,1.87a.66.66,0,0,1-.75-.75,7.41,7.41,0,0,1,1.75-3.5c16.88-22.25,30.13-51,30.13-56a14.35,14.35,0,0,0-.25-2.25v-.5c0-.87.5-1.25,1.5-1.25,2.62,0,8.25,3.13,8.25,5.38s-10.13,21.37-14.38,28.12V270c0,1.75-.87,2.63-2.12,2.63-.75,0-6.25-1.38-6.25-5.38a4.9,4.9,0,0,1,.12-1.25,35.7,35.7,0,0,0,.75-7.25Zm34,59.5c-1.75,0-3,.13-4,.13-1.25,0-2-.13-2.37-.63a19.14,19.14,0,0,1-3.75-6c0-.12-.13-.25-.13-.37,0-.5.38-.75.88-.75.25,0,.37.12.5.12a19.26,19.26,0,0,0,5,.63h1.25l24.12-.75V228.2l-8.62.38c-1.75.12-3,.25-3.88.25a4.08,4.08,0,0,1-2.37-.63,10.33,10.33,0,0,1-2.88-3.75c-10.37,17.88-22.12,29.38-24.62,29.38-.5,0-.75-.25-.75-.88a6.93,6.93,0,0,1,1.75-3.62,199.47,199.47,0,0,0,27.5-52l-14.63.87c-1.5.13-2.75.13-3.62.13-1.5,0-2.25-.13-2.63-.5a19.26,19.26,0,0,1-3.87-5.88c0-.12-.13-.25-.13-.37,0-.5.38-.75.88-.75.25,0,.37.12.5.12a19.49,19.49,0,0,0,4.75.5h1.62l19.5-1.12a175.67,175.67,0,0,0,5.25-23,6.38,6.38,0,0,0,.13-1.63,16.25,16.25,0,0,0-.63-4,1.15,1.15,0,0,1-.12-.62c0-.63.37-.88,1.12-.88.38,0,8,1.25,8,5,0,.25-.12.63-.12.88a206.93,206.93,0,0,1-5.5,23.75l24.87-1.5a17.72,17.72,0,0,0,5.88-1.13,4.26,4.26,0,0,1,1.62-.37c1.63,0,6.88,3.87,6.88,6.12,0,1.13-1.25,1.5-2.88,1.63l-38.75,2.25c-3.12,8.75-6.37,17.25-10.5,24.75,1.25.12,2.38.25,3.63.25h1.37l26.63-1.38a20.54,20.54,0,0,0,4.87-.75,5.57,5.57,0,0,1,1.38-.25c2.75,0,6.12,3.88,6.12,5.63,0,1.25-1.25,1.75-2.75,1.87l-17.37.88-.25,31.5,19.75-.63a15.84,15.84,0,0,0,4.87-.75,4.7,4.7,0,0,1,1.25-.25c1.75,0,6.38,3.63,6.38,5.75,0,1.25-1.25,1.75-2.88,1.88Z"/><path class="cls-1" d="M571.3,207.58c-8.5,10.37-16.5,18.25-19,18.25a.66.66,0,0,1-.75-.75,6.6,6.6,0,0,1,1.62-3.38c18.63-23.62,31.5-49,31.5-54.5a13.25,13.25,0,0,0-.25-2.25v-.5c0-.87.5-1.25,1.5-1.25,2.63,0,8.25,3.13,8.25,5.38,0,.62-5.37,14.5-15.5,29.25v71.62c0,1.75-1,2.63-2.25,2.63-.25,0-6.62-1.13-6.62-5.5a3.63,3.63,0,0,1,.12-1.13,35.7,35.7,0,0,0,.75-7.25Zm22.25,59.87H591.8c-3.63,0-6.88,0-9-7a2.32,2.32,0,0,1-.13-.87c0-.5.13-.75.5-.75.13,0,.25.12.38.12a21.41,21.41,0,0,0,6.62,1.13h.75l28.63-.75.12-17.63-14.5.63c-1.12,0-2.25.12-3.12.12-1.88,0-3.25-.25-4.25-1.25-.38-.37-3.25-3.5-3.25-6.12,0-.38.12-.63.5-.63a.92.92,0,0,1,.5.13,20.28,20.28,0,0,0,5.87.75h1.25l17-.88V226.7a8.8,8.8,0,0,0-1.25-4.87,3.46,3.46,0,0,1-.75-1.63c0-.62.5-.87,1.38-.87,1.12,0,8.25.75,8.25,3.75v11l12.5-.75a20.37,20.37,0,0,0,6-1,1.53,1.53,0,0,1,.75-.13c1.62,0,7,3.88,7,6.25,0,1.25-1.38,1.75-3.13,1.88l-23.12,1-.13,17.87,26.25-.75a21.28,21.28,0,0,0,6-.87,1.53,1.53,0,0,1,.75-.13c1.75,0,6.88,4.38,6.88,6.25,0,1.25-1.5,1.75-3.25,1.88Zm4.75-49c-.88,0-1.63.13-2.38.13-3,0-6.12-.5-8.12-7.13a1.53,1.53,0,0,1-.13-.75c0-.37.13-.5.5-.5a1.32,1.32,0,0,1,.63.13,19.39,19.39,0,0,0,5.87.87h1.13l23.75-1.12V194.45l-12.88.75a29.33,29.33,0,0,1-3.25.13c-1.75,0-3.12-.25-3.87-1-1.75-1.75-3.38-5.13-3.38-6.38,0-.37.13-.62.5-.62a1.42,1.42,0,0,1,.63.12,20.93,20.93,0,0,0,6,.88h1l15.37-1V171a10,10,0,0,0-1.25-5.37,4.67,4.67,0,0,1-.75-1.88c0-.62.38-.87,1.13-.87a15.37,15.37,0,0,1,4.12,1c3.5,1.12,4.38,1.62,4.38,3.37V187l11.37-.75a18.22,18.22,0,0,0,5.88-1.12,2.78,2.78,0,0,1,1-.25c1.5,0,6.62,3.75,6.62,6,0,1.12-1.37,1.62-3.12,1.75L627.17,194V209.7l21.25-1a18.17,18.17,0,0,0,5.88-1.12,2.78,2.78,0,0,1,1-.25c1.87,0,6.87,4.37,6.87,6.25,0,1.12-1.5,1.62-3.25,1.75Z"/><path class="cls-1" d="M688.17,242.2c-1.37,0-2.5.13-3.25.13a5.69,5.69,0,0,1-3.62-.88c-3.88-3.37-4.13-5.5-4.13-5.87s.25-.63.88-.63a2.32,2.32,0,0,1,.87.13,27.67,27.67,0,0,0,5,.62c.75,0,1.38-.12,1.88-.12l12.5-.5-2-41.63a16.32,16.32,0,0,0-1.63-6.87,6.64,6.64,0,0,1-.87-2.5c0-.63.37-1,1.25-1,1.25,0,3.87.75,8.62,3l15.13-.88-.38-14.87a7.81,7.81,0,0,0-2.25-5.5c-.5-.63-.75-1-.75-1.38,0-.62.63-.87,1.63-.87a18.21,18.21,0,0,1,5,1c3.5,1,3.62,1.75,3.62,3.62v.38l.38,17.12,15.12-.87.25-15.5a8.34,8.34,0,0,0-2-5.63,2.67,2.67,0,0,1-.62-1.37c0-.5.37-.75,1.5-.75a17.35,17.35,0,0,1,4.75.75c3.25.87,3.75,1.75,3.75,4.62l-.38,17.5,18.38-1.12h1.25c3,0,5.75,3,5.75,4.75,0,1-.63,1.62-.75,2.37l-3.25,42.88,9.12-.38a17.57,17.57,0,0,0,5.38-1,3,3,0,0,1,1-.25c.87,0,6.87,4,6.87,6.13,0,1-1.25,1.37-3,1.5Zm-1.87,30.63c-.88,0-1.38-.38-1.38-.88s.75-1.62,2.25-2.5c11.13-6.37,19.63-12.62,26.38-19a8.59,8.59,0,0,0,2.12-4.25c.25-1.37.63-2.25,1.5-2.25,2,0,6.75,5.75,6.75,7.63a2.76,2.76,0,0,1-1.25,2C705.3,268,687.8,272.83,686.3,272.83Zm32.62-80.63-15.25.75.75,16.38,15-.75Zm.63,22.88-14.75.62.87,19.13,14.38-.63ZM741.05,191l-14.88.88.38,16.37,14.12-.75Zm-.5,23.13-13.88.62.5,19.25,13-.5Zm29.87,56.62a218.7,218.7,0,0,0-26.62-19.37c-1-.63-1.63-1.25-1.63-2.25,0-.25,1.13-4.63,3.75-4.63,2.25,0,13.63,7.5,30,19.13,1.38,1,2.13,1.87,2.13,2.87s-2.25,5.75-4.75,5.75C772.42,272.2,771.55,271.58,770.42,270.7ZM763.67,213l-15.87.75-.38,19.5,14.88-.62Zm1.63-23.25-17,.88-.38,16.5,16.25-.88Z"/></g></g></svg>