<svg xmlns="http://www.w3.org/2000/svg" viewBox="0 0 761.99 285"><g id="レイヤー_2" data-name="レイヤー 2"><g id="レイヤー_1-2" data-name="レイヤー 1"><g id="_2列目" data-name="2列目"><path d="M24.06,60.94c-3.12,0-5.94.31-8.12.31C4.06,61.25,0,45.94,0,45.94c0-1.25.62-1.88,2.19-1.88H3.75A58,58,0,0,0,14.38,45h3.43l92.81-5-.31-20.62a25.16,25.16,0,0,0-4.06-13.76,6.87,6.87,0,0,1-.94-3.12c0-1.56,1.25-2.5,4.07-2.5,2.5,0,6.24.94,10.93,2.5,9.69,3.44,10.94,5.31,10.94,9.69l-.31,26.56,81.87-4.37a47.86,47.86,0,0,0,11.88-2.5,4.53,4.53,0,0,1,2.19-.32c6.24,0,15.62,10.63,15.62,13.75,0,2.5-3.12,3.44-7.19,3.75ZM215.62,162.5,35.94,170.31l-.32,106.57c0,5.31-1.56,8.12-5.31,8.12-6.56,0-17.19-6.25-17.19-12.5,0-.62.32-1.25.32-1.88.31-2.5,3.12-32.81,3.12-98.43a45.14,45.14,0,0,0-3.75-17.81,9.23,9.23,0,0,1-.62-2.82c0-1.56.93-2.81,3.75-2.81,3.44,0,9.68,1.87,20,5.94l185.31-8.44h3.13c9.37,0,12.18,7.81,12.18,10,0,2.5-1.25,4.37-1.25,7.5L234.38,260c0,4.06.62,7.5.62,10.31,0,7.19-7.19,14.07-13.44,14.07-4.68,0-55-22.82-55-31.57,0-1.25,1.25-1.87,3.13-1.87a25.38,25.38,0,0,1,6.87,1.56c12.82,4.69,26.56,6.56,37.82,9.06ZM84.69,131.88l.31,2.5v1.87c0,3.13-.62,5.94-4.69,5.94-3.43,0-15.31-2.5-15.31-11.88v-1.87a71.35,71.35,0,0,0,.31-8.44v-4.06c0-1.56-2.19-28.75-5.62-35-1.25-2.82-2.5-4.69-2.5-5.94,0-1.56,1.25-2.19,3.75-2.19,3.44,0,10,1.25,21.25,4.07L170,71.25h2.81c8.13,0,13.75,7.5,13.75,10.31,0,1.88-1.56,3.44-2.18,5.32l-6.57,25.93c6.25,5.94,8.75,9.69,8.75,11.57,0,3.12-4.37,3.12-8.75,3.43ZM91.88,242.5l.31,4.06v1.88c0,4.06-.94,6.25-4.38,6.25-2.81,0-15-2.19-15-11.88,0-3.43,0-6.56-.31-10l-2.5-30c-.62-6.25-1.56-10.31-3.75-14.06A8.6,8.6,0,0,1,64.69,185c0-1.25,1.25-1.88,3.43-1.88,3.13,0,9.38,1.26,19.69,5l72.5-4.06c1.57,0,2.81-.31,3.75-.31,6.56,0,13.13,6.87,13.13,11.25,0,2.19-1.57,3.44-1.88,5.31L170,224.69c4.69,5.93,6.56,9.37,6.56,11.56,0,2.81-3.75,3.13-8.44,3.44ZM163.75,87.81l-82.5,5,2.19,23.13,75.31-3.75Zm-8.13,111.57-66.87,3.43,1.87,23.75,61.57-2.18Z"/><path d="M300.36,206.92c-2.5,39-10.62,58.63-23.5,73-1.75,2.13-3.25,3-4.12,3-.5,0-.75-.37-.75-.87a10.17,10.17,0,0,1,1.75-4.25c5.12-8.13,18.87-32.5,18.87-87.63V188.3a22,22,0,0,0-1.5-8.25,5.13,5.13,0,0,1-.62-2.13c0-.62.37-1,1.25-1,1.5,0,4.37,1,9.5,3.5l62.12-3.87H364c2.12,0,6.25,2.37,6.25,4.5,0,1-.75,1.75-1,2.75l-2.88,13c2.63,2.25,3.63,3.75,3.63,4.75,0,1.37-1.75,1.75-4,1.87Zm38.5,49.75-.12,7v1c0,5.88,0,8.63,16.75,8.63a120.29,120.29,0,0,0,15.75-1.13c5.5-.87,6.62-1.25,8.25-6a82.68,82.68,0,0,0,2.62-10.37c.63-3.5,1.5-5.13,2.25-5.13,1.25,0,1.88,3.88,1.88,10.63,0,15.25-.38,19.5-32,19.5-13.5,0-23,0-23-15v-.38l.12-8-24.62,2.5a36,36,0,0,1-4.63.38c-1.75,0-4.5-.25-6.5-5.75a1.18,1.18,0,0,1-.12-.63c0-.37.25-.62.87-.62h.5a16.94,16.94,0,0,0,4.63.75,7.33,7.33,0,0,0,1.62-.13l28.25-3,.13-10.5-18.13,2a37.61,37.61,0,0,1-4.62.38c-4.75,0-6.38-6-6.38-6.5s.25-.75.88-.75a1.4,1.4,0,0,1,.62.12,15,15,0,0,0,4.63.75,9.8,9.8,0,0,0,1.87-.12l21.25-2.38.13-10.5a160.21,160.21,0,0,1-20,3c-.63,0-1.13.13-1.63.13-2.12,0-3.25-.63-3.25-1.25,0-.88,1.5-2,4.5-2.63,4.25-.87,36.63-8.12,41.75-14.75a2,2,0,0,1,1.63-1.12c2.62,0,6.25,5.5,6.25,7.12a2,2,0,0,1-1.5,1.88c-7.25,2.37-13.88,4.37-20.25,5.87l-.13,11.5,16.38-1.87a27.17,27.17,0,0,0,6.5-1.63,5.73,5.73,0,0,1,1.25-.25c.62,0,6.62,2.5,6.62,5.25,0,1-1,1.75-2.75,2l-28.12,3-.13,10.38,26-2.75a23.09,23.09,0,0,0,6.5-1.63,5.85,5.85,0,0,1,1.25-.25c.38,0,6.63,2.5,6.63,5.25,0,1.13-1,2-2.75,2.25Zm22.25-73.25-60,3.5c-.12,4.13-.25,8.88-.5,13.63l58-3.13Z"/><path d="M561.11,215.67v6a2.8,2.8,0,0,1,1.25-.37c3.13,0,22.13,18.5,22.13,21.75,0,2-4.25,4.75-5.25,4.75s-1.75-.75-2.88-2.25a139.09,139.09,0,0,0-15.25-17.13v52c0,2.13-.75,3.25-2.12,3.25-2.5,0-6.38-2.75-6.38-5.5a4.13,4.13,0,0,1,.13-1.25,53.2,53.2,0,0,0,.62-7.75s.13-20.12.25-32.62c0-4.25.75-11,.75-11-6.5,16.5-27.25,39-30.5,39-.62,0-1-.5-1-1.25a5.69,5.69,0,0,1,1.25-3c10-13.88,19.88-28.88,26.25-43.75L538,217.67c-1.38.13-2.63.13-3.5.13-1.63,0-5.13,0-7.13-5.88a1.64,1.64,0,0,1-.12-.75c0-.5.25-.75.87-.75a5.59,5.59,0,0,0,.63.13,33.56,33.56,0,0,0,5,.37h1.62l18.25-1.5.13-17.37c-19.25,6.37-21.38,6.37-23.13,6.37-1.25,0-1.87-.5-1.87-1.12s.75-1.63,2.37-2.25a284.28,284.28,0,0,0,37.13-18.63,7.21,7.21,0,0,0,3.12-3.62c.38-.75.75-1.25,1.25-1.25,1.63,0,6.25,5.5,6.25,8.62a1.51,1.51,0,0,1-.75,1.5,148.4,148.4,0,0,1-17,7.75V208.8l10-.88a23.69,23.69,0,0,0,5.63-1.12,2.63,2.63,0,0,1,1-.13c2.75,0,6.75,3.88,6.75,5.63,0,1-1.13,1.5-2.75,1.62Zm37.13,38.38.12,4.62v.5c0,1.5-.62,2.13-1.62,2.13a8.64,8.64,0,0,1-3-.75c-2.75-1.13-3.75-2.38-3.75-4.25v-.63c.25-2.75.25-5.12.25-7.25l-1-39.5a14,14,0,0,0-1.88-6.25,6.87,6.87,0,0,1-.75-2c0-.5.38-.75,1.13-.75,1.25,0,4,.75,8.75,2.38l30.37-1.63c.38,0,.75-.12,1.13-.12,2,0,5.5,2.75,5.5,4.75,0,1-.63,1.62-.75,2.37l-3.13,38.5c2.63,2.75,3.63,4.38,3.63,5.38,0,1.25-1.88,1.25-4,1.37Zm26.12-46L597,209.3l1,37.37,24-.75Z"/><path d="M762,251.17a166.84,166.84,0,0,1-2.75,27.25c-.88,4.5-2.5,6.13-5.38,6.13-6.87,0-11.5-5.63-15.12-10.25a174.14,174.14,0,0,1-15-22.25c-12.38,14-30.25,26.62-33.75,26.62-.63,0-1-.25-1-.75s.62-1.62,2-2.62a176,176,0,0,0,29.25-30.13c-1.63-3-8.38-16.12-13.63-40.62L673,206.67c0,4.88-.25,10.13-.63,15.25l21.13-1.5a9.89,9.89,0,0,1,1.75-.12c3.12,0,5.25,2.37,5.25,4,0,1-.63,1.87-.75,3a213.47,213.47,0,0,1-3.88,26.87c-1.25,5.38-1.87,8.63-4.87,11.25a5.24,5.24,0,0,1-3.5,1.63c-1.5,0-3-.88-4.63-2.63a103.61,103.61,0,0,1-10.5-12.75,5.37,5.37,0,0,1-1.12-2.62.85.85,0,0,1,.87-.88,4.84,4.84,0,0,1,2.63,1.25A135.33,135.33,0,0,0,686,257.3a.39.39,0,0,0,.25.12c.37,0,.5-.25.62-.5,2.25-6.5,4.5-19.75,5.25-29.75l-20.25,1.38c-.37,3.62-.87,7.25-1.37,10.75-3.88,24.87-19.13,45-22.38,45-.5,0-.87-.38-.87-1.13a5.46,5.46,0,0,1,.87-2.5c15.88-27.12,16.75-53.5,16.75-73.5,0-2.62-.12-5.25-1-7.25a9.84,9.84,0,0,1-.87-2.87c0-.5.25-.88,1-.88,1.37,0,4.25,1.13,9.5,3.5l31.62-2c-1.5-7.25-2.62-14.37-3.5-20.75-.25-1.5-.87-2.62-2.62-4.5a2.54,2.54,0,0,1-.63-1.12c0-.75.88-1.13,2.25-1.13a16.8,16.8,0,0,1,4.38.75c3.25.88,3.75,1.75,4.12,4.38,1,7.62,2.13,15,3.63,21.87l25.12-1.62a22.68,22.68,0,0,0,5.63-1,6,6,0,0,1,1.5-.25c2.25,0,6.62,4,6.62,5.87,0,1.13-1.25,1.5-2.75,1.63l-34.62,2.25a221.27,221.27,0,0,0,6.87,23.37q2.07,5.63,4.5,10.88c.13-.25,11.63-16.38,11.63-22.75a4.56,4.56,0,0,0-.13-1.38v-.37c0-1,.38-1.5,1.25-1.5,2.25,0,7.88,3.87,7.88,5.87s-9.88,18.88-16.88,27.75c6.5,12,14.25,22.13,21.25,28.13a1.07,1.07,0,0,0,.75.37c.25,0,.38-.12.63-.62a132.17,132.17,0,0,0,6.5-23c.5-2.38,1.37-3.63,2.12-3.63s1.38,1.13,1.38,3.38Zm-29.75-60a98.51,98.51,0,0,0-14.63-10.25c-1.12-.62-1.75-1.37-1.75-2.25s1-3.87,3.13-3.87c2.87,0,12.87,6.37,17.37,9.62,1.38,1,2.13,1.75,2.13,2.88,0,.62-1.5,5.12-3.88,5.12A4,4,0,0,1,732.24,191.17Z"/></g></g></g></svg>