<svg xmlns="http://www.w3.org/2000/svg" viewBox="0 0 782.42 291.81"><defs><style>.cls-1{stroke:#000;stroke-miterlimit:10;stroke-width:4px;}</style></defs><g id="レイヤー_2" data-name="レイヤー 2"><g id="レイヤー_1-2" data-name="レイヤー 1"><g id="_1列目" data-name="1列目"><path class="cls-1" d="M277.62,207.94a475.67,475.67,0,0,1-7.5,65.62c-1.87,10.94-6.87,16.25-13.43,16.25-27.5,0-74.69-74.69-89.38-135.62-3.12-13.13-6.25-27.81-9.37-43.75l-130,6.87h-5c-5,0-8.75-.31-10.32-1.25C7.62,112.62,2,104.5,2,100.44c0-1.25.62-1.88,2.19-1.88a7.62,7.62,0,0,1,2.5.32,40.67,40.67,0,0,0,10.93,1.24h4.07L154.5,92.94c-3.75-21.88-7.19-45.63-10-69.06-.94-7.5-3.12-12.19-6.25-15.94-.94-1.25-1.56-2.19-1.56-3.13,0-1.87,2.19-2.81,5.62-2.81a38.63,38.63,0,0,1,9.38,1.25c8.75,1.87,10.31,4.06,10.93,10,3.13,28.44,6.88,55,11.26,78.75L227,89.19a60.28,60.28,0,0,0,15-2.5,15.82,15.82,0,0,1,3.75-.63c8.13,0,16.56,11.56,16.56,14.69s-3.43,4.37-8.12,4.69l-76.88,4.06c2.81,14.06,5.63,26.88,8.44,37.81,21.25,80.94,62.81,116.88,65.31,116.88,3.75,0,12.5-34.38,16.88-57.5,1.56-7.5,4.06-11.25,6.25-11.25,1.87,0,3.43,3.12,3.43,9.37ZM85.44,139.81c0-4.69-1.56-8.43-4.69-13.75a3.07,3.07,0,0,1-.63-1.87c0-1.25.94-1.88,3.13-1.88a45.2,45.2,0,0,1,10.31,1.88c6.56,1.56,10.63,3.43,10.63,8.12l.31,33.44,15.94-1.25a51,51,0,0,0,13.44-2.5,16.15,16.15,0,0,1,3.43-.62c6.88,0,15.31,10.93,15.31,14.06,0,2.81-3.74,3.75-8.12,4.06l-39.69,2.81.63,50.31c16.56-5,33.44-10.31,51.56-16.87a24.83,24.83,0,0,1,7.19-1.56c3.12,0,4.69,1.25,4.69,2.81,0,2.19-2.82,5.31-8.76,8.12C76.38,264.5,29.19,273.25,26.38,273.25c-10.63,0-18.44-14.69-18.44-17.5,0-1.56.94-2.5,4.06-2.5,8.12,0,21.25-1.87,31.88-5l-1.57-75.63c0-4.68-1.56-8.43-4.69-13.74A3.12,3.12,0,0,1,37,157c0-1.25.94-1.88,3.12-1.88A45.35,45.35,0,0,1,50.44,157c6.56,1.56,10.31,3.44,10.31,8.12L62,244.19l25-6.57ZM65.12,70.75a74.07,74.07,0,0,1-7.81.31,16.63,16.63,0,0,1-4.06-.31,8.11,8.11,0,0,1-4.37-1.25c-.94-.94-9.69-8.44-9.69-15,0-1.25.62-1.88,2.19-1.88a3.88,3.88,0,0,1,1.87.32A53.11,53.11,0,0,0,56.06,54.5H59.5l43.12-2.81c4.69-.31,8.76-.63,13.44-2.19a15.8,15.8,0,0,1,3.75-.62c8.44,0,15,11.24,15,13.43,0,2.81-3.75,4.07-8.12,4.38Zm152.82,2.19a272.58,272.58,0,0,0-36.56-32.5c-3.13-2.19-4.38-4.06-4.38-5.94,0-1.56.94-3.44,2.81-5.62,2.19-2.82,4.07-4.07,6.25-4.07,4.69,0,48.44,31.25,48.44,39.38,0,2.19-4.69,12.81-10.31,12.81C222.31,77,220.44,75.75,217.94,72.94Z"/><path class="cls-1" d="M381.92,205.52l-33.5,1.75A91.79,91.79,0,0,1,346.17,218a281.07,281.07,0,0,1,30.63,31.5,4.81,4.81,0,0,1,1.5,3c0,1.25-2.38,4.87-5.13,4.87A3.13,3.13,0,0,1,370.8,256a230.44,230.44,0,0,0-26.88-30.5c-8.37,23.62-27.62,35-30.12,35-.75,0-1.13-.38-1.13-1s.63-1.75,2-3.13c20.5-19.75,23.75-36,25.5-48.75l-30.25,1.63L309.67,284c0,2.37-.75,3.75-2.37,3.75-.5,0-6.75-1.75-6.75-5.75a11.86,11.86,0,0,1,.25-2,35.77,35.77,0,0,0,.75-7.25l.37-63.13a18.69,18.69,0,0,0-1.25-7,8.24,8.24,0,0,1-.75-2.75c0-.62.25-1,1-1,1.38,0,4.25,1,9.38,3.38l30.62-1.63c.5-5,.75-10.12.88-15.25v-.87a22.08,22.08,0,0,0-1.25-7.5,5.29,5.29,0,0,1-.25-1.25c0-.5.25-.75.87-.75a18.86,18.86,0,0,1,4.88,1.12c2.5.75,4.25,1.38,4.25,4.13-.13,7.5-.38,13.87-1,19.87l34.37-1.87h1.5c2.75,0,5.63,2.37,5.63,4.5,0,1-.75,1.75-.75,2.5l-.75,71.5c0,1.5.37,3,.37,4.5a5.72,5.72,0,0,1-5.25,6c-5.37,0-29-13.88-29-18.5,0-.5.5-.88,1.38-.88a7.93,7.93,0,0,1,3.37,1A132.93,132.93,0,0,0,381.3,277Z"/><path class="cls-1" d="M546.8,278.52c-.63-.13-7.88-2.13-7.88-4.25,0-.5.5-.88,1.25-1.38a14.22,14.22,0,0,0,4.5-4.12c6.13-8.75,13.5-21.63,18.75-31.38,1.25-2.37,2.5-3.5,3.38-3.5.62,0,1,.63,1,1.63a10.37,10.37,0,0,1-.75,3.37c-4.25,12.75-10.75,26-15.5,35.5-1.25,2.63-2.38,4.13-4.13,4.13ZM558.42,228a115.64,115.64,0,0,0-14.5-11.88c-1.25-.87-2.25-1.37-2.25-2.37,0-1.38,1.88-4.38,4-4.38a5.39,5.39,0,0,1,2.63,1c13.37,8.88,17,11.88,17,13.88,0,1.62-2,5.37-4,5.37C560.55,229.64,559.67,229.14,558.42,228Zm7.13-25.5c-5.5-6.25-9-9.88-13.88-13.88-1.12-1-1.75-1.62-1.75-2.5,0-1.25,2-4,4-4,2.88,0,18.75,14.25,18.75,16.88,0,1.5-2.87,5.37-4.37,5.37C567.42,204.39,566.55,203.77,565.55,202.52Zm22.62-9.38c0,12.25-.5,26.88-2.12,38-4.38,30.5-19.5,52.88-24,52.88-.5,0-.75-.38-.75-.88a8.72,8.72,0,0,1,1.5-3.75c15.62-26,17.62-57.5,17.62-78.87v-5.13c-.12-3.5-.25-6.25-1.37-9.25a7,7,0,0,1-.5-1.87c0-.5.25-.88,1-.88,1.25,0,3.75.88,8.62,3l45.88-3.12a24.51,24.51,0,0,0,4.62-.75,8.32,8.32,0,0,1,1.63-.25c3,0,6.75,4.37,6.75,5.5s-1.38,1.75-3.63,1.87Zm8.13,58.25c0-.75.25-1.25,1-1.25,1.5,0,7.87,3.38,7.87,5.88a2.21,2.21,0,0,1-.25.87c-5.37,8.25-11.37,16.25-17.75,21.13-.25.25-2.62,2-3.75,2a.66.66,0,0,1-.75-.75,7,7,0,0,1,1.75-3.63c5.38-7.5,9.38-13.87,11.63-20.12a12,12,0,0,0,.25-2.38Zm17.87-6.12-9.37.5.12,1.25v.62c0,1.38-.37,2.38-1.75,2.38-1.87,0-5.87-1.75-5.87-4.63,0-.25.12-.75.12-1.12a21.94,21.94,0,0,0,.25-3.13,11.94,11.94,0,0,0-.12-2l-1.88-22c-.25-3-.5-4.87-1.37-6.5a7,7,0,0,1-1.13-2.62c0-.5.25-.75,1.13-.75,1.25,0,3.62.62,8.12,2.12l5.38-.37c4.37-7.38,5.62-13.5,5.62-14.63v-.75c0-1,.25-1.5,1-1.5,2.25,0,7.5,3.25,7.5,4.88a1,1,0,0,1-.12.62,97.93,97.93,0,0,1-6.13,10.88l18.88-1.25c.5,0,.87-.13,1.37-.13,1.63,0,5,2,5,4.25,0,1-.75,1.75-.87,2.63l-3,23.75c2.12,2.5,3.12,4,3.12,4.87,0,1.13-1.5,1.25-3.75,1.38l-14.87.75.37,32.62c0,1.63.25,3.25.25,4.5a5.36,5.36,0,0,1-5.37,5.38c-2.38,0-9.63-4.38-16.13-10.88-1.25-1.25-1.87-2.25-1.87-3,0-.37.25-.62.87-.62a8.62,8.62,0,0,1,3.38,1.12,50.18,50.18,0,0,0,11.37,4.38Zm18.13-31.38-29.75,1.88.62,8.25,28.25-1.63Zm-1.38,14.5-27.25,1.5.63,9.63,25.62-1.5Zm16.25,48c-.87,0-1.62-.87-2.62-2.37a141.76,141.76,0,0,0-13.75-18.75,4.19,4.19,0,0,1-1.38-2.5c0-1.88,3-3.75,4.25-3.75,2.63,0,18.38,20.5,18.38,22.5C652.05,274.39,647.8,276.39,647.17,276.39Z"/><path class="cls-1" d="M726.3,219.89c12.12,24,31.5,45.25,51.87,55.63,1.5.75,2.25,1.37,2.25,2.12,0,2.25-6.5,5.38-7.87,5.38-1.88,0-34.13-19.75-53.38-61.5a121.2,121.2,0,0,1-7.5,19.5c-15.12,30-44.75,44-48.87,44-.88,0-1.25-.38-1.25-.88,0-.75.75-2,2.62-3.12,10.63-6.88,36.63-25.88,46.25-60.25l-29,1.5c-1.37,0-2.62.12-3.87.12-2.5,0-5.13-.25-7.13-6.75a1.64,1.64,0,0,1-.12-.75.66.66,0,0,1,.75-.75c.12,0,.25.13.5.13a28.48,28.48,0,0,0,5.5.5h1.62l33.75-2a162.63,162.63,0,0,0,3.63-27.88v-.5a12.29,12.29,0,0,0-1.63-5.75,3.24,3.24,0,0,1-.37-1.37c0-.63.37-.88,1.25-.88a16.74,16.74,0,0,1,5.5,1.63c3.25,1.25,4.37,2.62,4.37,5.12v.5a177.53,177.53,0,0,1-3.75,28.63L760.05,210a16.54,16.54,0,0,0,4.75-1,1.53,1.53,0,0,1,.75-.13c3,0,7.75,5.13,7.75,6.63s-1.75,1.87-3.63,2Zm-.25,56a3.2,3.2,0,0,1-2.5-1.62c-4.63-6-10-12.5-14.38-16.38-1.12-1-1.62-1.75-1.62-2.5,0-1.75,2.75-3.87,4-3.87a3.72,3.72,0,0,1,2.37,1.12C715.42,254,731.05,268,731.05,271,731.05,272.77,727.8,275.89,726.05,275.89Z"/></g></g></g></svg>