<svg xmlns="http://www.w3.org/2000/svg" viewBox="0 0 783.71 268.99"><g id="レイヤー_2" data-name="レイヤー 2"><g id="レイヤー_1-2" data-name="レイヤー 1"><g id="_4列目" data-name="4列目"><path d="M30,247.81c-4.38.31-7.81.31-10.62.31-5.32,0-8.13-.62-11.26-3.43C1.88,238.44,0,228.44,0,228.12c0-1.24.62-1.87,2.19-1.87a6.18,6.18,0,0,1,2.19.31,67.75,67.75,0,0,0,15,1.88h2.5l106.24-4.06.32-99.38-58.13,2.81c-3.12,0-6.25.31-8.75.31-4.37,0-7.81-.31-9.37-1.56-5.31-4.06-10-10.62-10-16.25,0-1.56.62-2.19,1.87-2.19a6,6,0,0,1,2.19.32A50.18,50.18,0,0,0,60,110h4.06l64.38-3.12.31-85.32a26.69,26.69,0,0,0-4.69-15.94,6.56,6.56,0,0,1-1.25-3.43c0-1.57,1.25-2.19,3.44-2.19,3.75,0,24.37,4.69,24.37,12.5l-.31,93.12,55.94-2.81A56.13,56.13,0,0,0,220.31,100a4.68,4.68,0,0,1,2.19-.31c4.38,0,17.5,10.31,17.5,15.93,0,2.82-3.44,4.07-7.81,4.38l-81.88,4.06L150,223.75,249.06,220a53.41,53.41,0,0,0,14.38-2.81,4,4,0,0,1,1.87-.31c5,0,18.75,11.24,18.75,16.87,0,3.13-3.44,4.37-7.5,4.69Z"/><path d="M317.33,254.36l.38,5.88V261c0,1.5-.38,2.5-1.88,2.5s-6.87-1.75-6.87-5.13c0-.37.12-.87.12-1.37a27.26,27.26,0,0,0,.13-3.25c0-1.13,0-2.38-.13-3.88l-3.62-64.25a14.48,14.48,0,0,0-1.88-7,5.38,5.38,0,0,1-1-2.25c0-.62.38-.87,1.25-.87,1.38,0,4.38.75,9.38,2.5l75.25-4h1.37c3.38,0,6.88,2.75,6.88,4.87,0,1.25-.88,2.13-1,3.25L390,244.86c2.37,2.63,3.37,4.38,3.37,5.5,0,1.38-1.5,1.75-4,1.88Zm27.88-71L313.46,185l1.5,25.87,30.25-1.37Zm0,33.25-29.88,1.25,1.63,29.5,28.25-.87Zm39.25-1.75L353,216.24l-.25,30,29.62-1Zm2.37-33.62L353.33,183l-.25,26.12L385,207.74Z"/><path d="M575.58,234.86c-12.37,5.63-26.87,11.25-29.12,11.25a2,2,0,0,1-1.5-.5,14.44,14.44,0,0,1-4.88-6.87c0-.5.38-.88,1.13-.88h.25a8.5,8.5,0,0,0,1.75.13c.62,0,2.87,0,11.12-2.5l.13-59.75c-1.5.12-2.88.25-4.13.25a5.64,5.64,0,0,1-4-1.13c-1.5-1.37-3.5-4.25-3.5-5.87,0-.38.25-.63.88-.63a3,3,0,0,1,1,.13,28.48,28.48,0,0,0,5.5.5h1.5l28.37-1.88a25.64,25.64,0,0,0,6.75-1.37,1.53,1.53,0,0,1,.75-.13c2,0,7.5,3.75,7.5,5.75,0,1.13-1.12,1.75-2.5,1.88l-9.5.62-.25,92.38c0,1.75-.75,2.75-2.12,2.75-.75,0-6-1.13-6-5a8.07,8.07,0,0,1,.12-1.63,53.12,53.12,0,0,0,.63-9.12Zm.13-19.62-14.25.62-.13,17.63q6.95-2.25,14.25-4.88Zm.25-40.88-14.38,1L561.46,189l14.37-.75Zm-.13,20.38-14.37.75v13.62l14.25-.75Zm10.38,59.87a6.72,6.72,0,0,1,.5-2A93.94,93.94,0,0,0,593.33,231c.38-2,1-2.63,2.13-2.63.12,0,4.37,0,4.37,2.75A121.3,121.3,0,0,1,593.46,256c-.63,1.5-1.25,2.37-2.38,2.37C590.46,258.36,586.21,257.11,586.21,254.61Zm20.5-90.12c0-.88.37-1.5,1.37-1.5,2.38,0,7.5,3.5,7.5,5.25A3.78,3.78,0,0,1,615,170c-10.63,18.5-25,30.37-27.38,30.37a.92.92,0,0,1-1-1,6.14,6.14,0,0,1,1.88-3.37,116.85,116.85,0,0,0,17.12-25.88,11.65,11.65,0,0,0,1.13-5.25Zm-6.5,53.12c-4.63,0-6.5-6.75-6.5-7.25s.25-.62.75-.62a2.5,2.5,0,0,1,.87.12,26.15,26.15,0,0,0,4.5.5,9.9,9.9,0,0,0,1.88-.12,115,115,0,0,0,13.5-22.5A12.6,12.6,0,0,0,616,183c0-1.25.37-1.88,1.25-1.88,2.25,0,6.62,3.88,6.62,5.75,0,3.5-10.87,18.75-13.75,22.5,7.5-.87,15-2,22.88-3.62a61.53,61.53,0,0,0-4.63-5c-1-.88-1.62-1.63-1.62-2.38a3,3,0,0,1,1.12-1.87c1.13-1.13,1.88-1.63,2.63-1.63,2.5,0,17.37,16.88,17.37,19.25,0,2-4.12,4-4.87,4-1,0-1.63-.62-2.5-2-1-1.62-2.25-3.5-3.63-5.37C633.21,211.61,608,217.61,600.21,217.61Zm19,36.38A34.16,34.16,0,0,0,635,257.74c.25,0,5.25,0,5.25-.75a2.53,2.53,0,0,0-.38-1c-2-3.5-5.62-10.25-5.62-13.5,0-.75.25-1.25.75-1.25.87,0,2.25,1.12,4,3.5a84.52,84.52,0,0,0,9.75,10.87c1.62,1.63,2.5,3,2.5,4.25,0,1-.5,5.75-14.38,5.75-17.37,0-31-7-33.75-26.5a6.33,6.33,0,0,1-.12-1.5c0-1.37.62-2.25,2.5-2.5.5,0,.87-.12,1.25-.12,2,0,2.75.87,3.12,2.62C611.08,245.61,614.58,251.49,619.21,254Zm5.25-13.63c-.88,0-1.63-.62-2.5-1.75a65.66,65.66,0,0,0-12.13-12.12c-.87-.63-1.5-1.25-1.5-2.13,0-.62,1.75-3.87,3.63-3.87,2.5,0,17.12,12.87,17.12,15.37C629.08,237.36,626.21,240.36,624.46,240.36Zm26.25-44.25c-1.75,0-16.63-12.5-27.5-29.62a9.38,9.38,0,0,0-3.25-3.38c-.88-.5-1.38-1-1.38-1.5,0-.87,1.75-1.5,4.63-1.5,3.62,0,4.5.75,6,3.25,3,5.25,11.62,16.63,26.25,26.63,1,.62,1.5,1.12,1.5,1.62C657,192.61,652.83,196.11,650.71,196.11Zm1.87,49.38c-.87,0-1.62-.63-2.62-1.75a109,109,0,0,0-14.13-14.88c-1.12-1-1.75-1.62-1.75-2.37s1.75-3.88,3.63-3.88c2.75,0,19.87,15.88,19.87,18.5C657.58,242.74,654.08,245.49,652.58,245.49Z"/><path d="M727.71,214.49c-1.25,10-2.5,14.62-5.38,21.5,17.88,10.37,37.5,20.12,59.25,24.87,1.38.25,2.13.63,2.13,1.38,0,.37-2.88,6.37-6.75,6.37-.5,0-22.63-4.75-58-26.37-10,15.62-26.38,21.25-44.88,25.5a10.9,10.9,0,0,1-2.5.37c-1.37,0-2.12-.5-2.12-1.12,0-.88,1.12-2,3.62-2.88,15.13-5.25,31-11,39.5-25.75l-7-4.5c-5.62-3.62-10.12-5.25-15.75-5.25A34.6,34.6,0,0,0,685,229a5.85,5.85,0,0,1-1.38.12c-2,0-2.75-1.12-3-3.37v-.88c0-3.12,2.63-3.12,7.38-3.12a34.66,34.66,0,0,1,19.87,5.62l7.63,4.63c0-.13,2.12-4.63,3.75-17.13l-19.38.88.13,1.62v.38c0,1.12-.38,2-1.88,2-1,0-6.5-1.25-6.5-4.5v-.38c0-.87.13-1.62.13-2.37a25.29,25.29,0,0,0-.25-3.13l-2.13-18.5a16.07,16.07,0,0,0-2-6.12,6.78,6.78,0,0,1-1-2.5c0-.63.38-.88,1.38-.88,1.5,0,4.12.5,8.5,1.75l24.25-1.37-.38-16.63a9.11,9.11,0,0,0-1.62-5.5,2.72,2.72,0,0,1-.75-1.5c0-.62.62-1,1.75-1a18.12,18.12,0,0,1,4.75,1c3.62,1,4.37,2.25,4.37,4.25,0,6,.13,12.38.25,19l27.25-1.5h.5c3,0,6.25,2.88,6.25,4.38,0,1-1,1.75-1.12,2.37l-3.38,20c2,2.63,2.75,4.13,2.75,5,0,1.25-1.25,1.38-2.75,1.5Zm-30.88-24.38,2.25,18.63,20.75-.88c.5-6.37.63-12.5.63-19Zm56.5-3-24.5,1.25c0,6.63-.12,12.75-.5,19l22.5-1Z"/></g></g></g></svg>