<svg xmlns="http://www.w3.org/2000/svg" viewBox="0 0 778.08 284.05"><g id="レイヤー_2" data-name="レイヤー 2"><g id="レイヤー_1-2" data-name="レイヤー 1"><g id="_2列目" data-name="2列目"><path d="M105.94,267.19l.62,8.75v.94c0,4.37-2.18,6.87-6.25,6.87-.31,0-16.25-2.5-16.25-11.87,0-.94.32-2.19.32-3.44A76.3,76.3,0,0,0,85,256.56c0-3.44,0-6.87-.31-10.94l-2.81-41.87c-.32-2.5-.32-5.31-.94-8.13-23.13,19.07-70.63,48.76-78.13,48.76-1.87,0-2.81-.63-2.81-2.19,0-1.88,2.19-4.69,6.56-7.81,35.32-24.07,70.94-52.19,97.19-87.5l-67.5,3.43c-3.75.31-6.56.31-9.06.31-3.75,0-5.94-.31-7.5-1.24-5.94-4.07-9.38-9.38-10.31-13.76a5.92,5.92,0,0,1-.32-2.18c0-1.25.32-1.88,1.88-1.88a14.53,14.53,0,0,1,2.5.63,43.91,43.91,0,0,0,10.94,1.25c1.87,0,3.74-.32,5.31-.32l86.87-4.37c9.06-12.5,13.44-20.94,13.44-29.06V95.31c0-2.81.62-4.69,2.81-4.69,1.88,0,19.38,8.44,19.38,17.19,0,2.19-8.44,15.63-10.94,19.69l103.44-5.31c3.75-.63,7.81-.94,12.81-2.19.62,0,1.25-.31,1.88-.31,6.24,0,17.18,10.93,17.18,14.69,0,2.81-3.12,3.74-6.87,4.06l-141.57,7.18c-10.31,13.44-21.24,26.57-32.5,37.19a42.41,42.41,0,0,1,5,1.57L204.06,180h2.82c8.12,0,15.31,7.81,15.31,11.56,0,2.19-.94,3.75-1.57,6.56l-7.18,48.44c5.94,7.19,8.44,11.56,8.44,14.06,0,3.76-4.69,4.38-10.94,4.38ZM182.5,65.62c-8.44,26.57-14.38,39.69-20.31,39.69-2.19,0-3.44-2.19-3.44-5.93a29.68,29.68,0,0,1,.94-6.88c2.19-8.12,4.37-16.88,5.93-25.94L108.12,70l3.13,27.19v1.25c0,4.06-1.25,6.25-5.31,6.25-5,0-15.94-3.44-15.94-11.25V92.5a63.24,63.24,0,0,0,.31-7.5A38.12,38.12,0,0,0,90,79.38l-.94-8.44L35.31,74.06a61.49,61.49,0,0,1-7.19.32c-5.62,0-8.43-.63-10.62-2.82-4.06-3.75-7.81-12.18-7.81-13.75,0-1.25.62-1.87,2.5-1.87a4.65,4.65,0,0,1,1.87.31A46.2,46.2,0,0,0,24.69,57.5c1.87,0,3.43-.31,5.31-.31l57.19-3.13L84.06,27.19c-.62-4.38-3.44-8.44-7.18-12.5A5.39,5.39,0,0,1,75,11.25c0-1.87,2.19-2.81,7.19-2.81,5.31,0,19.37,0,20,9.06l4.06,35.62,62.5-3.74c1.87-11.88,3.44-22.5,4.37-31.57V15.62a22.65,22.65,0,0,0-2.81-10.93,7.25,7.25,0,0,1-.93-2.81c0-1.26.93-1.88,2.81-1.88.93,0,23.75,5.31,23.75,14.69,0,.62-.32,1.25-.32,1.87-2.18,9.69-5,20.32-8.12,31.88l45.94-2.5c6.56-.32,10.94-.94,15.62-2.5a12.46,12.46,0,0,1,4.69-.94c5.31,0,15,9.38,15,14.38,0,2.81-2.81,4.06-6.87,4.37Zm15.94,132.5-97.19,3.76,3.44,47.5,88.75-2.5Z"/><path d="M319,280.8c0,2.12-.5,3.12-1.88,3.12s-6.37-1.62-6.37-5.12a6,6,0,0,1,.25-1.5,34.11,34.11,0,0,0,.87-7.88s.25-23.37.5-36.75c0-3.12.25-7.75.25-7.75-5,15-21.12,34.75-24.12,34.75a.89.89,0,0,1-.88-1,5.8,5.8,0,0,1,1.25-2.87c8.88-13,15.63-26.5,22.25-45.5l-9.37.75c-1.5.12-2.75.25-3.75.25-5,0-6.38-6.88-6.38-6.88,0-.37.25-.62.88-.62a5.26,5.26,0,0,0,.62.12,14.48,14.48,0,0,0,4,.5c.75,0,1.38-.12,2.13-.12l13.5-1,.25-21.63a9.33,9.33,0,0,0-1.63-5.25,3.15,3.15,0,0,1-.62-1.37c0-.75.62-1.13,1.62-1.13a12.41,12.41,0,0,1,4,1c3.63,1.38,4,2.13,4,4L320,202.8l8.37-.75a19.29,19.29,0,0,0,4.63-1,2,2,0,0,1,.87-.13c1.88,0,6.13,3,6.13,5.25,0,1.13-1.25,1.75-2.75,1.88L320,209.55l-.25,13.12.37-.25a4,4,0,0,1,2.38-1c2.5,0,9.5,12.88,11.37,16.5a4.78,4.78,0,0,1,.75,2.25c0,2.13-4,4-5,4s-1.37-.62-2-2a141.8,141.8,0,0,0-7.87-15Zm24.37-11.5c6.25-11.13,18.88-37.88,18.88-44.88a9.06,9.06,0,0,0-.13-1.87,1.64,1.64,0,0,1-.12-.75c0-1,.62-1.38,1.62-1.38,2.88,0,7.75,3.88,7.75,5.63,0,.75-6.5,19.75-19.5,42.12,10-1.37,21.5-3.25,32-5.37a153,153,0,0,0-8-14,4.27,4.27,0,0,1-.87-2.13c0-2.12,3.5-3.62,4.62-3.62.88,0,1.63.62,2.75,2.25,3.75,5.62,16.38,27,16.38,30.5,0,2.37-4,3.87-5.88,3.87-1.25,0-2-.87-2.62-2.5-1.13-2.87-2.13-5.62-3.5-8.5-19.63,4.5-45.63,8.88-47.5,8.88a4.22,4.22,0,0,1-3.13-1.13c-1.87-1.5-3.75-6.25-3.75-6.75a.66.66,0,0,1,.75-.75,2.39,2.39,0,0,1,.88.13,21,21,0,0,0,4.87.62,14.14,14.14,0,0,0,2.25-.12Zm-8-34.75a10.2,10.2,0,0,1,1.25-3.88c11.88-21.87,16-40.5,16-43.25a21.75,21.75,0,0,0-.25-2.62c0-.25-.12-.5-.12-.75a1.38,1.38,0,0,1,1.5-1.5c2.12,0,7.75,3,7.75,6.25a3.31,3.31,0,0,1-.13,1.12c-8.5,26.63-22.87,45.63-25.37,45.63C335.46,235.55,335.33,235.17,335.33,234.55Zm68-5.25c.75,1,1.25,1.62,1.25,2.25,0,1-4.37,3.87-6.5,3.87a2.12,2.12,0,0,1-2-1.12,228.23,228.23,0,0,1-26-49.13c-.62-1.87-1-3.12-2.25-4.25-.62-.62-1-1-1-1.5,0-.75,1.13-1.12,2.88-1.12,6.25,0,6.75,1.37,7.87,4.87C381.21,193.42,387.08,209.8,403.33,229.3Z"/><path d="M607.08,252.05a67.65,67.65,0,0,1,1,7.5c0,.87.13,1.75.13,2.62v3.38c0,11.5-2.5,18.37-7.75,18.37s-25.38-11.62-25.38-15.25c0-.5.38-.87,1.25-.87a8.47,8.47,0,0,1,3.38.87,117,117,0,0,0,17.62,6c.13,0,.38.13.5.13a1.5,1.5,0,0,0,1.5-1.13,45.81,45.81,0,0,0,1.25-10.87,39.8,39.8,0,0,0-1.25-10.38l-34,1.25c-1.75.13-3,.13-4.12.13-1.75,0-5-.13-6.88-5.75a1.94,1.94,0,0,1-.12-.75.66.66,0,0,1,.75-.75,1.64,1.64,0,0,1,.75.12,29.4,29.4,0,0,0,6.75.75h1.62l33.13-1.37a26.17,26.17,0,0,0-2.88-5.25,4.6,4.6,0,0,1-1.12-2.38c0-1.5,3-2.87,4.25-2.87s2.25,1,3.12,2.25a86,86,0,0,0,15-10.63l-27.75,2.25a19.45,19.45,0,0,1-2.62.13,5.78,5.78,0,0,1-4.38-1.38l-.87-.75c-19.88,9.75-39.5,15.75-40.88,15.75-1.12,0-1.75-.37-1.75-1,0-.87,1.13-2,3.5-3,19-8,36.5-16.5,52.75-27.12l-41.12,2.25c-1.38,0-2.38.12-3.38.12h-.62c-2.75,0-5.5-3.62-5.5-6.25a.66.66,0,0,1,.75-.75,1.53,1.53,0,0,1,.75.13,18,18,0,0,0,4.5.5h1.5l40.37-2.25-.12-13.63-16.5,1.13c-1.63.12-2.75.25-3.75.25-3.63,0-6.38-4.25-6.38-6.25,0-.5.38-.75,1-.75a2.58,2.58,0,0,1,.88.12,24.68,24.68,0,0,0,4.37.38h1.5l18.88-1.13-.13-9a11.69,11.69,0,0,0-1.5-5.62,2.36,2.36,0,0,1-.5-1.38c0-.62.5-.87,1.38-.87.25,0,8.75.62,8.75,4.75l-.13,11.62,8-.5a16.61,16.61,0,0,0,5.5-1.25,3.85,3.85,0,0,1,1.25-.25c1.88,0,6.25,3.25,6.25,5.25,0,1.25-1.37,1.75-3,1.88l-18,1.12-.12,13.63,5.37-.25a213.11,213.11,0,0,0,23.88-20.38,9.43,9.43,0,0,0,2.37-4.87c.25-1.13.75-1.63,1.38-1.63,2.5,0,6.12,5.88,6.12,7.25a2.2,2.2,0,0,1-.75,1.63,239.48,239.48,0,0,1-19.75,17.12l25-1.37a30.45,30.45,0,0,0,5.5-1,1.53,1.53,0,0,1,.75-.13c2.75,0,6.5,4.5,6.5,5.63s-1.37,1.5-3.12,1.62l-44.25,2.38A190.19,190.19,0,0,1,589,222.8l30.37-2.25c.63,0,1.13-.13,1.63-.13,4.25,0,6.75,4,6.75,5.25,0,1.63-2.25,2.5-3,3.13A115.72,115.72,0,0,1,604,243.17l1.12,2.63,26.38-1.13a40.41,40.41,0,0,0,8.87-1.37,1.8,1.8,0,0,1,.88-.13c2.87,0,7.25,4,7.25,6,0,.88-.88,1.25-2,1.38Z"/><path d="M695.58,256.05l-.12,25c0,2.12-.63,3-1.75,3s-5.63-1.5-5.63-5a4.5,4.5,0,0,1,.13-1.25,38.27,38.27,0,0,0,.87-8V256.3l-16.12.62h-2.25c-1.75,0-2.88-.12-3.5-.62a9.89,9.89,0,0,1-3.13-4.88,1.4,1.4,0,0,1-.12-.62.66.66,0,0,1,.75-.75,1.64,1.64,0,0,1,.75.12,18.36,18.36,0,0,0,4.5.63h1l18.12-.75V240.8l-8,.25.13,1.75v.5c0,1.37-.5,2-1.5,2a7.11,7.11,0,0,1-2.63-.75c-2-1-2.75-2-2.75-3.75a5.41,5.41,0,0,1,.13-1.38,13.35,13.35,0,0,0,.12-2.25c0-1.12,0-2.37-.12-3.87l-1.25-20.75a19.53,19.53,0,0,0-1.5-6.88,9.47,9.47,0,0,1-.75-2.37c0-.63.37-.88,1.12-.88,1.25,0,3.5.75,7.5,2.38l9.5-.5v-7.63l-13.37.75c-1.13,0-2.25.13-3.13.13-1.37,0-2.5-.13-3.12-.75-1.63-1.38-3.13-3.88-3.13-5.25a.59.59,0,0,1,.63-.63,1.53,1.53,0,0,1,.75.13,16.93,16.93,0,0,0,4.37.5h1.38l15.62-1V179.8a11.09,11.09,0,0,0-1.37-5.63,3.38,3.38,0,0,1-.63-1.5c0-.62.5-.87,1.38-.87.5,0,7.37,1.12,7.37,4.62v13.75l8.5-.5a14.26,14.26,0,0,0,4.5-1,3.13,3.13,0,0,1,1-.25c2,0,6.25,3.63,6.25,5.13,0,1-1.25,1.5-2.75,1.62l-17.62,1v7.63l11.37-.63h1c2.5,0,5.25,2.25,5.25,3.75,0,1-.62,1.63-.75,2.5l-2.25,25c2,2.13,2.75,3.38,2.75,4.25,0,1.13-1.37,1.25-3.12,1.38l-14.38.5v9.25l11.13-.38a21.71,21.71,0,0,0,5.12-.75,3.13,3.13,0,0,1,1-.25c2.25,0,5.5,4.13,5.5,5.38,0,1-1.12,1.37-2.37,1.5Zm-6.5-46-9.62.5.5,8.75,9.12-.38Zm0,14.37-8.87.38.62,10.75,8.25-.25Zm15.75-.75-9.12.38-.13,11,8.5-.38Zm1-14.62-10.12.62v8.88l9.5-.5Zm58.25,44.5-15.5.5V276.3c0,1.62-.62,2.87-2.12,2.87-2.13,0-5.25-2.12-5.25-4.87v-1.13c.25-3.25.5-6.75.5-10.75v-8l-13.75.5v24.63c0,1.87-.63,2.87-1.88,2.87-2,0-5.37-2.37-5.37-4.5a3.24,3.24,0,0,1,.12-1,46.15,46.15,0,0,0,.5-7.62l.25-49.25c0-2.88,0-4.5-.87-6.5a6.36,6.36,0,0,1-.5-1.75c0-.38.25-.63.87-.63,1,0,3.13.75,7,2.38l13.5-.75V201.42l-17.5,1.13H723c-3,0-5.88-.63-8-5.38a3,3,0,0,1-.25-.87c0-.38.25-.5.75-.5a4.9,4.9,0,0,1,1.25.12,17.15,17.15,0,0,0,4.37.5h1.5l19-1.12V179.67c0-2.87-.25-4.87-1.62-7a1.65,1.65,0,0,1-.38-.87c0-.5.5-.75,1.38-.75,1.12,0,7.62.37,7.62,4.62v19.25l18.5-1.12a22,22,0,0,0,4.38-.75,4.21,4.21,0,0,1,1.25-.25c2.5,0,5.37,3.37,5.37,4.87,0,1-1,1.63-2.5,1.75l-27,1.63v11.37l16.75-.87c.63,0,1-.13,1.5-.13,1.88,0,4.5,2.13,4.5,4.13,0,.87-.5,1.62-.5,2.75l.25,54.12c0,1.38.13,2.5.13,3.63a5.93,5.93,0,0,1-5.25,6.12c-3.13,0-15.88-9.12-15.88-11.5,0-.62.5-1,1.38-1a5.54,5.54,0,0,1,1.75.38,61.51,61.51,0,0,0,11,3.87Zm-22.5-34.88L728,219.3v12l13.75-.63Zm.13,17.5L728,236.8v12.62l13.75-.5ZM764,217.8l-15.38.62V230.3l15.38-.75Zm.12,17.25-15.5.75v12.75l15.5-.63ZM763,189.17a54.61,54.61,0,0,0-8.88-7.62c-1.37-1-2-1.5-2-2.25,0-.5.38-1,1-1.88a2.55,2.55,0,0,1,4-.5c10.25,7.25,11.63,8.13,11.63,9.75,0,1.88-2.38,4-3.5,4A3.41,3.41,0,0,1,763,189.17Z"/></g></g></g></svg>