<svg xmlns="http://www.w3.org/2000/svg" viewBox="0 0 632.49 266.81"><defs><style>.cls-1{stroke:#000;stroke-miterlimit:10;stroke-width:4px;}</style></defs><g id="レイヤー_2" data-name="レイヤー 2"><g id="レイヤー_1-2" data-name="レイヤー 1"><g id="_1列目" data-name="1列目"><path class="cls-1" d="M35.44,246.69c-8.13.62-11.88,2.5-15.63,2.5-4.69,0-14.37-5-14.37-12.5a9.62,9.62,0,0,1,.94-4.07,52.46,52.46,0,0,0,2.81-17.5L7,108.56c0-6.25-.31-13.12-3.75-18.12A5.77,5.77,0,0,1,2,87.31c0-1.56,1.25-2.19,3.75-2.19s6.56.94,11.25,2.5c8.44,3.13,11.56,4.69,11.56,11.57l.63,128.43,75.31-6.24L103.25,23.25c0-4.69-1.25-11.56-4.37-15.63a6.56,6.56,0,0,1-1.57-3.43c0-1.25,1.25-2.19,4.07-2.19.31,0,23.43,2.19,23.43,11.25V219.5l78.44-6.25.94-111.87c0-6.88,0-13.44-3.44-18.13a5,5,0,0,1-1.25-3.13c0-1.24.94-2.18,3.44-2.18A25.46,25.46,0,0,1,212,79.81c10,3.44,13.75,5,13.75,11.57L223.88,257c0,5.31-1.57,7.81-5,7.81-4.38,0-17.82-5.62-17.82-13.75a8.44,8.44,0,0,1,.32-2.81,100.84,100.84,0,0,0,1.87-15.94Z"/><path class="cls-1" d="M303.61,222.27,282,226a40.22,40.22,0,0,1-4.63.87c-3.12,0-4.5-3.75-4.5-4.5a4.53,4.53,0,0,1,.13-1.25,25,25,0,0,0,.87-7.37l.5-30.25a8.32,8.32,0,0,0-1.5-5,3.28,3.28,0,0,1-.37-1.25c0-.5.25-.75,1-.75a15.37,15.37,0,0,1,4.12,1c3.25,1.12,3.5,1.87,3.5,3.75l-.75,37.62,8.5-1.25.13-58.75a8.39,8.39,0,0,0-1.38-5,2.06,2.06,0,0,1-.5-1.12c0-.5.38-.75,1.25-.75.38,0,7.63.62,7.63,4.25l-.25,60.5,8.25-1.25.37-35.5a9,9,0,0,0-1.5-5.13,2,2,0,0,1-.37-1c0-.5.37-.75,1.12-.75a12.16,12.16,0,0,1,3.88.88c3.25,1.12,3.62,1.75,3.62,3.5l-.5,49.75c0,1.75-.75,2.87-2.12,2.87-2.63,0-5.38-2.37-5.38-4.25a3,3,0,0,1,.13-1Zm56-26.13-37.37,2.25a20.42,20.42,0,0,1-2.75.13c-3.88,0-5.5-.75-7.13-6.25a1.42,1.42,0,0,1-.12-.63c0-.37.12-.5.5-.5a2.32,2.32,0,0,1,.87.13,21.58,21.58,0,0,0,5.13.62H320l53-3.12a11.66,11.66,0,0,0,4.37-1.25,1.87,1.87,0,0,1,1.13-.25c2.62,0,6.5,4.25,6.5,5.75,0,1.25-1.25,1.62-2.5,1.75l-15.5,1,.37,51.87c0,1.38.13,2.63.13,3.75a6.46,6.46,0,0,1-5.63,6.63c-3.37,0-22.25-12.38-22.25-15.5,0-.63.38-.88,1.13-.88a10.49,10.49,0,0,1,3.37,1,121.07,121.07,0,0,0,15.75,5.75Zm-14-28.5c-.25.88-.62,1.63-.87,2.38a177.23,177.23,0,0,1,21.62,9.5,2.69,2.69,0,0,1,1.5,2.37c0,1-1.25,5.25-3.25,5.25a3,3,0,0,1-1.75-.75,113,113,0,0,0-20.87-11c-6.25,9.75-19.13,15.13-21.88,15.13-.75,0-1.25-.25-1.25-.88s.63-1.5,2.25-2.5c8.63-5.62,14-11.62,16.88-19l-14.63,1c-1.12,0-2.25.25-3.25.25-2.87,0-4-2.12-5.37-5.87a3.08,3.08,0,0,1-.25-.88.59.59,0,0,1,.62-.62,1.42,1.42,0,0,1,.63.12,16.67,16.67,0,0,0,4.37.75h.75l18.88-1.25a45.82,45.82,0,0,0,.87-9.5c0-3.25-.12-4.75-.87-6.12a3.84,3.84,0,0,1-.38-1.38c0-.62.38-.87,1.13-.87a12.71,12.71,0,0,1,4.12,1.12c3.13,1.13,3.63,1.88,3.63,3.75a65,65,0,0,1-1.13,12.63l15.5-1a12.34,12.34,0,0,0,4.13-.75,2.78,2.78,0,0,1,1-.25c1.5,0,5.37,3.37,5.37,5.25,0,1-1,1.37-2.25,1.5Zm-17.62,65,.25,2.88v.5c0,1.5-.5,2.25-1.38,2.25-1.37,0-5.62-1.25-5.62-5.13v-.87a17.54,17.54,0,0,0,.12-2.63,21.05,21.05,0,0,0-.12-2.62L320,213.64a18.5,18.5,0,0,0-1.38-6,5.83,5.83,0,0,1-.75-2c0-.5.38-.75,1.13-.75,1.12,0,3.37.63,7.37,2.13l17.5-1h1c2.88,0,5.38,2,5.38,3.87a11.38,11.38,0,0,1-.63,2.25l-1.75,13.63c2.25,2.5,3,3.87,3,4.75,0,1.25-1.5,1.25-3.25,1.37Zm14.25-20.12-15.63.75,1,13.25,13.63-.5Z"/><path class="cls-1" d="M534.49,211.39c-2.25.13-3.38.63-4.63.63a3.88,3.88,0,0,1-3.87-3.88,22.69,22.69,0,0,1,.25-2.5l2.62-18a22.68,22.68,0,0,0,.38-4,8.11,8.11,0,0,0-.25-2.5,9.26,9.26,0,0,1-.38-2.25c0-.62.25-1,.88-1,1.12,0,3.25.88,7.12,2.88l17.25-1,2.25-18.25-17.75,1.25a29.37,29.37,0,0,1-3.12.12,6.93,6.93,0,0,1-3.25-.5,8.75,8.75,0,0,1-3.63-6c0-.62.25-.87.75-.87a1.42,1.42,0,0,1,.63.12,16.87,16.87,0,0,0,4.5.5h1.62l22.38-1.5h1.37c2.88,0,5.5,2.13,5.5,4.13,0,1-.62,1.62-.87,2.5l-2.88,18.37c1.88,2.38,2.63,3.88,2.63,4.75,0,1.25-1.38,1.38-3.38,1.5l-24.37,1.5-2.63,17.38,23.5-1.25h1.25c1.75,0,5.25,2.25,5.25,4.62,0,1.25-.75,2.13-.87,3C560,251.39,553.61,255,550.11,255c-4.37,0-24.62-11.88-24.62-15.38,0-.62.5-1,1.37-1a7.88,7.88,0,0,1,2.5.63c6.13,2.5,12.63,4.75,18.5,6.5a1.42,1.42,0,0,0,.63.12,1,1,0,0,0,1-.87c2.37-6.75,5.12-23.88,5.75-34.75Zm83.25,25c-28.5,6.88-48.38,9.88-49.25,9.88-3.13,0-7.38-5-7.38-7.75,0-.75.5-1,1.25-1a4.86,4.86,0,0,1,1.25.12,17.64,17.64,0,0,0,3.5.38c1.13,0,2.38-.13,3.63-.25l2.62-.13c10.25-30.25,20-69.5,20-76.62a9.85,9.85,0,0,0-.62-3.75,3.28,3.28,0,0,1-.38-1.38c0-.62.38-.87,1.13-.87q1.5,0,5.25,1.87c2.75,1.25,3.37,2.75,3.37,4.13s-8.12,37.87-20.75,75.37c10.5-1.5,21.63-3.75,33.5-6.5-3-7.12-6-13.87-9.5-20.5-.87-1.75-1.5-2.75-1.5-3.75,0-1.25,3.5-3.25,5.13-3.25,1.12,0,1.62.88,2.37,2.25,10,19.25,19.13,39.38,19.13,42,0,1.38-.88,2.25-2.88,3.5a7.27,7.27,0,0,1-2.75,1c-1.37,0-2-1.12-2.75-3Z"/></g></g></g></svg>