<svg xmlns="http://www.w3.org/2000/svg" viewBox="0 0 1224.43 399.21"><g id="レイヤー_2" data-name="レイヤー 2"><g id="トップページ"><path d="M4.38,328.24C20,274.49,76.25,162,130,77c-20-4.38-30.62-15-36.25-27.5-4.37-9.38-1.87-15,11.87-16.25,23.76-1.88,47.5-10,70.63-18.13C198.75,7,220.62,1.36,244.38.11c34.37-1.25,65,7.5,80,53.13,14.37,43.75,2.5,75-19.38,108.12-31.25,48.75-97.5,100-175.62,110.63-18.76,2.5-31.88,1.25-41.88-2.5C70.62,302,50.62,342,30.62,390.11c-5,11.25-10,11.25-18.74,2.5C5,385.11,0,375.11,0,359.49A120.52,120.52,0,0,1,4.38,328.24Zm107.5-105.63c124.37-28.12,185-119.37,173.74-161.25-2.5-8.12-11.87-12.5-20-12.5-14.37,0-37.5,8.13-58.74,15.63-10,3.75-15,5.62-23.76,8.12-.62,15.63-9.37,40.63-23.74,66.88C153.75,148.86,147.5,160.11,111.88,222.61Z"/><path d="M325.7,295.21c4.25,0,6.75,3.75,5.5,10.5C329.45,315.21,326,326,309.7,352c-17,27.75-34.75,46.5-52,46.5-9.75,0-16.25-6.5-17.75-15.25-7.5,8-16.5,14-27.5,14-11.75,0-17-8.75-17-19.75a53,53,0,0,1,3.25-17c2-5.75,4-11,6.75-17A44.6,44.6,0,0,1,190.7,346c-6.5,23.25-26.5,51.75-49.5,51.75-7.75,0-16.75-3.5-23.75-12.5a36.66,36.66,0,0,1-7.25-21.75c0-10.5,4.25-24,10.5-35,9.25-16.25,26-31.25,41.25-32.25,9-.75,13.5,1.5,19.25,9.25a26.76,26.76,0,0,0,3.5,4c5,5,9.25,13,8,26.75,11.5-2.25,23.5-12.5,31-24.5,2.5-4,6-9.5,8.75-13.25,3-4.5,7.75-4,10.5-.25a19.73,19.73,0,0,1,3.75,11.5c0,6.25-2.75,14-8.25,22.75-8.25,13.75-14.25,24.75-19.25,36.5-2.25,5.5-3.25,10.25-3.25,13.75,0,3,.75,4.5,3,4.5,5.5,0,14.25-13.5,25.25-32C254.7,338,260.7,327,265.45,318.46a150.65,150.65,0,0,1,11.75-20c3.75-5.25,7.25-6.25,10.5-1.75a20.73,20.73,0,0,1,4,12.5,34.4,34.4,0,0,1-4.25,16.5c-4.75,9.75-15.25,25-23,42.25-2.75,5.75-4.5,11.5-4.5,15,0,3.25,1,5.25,2.75,5.25,7.75,0,21.25-16,33.75-38.25C301.7,308.21,318.45,295.21,325.7,295.21ZM135.45,385c6.5,0,17-9,25.75-26a124.37,124.37,0,0,0,9-18.75c-7.5-4-14-11.5-15.5-19.75a89.52,89.52,0,0,0-14.25,19.25c-6.75,12-10.5,25.75-10.5,35C130,382.21,132.2,385,135.45,385Zm42-68c0-3.75-2-5.25-3.75-5.25-1.5,0-3.75,2-3.75,6,0,4.5,1.25,11,4,14.25A41.83,41.83,0,0,0,177.45,317Z"/><path d="M495.44,372.21c-6.25,15.5-24.75,26.25-39.5,26.25-15.75,0-24.5-11-24.5-25.75a43.44,43.44,0,0,1,2.5-13.75c4.25-13.5,14-27.25,24-39a50.23,50.23,0,0,1-18.5,4.25C418.94,367,392.19,397.46,361.69,398c-23,.25-35.75-14.75-35.75-34.5,0-8.75,2.5-18.75,7.5-28.75,13-25.5,33.5-39.5,47.75-39.5a15.86,15.86,0,0,1,8.5,2c6.75,4.25,11.5,8,15.5,13a17.61,17.61,0,0,1,2.25,8.25c0,7.25-3.75,17.5-10.5,26.25-7.25,9-16.75,15.25-27.75,15.25a30.24,30.24,0,0,1-17.75-5.5,52.92,52.92,0,0,0-2.25,14.75c0,11.5,4.5,19,11.5,19,25,0,51-36,64.25-66.5-4.5-2.75-7-6.5-7-11,0-13.25,16.75-31.5,25.25-31.75,5.25,0,7.25,3.25,7.25,8.75,0,5.25-2,12.75-4.75,21,7-1.75,13.5-5.25,21.75-10.5,4-2.5,7.5-4.25,10.5-.25,3.25,4.25,7.5,11,7.5,17.25,0,3-1.25,6.25-4.25,9.5-10.75,12.5-23,29.5-27.5,42.25a41.91,41.91,0,0,0-1.75,10.75c0,6.5,2,10.75,5.5,10.75,9,0,23.25-15.25,30.75-32.75,2.25-4.75,6-5.75,8.5-.25C497.94,358.21,498.69,365.21,495.44,372.21Zm-140.5-27a12.17,12.17,0,0,0,5.5,1.5c6.5,0,13.25-7.25,18.25-14,7-9,12.75-21.25,10.25-23.25-4.5-3.5-21.5,11-31.75,31.25A36.51,36.51,0,0,0,354.94,345.21Z"/><path d="M538.44,368.46c7.25-21.25,32.5-68.75,54.5-104a19.23,19.23,0,0,1-9.5-12.75c-.75-3.25.75-4.75,5.5-4.75,14.5,0,25.25-1.5,37.25-3.5,8.75-1.5,17-2.5,23-2.5,12,0,19,5,22.5,13.5,1.25,2.75,0,5.5-5.25,5.5-12.75-.25-25,2.5-49,6.75-8.25,13.75-18,31-29.75,52.5,4.75-.75,8.25-1,12-1.25,14.25-1,21,4.25,23.25,12.25,1,3.5.5,5.75-5,6.25-11.5,1-29.25,3.25-43,6.75-9.25,18-16.5,33.5-25.25,52.25-1.5,3.25-5,4-8.5,1.75s-5.75-7.5-5.75-13.5C535.44,380,536.44,374.71,538.44,368.46Z"/><path d="M799.94,373c-6.75,15.25-25.25,26.25-39.75,26.25-16,0-24.75-11.25-24.75-26,0-12.75,13-35.75,27.25-53A54.9,54.9,0,0,1,742.94,325c-6.75,10.5-16.5,18-29.75,19.5-5.75,24-29.25,53.5-49.5,53.5-8.25,0-17.25-3.25-24.25-12.5a37.34,37.34,0,0,1-6.75-21.75c0-11,4-23.5,10.25-35,9.5-17.25,26-31.25,41.5-32.5,8.75-.5,13.25,2,18.75,9.25,1.25,1.5,2.5,2.5,4,4,5,5.25,8,11.75,8,25,4.5-1.75,8.75-5.5,13-12.25-4.5-2.5-6.25-6-6.25-10.5,0-13.25,16.75-31.5,25-31.75,5.5,0,7.5,3.5,7.5,8.75,0,5.5-2,13.5-4.75,21,6.75-1.75,14-5.75,21.5-10.75,4.25-3,7.5-3.75,11-.25,4.25,4.75,7,10.5,7,17a15.15,15.15,0,0,1-4.25,10c-10.5,12.25-22.5,29-27,42a35.59,35.59,0,0,0-2,11.25c0,6.25,2,10.25,5.75,10.25,8.75,0,23-15.5,30.5-32.5,2.25-5,5.75-5.5,8.5-.5,1.25,2.25,1.5,4,1.5,7.25A22,22,0,0,1,799.94,373ZM656.69,385.21c6,0,18-10.25,27.25-26a73.35,73.35,0,0,0,8-19,30.69,30.69,0,0,1-14.75-19.5,99.56,99.56,0,0,0-14.5,19c-6.25,11.75-10.5,26-10.5,35C652.19,381,653.69,385.21,656.69,385.21Zm43-68.25c0-3.75-2-5.25-3.75-5.25-1.5,0-3.75,2-3.75,6,0,4.5,1.25,11,4,14.25A41.83,41.83,0,0,0,699.69,317Z"/><path d="M854.44,388.21c7.25,0,20.75-15.5,33.75-37.75,4.75-44.5,25.25-55.75,29.75-55.75s6.25,4.25,5.25,10.25c-1.5,9.25-5.75,20.25-21.5,46.75-17,28.25-35,47.5-52.5,47-10-.25-16.25-7.25-18-15.5-7,7.5-17,14.25-27.75,14.25-11.75,0-17-8.5-17-19.5a46.67,46.67,0,0,1,3.25-17.5c6.25-15.5,20-43,34.25-62.75,3-4,7-4.5,9.5-1,2,2.75,5,8.5,5,12.75,0,6-3,13.5-8.75,22.75A284.71,284.71,0,0,0,809.94,369a40.3,40.3,0,0,0-3,13.75c0,3,.25,4.75,2.25,4.75,6.5,0,14.75-13.25,25.5-31,11.25-18.5,16.25-28.25,21-36.75,4.5-8.5,9-16.25,13.5-22,3.25-4.25,6.75-4.5,9.5-1.75,6.75,7.25,6.75,17.25.75,29.5-4,8.25-14.75,23.25-23.75,42.5-3,6-4.5,11.25-4.5,14.75S852.19,388.21,854.44,388.21Z"/><path d="M986.18,398c-13,.75-21-5.5-23-15.5-7.75,8.25-17.75,15-28.5,15-14.5,0-22.5-10.5-22.5-25.75,0-10.75,4-23.75,13-36.75,20-28.75,40.25-40,53.5-40,8.5,0,13.75,4.25,16,10.5,2-3.25,3.75-5.75,4.75-7.25,3.25-4,6.75-5.25,10-1.75,2.75,3,4.5,7.5,4.5,13a35.81,35.81,0,0,1-3.75,15.5c-3,6.75-7,12.75-10.75,19.75-4.5,8-9.5,16-12.25,22.75-2,5.5-3.75,10.75-3.75,14.25,0,4,1.25,6.25,3.75,6,14.5-1.5,34.75-30,46.25-65.25-5.5-2.75-7.5-6.75-7.5-11.75,0-12.75,15.5-31,23.5-31.5,5.25-.25,7.75,3.25,7.75,8.75,0,5.75-1.75,13-4.25,21.25a71.6,71.6,0,0,0,22.25-10.5c4.75-3.25,7.25-4,10.75-.25s7.25,10.25,7.25,16.75c0,3-1.25,6.5-3.75,10-11,12.5-23.5,29.75-27.5,42a35.92,35.92,0,0,0-1.75,11c0,6.25,2,10.25,5.75,10.5,8.75.75,22.75-15.75,30.75-34,1.75-4,6-3.75,8,1.25,1.5,3,2.25,9.75-.75,16.75-6.75,15.5-24.75,26.5-39.5,26-16-.5-24.75-11.5-24.75-26a51.68,51.68,0,0,1,2-13.25c3.75-12.5,15-27.75,24.75-39.25a49.85,49.85,0,0,1-18.25,4.5C1035.93,359.21,1013.18,396,986.18,398Zm-4-87.75c-6.75,0-23.25,15-36.5,36-7.5,12-11.25,24.25-11.25,32.75,0,4.25.75,7.5,2.75,7.5,8.25,0,20.25-14.5,32.5-36,9.5-16.75,14-29,14-35.5C983.68,311.71,983.18,310.21,982.18,310.21Z"/><path d="M1167.18,367.71c-3,6.5-4.5,12-4.5,16,0,3.75,1,5.5,3.25,5.5,8.75,0,21-16.5,29.5-33,2.5-4.75,5.75-4.5,8,0,1.25,2.25,2.25,9.25-1,16.25-6.75,13.5-22.25,26.5-36.75,26.5-12.25,0-20.5-4.25-22.5-15.25-7.75,8-17.5,14.5-28.5,14.5-14.5,0-22.5-10.75-22.5-25.5,0-10.5,4.5-24.25,13.25-37,19.5-28.25,40.25-40,53.25-40,8.5,0,14,3.5,16,10,12.5-23.5,28.75-51.75,37-63.5,4.5-6.25,8-5.75,10.5.25a25.33,25.33,0,0,1,2.25,9.75c0,6.75-3.25,16.5-9.75,28.25C1200.18,308,1178.93,343,1167.18,367.71Zm-4.5-56.75c-7-.25-23.5,15-36.75,36-7.5,11.75-11.5,24.25-11.5,32.5,0,4.5,1,7.75,3.75,7.75,8,0,20-14,31.25-35.75C1162.93,325.71,1167.43,311.21,1162.68,311Z"/></g></g></svg>