<svg xmlns="http://www.w3.org/2000/svg" viewBox="0 0 979.38 386.15"><g id="レイヤー_2" data-name="レイヤー 2"><g id="ポジションページ"><path d="M90.88,43.3c-3-6.6-1.8-10.2,6-10.8,49.8-5.4,94.8-30.6,135.59-32.4,30.61-1.2,57,8.4,71.4,49.8,12.6,36,2.4,70.79-18,102.59-30,46.8-94.79,91.8-173.39,106.8-13.8,2.4-27,0-37.2-6-16.8,33-34.8,72.6-55.8,122.4-2.4,6-5.4,6-9.6,1.8-8.4-9-14.4-27-5.4-59.4,15.6-54.6,72-167.4,124.2-249.59C108.28,66.1,96.88,55.9,90.88,43.3Zm187.2,12c-12.61-33-72.61-1.8-112.2,9.6,0,16.2-6,37.2-22.8,66-15.6,27.59-32.4,55.19-50.4,88.79C227.08,194.49,294.27,97.29,278.08,55.3Z"/><path d="M243,359.9c-7.5,15-23.5,26.25-37.5,26-19-.25-23.5-16.25-16.5-36.75,2.5-7,6.25-16,10.5-25-6.75,5-14.5,6.75-23.25,6.25-5,21.25-20.75,47-39.5,53-9,3-21.75,2.75-31.5-10.5-11-14.75-7.25-36.75,4-56.25,10-17,24.75-31.25,39.75-32.5,7.75-.75,12.25,1,17.25,8.25,5.5,8,13,9.5,11.75,27.5a24.63,24.63,0,0,1-.5,4.25c15.5,0,30.25-16.25,43.25-35.75,2.25-3.5,4.25-3.75,6.25-1.5,3.75,4,5.5,14.75-.25,27.25-5,11-15.75,28.25-21,40.5-6.25,14.5-5.75,24.5,2.5,24,11-.5,25-17,32.5-34.5,1-2.25,3-2.25,4.25,0C246.52,348.15,246.27,353.4,243,359.9Zm-99.25-57.5a89.41,89.41,0,0,0-19.5,23.75c-10.5,18.75-14.25,42-7.75,47.5,6.75,5.75,22.25-3.25,34.25-25.75a161.7,161.7,0,0,0,9.5-21.25C151.27,321.9,144,312.15,143.77,302.4Zm19.5,0c-.75-8-6.25-6.5-7.5.75a19.16,19.16,0,0,0,6,16.75A45,45,0,0,0,163.27,302.4Zm68.5-40.75c4-4.25,11.5-1.25,14.5,5.75s1,12.75-1.75,16.25c-3,3.75-10,3-13.75-3.75S227.77,265.9,231.77,261.65Z"/><path d="M314.77,283.65c8.25,1.25,16,13.5,9.75,26.5-5.25,11-17.5,29.5-23.25,42.5-6.5,14.5-5,26.25,4,25.75,10.25-.5,22.5-17,32-34.5,1.25-2.25,3-2.25,4.25-.25,1.75,2.75,1.25,8.5-2.25,15.75-6.75,14-22.5,26.75-37,26.75-21.25,0-26.25-15.5-19-37.25,8.25-24.5,30.25-51,25.75-53-2.5-1-17,6-33,23.5-14.75,16-25.75,40-36.5,63.5-1,2.25-2.5,3.25-4.75,1-5-5-6.5-13.25-2.5-25.75,5-15.75,24.25-50.5,40-73.75,1.75-2.75,3.75-2.5,5.25,0,3.75,6.25,3.5,14.75.75,23.75C289.52,296.15,306.52,282.4,314.77,283.65Z"/><path d="M349.27,277.9c-2.5-3.5-1-5.25,2.75-5a142.49,142.49,0,0,0,20.75-1c7.75-13.75,14.75-25.5,19-31,2.24-3.25,4.74-3,6,0,2.76,7,2.76,15.25-3.24,28.25,9.75-.25,13.5,4.25,15.49,7.5,1.76,3,.76,4.75-3,4.75-5.51-.75-13.25,0-19.5,1-9.75,16.75-24,41-33.5,62-8.25,18.25-5.5,33.75,5,34.25,11.25.5,25.5-17.25,34.75-36,1.49-3,4.25-3.5,5.24,0,1.25,4,0,8.5-2.5,14.25-3.24,7.25-19.74,29.25-39.74,28.5-16.5-.5-29.75-19-17.75-47.75,5.25-12.5,15.75-33.5,26.5-53.25C357,284.4,351.27,280.65,349.27,277.9Z"/><path d="M509.26,383.15c-12.25,3.5-28,5.5-41.75-5-9-6.75-16.5-18-16.75-38.5-.5-53.75,50-101.25,78.25-110.5,14-4.5,25.25-4.75,33.75,1.5a33.61,33.61,0,0,1,13,17.75c2.25,7,1.75,13.75-1.75,21.75-3,6.75-7,16.75-9.75,24-.75,2-2.5,3.75-5.25,1.25-5.75-4-9.75-11.25-6.5-23.75s12.5-26.5,7-32c-8-8.25-48.75,13.25-72.5,49.5-23.25,35.5-22.5,73.5-12.5,82.75,13.75,12.75,43-6,58.25-36.25-8,1.5-16,3-22,3.5-12.5,1.25-20.25-4-24-12-1.25-2.5-.5-4,2.5-4,19.5-.25,38.5-6.5,53.75-6.75,12.5-.25,19.5,5.25,22.75,12.75,1.25,2.75.75,4.5-2.5,4a84.9,84.9,0,0,0-17.5.5C552.26,357.15,521.76,379.65,509.26,383.15Z"/><path d="M580.76,384.9C563,383.65,562.51,365.15,568,348.65s18.25-41,34.5-63.75c2-2.75,4.5-2.5,6.5-.25,5.5,8.25,4.25,19.5-4.75,33.75a255.93,255.93,0,0,0-19.5,36.75c-5.25,12.25-4.5,21.25,1.25,21.75,9.75.75,23.5-16.75,37-38.5,15.75-25.5,23-42.75,31-53.5,2.5-3.5,4.25-4,6.25-1.5,3.75,4.5,5.75,15.5-.25,28-5.5,11.25-18,30-23.75,42.75-6.5,14.25-5.5,24.75,3.5,24.25,10.5-.5,23.25-17,33-34.5,1.25-2.25,3.5-2.5,4.5-.25,1,2,1.25,8.75-2.25,15.75-7.25,14-22.75,26.75-37.5,26.75-16.25,0-22.75-10.25-20.75-24.75C608,373.15,594.76,385.9,580.76,384.9Z"/><path d="M689.51,384.4c-23,0-28-31.75-7.25-61.75,20-28.75,39.75-40.25,52.5-40.25,9.75,0,14.75,7.75,14.75,16.5,3.75-6.25,7-11.25,8.75-13.75,2-3,4-3.75,6-1.5,4,4.5,5.75,15,.25,27.5-5,11.25-18.25,30.75-23.75,43.5-6,14.25-5,23.5,2.75,22.75,16-1.5,38.5-32.25,50.24-69-20.24-7.25,3.51-41.25,13.5-42,7.75-.5,5.25,14.25,0,31.5,9-1,18.26-5.25,27.75-11.75,3.5-2.5,5.26-3,7.5-.5,4.75,5.25,10.75,16.75,3.5,25.25-11.74,13.5-24.49,31-28.5,43.5-4.24,13.75-1.5,23.5,6.25,24,10.51.75,23-15.75,31-34.5,1-2,2.75-2.5,3.75,0,1.25,3,2,9.25-1,16.25-6.5,15-21.25,26-35,25.5-19-.75-26.49-18-20.49-38,5-16.5,20.24-35,31-47-11,6.5-21.76,9.25-29.5,9.25-12.26,35.25-34.75,73-61.5,75-13.75,1-21.25-7.75-21-20.5C713,374.65,701.76,384.4,689.51,384.4Zm9.25-51.75c-13.5,21.5-16.25,43.25-6.5,43.5,10,.25,23-15,35.75-37.5,15.5-27.25,17.75-43,10.5-43.5C730.76,294.65,712.51,310.65,698.76,332.65Z"/><path d="M922.75,378.9c10.25-.5,23.75-17.25,32.5-34.5,1.25-2.25,3-2.25,4-.25,1,2.25,1.25,8.75-2,15.5-6.75,13.75-22.25,27-36,26.25-13.5-.75-20.25-8.25-20.25-20-8,10-19.25,19.25-31,19.25-23.25,0-27.75-31.75-7.25-61.75,19.75-29,39.75-40.25,52.25-40.25,10.25,0,15.25,7.75,15,17,13.5-25.75,32.5-59.75,41.5-72.5,2.5-3.5,4.75-3.25,6,0,3.5,8.25,2.75,19-7.75,37.75-12,21.5-36,62.75-48.5,89.25C914.5,369.15,914.25,379.4,922.75,378.9Zm-43.5-45.5c-13.5,21.5-16.25,43.25-6.5,43.5,10,.25,23.5-14.5,35.25-37.25,14.5-27.75,18.25-43.5,11-43.75C911.25,295.65,893,311.4,879.25,333.4Z"/></g></g></svg>