<?xml version="1.0" encoding="utf-8"?>
<!-- Generator: Adobe Illustrator 25.4.1, SVG Export Plug-In . SVG Version: 6.00 Build 0)  -->
<svg version="1.1" id="レイヤー_1" xmlns="http://www.w3.org/2000/svg" xmlns:xlink="http://www.w3.org/1999/xlink" x="0px"
	 y="0px" viewBox="0 0 387.4 157.7" style="enable-background:new 0 0 387.4 157.7;" xml:space="preserve">
<style type="text/css">
	.st0{fill:#C5DFEC;stroke:#303451;stroke-width:3;stroke-linecap:round;}
</style>
<polygon class="st0" points="385.9,154.2 385.9,3.2 378.2,3.2 378.2,94.8 339.5,3.2 333,3.2 333,137 340.8,139.1 340.8,30.3 
	378.9,151.5 "/>
<polyline class="st0" points="233.3,106 269.4,106 269.5,124.9 218,121.5 254.4,18.3 220.4,18.2 220.4,3.2 269.4,3.2 233.2,106.2 
	"/>
<polyline class="st0" points="203.2,2.8 203.6,71.9 203.6,74.5 203.6,77.2 203.5,79.7 203.3,82.2 203.1,84.5 202.9,86.7 202.6,88.9 
	202.2,90.9 201.8,92.8 201.3,94.6 200.7,96.3 200,97.9 199.3,99.2 198.5,100.5 197.6,101.7 196.7,102.8 195.7,103.9 194.6,104.8 
	193.4,105.6 192.2,106.3 190.8,106.8 189.4,107.2 188,107.5 186.4,107.6 185.2,107.5 184,107.3 182.8,106.9 181.7,106.4 
	180.6,105.8 179.6,105 178.5,104.1 177.5,103.1 176.6,101.9 175.7,100.5 174.8,99 174,97.4 173.3,96 172.8,94.6 172.3,93.1 
	171.9,91.6 171.5,89.9 171.2,88.1 171,86.1 170.8,83.9 170.6,81.6 170.6,78.9 170.5,76 170.5,71.2 170.9,2.8 162.3,2.8 162.4,76.6 
	162.6,84.3 163.3,91.3 164.4,97.5 165.9,103 167.6,107.8 169.7,112 172.1,115.4 174.6,118.2 177.4,120.3 180.2,121.9 183.2,122.8 
	186.2,123.1 190.2,122.7 194,121.5 197.3,119.6 200.3,117 203,113.8 205.3,109.8 207.2,105.3 208.8,100.3 210,94.7 210.9,88.5 
	211.4,81.9 211.7,75 211.8,2.8 203.6,2.8 "/>
<polygon class="st0" points="116.7,2.8 108.6,2.8 108.7,126.2 116.8,125 116.7,62.6 145.9,122.4 157.2,121.8 126.2,59 151.1,2.8 
	140.8,2.8 116.8,57 "/>
<path class="st0" d="M301.2,2.4h-5.8L270.9,125l8.4,1.1l7.2-39.5h24.3l7.7,46.8l8.4,2L301.2,2.4z M289.6,71.2l8.6-42.8l9.1,42.8
	H289.6z"/>
<path class="st0" d="M76.7,1.8l-5.9,0.1L46.3,140l8.4-2.5L62,86.3h24.2l7.6,42.3l8.4-1.4L76.7,1.8z M65.1,71l8.5-43.2L82.8,71H65.1z
	"/>
<path class="st0" d="M46.3,139.9l-0.9-4.5l-0.8-6.3l-0.8-6l-0.7-5.2l-0.6-4.2l-0.6-3.4l-0.6-2.8l-0.5-2.2l-0.5-1.7l-0.5-1.8
	l-0.6-1.8l-0.6-2l-1.1-3.7l-1-3.5l-1-3.3l-1-3.2l-1-3l-1-2.9l-1-2.7l-1-2.6l-1.1-2.4l-1.1-2.2L27,66.3l-1.3-1.9l1.4-1.3l1.4-1.6
	l1.2-1.8l1.1-2l1-2.2l0.9-2.4l0.7-2.5l0.6-2.7l0.5-2.9l0.3-3.1l0.2-3.2l0.1-3.4l-0.2-5l-0.5-4.6l-0.7-4.3l-1-3.9L31.4,14l-1.5-3.1
	l-1.8-2.7l-2-2.2l-2.2-1.8l-2.4-1.3L18.8,2L16,1.6L1.5,1.5l0.1,154.1l8.5-3.2V68.9h3.5l1.1,0.1l1,0.3l1,0.5l1.1,0.9l1.1,1.2l1.2,1.7
	l1.2,2.2l1.3,2.8L24,82l1.5,4.2l1.7,4.9l1.8,5.8l7.5,46L46.3,139.9 M9.8,53.4L9.7,16.1l5.3,0.1l1.9,0.2l1.7,0.4l1.5,0.7l1.4,1
	l1.2,1.2l1,1.5l0.8,1.7l0.7,1.9l0.5,2.1l0.4,2.3l0.2,2.5l0.1,2.7v2.5l-0.1,2.4L26,41.5l-0.4,2.2L25,45.8l-0.8,1.9l-1,1.7L22,50.8
	L20.7,52l-1.6,0.8l-1.8,0.5l-2.1,0.1L9.8,53.4z"/>
</svg>
