<svg xmlns="http://www.w3.org/2000/svg" viewBox="0 0 274.93 132.73"><defs><style>.cls-1{stroke:#000;stroke-miterlimit:10;stroke-width:4px;}</style></defs><g id="レイヤー_2" data-name="レイヤー 2"><g id="コンテ"><path class="cls-1" d="M64.64,18H23.89a129.41,129.41,0,0,0-16.27.87V8.34a121.86,121.86,0,0,0,16,.86H108a126.83,126.83,0,0,0,16-.86V18.85A129.71,129.71,0,0,0,108,18H74.57V59h28.66a94.21,94.21,0,0,0,14.83-.86V68.53a95.27,95.27,0,0,0-14.83-.87H74.57v47.52H112.3a109.2,109.2,0,0,0,16.71-1V125a108.63,108.63,0,0,0-16.56-1H18.7A113.08,113.08,0,0,0,2,125v-10.8a97.65,97.65,0,0,0,16.56,1h7.2V65.07a107.1,107.1,0,0,0-1-16.56H36.56a104.65,104.65,0,0,0-1,16.56v50.11H64.64Z"/><path class="cls-1" d="M183.86,85.52a75.58,75.58,0,0,1-8.78,22.75c-5,8.35-9.94,13.68-19.73,21.17-1.44-2.59-3.46-4.61-7.2-7.35,9.5-6.33,14-10.51,18.43-17.28a61.83,61.83,0,0,0,8.35-19.29H160.39a123.65,123.65,0,0,0-13.39.72V76.59a81.64,81.64,0,0,0,13.53.72h16a194.34,194.34,0,0,0,1.73-21h-13.4a71.78,71.78,0,0,0-12.38.72V47.65a71.73,71.73,0,0,0,12.38.72h13.83c.14-5.48.14-8.64.14-13v-7.2h-16a133.77,133.77,0,0,0-13.68.72V19.28a129.21,129.21,0,0,0,13.68.72h16V15.82A98.14,98.14,0,0,0,178,2h10.22c-.57,3.31-.72,6.91-.72,14.26V20h12.38a94.2,94.2,0,0,0,13.54-.72v9.65a133,133,0,0,0-13.54-.72H187.46v7.63c0,4.32,0,7.2-.14,12.53h10.36a74.54,74.54,0,0,0,12.68-.72V57a71.66,71.66,0,0,0-12.53-.72H187c-.58,9.36-1,14.54-1.73,21h14.4c6.63,0,10.08-.14,13.54-.72v9.65a96.68,96.68,0,0,0-13.54-.72Zm88.7-74.3a32.48,32.48,0,0,0-2.3,4.89c-7.06,16.42-10.94,24.34-18.86,37.58,9.93,9.94,13.82,15.12,17.28,23.48a42.78,42.78,0,0,1,3.16,15.4c0,5.48-1.58,11.24-3.88,13.83-3.17,3.31-8.21,4.89-16.13,4.89-4.9,0-9.51-.28-14-.72a27.29,27.29,0,0,0-2.16-9.79,85.1,85.1,0,0,0,14.83,1.44c9.07,0,11.81-2.45,11.81-10.37,0-5.61-1.58-11.23-4.61-17.13-3.74-7.35-7.49-11.81-16.85-20.16C250.39,39.15,255.14,29.5,260.61,14H229.08V114.46a95.18,95.18,0,0,0,1,16.27H219a114.82,114.82,0,0,0,.86-16.27V18.27a129.67,129.67,0,0,0-.58-13c3.32.29,6.63.43,11.81.43h25.63A69.65,69.65,0,0,0,268,5.17Z"/></g></g></svg>