<svg xmlns="http://www.w3.org/2000/svg" viewBox="0 0 1376.93 400.63"><g id="レイヤー_2" data-name="レイヤー 2"><g id="トップページ"><path d="M9.14,297.5a84.64,84.64,0,0,1,19.38-1.88c18.12,0,35.62,5,48.75,15.63,24.37,20,65.62,51.25,101.87,51.25,13.75,0,26.25-3.12,33.13-10,9.37-9.38,6.25-20.62-.63-26.25-45-35-131.87-68.75-131.87-132.5,0-85,97.5-159.37,153.75-183.13C254.14,1.88,267.27,0,281.64,0c15,0,27.5,4.38,38.13,13.12,17.5,16.26,28.75,36.88,33.12,53.76,6.25,25.62-9.37,50.62-18.75,64.37-15,20-33.12,52.5-41.87,67.5-5.63,10-12.5,15-24.38,2.5-8.75-8.75-15-19.37-15-33.75,0-13.75,8.13-37.5,28.75-65,15.63-23.12,32.5-50.62,23.75-56.88-23.12-16.87-160,75-163.12,146.88-1.88,41.25,83.75,76.88,108.12,94.38,11.88,8.74,18.75,20,18.75,31.87,0,14.37-8.12,30.63-24.37,50-16.25,18.75-46.88,31.87-84.38,31.87-45.62,0-106.25-25.62-155.62-82.5C-4,307.5.39,300.62,9.14,297.5Z"/><path d="M327.45,293.44a34.76,34.76,0,0,1-.75,6.75c10.75-10.5,24.75-20,32.75-20s13.25,9,13.25,19.5c11.25-10,24.5-18.5,32.5-18.25,7.25.25,11.25,7,11.25,15.25,0,8.5-5.25,20-15.5,35.75-7,10.75-13.5,21.75-13.5,30.5,0,5.75,2.5,9.75,6.5,9.75,7.75,0,20-17.5,29.25-32.75,2.25-3.75,4.75-4,7-1.75,2.75,2.75,3,12.25,0,18-7,14.5-24.75,27-40.25,27-17,0-26.25-9.25-26.25-22.75a40.55,40.55,0,0,1,3.75-16.25c4-8.5,12.25-22,18-31,5.5-8.25,11.5-15.75,9.5-15.75s-7.25,2.5-22,17.25c-19.5,19.5-31.5,43.25-42,66.5-2.5,4.75-6,5.5-10,1.5-3.75-3.75-5.5-7.25-5.5-13.75,0-4.25,2-12.25,4.5-18.5,3.5-9,11.75-22.5,18.5-33,6.75-11.25,13.75-20.75,11.5-20.75-2,0-11.75,5.5-26.75,22-14,15-25.5,37.75-35.25,60.75-1.75,4-4.5,5.5-8.75,1.75a17.08,17.08,0,0,1-6-13.25c0-3.5.75-7.75,2.75-13.5,5.25-15,23.25-49.75,38.5-73,3.25-4.75,7-4.5,9.5,0A23.76,23.76,0,0,1,327.45,293.44Z"/><path d="M488.2,279.44c9,0,14.5,4.5,16.75,11l4.75-7.75c3-5,7.25-5.25,10.25-1.75,4.25,5,6.5,16,0,29-6.5,13.75-27.5,41-27.5,57.75,0,3.75,1,6,3.5,6,9,0,21.5-17,29.75-33.25,2.75-5,5-5.25,7.5,0,1,2.25,2.5,9-1,16.25-6.5,13.75-22.5,27-37.75,27-12.5,0-19.75-6.5-21.75-15.75-7.25,7-18.5,14.75-28.5,14.75-14.75,0-22.75-10.75-22.75-25.5,0-10.75,4.5-24.75,13.5-37.25C455,291.19,475.45,279.44,488.2,279.44Zm-8.75,56c9.75-17,14.25-29.25,14.25-35.75,0-3-.5-4.75-3-4.75-5,0-22.25,15.75-35,36.25-7.5,11.75-11.75,25-11.75,33,0,4.5,1,7.5,3.5,7.5C455.7,371.69,467.2,356.44,479.45,335.44Z"/><path d="M609,255.69c-7.75,29.75-35,59.25-57,74-5,12.75-8.25,24-8.25,32.75,0,6,1.5,10.25,4.75,10.25,11.5,0,26-16.75,35.5-34.75,3.25-6.25,8.75-6.25,10.5.25,1,3.75.75,9.5-2.5,16.25-3.75,7.5-22.25,28-43.25,28-15.25,0-24.75-8.75-24.75-26a59.87,59.87,0,0,1,1.75-14.25c9.75-41.5,38-87.75,62.5-113.5,4.75-4.75,9.25-6.25,14-1.75a24.39,24.39,0,0,1,8.25,18.25A33.22,33.22,0,0,1,609,255.69Zm-28.5,19.75c-6.5,11-17.5,29.75-19.25,34a157.05,157.05,0,0,0,25-31.75c8.5-14.25,11.75-25.25,10.25-26.25C595.45,250.94,589,260.69,580.45,275.44Z"/><path d="M666.45,255.69c-7.75,29.75-35,59.25-57,74-5,12.75-8.25,24-8.25,32.75,0,6,1.5,10.25,4.75,10.25,11.5,0,26-16.75,35.5-34.75,3.25-6.25,8.75-6.25,10.5.25,1,3.75.75,9.5-2.5,16.25-3.75,7.5-22.25,28-43.25,28-15.25,0-24.75-8.75-24.75-26a59.87,59.87,0,0,1,1.75-14.25c9.75-41.5,38-87.75,62.5-113.5,4.75-4.75,9.25-6.25,14-1.75A24.39,24.39,0,0,1,668,245.19,33.22,33.22,0,0,1,666.45,255.69ZM638,275.44c-6.5,11-17.5,29.75-19.25,34a157.05,157.05,0,0,0,25-31.75c8.5-14.25,11.75-25.25,10.25-26.25C653,250.94,646.45,260.69,638,275.44Z"/><path d="M690.94,352.94c7.25-21.25,32.5-68.75,54.5-104a19.23,19.23,0,0,1-9.5-12.75c-.75-3.25.75-4.75,5.5-4.75,14.5,0,25.25-1.5,37.25-3.5,8.75-1.5,17-2.5,23-2.5,12,0,19,5,22.5,13.5,1.25,2.75,0,5.5-5.25,5.5-12.75-.25-25,2.5-49,6.75-8.25,13.75-18,31-29.75,52.5,4.75-.75,8.25-1,12-1.25,14.25-1,21,4.25,23.25,12.25,1,3.5.5,5.75-5,6.25-11.5,1-29.25,3.25-43,6.75-9.25,18-16.5,33.5-25.25,52.25-1.5,3.25-5,4-8.5,1.75s-5.75-7.5-5.75-13.5C687.94,364.44,688.94,359.19,690.94,352.94Z"/><path d="M952.44,357.44c-6.75,15.25-25.25,26.25-39.75,26.25-16,0-24.75-11.25-24.75-26,0-12.75,13-35.75,27.25-53a54.9,54.9,0,0,1-19.75,4.75c-6.75,10.5-16.5,18-29.75,19.5-5.75,24-29.25,53.5-49.5,53.5-8.25,0-17.25-3.25-24.25-12.5a37.34,37.34,0,0,1-6.75-21.75c0-11,4-23.5,10.25-35,9.5-17.25,26-31.25,41.5-32.5,8.75-.5,13.25,2,18.75,9.25,1.25,1.5,2.5,2.5,4,4,5,5.25,8,11.75,8,25,4.5-1.75,8.75-5.5,13-12.25-4.5-2.5-6.25-6-6.25-10.5,0-13.25,16.75-31.5,25-31.75,5.5,0,7.5,3.5,7.5,8.75,0,5.5-2,13.5-4.75,21,6.75-1.75,14-5.75,21.5-10.75,4.25-3,7.5-3.75,11-.25,4.25,4.75,7,10.5,7,17a15.15,15.15,0,0,1-4.25,10c-10.5,12.25-22.5,29-27,42a35.59,35.59,0,0,0-2,11.25c0,6.25,2,10.25,5.75,10.25,8.75,0,23-15.5,30.5-32.5,2.25-5,5.75-5.5,8.5-.5,1.25,2.25,1.5,4,1.5,7.25A22,22,0,0,1,952.44,357.44ZM809.19,369.69c6,0,18-10.25,27.25-26a73.35,73.35,0,0,0,8-19,30.69,30.69,0,0,1-14.75-19.5,99.56,99.56,0,0,0-14.5,19c-6.25,11.75-10.5,26-10.5,35C804.69,365.44,806.19,369.69,809.19,369.69Zm43-68.25c0-3.75-2-5.25-3.75-5.25-1.5,0-3.75,2-3.75,6,0,4.5,1.25,11,4,14.25A41.83,41.83,0,0,0,852.19,301.44Z"/><path d="M1006.94,372.69c7.25,0,20.75-15.5,33.75-37.75,4.75-44.5,25.25-55.75,29.75-55.75s6.25,4.25,5.25,10.25c-1.5,9.25-5.75,20.25-21.5,46.75-17,28.25-35,47.5-52.5,47-10-.25-16.25-7.25-18-15.5-7,7.5-17,14.25-27.75,14.25-11.75,0-17-8.5-17-19.5a46.67,46.67,0,0,1,3.25-17.5c6.25-15.5,20-43,34.25-62.75,3-4,7-4.5,9.5-1,2,2.75,5,8.5,5,12.75,0,6-3,13.5-8.75,22.75a284.71,284.71,0,0,0-19.75,36.75,40.3,40.3,0,0,0-3,13.75c0,3,.25,4.75,2.25,4.75,6.5,0,14.75-13.25,25.5-31,11.25-18.5,16.25-28.25,21-36.75,4.5-8.5,9-16.25,13.5-22,3.25-4.25,6.75-4.5,9.5-1.75,6.75,7.25,6.75,17.25.75,29.5-4,8.25-14.75,23.25-23.75,42.5-3,6-4.5,11.25-4.5,14.75S1004.69,372.69,1006.94,372.69Z"/><path d="M1138.69,382.44c-13,.75-21-5.5-23-15.5-7.75,8.25-17.75,15-28.5,15-14.5,0-22.5-10.5-22.5-25.75,0-10.75,4-23.75,13-36.75,20-28.75,40.25-40,53.5-40,8.5,0,13.75,4.25,16,10.5,2-3.25,3.75-5.75,4.75-7.25,3.25-4,6.75-5.25,10-1.75,2.75,3,4.5,7.5,4.5,13a35.81,35.81,0,0,1-3.75,15.5c-3,6.75-7,12.75-10.75,19.75-4.5,8-9.5,16-12.25,22.75-2,5.5-3.75,10.75-3.75,14.25,0,4,1.25,6.25,3.75,6,14.5-1.5,34.75-30,46.25-65.25-5.5-2.75-7.5-6.75-7.5-11.75,0-12.75,15.5-31,23.5-31.5,5.25-.25,7.75,3.25,7.75,8.75,0,5.75-1.75,13-4.25,21.25a71.6,71.6,0,0,0,22.25-10.5c4.75-3.25,7.25-4,10.75-.25s7.25,10.25,7.25,16.75c0,3-1.25,6.5-3.75,10-11,12.5-23.5,29.75-27.5,42a35.92,35.92,0,0,0-1.75,11c0,6.25,2,10.25,5.75,10.5,8.75.75,22.75-15.75,30.75-34,1.75-4,6-3.75,8,1.25,1.5,3,2.25,9.75-.75,16.75-6.75,15.5-24.75,26.5-39.5,26-16-.5-24.75-11.5-24.75-26a51.68,51.68,0,0,1,2-13.25c3.75-12.5,15-27.75,24.75-39.25a49.85,49.85,0,0,1-18.25,4.5C1188.44,343.69,1165.69,380.44,1138.69,382.44Zm-4-87.75c-6.75,0-23.25,15-36.5,36-7.5,12-11.25,24.25-11.25,32.75,0,4.25.75,7.5,2.75,7.5,8.25,0,20.25-14.5,32.5-36,9.5-16.75,14-29,14-35.5C1136.19,296.19,1135.69,294.69,1134.69,294.69Z"/><path d="M1319.68,352.19c-3,6.5-4.5,12-4.5,16,0,3.75,1,5.5,3.25,5.5,8.75,0,21-16.5,29.5-33,2.5-4.75,5.75-4.5,8,0,1.25,2.25,2.25,9.25-1,16.25-6.75,13.5-22.25,26.5-36.75,26.5-12.25,0-20.5-4.25-22.5-15.25-7.75,8-17.5,14.5-28.5,14.5-14.5,0-22.5-10.75-22.5-25.5,0-10.5,4.5-24.25,13.25-37,19.5-28.25,40.25-40,53.25-40,8.5,0,14,3.5,16,10,12.5-23.5,28.75-51.75,37-63.5,4.5-6.25,8-5.75,10.5.25a25.33,25.33,0,0,1,2.25,9.75c0,6.75-3.25,16.5-9.75,28.25C1352.68,292.44,1331.43,327.44,1319.68,352.19Zm-4.5-56.75c-7-.25-23.5,15-36.75,36-7.5,11.75-11.5,24.25-11.5,32.5,0,4.5,1,7.75,3.75,7.75,8,0,20-14,31.25-35.75C1315.43,310.19,1319.93,295.69,1315.18,295.44Z"/></g></g></svg>