<svg xmlns="http://www.w3.org/2000/svg" viewBox="0 0 1441.46 489.19"><g id="レイヤー_2" data-name="レイヤー 2"><g id="ポジションページ"><path d="M68.54,316.14c25,20,67.5,52.5,108.13,52.5,17.5,0,30.62-4.38,38.75-11.25,10.62-11.88,7.5-25-1.25-32.5C181,296.76,82.29,258,82.29,193.64c0-85.63,96.88-158.75,152.5-182.5,30-12.5,60-17.5,80.63,1.25,15.62,14.37,26.87,35,31.25,52.5,6.25,25-8.75,49.37-18.13,62.5-16.25,21.87-34.37,53.75-43.12,69.37-3.13,5.63-6.88,8.75-13.75,1.88-11.88-11.88-19.38-31.25-6.25-60.63,13.12-30,60-81.87,45-97.5-21.25-21.87-175,73.75-178.13,151.88-1.87,40.62,78.13,73.75,113.13,98.75,23.75,16.87,20.62,45.62-6.88,77.5-37.5,43.12-146.25,55-234.37-51.25-6.88-8.13-4.38-12.5,1.25-14.38C26,296.76,51.67,302.39,68.54,316.14Z"/><path d="M345.61,400.71c-21,0-26.25-15.25-18.75-37,8.25-24.25,30-50.25,26-52.5-3.5-2-30.75,15-45.25,38.75-9,14.75-18.25,32.25-24.25,47.5-1,2.25-2.75,2.75-4.25,1-4-4.5-6.25-11.5-1-26.5,8.75-25,60.75-113,81-138.25,2.25-3,4.75-2.75,6,.25,3.25,7.25,2.5,19.75-7,35.5-6,10-19.25,30.25-30,47,10.25-10,23.25-18.25,30-17.5,8.5,1,16.25,13.5,9.75,26.25-5.5,11-17.5,29.25-23.25,42.25-6.25,14.5-5,26.25,4.25,25.75,10.25-.5,24-18.5,31.75-34.5,1-2.25,3.5-2.25,4.5-.25,1.25,2.75,1.25,8-2.5,15.5C375.61,388.21,360.36,400.71,345.61,400.71Z"/><path d="M543.11,346c-5.25,21.25-20.75,46.5-39,52.5-9,3-21.75,2.5-31.5-10.5-9-12-8.25-28.75-1.5-45.5a35.92,35.92,0,0,1-15.5,3.25c-5.25,21.5-20.75,46.75-39.25,52.75-9,3-21.25,2.5-31.25-10.5-11.25-14.75-7.25-36.75,3.75-56.25,9.75-17,25-31.25,40-32.5,7.5-.75,11.75,1.25,16.75,8.25,5.75,8,13.25,9.5,12,27.5,0,1.25-.25,2.5-.25,3.75,10-1.5,19.5-9.75,27-19,9.25-11.5,20.5-19.75,32-20.5,7.5-.5,11.75,1.5,16.75,8.25,6,8,13.25,9.5,12,27.5a45.26,45.26,0,0,1-.75,5.75,28.71,28.71,0,0,0,4.75-.25c2.25-.5,2.25,1.25,1,2.5C548.61,344.71,546.11,345.71,543.11,346Zm-139.25-4.75c-10.75,18.75-14.5,42-7.5,47.5,6.75,5.25,21.75-3.25,34-25.75,4-7.5,7.25-14.5,9-20.75-8-4.25-16.25-13.75-16.25-24.25C416.36,323.21,409.36,331.71,403.86,341.21Zm31.5-22.75c-1,7,1,13.5,6,17.25a55.42,55.42,0,0,0,1.5-18.25C441.86,309.46,436.36,311,435.36,318.46Zm87,21.25c-5.75-4-11.75-12.75-11.75-21.75-6.75,5.25-13.75,13.75-19.25,23.25-10.75,18.75-13.75,42-7.5,47.5,6.5,5.75,21.75-3.25,34-25.75a116.78,116.78,0,0,0,9-20.5A10.46,10.46,0,0,1,522.36,339.71Zm8-22.25c-1-8-6-6.5-7.25.75A20.67,20.67,0,0,0,528.86,336,57.27,57.27,0,0,0,530.36,317.46Z"/><path d="M564.85,293c-2.5-3.5-1-5.25,2.75-5a142.49,142.49,0,0,0,20.75-1c7.75-13.75,14.75-25.5,19-31,2.25-3.25,4.75-3,6,0,2.75,7,2.75,15.25-3.25,28.25,9.75-.25,13.5,4.25,15.5,7.5,1.75,3,.75,4.75-3,4.75-5.5-.75-13.25,0-19.5,1-9.75,16.75-24,41-33.5,62-8.25,18.25-5.5,33.75,5,34.25,11.25.5,25.5-17.25,34.75-36,1.5-3,4.25-3.5,5.25,0,1.25,4,0,8.5-2.5,14.25-3.25,7.25-19.75,29.25-39.75,28.5-16.5-.5-29.75-19-17.75-47.75,5.25-12.5,15.75-33.5,26.5-53.25C572.6,299.46,566.85,295.71,564.85,293Z"/><path d="M603.85,364c6.25-18.25,22.75-47.75,32-60.75,2.25-3,4-3.75,6-1.5,3.75,4,5.75,14.75-.25,27.25-5.25,11-15.75,28-21,40.5-6,14.5-5.5,24.25,2.5,23.75,11.25-.5,25-17,32.5-34.25,1.25-2.25,3-2,4,0,2,4,1.25,9.25-1.75,15.5-7.5,15.5-23.25,26-37.25,26C601.6,400.46,596.85,384.46,603.85,364Zm55.75-65.25c-3.25,3.5-10.25,2.75-14-3.75-4-6.75-2.75-14.25,1.25-18.5s11.25-1.25,14.5,5.5C664.6,288.46,662.85,295.21,659.6,298.71Z"/><path d="M730.1,298.71c8.25,1.25,16,13.5,9.75,26.5-5.25,11-17.5,29.5-23.25,42.5-6.5,14.5-5,26.25,4,25.75,10.25-.5,22.5-17,32-34.5,1.25-2.25,3-2.25,4.25-.25,1.75,2.75,1.25,8.5-2.25,15.75-6.75,14-22.5,26.75-37,26.75-21.25,0-26.25-15.5-19-37.25,8.25-24.5,30.25-51,25.75-53-2.5-1-17,6-33,23.5-14.75,16-25.75,40-36.5,63.5-1,2.25-2.5,3.25-4.75,1-5-5-6.5-13.25-2.5-25.75,5-15.75,24.25-50.5,40-73.75,1.75-2.75,3.75-2.5,5.25,0,3.75,6.25,3.5,14.75.75,23.75C704.85,311.21,721.85,297.46,730.1,298.71Z"/><path d="M804.85,407c-13.75,33.5-31.5,73.25-51.75,81.25-5,2-10,1.25-14.5-5.25-5.25-7.5-9.75-16.25-5-31,7.25-22.5,28.75-37.75,53.5-47.25,2.5-5.5,4.75-11.5,7.25-17.25-7.25,7.25-16,12.5-25.25,12.5-23,0-27.5-31.25-7.25-61.25,19.5-29,39.75-40.25,52.5-40.25,10,0,15,7.75,14.75,16.5,3-5,5.75-9.5,8.25-13.75,2-3.5,4.5-3.75,6.25-1.5,3.75,4.5,5.75,15.25-.5,27.5-7.5,15-23.25,45.25-33.75,69.5a124.71,124.71,0,0,0,44.75-37.5c1.5-2,3.75-2,4.25.5.5,2.25-.75,7.75-5,14.5C843.6,389.46,825.6,399.46,804.85,407ZM743.6,474.21c3.25,4.75,23-21.25,39.25-59.25C750.35,434,739.35,468.21,743.6,474.21Zm74.5-163c-7.75-.5-26,15.5-39.75,37.25-13.5,21.5-16.25,43.5-6.25,43.75,9.75.25,22.5-15.5,35.25-37.5C823.1,327.21,825.35,311.71,818.1,311.21Z"/><path d="M971.34,398.21c-12.25,3.5-28,5.5-41.75-5-9-6.75-16.5-18-16.75-38.5-.5-53.75,50-101.25,78.25-110.5,14-4.5,25.25-4.75,33.75,1.5a33.61,33.61,0,0,1,13,17.75c2.25,7,1.75,13.75-1.75,21.75-3,6.75-7,16.75-9.75,24-.75,2-2.5,3.75-5.25,1.25-5.75-4-9.75-11.25-6.5-23.75s12.5-26.5,7-32c-8-8.25-48.75,13.25-72.5,49.5-23.25,35.5-22.5,73.5-12.5,82.75,13.75,12.75,43-6,58.25-36.25-8,1.5-16,3-22,3.5-12.5,1.25-20.25-4-24-12-1.25-2.5-.5-4,2.5-4,19.5-.25,38.5-6.5,53.75-6.75,12.5-.25,19.5,5.25,22.75,12.75,1.25,2.75.75,4.5-2.5,4a84.9,84.9,0,0,0-17.5.5C1014.34,372.21,983.84,394.71,971.34,398.21Z"/><path d="M1042.84,400c-17.75-1.25-18.25-19.75-12.75-36.25s18.25-41,34.5-63.75c2-2.75,4.5-2.5,6.5-.25,5.5,8.25,4.25,19.5-4.75,33.75a255.93,255.93,0,0,0-19.5,36.75c-5.25,12.25-4.5,21.25,1.25,21.75,9.75.75,23.5-16.75,37-38.5,15.75-25.5,23-42.75,31-53.5,2.5-3.5,4.25-4,6.25-1.5,3.75,4.5,5.75,15.5-.25,28-5.5,11.25-18,30-23.75,42.75-6.5,14.25-5.5,24.75,3.5,24.25,10.5-.5,23.25-17,33-34.5,1.25-2.25,3.5-2.5,4.5-.25,1,2,1.25,8.75-2.25,15.75-7.25,14-22.75,26.75-37.5,26.75-16.25,0-22.75-10.25-20.75-24.75C1070.09,388.21,1056.84,401,1042.84,400Z"/><path d="M1151.59,399.46c-23,0-28-31.75-7.25-61.75,20-28.75,39.75-40.25,52.5-40.25,9.75,0,14.75,7.75,14.75,16.5,3.75-6.25,7-11.25,8.75-13.75,2-3,4-3.75,6-1.5,4,4.5,5.75,15,.25,27.5-5,11.25-18.25,30.75-23.75,43.5-6,14.25-5,23.5,2.75,22.75,16-1.5,38.5-32.25,50.25-69-20.25-7.25,3.5-41.25,13.5-42,7.75-.5,5.25,14.25,0,31.5,9-1,18.25-5.25,27.75-11.75,3.5-2.5,5.25-3,7.5-.5,4.75,5.25,10.75,16.75,3.5,25.25-11.75,13.5-24.5,31-28.5,43.5-4.25,13.75-1.5,23.5,6.25,24,10.5.75,23-15.75,31-34.5,1-2,2.75-2.5,3.75,0,1.25,3,2,9.25-1,16.25-6.5,15-21.25,26-35,25.5-19-.75-26.5-18-20.5-38,5-16.5,20.25-35,31-47-11,6.5-21.75,9.25-29.5,9.25-12.25,35.25-34.75,73-61.5,75-13.75,1-21.25-7.75-21-20.5C1175.09,389.71,1163.84,399.46,1151.59,399.46Zm9.25-51.75c-13.5,21.5-16.25,43.25-6.5,43.5,10,.25,23-15,35.75-37.5,15.5-27.25,17.75-43,10.5-43.5C1192.84,309.71,1174.59,325.71,1160.84,347.71Z"/><path d="M1384.83,394c10.25-.5,23.75-17.25,32.5-34.5,1.25-2.25,3-2.25,4-.25,1,2.25,1.25,8.75-2,15.5-6.75,13.75-22.25,27-36,26.25-13.5-.75-20.25-8.25-20.25-20-8,10-19.25,19.25-31,19.25-23.25,0-27.75-31.75-7.25-61.75,19.75-29,39.75-40.25,52.25-40.25,10.25,0,15.25,7.75,15,17,13.5-25.75,32.5-59.75,41.5-72.5,2.5-3.5,4.75-3.25,6,0,3.5,8.25,2.75,19-7.75,37.75-12,21.5-36,62.75-48.5,89.25C1376.58,384.21,1376.33,394.46,1384.83,394Zm-43.5-45.5c-13.5,21.5-16.25,43.25-6.5,43.5,10,.25,23.5-14.5,35.25-37.25,14.5-27.75,18.25-43.5,11-43.75C1373.33,310.71,1355.08,326.46,1341.33,348.46Z"/></g></g></svg>