<?xml version="1.0" encoding="utf-8"?>
<!-- Generator: Adobe Illustrator 25.4.1, SVG Export Plug-In . SVG Version: 6.00 Build 0)  -->
<svg version="1.1" id="レイヤー_1" xmlns="http://www.w3.org/2000/svg" xmlns:xlink="http://www.w3.org/1999/xlink" x="0px"
	 y="0px" viewBox="0 0 417.5 193.2" style="enable-background:new 0 0 417.5 193.2;" xml:space="preserve">
<style type="text/css">
	.st0{stroke:#EA884B;stroke-width:4;stroke-linecap:round;}
</style>
<path class="st0" d="M415.5,2.2L69.4,28c-1.3,0.1-2.6,0.3-3.9,0.7L35.2,38c-2.9,0.9-5.5,2.4-7.6,4.6l-6.4,6.5
	c-1.8,1.8-3.2,4-4.1,6.5l-3.3,9c-0.9,2.4-1.2,4.9-1.1,7.4l0.4,7.3c0.1,2.3,0.7,4.5,1.7,6.6l2.9,6.2c0.9,1.9,2,3.5,3.5,5l5.1,5.2
	c3.1,3.1,4.9,7.2,5.2,11.5l0,0c0.2,3.3-0.4,6.5-1.9,9.4l-0.3,0.7c-0.8,1.6-1.8,3-3,4.3l-4.8,5c-0.4,0.4-0.8,0.8-1.2,1.2l-6,5.2
	c-1.3,1.1-2.8,2.1-4.4,2.8L2,145.7l-0.2,45.9l0,0L19.6,178c0.6-0.5,1.3-1,1.8-1.6l13.8-13.8c0.8-0.9,1.6-1.8,2.3-2.8l11.7-17.6
	c1.4-2.1,2.4-4.5,2.8-7l2.3-14c0.4-2.5,0.3-5.1-0.4-7.6l-2-7.6c-0.8-2.9-2.2-5.5-4.3-7.7L39.8,90c-0.4-0.5-0.9-1-1.2-1.5l-3.3-4.4
	c-1.8-2.4-3-5.3-3.4-8.3l-0.5-3.3c-0.4-3-0.1-6.1,1-8.9l0.5-1.5c1-2.6,2.5-4.9,4.5-6.7l2.3-2.2c1.9-1.8,4.3-3.2,6.8-4.1l21.4-7.1
	c1.3-0.4,2.6-0.7,3.9-0.8L415.5,7.8L415.5,2.2z"/>
<polygon class="st0" points="115.9,163.3 104.7,163.4 105.1,110.2 104.9,110 79.6,111.6 79.5,111.7 79.1,169.9 70.8,170.8 
	70.6,170.6 71.5,55.6 79.9,54.8 79.7,98.9 79.7,99 105,97.4 105.1,97.4 105.3,49 105.5,49 116.7,48.9 116.7,49 116.3,163.3 "/>
<path class="st0" d="M132.1,42.8l11.1-0.5l-0.7,93.2c0,1.3,0.3,2.6,0.8,3.8l0.3,0.7c1.3,2.9,3.9,5,7.1,5.6l0,0
	c1.4,0.2,2.8,0.2,4.1-0.2l2.6-0.7c2.1-0.6,4-1.9,5.3-3.8l0.9-1.4c1.1-1.5,1.6-3.4,1.6-5.2l0.5-90.5l11.1-0.5l-0.3,90.8
	c0,1.7-0.5,3.3-1.3,4.8l-4.9,8.2c-0.9,1.6-2.3,2.9-4,3.7l-9.6,4.7c-2.2,1.1-4.8,1.3-7.1,0.4l-6.8-2.3c-2.2-0.8-4.1-2.3-5.2-4.4
	l-4.9-8.8c-0.8-1.4-1.2-3-1.2-4.6L132.1,42.8z"/>
<polygon class="st0" points="234.5,34.3 218,36.7 207.6,38.1 199.1,39.3 190.7,38.9 190.7,56.3 199.1,50.8 207.6,50.1 207.8,50.1 
	207.8,145.5 218.1,146 218.3,145.8 218.1,50.5 234.5,51.3 234.6,51.3 "/>
<path class="st0" d="M295,45l-2.1-4.4c-1.9-3.9-5.1-7-9-8.9l-0.8-0.4c-5.1-2.4-11-2.4-16.1,0.1l-1.6,0.8c-3.7,1.8-6.7,4.7-8.5,8.2
	l-3.5,6.7c-0.7,1.3-1,2.8-1,4.2l0,60.6c0,3.3,0.8,6.5,2.5,9.3l2.1,3.8c2.3,3.9,5.8,6.9,10.1,8.4c4.7,1.7,9.9,1.4,14.4-0.8l3-1.4
	c3.4-1.6,6.3-4.3,8.2-7.6l1.9-3.3c1.7-2.9,2.5-6.1,2.5-9.4V53.1C297,50.3,296.3,47.5,295,45z M286.1,113.5c0,1.9-0.6,3.8-1.6,5.3
	l-0.7,1c-1.3,2-3.3,3.4-5.6,4l-2.2,0.6c-1.4,0.4-2.9,0.4-4.3,0.2c-3.1-0.6-5.7-2.7-7-5.6c-0.5-0.8-0.9-1.7-1.2-2.7
	c0-0.8,0-65.4,0-65.4c0-1.6,0.4-3.2,1.2-4.6l1.2-2.2c1.3-2.3,3.4-4,6-4.7l0.6-0.2c2.1-0.6,4.3-0.4,6.3,0.4l0.8,0.3
	c2.7,1.1,4.7,3.5,5.5,6.3l0.5,1.6c0.2,0.8,0.4,1.7,0.4,2.6V113.5z"/>
<path class="st0" d="M321.4,64.4L321.4,64.4c4.3,0,8.2-2.4,10-6.3l17.9-38.3l6.7,3l-20.9,44.7l21.6,48.4l-0.1,0.2L348,116
	l-16.8-38.1c-1.7-3.9-9.8-6.5-9.8-6.5l0.3,53.1l-8.2-0.4l-0.7-100.4v-0.1l8.1,0.1h0.2L321.4,64.4"/>
<path class="st0" d="M400.1,12.9l0.6,78c0,1.9-0.5,3.7-1.6,5.3l-0.8,1.2c-1.3,2-3.2,3.4-5.5,4l-2.2,0.6c-1.4,0.4-2.9,0.4-4.3,0.2
	l0,0c-3.1-0.6-5.7-2.6-7-5.5l-0.4-0.8c-0.5-1.2-0.8-2.5-0.8-3.8l-0.1-73.4l-11,0.4l-0.1,0.1l0.3,72.4c0,1.6,0.4,3.2,1.2,4.6l5,8.9
	c1.1,2,2.9,3.5,5.1,4.3l6.6,2.4c2.4,0.9,5.1,0.7,7.4-0.4l8.9-4.3c1.7-0.8,3.2-2.2,4.1-3.8l4.6-8c0.8-1.5,1.3-3.1,1.3-4.8l-0.7-77.9
	L400.1,12.9z"/>
</svg>
