<svg xmlns="http://www.w3.org/2000/svg" viewBox="0 0 250.63 133.4"><defs><style>.cls-1{fill:#873245;stroke:#000;stroke-miterlimit:10;stroke-width:3px;}</style></defs><g id="レイヤー_2" data-name="レイヤー 2"><g id="コンテ"><path class="cls-1" d="M49.39,50.73c1.39-1.59.69-10.33-.7-10.72s-13.9,0-13.9,0,2.09-18.67,1.39-21-9.73-4.76-9.73-4.76V40S11.16,38,9.08,40s.69,8.34,2.08,9.13,12.51,1.59,12.51,1.59C20.2,84.88,3.52,107.91,2.13,111.09c0,0,4.17.79,5.56,0S20.2,98.38,26.45,81.7c0,0-.69,45.27,0,46.86s7,4,9,3.18,0-58.77,0-58.77c3.47-.8,4.17,9.53,4.86,10.32s9.73,4.77,9-4,0-16.68-12.51-24.62v-4S48,52.32,49.39,50.73Z"/><path class="cls-1" d="M110.55,23.73c-5.56-1.59-49.35,0-49.35,0-1.27-9.8-11.12-11.12-12.51-9.53S47.3,29.29,50.78,38.82c0,10.32.69,49.39.69,90.54H61.9c0-55.86-1.3-95.28-1.39-96.1l39.62.79s1.39,80.22-.7,82.6-13.2.79-13.2.79,7,10.33,13.2,11.92,11.82,1.58,13.9-4.77.7-80.21.7-87.36S116.11,25.31,110.55,23.73Z"/><path class="cls-1" d="M96.65,48.35c1.39-.8,0-5.56-2.08-7.15S66.07,38.82,64,40.4s2.09,8,3.48,8.74S95.26,49.14,96.65,48.35Z"/><path class="cls-1" d="M86.63,94.41c1.68,4,7.94,2.38,7.94,0,.69-3.18,2.78-33.36,0-36.53s-20.85,0-22.59,0c-4.52-4.77-5.91-2.39-4.52,2.78V94.41ZM75.11,65.82s9-2.38,11.12,0,0,21.44,0,21.44H75.11Z"/><path class="cls-1" d="M237.74,117.44c-9,1.59-33.71,2.39-33.71,2.39V109.5s21.89-1.59,32.32.79.7-11.11-6.26-10.32-26.06.79-26.06.79V90.44S239.83,92,241.22,92c4.86-1.59-5.56-11.92-13.91-10.33-5.89,1.13-37.52-2.12-58-2.71,2.62-1.88,1.73-4.72,1.7-6H219s0,4,2.09,5.56,8.34,1.58,10.42-2.39,9.74-44.47,6.26-48.44-8.34,0-13.9,1.59c-3.76,1.07-29.17,0-45.2-.87l12.06-7.13A7.17,7.17,0,0,0,193.85,14a6.75,6.75,0,0,0-3.68-5.15L175.88,2.28l-.56,11a7.47,7.47,0,0,1-1.61,4.28L165.46,27.7c-.67-1.36-9-3.18-11.12-2.39s-2.94,5.28-2.09,10.33c1.05,6.18,5.95,12.38,6.26,12.71,1.67,1.78,0,5.56,1.39,23.82,0,0,.64,4.41,2.8,6.73-5.17,0-9,.38-10.45,1.21-6.95,4,9.73,11.92,13.21,11.12,8.34-1.58,23.28-1.58,23.28-1.58v11.11s-30.23-5.56-34.4-1.58,5.56,11.11,8.34,10.32c7.64-2.38,26.06,0,26.06,0v10.33s-47.61-4.77-49.69,0,4.17,11.91,7.64,9.53,90.36-4,98.7-.8S246.78,115.85,237.74,117.44Zm-19.46-54H171a90,90,0,0,0-.7-9.53L219,54.7ZM169.63,37.23s47.26-.8,48.65,0,2.08.79,2.08,2.38v5.56l-50,.79C169.56,39.43,169.63,40.4,169.63,37.23Z"/></g></g></svg>