<svg xmlns="http://www.w3.org/2000/svg" xmlns:xlink="http://www.w3.org/1999/xlink" viewBox="0 0 977 853"><defs><style>.cls-1{fill:none;}.cls-2{fill:#fce4cf;}.cls-3{fill:#fcd2b4;}.cls-4{fill:#fde4d0;}.cls-5{fill:#fdd2b5;}.cls-6{fill:url(#ボールと2号);}</style><pattern id="ボールと2号" data-name="ボールと2号" width="140" height="240" patternUnits="userSpaceOnUse" viewBox="0 0 140 240"><rect class="cls-1" width="140" height="240"/><rect class="cls-2" x="52.86" y="161.91" width="158.27" height="138.19"/><path class="cls-3" d="M112.9,264.91c-.29,2.1-.73,4.15-2.42,5.64a3.12,3.12,0,0,1-1.9.88c-.19.3.23.75-.24,1h-.15a.52.52,0,0,1-.35.12l-.17,0c-.87.31-1,1.2-1.08,2.14a9.65,9.65,0,0,1-.66,1.89,9.27,9.27,0,0,1-3.87,5.1h0c-.28.81-1.33.74-1.69,1.45h0c.07.77.61,1.7-.69,2h0l-.26.19h0a1.79,1.79,0,0,0-1.2-.19h0l-.28.17c-.56-.05-1.17.28-1.68-.2h0l-.23,0V285h0v.07a1.15,1.15,0,0,1,0,.19h0l-.48.73h0c-.19.21-.38.47-.72.24h0l-.52.24h0a1.73,1.73,0,0,1-1.88,0h0c-1.15-.14-1.52-.89-1.46-1.95-.89.07-1.79-.53-2.66.07h0l-.48.42h0c.21.85-.28,1.28-1,1.42a3.4,3.4,0,0,1-2.41-.16h0a1,1,0,0,1-1.21-.49h0l-.47-.53h0a3.34,3.34,0,0,1-1.71.23h-.44l-1.25-.25h-.45c-1.1-.53-.79-1.23-.24-2l0-.69h0a.76.76,0,0,1-.74-.48,12.19,12.19,0,0,1-4.62-5.63c-1.89-3.7-.32-7.27,2.47-9.44a3.38,3.38,0,0,0,.71-2.9l-.23-.24h0a1.23,1.23,0,0,1-.94-1.55,25.65,25.65,0,0,1,1.22-5.32h0a1,1,0,0,1,.23-.86h0c0-.3-.09-.61.22-.81h0A27.1,27.1,0,0,1,79.1,251h0c-.08-.44.36-.59.51-.91h0a2.34,2.34,0,0,1,0-.26c-.23-.05-.77,0-.59-.27.45-.83-.42-.66-.61-1a.41.41,0,0,1-.22,0c-.57-.06-1.67.43-.94-.94.05-.09-.17-.32-.26-.48l-.26-.23c-.88-.63-2.14-1-1.25-2.6.39-.73-.78-.38-1.06-.93.38-.67,1.46-1.26.63-2.31h0l.1,0a.31.31,0,0,0-.1,0c-.63-.69-.75-1.4.15-1.9,1.5-.82,1.8-2.22,2.09-3.72.19-1,.1-2,.76-2.87.19-.24-.11-.56-.27-.81a4.53,4.53,0,0,1-.8-2.59c-.42-.43-.16-1-.24-1.46-.38-.35-.19-.8-.2-1.21v-.25a8.69,8.69,0,0,1-.27-2.49c0-.4.16-.55.48-.19,2.21.71,4.51,1.22,6.38,2.73a.82.82,0,0,0,.88.13,14.5,14.5,0,0,1,9.83.07,1,1,0,0,0,1-.28,7,7,0,0,1,2.7-1.67,4.17,4.17,0,0,1,1.92-.75c.07-.26.3-.2.48-.22.76-.64,1.17-.57,1.19.54a23,23,0,0,1-.59,7.31c-.19.64.5,1.07.13,1.62.35.25,1,.33.35,1-.33.36.28,3.07.67,3.43a10.73,10.73,0,0,0,1.5,1.37c1.17.76.64,1.33-.11,1.92l-.28.3c-.53.93.37,1.37.69,2,.17.35.73.74-.17.85l-1,.77c0,.43.3.73.44,1.1s.31.82-.38.85h0a1,1,0,0,1-1,.5c-.48.32-1,.59-.73,1.36s-.39.49-.71.58c-.21.34-.56.22-.85.23s-.49.16-.36.52h0l.51.44h0a.7.7,0,0,1,.44.73,39.4,39.4,0,0,1,2.18,4.36h0c.3.18.2.5.25.77l.41.46c.21-.35,1.1-.17.72-1.09-.1-.24,1-.73,1.69-.81a5.91,5.91,0,0,1,4.28,1.48c.27.21.44,1,1.09.27.14-.16.67.42.75.88,1.17,1,1.29,2.41,1.41,3.78.09,1.09,0,2.18,0,3.28C112.82,264.37,112.94,264.57,112.9,264.91ZM77.21,226.7Z"/><rect class="cls-2" x="-87.14" y="161.91" width="158.27" height="138.19"/><ellipse class="cls-3" cx="21.79" cy="220.8" rx="20.74" ry="21.55"/><path class="cls-2" d="M42.49,223.61a22.49,22.49,0,0,1-2.68,8.21,21.55,21.55,0,0,1-5.3,6.28,20.37,20.37,0,0,1-7.16,3.73,19.74,19.74,0,0,1-5.49.78,21.13,21.13,0,0,1-2.74-.18h0a5.71,5.71,0,0,1-1.74-.33,19.84,19.84,0,0,1-6.09-2.5,21.1,21.1,0,0,1-6-5.55,22.3,22.3,0,0,1-3.56-7.51,22.73,22.73,0,0,1-.56-8.66,22.32,22.32,0,0,1,2.69-8.21.31.31,0,0,1,.05-.1v0h0a21.57,21.57,0,0,1,5.23-6.16,20.56,20.56,0,0,1,7.16-3.74,22.14,22.14,0,0,1,8.26-.58,21.53,21.53,0,0,1,7.83,2.81,21.28,21.28,0,0,1,6,5.56A22,22,0,0,1,41.93,215,22.73,22.73,0,0,1,42.49,223.61ZM24.51,199m12.07,7a20.1,20.1,0,0,0-2.34,1,37.72,37.72,0,0,0-6.17,4.49c-2.47,2.11-9.34,9.89-12.54,12.06s-5.14,1.84-5.37,1.84-.4,0-.54.15a19.2,19.2,0,0,0,.32,3.83,29.36,29.36,0,0,0,3.34.23,43.94,43.94,0,0,0,9.87-1,43.14,43.14,0,0,0,9.47-2.69,32.38,32.38,0,0,0,5.91-3.17,12.17,12.17,0,0,0,3.65-3.88,17.55,17.55,0,0,0-.68-3.71A21.7,21.7,0,0,0,38,207.73,18.78,18.78,0,0,0,36.58,206Zm-12.09-6.45h0a9,9,0,0,0-2,.25,10.88,10.88,0,0,0-4,1.65c-2.26,1.75-4.06,4.59-5.5,7.23-2.44,6-3,7.73-3.43,12.93a13.9,13.9,0,0,0,0,2.2c.09.29.22.62.73.59a12.78,12.78,0,0,0,3.51-1.2c1.58-.76,10.81-10.05,13.65-12.48a27.28,27.28,0,0,1,6.28-4.54,14.37,14.37,0,0,1,2.21-.85,17.85,17.85,0,0,0-3.8-3A19.78,19.78,0,0,0,24.49,199.53ZM4.29,209.79a13.19,13.19,0,0,0-.82,3.46,14.74,14.74,0,0,0,1.37,8A6,6,0,0,0,7.91,224c.67.26.9-.19.95-.38s0-1.61.09-2.6c0-2.46.67-6.85,3.42-12.91a17.64,17.64,0,0,1,5.14-6.57,9.32,9.32,0,0,1,4.73-2.22h-.45a19.26,19.26,0,0,0-5.38.76,19.92,19.92,0,0,0-7,3.66A20.92,20.92,0,0,0,4.29,209.79ZM2.14,226.42a10.66,10.66,0,0,0,4.69,2.34,8.18,8.18,0,0,0,2.39.52,26.77,26.77,0,0,1-.32-3.93,4.27,4.27,0,0,1-2.07-.8,6.08,6.08,0,0,1-2.53-2.74A16.28,16.28,0,0,1,3,213.17c0-.42.11-.82.18-1.18a21.81,21.81,0,0,0-1.6,5.95A22.2,22.2,0,0,0,2.14,226.42Zm3.49,7.18c.25.34.43.53.7.86a1.88,1.88,0,0,1,1.17-.88c.8-.3,2.44.12,2.71,0s-.27-.19-.77-3.69a22.17,22.17,0,0,1-2.88-.61c-2.2-.65-3.29-1-4.15-2.13A21.87,21.87,0,0,0,5.63,233.6ZM15.15,241a8.21,8.21,0,0,1-1.47-1.05,10.13,10.13,0,0,1-2.62-4.38,4.26,4.26,0,0,0-.94-1c-.36-.23-.77-.18-2.3,0-.55.28-.68.38-.81.9a18.19,18.19,0,0,0,4.48,3.77A36.1,36.1,0,0,0,15.15,241Zm18.4-2.72a25.37,25.37,0,0,1-4.18.91,21.44,21.44,0,0,1-3.11,0,25.68,25.68,0,0,1-9.2-2.79,14.29,14.29,0,0,0-5.29-1.48c-.15,0-.21.21-.07.78a13.57,13.57,0,0,0,2.39,3.8,8.28,8.28,0,0,0,3.42,2.24c.54.12,1.09.22,1.64.29a19.33,19.33,0,0,0,8.08-.57A20,20,0,0,0,33.55,238.25Zm-7.2.3a16.08,16.08,0,0,0,8.24-1.12,21.19,21.19,0,0,0,4.83-5.85,22,22,0,0,0,2.63-8,24,24,0,0,0,.17-3.48,10.66,10.66,0,0,1-3.33,3.49,30.26,30.26,0,0,1-5.82,3.17,53.23,53.23,0,0,1-9.6,2.83,50.51,50.51,0,0,1-6,.85H13.28a25.85,25.85,0,0,1-3.12-.23,29.68,29.68,0,0,0,.77,3.54,25.69,25.69,0,0,1,6.45,2,52.6,52.6,0,0,0,6.08,2.37,5.48,5.48,0,0,0,1.12.25Z"/><path class="cls-2" d="M27.37,241.91a20.39,20.39,0,0,0,7.19-3.75,21.57,21.57,0,0,0,5.32-6.3,22.46,22.46,0,0,0,2.69-8.24,23,23,0,0,0-.56-8.7,22.51,22.51,0,0,0-3.57-7.53,21.23,21.23,0,0,0-6-5.57A21.8,21.8,0,0,0,24.56,199a22.17,22.17,0,0,0-8.29.59,20.39,20.39,0,0,0-7.19,3.75,21.47,21.47,0,0,0-5.21,6.12h0l0,.08,0,.1a22.48,22.48,0,0,0-2.7,8.24,22.88,22.88,0,0,0,.56,8.69,22.3,22.3,0,0,0,3.58,7.54,21.2,21.2,0,0,0,6,5.57,20.13,20.13,0,0,0,6.12,2.51,6,6,0,0,0,1.76.33h0a21.3,21.3,0,0,0,2.75.19A19.84,19.84,0,0,0,27.37,241.91Zm-8.28.44a6,6,0,0,1-1.72-.32,20,20,0,0,1-6.07-2.5,20.92,20.92,0,0,1-6-5.53,22.13,22.13,0,0,1-3.55-7.48,22.57,22.57,0,0,1-.56-8.63,22.34,22.34,0,0,1,2.68-8.18l0-.05h0l0-.07a21.59,21.59,0,0,1,5.22-6.14,20.34,20.34,0,0,1,7.12-3.72,22,22,0,0,1,8.23-.58,21.78,21.78,0,0,1,7.8,2.8,21,21,0,0,1,6,5.54A21.86,21.86,0,0,1,41.85,215a22.82,22.82,0,0,1-2.11,16.81A21.69,21.69,0,0,1,34.46,238a20.38,20.38,0,0,1-7.13,3.72,20,20,0,0,1-5.47.77,21,21,0,0,1-2.73-.18h0Zm8.16-.89h0a20,20,0,0,0,6.35-3.15L34,238l-.44.13a24.62,24.62,0,0,1-4.16.91,21.28,21.28,0,0,1-3.1-.05,25.51,25.51,0,0,1-9.17-2.78,14.43,14.43,0,0,0-5.32-1.49.18.18,0,0,0-.16.06c-.1.12-.1.39,0,.83A14,14,0,0,0,14,239.48a8.26,8.26,0,0,0,3.46,2.25,15.43,15.43,0,0,0,1.65.3,19.13,19.13,0,0,0,2.72.19A19.33,19.33,0,0,0,27.25,241.46Zm-15.49-6.54A14.17,14.17,0,0,1,17,236.4a25.77,25.77,0,0,0,9.22,2.79,21.81,21.81,0,0,0,3.13.05,24.29,24.29,0,0,0,3.74-.78,19.91,19.91,0,0,1-5.91,2.84h0a19.19,19.19,0,0,1-8,.57c-.55-.07-1.09-.17-1.63-.29a8.24,8.24,0,0,1-3.38-2.21,13.81,13.81,0,0,1-2.37-3.77c-.13-.53-.06-.65,0-.67s0,0,0,0Zm3.43,6a8.06,8.06,0,0,1-1.45-1,10,10,0,0,1-2.6-4.35,4.23,4.23,0,0,0-1-1c-.37-.25-.75-.21-2.19-.08l-.16,0h0c-.54.28-.7.38-.85.95v0l0,0a18,18,0,0,0,4.49,3.78h0A36.9,36.9,0,0,0,15.11,241Zm-7.35-6.29.14,0c1.4-.13,1.77-.16,2.1,0a4.69,4.69,0,0,1,.91.93,10.09,10.09,0,0,0,2.63,4.4,4.57,4.57,0,0,0,.61.51,28.3,28.3,0,0,1-2.7-1.35,18,18,0,0,1-4.43-3.72C7.22,235,7.32,234.88,7.84,234.61Zm26.78,2.89h0a21.2,21.2,0,0,0,4.85-5.87,22.19,22.19,0,0,0,2.64-8.06,24.07,24.07,0,0,0,.17-3.49v-.34l-.15.3a10.27,10.27,0,0,1-3.3,3.46,29.61,29.61,0,0,1-5.8,3.16,52.46,52.46,0,0,1-9.59,2.83,49.73,49.73,0,0,1-5.94.85H13.28a28.47,28.47,0,0,1-3.1-.23l-.11,0v.11a26.74,26.74,0,0,0,.81,3.61l.29.06a24.25,24.25,0,0,1,6.17,1.92,48,48,0,0,0,5.87,2.3l.22.08a5.58,5.58,0,0,0,1.13.25l1.77.22c.76.07,1.46.11,2.11.11A15.22,15.22,0,0,0,34.62,237.5Zm-10,.75a5.3,5.3,0,0,1-1.1-.25l-.22-.07a51.54,51.54,0,0,1-5.85-2.29,24,24,0,0,0-6.21-1.94l-.23,0c-.1-.23-.51-2.14-.72-3.38a25,25,0,0,0,3,.22h4.25a49.72,49.72,0,0,0,6-.85,51.77,51.77,0,0,0,9.62-2.84,29.4,29.4,0,0,0,5.83-3.18,11.18,11.18,0,0,0,3.21-3.24,22.31,22.31,0,0,1-.17,3.16,21.86,21.86,0,0,1-2.62,8,21.28,21.28,0,0,1-4.8,5.82,15.8,15.8,0,0,1-8.19,1.11l-1.77-.22ZM6.4,234.5a1.79,1.79,0,0,1,1.13-.84,4.73,4.73,0,0,1,2,0,2.76,2.76,0,0,0,.76,0,.19.19,0,0,0,.11-.09c0-.07,0-.14-.06-.31a14.44,14.44,0,0,1-.77-3.38v-.06H9.46a22.24,22.24,0,0,1-2.88-.61c-2.22-.66-3.28-1-4.11-2.1l-.27-.34.13.42a22.13,22.13,0,0,0,3.23,6.44c.18.24.32.4.48.59l.23.27.07.09Zm.13-5.12a21,21,0,0,0,2.84.61,14.77,14.77,0,0,0,.77,3.36.62.62,0,0,1,.06.18h0a3.12,3.12,0,0,1-.68,0,4.77,4.77,0,0,0-2,0,2,2,0,0,0-1.15.81l-.15-.18c-.16-.19-.3-.35-.48-.59a21.78,21.78,0,0,1-3.08-6C3.42,228.4,4.5,228.78,6.53,229.38Zm16.64-.78a43.07,43.07,0,0,0,9.48-2.7,31.16,31.16,0,0,0,5.92-3.17,12.56,12.56,0,0,0,3.62-3.81.35.35,0,0,1,.06-.09v-.05a17.44,17.44,0,0,0-.68-3.73,21.63,21.63,0,0,0-4.94-9.13l0,0h0a20.17,20.17,0,0,0-2.36,1,38.23,38.23,0,0,0-6.19,4.5c-1,.81-2.52,2.43-4.34,4.31-2.92,3-6.22,6.41-8.18,7.74a9,9,0,0,1-5.24,1.84h-.09c-.26,0-.44,0-.59.17s.28,3.86.29,3.9v.06h.06a28,28,0,0,0,3.34.23H14A45.79,45.79,0,0,0,23.17,228.6Zm-13.49-3c.11-.11.22-.11.48-.11h.08a9.19,9.19,0,0,0,5.34-1.86c2-1.35,5.29-4.76,8.21-7.77,1.81-1.87,3.38-3.49,4.33-4.3A38.5,38.5,0,0,1,34.28,207a23.06,23.06,0,0,1,2.28-1A20.74,20.74,0,0,1,38,207.78h0a21.7,21.7,0,0,1,3.47,7.31,17,17,0,0,1,.68,3.67l-.05.08a12.44,12.44,0,0,1-3.57,3.75,30.85,30.85,0,0,1-5.89,3.16,42.73,42.73,0,0,1-9.46,2.69,44.05,44.05,0,0,1-9.85,1,26.87,26.87,0,0,1-3.27-.23A21.49,21.49,0,0,1,9.68,225.55Zm-.38,3.72A26.87,26.87,0,0,1,9,225.35v-.07H8.91a4.35,4.35,0,0,1-2-.79,5.92,5.92,0,0,1-2.49-2.71,15.88,15.88,0,0,1-1.28-8.59c0-.39.11-.79.18-1.17l.14-.74-.3.69a22.71,22.71,0,0,0-1.61,6h0a22.35,22.35,0,0,0,.56,8.51v0l0,0a10.75,10.75,0,0,0,4.72,2.36l.49.15a6.59,6.59,0,0,0,1.91.37h.1ZM1.68,218A21.81,21.81,0,0,1,3,212.69l-.06.47a16.17,16.17,0,0,0,1.29,8.69,6.18,6.18,0,0,0,2.55,2.77,4.55,4.55,0,0,0,2,.81,27.68,27.68,0,0,0,.3,3.76,6.08,6.08,0,0,1-1.78-.36l-.5-.15a10.47,10.47,0,0,1-4.62-2.31A22.08,22.08,0,0,1,1.68,218Zm8.64,6.51a13,13,0,0,0,3.53-1.21c1-.47,4.91-4.22,8.37-7.53,2.17-2.07,4.21-4,5.31-5,.22-.18.45-.39.7-.61a23.47,23.47,0,0,1,5.55-3.92,16.9,16.9,0,0,1,2.2-.85l.13,0-.09-.1a18.12,18.12,0,0,0-3.82-3,19.81,19.81,0,0,0-7.7-2.77h0a8.4,8.4,0,0,0-2,.26,10.87,10.87,0,0,0-4,1.65c-2.44,1.89-4.32,5-5.53,7.27-2.39,5.85-2.95,7.61-3.43,13,0,.25,0,.49,0,.72a6.84,6.84,0,0,0,0,1.52.74.74,0,0,0,.75.64Zm14.16-24.84a19.51,19.51,0,0,1,7.63,2.74h0a17.87,17.87,0,0,1,3.7,2.91,15,15,0,0,0-2.1.81A23.82,23.82,0,0,0,28.12,210l-.7.61c-1.1.94-3.14,2.89-5.31,5-3.46,3.3-7.37,7-8.33,7.5a12.67,12.67,0,0,1-3.47,1.18c-.44,0-.56-.23-.65-.52a6.46,6.46,0,0,1,0-1.47c0-.23,0-.47,0-.71.48-5.31,1-7.06,3.42-12.89,1.2-2.2,3.07-5.34,5.47-7.21a10.77,10.77,0,0,1,3.94-1.63,8.84,8.84,0,0,1,1.91-.25ZM8.6,224.11a.72.72,0,0,0,.34-.44c0-.11,0-.54.05-1.23,0-.45,0-1,0-1.39,0-2.08.53-6.52,3.42-12.87a17.6,17.6,0,0,1,5.11-6.55l.21-.16a8.91,8.91,0,0,1,4.48-2v-.16a19.68,19.68,0,0,0-5.85.76,20,20,0,0,0-7,3.67l.05.07-.05-.07a21,21,0,0,0-5.14,6.06,13.07,13.07,0,0,0-.83,3.48,14.93,14.93,0,0,0,1.38,8,6,6,0,0,0,3.11,2.84,1.29,1.29,0,0,0,.4.08A.69.69,0,0,0,8.6,224.11Zm9.08-22.77-.21.17a17.57,17.57,0,0,0-5.17,6.6C9.4,214.49,8.9,219,8.87,221.05c0,.43,0,.94,0,1.39s0,1.09-.05,1.19a.55.55,0,0,1-.26.34.66.66,0,0,1-.58,0,5.76,5.76,0,0,1-3-2.74,14.76,14.76,0,0,1-1.37-8,13.38,13.38,0,0,1,.81-3.43,20.93,20.93,0,0,1,5.1-6,19.66,19.66,0,0,1,12-4.4A9,9,0,0,0,17.68,201.34Z"/><rect class="cls-2" x="122.86" y="41.91" width="158.27" height="138.19"/><rect class="cls-2" x="-17.14" y="41.91" width="158.27" height="138.19"/><ellipse class="cls-3" cx="91.79" cy="100.8" rx="20.74" ry="21.55"/><path class="cls-3" d="M42.9,144.91c-.29,2.1-.73,4.15-2.42,5.64a3.12,3.12,0,0,1-1.9.88c-.19.3.23.75-.24,1h-.15a.52.52,0,0,1-.35.12l-.17,0c-.87.31-1,1.2-1.08,2.14a9.65,9.65,0,0,1-.66,1.89,9.27,9.27,0,0,1-3.87,5.1h0c-.28.81-1.33.74-1.69,1.45h0c.07.77.61,1.7-.69,2h0l-.26.19h0a1.79,1.79,0,0,0-1.2-.19h0l-.28.17c-.56-.05-1.17.28-1.68-.2h0l-.23.05V165h0v.07a1.15,1.15,0,0,1,0,.19h0l-.48.73h0c-.19.21-.38.47-.72.24h0l-.52.24h0a1.73,1.73,0,0,1-1.88,0h0c-1.15-.14-1.52-.89-1.46-2-.89.07-1.79-.53-2.66.07h0l-.48.42h0c.21.85-.28,1.28-1,1.42a3.4,3.4,0,0,1-2.41-.16h0a1,1,0,0,1-1.21-.49h0l-.47-.53h0a3.34,3.34,0,0,1-1.71.23h-.44l-1.25-.25H8.89c-1.1-.53-.79-1.23-.24-2l0-.69h0a.76.76,0,0,1-.74-.48,12.19,12.19,0,0,1-4.62-5.63c-1.89-3.7-.32-7.27,2.47-9.44a3.38,3.38,0,0,0,.71-2.9l-.23-.24h0a1.23,1.23,0,0,1-.94-1.55,25.65,25.65,0,0,1,1.22-5.32h0a1,1,0,0,1,.23-.86h0c0-.3-.09-.61.22-.81h0A27.1,27.1,0,0,1,9.1,131h0c-.08-.44.36-.59.51-.91h0a2.34,2.34,0,0,1,0-.26c-.23-.05-.77,0-.59-.27.45-.83-.42-.66-.61-1a.41.41,0,0,1-.22,0c-.57-.06-1.67.43-.94-.94,0-.09-.17-.32-.26-.48l-.26-.23c-.88-.63-2.14-1-1.25-2.6.39-.73-.78-.38-1.06-.93.38-.67,1.46-1.26.63-2.31H5l.1,0-.1,0c-.63-.69-.75-1.4.15-1.9,1.5-.82,1.8-2.22,2.09-3.72.19-1,.1-2,.76-2.87.19-.24-.11-.56-.27-.81a4.53,4.53,0,0,1-.8-2.59c-.42-.43-.16-1-.24-1.46-.38-.35-.19-.8-.2-1.21v-.25a8.69,8.69,0,0,1-.27-2.49c0-.4.16-.55.48-.19,2.21.71,4.51,1.22,6.38,2.73a.82.82,0,0,0,.88.13,14.5,14.5,0,0,1,9.83.07,1,1,0,0,0,1-.28,7,7,0,0,1,2.7-1.67,4.17,4.17,0,0,1,1.92-.75c.07-.26.3-.2.48-.22.76-.64,1.17-.57,1.19.54a23,23,0,0,1-.59,7.31c-.19.64.5,1.07.13,1.62.35.25,1,.33.35,1-.33.36.28,3.07.67,3.43a10.73,10.73,0,0,0,1.5,1.37c1.17.76.64,1.33-.11,1.92l-.28.3c-.53.93.37,1.37.69,2,.17.35.73.74-.17.85l-1,.77c0,.43.3.73.44,1.1s.31.82-.38.85h0a1,1,0,0,1-1,.5c-.48.32-1,.59-.73,1.36s-.39.49-.71.58c-.21.34-.56.22-.85.23s-.49.16-.36.52h0l.51.44h0a.7.7,0,0,1,.44.73,39.4,39.4,0,0,1,2.18,4.36h0c.3.18.2.5.25.77l.41.46c.21-.35,1.1-.17.72-1.09-.1-.24,1-.73,1.69-.81a5.91,5.91,0,0,1,4.28,1.48c.27.21.44,1,1.09.27.14-.16.67.42.75.88,1.17,1,1.29,2.41,1.41,3.78.09,1.09,0,2.18,0,3.28C42.82,144.37,42.94,144.57,42.9,144.91ZM7.21,106.7Z"/><path class="cls-2" d="M33.54,138.09a.37.37,0,0,0-.39.43,16.56,16.56,0,0,0,.67,1.81,2.45,2.45,0,0,1-.3,2c-.14.23-.33.44-.48.67a4.73,4.73,0,0,0-.58,2,.63.63,0,0,0,.17.68.65.65,0,0,0,.54.13,1.74,1.74,0,0,0,.9-.62l.74-.8a3.61,3.61,0,0,0,.61-.8,2.76,2.76,0,0,0,.27-1,3.88,3.88,0,0,0,0-.9,2.79,2.79,0,0,0-1.06-1.95.55.55,0,0,0,.28,0,.24.24,0,0,0,.21-.17.28.28,0,0,0,0-.18,3.08,3.08,0,0,0-1.18-1.17,1,1,0,0,0-.35-.18Z"/><path class="cls-2" d="M112.49,103.61a22.49,22.49,0,0,1-2.68,8.21,21.55,21.55,0,0,1-5.3,6.28,20.37,20.37,0,0,1-7.16,3.73,19.74,19.74,0,0,1-5.49.78,21.13,21.13,0,0,1-2.74-.18h0a5.71,5.71,0,0,1-1.74-.33,19.84,19.84,0,0,1-6.09-2.5,21.1,21.1,0,0,1-6-5.55,22.3,22.3,0,0,1-3.56-7.51,22.73,22.73,0,0,1-.56-8.66,22.32,22.32,0,0,1,2.69-8.21.31.31,0,0,1,0-.1v0h0a21.57,21.57,0,0,1,5.23-6.16,20.56,20.56,0,0,1,7.16-3.74,22.14,22.14,0,0,1,8.26-.58,21.53,21.53,0,0,1,7.83,2.81,21.28,21.28,0,0,1,6,5.56A22,22,0,0,1,111.93,95,22.73,22.73,0,0,1,112.49,103.61ZM94.51,79m12.07,7a20.1,20.1,0,0,0-2.34,1,37.72,37.72,0,0,0-6.17,4.49c-2.47,2.11-9.34,9.89-12.54,12.06s-5.14,1.84-5.37,1.84-.4,0-.54.15a19.2,19.2,0,0,0,.32,3.83,29.36,29.36,0,0,0,3.34.23,43.94,43.94,0,0,0,9.87-1,43.14,43.14,0,0,0,9.47-2.69,32.38,32.38,0,0,0,5.91-3.17,12.17,12.17,0,0,0,3.65-3.88,17.55,17.55,0,0,0-.68-3.71A21.7,21.7,0,0,0,108,87.73,18.78,18.78,0,0,0,106.58,86ZM94.49,79.53h0a9,9,0,0,0-2,.25,10.88,10.88,0,0,0-4,1.65C86.25,83.18,84.45,86,83,88.66c-2.44,6-3,7.73-3.43,12.93a13.9,13.9,0,0,0,0,2.2c.09.29.22.62.73.59a12.78,12.78,0,0,0,3.51-1.2c1.58-.76,10.81-10.05,13.65-12.48a27.28,27.28,0,0,1,6.28-4.54,14.37,14.37,0,0,1,2.21-.85,17.85,17.85,0,0,0-3.8-3A19.78,19.78,0,0,0,94.49,79.53ZM74.29,89.79a13.19,13.19,0,0,0-.82,3.46,14.74,14.74,0,0,0,1.37,8A6,6,0,0,0,77.91,104c.67.26.9-.19,1-.38s0-1.61.09-2.6c0-2.46.67-6.85,3.42-12.91a17.64,17.64,0,0,1,5.14-6.57,9.32,9.32,0,0,1,4.73-2.22h-.45a19.26,19.26,0,0,0-5.38.76,19.92,19.92,0,0,0-7,3.66A20.92,20.92,0,0,0,74.29,89.79Zm-2.15,16.63a10.66,10.66,0,0,0,4.69,2.34,8.18,8.18,0,0,0,2.39.52,26.77,26.77,0,0,1-.32-3.93,4.27,4.27,0,0,1-2.07-.8,6.08,6.08,0,0,1-2.53-2.74A16.28,16.28,0,0,1,73,93.17c0-.42.11-.82.18-1.18a21.81,21.81,0,0,0-1.6,6A22.2,22.2,0,0,0,72.14,106.42Zm3.49,7.18c.25.34.43.53.7.86a1.88,1.88,0,0,1,1.17-.88c.8-.3,2.44.12,2.71,0s-.27-.19-.77-3.69a22.17,22.17,0,0,1-2.88-.61c-2.2-.65-3.29-1-4.15-2.13A21.87,21.87,0,0,0,75.63,113.6ZM85.15,121a8.21,8.21,0,0,1-1.47-1,10.13,10.13,0,0,1-2.62-4.38,4.26,4.26,0,0,0-.94-1c-.36-.23-.77-.18-2.3,0-.55.28-.68.38-.81.9a18.19,18.19,0,0,0,4.48,3.77A36.1,36.1,0,0,0,85.15,121Zm18.4-2.72a25.37,25.37,0,0,1-4.18.91,21.44,21.44,0,0,1-3.11,0,25.68,25.68,0,0,1-9.2-2.79,14.29,14.29,0,0,0-5.29-1.48c-.15,0-.21.21-.07.78a13.57,13.57,0,0,0,2.39,3.8,8.28,8.28,0,0,0,3.42,2.24c.54.12,1.09.22,1.64.29a19.33,19.33,0,0,0,8.08-.57A20,20,0,0,0,103.55,118.25Zm-7.2.3a16.08,16.08,0,0,0,8.24-1.12,21.19,21.19,0,0,0,4.83-5.85,22,22,0,0,0,2.63-8,24,24,0,0,0,.17-3.48,10.66,10.66,0,0,1-3.33,3.49,30.26,30.26,0,0,1-5.82,3.17,53.23,53.23,0,0,1-9.6,2.83,50.51,50.51,0,0,1-6,.85c-.28,0-4,0-4.23,0a25.85,25.85,0,0,1-3.12-.23,29.68,29.68,0,0,0,.77,3.54,25.69,25.69,0,0,1,6.45,2,52.6,52.6,0,0,0,6.08,2.37,5.48,5.48,0,0,0,1.12.25Z"/><path class="cls-2" d="M97.37,121.91a20.39,20.39,0,0,0,7.19-3.75,21.57,21.57,0,0,0,5.32-6.3,22.46,22.46,0,0,0,2.69-8.24,23,23,0,0,0-.56-8.7,22.51,22.51,0,0,0-3.57-7.53,21.23,21.23,0,0,0-6-5.57A21.8,21.8,0,0,0,94.56,79a22.17,22.17,0,0,0-8.29.59,20.39,20.39,0,0,0-7.19,3.75,21.47,21.47,0,0,0-5.21,6.12h0l0,.08,0,.1a22.48,22.48,0,0,0-2.7,8.24,22.88,22.88,0,0,0,.56,8.69,22.3,22.3,0,0,0,3.58,7.54,21.2,21.2,0,0,0,6,5.57,20.13,20.13,0,0,0,6.12,2.51,6,6,0,0,0,1.76.33h0a21.3,21.3,0,0,0,2.75.19A19.84,19.84,0,0,0,97.37,121.91Zm-8.28.44a6,6,0,0,1-1.72-.32,20,20,0,0,1-6.07-2.5,20.92,20.92,0,0,1-6-5.53,22.13,22.13,0,0,1-3.55-7.48,22.57,22.57,0,0,1-.56-8.63,22.34,22.34,0,0,1,2.68-8.18l0,0h0l0-.07a21.59,21.59,0,0,1,5.22-6.14,20.34,20.34,0,0,1,7.12-3.72,22,22,0,0,1,8.23-.58,21.78,21.78,0,0,1,7.8,2.8,21,21,0,0,1,6,5.54A21.86,21.86,0,0,1,111.85,95a22.82,22.82,0,0,1-2.11,16.81,21.69,21.69,0,0,1-5.28,6.26,20.38,20.38,0,0,1-7.13,3.72,20,20,0,0,1-5.47.77,21,21,0,0,1-2.73-.18h0Zm8.16-.89h0a20,20,0,0,0,6.35-3.15L104,118l-.44.13a24.62,24.62,0,0,1-4.16.91,21.28,21.28,0,0,1-3.1,0,25.51,25.51,0,0,1-9.17-2.78,14.43,14.43,0,0,0-5.32-1.49.18.18,0,0,0-.16.06c-.1.12-.1.39,0,.83A14,14,0,0,0,84,119.48a8.26,8.26,0,0,0,3.46,2.25,15.43,15.43,0,0,0,1.65.3,19.13,19.13,0,0,0,2.72.19A19.33,19.33,0,0,0,97.25,121.46Zm-15.49-6.54A14.17,14.17,0,0,1,87,116.4a25.77,25.77,0,0,0,9.22,2.79,21.81,21.81,0,0,0,3.13,0,24.29,24.29,0,0,0,3.74-.78,19.91,19.91,0,0,1-5.91,2.84h0a19.19,19.19,0,0,1-8,.57c-.55-.07-1.09-.17-1.63-.29a8.24,8.24,0,0,1-3.38-2.21,13.81,13.81,0,0,1-2.37-3.77c-.13-.53-.06-.65,0-.67s0,0,0,0Zm3.43,6a8.06,8.06,0,0,1-1.45-1,10,10,0,0,1-2.6-4.35,4.23,4.23,0,0,0-1-1c-.37-.25-.75-.21-2.19-.08l-.16,0h0c-.54.28-.7.38-.85,1v0l0,0a18,18,0,0,0,4.49,3.78h0A36.9,36.9,0,0,0,85.11,121Zm-7.35-6.29.14,0c1.4-.13,1.77-.16,2.1,0a4.69,4.69,0,0,1,.91.93,10.09,10.09,0,0,0,2.63,4.4,4.57,4.57,0,0,0,.61.51,28.3,28.3,0,0,1-2.7-1.35,18,18,0,0,1-4.43-3.72C77.22,115,77.32,114.88,77.84,114.61Zm26.78,2.89h0a21.2,21.2,0,0,0,4.85-5.87,22.19,22.19,0,0,0,2.64-8.06,24.07,24.07,0,0,0,.17-3.49v-.34l-.15.3a10.27,10.27,0,0,1-3.3,3.46,29.61,29.61,0,0,1-5.8,3.16,52.46,52.46,0,0,1-9.59,2.83,49.73,49.73,0,0,1-5.94.85H87c-1.06,0-3.53,0-3.75,0a28.47,28.47,0,0,1-3.1-.23l-.11,0v.11a26.74,26.74,0,0,0,.81,3.61l.29.06a24.25,24.25,0,0,1,6.17,1.92,48,48,0,0,0,5.87,2.3l.22.08a5.58,5.58,0,0,0,1.13.25l1.77.22c.76.07,1.46.11,2.11.11A15.22,15.22,0,0,0,104.62,117.5Zm-10,.75a5.3,5.3,0,0,1-1.1-.25l-.22-.07a51.54,51.54,0,0,1-5.85-2.29,24,24,0,0,0-6.21-1.94l-.23,0c-.1-.23-.51-2.14-.72-3.38a25,25,0,0,0,3,.22h4.25a49.72,49.72,0,0,0,6-.85,51.77,51.77,0,0,0,9.62-2.84,29.4,29.4,0,0,0,5.83-3.18,11.18,11.18,0,0,0,3.21-3.24,22.31,22.31,0,0,1-.17,3.16,21.86,21.86,0,0,1-2.62,8,21.28,21.28,0,0,1-4.8,5.82,15.8,15.8,0,0,1-8.19,1.11l-1.77-.22ZM76.4,114.5a1.79,1.79,0,0,1,1.13-.84,4.73,4.73,0,0,1,2,0,2.76,2.76,0,0,0,.76,0,.19.19,0,0,0,.11-.09c0-.07,0-.14-.06-.31a14.44,14.44,0,0,1-.77-3.38v-.06h-.06a22.24,22.24,0,0,1-2.88-.61c-2.22-.66-3.28-1-4.11-2.1l-.27-.34.13.42a22.13,22.13,0,0,0,3.23,6.44c.18.24.32.4.48.59l.23.27.07.09Zm.13-5.12a21,21,0,0,0,2.84.61,14.77,14.77,0,0,0,.77,3.36.62.62,0,0,1,.06.18h0a3.12,3.12,0,0,1-.68,0,4.77,4.77,0,0,0-2,0,2,2,0,0,0-1.15.81l-.15-.18c-.16-.19-.3-.35-.48-.59a21.78,21.78,0,0,1-3.08-6C73.42,108.4,74.5,108.78,76.53,109.38Zm16.64-.78a43.07,43.07,0,0,0,9.48-2.7,31.16,31.16,0,0,0,5.92-3.17,12.56,12.56,0,0,0,3.62-3.81.35.35,0,0,1,.06-.09v0a17.44,17.44,0,0,0-.68-3.73,21.63,21.63,0,0,0-4.94-9.13l0,0h0a20.17,20.17,0,0,0-2.36,1A38.23,38.23,0,0,0,98,91.39c-1,.81-2.52,2.43-4.34,4.31-2.92,3-6.22,6.41-8.18,7.74a9,9,0,0,1-5.24,1.84h-.09c-.26,0-.44,0-.59.17s.28,3.86.29,3.9v.06h.06a28,28,0,0,0,3.34.23H84A45.79,45.79,0,0,0,93.17,108.6Zm-13.49-3c.11-.11.22-.11.48-.11h.08a9.19,9.19,0,0,0,5.34-1.86c2-1.35,5.29-4.76,8.21-7.77,1.81-1.87,3.38-3.49,4.33-4.3A38.5,38.5,0,0,1,104.28,87a23.06,23.06,0,0,1,2.28-1A20.74,20.74,0,0,1,108,87.78h0a21.7,21.7,0,0,1,3.47,7.31,17,17,0,0,1,.68,3.67l0,.08a12.44,12.44,0,0,1-3.57,3.75,30.85,30.85,0,0,1-5.89,3.16,42.73,42.73,0,0,1-9.46,2.69,44.05,44.05,0,0,1-9.85,1,26.87,26.87,0,0,1-3.27-.23A21.49,21.49,0,0,1,79.68,105.55Zm-.38,3.72a26.87,26.87,0,0,1-.32-3.92v-.07h-.07a4.35,4.35,0,0,1-2-.79,5.92,5.92,0,0,1-2.49-2.71,15.88,15.88,0,0,1-1.28-8.59c.05-.39.11-.79.18-1.17l.14-.74-.3.69a22.71,22.71,0,0,0-1.61,6h0a22.35,22.35,0,0,0,.56,8.51v0l0,0a10.75,10.75,0,0,0,4.72,2.36l.49.15a6.59,6.59,0,0,0,1.91.37h.1ZM71.68,98A21.81,21.81,0,0,1,73,92.69l-.06.47a16.17,16.17,0,0,0,1.29,8.69,6.18,6.18,0,0,0,2.55,2.77,4.55,4.55,0,0,0,2,.81,27.68,27.68,0,0,0,.3,3.76,6.08,6.08,0,0,1-1.78-.36l-.5-.15a10.47,10.47,0,0,1-4.62-2.31A22.08,22.08,0,0,1,71.68,98Zm8.64,6.51a13,13,0,0,0,3.53-1.21c1-.47,4.91-4.22,8.37-7.53,2.17-2.07,4.21-4,5.31-5,.22-.18.45-.39.7-.61a23.47,23.47,0,0,1,5.55-3.92,16.9,16.9,0,0,1,2.2-.85l.13,0-.09-.1a18.12,18.12,0,0,0-3.82-3,19.81,19.81,0,0,0-7.7-2.77h0a8.4,8.4,0,0,0-2,.26,10.87,10.87,0,0,0-4,1.65c-2.44,1.89-4.32,5-5.53,7.27-2.39,5.85-3,7.61-3.43,13,0,.25,0,.49,0,.72a6.84,6.84,0,0,0,0,1.52.74.74,0,0,0,.75.64ZM94.48,79.62a19.51,19.51,0,0,1,7.63,2.74h0a17.87,17.87,0,0,1,3.7,2.91,15,15,0,0,0-2.1.81,23.82,23.82,0,0,0-5.59,4l-.7.61c-1.1.94-3.14,2.89-5.31,5-3.46,3.3-7.37,7-8.33,7.5a12.67,12.67,0,0,1-3.47,1.18c-.44,0-.56-.23-.65-.52a6.46,6.46,0,0,1,0-1.47c0-.23,0-.47,0-.71.48-5.31,1-7.06,3.42-12.89,1.2-2.2,3.07-5.34,5.47-7.21a10.77,10.77,0,0,1,3.94-1.63,8.84,8.84,0,0,1,1.91-.25ZM78.6,104.11a.72.72,0,0,0,.34-.44c0-.11,0-.54,0-1.23,0-.45,0-1,0-1.39,0-2.08.53-6.52,3.42-12.87a17.6,17.6,0,0,1,5.11-6.55l.21-.16a8.91,8.91,0,0,1,4.48-2v-.16a19.68,19.68,0,0,0-5.85.76,20,20,0,0,0-7,3.67l0,.07,0-.07a21,21,0,0,0-5.14,6.06,13.07,13.07,0,0,0-.83,3.48,14.93,14.93,0,0,0,1.38,8,6,6,0,0,0,3.11,2.84,1.29,1.29,0,0,0,.4.08A.69.69,0,0,0,78.6,104.11Zm9.08-22.77-.21.17a17.57,17.57,0,0,0-5.17,6.6c-2.9,6.38-3.4,10.84-3.43,12.94,0,.43,0,.94,0,1.39s0,1.09,0,1.19a.55.55,0,0,1-.26.34.66.66,0,0,1-.58,0,5.76,5.76,0,0,1-3-2.74,14.76,14.76,0,0,1-1.37-7.95,13.38,13.38,0,0,1,.81-3.43,20.93,20.93,0,0,1,5.1-6,19.66,19.66,0,0,1,12-4.4A9,9,0,0,0,87.68,81.34Z"/><rect class="cls-2" x="-157.14" y="41.91" width="158.27" height="138.19"/><rect class="cls-2" x="52.86" y="-78.09" width="158.27" height="138.19"/><path class="cls-3" d="M112.9,24.91c-.29,2.1-.73,4.15-2.42,5.64a3.12,3.12,0,0,1-1.9.88c-.19.3.23.75-.24,1h-.15a.52.52,0,0,1-.35.12l-.17,0c-.87.31-1,1.2-1.08,2.14a9.65,9.65,0,0,1-.66,1.89,9.27,9.27,0,0,1-3.87,5.1h0c-.28.81-1.33.74-1.69,1.45h0c.07.77.61,1.7-.69,2h0l-.26.19h0a1.79,1.79,0,0,0-1.2-.19h0l-.28.17c-.56-.05-1.17.28-1.68-.2h0l-.23.05V45h0v.07a1.15,1.15,0,0,1,0,.19h0l-.48.73h0c-.19.21-.38.47-.72.24h0l-.52.24h0a1.73,1.73,0,0,1-1.88,0h0c-1.15-.14-1.52-.89-1.46-2-.89.07-1.79-.53-2.66.07h0l-.48.42h0c.21.85-.28,1.28-1,1.42a3.4,3.4,0,0,1-2.41-.16h0a1,1,0,0,1-1.21-.49h0l-.47-.53h0A3.34,3.34,0,0,1,81,45.5h-.44l-1.25-.25h-.45c-1.1-.53-.79-1.23-.24-2l0-.69h0a.76.76,0,0,1-.74-.48,12.19,12.19,0,0,1-4.62-5.63c-1.89-3.7-.32-7.27,2.47-9.44a3.38,3.38,0,0,0,.71-2.9l-.23-.24h0a1.23,1.23,0,0,1-.94-1.55,25.65,25.65,0,0,1,1.22-5.32h0a1,1,0,0,1,.23-.86h0c0-.3-.09-.61.22-.81h0A27.1,27.1,0,0,1,79.1,11h0c-.08-.44.36-.59.51-.91h0a2.34,2.34,0,0,1,0-.26c-.23,0-.77,0-.59-.27.45-.83-.42-.66-.61-1a.41.41,0,0,1-.22,0c-.57-.06-1.67.43-.94-.94.05-.09-.17-.32-.26-.48l-.26-.23c-.88-.63-2.14-1-1.25-2.6.39-.73-.78-.38-1.06-.93.38-.67,1.46-1.26.63-2.31h0l.1-.05a.31.31,0,0,0-.1.05c-.63-.69-.75-1.4.15-1.9C76.66-1.65,77-3,77.25-4.55c.19-1,.1-2,.76-2.87.19-.24-.11-.56-.27-.81a4.53,4.53,0,0,1-.8-2.59c-.42-.43-.16-1-.24-1.46-.38-.35-.19-.8-.2-1.21v-.25a8.69,8.69,0,0,1-.27-2.49c0-.4.16-.55.48-.19,2.21.71,4.51,1.22,6.38,2.73a.82.82,0,0,0,.88.13,14.5,14.5,0,0,1,9.83.07,1,1,0,0,0,1-.28,7,7,0,0,1,2.7-1.67,4.17,4.17,0,0,1,1.92-.75c.07-.26.3-.2.48-.22.76-.64,1.17-.57,1.19.54a23,23,0,0,1-.59,7.31c-.19.64.5,1.07.13,1.62.35.25,1,.33.35,1-.33.36.28,3.07.67,3.43a10.73,10.73,0,0,0,1.5,1.37c1.17.76.64,1.33-.11,1.92l-.28.3c-.53.93.37,1.37.69,2,.17.35.73.74-.17.85l-1,.77c0,.43.3.73.44,1.1s.31.82-.38.85h0a1,1,0,0,1-1,.5c-.48.32-1,.59-.73,1.36s-.39.49-.71.58c-.21.34-.56.22-.85.23s-.49.16-.36.52h0l.51.44h0a.7.7,0,0,1,.44.73,39.4,39.4,0,0,1,2.18,4.36h0c.3.18.2.5.25.77l.41.46c.21-.35,1.1-.17.72-1.09-.1-.24,1-.73,1.69-.81a5.91,5.91,0,0,1,4.28,1.48c.27.21.44,1,1.09.27.14-.16.67.42.75.88,1.17,1,1.29,2.41,1.41,3.78.09,1.09,0,2.18,0,3.28C112.82,24.37,112.94,24.57,112.9,24.91ZM77.21-13.3Z"/><path class="cls-2" d="M103.54,18.09a.37.37,0,0,0-.39.43,16.56,16.56,0,0,0,.67,1.81,2.45,2.45,0,0,1-.3,2c-.14.23-.33.44-.48.67a4.73,4.73,0,0,0-.58,2,.63.63,0,0,0,.17.68.65.65,0,0,0,.54.13,1.74,1.74,0,0,0,.9-.62l.74-.8a3.61,3.61,0,0,0,.61-.8,2.76,2.76,0,0,0,.27-1,3.88,3.88,0,0,0,0-.9,2.79,2.79,0,0,0-1.06-1.95.55.55,0,0,0,.28,0,.24.24,0,0,0,.21-.17.28.28,0,0,0,0-.18,3.08,3.08,0,0,0-1.18-1.17,1,1,0,0,0-.35-.18Z"/><rect class="cls-2" x="-87.14" y="-78.09" width="158.27" height="138.19"/><ellipse class="cls-3" cx="21.79" cy="-19.2" rx="20.74" ry="21.55"/><path class="cls-2" d="M42.49-16.39a22.49,22.49,0,0,1-2.68,8.21,21.55,21.55,0,0,1-5.3,6.28,20.37,20.37,0,0,1-7.16,3.73,19.74,19.74,0,0,1-5.49.78,21.13,21.13,0,0,1-2.74-.18h0a5.71,5.71,0,0,1-1.74-.33A19.84,19.84,0,0,1,11.26-.4a21.1,21.1,0,0,1-6-5.55,22.3,22.3,0,0,1-3.56-7.51,22.73,22.73,0,0,1-.56-8.66,22.32,22.32,0,0,1,2.69-8.21.31.31,0,0,1,.05-.1v0h0a21.57,21.57,0,0,1,5.23-6.16,20.56,20.56,0,0,1,7.16-3.74,22.14,22.14,0,0,1,8.26-.58,21.53,21.53,0,0,1,7.83,2.81,21.28,21.28,0,0,1,6,5.56A22,22,0,0,1,41.93-25,22.73,22.73,0,0,1,42.49-16.39ZM24.51-41m12.07,7a20.1,20.1,0,0,0-2.34,1,37.72,37.72,0,0,0-6.17,4.49c-2.47,2.11-9.34,9.89-12.54,12.06s-5.14,1.84-5.37,1.84-.4,0-.54.15a19.2,19.2,0,0,0,.32,3.83,29.36,29.36,0,0,0,3.34.23,43.94,43.94,0,0,0,9.87-1,43.14,43.14,0,0,0,9.47-2.69,32.38,32.38,0,0,0,5.91-3.17,12.17,12.17,0,0,0,3.65-3.88,17.55,17.55,0,0,0-.68-3.71A21.7,21.7,0,0,0,38-32.27,18.78,18.78,0,0,0,36.58-34ZM24.49-40.47h0a9,9,0,0,0-2,.25,10.88,10.88,0,0,0-4,1.65C16.25-36.82,14.45-34,13-31.34c-2.44,6-3,7.73-3.43,12.93a13.9,13.9,0,0,0,0,2.2c.09.29.22.62.73.59a12.78,12.78,0,0,0,3.51-1.2c1.58-.76,10.81-10,13.65-12.48a27.28,27.28,0,0,1,6.28-4.54A14.37,14.37,0,0,1,36-34.69a17.85,17.85,0,0,0-3.8-3A19.78,19.78,0,0,0,24.49-40.47ZM4.29-30.21a13.19,13.19,0,0,0-.82,3.46,14.74,14.74,0,0,0,1.37,8A6,6,0,0,0,7.91-16c.67.26.9-.19.95-.38s0-1.61.09-2.6c0-2.46.67-6.85,3.42-12.91a17.64,17.64,0,0,1,5.14-6.57,9.32,9.32,0,0,1,4.73-2.22h-.45a19.26,19.26,0,0,0-5.38.76,19.92,19.92,0,0,0-7,3.66A20.92,20.92,0,0,0,4.29-30.21ZM2.14-13.58a10.66,10.66,0,0,0,4.69,2.34,8.18,8.18,0,0,0,2.39.52,26.77,26.77,0,0,1-.32-3.93,4.27,4.27,0,0,1-2.07-.8A6.08,6.08,0,0,1,4.3-18.19,16.28,16.28,0,0,1,3-26.83c0-.42.11-.82.18-1.18a21.81,21.81,0,0,0-1.6,6A22.2,22.2,0,0,0,2.14-13.58ZM5.63-6.4c.25.34.43.53.7.86A1.88,1.88,0,0,1,7.5-6.42c.8-.3,2.44.12,2.71,0s-.27-.19-.77-3.69a22.17,22.17,0,0,1-2.88-.61c-2.2-.65-3.29-1-4.15-2.13A21.87,21.87,0,0,0,5.63-6.4ZM15.15,1a8.21,8.21,0,0,1-1.47-1,10.13,10.13,0,0,1-2.62-4.38,4.26,4.26,0,0,0-.94-1c-.36-.23-.77-.18-2.3,0-.55.28-.68.38-.81.9A18.19,18.19,0,0,0,11.49-.8,36.1,36.1,0,0,0,15.15,1Zm18.4-2.72a25.37,25.37,0,0,1-4.18.91,21.44,21.44,0,0,1-3.11-.05,25.68,25.68,0,0,1-9.2-2.79,14.29,14.29,0,0,0-5.29-1.48c-.15,0-.21.21-.07.78a13.57,13.57,0,0,0,2.39,3.8,8.28,8.28,0,0,0,3.42,2.24c.54.12,1.09.22,1.64.29a19.33,19.33,0,0,0,8.08-.57A20,20,0,0,0,33.55-1.75Zm-7.2.3a16.08,16.08,0,0,0,8.24-1.12,21.19,21.19,0,0,0,4.83-5.85,22,22,0,0,0,2.63-8,24,24,0,0,0,.17-3.48,10.66,10.66,0,0,1-3.33,3.49,30.26,30.26,0,0,1-5.82,3.17,53.23,53.23,0,0,1-9.6,2.83,50.51,50.51,0,0,1-6,.85H13.28a25.85,25.85,0,0,1-3.12-.23,29.68,29.68,0,0,0,.77,3.54,25.69,25.69,0,0,1,6.45,2,52.6,52.6,0,0,0,6.08,2.37,5.48,5.48,0,0,0,1.12.25Z"/><path class="cls-2" d="M27.37,1.91a20.39,20.39,0,0,0,7.19-3.75,21.57,21.57,0,0,0,5.32-6.3,22.46,22.46,0,0,0,2.69-8.24,23,23,0,0,0-.56-8.7,22.51,22.51,0,0,0-3.57-7.53,21.23,21.23,0,0,0-6-5.57A21.8,21.8,0,0,0,24.56-41a22.17,22.17,0,0,0-8.29.59,20.39,20.39,0,0,0-7.19,3.75,21.47,21.47,0,0,0-5.21,6.12h0l0,.08,0,.1a22.48,22.48,0,0,0-2.7,8.24,22.88,22.88,0,0,0,.56,8.69A22.3,22.3,0,0,0,5.21-5.9a21.2,21.2,0,0,0,6,5.57,20.13,20.13,0,0,0,6.12,2.51,6,6,0,0,0,1.76.33h0a21.3,21.3,0,0,0,2.75.19A19.84,19.84,0,0,0,27.37,1.91Zm-8.28.44A6,6,0,0,1,17.37,2,20,20,0,0,1,11.3-.47,20.92,20.92,0,0,1,5.34-6a22.13,22.13,0,0,1-3.55-7.48,22.57,22.57,0,0,1-.56-8.63,22.34,22.34,0,0,1,2.68-8.18l0-.05h0l0-.07a21.59,21.59,0,0,1,5.22-6.14,20.34,20.34,0,0,1,7.12-3.72,22,22,0,0,1,8.23-.58,21.78,21.78,0,0,1,7.8,2.8,21,21,0,0,1,6,5.54A21.86,21.86,0,0,1,41.85-25a22.57,22.57,0,0,1,.56,8.63,22.39,22.39,0,0,1-2.67,8.18A21.69,21.69,0,0,1,34.46-2a20.38,20.38,0,0,1-7.13,3.72,20,20,0,0,1-5.47.77,21,21,0,0,1-2.73-.18h0Zm8.16-.89h0A20,20,0,0,0,33.6-1.69L34-2l-.44.13a24.62,24.62,0,0,1-4.16.91,21.28,21.28,0,0,1-3.1,0A25.51,25.51,0,0,1,17.1-3.75a14.43,14.43,0,0,0-5.32-1.49.18.18,0,0,0-.16.06c-.1.12-.1.39,0,.83A14,14,0,0,0,14-.52a8.26,8.26,0,0,0,3.46,2.25,15.43,15.43,0,0,0,1.65.3,19.13,19.13,0,0,0,2.72.19A19.33,19.33,0,0,0,27.25,1.46ZM11.76-5.08A14.17,14.17,0,0,1,17-3.6,25.77,25.77,0,0,0,26.25-.81a21.81,21.81,0,0,0,3.13.05,24.29,24.29,0,0,0,3.74-.78A19.91,19.91,0,0,1,27.21,1.3h0a19.19,19.19,0,0,1-8,.57c-.55-.07-1.09-.17-1.63-.29A8.24,8.24,0,0,1,14.15-.63,13.81,13.81,0,0,1,11.78-4.4c-.13-.53-.06-.65,0-.67Zm3.43,6a8.06,8.06,0,0,1-1.45-1,10,10,0,0,1-2.6-4.35,4.23,4.23,0,0,0-1-1C9.79-5.74,9.41-5.7,8-5.57l-.16,0h0c-.54.28-.7.38-.85,1v0l0,0A18,18,0,0,0,11.44-.74h0A36.9,36.9,0,0,0,15.11,1ZM7.84-5.39l.14,0c1.4-.13,1.77-.16,2.1,0a4.69,4.69,0,0,1,.91.93A10.09,10.09,0,0,0,13.62,0a4.57,4.57,0,0,0,.61.51,28.3,28.3,0,0,1-2.7-1.35A18,18,0,0,1,7.1-4.59C7.22-5,7.32-5.12,7.84-5.39ZM34.62-2.5h0a21.2,21.2,0,0,0,4.85-5.87,22.19,22.19,0,0,0,2.64-8.06,24.07,24.07,0,0,0,.17-3.49v-.34l-.15.3a10.27,10.27,0,0,1-3.3,3.46A29.61,29.61,0,0,1,33-13.35a52.46,52.46,0,0,1-9.59,2.83,49.73,49.73,0,0,1-5.94.85H13.28a28.47,28.47,0,0,1-3.1-.23l-.11,0v.11a26.74,26.74,0,0,0,.81,3.61l.29.06a24.25,24.25,0,0,1,6.17,1.92,48,48,0,0,0,5.87,2.3l.22.08a5.58,5.58,0,0,0,1.13.25l1.77.22c.76.07,1.46.11,2.11.11A15.22,15.22,0,0,0,34.62-2.5Zm-10,.75A5.3,5.3,0,0,1,23.49-2l-.22-.07a51.54,51.54,0,0,1-5.85-2.29A24,24,0,0,0,11.21-6.3l-.23,0c-.1-.23-.51-2.14-.72-3.38a25,25,0,0,0,3,.22h4.25a49.72,49.72,0,0,0,6-.85A51.77,51.77,0,0,0,33.1-13.2a29.4,29.4,0,0,0,5.83-3.18,11.18,11.18,0,0,0,3.21-3.24A22.31,22.31,0,0,1,42-16.46a21.86,21.86,0,0,1-2.62,8,21.28,21.28,0,0,1-4.8,5.82,15.8,15.8,0,0,1-8.19,1.11l-1.77-.22ZM6.4-5.5a1.79,1.79,0,0,1,1.13-.84,4.73,4.73,0,0,1,2,0,2.76,2.76,0,0,0,.76,0,.19.19,0,0,0,.11-.09c0-.07,0-.14-.06-.31a14.44,14.44,0,0,1-.77-3.38v-.06H9.46a22.24,22.24,0,0,1-2.88-.61c-2.22-.66-3.28-1.05-4.11-2.1l-.27-.34.13.42A22.13,22.13,0,0,0,5.56-6.35c.18.24.32.4.48.59l.23.27.07.09Zm.13-5.12A21,21,0,0,0,9.37-10a14.77,14.77,0,0,0,.77,3.36.62.62,0,0,1,.06.18h0a3.12,3.12,0,0,1-.68,0,4.77,4.77,0,0,0-2,0,2,2,0,0,0-1.15.81l-.15-.18C6-6,5.87-6.21,5.69-6.45a21.78,21.78,0,0,1-3.08-6C3.42-11.6,4.5-11.22,6.53-10.62Zm16.64-.78a43.07,43.07,0,0,0,9.48-2.7,31.16,31.16,0,0,0,5.92-3.17,12.56,12.56,0,0,0,3.62-3.81.35.35,0,0,1,.06-.09v0a17.44,17.44,0,0,0-.68-3.73,21.87,21.87,0,0,0-3.5-7.37,21.69,21.69,0,0,0-1.44-1.76l0,0h0a20.17,20.17,0,0,0-2.36,1A38.23,38.23,0,0,0,28-28.61c-1,.81-2.52,2.43-4.34,4.31-2.92,3-6.22,6.41-8.18,7.74a9,9,0,0,1-5.24,1.84h-.09c-.26,0-.44,0-.59.17s.28,3.86.29,3.9v.06h.06a28,28,0,0,0,3.34.23H14A45.79,45.79,0,0,0,23.17-11.4Zm-13.49-3c.11-.11.22-.11.48-.11h.08a9.19,9.19,0,0,0,5.34-1.86c2-1.35,5.29-4.76,8.21-7.77,1.81-1.87,3.38-3.49,4.33-4.3A38.5,38.5,0,0,1,34.28-33a23.06,23.06,0,0,1,2.28-1A20.74,20.74,0,0,1,38-32.22h0a21.7,21.7,0,0,1,3.47,7.31,17,17,0,0,1,.68,3.67l-.05.08a12.44,12.44,0,0,1-3.57,3.75,30.85,30.85,0,0,1-5.89,3.16,42.73,42.73,0,0,1-9.46,2.69,44.05,44.05,0,0,1-9.85,1A26.87,26.87,0,0,1,10-10.75,21.49,21.49,0,0,1,9.68-14.45ZM9.3-10.73A26.87,26.87,0,0,1,9-14.65v-.07H8.91a4.35,4.35,0,0,1-2-.79,5.92,5.92,0,0,1-2.49-2.71A15.88,15.88,0,0,1,3.1-26.82c0-.39.11-.79.18-1.17l.14-.74-.3.69a22.71,22.71,0,0,0-1.61,6h0a22.35,22.35,0,0,0,.56,8.51v0l0,0a10.75,10.75,0,0,0,4.72,2.36L7.3-11a6.59,6.59,0,0,0,1.91.37h.1ZM1.68-22A21.81,21.81,0,0,1,3-27.31l-.06.47a16.17,16.17,0,0,0,1.29,8.69,6.18,6.18,0,0,0,2.55,2.77,4.55,4.55,0,0,0,2,.81,27.68,27.68,0,0,0,.3,3.76,6.08,6.08,0,0,1-1.78-.36l-.5-.15a10.47,10.47,0,0,1-4.62-2.31A22.08,22.08,0,0,1,1.68-22Zm8.64,6.51a13,13,0,0,0,3.53-1.21c1-.47,4.91-4.22,8.37-7.53,2.17-2.07,4.21-4,5.31-5,.22-.18.45-.39.7-.61a23.47,23.47,0,0,1,5.55-3.92,16.9,16.9,0,0,1,2.2-.85l.13,0-.09-.1a18.12,18.12,0,0,0-3.82-3,19.81,19.81,0,0,0-7.7-2.77h0a8.4,8.4,0,0,0-2,.26,10.87,10.87,0,0,0-4,1.65c-2.44,1.89-4.32,5-5.53,7.27-2.39,5.85-2.95,7.61-3.43,13,0,.25,0,.49,0,.72a6.84,6.84,0,0,0,0,1.52.74.74,0,0,0,.75.64ZM24.48-40.38a19.51,19.51,0,0,1,7.63,2.74h0a17.87,17.87,0,0,1,3.7,2.91,15,15,0,0,0-2.1.81,23.82,23.82,0,0,0-5.59,4l-.7.61c-1.1.94-3.14,2.89-5.31,5-3.46,3.3-7.37,7-8.33,7.5a12.67,12.67,0,0,1-3.47,1.18c-.44,0-.56-.23-.65-.52a6.46,6.46,0,0,1,0-1.47c0-.23,0-.47,0-.71.48-5.31,1-7.06,3.42-12.89,1.2-2.2,3.07-5.34,5.47-7.21a10.77,10.77,0,0,1,3.94-1.63,8.84,8.84,0,0,1,1.91-.25ZM8.6-15.89a.72.72,0,0,0,.34-.44c0-.11,0-.54.05-1.23,0-.45,0-1,0-1.39,0-2.08.53-6.52,3.42-12.87a17.6,17.6,0,0,1,5.11-6.55l.21-.16a8.91,8.91,0,0,1,4.48-2v-.16a19.68,19.68,0,0,0-5.85.76,20,20,0,0,0-7,3.67l.05.07-.05-.07a21,21,0,0,0-5.14,6.06,13.07,13.07,0,0,0-.83,3.48,14.93,14.93,0,0,0,1.38,8,6,6,0,0,0,3.11,2.84,1.29,1.29,0,0,0,.4.08A.69.69,0,0,0,8.6-15.89Zm9.08-22.77-.21.17a17.57,17.57,0,0,0-5.17,6.6C9.4-25.51,8.9-21,8.87-18.95c0,.43,0,.94,0,1.39s0,1.09-.05,1.19a.55.55,0,0,1-.26.34.66.66,0,0,1-.58,0,5.76,5.76,0,0,1-3-2.74,14.76,14.76,0,0,1-1.37-7.95,13.38,13.38,0,0,1,.81-3.43,20.93,20.93,0,0,1,5.1-6,19.74,19.74,0,0,1,7-3.64,19.63,19.63,0,0,1,5-.76A9,9,0,0,0,17.68-38.66Z"/></pattern></defs><g id="レイヤー_2" data-name="レイヤー 2"><g id="パターン"><g id="ボールと2号-3" data-name="ボールと2号"><rect class="cls-4" width="977" height="853"/><ellipse class="cls-5" cx="641.5" cy="326.5" rx="128" ry="133"/><path class="cls-4" d="M765.86,290.36a137.15,137.15,0,0,0-22-46.32,130.34,130.34,0,0,0-36.94-34.3c-14.86-9.16-34.27-15.56-48.35-17.4s-34.46-1.14-51,3.63A126.19,126.19,0,0,0,563.41,219a132.89,132.89,0,0,0-32.31,38h0a.64.64,0,0,0,0,.1c-.12.21-.24.4-.35.61a138.44,138.44,0,0,0-16.59,50.69A140.49,140.49,0,0,0,517.57,362a137.15,137.15,0,0,0,22,46.32,130.25,130.25,0,0,0,37,34.3A124,124,0,0,0,614.13,458a36,36,0,0,0,10.73,2h.2a124.66,124.66,0,0,0,16.87,1.16,121.89,121.89,0,0,0,33.92-4.82A126.24,126.24,0,0,0,720,433.28a132.73,132.73,0,0,0,32.7-38.75,138.45,138.45,0,0,0,16.6-50.69A140.49,140.49,0,0,0,765.86,290.36Zm-24.2-44.55a134.23,134.23,0,0,1,21.52,45.33c2.26,8.62,3.66,14.05,4.21,22.9-1.2,1.9-7.16,13.13-22.55,23.94a194.31,194.31,0,0,1-36.46,19.55c-17.16,7.15-33.12,12-58.45,16.64-21.79,4.5-42.55,6.87-61,6.42a179.58,179.58,0,0,1-20.6-1.46c-1.32-8.92-2.78-22.77-2-23.64s1.76-.88,3.35-.88c1.38,0,13.36,2.05,33.12-11.38S665,281.8,680.27,268.8c16.22-13.87,28.11-22.18,38.13-27.73,7.81-3.59,12.55-5.61,14.43-6.08A132.49,132.49,0,0,1,741.66,245.81Zm-36.15-33.55A108.35,108.35,0,0,1,729,230.86a97.61,97.61,0,0,0-13.64,5.25c-16.66,7.65-29.62,20.26-38.73,28.06-17.58,15-74.56,72.35-84.3,77s-18.46,7.18-21.62,7.38-4-1.84-4.54-3.59-.15-7.66,0-13.63c2.9-32.08,6.12-43,21.15-79.77,8.91-16.35,20-33.86,34-44.66,8.63-6.13,17.47-8.51,24.44-10.15a52.44,52.44,0,0,1,12.43-1.55h.08A121.36,121.36,0,0,1,705.51,212.26ZM565.1,221.35a123.15,123.15,0,0,1,43.22-22.56,119.27,119.27,0,0,1,33.19-4.72c.93,0,1.87,0,2.81,0-15.27,2.31-23,9-29.19,13.69-12.84,9.8-23.33,23.07-31.73,40.57-17,37.36-20.87,64.5-21.15,79.68-.28,6.13-.28,14.89-.56,16.06s-1.72,3.91-5.84,2.33c-7.83-3-15.53-9.86-18.93-17.22-9.32-20.14-9.83-37.31-8.5-49.34a81.4,81.4,0,0,1,5.1-21.36A129.81,129.81,0,0,1,565.1,221.35Zm-48.23,87.51a136.16,136.16,0,0,1,9.9-36.74c-.43,2.23-.81,4.67-1.1,7.3-1.39,12.45-1.73,32.48,7.91,53.3,3.9,7.3,7.79,12.55,15.59,16.93a26.81,26.81,0,0,0,12.8,5,163.7,163.7,0,0,0,1.95,24.23c-6.68-.29-9.51-1.68-14.75-3.21a65.1,65.1,0,0,1-28.91-14.46A137.23,137.23,0,0,1,516.87,308.86Zm5,57.05c5.28,6.68,12,9.09,25.6,13.1a134.2,134.2,0,0,0,17.81,3.79c3.06,21.6,6.4,22.18,4.73,22.77s-11.77-2.06-16.74-.15-6.11,3.53-7.19,5.4c-1.68-2-2.78-3.18-4.34-5.32A133.76,133.76,0,0,1,521.9,365.91Zm56,74.15a111.39,111.39,0,0,1-27.64-23.28c.84-3.21,1.64-3.8,5-5.54,9.46-.88,12-1.17,14.2.29a25.74,25.74,0,0,1,5.82,6c5.06,14.48,9.24,19.77,16.17,27,2.82,3,9,6.47,9,6.47S585.13,444.5,577.92,440.06Zm97.19,13.46a119.52,119.52,0,0,1-49.89,3.56c-3.41-.48-6.79-1.09-10.12-1.84A51.52,51.52,0,0,1,594,441.47c-7.32-7.69-12-17.39-14.75-23.52-.84-3.5-.47-4.86.45-4.78a87.86,87.86,0,0,1,32.67,9.16c21.37,10.74,41.51,16,56.78,17.2a137.75,137.75,0,0,0,19.21.31,155.42,155.42,0,0,0,25.79-5.64A122.77,122.77,0,0,1,675.11,453.52Zm-16.36-18.8a34.69,34.69,0,0,1-6.89-1.55c-12.34-4.12-18.35-6-37.56-14.64-18-9-39.25-12-39.8-12.25s-3.51-14.45-4.73-21.9a169.26,169.26,0,0,0,19.2,1.46c1.74.05,24.39,0,26.16,0a308.93,308.93,0,0,0,36.75-5.25c22-4.56,41.91-10.26,59.28-17.51a185.13,185.13,0,0,0,35.91-19.56c11.64-8.21,18.37-16.93,20.55-21.53a140.57,140.57,0,0,1-1,21.46,135.52,135.52,0,0,1-16.24,49.61,129.94,129.94,0,0,1-29.78,36.08c-12.45,5.16-27.48,9.24-50.86,6.91Z"/><path class="cls-4" d="M641.93,461.66A125.45,125.45,0,0,1,625,460.49h-.15a36.42,36.42,0,0,1-10.88-2A124.65,124.65,0,0,1,576.25,443a130.83,130.83,0,0,1-37.09-34.43,137.58,137.58,0,0,1-22.07-46.49,141.09,141.09,0,0,1-3.48-53.67,139.22,139.22,0,0,1,16.65-50.88l.35-.6.21-.5.06,0a133.19,133.19,0,0,1,32.21-37.82,126.62,126.62,0,0,1,44.35-23.15c18.2-5.25,38.95-5.25,51.2-3.65,15.34,2,34.85,9,48.55,17.47a131,131,0,0,1,37.09,34.43,137.75,137.75,0,0,1,22.06,46.49,140.69,140.69,0,0,1,3.48,53.67,139,139,0,0,1-16.65,50.88,133.29,133.29,0,0,1-32.83,38.89A126.62,126.62,0,0,1,676,456.82,122.79,122.79,0,0,1,641.93,461.66ZM625,459.5h.09a123.64,123.64,0,0,0,16.8,1.16,121.85,121.85,0,0,0,33.78-4.8,125.56,125.56,0,0,0,44-23,132.2,132.2,0,0,0,32.59-38.6,138.13,138.13,0,0,0,16.53-50.52,139.86,139.86,0,0,0-3.45-53.28,136.86,136.86,0,0,0-21.91-46.16,129.78,129.78,0,0,0-36.81-34.16c-13.58-8.38-32.93-15.35-48.15-17.33-12.15-1.59-32.74-1.6-50.79,3.61a125.73,125.73,0,0,0-44,23,132.07,132.07,0,0,0-32.18,37.9l-.24.42h0l-.16.28a138,138,0,0,0-16.54,50.52,139.86,139.86,0,0,0,3.46,53.28A136.65,136.65,0,0,0,540,408a130.24,130.24,0,0,0,36.81,34.17,124,124,0,0,0,37.47,15.37,35.35,35.35,0,0,0,10.61,2Zm16.89-.76a121.79,121.79,0,0,1-16.78-1.17c-3.39-.47-6.81-1.09-10.16-1.84a52.14,52.14,0,0,1-21.38-13.92c-7.84-8.24-12.74-19-14.84-23.65-.66-2.74-.67-4.37,0-5.09a1.16,1.16,0,0,1,1-.4,88,88,0,0,1,32.86,9.21c19.36,9.74,39.45,15.83,56.59,17.15a136.79,136.79,0,0,0,19.14.31A154.43,154.43,0,0,0,714,433.72l2.72-.8-2.28,1.68A123.35,123.35,0,0,1,675.25,454h0A119.46,119.46,0,0,1,641.93,458.74Zm-62.32-45.08a.13.13,0,0,0-.13.06c-.1.11-.54.84.24,4.11,2,4.48,6.89,15.18,14.62,23.29a50.91,50.91,0,0,0,20.92,13.64c3.27.74,6.66,1.36,10,1.82A118.86,118.86,0,0,0,675,453h0a122.16,122.16,0,0,0,36.52-17.55,149.81,149.81,0,0,1-23.09,4.85,137.06,137.06,0,0,1-19.34-.31c-17.23-1.34-37.46-7.46-56.93-17.25a87,87,0,0,0-32.49-9.11Zm20.71,37.78c-.16-.06-15.5-6.55-22.66-11h0a111.6,111.6,0,0,1-27.76-23.37l-.17-.2.07-.25c.9-3.48,1.91-4.14,5.26-5.87l.19-.05,1-.09c8.88-.82,11.27-1,13.56.46a25.85,25.85,0,0,1,6,6.2c5.15,14.76,9.5,20,16.06,26.86,2.74,2.87,8.86,6.34,8.92,6.38Zm-49.49-34.78a111.18,111.18,0,0,0,27.35,23A168.15,168.15,0,0,0,594.85,448a27.38,27.38,0,0,1-3.74-3.1c-6.64-7-11.06-12.27-16.27-27.21a26,26,0,0,0-5.63-5.7c-2-1.32-4.31-1.1-12.91-.3l-.87.08C552.23,413.38,551.57,413.92,550.83,416.66Zm131.83,20.56a129.85,129.85,0,0,1-13-.68l-10.95-1.32a35.72,35.72,0,0,1-7-1.58l-1.36-.45c-11.43-3.81-17.73-5.91-36.24-14.2-15.2-7.64-32.4-10.84-38.06-11.89a10.06,10.06,0,0,1-1.78-.38c-1.11-.59-4.69-20.44-5-22.25l-.11-.67.67.09A170.68,170.68,0,0,0,589,385.34c1.4,0,16.64,0,23.15,0h3a310,310,0,0,0,36.65-5.24c23.06-4.77,42.43-10.49,59.19-17.48a184.65,184.65,0,0,0,35.81-19.51c12.2-8.6,18.55-17.46,20.38-21.34l.9-1.88.06,2.08a140.42,140.42,0,0,1-1.06,21.55,135.81,135.81,0,0,1-16.29,49.78,130.46,130.46,0,0,1-29.9,36.22l-.13.08A94.18,94.18,0,0,1,682.66,437.22Zm-23.85-3,10.94,1.32c24.1,2.4,39.07-2.1,50.53-6.84a129.53,129.53,0,0,0,29.62-35.9,135.1,135.1,0,0,0,16.17-49.42,139.77,139.77,0,0,0,1.09-19.47c-2.95,5.07-9.49,12.73-19.8,20a186.06,186.06,0,0,1-36,19.61c-16.83,7-36.25,12.76-59.38,17.54a309.82,309.82,0,0,1-36.8,5.26h-3c-6.51,0-21.76,0-23.17,0A171.1,171.1,0,0,1,570.37,385c1.28,7.63,3.8,19.44,4.44,20.88l1.42.27c5.68,1.05,23,4.27,38.29,12,18.46,8.25,24.74,10.35,36.14,14.15l1.35.46a35.38,35.38,0,0,0,6.8,1.53ZM546.18,411.69l-.46-.55c-.51-.62-1-1.16-1.4-1.67-1-1.17-1.86-2.18-3-3.68a134.3,134.3,0,0,1-20-39.74l-.79-2.56,1.66,2.1c5.09,6.44,11.63,8.89,25.35,12.94a133.14,133.14,0,0,0,17.75,3.78l.36.05.06.37c1.89,13.39,3.88,18.63,4.73,20.87.4,1,.57,1.48.37,1.9a1.12,1.12,0,0,1-.7.54c-.68.24-2.06.08-4.66-.23-3.8-.47-9-1.1-12.07.07-4.7,1.8-5.84,3.29-6.94,5.19Zm-23.07-43.61a133.77,133.77,0,0,0,19.06,37.12c1.08,1.47,1.92,2.47,2.91,3.62l1,1.14c1.1-1.75,2.6-3.29,7.09-5,3.3-1.26,8.64-.61,12.54-.14a18.46,18.46,0,0,0,4.21.29l.11-.05a8.61,8.61,0,0,0-.38-1.1c-.85-2.25-2.84-7.48-4.74-20.71a134,134,0,0,1-17.51-3.75C534.8,375.78,528.16,373.38,523.11,368.08Zm70.36,13.06c-1.52,0-3,0-4.51-.05a179.07,179.07,0,0,1-20.66-1.46l-.37-.06,0-.37c0-.22-3.23-22.57-1.82-24.06,1-1,2.07-1,3.71-1l.52,0c11.72.83,24-5.7,32.32-11.32,12.12-8.24,32.53-29.27,50.53-47.82,11.23-11.57,20.93-21.57,26.8-26.58,15-12.82,27.13-21.65,38.22-27.79,8.23-3.78,12.71-5.67,14.56-6.12l.28-.08.21.23A134.08,134.08,0,0,1,763.66,291c2.21,8.39,3.66,13.94,4.23,23v.16l-.09.14-.37.61a77.6,77.6,0,0,1-22.31,23.46A195,195,0,0,1,708.57,358c-18.21,7.59-34.63,12.26-58.55,16.67C629.18,379,610.18,381.14,593.47,381.14Zm-24.66-2.45a179.68,179.68,0,0,0,20.17,1.4c17.7.44,38.17-1.72,60.85-6.41,23.85-4.4,40.21-9.06,58.36-16.61a194.29,194.29,0,0,0,36.36-19.5,76.71,76.71,0,0,0,22-23.16l.3-.5c-.57-8.87-2-14.36-4.19-22.65a133.63,133.63,0,0,0-21.43-45.15h0a132.05,132.05,0,0,0-8.59-10.56c-1.94.56-6.44,2.47-14.06,6-11,6.08-23.08,14.87-38,27.65-5.84,5-15.52,15-26.73,26.52-18,18.58-38.48,39.65-50.69,47.94-8.41,5.71-20.94,12.34-32.95,11.5l-.45,0c-1.63,0-2.32,0-3,.72C566.28,356.83,567.29,368.31,568.81,378.69Zm-4.31.68-.6,0a39.66,39.66,0,0,1-11.85-2.3c-.94-.3-1.93-.61-3-.93a65.92,65.92,0,0,1-29.1-14.56l-.12-.1,0-.15a138.05,138.05,0,0,1-3.4-52.51l.5.07-.5-.07a137.53,137.53,0,0,1,9.94-36.87l1.8-4.22-.85,4.51c-.45,2.39-.82,4.83-1.09,7.27-2.16,19.25.49,37.1,7.86,53,3.9,7.29,7.67,12.37,15.38,16.71a26.68,26.68,0,0,0,12.63,4.9l.42.05v.43a163.77,163.77,0,0,0,1.94,24.17ZM520.7,360.9a65,65,0,0,0,28.57,14.24c1.14.33,2.14.65,3.08.95a39,39,0,0,0,11,2.22,161.6,161.6,0,0,1-1.86-23.26,27.3,27.3,0,0,1-12.61-5c-7.84-4.4-11.84-9.8-15.73-17.09-7.47-16.13-10.14-34.15-8-53.59.11-1,.24-2,.37-2.93a138.28,138.28,0,0,0-4.84,84.46Zm49.57-11.82c-3.34,0-4.16-2.55-4.6-3.95s-.32-4.92-.16-9.39c0-1.42.1-2.91.14-4.4,3-33,6.42-43.82,21.19-79.95,7.46-13.71,19.09-33.21,34.11-44.86,8.24-5.85,16.71-8.38,24.64-10.25a53.8,53.8,0,0,1,12.55-1.56l.14,0a121.66,121.66,0,0,1,47.5,17.09,110.38,110.38,0,0,1,23.56,18.68l.57.6-.8.23a97.19,97.19,0,0,0-13.56,5.22c-14.12,6.48-25.78,16.73-34.29,24.21q-2.29,2-4.33,3.78c-6.74,5.75-19.38,17.83-32.76,30.62-21.36,20.42-45.57,43.56-51.64,46.47-10,4.8-18.78,7.23-21.81,7.43Zm87.35-153.36a53.44,53.44,0,0,0-11.8,1.54c-7.83,1.84-16.19,4.33-24.27,10.07-14.86,11.53-26.41,30.91-33.81,44.49-14.69,36-18.13,46.78-21.1,79.57,0,1.47-.08,3-.13,4.39-.14,4-.28,7.82.11,9.05.58,1.81,1.32,3.41,4,3.24,3-.19,11.54-2.59,21.43-7.33,5.93-2.85,30.08-25.93,51.39-46.29,13.39-12.8,26-24.89,32.8-30.66,1.35-1.16,2.79-2.43,4.32-3.77,8.56-7.52,20.28-17.83,34.53-24.36a101.58,101.58,0,0,1,12.91-5,109,109,0,0,0-22.79-17.93h0a120.76,120.76,0,0,0-47.1-17Zm-99.48,151.7a7,7,0,0,1-2.47-.51c-8.09-3.1-15.81-10.13-19.2-17.48-7.52-16.24-10.39-32.93-8.55-49.61a81.42,81.42,0,0,1,5.14-21.49A130.27,130.27,0,0,1,564.79,221l.31.39-.31-.39a123.7,123.7,0,0,1,43.39-22.65,120,120,0,0,1,36.15-4.7l.06,1c-14.09,2.13-21.61,7.94-27.65,12.6l-1.3,1c-13,9.88-23.28,23.09-31.59,40.39C566,287.78,563,315.2,562.75,328.06c-.12,2.65-.19,5.79-.25,8.56-.09,4.27-.16,6.92-.32,7.6A4.33,4.33,0,0,1,560.1,347,4.14,4.14,0,0,1,558.14,347.42Zm81-152.82a118.72,118.72,0,0,0-30.69,4.67,122.69,122.69,0,0,0-43.05,22.47,129.5,129.5,0,0,0-31.46,37,81,81,0,0,0-5,21.16c-1.83,16.5,1,33,8.45,49.08,3.3,7.13,10.8,13.95,18.66,17a4.32,4.32,0,0,0,3.6.1,3.31,3.31,0,0,0,1.58-2.08c.14-.61.21-3.9.29-7.39.06-2.78.13-5.93.25-8.57.24-12.92,3.31-40.5,21.2-79.87,8.38-17.45,18.8-30.78,31.88-40.76l1.3-1C621.49,202.27,628,197.24,639.15,194.6Z"/><path class="cls-6" d="M319,595.88a2.32,2.32,0,0,0-2.41,2.64c.52,3.82,3.08,7.43,4.14,11.21A15.33,15.33,0,0,1,318.9,622c-.92,1.43-2.08,2.7-3,4.13-2.32,3.61-3,8-3.6,12.25-.21,1.48-.41,3.07,1.06,4.25a4.19,4.19,0,0,0,3.32.8c2.33-.4,4-2.16,5.56-3.85l4.58-4.94a23,23,0,0,0,3.78-4.91,18.2,18.2,0,0,0,1.69-6,25,25,0,0,0,.23-5.53,17.31,17.31,0,0,0-6.56-12,4.25,4.25,0,0,0,1.76.24,1.46,1.46,0,0,0,1.28-1.07,2.05,2.05,0,0,0-.24-1.13c-1.45-3.14-4.45-5.25-7.32-7.2a6.25,6.25,0,0,0-2.15-1.09A2.4,2.4,0,0,0,319,595.88Z"/><path class="cls-5" d="M374,634.83c0-6.75.35-13.53-.23-20.22-.73-8.48-1.44-17.19-8.66-23.32-.54-2.88-3.77-6.47-4.63-5.45-4,4.73-5.05-.37-6.75-1.65-7.87-5.91-16.18-10.31-26.41-9.16-4.21.47-11,3.51-10.42,5,2.35,5.73-3.17,4.58-4.43,6.79-.84-1-1.69-1.93-2.53-2.89-.34-1.63.3-3.6-1.57-4.71h0c-4.11-9.18-8.22-18.35-13.47-27a4.36,4.36,0,0,0-2.72-4.49h0L289.07,545h0c-.85-2.17-.12-3.09,2.21-3.19,1.81-.07,4,.71,5.26-1.4,2-.59,5.82.71,4.34-3.6-1.63-4.76,1.56-6.41,4.56-8.38,2.46-.07,4.7-.58,5.89-3.1l0,0c4.25-.17,3.17-3,2.33-5.24S311,516,311,513.33l6.28-4.78c5.56-.71,2.15-3.09,1.06-5.26-2-3.93-7.53-6.65-4.25-12.4l1.7-1.84c4.65-3.68,7.91-7.18.71-11.86-3.46-2.25-6.22-5.58-9.26-8.45-2.39-2.26-6.18-18.93-4.12-21.19,3.76-4.11,0-4.64-2.17-6.13,2.29-3.46-2-6.06-.79-10,4.48-14.69,3.94-30,3.65-45.16-.13-6.82-2.68-7.25-7.38-3.32-1.14.15-2.52-.22-3,1.39-4.24.81-8.39,1.85-11.86,4.64-6.76,1.44-11.48,6.28-16.65,10.3-1.93,1.5-3.72,2.43-6,1.69-20.19-6.41-40.4-8.1-60.68-.44a4.88,4.88,0,0,1-5.41-.81c-11.55-9.27-25.74-12.41-39.39-16.79-2-2.23-2.69-1.34-3,1.13-.59,5.27.72,10.3,1.68,15.39v1.52c.05,2.56-1.15,5.31,1.19,7.5.53,3-1.08,6.36,1.49,9a28.14,28.14,0,0,0,4.93,16c1,1.53,2.84,3.56,1.71,5-4.12,5.3-3.52,11.81-4.68,17.7-1.83,9.31-3.67,17.92-12.91,23-5.57,3.06-4.86,7.45-.94,11.71a2.47,2.47,0,0,1,.58-.3c-.19.09-.39.19-.58.3l0,0c5.12,6.49-1.6,10.15-3.89,14.27,1.7,3.39,8.95,1.27,6.49,5.77-5.47,10,2.33,12.14,7.76,16l1.58,1.39c.58,1,1.9,2.42,1.61,3-4.48,8.51,2.32,5.46,5.78,5.81a3.31,3.31,0,0,0,1.39.3c1.18,2,6.55.88,3.74,6-1.06,2,2.24,1.35,3.66,1.68.07.53.15,1.06.23,1.58h0c-.91,2-3.61,2.92-3.12,5.65h0c-5.42,8.45-9.53,17.56-13.33,26.82h0c-1.9,1.27-1.45,3.19-1.38,5h0c-1.12,1.6-2,3.29-1.42,5.35h0a159.62,159.62,0,0,0-7.55,32.8c-.63,4.77.9,8.23,5.83,9.59h0l1.44,1.45c.55,6.48.58,12.83-4.43,17.92-17.17,13.4-26.9,35.46-15.22,58.28a75.65,75.65,0,0,0,28.5,34.77c1,1.8,2.35,3.08,4.6,2.94h0c.06,1.42.13,2.84.19,4.26C162,756,160,760.35,166.86,763.6h2.74l7.7,1.53h0l2.74-.06h0c3.7.87,7.12-.39,10.56-1.41h0l2.9,3.27h0c1.81,2.68,4,4.32,7.45,3h0c4.8,2.7,9.94,1.91,14.88,1,4.42-.86,7.44-3.5,6.1-8.8h0l3-2.57h0c5.39-3.68,11,0,16.42-.41-.33,6.56,1.93,11.14,9,12.06h0c3.88,2.44,7.75,2,11.62,0h0l3.18-1.48h0c2.12,1.37,3.26-.19,4.49-1.51h0l2.94-4.48h0c0-.39,0-.78,0-1.17,0-.15,0-.3,0-.45h0v.44l1.46-.34h0c3.14,3,6.89,1,10.36,1.26l1.69-1.08h0a11.2,11.2,0,0,1,7.42,1.21h0l1.6-1.19h0c8-1.74,4.72-7.46,4.27-12.19h0c2.25-4.42,8.69-3.94,10.42-9h0c12.51-7,18.88-18.73,23.91-31.48,1.4-3.88,3.51-7.67,4-11.67.77-5.79,1.34-11.31,6.69-13.17a7.64,7.64,0,0,1,1.08.07,3.33,3.33,0,0,0,2.15-.69l.94,0c2.87-1.42.28-4.17,1.45-6,4.63-.26,8.43-2.53,11.75-5.45C372.29,663.62,375,651,376.76,638,377,635.91,376.31,634.68,374,634.83ZM287.88,505.27c-.26-.34-.44-1.13-.24-1.37a1.71,1.71,0,0,1,.11-.14q.25,1,.45,1.95C288.09,505.57,288,505.42,287.88,505.27Zm1.86-83c0,.1,0,.2,0,.3l-.09-.27Zm-119.22-4.67,0,0,0,0Zm1.69.13h0l.2-.05v.19l-.2-.14Zm-15.76-15.6h0v0Z"/></g></g></g></svg>