<svg xmlns="http://www.w3.org/2000/svg" viewBox="0 0 80 66.85"><defs><style>.cls-1,.cls-3{fill:#b4dcfc;}.cls-2{fill:#cfeafc;}.cls-3{stroke:#b4dcfc;stroke-miterlimit:10;stroke-width:0.5px;}</style></defs><g id="レイヤー_2" data-name="レイヤー 2"><g id="トップページ"><rect class="cls-1" width="80" height="66.85"/><ellipse class="cls-2" cx="22.91" cy="18.85" rx="11.53" ry="11.98"/><path class="cls-3" d="M34.42,20.41A12.5,12.5,0,0,1,32.92,25,11.92,11.92,0,0,1,30,28.47a11.23,11.23,0,0,1-4,2.07A10.92,10.92,0,0,1,23,31a11.1,11.1,0,0,1-1.52-.11h0a3.2,3.2,0,0,1-1-.18,10.83,10.83,0,0,1-3.38-1.39,11.5,11.5,0,0,1-3.33-3.08,12.38,12.38,0,0,1-2-4.18,12.57,12.57,0,0,1-.31-4.81,12.36,12.36,0,0,1,1.49-4.57l0-.05h0a11.86,11.86,0,0,1,2.91-3.43,11.19,11.19,0,0,1,4-2.07,12.25,12.25,0,0,1,4.6-.33A12.09,12.09,0,0,1,28.8,8.34a11.65,11.65,0,0,1,3.33,3.09,12.43,12.43,0,0,1,2,4.17A12.77,12.77,0,0,1,34.42,20.41Zm-3.29-9.8a10.5,10.5,0,0,0-1.3.55,21.25,21.25,0,0,0-3.43,2.5c-1.37,1.17-5.19,5.49-7,6.7a4.43,4.43,0,0,1-3,1c-.14,0-.23,0-.3.08a10,10,0,0,0,.17,2.13,15.66,15.66,0,0,0,1.86.13,24.5,24.5,0,0,0,5.49-.58,24.15,24.15,0,0,0,5.26-1.49,17.09,17.09,0,0,0,3.28-1.77,6.55,6.55,0,0,0,2-2.15,9.58,9.58,0,0,0-.37-2.06,12.09,12.09,0,0,0-1.94-4.08A11,11,0,0,0,31.13,10.61ZM24.41,7h0a5,5,0,0,0-1.12.14,6,6,0,0,0-2.2.91,13,13,0,0,0-3.06,4,19.45,19.45,0,0,0-1.91,7.19,8,8,0,0,0,0,1.23c.05.15.13.34.41.32a7.16,7.16,0,0,0,1.95-.67c.88-.42,6-5.58,7.59-6.93a15.15,15.15,0,0,1,3.49-2.53,8.75,8.75,0,0,1,1.23-.47,9.81,9.81,0,0,0-2.12-1.68A11,11,0,0,0,24.41,7Zm-11.23,5.7a7.43,7.43,0,0,0-.46,1.92,8.36,8.36,0,0,0,.77,4.45,3.31,3.31,0,0,0,1.7,1.55c.38.14.51-.11.53-.21s0-.9,0-1.45a18.71,18.71,0,0,1,1.91-7.17,9.74,9.74,0,0,1,2.85-3.66,5.23,5.23,0,0,1,2.63-1.23h-.25a10.85,10.85,0,0,0-3,.42,11.16,11.16,0,0,0-3.89,2A11.78,11.78,0,0,0,13.18,12.73ZM12,22a5.78,5.78,0,0,0,2.6,1.31,4.66,4.66,0,0,0,1.33.28,14.63,14.63,0,0,1-.17-2.18,2.48,2.48,0,0,1-1.16-.44,3.39,3.39,0,0,1-1.4-1.53,8.93,8.93,0,0,1-.71-4.8,5.76,5.76,0,0,1,.1-.66A12.36,12.36,0,0,0,12,22Zm1.94,4c.14.19.24.29.39.47.09-.16.2-.31.65-.48s1.35.06,1.5,0-.15-.1-.42-2a12.7,12.7,0,0,1-1.61-.34,4,4,0,0,1-2.3-1.18A12.21,12.21,0,0,0,13.93,26Zm5.29,4.09a5,5,0,0,1-.82-.58A5.62,5.62,0,0,1,17,27a2.59,2.59,0,0,0-.53-.53c-.2-.13-.42-.11-1.28,0-.3.16-.37.21-.45.5a10,10,0,0,0,2.49,2.1A20.24,20.24,0,0,0,19.22,30.06Zm10.23-1.51a14.59,14.59,0,0,1-2.32.51,14.16,14.16,0,0,1-1.73,0,14.33,14.33,0,0,1-5.12-1.55,7.81,7.81,0,0,0-2.94-.82c-.08,0-.11.11,0,.43a7.59,7.59,0,0,0,1.33,2.11,4.54,4.54,0,0,0,1.9,1.24,9.12,9.12,0,0,0,.91.17,10.79,10.79,0,0,0,4.49-.32A10.93,10.93,0,0,0,29.45,28.55Zm-4,.17A8.8,8.8,0,0,0,30,28.09a11.56,11.56,0,0,0,2.68-3.25,12.15,12.15,0,0,0,1.46-4.46,12.53,12.53,0,0,0,.09-1.93,5.82,5.82,0,0,1-1.85,1.93,16.32,16.32,0,0,1-3.23,1.77,29.38,29.38,0,0,1-5.34,1.57,29,29,0,0,1-3.31.48H18.18a15.74,15.74,0,0,1-1.73-.14,17.41,17.41,0,0,0,.42,2,13.63,13.63,0,0,1,3.59,1.1,29.21,29.21,0,0,0,3.38,1.32,4.29,4.29,0,0,0,.62.14Z"/><path class="cls-2" d="M72.6,36.79a6.17,6.17,0,0,0-.93-.76,11.44,11.44,0,0,0-3.28-1.29,2.8,2.8,0,0,0-1.1-.21l-4.35.77a2.87,2.87,0,0,1-1.13.12c-.39-.07-.77-.15-1.16-.21-.2,0-.41-.14-.62,0a.48.48,0,0,1-.29,0A27.29,27.29,0,0,0,56.36,35a31.39,31.39,0,0,0-5,.31,15.79,15.79,0,0,0-4.9,1.38,3.76,3.76,0,0,0-1.58,1.4.51.51,0,0,0-.06.2,7.77,7.77,0,0,0,0,1.6,1.29,1.29,0,0,0,.11.47,2.31,2.31,0,0,0,.74,1,2,2,0,0,1,.59.57,14.52,14.52,0,0,1,1,2,11.37,11.37,0,0,1,.81,2.27,9.42,9.42,0,0,0,.37,1.48,13.29,13.29,0,0,1,.58,2.05,11.07,11.07,0,0,0,.42,1.79,7,7,0,0,1,.5,2,7.81,7.81,0,0,1,.11,1.45c-.15.92-.33,1.84-.49,2.76-.07.42-.14.84-.2,1.26h0l.28-.31.13.41.16-.39h0c0-.05,0-.09.08-.12v.39l0,1.22c.15-.11.18-.27.3-.35.08.09,0,.22.13.3l.73-1.17.53,2.21.16-.2s.06-.09.08,0c.12.21.14,0,.17,0,.32-.47.63-.95,1-1.46l1,2.34,1.37-2.14,1.32,2.23,1.14-2.32c.08.11.12.19.18.27.4.52.6,1.2,1.22,1.59L60,59.15l.84,1.32c.08-.1,0-.2.13-.27l.26.37.19-1.73h0c0-.05,0-.12,0-.14s.06.06.07.1a4.25,4.25,0,0,0,.33.63l.11-.38.28.34a7.87,7.87,0,0,0,0-1c0-.09-.08-.2,0-.27s0-.07.06-.11c-.17-.79-.32-1.59-.42-2.4a4.91,4.91,0,0,1-.14-1.12,11.47,11.47,0,0,1,.37-2c.6-1.93,1-3.91,1.64-5.84.19-.62.31-1.27.55-1.87.41-1,.89-1.9,1.34-2.85a.43.43,0,0,1,.2-.22,2.79,2.79,0,0,0,.91-.83c.08-.11.2-.19.22-.33s0-.31.25-.34.12-.11.12-.2,0-.3,0-.45,0-.18.18-.21c1.59-.3,3.17-.62,4.76-.93a.34.34,0,0,0,.32-.36c0-.35,0-.71.07-1.06C72.65,36.93,72.66,36.85,72.6,36.79ZM61,37.14a17.44,17.44,0,0,1,1.79.46c-.57.66-1.11,1.31-1.68,2l-.49-2C60.51,37,60.51,37.05,61,37.14ZM61,53.68c-.1-.28-.21-.52.06-.76C61,53.17,61.1,53.41,61,53.68Zm-.29-1.15c-.07-.34-.13-.63-.18-.91s-.06-.27.16-.55a7.21,7.21,0,0,1,.28.91C61,52.17,60.77,52.32,60.66,52.53Zm-.19,2.65c-.27-.43.07-.77.07-1.18C60.85,54.43,60.58,54.78,60.47,55.18Zm.59,1.23c-.35-.6-.36-.75-.12-1.13A2.33,2.33,0,0,1,61.06,56.41Zm-.48-6.58-.4-.7c0-.06,0-.11,0-.16L61,48c.06.36.1.67.15,1a.15.15,0,0,1,0,.13Zm-.84,5.43a.31.31,0,0,1-.11.22c0-.1,0-.15.07-.22a.89.89,0,0,1,.18-.32.5.5,0,0,1-.14.32Zm-.19-2.42a.15.15,0,0,1,0-.13l.56-.87c.09.46.16.84.23,1.23,0,.09-.06.16-.1.23s-.19.37-.31.59C59.8,53.52,59.67,53.18,59.55,52.84Zm-.4,2.56-.57-.95a.21.21,0,0,1,0-.22c.15-.33.39-.61.59-1,.06.15.1.26.15.36C59.7,54.54,59.7,54.54,59.15,55.4Zm.43.18a.23.23,0,0,1-.11.21C59.48,55.68,59.49,55.63,59.58,55.58Zm-8.06-3.83a7.48,7.48,0,0,1-.62-1.13A1.52,1.52,0,0,1,51,49.51l.72,1.1a.17.17,0,0,1,0,.11A5.76,5.76,0,0,1,51.52,51.75Zm.1,2.62c0-.11-.19-.2-.07-.36A.65.65,0,0,1,51.62,54.37ZM51,51.8l-.14-.26A.24.24,0,0,1,51,51.8Zm-1-5c-.11-.21,0-.47.07-.7s.14-.37.23-.59l.81,1a.14.14,0,0,1,0,.11L50.79,48C50.49,47.55,50.21,47.17,50,46.76Zm.69,6.78c.26.26.19.51,0,.81A2.45,2.45,0,0,1,50.68,53.54Zm-1.6-10.3A.24.24,0,0,1,49,43c0-.1.14,0,.21,0l.94.21c.07,0,.13,0,.1.13-.11.34-.2.68-.31,1.06C49.65,44,49.37,43.59,49.08,43.24Zm3.2,1.29.83,1c.06.07,0,.11,0,.16l-1,1.29-.47-.63a.15.15,0,0,1,0-.16C51.84,45.66,52.05,45.12,52.28,44.53Zm-.23-1c.07,0,.14-.07.19,0a.12.12,0,0,1,0,.08C52.1,43.69,52.1,43.59,52.05,43.54Zm4.49,3.24.55,1a.18.18,0,0,1,0,.21l-.44.75-.88-.95c0-.05-.06-.09,0-.14Zm-.46-.32,0,0,.12-.2c.07.11,0,.29-.09.31S56.06,46.51,56.08,46.46Zm.62-.93c.19.21.25.14-.05.43C56.46,45.79,56.56,45.66,56.7,45.53Zm1.35-.46.3.57c0,.11.19.22.14.34a2.52,2.52,0,0,1-.31.44c-.06.07-.09,0-.13,0-.15-.2-.31-.39-.47-.59s-.07-.1,0-.17ZM58,43.84a.27.27,0,0,1,.3-.18,2.68,2.68,0,0,0,.39,0l-.06.09-.47.54C58.09,44.11,57.93,44,58,43.84Zm.52,2.92.21-.29a2.73,2.73,0,0,0,.14.36c.08.15,0,.22-.1.3s-.09,0-.12,0S58.38,46.94,58.51,46.76Zm-.27,1c-.16.15-.3.32-.46.49a.31.31,0,0,1,0-.44c.08-.08.13-.2.21-.28s0-.23.18-.12S58.42,47.57,58.24,47.73ZM57.6,44.9c-.09.08-.16.2-.25.28s-.07.2-.18.09-.19-.16-.06-.31.34-.44.51-.66C57.84,44.53,57.83,44.72,57.6,44.9Zm-.44,1.19.6.75a.13.13,0,0,1,0,.18c-.11.14-.2.28-.33.45-.18-.34-.35-.64-.5-1S57.08,46.25,57.16,46.09Zm0,2.71a1,1,0,0,1,.16-.31C57.45,48.63,57.43,48.66,57.19,48.8Zm-1,.79-.68-1.27,0,0c.26.29.55.58.79.89C56.42,49.3,56.22,49.41,56.18,49.59Zm-.3-3.72-.74,1.26L54,45.87c-.06-.06,0-.1,0-.15.3-.49.59-1,.9-1.52l1,1.4A.2.2,0,0,1,55.88,45.87Zm-.41,2.32c0,.07-.07,0-.09,0s0,0,0-.09S55.49,48.14,55.47,48.19Zm-.8-.37c.1.15,0,.3-.13.41s-.42.47-.63.7c-.06.07-.1.08-.16,0L53,48.12a.18.18,0,0,1,0-.21c.23-.51.44-1,.68-1.58C54,46.85,54.37,47.33,54.67,47.82Zm-2-.17c-.22-.13-.22-.26-.07-.43a4,4,0,0,0,.35-.46l.07,0Zm.43-1c-.07,0,0-.07,0-.1l.08-.06C53.15,46.54,53.15,46.62,53.09,46.61Zm-1.31.68a.09.09,0,0,1,0,.12c-.23.31-.45.63-.67.94l-.05,0,.35-1.46A2.75,2.75,0,0,1,51.78,47.29Zm-.33,1.5.7-.95a.65.65,0,0,1,.2.79c-.13.36-.21.75-.32,1.16l-.6-.83C51.38,48.89,51.41,48.85,51.45,48.79ZM52,51.43l.07-.27c.18.13,0,.23,0,.33s0,.1-.08.13A.17.17,0,0,1,52,51.43Zm.45.41c.41.39.4.73,0,1.41l0,0C52,52.61,52,52.61,52.44,51.84Zm.17-1.29a.56.56,0,0,1-.18-.75c.12-.34.2-.7.32-1.11l.56.88c0,.07,0,.1-.05.14ZM53,51.76c.08,0,.09.07.09.14A.13.13,0,0,1,53,51.76Zm.23-1.1.36-.46s0-.1.1-.07.05.08,0,.14l-.44,1.13,0,0C52.9,51,52.9,51,53.19,50.66Zm.33,1.08L54,50.68c.22.38.41.71.61,1a.18.18,0,0,1,0,.25l-.42.59c-.05.08-.09.1-.15,0s-.31-.45-.48-.67A.14.14,0,0,1,53.52,51.74Zm1-1.08.06,0,.46.57c.07.07,0,.13,0,.18s-.11,0-.13-.07C54.76,51.09,54.64,50.87,54.52,50.66Zm-.05-.88a.11.11,0,0,1,0-.12A10,10,0,0,1,55,48.52s0,0,.07-.05l.79,1.46s0,.08,0,.11a3.46,3.46,0,0,1-.44.8c0,.06-.08,0-.1,0Q54.9,50.31,54.47,49.78Zm1,2a4.57,4.57,0,0,1,.42.54l.24.34c.3.42.3.42,0,.89-.23-.44-.44-.86-.68-1.28C55.36,52.13,55.31,52,55.48,51.81Zm.3-.45c-.05-.07,0-.14,0-.19l.4-.48c.23.44.43.86.66,1.27a.32.32,0,0,1,0,.33c-.05.09-.1.17-.16.3Zm.8-1a.17.17,0,0,1,.05-.19l.3-.35.71.88a.15.15,0,0,1,0,.21l-.44.7Zm1-.59c-.3-.36-.3-.36.07-.73.15.38.28.74.42,1.09,0,.06,0,.12,0,.15s-.09,0-.12-.07S57.67,50,57.55,49.81Zm.43-1a.12.12,0,0,1,0-.14l.63-.71.47.58a.17.17,0,0,1,0,.23c-.24.33-.46.68-.73,1.07Zm1-1.28s0,0,.06,0,.07.14.1.26C59.05,47.64,59,47.59,59,47.5Zm-.26,2.57h0l.14-.19h0c.16-.25.32-.5.49-.75,0,0,0-.14.13-.08s0,.13,0,.19l-.56.69-.14.19-.14.19A.26.26,0,0,1,58.74,50.07Zm0,.7.9-1.13c.08.39.16.74.24,1.09a.16.16,0,0,1,0,.13l-.75,1.19c-.13-.39-.25-.75-.38-1.11A.17.17,0,0,1,58.79,50.77Zm1.13-2.09a.32.32,0,0,1,0-.41c.3-.37.57-.76.86-1.15a.3.3,0,0,1,0,.38C60.49,47.88,60.21,48.28,59.92,48.68Zm.73-2.06c-.32.41-.63.82-1,1.28l-.28-.79a.17.17,0,0,1,.05-.13l1-1.16c.08.23.14.43.2.63A.16.16,0,0,1,60.65,46.62Zm-.32-2.77c-.25-.35-.24-.37.16-.43l.26,0Zm-.12,1.07a.56.56,0,0,1-.13.72c-.3.29-.56.62-.85,1-.06-.17-.11-.33-.17-.47s0-.14.06-.19c.3-.35.6-.7.89-1.06C60.12,44.75,60.15,44.8,60.21,44.92Zm-.68-.16a8.38,8.38,0,0,0-.71.82l-.39-.76a.16.16,0,0,1,0-.22c.27-.3.53-.62.79-.92s.29-.15.42,0A.7.7,0,0,1,59.53,44.76Zm-2.72-2.82c-.15,0-.24-.07-.14-.2.41-.58.84-1.14,1.29-1.73l.88,1.81A17.53,17.53,0,0,1,56.81,41.94Zm.42,1.79c.11,0,.17.06.1.16l-.54.72c-.06.08-.09,0-.14,0l-.6-.8v-.07ZM56.32,45c0,.06.1.11,0,.2s-.12.11-.19,0c-.32-.47-.65-.93-1-1.42a.21.21,0,0,1,.28.07C55.74,44.24,56,44.62,56.32,45Zm-.56-3a12.36,12.36,0,0,1-1.36,0c-.2,0-.39,0-.59,0s-.14,0-.08-.14c.34-.59.67-1.18,1-1.81L56,41.69C56.06,41.84,56,41.94,55.76,42ZM54.5,43.71l-1,1.4c-.06.08-.09.09-.16,0l-.8-1c-.13-.16,0-.25.09-.37s.05-.17.19-.16C53.38,43.65,53.92,43.67,54.5,43.71ZM52.89,41.8s0,0-.08,0l-1.56-.24.44-1.31.89,1.08c.1.12.2.23.29.35A.12.12,0,0,1,52.89,41.8ZM51.3,43.43c.22.22.41.46.62.68a.15.15,0,0,1,0,.13l-.64,1.69c-.27-.32-.51-.61-.76-.89a.17.17,0,0,1,0-.17L51,43.48C51.09,43.28,51.22,43.35,51.3,43.43Zm.52,9.69c.45.52.46.6.19,1C52,53.78,51.65,53.5,51.82,53.12ZM52,55c.1.28.49.48.26.85C52.19,55.61,51.91,55.38,52,55Zm.46-.92a6.39,6.39,0,0,1,.36.58c0,.07,0,.12,0,.18s-.15.28-.23.45C52.34,54.92,52,54.56,52.48,54.12Zm.57-1.26c.13.29.26.55.37.82,0,.11-.07.2-.12.29s-.13.23-.2.36l-.05,0C52.6,53.64,52.6,53.64,53.05,52.86Zm.28-.45.07,0c.07.28.47.42.31.81ZM53.58,55c.13-.22.27-.43.42-.67l.75,1.21c.06.08,0,.14,0,.21l-.41.66c-.26-.45-.51-.86-.75-1.28C53.54,55.12,53.55,55.08,53.58,55Zm.69-.73c-.11-.16,0-.26,0-.38s.07,0,.1,0L55.13,55a.24.24,0,0,1,0,.07c0,.08-.09.2-.17.24s-.11-.09-.15-.14C54.65,54.89,54.47,54.59,54.27,54.3Zm.4-.8c0-.07-.06-.12,0-.19.13-.24.26-.48.42-.75.26.49.5.93.75,1.38a.18.18,0,0,1,0,.21,3.9,3.9,0,0,0-.25.36c-.08.14-.13.1-.19,0ZM55.82,55l.4-.6c.29.43.55.85.82,1.26a.13.13,0,0,1,0,.18c-.12.19-.24.37-.35.56s-.09.11-.16,0c-.24-.4-.48-.8-.73-1.2A.15.15,0,0,1,55.82,55Zm.64-.82a.13.13,0,0,1,0-.17c.08-.12.16-.25.27-.4.26.45.51.87.77,1.29.06.09,0,.15,0,.23l-.2.32Zm.67-.92a.35.35,0,0,1,.14-.39c.07,0,.07,0,.09.07.21.41.42.82.64,1.23.09.16,0,.22-.12.35Zm.52-.68a.21.21,0,0,1,0-.28c.18-.23.35-.48.55-.75l.61,1a.11.11,0,0,1,0,.11l-.55,1.18Zm.64,2c.23.39.44.75.64,1.11.09.16-.08.26-.13.46-.24-.44-.46-.83-.65-1.23C58.09,54.84,58.26,54.77,58.29,54.62Zm1.89-4.47c.06,0,.11.08,0,.17C60.18,50.26,60.15,50.21,60.18,50.15Zm.6-5.34c-.35-.36-.23-.63.09-.91a4.83,4.83,0,0,0,.53-.57.19.19,0,0,1,.16-.08c.08,0,0,.1.07.15a.47.47,0,0,1-.12.55C61.25,44.23,61,44.53,60.78,44.81ZM61,41.55l-1.22.19L60.9,40.5c.08.33.16.62.24.91C61.17,41.52,61.12,41.54,61,41.55Zm-1-4.46c.2.81.36,1.58.59,2.33a.87.87,0,0,1-.26,1c-.37.35-.68.74-1,1.12-.1.11-.13.09-.19,0l-.85-1.8c0-.07-.07-.13,0-.21Zm-3-.54c.87.05,1.73.1,2.6.22l.08,0-1.65,2.29-.68-1.45c-.14-.32-.28-.63-.43-.94C56.89,36.61,56.87,36.54,57,36.55Zm-.57.23,1.24,2.66c0,.06,0,.1,0,.15l-1.36,1.8c-.42-.63-.83-1.23-1.25-1.83a.15.15,0,0,1,0-.19ZM56,36.54,54.71,39l-1.56-2.36A25.21,25.21,0,0,1,56,36.54Zm-1.64,2.85a.18.18,0,0,1,0,.22c-.32.59-.65,1.17-1,1.77-.08.14-.12.09-.2,0-.42-.51-.85-1-1.29-1.52a.17.17,0,0,1,0-.19c.29-.9.58-1.8.88-2.75Zm-4.28-2.31,2-.34c.16,0,.23,0,.16.18-.26.8-.51,1.6-.77,2.44l-1.74-2.17A.54.54,0,0,1,50.11,37.08Zm-.88,3.29.24-2.72s0,0,0-.11l1.23,1.55a2.53,2.53,0,0,0,.28.35.73.73,0,0,1,.18.94,6.6,6.6,0,0,0-.32,1c0,.13-.1.15-.23.14-.69,0-1-.58-1.4-1A.19.19,0,0,1,49.23,40.37Zm-.06.72s0,0,0-.05l.08.09-.06,0C49.16,41.17,49.16,41.13,49.17,41.09Zm-2.69-1c-.2-.24-.39-.5-.59-.75-.06-.08-.06-.12,0-.19l.7-.74.06.11c.09.6.19,1.2.29,1.83A.94.94,0,0,1,46.48,40.07Zm2.09,3.38-.06,1c-.51-.49-.42-1.14-.48-1.74l.47.58A.28.28,0,0,1,48.57,43.45ZM48.8,41c0,.08-.08,0-.11,0l-1.14-.37c-.1,0-.12-.1-.13-.2-.09-.57-.2-1.15-.3-1.73.12,0,.16.09.21.16.48.54.94,1.1,1.42,1.63C48.9,40.68,48.81,40.84,48.8,41Zm.08-.91-1.73-2,2-.75Zm.26,7.17a.9.9,0,0,1-.16-.53.28.28,0,0,1,0-.24c.06,0,.07,0,.08.09C49.22,46.78,49.35,47,49.14,47.26Zm.29.66a.12.12,0,0,1,0-.16A.13.13,0,0,1,49.43,47.92Zm.38-3A3.3,3.3,0,0,1,49.54,46,2.18,2.18,0,0,1,49,43.88l.78,1A.12.12,0,0,1,49.81,45Zm.26,5.11h0c-.15-.11-.16-.3-.26-.44a.87.87,0,0,1,.26.44c.08,0,.11.11.14.23A.32.32,0,0,1,50.07,50.08Zm-.16-2.24a5.48,5.48,0,0,1,.65,1,1,1,0,0,1-.16.9A2.18,2.18,0,0,1,49.91,47.84Zm.48,3.44v.37C50.26,51.5,50.32,51.43,50.39,51.28ZM51,58.52l-.53.85h-.09c0-.6,0-1.21,0-1.81a2.83,2.83,0,0,1,.27-.77s0,0,.09,0,.07,0,.07.08c.08.51.15,1,.23,1.53A.24.24,0,0,1,51,58.52Zm-.17-6.32c.09.35.53.6.29,1.1C51,52.91,50.64,52.63,50.79,52.2Zm.51,2.61c.38.44,0,.72-.18,1A2.22,2.22,0,0,1,51.3,54.81Zm.42.88a3.6,3.6,0,0,1,.3.66.2.2,0,0,1,0,.11c-.21.43-.42.86-.64,1.29A2,2,0,0,1,51.72,55.69Zm1.06,3.53L52,60.42s0,.06-.1,0c-.13-.61-.27-1.23-.41-1.85a.22.22,0,0,1,0-.14l.8-1.47c.19.68.37,1.3.54,1.92A.3.3,0,0,1,52.78,59.22Zm-.26-2.62a.39.39,0,0,1,.16-.38c.21,0,.25-.14.33-.26l.28-.46L54,56.77c0,.07.07.13,0,.22l-.86,1.59C52.93,57.89,52.72,57.25,52.52,56.6Zm2.56,3-.94,1.51c-.25-.6-.49-1.18-.74-1.75a.24.24,0,0,1,0-.22l.88-1.6.06,0c.25.59.5,1.18.76,1.77A.28.28,0,0,1,55.08,59.58Zm-.44-2.5c0-.06,0-.11,0-.17l.83-1.36c.29.47.56.93.83,1.38a.17.17,0,0,1,0,.17c-.29.58-.57,1.15-.87,1.78Zm2.87,2.4c-.27.55-.54,1.1-.81,1.67-.12-.08-.15-.21-.21-.31l-.69-1.22c0-.06-.1-.12-.06-.21.29-.6.58-1.21.88-1.86l.88,1.69A.23.23,0,0,1,57.51,59.48Zm.33-.87a.35.35,0,0,1-.06.09L57,57.09c0-.05-.05-.09,0-.15l.89-1.52.67,1.21a.24.24,0,0,1,0,.23C58.29,57.44,58.07,58,57.84,58.61Zm1.78.4c-.19.57-.36,1.15-.55,1.77l-.91-1.39a.22.22,0,0,1,0-.22c.22-.63.43-1.25.64-1.88.1,0,.1.08.13.13l.68,1.26A.35.35,0,0,1,59.62,59Zm.24-1.13s0,.15-.07.15-.08-.08-.11-.13c-.17-.32-.33-.65-.5-1s-.16-.31,0-.64c.08,0,.07.14.18.16,0-.23.27-.2.34-.39s.18-.38.29-.62a1.27,1.27,0,0,1,.15.72C60.05,56.72,60,57.3,59.86,57.88Zm1.13.57a12.3,12.3,0,0,0-.14,1.45l-.71-1.14a.21.21,0,0,1,0-.2c.12-.62.25-1.23.4-1.85C60.73,57.28,61.13,57.77,61,58.45ZM61.05,57s0,0,0,0,0-.07,0-.07,0,0,0,.06S61.09,57,61.05,57Zm.05-6c-.08-.21-.26-.43,0-.65A2.35,2.35,0,0,1,61.1,51Zm.06-4.11a.15.15,0,0,1,0-.06s0,0,0,0,0,0,.06.08S61.18,46.9,61.16,46.88ZM61,45.34c0-.05,0-.08,0-.12l.81-.95c.06.26.1.46.14.65a.15.15,0,0,1,0,.17l-.67.79C61.16,45.69,61.08,45.51,61,45.34Zm1,.27,0,0a1.43,1.43,0,0,1-.33.54c0,.08-.11.28-.21.2s0-.21.1-.29S61.87,45.77,62,45.61Zm0-2.46s.08,0,.08,0-.05.11-.12.15S62,43.17,62.05,43.15Zm-.63,5.41c0-.42-.24-.77,0-1.17C61.79,47.92,61.8,48.13,61.42,48.56Zm.25,9.62s0,0,0,0a.06.06,0,0,1,0,0,.58.58,0,0,1-.13-.52v-.38a.19.19,0,0,1,.08.15l.06.6A.26.26,0,0,1,61.67,58.18Zm.06-6.59h0l0,.15h0a.43.43,0,0,1-.09.28.37.37,0,0,1,0-.34l0-.14.06-.13A.14.14,0,0,1,61.73,51.59Zm-.13-1A1.7,1.7,0,0,1,62,49C62.24,49.58,61.81,50,61.6,50.63Zm.47-3c-.36-.57-.36-.78,0-1.1C62.08,46.89,62.23,47.25,62.07,47.63Zm.35-2.43a0,0,0,0,1,0,0s0-.06,0-.06,0,0,0,0S62.46,45.2,62.42,45.2Zm.34,2.58a1.31,1.31,0,0,1-.1.32.24.24,0,0,1-.09.17,1,1,0,0,1,0-.42l.12-.22h0l0-.12A.26.26,0,0,1,62.76,47.78Zm-.17-1a1.34,1.34,0,0,1,.47-1.58A2.13,2.13,0,0,1,62.59,46.78Zm-.12-1.73a.23.23,0,0,1,.15-.17A.16.16,0,0,1,62.47,45.05Zm.16-.2a.22.22,0,0,1,.12-.15C62.75,44.79,62.73,44.83,62.63,44.85Zm.16-.25s0-.05.07-.06,0,0,0,0,0,.08-.08.07S62.78,44.62,62.79,44.6Zm.15-.19a.18.18,0,0,1,.07,0,.43.43,0,0,1,0,0,.24.24,0,0,1,0,.07C62.92,44.45,62.92,44.42,62.94,44.41Zm-.64.23c0-.24-.1-.45-.15-.66,0,0,0-.08,0-.1.28-.34.57-.66.86-1C63.32,43.71,62.73,44.11,62.3,44.64Zm.85-6v2a.61.61,0,0,1-.4.54l-1,.26c-.13,0-.19,0-.22-.12-.08-.37-.17-.73-.26-1.1a.21.21,0,0,1,0-.21c.59-.71,1.18-1.42,1.78-2.12h0Zm.37-.65c0-.09,0-.12.11-.08a7.53,7.53,0,0,1,1.34.65c.08.05.09.09,0,.16l-1.41,1.63-.07,0Zm.07,6.88c-.11-.31,0-.52.25-.75A1.56,1.56,0,0,1,63.59,44.85Zm.23-2.12-.23.3C63.53,42.73,63.54,42.73,63.82,42.73Zm1-2.31a.14.14,0,0,1-.07.08,9.53,9.53,0,0,1-1.17.41L65,39.28l.07,0C65,39.68,64.9,40.05,64.81,40.42Zm1-.51c-.1.08-.22.21-.39.17l.26-1,.21.23C66.16,39.59,66.11,39.61,65.76,39.91Z"/></g></g></svg>