<?xml version="1.0" encoding="utf-8"?>
<!-- Generator: Adobe Illustrator 26.0.1, SVG Export Plug-In . SVG Version: 6.00 Build 0)  -->
<svg version="1.1" id="レイヤー_1" xmlns="http://www.w3.org/2000/svg" xmlns:xlink="http://www.w3.org/1999/xlink" x="0px"
	 y="0px" viewBox="0 0 851.5 303.3" style="enable-background:new 0 0 851.5 303.3;" xml:space="preserve">
<style type="text/css">
	.st0{fill:#BF2939;}
	.st1{fill:url(#SVGID_1_);}
	.st2{fill:#1C2976;}
	.st3{fill:none;}
	.st4{fill:url(#SVGID_00000088121596906277985350000000132053556045783430_);}
	.st5{fill:#FFFFFF;}
	.st6{fill:none;stroke:#FFFFFF;stroke-miterlimit:10;}
	.st7{fill:url(#SVGID_00000036251195744095249780000003448784561903378054_);}
	.st8{fill:#C49037;}
	.st9{clip-path:url(#SVGID_00000073705296398301367930000009739642242708106681_);}
	.st10{fill:url(#SVGID_00000000936226764578791840000012567126509770352547_);}
</style>
<path class="st0" d="M439.5,146.3l-7,12l-7.2,13.5h16.6l56.6-0.5l5-8l14.8,1l221.2-2l-0.8,6.4l-5.2,6.6l17.1-0.1l1.8,1h86.2
	l-29.4,44.1h-28l-2.4,3.2l-24,32l-42.9,30.8h-98.5l1.1-33h71l21-14l16-20h-17l-17,18h-72l28-20l37-56h-5l-34,47l-40,24v54h-49.8
	l0.8-10v-14l-15.9,9.8l-20.1,13.3h-77l-1,7v3h-71.7l7.7-35l5-26l-20.1,17.9l-50.2,42.1h-76l81-58.5l1.1-0.8l0.8-1.1l61.6-87.6h66.9
	 M442.5,287.3l13-9.8l91-53.3l25.5-14.9H469l29.5-41l-8,2l-25.6,39l-2.4,3.3L445,236.9l-1.5,2.1v2.6l-2,26.7l-1,14 M462.2,138.3
	h-87.7l-64,91l-101,73h103.6l52.4-44l-7,45h88.4l2.6-8h71l22-17l4,16h168l46-33l24.7-33h28.3l38-57v-3.1h-97l-5.3-2.9l4.3-9h-238
	l-9.3,7.5h-64.4L462.2,138.3z M542.5,217.3l-91,53.3v-29l17.5-24.3H542.5z"/>
<linearGradient id="SVGID_1_" gradientUnits="userSpaceOnUse" x1="456.2001" y1="446.81" x2="432.72" y2="-194.76" gradientTransform="matrix(1 0 0 -1 82.12 372)">
	<stop  offset="0.43" style="stop-color:#FFFFFF"/>
	<stop  offset="0.5" style="stop-color:#C7DEF3"/>
	<stop  offset="0.58" style="stop-color:#85BCE6"/>
</linearGradient>
<path class="st1" d="M458.7,136l-20.3,25.5h64.4l9.3-7.5h238l-4.3,9l5.3,2.9h97v3.1l-38,57h-28.3L757,259l-46,33H543l-4-16l-22,17
	h-71l-2.6,8H355l7-45l-52.4,44H206l101-73l64-91H458.7z M465.5,215L448,239.3v29l91-53.3H465.5z"/>
<path class="st2" d="M436,144l-7,12l-7.2,13.5h16.6L495,169l5-8l14.8,1l221.2-2l-0.8,6.4L730,173l17.1-0.1l1.8,1h86.2L805.7,218h-28
	l-2.4,3.2l-24,32L708.4,284h-98.6l1.1-33h71l21-14l16-20h-17l-17,18h-72l28-20l37-56h-5l-34,47l-40,24v54h-49.8l0.8-10v-14
	l-15.9,9.7L514,283h-77l-1,7v3h-71.7l7.7-35l5-26l-20.1,17.9L306.7,292h-76l81-58.5l1.1-0.8l0.8-1.1l61.6-87.6h67 M439,285l13-9.8
	l91-53.3l25.5-14.9h-103l29.5-41l-8,2l-25.6,39l-2.4,3.3l-17.5,24.3l-1.5,2.1v2.6l-2,26.7l-1,14 M458.7,136H371l-64,91l-101,73
	h103.6l52.4-44l-7,45h88.4l2.6-8h71l22-17l4,16h168l46-33l24.7-33H810l38-57v-3.1h-97l-5.3-2.9l4.3-9H512l-9.3,7.5h-64.4L458.7,136z
	 M539,215l-91,53.3v-29l17.5-24.3H539z"/>
<polygon class="st3" points="220,77 202,77 193,90 211,90 "/>
<polygon class="st3" points="211.7,81 204.8,81 201.3,86 208.2,86 "/>
<polygon class="st3" points="203.3,98 185.3,98 176.3,111 194.3,111 "/>
<polygon class="st3" points="195,102 188.1,102 184.6,107 191.6,107 "/>
<path class="st0" d="M433.3,147L370,234l-66.1,55.1H238l77-55.1l60-87H433.3 M441.1,143h-68.2l-1.2,1.7l-59.6,86.4l-76.4,54.7
	l-10.1,7.2h79.8l1.1-0.9l66.1-55.1l0.4-0.3l0.3-0.4l63.3-87L441.1,143z"/>
<path class="st0" d="M481.6,170.6l-43.2,64.2l-5.1,54.3L368,289l12-56l45.5-62L481.6,170.6 M489.1,166.7h-7.6l-56.1,0.3h-2l-1.2,1.6
	l-45.5,62l-0.5,0.7l-0.2,0.8l-12,56l-1,4.8h4.9l65.3,0.1h3.6l0.3-3.6l5-53.3l42.7-63.3l4.2-6.3L489.1,166.7z"/>
<path class="st0" d="M667,163l-31,42l-40.5,24.9V280h-43l0.5-25l-40.4,25H452l128-76H472l29-41H667 M674.9,159h-176l-1.2,1.7l-29,41
	l-4.5,6.3h101.1L450,276.6l-12.5,7.4h76.3l1-0.6l34.2-21.1l-0.3,17.7l-0.1,4.1h51v-51.9l38.6-23.7l0.7-0.4l0.5-0.6l31-42L674.9,159
	L674.9,159z"/>
<path class="st0" d="M733.5,161.5l-7,14L832,174l-27,40h-29l-29,39l-38.8,27H614v-26h68l22-15l20-24h-23l-17.3,17H622l20.3-13.9
	l36.3-55.1L733.5,161.5 M740.1,157.3l-6.7,0.2l-54.9,1.5l-2.1,0.1l-1.2,1.7l-35.9,54.4l-19.7,13.5l-10.6,7.3h76.2l1.2-1.1l16.1-15.9
	h12.8l-14.2,17l-20.5,14H610v34h99.4l1-0.7l38.8-27l0.5-0.4l0.4-0.5L778,218h29.1l1.2-1.8l27-40l4.3-6.3l-7.7,0.1l-98.9,1.4l4.1-8.1
	L740.1,157.3L740.1,157.3z"/>
<g id="濁点-2">
	
		<radialGradient id="SVGID_00000014601980678848786310000017009176102303765897_" cx="460" cy="158" r="14" gradientTransform="matrix(1 0 0 -1 0 306)" gradientUnits="userSpaceOnUse">
		<stop  offset="0" style="stop-color:#D8E7F7"/>
		<stop  offset="8.000000e-02" style="stop-color:#CFE3F5"/>
		<stop  offset="0.22" style="stop-color:#B5D8F1"/>
		<stop  offset="0.4" style="stop-color:#8CC7EA"/>
		<stop  offset="0.61" style="stop-color:#53B0E0"/>
		<stop  offset="0.78" style="stop-color:#1F9AD7"/>
		<stop  offset="0.9" style="stop-color:#006CBA"/>
		<stop  offset="0.99" style="stop-color:#00599B"/>
	</radialGradient>
	<circle style="fill:url(#SVGID_00000014601980678848786310000017009176102303765897_);" cx="460" cy="148" r="14"/>
	<rect x="459.5" y="134" class="st5" width="1" height="28"/>
	<path class="st6" d="M464.5,148.5c0-4.3,1.9-8.5,5.1-11.3c-6-5.3-15.1-4.8-20.5,1.2c-5.3,6-4.8,15.1,1.2,20.5
		c5.3,4.7,13.2,4.9,18.7,0.4C466.2,156.5,464.5,152.6,464.5,148.5z"/>
	<path class="st6" d="M469.6,137.2c6,5.3,6.5,14.5,1.2,20.4c-0.5,0.6-1.1,1.2-1.7,1.7"/>
	<path class="st6" d="M455.7,148.5c0-4.3-1.8-8.4-5-11.3c2.5-2.4,5.9-3.7,9.3-3.7c8,0.3,14.3,7,14,15c-0.3,7.6-6.4,13.7-14,14
		c-3.2,0-6.3-1.1-8.8-3.2C454.1,156.4,455.7,152.5,455.7,148.5z"/>
	<path class="st6" d="M450.7,137.2c-6,5.6-6.3,15-0.7,20.9c0.4,0.4,0.8,0.8,1.2,1.2"/>
</g>
<g id="濁点">
	
		<radialGradient id="SVGID_00000062174299142360341340000012992660505360579724_" cx="491" cy="158" r="14" gradientTransform="matrix(1 0 0 -1 0 306)" gradientUnits="userSpaceOnUse">
		<stop  offset="0" style="stop-color:#D8E7F7"/>
		<stop  offset="8.000000e-02" style="stop-color:#CFE3F5"/>
		<stop  offset="0.22" style="stop-color:#B5D8F1"/>
		<stop  offset="0.4" style="stop-color:#8CC7EA"/>
		<stop  offset="0.61" style="stop-color:#53B0E0"/>
		<stop  offset="0.78" style="stop-color:#1F9AD7"/>
		<stop  offset="0.9" style="stop-color:#006CBA"/>
		<stop  offset="0.99" style="stop-color:#00599B"/>
	</radialGradient>
	<circle style="fill:url(#SVGID_00000062174299142360341340000012992660505360579724_);" cx="491" cy="148" r="14"/>
	<rect x="490.5" y="134" class="st5" width="1" height="28"/>
	<path class="st6" d="M495.5,148.5c0-4.3,1.9-8.5,5.1-11.3c-6-5.3-15.1-4.8-20.5,1.2c-5.3,6-4.8,15.1,1.2,20.5
		c5.3,4.7,13.2,4.9,18.7,0.4C497.2,156.5,495.5,152.6,495.5,148.5z"/>
	<path class="st6" d="M500.6,137.2c6,5.3,6.5,14.5,1.2,20.4c-0.5,0.6-1.1,1.2-1.7,1.7"/>
	<path class="st6" d="M486.7,148.5c0-4.3-1.8-8.4-5-11.3c2.5-2.4,5.9-3.7,9.3-3.7c8,0.3,14.3,7,14,15c-0.3,7.6-6.4,13.7-14,14
		c-3.2,0-6.3-1.1-8.8-3.2C485.1,156.4,486.7,152.5,486.7,148.5z"/>
	<path class="st6" d="M481.7,137.2c-6,5.6-6.3,15-0.7,20.9c0.4,0.4,0.8,0.8,1.2,1.2"/>
	<rect x="477" y="147.5" class="st5" width="28" height="1"/>
	<rect x="445.5" y="147.5" class="st5" width="28" height="1"/>
</g>
<circle class="st8" cx="318.2" cy="101.2" r="8.2"/>
<circle class="st8" cx="298.2" cy="101.2" r="8.2"/>
<g>
	<defs>
		<path id="SVGID_00000022552883546246042310000004689236673752215468_" d="M256.7,81l-3.5,5h-6.9l3.5-5H256.7z M188.1,102l-3.5,5
			h6.9l3.5-5H188.1z M204.8,81l-3.5,5h6.9l3.5-5H204.8z M202.5,132.5l-7,12h32c0,0,9.5-10.5,13.5-9.5s15,17,10.9,17S100,153,99,152
			s4-8,6.6-8H170l6.8-11H128l6-9h51l3-6l-20-1c0,0-10,6-25,4c-1-1,36-52,40-54s7,3,7,3h86c0,0,4-4,8-4s15,11,12,14s-8,3-8,3
			s-12,17-25,32c-4.1,1.8-8.4,3.1-12.8,3.9c5.1,4.9,12,12.3,8.3,12.6C253,132,202.5,132.5,202.5,132.5L202.5,132.5z M240.2,120.3
			c-2.1,0.2-4.1,0.4-6.2,0.7c-2-1-1.5-3.5-1.5-3.5h-18l-5,8h26L240.2,120.3z M238,90h18l9-13h-18L238,90z M221.4,111h18l9-13h-18
			L221.4,111z M193,90h18l9-13h-18L193,90z M203.4,98h-18l-9,13h18L203.4,98z M233.1,102l-3.5,5h6.9l3.5-5H233.1z M84,187
			c3.8,5.5,39,0,49.2-34.6C113,171,73,171,84,187z M146,154c-6,18-25,24-18,30C144,194,177,163,146,154z M173.8,154
			c-1.8,18-18.8,22-12.8,31C171,196,216,165,173.8,154z M203.4,154c3.6,19-9.4,24-5.7,32C214,197,261,158,203.4,154z M397,107
			c-5-1-15.5,11.5-15.5,11.5h-29l6.7-9.3l11.3-3.7L370,101l33.8-11c0,0,19.2,0,19.2-6s-7.6-18-11.3-18s-10.2,4.5-10.2,4.5L325,70
			l-6,9h69.1L360,100l-21-4l-14,23h-60l-5,8h56.9L291,161h-31c0,0,14,13-1.2,26.9C308,192,316,167,345,127h64
			C414,127,401.9,108,397,107L397,107z M426,123c21.5-1.5,79.5-49.5,37-45c11.5,6.5-43.5,44.5-53,40c-11.5-7.5,20.5-44.5,64-43
			C509,80,475,122,426,123z M456,79c-5-4-43,23-36,29C424.9,112.2,466,80,456,79z"/>
	</defs>
	<clipPath id="SVGID_00000178916130663131352800000007934182358392257933_">
		<use xlink:href="#SVGID_00000022552883546246042310000004689236673752215468_"  style="overflow:visible;"/>
	</clipPath>
	<g style="clip-path:url(#SVGID_00000178916130663131352800000007934182358392257933_);">
		
			<linearGradient id="SVGID_00000107579136738108065460000014191746587549496757_" gradientUnits="userSpaceOnUse" x1="215.018" y1="333.0007" x2="370.4729" y2="10.9241" gradientTransform="matrix(1 0 0 -1 0 306)">
			<stop  offset="0.46" style="stop-color:#140000"/>
			<stop  offset="0.48" style="stop-color:#887575"/>
			<stop  offset="0.49" style="stop-color:#EAD8D9"/>
			<stop  offset="0.51" style="stop-color:#D34651"/>
			<stop  offset="0.52" style="stop-color:#C90A19"/>
			<stop  offset="1" style="stop-color:#8C0000"/>
			<stop  offset="1" style="stop-color:#B5B5B6"/>
			<stop  offset="1" style="stop-color:#D2D5D8;stop-opacity:0"/>
		</linearGradient>
		
			<rect x="78.5" y="59.7" style="fill:url(#SVGID_00000107579136738108065460000014191746587549496757_);" width="422.1" height="135.6"/>
	</g>
</g>
<circle class="st8" cx="279.2" cy="101.2" r="8.2"/>
<path d="M282.6,96.1c-0.2-0.3-0.5-0.4-0.9-0.4c-0.1,0-0.3,0-0.4,0l-0.4,0.1l0.1,0.4l0.1,0.1c0,0,0.1,0.1,0,0.3
	c-0.2,0.4-0.7,0.9-2,2.1s-1.6,1.4-1.8,1.6c-0.3,0.3-0.5,0.6-0.6,0.9c-0.2,0.4-0.2,0.8,0,1.2c0.1,0.3,0.3,0.5,0.5,0.7l0.1,0.2
	c0.3,0.3,0.5,0.7,0.6,1.1c0.1,0.4,0.1,0.9-0.1,1.3c-0.2,0.3-0.2,0.7,0,1c0.1,0.2,0.3,0.2,0.6,0.2c0.7,0,1.3-0.5,1.5-1.2
	c0.2-0.5,0.3-1,0.2-1.6c-0.3-0.7-0.7-1.3-1.3-1.8l-0.2-0.2c-0.2-0.2-0.4-0.3-0.5-0.5c0,0,0-0.1,0-0.1c0.1-0.2,0.1-0.3,0.3-0.4
	c0.6-0.5,1.2-0.9,1.8-1.3c0.7-0.4,1.4-0.9,2-1.5c0.3-0.3,0.5-0.6,0.6-1C282.9,97,282.8,96.5,282.6,96.1z"/>
<path d="M301,98.9c0.4-0.3,0.6-0.6,0.8-1c0.1-0.2,0.1-0.4,0.1-0.5c0-0.6-0.6-1.1-1.2-1.1c-0.8,0.1-1.6,0.3-2.3,0.7
	c-0.2,0.1-0.4,0.2-0.7,0.3l-0.3,0.1l0.3-0.1l-0.2-0.2h-0.4l-0.1,0.2c-0.1,0.1-0.1,0.2-0.2,0.3c-0.1,0.3-0.1,0.7,0.1,1
	c0.2,0.3,0.5,0.4,0.8,0.4c0.4,0,0.7-0.2,1-0.4c0.2-0.2,0.5-0.3,0.8-0.4l-0.9,0.7c-1.2,1-1.8,1.4-2.4,1.9l-0.4,0.3
	c-0.4,0.3-0.7,0.6-1,0.8c-0.2,0.2-0.5,0.4-0.7,0.6c-0.6,0.4-0.7,0.6-0.9,1c-0.2,0.3-0.2,0.8,0,1.1c0.1,0.2,0.3,0.3,0.5,0.3
	c0.4,0,0.8-0.2,1-0.6c0.4-0.4,0.8-0.8,1.3-1.1c1.7-1.2,3.3-1.7,3.7-1.1c0.2,0.4,0.2,0.9-0.1,1.3c-0.4,1-1.2,1.7-2.2,2
	c-1,0.4-2,0.6-3,0.7l-0.4,0.1l0,0.7h0.3c0.3,0,0.5,0,0.8,0c1.2,0,2.3-0.1,3.4-0.5c1.3-0.4,2.3-1.4,2.8-2.6c0.4-0.8,0.3-1.6-0.1-2.4
	c-0.7-0.8-1.9-1.1-2.9-0.7l1-0.7C300.5,99.3,300.7,99.2,301,98.9z"/>
<path d="M319.4,104.5c-0.2,0-0.4,0-0.6,0.1c-0.7,0.2-1.4,0.3-2.1,0.3c-0.4,0.1-0.9-0.1-1.2-0.4c-0.1-0.2-0.1-0.5,0-0.7l0.2-0.5
	L315,103l-0.2,0.2c-0.3,0.3-0.5,0.6-0.6,0.9c-0.2,0.5-0.2,1.2,0.1,1.7c0.6,0.7,1.5,1,2.5,0.9c1.4,0,3-0.4,3.3-1.3
	c0.1-0.2,0.1-0.5-0.1-0.7C319.9,104.6,319.7,104.5,319.4,104.5z"/>
<path d="M320.3,99.6c0.2,0,0.4,0,0.6-0.1c0.4-0.1,0.7-0.4,0.9-0.7c0.2-0.3,0.1-0.7-0.1-1c-0.3-0.3-0.7-0.5-1.1-0.5
	c-0.1,0-0.4,0-0.8,0c-0.3,0-0.6,0.1-0.9,0.1c-0.3,0-0.4-0.1-0.4-0.1l-0.2-0.2h-0.5l-0.1,0.2c-0.1,0.1-0.1,0.2-0.1,0.2
	c-0.1,0.3-0.1,0.6-0.1,0.9c0.1,0.5,0.6,0.9,1.2,0.8l-0.5,0.4l-0.5,0.4l0.3,0.6l0.6-0.3l1-0.5"/>
</svg>
