<svg xmlns="http://www.w3.org/2000/svg" xmlns:xlink="http://www.w3.org/1999/xlink" viewBox="0 0 851.52 303.28"><defs><style>.cls-1,.cls-7{fill:none;}.cls-2{fill:#bf2939;}.cls-3{fill:url(#名称未設定グラデーション_6);}.cls-4{fill:#1c2976;}.cls-5{fill:url(#名称未設定グラデーション_8);}.cls-6{fill:#fff;}.cls-7{stroke:#fff;stroke-miterlimit:10;}.cls-8{fill:url(#名称未設定グラデーション_8-2);}.cls-9{clip-path:url(#clip-path);}.cls-10{fill:url(#名称未設定グラデーション_15);}.cls-11{fill:#c49037;}</style><linearGradient id="名称未設定グラデーション_6" x1="456.2" y1="-140.81" x2="432.72" y2="500.76" gradientUnits="userSpaceOnUse"><stop offset="0.43" stop-color="#fff"/><stop offset="0.5" stop-color="#c7def3"/><stop offset="0.58" stop-color="#85bce6"/></linearGradient><radialGradient id="名称未設定グラデーション_8" cx="491" cy="148" r="14" gradientUnits="userSpaceOnUse"><stop offset="0" stop-color="#d8e7f7"/><stop offset="0.08" stop-color="#cfe3f5"/><stop offset="0.22" stop-color="#b5d8f1"/><stop offset="0.4" stop-color="#8cc7ea"/><stop offset="0.61" stop-color="#53b0e0"/><stop offset="0.78" stop-color="#1f9ad7"/><stop offset="0.9" stop-color="#006cba"/><stop offset="0.99" stop-color="#00599b"/></radialGradient><radialGradient id="名称未設定グラデーション_8-2" cx="460" cy="148" r="14" xlink:href="#名称未設定グラデーション_8"/><clipPath id="clip-path" transform="translate(82.12 66)"><path class="cls-1" d="M174.57,15l-3.46,5h-6.92l3.46-5ZM106,36l-3.46,5h6.93l3.46-5Zm16.66-21-3.46,5h6.92l3.46-5Zm-2.27,51.5-7,12h32s9.5-10.5,13.5-9.5,15,17,10.88,17S17.88,87,16.88,86s4-8,6.59-8H87.88l6.75-11H45.88l6-9h51l3-6-20-1s-10,6-25,4c-1-1,36-52,40-54s7,3,7,3h86s4-4,8-4,15,11,12,14-8,3-8,3-12,17-25,32a59.48,59.48,0,0,1-12.82,3.88c5.06,4.92,12,12.29,8.32,12.62C170.88,66,120.38,66.5,120.38,66.5Zm37.68-12.15c-2.06.24-4.12.44-6.18.65-2-1-1.5-3.5-1.5-3.5h-18l-5,8h26ZM155.88,24h18l9-13h-18ZM139.23,45h18l9-13h-18ZM110.88,24h18l9-13h-18Zm10.35,8h-18l-9,13h18ZM151,36l-3.46,5h6.93l3.46-5ZM1.88,121c3.8,5.53,39,0,49.19-34.56C30.88,105-9.12,105,1.88,121Zm62-33c-6,18-25,24-18,30C61.88,128,94.88,97,63.88,88Zm27.81,0c-1.81,18-18.81,22-12.81,31C88.88,130,133.88,99,91.69,88Zm29.54,0c3.65,19-9.35,24-5.66,32C131.88,131,178.88,92,121.23,88Zm193.6-47c-4.95-1-15.45,11.5-15.45,11.5h-29l6.72-9.28,11.28-3.72-.5-4.5,33.76-11s19.24,0,19.24-6S333.29,0,329.59,0s-10.21,4.5-10.21,4.5L242.88,4l-6,9H306L277.88,34l-21-4-14,23h-60l-5,8h56.94L208.88,95h-31s14,13-1.23,26.92C225.88,126,233.88,101,262.88,61h64C331.88,61,319.79,42,314.83,41Zm29.05,16c21.5-1.5,79.5-49.5,37-45,11.5,6.5-43.5,44.5-53,40-11.5-7.5,20.5-44.5,64-43C426.88,14,392.88,56,343.88,57Zm30-44c-5-4-43,23-36,29C342.74,46.17,383.88,14,373.88,13Z"/></clipPath><linearGradient id="名称未設定グラデーション_15" x1="159.44" y1="-108.81" x2="397.21" y2="383.81" gradientUnits="userSpaceOnUse"><stop offset="0.46" stop-color="#140000"/><stop offset="0.48" stop-color="#887575"/><stop offset="0.49" stop-color="#ead8d9"/><stop offset="0.51" stop-color="#d34651"/><stop offset="0.52" stop-color="#c90a19"/><stop offset="1" stop-color="#8c0000"/><stop offset="1" stop-color="#b5b5b6"/><stop offset="1" stop-color="#d2d5d8" stop-opacity="0"/></linearGradient></defs><g id="レイヤー_2" data-name="レイヤー 2"><g id="パターン"><path class="cls-2" d="M357.4,80.28l-7,12-7.25,13.5h16.6l56.65-.5,5-8,14.84,1,221.16-2-.78,6.36-5.22,6.64,17.14-.07,1.8,1H756.5l-29.38,44.05h-28l-2.4,3.21-24,32-42.91,30.78H531.26l1.14-33h71l21-14,16-20h-17l-17,18h-72l28-20,37-56h-5l-34,47-40,24v54H470.65l.75-10v-14L455.51,206,435.4,219.28h-77l-1,7v3H285.74l7.66-35,5-26-20.14,17.88L228.1,228.28h-76l81-58.51,1.08-.79.78-1.09,61.61-87.61h66.91m-3.07,141,13-9.82,91-53.26,25.47-14.9h-103l29.5-41-8,2-25.59,39-2.4,3.32-17.5,24.26L361.4,173v2.58l-2,26.72-1,14m21.68-144H292.4l-64,91-101,73H231l52.38-44-7,45h88.43l2.57-8h71l22-17,4,16h168l46-33,24.73-33H731.4l38-57v-3.07h-97l-5.3-2.93,4.3-9h-238l-9.26,7.5H359.75l20.33-25.5Zm80.33,79-91,53.26v-29l17.5-24.26Z" transform="translate(82.12 66)"/><path class="cls-3" d="M376.55,70,356.23,95.5h64.39l9.26-7.5h238l-4.3,9,5.3,2.92h97V103l-38,57H699.61l-24.73,33-46,33h-168l-4-16-22,17h-71l-2.57,8H272.88l7-45L227.5,234H123.88l101-73,64-91Zm6.83,79-17.5,24.26v29l91-53.26Z" transform="translate(82.12 66)"/><path class="cls-4" d="M353.88,78l-7,12-7.25,13.5h16.6l56.65-.5,5-8,14.83,1,221.17-2-.78,6.36L647.88,107l17.14-.07,1.8,1H753L723.6,152h-28l-2.4,3.2-24,32L626.31,218H527.74l1.14-33h71l21-14,16-20h-17l-17,18h-72l28-20,37-56h-5l-34,47-40,24v54H467.13l.75-10V194L452,203.67,431.88,217h-77l-1,7v3H282.22l7.66-35,5-26-20.15,17.87L224.58,226h-76l81-58.52,1.08-.78.77-1.1L293,78H360m-3.07,141,13-9.82,91-53.26L486.39,141h-103l29.5-41-8,2-25.59,39-2.4,3.32-17.5,24.26-1.51,2.09v2.59l-2,26.72-1,14M376.55,70H288.88l-64,91-101,73H227.5l52.38-44-7,45h88.43l2.57-8h71l22-17,4,16h168l46-33,24.73-33h28.27l38-57V99.92h-97L663.58,97l4.3-9h-238l-9.26,7.5H356.23L376.55,70Zm80.33,79-91,53.26v-29L383.38,149Z" transform="translate(82.12 66)"/><polygon class="cls-1" points="220 77 202 77 193 90 211 90 220 77"/><polygon class="cls-1" points="211.69 81 204.77 81 201.31 86 208.23 86 211.69 81"/><polygon class="cls-1" points="203.34 98 185.34 98 176.34 111 194.34 111 203.34 98"/><polygon class="cls-1" points="195.04 102 188.12 102 184.65 107 191.58 107 195.04 102"/><path class="cls-2" d="M351.16,81l-63.28,87-66.12,55.09H155.88l77-55.09,60-87h58.28M359,77H290.78l-1.19,1.73L230,165.15l-76.43,54.69-10.13,7.25h79.79l1.11-.92,66.12-55.1.38-.32.29-.4,63.28-87L359,77Z" transform="translate(82.12 66)"/><path class="cls-2" d="M399.46,104.65l-43.23,64.18-5.07,54.26L285.88,223l12-56,45.53-62,56-.31m7.54-4-7.56,0-56.06.31h-2l-1.19,1.62-45.52,62-.51.69-.18.84-12,56-1,4.83h4.94l65.28.09h3.65l.34-3.63,5-53.25,42.66-63.34,4.22-6.27Z" transform="translate(82.12 66)"/><path class="cls-2" d="M584.91,97l-31,42-40.53,24.87V214H470.42l.46-25-40.41,25H369.88l128-76h-108l29-41h166m7.93-4h-176l-1.2,1.69-29,41L382.15,142H483.28L367.84,210.56,355.31,218H431.6l1-.6,34.18-21.14-.33,17.67-.08,4.07h51V166.11L556,142.41l.67-.41.46-.62,31-42L592.84,93Z" transform="translate(82.12 66)"/><path class="cls-2" d="M651.38,95.5l-7,14,105.5-1.5-27,40h-29l-29,39-38.8,27H531.9V188h68l22-15,20-24h-23l-17.29,17H539.88l20.32-13.95L596.52,97l54.86-1.5m6.56-4.18-6.67.18L596.41,93l-2.08.06-1.15,1.74-35.89,54.39L537.62,162.7,527,170h76.23l1.17-1.15L620.52,153h12.82l-14.18,17-20.51,14H527.9v34h99.44l1-.72,38.79-27,.54-.37.39-.52L695.89,152H725l1.19-1.76,27-40,4.28-6.35-7.66.11-98.92,1.41L655,97.29l3-6Z" transform="translate(82.12 66)"/><g id="濁点"><circle class="cls-5" cx="491" cy="148" r="14"/><rect class="cls-6" x="490.5" y="134" width="1" height="28"/><path class="cls-7" d="M413.38,82.5a15,15,0,0,1,5.15-11.3A14.49,14.49,0,1,0,418,93.29,15,15,0,0,1,413.38,82.5Z" transform="translate(82.12 66)"/><path class="cls-7" d="M418.53,71.2A14.47,14.47,0,0,1,418,93.29" transform="translate(82.12 66)"/><path class="cls-7" d="M404.54,82.5a15.21,15.21,0,0,0-5-11.3,13.7,13.7,0,0,1,9.32-3.7,14.51,14.51,0,0,1,0,29,13.66,13.66,0,0,1-8.78-3.21A15.22,15.22,0,0,0,404.54,82.5Z" transform="translate(82.12 66)"/><path class="cls-7" d="M399.56,71.2a14.81,14.81,0,0,0,.54,22.09" transform="translate(82.12 66)"/></g><g id="濁点-2" data-name="濁点"><circle class="cls-8" cx="460" cy="148" r="14"/><rect class="cls-6" x="459.5" y="134" width="1" height="28"/><path class="cls-7" d="M382.38,82.5a15,15,0,0,1,5.15-11.3A14.49,14.49,0,1,0,387,93.29,15,15,0,0,1,382.38,82.5Z" transform="translate(82.12 66)"/><path class="cls-7" d="M387.53,71.2A14.47,14.47,0,0,1,387,93.29" transform="translate(82.12 66)"/><path class="cls-7" d="M373.54,82.5a15.21,15.21,0,0,0-5-11.3,13.7,13.7,0,0,1,9.32-3.7,14.51,14.51,0,0,1,0,29,13.66,13.66,0,0,1-8.78-3.21A15.22,15.22,0,0,0,373.54,82.5Z" transform="translate(82.12 66)"/><path class="cls-7" d="M368.56,71.2a14.81,14.81,0,0,0,.54,22.09" transform="translate(82.12 66)"/></g><g class="cls-9"><rect class="cls-10" width="547" height="255"/></g><circle class="cls-11" cx="318.25" cy="101.25" r="8.25"/><circle class="cls-11" cx="279.25" cy="101.25" r="8.25"/><circle class="cls-11" cx="298.25" cy="101.25" r="8.25"/><path d="M199.21,30.12a.86.86,0,0,1,.3,0c.57,0,.87.57.63,1.23a2.32,2.32,0,0,1-.56.84,10.8,10.8,0,0,1-1.92,1.44,14.08,14.08,0,0,0-1.84,1.32,1.15,1.15,0,0,0-.38.53.49.49,0,0,0,0,.51,6.76,6.76,0,0,0,.77.82,4.44,4.44,0,0,1,1.18,1.6,2.24,2.24,0,0,1-.14,1.33,1.28,1.28,0,0,1-1.06.95c-.33,0-.38-.16-.21-.75a2.22,2.22,0,0,0,.1-1.56,3.82,3.82,0,0,0-.64-1.17,7.39,7.39,0,0,1-.6-.83,1.09,1.09,0,0,1,0-.87,2.39,2.39,0,0,1,.54-.81c.19-.21.44-.44,1.76-1.59,1.48-1.28,1.91-1.75,2.09-2.25a.57.57,0,0,0-.08-.65S199.17,30.13,199.21,30.12Z" transform="translate(82.12 66)"/><path d="M196.23,41a.68.68,0,0,1-.56-.23,1.1,1.1,0,0,1,0-1,1.85,1.85,0,0,0,.1-1.34,3.54,3.54,0,0,0-.59-1.08l-.12-.15a5.26,5.26,0,0,1-.5-.72,1.44,1.44,0,0,1,0-1.17,2.83,2.83,0,0,1,.61-.94c.21-.21.44-.43,1.79-1.61s1.83-1.67,2-2.1c.07-.19,0-.23,0-.26l-.08-.08-.08-.45.37-.14a1.24,1.24,0,0,1,.4-.05,1.06,1.06,0,0,1,.88.44,1.38,1.38,0,0,1,.1,1.29,2.75,2.75,0,0,1-.64,1,11.47,11.47,0,0,1-2,1.49,12.49,12.49,0,0,0-1.79,1.28.77.77,0,0,0-.28.38s0,.12,0,.15a3.76,3.76,0,0,0,.5.54l.25.25a4.74,4.74,0,0,1,1.27,1.75,2.65,2.65,0,0,1-.15,1.57A1.62,1.62,0,0,1,196.23,41Zm-.84-4.58c.07.09.16.2.25.33l.14.16a4.63,4.63,0,0,1,.7,1.3,2.65,2.65,0,0,1-.1,1.78c0,.11,0,.18-.06.24a1,1,0,0,0,.62-.68,1.9,1.9,0,0,0,.12-1.12A4,4,0,0,0,196,37l-.23-.23Q195.57,36.64,195.39,36.44Zm4.3-5.94a1.41,1.41,0,0,1-.08.44c-.2.55-.62,1-2,2.22a9.5,9.5,0,0,0,1.69-1.28,2.06,2.06,0,0,0,.47-.7.65.65,0,0,0,0-.6Z" transform="translate(82.12 66)"/><path d="M215.22,31.39a.3.3,0,0,0,.3.21c.15,0,.22,0,.83-.26a5.78,5.78,0,0,1,2.18-.65.8.8,0,0,1,.81,1.12,2,2,0,0,1-.69.81c-.31.23-.47.35-1.51,1.07a40.12,40.12,0,0,0-3.51,2.64c1.87-1,2.82-1.38,3.78-1.38,1.52,0,2.19,1.13,1.62,2.7A3.89,3.89,0,0,1,216.49,40a9.92,9.92,0,0,1-3.23.49,7.14,7.14,0,0,1-.77,0c-.07,0-.05-.08,0-.09a12.21,12.21,0,0,0,3-.69A3.69,3.69,0,0,0,218,37.5c.44-1.24.08-2.06-.9-2.06a7.08,7.08,0,0,0-3.34,1.43A10,10,0,0,0,212.38,38c-.31.34-.5.46-.71.46s-.38-.35-.19-.86.2-.47.75-.88c.28-.2.48-.38.75-.61s.85-.7,1.42-1.17,1.16-.93,2.39-1.88,1.58-1.28,1.66-1.51,0-.24-.15-.24a1.64,1.64,0,0,0-.68.22c-.33.17-.78.43-1.15.65a1.52,1.52,0,0,1-.86.35.64.64,0,0,1-.59-.91.93.93,0,0,1,.15-.25S215.2,31.36,215.22,31.39Z" transform="translate(82.12 66)"/><path d="M213.26,40.91a5.91,5.91,0,0,1-.81,0l-.33,0-.05-.68.37-.11a11.64,11.64,0,0,0,3-.67,3.28,3.28,0,0,0,2.22-2,1.54,1.54,0,0,0,.05-1.31c-.4-.56-2-.07-3.72,1.12a8.46,8.46,0,0,0-1.3,1.1,1.41,1.41,0,0,1-1,.57.65.65,0,0,1-.54-.26,1.23,1.23,0,0,1,0-1.1c.18-.49.31-.62.88-1.05a8.3,8.3,0,0,0,.73-.6c.29-.22.64-.51,1-.84l.4-.33c.58-.48,1.17-.94,2.4-1.89l.88-.7c-.26.13-.53.29-.78.44a1.85,1.85,0,0,1-1,.41,1,1,0,0,1-.83-.43,1,1,0,0,1-.11-1,1.45,1.45,0,0,1,.2-.35L215,31h.41l.16.24-.35.14.35-.13a3.29,3.29,0,0,1,.65-.27,6,6,0,0,1,2.31-.67,1.17,1.17,0,0,1,1.16,1.62,2.33,2.33,0,0,1-.8,1c-.33.24-.49.36-1.54,1.08l-1,.72a2.66,2.66,0,0,1,2.94.69,2.55,2.55,0,0,1,.12,2.37,4.28,4.28,0,0,1-2.76,2.61A9.92,9.92,0,0,1,213.26,40.91Zm4.88-5.46a1.19,1.19,0,0,1,.15.18,2.16,2.16,0,0,1,.05,2,3.53,3.53,0,0,1-1.49,1.87,3.4,3.4,0,0,0,1.83-2,1.83,1.83,0,0,0,0-1.68A1.15,1.15,0,0,0,218.14,35.45Zm-4.65.75-.28.22a9.31,9.31,0,0,1-.76.62c-.5.38-.51.4-.62.71a.94.94,0,0,0-.08.33,1.4,1.4,0,0,0,.36-.31,9.49,9.49,0,0,1,1.42-1.21l.15-.09Zm5.18-5.12a.38.38,0,0,1,.09.09.57.57,0,0,1,0,.53c-.1.29-.32.51-1.25,1.25l.88-.63a1.57,1.57,0,0,0,.55-.64.49.49,0,0,0,0-.43A.45.45,0,0,0,218.67,31.08Zm-3.32.88a.21.21,0,0,0,0,.11.25.25,0,0,0,.22.11c.12,0,.27,0,.65-.29l.6-.35-.37.15a2.59,2.59,0,0,1-1,.29Z" transform="translate(82.12 66)"/><path d="M233,37.73c-.36,1,.21,1.53,1.59,1.53a9.5,9.5,0,0,0,2.17-.29,3.62,3.62,0,0,1,.56-.08c.34,0,.5.18.4.46-.22.61-1.49,1-3,1-1.83,0-2.71-.81-2.24-2.08a2,2,0,0,1,.51-.81s.06,0,.05,0ZM236,31.39c.11.29.32.38.74.38a7.32,7.32,0,0,0,.91-.07l.74,0c.71,0,1.09.39.89.94a.77.77,0,0,1-.6.51c-.13,0-.27,0-.56.08a3.65,3.65,0,0,0-.68.22c-.37.15-.76.34-1.27.59,0,0,0,0,0,0,.59-.42.9-.65,1.53-1.08.19-.12.23-.16.24-.2s0-.07-.27-.07a5.59,5.59,0,0,0-.56.06,2.71,2.71,0,0,1-.41,0,.73.73,0,0,1-.82-.53,1.12,1.12,0,0,1,0-.67l0-.11S236,31.37,236,31.39Z" transform="translate(82.12 66)"/><path d="M234.7,40.78a2.84,2.84,0,0,1-2.46-.93,1.71,1.71,0,0,1-.13-1.66,2.43,2.43,0,0,1,.58-.93l.21-.24.57.32-.17.51a.76.76,0,0,0,0,.68,1.6,1.6,0,0,0,1.25.36,9.38,9.38,0,0,0,2.1-.28,2.72,2.72,0,0,1,.63-.09.82.82,0,0,1,.69.3.7.7,0,0,1,.06.66C237.7,40.38,236.12,40.78,234.7,40.78Zm-2-1.78a.84.84,0,0,0,.14.42,2.25,2.25,0,0,0,1.85.61,3.49,3.49,0,0,0,2.6-.76,2.35,2.35,0,0,0-.51.07,10.08,10.08,0,0,1-2.25.3A2.22,2.22,0,0,1,232.71,39ZM236,34.5l-.33-.64.52-.39.55-.4h0a1.09,1.09,0,0,1-1.18-.79,1.51,1.51,0,0,1,.05-.91s0-.1.08-.17l.12-.2h.45l.15.25c0,.08.06.14.39.14a6.63,6.63,0,0,0,.87-.07c.42,0,.65,0,.78,0a1.36,1.36,0,0,1,1.15.49,1,1,0,0,1,.09,1,1.11,1.11,0,0,1-.86.74,6,6,0,0,1-.61.09,3.28,3.28,0,0,0-.46.15l-.13,0-1,.45Zm1.66-2.27a.67.67,0,0,1,.58.2l.11.16-.06.2.33,0a.38.38,0,0,0,.32-.27.26.26,0,0,0,0-.26c0-.09-.23-.18-.53-.18-.12,0-.32,0-.7,0a7.92,7.92,0,0,1-.95.07,1.53,1.53,0,0,1-.51-.07c.05.14.12.24.45.24l.36,0,.2,0Z" transform="translate(82.12 66)"/></g></g></svg>