<?xml version="1.0" encoding="utf-8"?>
<!-- Generator: Adobe Illustrator 25.4.1, SVG Export Plug-In . SVG Version: 6.00 Build 0)  -->
<svg version="1.1" id="レイヤー_1" xmlns="http://www.w3.org/2000/svg" xmlns:xlink="http://www.w3.org/1999/xlink" x="0px"
	 y="0px" viewBox="0 0 800 800" style="enable-background:new 0 0 800 800;" xml:space="preserve">
<style type="text/css">
	.st0{fill:#178060;}
</style>
<path class="st0" d="M401.3,324.1c5.9,0,11.7,2.1,16.1,6l4.2-5.1l-2.8-17.8l13.9,19.2l-6.4,11.4l6.4,7l44.4-57.9l35.9-91.8l5.5-99.2
	L481.4-4.1l46.2,97.5l-5.4,102.6l-32.9,97.9l-42.9,60.7l69.2-44l71.6-105.7l1.5-92l5.4,97.5l-68.5,109.3l-75.2,55l64.6,42.2l83-11.7
	l68.8-57.9l-63.3,69.2l-89.7,13.5l-57.9-28.5l103.9,124.9l35.9,151.8l-80.9,125.9l70.8-126.7l-36.9-145.8l-64.4-55.6
	c0,0,3.4,75.3-76.2,81.1c-79.6,5.7-83.3-91.5-83.3-91.5l-73.4,65.7L216,675.5l72.7,124.1l-84-124.3l36.4-149.9l105.5-127.2l-59,30.3
	l-91.5-16.3l-62.8-66.4l63.8,55.5l87.6,12.4l58.2-39l-61.8-46.2l-78.4-117.8l3.3-96.2l5.4,92.6l74.5,107.8l63.9,41.1l-39-61.8
	l-34.1-93.9l-3.1-104.4l40.8-96.2l-35.1,96.6l5.4,102.3l35.6,90.8l45.3,57.4l8.2-9.6l-9.9-13l17.1-15.7l-3.9,15.7l9.3,6.4
	C390.4,326.5,395.8,324.1,401.3,324.1z"/>
</svg>
