<?xml version="1.0" encoding="utf-8"?>
<!-- Generator: Adobe Illustrator 25.4.1, SVG Export Plug-In . SVG Version: 6.00 Build 0)  -->
<svg version="1.1" id="レイヤー_1" xmlns="http://www.w3.org/2000/svg" xmlns:xlink="http://www.w3.org/1999/xlink" x="0px"
	 y="0px" viewBox="0 0 1830.4 815" style="enable-background:new 0 0 1830.4 815;" xml:space="preserve">
<style type="text/css">
	.st0{fill:#000025;}
</style>
<path class="st0" d="M630.5,12l31.2,42.9l-117.6,72h726l-118.1-72l35.4-43.2L1358,131l19.6,0.4L1189.3,0.9L1188,0H630L445.6,131.3
	l21.4-0.4L630.5,12z M641.4,10h534.5l-33.1,40.3h-472L641.4,10z"/>
<path class="st0" d="M1372.3,788.4l-94.2-88.2l112.2-165.3l-953.1,2l105.6,162.7l-67.1,79.8L346.6,536.9l-26,0.5l147.1,269.8
	l907.6,7.9h6.4l130.9-278.2h-18L1372.3,788.4z M1258.3,709.1l91.5,85.7l-854.7-7.4l65.8-78.3H1258.3z"/>
<path class="st0" d="M1761.3,358.6v-2.3h-1.2l-100.9-198.4H172.3L0,494.4h1830.4L1761.3,358.6z M644.5,356.2l-562.7,0.4l50.5-98.5
	l528.7,0.3L644.5,356.2z M686.2,167.8h96.2L774.8,310h271l16.2,174.4H633.6L686.2,167.8z M1054.9,300H785.3l7.1-132.2H1161
	l51.2,316.6h-140.1L1054.9,300z M1203.2,365.8l550.8,0.4l60.1,118.1h-591.8L1203.2,365.8z M1201.5,355.8l-15.8-97.8l513-0.3
	l50.1,98.5L1201.5,355.8z M1693.7,247.7l-509.6,0.3l-13-80.2H1653L1693.7,247.7z M178.4,167.8H676l-13.5,80.6l-525.2-0.3
	L178.4,167.8z M76.6,366.7l566.2-0.4L623,484.4H16.4L76.6,366.7z"/>
<rect x="894.1" y="200.3" class="st0" width="37.5" height="46.9"/>
<rect x="892.5" y="359.7" class="st0" width="46.9" height="59.4"/>
</svg>
