<?xml version="1.0" encoding="utf-8"?>
<!-- Generator: Adobe Illustrator 25.4.1, SVG Export Plug-In . SVG Version: 6.00 Build 0)  -->
<svg version="1.1" id="レイヤー_1" xmlns="http://www.w3.org/2000/svg" xmlns:xlink="http://www.w3.org/1999/xlink" x="0px"
	 y="0px" viewBox="0 0 1307.6 1341.2" style="enable-background:new 0 0 1307.6 1341.2;" xml:space="preserve">
<style type="text/css">
	.st0{fill:#989B9D;}
</style>
<polygon class="st0" points="397.9,309.7 313.9,145.7 496,227.7 457.9,39.7 651.9,222.7 847.9,45.7 814.9,239.7 1014.9,126.7 
	909.9,320.7 973.9,288.7 1173.9,285.7 1235.9,269.7 1261.9,320.7 1211.9,366.7 1128.9,516.7 1066.9,563.7 1261.9,573.6 
	1076.9,689.7 1275.9,756.7 1009.9,842.7 1073.9,1106.7 916.9,970.7 911.9,1167.7 807.9,1032.7 794.9,1115.8 724.9,1196.7 
	686.9,1322.7 629.3,1322.7 586.9,1189.7 510.9,1077.7 512.9,1001.7 412.9,1179.7 395.9,968.7 248.9,1106.7 310.9,834.7 46.9,758.7 
	256.9,700.7 46.9,573.6 274.9,578.7 203.9,525.7 139.9,399.7 62.9,326.7 72.9,273.7 334.9,290.7 "/>
<polygon points="778.9,175.7 661.9,296 540.9,175.7 612.9,465.7 700.8,465.7 "/>
<polygon points="884.9,257.7 746.9,336.7 710.9,513.7 728.5,513.7 "/>
<path d="M550.8,507.6L267.6,126.4l-0.4-0.7c-5.9-9.4-3-21.9,6.5-27.7c6.2-3.9,14-4.1,20.4-0.5l174.1,96L428.5,25.7
	c-2.6-10.8,4.1-21.7,14.9-24.3c6.7-1.6,13.7,0.3,18.6,5l197.8,187.1L854.6,5.6c8-7.7,20.7-7.5,28.5,0.5c4.9,5,6.8,12.2,5,19
	l-43.5,169.4l175.4-94.2c9.8-5.2,22-1.5,27.2,8.3c3.4,6.4,3.1,14.2-0.9,20.4L809.9,474.7l-32-1l192.9-301.6L783.1,272.9l48.8-189.8
	L660,248.9L482.7,81.1l45,190.8l-173-95.4l117.1,199.1L550.8,507.6z M274.6,132.5L274.6,132.5z M434.4,35.5L434.4,35.5z M882.4,34.4
	L882.4,34.4L882.4,34.4z M467.4,16.5L467.4,16.5z"/>
<polygon points="428.9,257.7 567.4,336.7 592.9,440.7 590.9,513.7 "/>
<path d="M519.9,629.7l-324.2-79.6l-2.3-8.5c-21.9-81.1-68-153.6-132.3-207.7L38.7,315L67,249.3l35.7,8.5c79.3,19,161.4,23,242.2,12
	l34-0.1l190,228l-18,10l-208-202.5c-83.8,5.6-166.4,1.1-247.2-18.2l-11.1-2.6l-9.6,22l5.4,4.6c66.6,56.1,115.1,130.7,139.5,214.3
	l302,80.4L519.9,629.7z"/>
<path d="M289,441c-3.6-0.1-7.2-0.6-10.7-1.7c-16.8-5.5-32-15.1-44.1-28c-5.1-5.8-12.5-17.2-5.5-28.2c3-4.7,10.6-11.9,27.9-7
	c16.8,5.5,32,15.1,44.1,28c5.1,5.8,12.5,17.2,5.5,28.2l0,0C303.9,435.9,298.9,441,289,441z"/>
<rect x="175.5" y="285" transform="matrix(0.5138 -0.8579 0.8579 0.5138 -216.6881 330.171)" width="15" height="142.5"/>
<path d="M810.9,624.7l-13-25l307-85.4c32.1-76.1,77.6-145.8,134.4-205.7l7.9-8.3l-14.3-19.3l-6.7,2.4
	c-81.7,29.6-170.4,34.4-254.8,13.8L809.9,474.7l-16.3-18.9L961,263.5l9,2.4c81.2,21.6,167.1,17.9,246.1-10.7l27.6-9.9l42.7,57.3
	l-25.2,26.6c-56.1,59.2-100.7,128.3-131.5,203.7l-3,7.3L810.9,624.7z"/>
<path d="M1027.3,428.4c-7,0-14.9-2.1-19.1-10.2c-2.6-5-5-15.2,7.9-27.7c13.2-11.8,29.1-20.2,46.3-24.2c7.6-1.5,21.2-2.2,27.2,9.3
	c2.6,5,5,15.2-7.9,27.7c-13.2,11.8-29.1,20.2-46.3,24.2C1032.7,428.1,1030,428.4,1027.3,428.4z"/>
<rect x="1064.3" y="342.2" transform="matrix(0.874 -0.4859 0.4859 0.874 -26.838 595.8364)" width="142.6" height="15"/>
<path d="M691.6,1341.2l-63.6-1.7c-2.7-0.1-5-1.9-5.8-4.4l-6.6-22.3c-23.2-78.1-60.7-151.3-110.7-215.7l-2.9-3.8
	c-1.2-1.6-1.6-3.6-1-5.5L568.3,860c0.9-3,3.9-4.9,7-4.3l4.6,0.8c3.4,0.6,5.6,3.8,5,7.1c-0.1,0.3-0.1,0.6-0.2,0.9L548,978.2
	c-0.1,0.3-0.2,0.7-0.2,1.1l-13.9,103.3c-0.2,1.6,0.2,3.2,1.2,4.5c49.1,65.3,86.1,138.9,109.4,217.2l0.4,1.4c0.8,2.6,3.1,4.4,5.8,4.4
	l16,0.4c3,0.1,5.7-2.1,6.2-5.1l0,0c15.3-85,53-152.8,103-218.8c1.3-1.7,0.6-36.9,0-39l-39-149.9c-0.9-3.3,0.9-6.7,4.2-7.6
	c0.4-0.1,0.7-0.2,1.1-0.2l18.5-1.8c3-0.3,5.7,1.6,6.5,4.5l54.1,190c0.6,2.1,0,4.4-1.6,6l-3.7,3.7c-59.3,59.5-99,135.7-113.8,218.4
	l-4.6,25.4C697.3,1339.1,694.6,1341.3,691.6,1341.2z"/>
<path d="M662.1,1141.2c-0.3,0-0.6,0-0.9,0c-5.6-0.2-15.6-3.2-20-20.7c-3.7-17.3-2.9-35.3,2.2-52.2c2.4-7.1,8.4-18.9,20.8-18.9h0.8
	l0,0c5.6,0.2,15.6,3.2,20,20.7c3.7,17.3,2.9,35.3-2.2,52.2C680.5,1129.4,674.5,1141.2,662.1,1141.2z"/>
<rect x="589.7" y="1186.6" transform="matrix(1.623035e-02 -0.9999 0.9999 1.623035e-02 -543.7255 1835.6161)" width="142.5" height="15"/>
<polygon points="208.9,756.6 371.5,797.8 327.8,962.6 467.9,828.7 463.9,688.7 "/>
<polygon points="226.9,623.8 364.3,703.8 462.9,670.7 463.9,628.7 "/>
<polygon points="446.9,1025.7 446,866.2 465.9,840.7 468.9,872.7 484.9,887.7 523.9,888.7 "/>
<polygon points="991.9,967.7 946.2,806.2 1110.9,761.7 858.9,695.7 858.9,833.7 "/>
<polygon points="867.9,1018.5 868.5,859.5 850.9,843.7 795.9,886.7 "/>
<polygon points="1095.9,623.6 957.9,703.7 875.9,680.7 815.9,630.7 "/>
<path d="M912.2,1236.3c-7.5,0-14.4-4.2-17.9-10.9l-81.5-144.7l-47-193l128.9,250.6l6.5-212.9l140,137.1l-57.6-231.7l233.9-69.7
	l-187.8-56.4l173.6-104.8l-398.5,25.9l284-82l197.3,8.5h0.6c11.1-0.4,20.4,8.4,20.8,19.5c0.2,7.3-3.5,14.1-9.7,17.9l-170.2,102.8
	l165,49.6c10.7,3.2,16.7,14.4,13.5,25.1c-1.9,6.5-7,11.6-13.5,13.5l-261,77.8L1097,1121c2.7,10.8-3.9,21.7-14.7,24.4
	c-6.8,1.7-14-0.3-19-5.2l-124.9-122.4l-6.1,199C932,1227.7,923.1,1236.3,912.2,1236.3L912.2,1236.3z M1058.2,1130.6L1058.2,1130.6
	L1058.2,1130.6z M1091.4,1111.6L1091.4,1111.6L1091.4,1111.6z"/>
<path d="M394.5,1237.8c-1.6,0-3.2-0.2-4.7-0.6c-8.9-2.1-15.2-10-15.4-19.1l-3.9-198.8L245,1137.4c-8.1,7.6-20.9,7.2-28.5-0.9
	c-4.6-4.9-6.5-11.8-4.9-18.4l63.1-264.9L14.5,778.4c-10.7-3.1-16.9-14.2-13.8-24.9c1.9-6.7,7.2-12,14-13.8l168.4-47L13.9,587.9
	c-9.5-5.9-12.4-18.3-6.5-27.7c3.8-6.1,10.4-9.7,17.6-9.5h192.8l210.6,49L97,592.3l184.8,114.4L93,759.3l229.5,66L266,1062.8
	l142.7-134.4l4,202.7l156.6-277.2l4.5,39.8l-161.3,333l-0.3,0.5C408.8,1233.7,402,1237.8,394.5,1237.8z M25.5,778.2L25.5,778.2z
	 M24,590.7L24,590.7z M35,553.9L35,553.9z"/>
<polygon points="615.9,526.7 615.9,477.2 699.9,483.7 699.9,494.3 690.7,502 690.7,526.7 750.8,526.7 779.9,491.7 796.9,491.7 
	847.6,526.7 847.6,540 467.9,545.7 467.9,527.4 "/>
<polygon points="535.9,556.7 555.6,556.7 598.9,567.7 714.9,567.7 734.9,550.7 750.8,550.7 799.9,581.7 781.9,587.7 781.9,641.7 
	759.9,653.7 713.9,649.7 713.9,638.7 601.9,638.7 601.9,657.7 535.9,657.7 "/>
<polygon class="st0" points="598.9,578.7 715.9,576.7 715.9,630.5 598.9,631.6 "/>
<polygon points="481.9,650.7 481.9,870.7 546.9,865.7 546.9,681.1 768.9,681.1 768.9,792.7 738.9,792.7 738.9,708.7 708.9,695.7 
	678.9,714.7 634.9,714.7 575.9,693.7 575.9,836.7 629.9,834.7 630.9,801.7 678.9,801.7 678.9,823.7 737.9,812.7 737.9,870.7 
	793.8,870.7 838.9,830.7 838.9,692.8 855.9,681.7 795.9,643.7 769.9,667.7 546.9,667.7 "/>
<rect x="634.9" y="722.7" class="st0" width="43.8" height="66"/>
</svg>
