<?xml version="1.0" encoding="utf-8"?>
<!-- Generator: Adobe Illustrator 25.4.1, SVG Export Plug-In . SVG Version: 6.00 Build 0)  -->
<svg version="1.1" id="レイヤー_1" xmlns="http://www.w3.org/2000/svg" xmlns:xlink="http://www.w3.org/1999/xlink" x="0px"
	 y="0px" viewBox="0 0 1330 1031.8" style="enable-background:new 0 0 1330 1031.8;" xml:space="preserve">
<style type="text/css">
	.st0{fill:#231815;}
	.st1{fill:#3A3E42;}
	.st2{fill:#FFFFFF;}
	.st3{fill:#0F0B0D;}
</style>
<polygon class="st0" points="835.5,167 917.5,25 1186.5,24 1318.5,254 1187.5,491 948.5,491 994.5,615 668.5,1016 338.5,619 
	386.5,491 148.5,491 11.5,256 142.5,24 412.5,24 500.5,159 554.5,10 779.9,10 "/>
<path class="st1" d="M668.6,1031.8L327.1,620.9l45-119.9H142.8L0,256.1L136.7,14h281.2l80,122.8L547.5,0H787l50.8,143.2l74-128.2
	l280.6-1L1330,253.9L1193.4,501H962.9l43,115.9L668.6,1031.8z M349.9,617.1l318.5,383.2l314.7-387.1l-49-132.1h247.5L1307,254.2
	L1180.8,34l-257.4,1l-90,155.8L772.8,20H561.5l-58.4,161.2L407.1,34H148.3L23.1,255.9L154.3,481H401L349.9,617.1z"/>
<polygon class="st2" points="1071.5,218 936.5,461 843.9,218 "/>
<polygon class="st2" points="828.5,231 886.5,397 749.5,397 749.5,856 583.5,856 583.5,396.5 450.5,396.5 508.9,231 "/>
<polygon class="st2" points="260.5,218 395.2,461 487.6,218 "/>
<path class="st3" d="M667.5,990.8L353.9,613l0.9-2.7L561,20h213l1.2,3.4l206,589.7l-1.8,2.2L667.5,990.8z M365.2,611l302.4,364.2
	L969.9,611l-203-581H568.1L365.2,611z"/>
</svg>
