<?xml version="1.0" encoding="utf-8"?>
<!-- Generator: Adobe Illustrator 25.4.1, SVG Export Plug-In . SVG Version: 6.00 Build 0)  -->
<svg version="1.1" id="レイヤー_1" xmlns="http://www.w3.org/2000/svg" xmlns:xlink="http://www.w3.org/1999/xlink" x="0px"
	 y="0px" viewBox="0 0 1059.1 1010.2" style="enable-background:new 0 0 1059.1 1010.2;" xml:space="preserve">
<style type="text/css">
	.st0{fill:#0E0800;}
	.st1{fill:#BBB409;}
	.st2{fill:#060303;}
</style>
<path class="st0" d="M287.1,822.8l-16.3-11.5c-43.2-30.4-59-84.8-38.4-132.2l6.1-13.9l20.8,16.6c35.3,28.1,49.4,73.4,36,115.4
	L287.1,822.8z M242.4,681.2l-0.9,2c-18.7,43-4.4,92.3,34.9,120l5.2,3.6l4.1-12.7c12.2-38-0.6-79-32.7-104.5L242.4,681.2z"/>
<path class="st1" d="M262.4,810.1l-11-17.1c-23-35.5-66-54.4-109.2-48l-20.2,3l4,7.7c22.5,43.8,73.4,67.4,123.4,57L262.4,810.1z"/>
<path class="st0" d="M225.5,820.3c-43.6,0-84.2-23.5-104-62.1l-7.2-14l27.1-4c45.2-6.8,90,13,114.1,50.2l15,23.2l-20.2,4.2
	C242.2,819.4,233.9,820.3,225.5,820.3z M129.6,752l0.8,1.5c21.5,42,70,64.3,118,54.3l5.9-1.2l-7.1-10.9c-22-34-62.9-51.9-104.2-45.7
	L129.6,752z"/>
<path class="st1" d="M351.4,862.2l5.4-17.5c11.2-36.3-1.7-76.1-32.8-100.9l-14.6-11.6l-3.1,7.2c-17.5,41-3,88.8,35.1,115.7
	L351.4,862.2z"/>
<path class="st0" d="M354.1,870.3l-15.6-11c-40.1-28.4-55.3-78.4-36.8-121.7l5.7-13.3l19.7,15.7c32.8,26.2,46.3,67.9,34.5,106.3
	L354.1,870.3z M311.4,740.3l-0.5,1.2c-16.6,38.9-2.8,84,33.4,109.7l4.3,3l3.3-10.8c10.6-34.5-1.6-71.9-31.1-95.5L311.4,740.3z"/>
<path class="st1" d="M339.5,857.1l-2.6-2.7c-27.5-28.6-68.5-39.6-106.6-28.7c-10.2,3-20,7.4-28.9,13.1l-17,10.9l7,5.4
	c39.8,30.7,95.9,38.6,136.6,9L339.5,857.1z"/>
<path class="st0" d="M269.4,887.6c-3.5,0-7-0.2-10.5-0.5c-24.8-2.2-49.9-12.2-70.6-28.1l-12.7-9.8l23-14.7
	c9.4-6,19.6-10.6,30.2-13.7c39.5-11.5,83.3,0.3,111.6,30.1l6.9,7.2l-16.7,10.2C313.1,881,292,887.6,269.4,887.6z M193,850.1l1.4,1.1
	c19.2,14.8,42.4,24.1,65.3,26.1c24.3,2.2,46.9-3.8,65.2-17.1l0.4-0.2l6.2-3.8c-26.3-25.9-64.4-35.7-99.9-25.6
	c-9.8,2.8-19.1,7-27.7,12.5L193,850.1z"/>
<polygon class="st0" points="130.2,125.3 92.2,142.8 102.9,170.4 "/>
<path class="st0" d="M101.9,181.7l-16.1-41.5l57.2-26.4L101.9,181.7z M98.5,145.4l5.3,13.8l13.6-22.5L98.5,145.4z"/>
<polygon class="st0" points="69.2,209.6 99.7,225.6 87.1,247.7 "/>
<path class="st0" d="M86.7,258.6l-28.3-60.4l48.2,25.4L86.7,258.6z M80.1,221l7.5,15.9l5.3-9.2L80.1,221z"/>
<polygon class="st0" points="64.8,301.3 92.8,314.3 80.1,338.9 "/>
<path class="st0" d="M79.5,350.8l-24.1-59.4L99.6,312L79.5,350.8z M74.2,311.2l6.4,15.7l5.4-10.3L74.2,311.2z"/>
<polygon class="st0" points="70.9,404.2 110.2,391.3 85.3,433.3 "/>
<path class="st0" d="M84.9,443.8l-21-42.6l57.4-18.8L84.9,443.8z M77.9,407.1l7.8,15.7l13.4-22.7L77.9,407.1z"/>
<polygon class="st0" points="110.9,487.7 99.1,513.2 87.3,498.7 "/>
<path class="st0" d="M100.3,522.5l-21-25.6l41.9-19.4L100.3,522.5z M95.2,500.5l2.8,3.3l2.7-5.8L95.2,500.5z"/>
<path class="st0" d="M42.9,545.6c4.3,15.3,2,33.8,2,33.8S106,583,126,606.1c-1-22.7-27-25.9-46.3-35.1
	C66.3,564.4,53.8,555.9,42.9,545.6z"/>
<path class="st0" d="M131.6,620.3l-9.4-10.9c-7.4-8.6-23.1-15.6-45.2-20.4c-10.7-2.3-21.5-3.8-32.5-4.6l-5.3-0.3l0.6-5.3
	c0-0.2,2.1-17.7-1.8-31.9l-5-18.1L46.3,542c10.6,9.8,22.5,18.1,35.5,24.4c4.2,2,8.9,3.8,13.5,5.5c16.3,6.2,34.7,13.1,35.6,33.9
	L131.6,620.3z M50.3,574.9c10.6,1,35.5,4.1,55.9,12.5c-4-2-8.8-3.9-14.3-6c-4.8-1.8-9.7-3.7-14.3-5.9c-9.7-4.7-18.9-10.5-27.5-17.1
	C50.6,563.8,50.6,569.4,50.3,574.9z"/>
<path class="st0" d="M70.3,641.2c2.9,9.9,7.2,19.4,12.6,28.1c0,0,64.5-1.5,84.5,21.5c-0.6-12.6,2.6-25.9-7.7-29.6
	c-8.3-3-29.3,3.1-37.9-1C96.2,660.9,70.3,641.2,70.3,641.2z"/>
<path class="st0" d="M173,705l-9.4-10.9c-15.1-17.4-63.3-20.1-80.6-19.8l-2.8,0.1l-1.5-2.3c-5.8-9.2-10.2-19.1-13.2-29.5l-4-14.2
	l11.8,8.9c0.2,0.2,24.9,18.5,48.4,18.1h1.2l1.1,0.5c3.3,1.6,11.4,0.9,18,0.3c7.5-0.7,14.5-1.3,19.4,0.5
	c11.5,4.1,11.3,15.8,11.1,26.2c-0.1,2.6-0.1,5.3,0,7.9L173,705z M85.8,664.3c11.7,0,53.6,1.1,76.6,15.9c0.1-8.7-0.5-12.8-4.4-14.2
	c-2.8-1-9.4-0.4-15.2,0.1c-8,0.7-16.2,1.4-22-0.8h-0.1c-15.4,0-30.5-6.5-40.8-12c1.7,3.8,3.6,7.4,5.7,11H85.8z"/>
<path class="st0" d="M228.5,716.5c0,0-3.6,35.2,8,52.3c-31.6-22.1-46.3-26.1-46.3-26.1l23.1-4L228.5,716.5z"/>
<path class="st0" d="M255.8,788.4l-22.2-15.6c-30.1-21.1-44.6-25.3-44.7-25.4l-21.1-6l42.7-7.4l25.1-36.6l-2,19.5
	c-0.5,6.4-0.7,12.7-0.3,19.1c0.7,13.3,3.3,23.6,7.5,29.8L255.8,788.4z M207.3,744.8c4.9,2.6,11.1,6.1,18.4,10.8
	c-1.6-7.3-2.6-14.7-2.7-22.2l-6.8,9.9L207.3,744.8z"/>
<polygon class="st0" points="262.7,801.9 285.9,822 257.5,818.9 "/>
<path class="st0" d="M301.1,828.6l-50.2-5.3l9.3-30.2L301.1,828.6z M264,814.6l6.5,0.7l-5.3-4.6L264,814.6z"/>
<polygon class="st0" points="296.4,793.8 309,829 284.8,819.9 "/>
<path class="st0" d="M317.4,837.4l-39.3-14.7l18.8-42.4L317.4,837.4z M291.5,817.1l9.1,3.4l-4.8-13.2L291.5,817.1z"/>
<path class="st2" d="M533.3,820.1c-35.2,0-69.8-10.1-99.4-29.1l-0.1-0.1l-141-102.7c-27.4-20.1-49.8-46.2-65.4-76.5L217.3,592
	c-12-23.5-18.3-49.6-18.3-76V123.5c0-16.3,5.5-32.2,15.6-45l1.9-2.3c13.7-17.4,34.7-27.6,56.8-27.5h525.2c40,0,72.5,32.5,72.5,72.5
	v387.1c0,23.5-4.9,46.7-14.6,68.1l-9.7,21.5c-15.3,34-39,63.5-68.9,85.7L635.9,789C605.5,809.3,569.8,820.1,533.3,820.1z
	 M436.6,786.9c60.1,38.4,137.2,37.6,196.4-2l141.9-105.3c29.2-21.7,52.4-50.5,67.3-83.7l9.7-21.5c9.4-20.8,14.2-43.3,14.1-66.1
	V121.1c0-37.3-30.2-67.5-67.5-67.5l0,0H273.4c-20.6-0.1-40.2,9.4-52.9,25.6l-1.9,2.4c-9.4,11.9-14.6,26.7-14.6,41.9V516
	c0,25.6,6.1,50.9,17.8,73.7l10.1,19.7c15.2,29.5,37.1,55.1,63.9,74.7L436.6,786.9z"/>
<path class="st2" d="M585.5,407.1h-102v-102h102V407.1z M493.5,397.1h82v-82h-82V397.1z"/>
<rect x="351.1" y="580.8" transform="matrix(1.745299e-03 -1 1 1.745299e-03 -51.8877 1119.712)" class="st2" width="367.5" height="10"/>
<rect x="580.5" y="351.1" class="st2" width="241.5" height="10"/>
<rect x="529.8" y="93.8" transform="matrix(1 -2.967029e-03 2.967029e-03 1 -0.5968 1.5877)" class="st2" width="10" height="216.3"/>
<rect x="248.3" y="351.1" class="st2" width="240.2" height="10"/>
<path class="st2" d="M655.6,715.1c-78-91-75.1-313-75.1-313s145-12.4,241.5,66.8C838.5,610.1,655.6,715.1,655.6,715.1z"/>
<path class="st2" d="M411.2,714.9c76-91,73.1-313,73.1-313S343.1,389.5,249,468.7C233,609.9,411.2,714.9,411.2,714.9z"/>
<path class="st2" d="M533.7,771.1c-30.5,0-60.3-8.9-85.7-25.7l-0.2-0.1L327.9,651l-0.1-0.1c-11.5-11-21.4-22.9-32-35.6
	c-2.9-3.5-5.9-7.1-8.9-10.7c-9.1-10.9-16.9-22.8-23.3-35.5l-0.1-0.2l-13.4-49.4c-2.9-10.7-4.3-21.6-4.3-32.7V156.9
	c0-14,4.7-27.7,13.3-38.8l1.6-2.1c12.1-15.5,30.6-24.6,50.2-24.6h450.2c35,0,63.4,28.4,63.4,63.4l0,0v341.5
	c0,20.7-4.2,41.1-12.5,60.1l-0.1,0.2l-9.2,16.9c-18.3,29.3-37.9,54.6-58.3,75.4l-0.2,0.2l-86.9,68l-35,26.6
	C596.1,761.5,565.3,771.1,533.7,771.1z M450.8,741.3c51.3,33.7,117.9,33,168.5-1.8l34.8-26.4l86.8-67.9
	c20.1-20.5,39.5-45.5,57.5-74.4l9.1-16.6c8-18.3,12.1-38,12.1-58V154.8c0-32.3-26.2-58.4-58.4-58.4H310.9
	c-18.1,0.1-35.1,8.4-46.2,22.7l-1.6,2.1c-7.9,10.2-12.2,22.8-12.2,35.8v329.9c0,10.6,1.4,21.1,4.2,31.4l13.2,48.9
	c6.1,12.3,13.7,23.8,22.5,34.3c3.1,3.6,6,7.2,9,10.7c10.4,12.5,20.2,24.4,31.5,35.1L450.8,741.3z"/>
<path class="st2" d="M650.2,101.6c-66.3,70.8-67.3,210.1-67.3,210.1s140.6,10.1,237.1-45c1-47,8-138-14-153
	c-26.8-33.4-107-14-140.5-19.8C659.8,92.8,652,99.6,650.2,101.6z"/>
<path class="st2" d="M420.5,100.8c66.6,70.8,67.6,210.1,67.6,210.1s-141.3,10.1-238.2-45c-1-47-8-138,14.1-153
	c26.9-33.4,107.5-14,141.2-19.8C410.9,92.1,418.6,98.9,420.5,100.8z"/>
<path class="st2" d="M571,907.6h-72v-72h72V907.6z M509,897.6h52v-52h-52V897.6z"/>
<path class="st2" d="M645.9,918c-22.3,0-44.2-4.2-50.6-8.2c-3-1.7-4.5-5.3-3.4-8.6c0.7-2,2.6-8.2,29.5-16.6
	c11.4-3.6,28.2-7.6,37.9-7l-0.5,10c-6.4-0.3-19.6,2.1-32.9,6.1c-11.5,3.5-18.7,6.8-22.2,9c11.4,4,44.7,8.3,68.7,2.7
	c10.5-2.4,17.7-6.5,20.9-11.7c11.3-18.5,4.3-79.4,0-105.7c-11.2-1.3-26.4-2-31.2,0.1c-6.1,2.7-59.2,35.4-93.4,56.7l-5.3-8.5
	c8.8-5.5,85.9-53.4,94.6-57.3c9.8-4.4,35.2-1.1,40.2-0.4l3.6,0.5l0.6,3.6c0.7,3.6,15.6,89.7-0.7,116.2c-4.7,7.7-13.9,13.2-27.2,16.2
	C665.2,917.2,655.6,918.2,645.9,918z"/>
<path class="st2" d="M653.3,1008.1c-2.2,0-4.3-1-5.8-2.7l-81.4-95c-2.7-3.1-2.3-7.8,0.8-10.5c1.5-1.3,3.5-1.9,5.5-1.8l27.3,2.6
	l85.4,58.5c3.5,2.4,4.4,7.1,2.1,10.6c-1.5,2.2-4,3.5-6.7,3.4l-19.6-0.8v28c0,3.2-2,6.1-5,7.2
	C655.1,1007.9,654.2,1008.1,653.3,1008.1z M577.9,908.7l73.1,85.4V970c0-2.1,0.9-4.1,2.3-5.5c1.5-1.4,3.5-2.2,5.6-2.1l13.9,0.6
	l-76.6-52.5L577.9,908.7z"/>
<path class="st2" d="M423.3,920.2c-9.3,0.1-18.6-0.8-27.8-2.8c-13.3-3.1-22.3-8.6-27-16.4c-15.8-26.5-1.3-112.5-0.6-116.2l0.6-3.6
	l3.6-0.5c4.9-0.7,29.5-4,39.1,0.4c8.5,3.9,83.2,51.9,91.6,57.3l-5.4,8.4c-33.1-21.3-84.5-53.9-90.4-56.7c-4.5-2.1-19.1-1.4-29.9-0.1
	c-4.2,26.3-11,87.2,0,105.7c3.2,5.3,10.3,9.4,20.6,11.8c23.1,5.3,55.1,1.1,65.9-2.9c-8.8-5.7-39.6-15.9-53.3-15.1l-0.6-10
	c9.4-0.5,25.6,3.5,36.7,7c26,8.4,28,14.5,28.7,16.5c1.1,3.3-0.3,6.9-3.3,8.6C465.2,916.3,444.4,920.2,423.3,920.2z"/>
<path class="st2" d="M415.6,1010.2c-0.9,0-1.8-0.2-2.6-0.5c-3-1.1-5-4-5-7.2v-28l-18.8,0.8c-3.4,0.1-6.4-2-7.5-5.2s0-6.8,2.8-8.8
	l82.8-58.5l26.5-2.6c3-0.3,5.8,1.2,7.2,3.9c1.4,2.7,1.1,5.9-0.8,8.3l0,0l-78.8,95C420,1009.1,417.9,1010.2,415.6,1010.2z
	 M410.4,964.4c1.9,0,3.8,0.8,5.2,2.1c1.5,1.5,2.4,3.5,2.4,5.6v23.7l70.6-85l-17.6,1.7L396.8,965l13.3-0.6H410.4z M492.5,906
	L492.5,906z"/>
<polygon class="st0" points="991.4,402.4 954,389.6 977.7,431.5 "/>
<path class="st0" d="M978.1,442.3l-35-61.7l55.1,18.9L978.1,442.3z M964.9,398.6l12.5,22l7.2-15.3L964.9,398.6z"/>
<polygon class="st0" points="953.3,485.7 964.6,511 975.8,496.6 "/>
<path class="st0" d="M963.4,520.7l-20.2-45.5l40.4,19.6L963.4,520.7z M963.5,496.2l2.3,5.2l2.3-3L963.5,496.2z"/>
<path class="st0" d="M1018.1,543.3c-4,15.3-1.9,33.7-1.9,33.7s-58.2,3.6-77.2,26.6c0.9-22.6,25.7-25.8,44-35
	C995.9,562,1007.7,553.5,1018.1,543.3z"/>
<path class="st0" d="M933.4,618.2l0.6-14.8c0.9-20.7,18.4-27.6,34-33.8c4.3-1.7,8.8-3.5,12.8-5.5c12.4-6.4,23.7-14.6,33.7-24.3
	l13.3-13.7l-4.9,18.5c-3.8,14.1-1.8,31.7-1.8,31.8l0.6,5.2l-5.3,0.3c-0.6,0-56.2,3.7-73.6,24.8L933.4,618.2z M1010.9,556.4
	c-7.9,6.4-16.6,12-25.7,16.7c-4.4,2.2-9.1,4.1-13.6,5.9s-8.7,3.5-12.2,5.3c19-7.8,41.5-10.8,51.4-11.7
	C1010.5,567.1,1010.5,561.7,1010.9,556.4z"/>
<path class="st0" d="M992,638.6c-2.7,9.8-6.8,19.2-12,28c0,0-61.4-1.5-80.4,21.5c0.5-12.6-2.5-25.8,7.4-29.5c7.9-3,27.9,3.1,36-1
	C967.4,658.2,992,638.6,992,638.6z"/>
<path class="st0" d="M894,702.7l0.6-14.9c0.1-2.6,0-5.3,0-7.9c-0.2-10.3-0.4-21.9,10.6-26c4.7-1.8,11.5-1.2,18.7-0.5
	c6.1,0.6,13.8,1.3,16.8-0.3l1.1-0.6h1.2h0.9c22,0,44.7-17.8,44.9-17.9l11.8-9.3l-3.8,14.5c-2.9,10.3-7.1,20.2-12.6,29.4l-1.5,2.4
	l-2.8-0.1c-16.4-0.4-62.1,2.3-76.4,19.7L894,702.7z M913.3,662.7c-1.5-0.1-3.1,0.1-4.6,0.5c-3.6,1.4-4.2,5.4-4.1,13.9
	c22-14.5,61.3-15.6,72.5-15.6c1.3-2.3,3.3-6.1,5.3-10.7c-9.7,5.5-23.9,11.7-38.4,11.7c-5.6,2.2-13.4,1.5-21,0.8
	C919.7,663.1,916.2,662.8,913.3,662.7L913.3,662.7z"/>
<path class="st0" d="M841.6,713.5c0,0,3.4,35.1-7.6,52.1c30-22,44-26,44-26l-22-4L841.6,713.5z"/>
<path class="st0" d="M815,785.7l14.8-22.8c8.2-12.7,7.7-39.6,6.8-48.9l-2-20.3L859,731l41,7.5l-20.6,5.9c-0.1,0-13.8,4.3-42.4,25.2
	L815,785.7z M847,731c-0.2,7.1-1,14.2-2.5,21.2c6.8-4.5,12.5-7.9,17.1-10.4l-8.6-1.6L847,731z"/>
<polygon class="st0" points="809,798.6 787,818.6 814,815.6 "/>
<path class="st0" d="M772.2,825.3l39.3-35.7l8.9,30.4L772.2,825.3z M806.5,807.7l-4.7,4.2l5.8-0.6L806.5,807.7z"/>
<polygon class="st0" points="777,790.6 765,825.6 788,816.6 "/>
<path class="st0" d="M756.8,834.2l19.7-57.6l18.1,42.8L756.8,834.2z M777.5,804.6l-4.3,12.4l8.2-3.2L777.5,804.6z"/>
<path class="st1" d="M98.5,140.4l18.1-10.2C154.2,109,174.8,68.3,168.9,27l-2.8-19.4l-8.2,3.6c-46.4,20.6-72,68.8-62.1,116.7
	L98.5,140.4z"/>
<path class="st0" d="M95,148.2L91,129C80.6,78.6,107.3,28.3,155.9,6.7l14.2-6.3l3.7,25.9c6.2,43.5-15.3,86-54.8,108.3L95,148.2z
	 M162.1,14.9l-2.1,1C115.7,35.6,91.3,81.3,100.8,127l1.2,5.8l12.1-6.8c35.9-20.3,55.5-58.9,49.9-98.2L162.1,14.9z"/>
<path class="st1" d="M102,221.8l19.4-7.6c40.5-15.7,67.2-53.1,67.7-94.8l0.2-19.6l-8.7,2.5c-49,13.9-81.8,58-79.3,106.7L102,221.8z"
	/>
<path class="st0" d="M97.4,228.9l-1-19.7C93.8,158,128,112,179.4,97.4l15.1-4.3l-0.3,26.3c-0.5,43.9-28.4,82.9-70.9,99.4L97.4,228.9
	z M184.3,106.5l-2.2,0.6c-46.9,13.3-78,55.1-75.7,101.7l0.3,5.8l13-5c38.7-15,64-50.4,64.5-90.2L184.3,106.5z"/>
<path class="st1" d="M82.5,314.3l19-8.6c39.5-17.9,64-56.6,62-98.3l-0.9-19.5l-8.5,2.9c-48.1,16.5-78.3,62.2-73,110.8L82.5,314.3z"
	/>
<path class="st0" d="M78.3,321.7l-2.1-19.5c-5.6-51,25.8-98.8,76.3-116.1l14.8-5.1l1.2,26.2c2,43.9-23.5,84.3-65,103.1L78.3,321.7z
	 M158,194.8l-2.2,0.8c-46,15.8-74.7,59.2-69.6,105.5l0.6,5.8l12.7-5.7c37.7-17,60.9-53.7,59.1-93.5L158,194.8z"/>
<path class="st1" d="M95.6,223.4l3.9-19.7c8.1-41-10.4-82.7-46.8-105.7L35.6,87.3L33,95.6c-14.3,46.9,6.8,97,51,121.5L95.6,223.4z"
	/>
<path class="st0" d="M99.2,231.1l-17.6-9.7c-46.5-25.7-68.4-78-53.4-127.3l4.4-14.6l22.6,14.3c38.3,24.2,57.6,67.7,49.1,110.8
	L99.2,231.1z M38.4,95l-0.6,2c-13.6,44.7,6.4,92.3,48.6,115.6l5.6,3.1l2.6-13c7.7-39.1-9.8-78.5-44.6-100.5L38.4,95z"/>
<path class="st1" d="M86.8,312.1l2.4-19.9c5-41.5-16.6-81.7-54.7-102.2l-17.9-9.6l-1.9,8.4C4,236.7,28.8,285.2,74.8,306.6
	L86.8,312.1z"/>
<path class="st0" d="M91,319.6l-18.3-8.5C24.4,288.7-1.4,238,9.9,187.8l3.3-14.8l23.7,12.7c40,21.5,62.5,63.5,57.3,107.2L91,319.6z
	 M20.1,188l-0.5,2C9.4,235.6,33,281.6,76.9,302l5.8,2.7l1.6-13.1c4.8-39.5-15.7-77.6-52.1-97.1L20.1,188z"/>
<path class="st1" d="M75.3,404.2l19-8.6c39.5-17.9,64-56.6,62-98.3l-0.9-19.5l-8.5,2.9c-48.1,16.5-78.3,62.2-73,110.8L75.3,404.2z"
	/>
<path class="st0" d="M71.1,411.6L68.9,392c-5.6-51,25.8-98.7,76.3-116l14.8-5.1l1.2,26.2c2,43.9-23.5,84.3-65,103L71.1,411.6z
	 M150.7,284.7l-2.2,0.8c-46,15.8-74.7,59.2-69.6,105.5l0.6,5.8l12.7-5.8c37.7-17,60.9-53.7,59.1-93.5L150.7,284.7z"/>
<path class="st1" d="M79.6,402l2.4-19.9c5-41.5-16.6-81.7-54.7-102.2l-17.9-9.6l-1.9,8.4C-3.2,326.4,21.6,375,67.6,396.3L79.6,402z"
	/>
<path class="st0" d="M83.7,409.4L65.4,401C17.2,378.6-8.7,327.9,2.6,277.7L6,262.8l23.7,12.7C69.7,297,92.2,339,87,382.7L83.7,409.4
	z M12.8,277.9l-0.4,2c-10.2,45.5,13.3,91.6,57.3,112l5.8,2.7l1.6-13c4.7-39.5-15.7-77.6-52.1-97.2L12.8,277.9z"/>
<path class="st1" d="M83.8,498.7l18.4-9.6c38.3-20.1,60.2-60.2,55.7-101.7l-2.1-19.5l-8.3,3.4c-47,19.3-74.2,66.6-65.8,114.8
	L83.8,498.7z"/>
<path class="st0" d="M80,506.3L76.6,487c-8.8-50.6,19.5-100.1,68.8-120.3l14.4-5.9l2.9,26c4.8,43.7-18.1,85.5-58.3,106.6L80,506.3z
	 M151.4,375.1l-2.2,0.9c-44.9,18.4-70.7,63.4-62.8,109.3l1,5.8l12.3-6.5c36.6-19.2,57.4-57.2,53-96.7L151.4,375.1z"/>
<path class="st1" d="M87.9,496.3l1.1-20c2.3-41.7-21.8-80.6-61.1-98.8L9.5,369l-1.4,8.5c-7.7,48.3,20.1,95.3,67.4,114L87.9,496.3z"
	/>
<path class="st0" d="M92.5,503.5l-18.8-7.4C24.1,476.5-4.9,427.4,3.2,376.7l2.4-15.1L30,373c41.3,19.1,66.4,59.8,64,103.6
	L92.5,503.5z M13.4,376.3l-0.3,2c-7.4,46,19.1,90.7,64.3,108.5l5.9,2.3L84,476c2.2-39.7-20.6-76.6-58.2-94L13.4,376.3z"/>
<path class="st1" d="M113.7,582.7l15.8-13.2c33-27.4,45.5-71,31.9-110.6l-6.4-18.6l-7.4,5c-41.7,28.3-57.7,80.1-38.9,125.5
	L113.7,582.7z"/>
<path class="st0" d="M111.6,590.9l-7.5-18.1C84.3,525.1,101,471,144.8,441.2l12.8-8.7l8.5,24.8c14.4,41.7,1.3,87.3-33.4,116.1
	L111.6,590.9z M152.4,448.2l-2,1.3c-39.8,27-55,76.2-37.1,119.5l2.3,5.6l10.6-8.8c31.4-26.1,43.4-67.4,30.4-105.1L152.4,448.2z"/>
<path class="st1" d="M117.2,579.5l-3.3-19.8c-7-41.2-39.1-74.4-81.6-84.2l-19.9-4.6l0.6,8.6c3.2,48.7,40.8,89.1,91.1,97.8
	L117.2,579.5z"/>
<path class="st0" d="M123.3,585.7l-20.1-3.5c-52.8-9.1-92-51.2-95.3-102.4l-1-15.3l26.5,6.1c44.6,10.3,78.1,45,85.4,88.3
	L123.3,585.7z M17.8,477.3l0.1,1.9c3,46.5,38.8,84.8,87,93.2l6.2,1.1l-2.2-12.8c-6.6-39.3-37.2-70.8-77.8-80.2L17.8,477.3z"/>
<path class="st1" d="M159.5,660.9l11.4-16.8c23.7-34.7,23.1-80.6-1.5-114.7l-11.6-16.2l-5.6,6.8c-31.8,38.2-32.2,92.2-0.9,130.9
	L159.5,660.9z"/>
<path class="st0" d="M159.9,669.3L147.5,654c-32.9-40.6-32.5-97,0.9-137.2l9.8-11.8l15.3,21.4c25.9,35.8,26.6,84,1.6,120.4
	L159.9,669.3z M157.6,521.4l-1.5,1.8c-30.3,36.5-30.7,87.7-0.8,124.5l3.9,4.8l7.6-11.2c22.6-33,22-76.6-1.4-109L157.6,521.4z"/>
<path class="st1" d="M156.7,656.9l-9-18.1c-18.6-37.8-59.2-61.1-102.8-59.3l-20.5,0.8l3,8.1c17.2,46,65.1,74.8,116,69.8L156.7,656.9
	z"/>
<path class="st0" d="M131.9,663.8c-48.6,0-92.4-29-109.1-73.6l-5.5-14.6l27.4-1.1c45.8-1.9,88,22.5,107.6,62.1l12.2,24.6l-20.5,2
	C139.9,663.6,135.9,663.8,131.9,663.8z M31.5,585l0.6,1.7c16.5,44,62,71.4,110.8,66.6l6.1-0.6l-5.8-11.6
	C125.4,605,86.8,582.8,45,584.6L31.5,585z"/>
<path class="st1" d="M210.3,741.3l9.6-17.8c20.1-37.1,14.9-82-13.2-114l-13.1-15l-4.9,7.2c-27.8,41-22.6,94.8,12.4,130.3
	L210.3,741.3z"/>
<path class="st0" d="M211.5,749.7l-13.9-14.1c-36.9-37.3-42.2-93.5-13-136.6l8.5-12.6l17.4,19.9C240,640,245.4,687,224.3,726
	L211.5,749.7z M194.1,602.7l-1.3,1.9c-26.5,39.1-21.6,90.1,11.9,124l4.4,4.5l6.4-11.9c19.1-35.3,14.2-77.8-12.5-108.3L194.1,602.7z"
	/>
<path class="st1" d="M197.6,737.1l-10.8-17.2c-22.4-35.8-65.1-55.3-108.4-49.5l-20.3,2.7L62,681c21.8,44.2,72.4,68.4,122.5,58.7
	L197.6,737.1z"/>
<path class="st0" d="M162.3,746.8c-44.2,0-85.3-24.2-104.8-63.6l-6.9-14l27.2-3.7c45.3-6.1,89.8,14.2,113.3,51.8l14.6,23.4
	l-20.2,3.9C177.8,746.1,170.1,746.8,162.3,746.8z M65.7,677.2l0.8,1.6c20.9,42.3,69,65.3,117.1,56l5.9-1.1l-6.9-11
	c-21.4-34.3-62.1-52.8-103.5-47.2L65.7,677.2z"/>
<path class="st1" d="M284.4,814.8l6.1-19.2c12.8-39.9-0.7-83.2-34.3-110l-15.7-12.5l-3.5,8c-19.6,45.1-4.5,97.1,36.7,126.1
	L284.4,814.8z"/>
<path class="st1" d="M967.9,222.4l-3.7-19.6c-7.7-40.8,9.9-82.3,44.5-105.2l16.2-10.8l2.4,8.2c13.6,46.7-6.4,96.6-48.5,121
	L967.9,222.4z"/>
<path class="st0" d="M964.3,230.3l-5-26.6c-8.1-42.8,10.3-86.4,46.7-110.3l21.9-14.5l4.3,14.8c14.3,48.9-6.7,101.3-50.8,126.7
	L964.3,230.3z M1022.1,94.7l-10.6,7c-33.1,21.8-49.8,61.3-42.4,100.1l2.4,12.7l4.9-2.8c40.2-23.2,59.3-70.8,46.2-115.3L1022.1,94.7z
	"/>
<path class="st1" d="M976.3,310.8L974,291c-4.7-41.3,15.8-81.4,52-101.8l17-9.6l1.8,8.4c10.2,47.6-13.4,95.9-57.1,117.2L976.3,310.8
	z"/>
<path class="st0" d="M972.1,318.4l-3.1-26.9c-5-43.3,16.5-85.4,54.5-106.7l22.9-12.9l3.2,15c10.8,49.8-13.9,100.6-59.8,122.8
	L972.1,318.4z M1039.6,187.4l-11.1,6.2c-34.5,19.3-54,57.5-49.5,96.8l1.5,12.8l5.1-2.5c41.7-20.2,64.2-66.3,54.4-111.6L1039.6,187.4
	z"/>
<path class="st1" d="M987.3,402.4l-18-8.5c-37.6-17.8-60.8-56.4-59-97.9l0.8-19.5l8.1,2.9c45.8,16.4,74.4,62,69.4,110.4L987.3,402.4
	z"/>
<path class="st0" d="M991.5,410l-24.4-11.6c-39.4-18.6-63.8-59.1-61.8-102.6l1.2-26.2l14.5,5.2c48,17.1,78,64.9,72.7,115.6
	L991.5,410z M915.8,283.5l-0.6,12.7c-1.8,39.5,20.3,76.3,56.1,93.2l11.6,5.5l0.6-5.6c4.9-46.1-22.4-89.5-66.1-105.1L915.8,283.5z"/>
<path class="st1" d="M983.2,400.3l-2.3-19.8c-4.7-41.3,15.8-81.4,52-101.8l17-9.5l1.8,8.4c10.2,47.6-13.4,95.9-57.1,117.2
	L983.2,400.3z"/>
<path class="st0" d="M979,407.9l-3-26.9c-5-43.3,16.5-85.4,54.5-106.7l22.9-12.9l3.2,15c10.8,49.8-14,100.6-59.9,122.8L979,407.9z
	 M1046.4,276.9l-11.1,6.1c-34.5,19.3-54,57.5-49.5,96.8l1.5,12.8l5.1-2.5c41.7-20.2,64.2-66.3,54.4-111.6L1046.4,276.9z"/>
<path class="st1" d="M979.2,496.6l-17.5-9.6c-36.4-20-57.3-60-52.9-101.3l2-19.4l7.9,3.4c44.7,19.2,70.5,66.4,62.6,114.4
	L979.2,496.6z"/>
<path class="st0" d="M983,504.4l-23.7-13c-38.2-20.9-60.1-62.8-55.5-106.2l2.8-26.1l14.1,6.1c46.9,20,73.9,69.5,65.5,119.8
	L983,504.4z M915.1,373.6l-1.3,12.6c-4.2,39.4,15.7,77.4,50.4,96.4l11.3,6.2l0.9-5.6c7.7-45.7-17-90.8-59.6-109L915.1,373.6z"/>
<path class="st1" d="M975.3,494.2l-1.1-19.9c-2.2-41.5,20.7-80.3,58.1-98.4l17.5-8.5l1.3,8.5c7.3,48.1-19.2,94.9-64.1,113.5
	L975.3,494.2z"/>
<path class="st0" d="M970.7,501.5l-1.4-27c-2.4-43.5,21.6-84.2,60.9-103.2l23.6-11.5l2.3,15.2c7.7,50.4-20,99.5-67.2,118.9
	L970.7,501.5z M1045.9,374.8l-11.4,5.5c-35.6,17.2-57.4,54.1-55.3,93.6l0.7,12.9l5.2-2.1c42.9-17.6,68.1-62.3,61.1-108.1
	L1045.9,374.8z"/>
<path class="st1" d="M950.8,580.3l-15.1-13.1c-31.4-27.3-43.3-70.7-30.3-110.2l6.1-18.5l7,5c39.6,28.2,54.9,79.8,37,125L950.8,580.3
	z"/>
<path class="st0" d="M952.8,588.7L932.4,571c-32.9-28.6-45.5-74.1-31.8-115.5l8.2-25l12.5,8.9c41.7,29.5,57.7,83.6,38.8,131
	L952.8,588.7z M914.1,446.5l-4,12.1c-12.4,37.6-1,78.9,28.9,104.9l9.7,8.5l2.1-5.2c17.1-43.1,2.6-92.3-35.2-119.1L914.1,446.5z"/>
<path class="st1" d="M947.4,577.1l3.2-19.7c6.6-41,37.2-74.1,77.6-83.9l18.9-4.6l-0.5,8.6c-3,48.5-38.8,88.7-86.7,97.4L947.4,577.1z
	"/>
<path class="st0" d="M941.4,583.3l4.3-26.7c6.9-43.1,39-77.8,81.4-88l25.5-6.2l-1,15.3c-3.1,50.9-40.6,93-90.8,102L941.4,583.3z
	 M1041.7,475.4l-12.3,3c-38.5,9.3-67.6,40.8-73.8,79.8l-2,12.7l5.5-1c45.6-8.2,79.8-46.5,82.6-92.8V475.4z"/>
<path class="st1" d="M907.2,658.2l-10.8-16.8c-22.6-34.9-22-79.9,1.4-114.3l11-16.1l5.3,6.7c30.3,38.1,30.6,91.9,0.8,130.4
	L907.2,658.2z"/>
<path class="st0" d="M906.8,666.8l-14.7-22.7c-23.7-36.6-23.1-83.8,1.5-119.8l14.8-21.7l9.6,12c31.8,39.9,32.1,96.3,0.9,136.5
	L906.8,666.8z M909,519.5l-7.1,10.5c-22.4,32.7-22.9,75.5-1.4,108.8l7,10.8l3.5-4.5c28.4-36.6,28.1-87.9-0.8-124.2L909,519.5z"/>
<path class="st1" d="M909.8,654.2l8.5-18.1c17.7-37.6,56.3-60.9,97.8-59.1l19.5,0.8l-2.9,8.1c-16.4,45.8-61.9,74.5-110.3,69.5
	L909.8,654.2z"/>
<path class="st0" d="M933.4,661c-3.8,0-7.6-0.2-11.5-0.6l-19.7-2l11.5-24.5c18.5-39.5,59-63.9,102.6-62l26.2,1.1l-5.2,14.5
	C1021.8,631.6,980.1,661.1,933.4,661z M917.4,649.9l5.6,0.6c46.1,4.8,89.5-22.6,105-66.2l0.6-1.7L1016,582
	c-39.5-1.7-76.2,20.4-93.1,56.2L917.4,649.9z"/>
<path class="st1" d="M858.9,738.3l-9.2-17.7c-19.1-36.9-14.1-81.7,12.5-113.6l12.5-15l4.7,7.2c26.4,40.8,21.5,94.4-11.8,129.8
	L858.9,738.3z"/>
<path class="st0" d="M857.7,746.9l-12.4-24c-20.1-38.7-14.9-85.7,13.2-119.1l16.8-20.2l8.3,12.9c27.8,42.8,22.6,99-12.4,136
	L857.7,746.9z M874.2,600.4l-8.2,9.7c-25.4,30.3-30.1,73-11.9,108.1l5.9,11.5l3.9-4.1c31.8-33.7,36.5-84.8,11.3-123.6L874.2,600.4z"
	/>
<path class="st1" d="M870.9,734.1l10.2-17.1c21.3-35.7,61.9-55.1,103.1-49.3l19.3,2.7l-3.7,7.8c-20.8,44-68.9,68.1-116.5,58.5
	L870.9,734.1z"/>
<path class="st0" d="M904.5,743.8c-7.4,0-14.8-0.7-22.1-2.2l-19.4-3.9l13.9-23.2c22.3-37.5,65-57.9,108.1-51.7l26,3.7l-6.6,13.9
	C986.2,719,947.3,743.8,904.5,743.8z M878.8,730.6l5.5,1.1c45.4,9.3,91.3-13.7,111-55.7l0.8-1.6l-12.6-1.8
	c-39.2-5.6-77.9,12.9-98.1,46.9L878.8,730.6z"/>
<path class="st1" d="M788.4,811.5l-5.8-19.1c-12.2-39.7,0.7-82.9,32.6-109.5l15-12.5l3.3,7.9c18.7,44.9,4.3,96.8-34.9,125.7
	L788.4,811.5z"/>
<path class="st0" d="M785.7,819.7l-7.9-25.8c-12.8-41.7,0.7-87,34.2-114.8l20.2-16.8l5.9,14.2c19.7,47,4.6,101.4-36.5,131.6
	L785.7,819.7z M828.2,678.6l-9.8,8.1c-30.4,25.3-42.7,66.5-31,104.3l3.8,12.3l4.5-3.3c37.4-27.4,51.1-76.9,33.2-119.7L828.2,678.6z"
	/>
<path class="st1" d="M809.4,806.8l10.5-17c21.8-35.4,62.7-54.2,103.8-47.8l19.2,3l-3.8,7.7c-21.4,43.7-69.8,67.1-117.4,56.8
	L809.4,806.8z"/>
<path class="st0" d="M844.4,817c-8,0-15.9-0.9-23.7-2.6l-19.3-4.2l14.2-23c22.9-37.1,65.8-56.9,108.8-50.1l26,4l-6.8,13.9
	C925.1,792.9,886.6,817,844.4,817z M817.3,803.5l5.5,1.2c45.3,9.9,91.5-12.4,111.8-54.1l0.8-1.6l-12.5-2
	c-39.1-6.2-78.1,11.8-98.8,45.5L817.3,803.5z"/>
<path class="st1" d="M724.7,858.7l-5.1-17.4c-10.7-36.2,1.6-75.8,31.2-100.5l13.9-11.6l2.9,7.2c16.6,40.8,2.8,88.4-33.4,115.2
	L724.7,858.7z"/>
<path class="st0" d="M721.9,867l-7.2-24.2c-11.3-38.2,1.6-79.7,32.8-105.8l19.1-16l5.5,13.6c17.5,43.1,3.1,92.9-35.1,121.2
	L721.9,867z M762.6,737.5l-8.6,7.2c-28.1,23.5-39.7,60.9-29.6,95.3l3.1,10.5l3.7-2.8c34.5-25.5,47.5-70.5,31.7-109.3L762.6,737.5z"
	/>
<path class="st1" d="M736,853.6l2.5-2.7c25.6-28.1,65-39.6,101.4-28.6c9.8,3,19.1,7.4,27.5,13.1l16.2,10.9l-6.7,5.4
	c-37.8,30.5-91.2,38.4-129.9,9L736,853.6z"/>
<path class="st0" d="M802.7,884.1c-21.1,0.2-41.7-6.6-58.5-19.4l-15.8-10.1l6.5-7.1c27-29.7,68.8-41.5,106.5-30
	c10.2,3.1,20,7.7,28.9,13.7l21.8,14.6l-12,9.7c-19.7,15.9-43.6,25.9-67.3,28.1C809.3,883.9,806,884.1,802.7,884.1z M743.7,852.6
	l6.3,4c17.4,13.2,38.8,19.1,61.8,17c21.7-2,43.7-11.2,61.9-25.9l1.4-1.1l-10.5-7.1c-8.1-5.4-16.9-9.6-26.2-12.4
	C805.1,817,768.2,827,743.7,852.6z"/>
<polygon class="st0" points="935,124.6 971.2,142.1 961,169.6 "/>
<path class="st0" d="M962,181.3L922.6,113l54.9,26.5L962,181.3z M947.5,136.2l12.5,21.7l4.9-13.3L947.5,136.2z"/>
<polygon class="st0" points="993,208.6 964,224.6 976,246.6 "/>
<polygon class="st0" points="997.2,300 970.6,312.9 982.7,337.4 "/>
<path class="st0" d="M983.3,349.8l-19.4-39.1l42.6-20.8L983.3,349.8z M977.3,315.2l4.8,9.8l5.8-15L977.3,315.2z"/>
<path class="st1" d="M965.2,139.7L948,129.6c-35.8-21.2-55.4-61.7-49.8-102.9l2.6-19.3l7.8,3.6c44.1,20.5,68.4,68.5,59,116.2
	L965.2,139.7z"/>
<path class="st0" d="M968.7,147.6l-23.3-13.8c-37.6-22.1-58.2-64.7-52.2-107.9l3.5-26l13.9,6.5c46.4,21.6,71.9,71.9,62,121.8
	L968.7,147.6z M904.9,14.8l-1.7,12.6c-5.4,39.2,13.3,77.8,47.4,97.9l11.1,6.6l1.1-5.5c9.1-45.5-14.2-91.2-56.2-110.7L904.9,14.8z"/>
<path class="st1" d="M961.9,220.7l-18.5-7.5c-38.5-15.7-63.9-52.9-64.4-94.5l-0.2-19.5l8.2,2.4c46.6,13.8,77.8,57.7,75.4,106.3
	L961.9,220.7z"/>
<path class="st0" d="M966.5,228l-25-10.2c-40.4-16.4-67-55.4-67.5-99l-0.3-26.3l14.7,4.4c48.9,14.4,81.5,60.5,79,111.4L966.5,228z
	 M883.9,106l0.2,12.7c0.4,39.6,24.6,75,61.2,89.9l12,4.9l0.3-5.6c2.3-46.3-27.4-88.2-71.9-101.3L883.9,106z"/>
<path class="st1" d="M980.4,312.9l-18-8.5c-37.6-17.8-60.8-56.4-59-97.9l0.8-19.5l8.1,2.9c45.8,16.4,74.4,62,69.4,110.4L980.4,312.9
	z"/>
<path class="st0" d="M984.6,320.5l-24.4-11.6c-39.4-18.6-63.8-59.1-61.8-102.6l1.2-26.3l14.5,5.2c48,17.1,78,64.9,72.7,115.6
	L984.6,320.5z M908.9,194l-0.6,12.7c-1.8,39.5,20.3,76.3,56.1,93.1l11.7,5.5l0.6-5.6c4.9-46.1-22.5-89.5-66.1-105.1L908.9,194z"/>
<path class="st0" d="M976.5,257.9l-19.2-35.2l46.4-25.6L976.5,257.9z M970.8,226.6l4.8,8.8l6.8-15.1L970.8,226.6z"/>
</svg>
