<?xml version="1.0" encoding="utf-8"?>
<!-- Generator: Adobe Illustrator 25.4.1, SVG Export Plug-In . SVG Version: 6.00 Build 0)  -->
<svg version="1.1" id="レイヤー_1" xmlns="http://www.w3.org/2000/svg" xmlns:xlink="http://www.w3.org/1999/xlink" x="0px"
	 y="0px" viewBox="0 0 324.5 152.9" style="enable-background:new 0 0 324.5 152.9;" xml:space="preserve">
<style type="text/css">
	.st0{fill:#0B1220;}
</style>
<path class="st0" d="M4.2,54.5c7.8,3.3,18.9,0,29.3,6.3S44,71.2,44,75.4s-16.8,4.2-23-4.2S4.2,54.5,4.2,54.5z M23,113.1
	c4.2-6.3,10.5-8.4,20.9-16.8c0,0-4.2,21-6.3,33.5S27.2,142.4,23,142.4S12.6,140.3,6.3,132c-4.2-8.4-4.2-6.3-6.3-25.1
	C10.5,108.9,18.9,113.1,23,113.1z M27.2,41.9c-8.4-2.1-4.9-27.5-12.6-31.4c0,0,6.3,0,18.9,8.4s10.5,20.9,6.3,23S35.6,44,27.2,41.9
	L27.2,41.9z M152.9,98.4c-8.4-2.1-18.9-4.2-23-2.1c-2.1,4.2-6.3,8.4-4.2,14.7c2.1,2.1,8.4,4.2,10.5,4.2s2.1,6.3,0,10.5
	c-4.2,0-16.8-2.1-16.8,0s-4.2,20.9-8.4,23s-8.4,2.1-14.7,2.1S65,131.9,65,129.8s31.4,0,33.5,0s4.2-10.5,2.1-12.6s-10.5,0-18.8,2.1
	s-14.7,4.3-21,4.3s-12.6-8.4-12.6-10.5s4.7-6.3,6.3-18.8c0,0-10.5,6.3-12.6,6.3S16.8,83.8,27.2,81.7s31.4-2.1,31.4-2.1
	c1.1-9.3-2.1-23,2.1-27.2s37.7,0,41.9,0s4.2-4.2,8.4-4.2s25.1,8.4,27.2,12.6s0,8.4-2.1,16.8c12.6,2.1,20.9,12.6,23,14.7
	S161.3,100.5,152.9,98.4z M140.3,41.9c-16.8-2.1-79.6,4.2-79.6,4.2c-4.1,9.3-19.1,13.8-21,12.6c14.7-12.6,12.6-29.3,8.4-54.5
	c0,0,29.3,6.3,27.2,10.5s-0.6,8.6-2.1,12.6c0,0,52.4-4.2,54.5-4.2S157.1,44,140.3,41.9z M83.2,106.5c0.6-5.9,0.5-11.2,1.2-18.6
	l-11.2-2.1c-0.9,7.2-3.3,16.8-4.2,23L83.2,106.5z M85.9,79.4c0-4.2,2-7.6-0.1-11.8s-10.5-4.8-10.5-4.8c0.4,4.2,0.4,8.4,0,12.6
	C75.4,75.4,81.5,79.3,85.9,79.4z M98.7,87.6c-0.4,4.8-1.7,11.4-2.3,17.1h10.5c0.5-5.3,2.7-14.5,2.1-16.8
	C106.5,86.9,100.8,87.6,98.7,87.6z M100.5,60.7c-0.5,6-2.6,15.8-1.6,18.7l14.2-1.9c0.2-5.6-2.3-9.7-2.1-16.8H100.5z"/>
<path class="st0" d="M322.5,54.4c8.4-8.3-12.6-20.9-16.8-23s-21,2.1-21,2.1s6.3-6.3,8.4-6.3c2.1,0,13.6,2.1,5.8-12.6
	c-3.7-6.3-18.3-10.5-18.3-10.5s4.2,10.5-12.6,27.2h-4.1c0,0-2.1-10.5,4.2-18.8C274.4,4.2,243,0,243,0s4.2,2.1,2.1,31.4h-4.2
	c0,0-10.9-27.2-30.6-16.8c0,0,20.1,18.8,13.8,21c-6.3,2.1-16.8-16.8-18.9-12.7c-2.1,4.2-2.1,29.3-10.5,33.5s6.3,33.5,14.7,10.5
	c2.1-6.3,2.1-16.8,6.3-18.8c18.9-6.3,73.3-8.4,79.6-6.3c6.3,2.1-2.1,23-4.2,16.8c0-2.1,0-10.5-4.2-10.5s-60.7-2.1-62.8,2.1
	c-2.1,4.2-4.2,25.1,2.1,27.2c6.3,2.1,18.7,0.9,18.7,0.9v5.5c0,0-17.4,2.2-23.3,0c-5.9-2.2-8-6.3-18.5-2.1c2.1,6.3,6.3,23,0,31.4
	c-6.3,8.4,14.7,23,18.8,6.3c4.2-16.7,2.1-23,2.1-23l20.8,0.2V130c0,0-8.3,22.9,12.7,22.9c4.2,0,10.5-2.1,10.5-10.5v-25.2
	c0,0,8.4,2.1,12.6,12.6c0,0,6.3,12.6,23-6.3c6.3-6.3,0-18.8,12.6-29.3c2.1-2.1-8.4-12.6-16.8-14.7c0,0-10.5,6.3-18.8,4.2
	C272.2,81.7,314.1,62.8,322.5,54.4z M238.8,69.1c-2.1-2.1-2.9-9.9,0-10.5c10.5-2.1,27.2,0,29.3,0c2.1,0,2.1,2.1,0,7
	C266,70.5,240.8,71.2,238.8,69.1z M267.1,80.5c-0.9-0.9-1.4-2.2-1.3-3.4c0,0,2.3-0.7,3.5-0.3c1.9,0.8,3.7,1.9,5.3,3.2
	c1.3,0.7,2,2.2,1.7,3.6c-2,0.5-4.1-0.2-6-1.1C269.1,82.1,268,81.4,267.1,80.5z M291.1,94.2c0,0,2.1,16.8-4.2,18.9
	c-8.4,4.2-18.8-0.4-18.8-0.4V94.2H291.1z"/>
</svg>
