<svg xmlns="http://www.w3.org/2000/svg" viewBox="0 0 323.93 71.9"><defs><style>.cls-1{fill:#da4a4e;stroke:#000;stroke-miterlimit:10;stroke-width:4.5px;}</style></defs><g id="レイヤー_2" data-name="レイヤー 2"><g id="コンテ"><path class="cls-1" d="M45.58,19.65a6,6,0,0,1-1.9.3,2.92,2.92,0,0,1-2-.55,2.87,2.87,0,0,1-.8-1.15q-2.3-5.7-6-8.2t-9.75-2.5A13.82,13.82,0,0,0,17,9.9q-3.35,2.36-3.35,7.15A7.54,7.54,0,0,0,16.23,23,24.67,24.67,0,0,0,22.63,27q3.86,1.69,8.3,3.3a43.29,43.29,0,0,1,8.3,4,21.41,21.41,0,0,1,6.4,6.1,16.39,16.39,0,0,1,2.55,9.5,21.56,21.56,0,0,1-1.3,7.4,16.67,16.67,0,0,1-4.1,6.35,20.36,20.36,0,0,1-7.1,4.4,28.74,28.74,0,0,1-10.3,1.65,45.16,45.16,0,0,1-11.8-1.42A50.06,50.06,0,0,1,5,65.14c-.2-2.86-.51-5.67-1-8.44s-.91-5.45-1.45-8.05a6.13,6.13,0,0,1,2.3-.4,3,3,0,0,1,1.8.45,3.26,3.26,0,0,1,1,1.55,37.37,37.37,0,0,0,2.9,6.55,16.89,16.89,0,0,0,3.7,4.5,13.2,13.2,0,0,0,4.85,2.55,23,23,0,0,0,6.35.8,14.62,14.62,0,0,0,5.3-.85,10.25,10.25,0,0,0,3.6-2.25,8.91,8.91,0,0,0,2.1-3.31,11.16,11.16,0,0,0,.7-3.91,9.12,9.12,0,0,0-2.45-6.76,20.33,20.33,0,0,0-6.1-4.1q-3.64-1.65-7.9-3.11a39.42,39.42,0,0,1-7.9-3.7,20.48,20.48,0,0,1-6.1-5.81Q4.28,27.3,4.28,21.28a19.19,19.19,0,0,1,1.45-7.46,17,17,0,0,1,4.25-6,21,21,0,0,1,6.75-4.06,25.4,25.4,0,0,1,9.05-1.5,40.67,40.67,0,0,1,8.45.9,63,63,0,0,1,9.65,3c.14,2,.35,4.25.65,6.75S45.18,17.65,45.58,19.65Z"/><path class="cls-1" d="M77,8.45v24.1h14.1A2.6,2.6,0,0,0,93.68,31,20,20,0,0,0,94.88,26a1.27,1.27,0,0,1,.6-1.05,2.87,2.87,0,0,1,1.3-.25c.2,0,.52,0,1,.05a4,4,0,0,1,1,.15c-.13,1.53-.25,3.32-.35,5.35s-.15,3.75-.15,5.15c0,1.2,0,2.62.1,4.25s.2,3.48.4,5.55a2.06,2.06,0,0,1-1,.25c-.43,0-.75.05-1,.05-1.2,0-1.83-.47-1.9-1.4a17.74,17.74,0,0,0-1.35-5.15,2.59,2.59,0,0,0-2.45-1.35H77V60c0,1.4.87,2.33,2.6,2.8a38,38,0,0,0,8.8.7h4.2a14,14,0,0,0,5-.8,11.62,11.62,0,0,0,3.65-2.25,15.54,15.54,0,0,0,2.8-3.4q1.2-1.95,2.4-4.35c.2-.47.67-.7,1.4-.7a3.18,3.18,0,0,1,1.2.3l1.4.6a14.72,14.72,0,0,1-.45,1.5c-.17.47-.32.93-.45,1.4a12.75,12.75,0,0,0-.8,2.4,16.83,16.83,0,0,1-.6,2.1q-.2,1-.45,2.25c-.17.83-.33,1.63-.5,2.4s-.33,1.45-.5,2-.28,1-.35,1.2a1.62,1.62,0,0,1-1.6.8c-.53,0-1.3,0-2.3-.1s-2.08-.12-3.25-.15-2.35-.08-3.55-.15-2.23-.1-3.1-.1H69.88q-2.89,0-6.65.15T56.48,69a2.42,2.42,0,0,1-.2-1V67c0-1,.33-1.53,1-1.6a23.65,23.65,0,0,0,5.45-1.5,2.85,2.85,0,0,0,1.65-2.8V11a3.93,3.93,0,0,0-.3-1.65,2.46,2.46,0,0,0-1.15-1.1,10.18,10.18,0,0,0-2.2-.8q-1.35-.35-3.45-.75c-.67-.2-1-.8-1-1.8V3.9a2.61,2.61,0,0,1,.2-.95q4.31.3,7.6.4c2.2.07,4.1.1,5.7.1h20.5q4.5,0,7.75-.3c2.17-.2,3.65-.3,4.45-.3a1.7,1.7,0,0,1,1.6.9,13,13,0,0,1,.5,3,37.18,37.18,0,0,0,.7,4.45c.2,1.13.43,2.23.7,3.3s.67,2.37,1.2,3.9c-.33.13-.7.27-1.1.4a3.87,3.87,0,0,1-1.2.2,1.7,1.7,0,0,1-1.6-.9,40.64,40.64,0,0,0-2.35-4.45,11.68,11.68,0,0,0-2.6-3A8.92,8.92,0,0,0,94.93,9a19.08,19.08,0,0,0-4.65-.5Z"/><path class="cls-1" d="M136.78,61.05a7.48,7.48,0,0,0,.15,1.65,2,2,0,0,0,.8,1.15,5.64,5.64,0,0,0,1.9.85,27.73,27.73,0,0,0,3.35.65c.67.13,1,.7,1,1.7,0,.2,0,.5,0,.9a5.76,5.76,0,0,1-.15,1c-2.13-.13-4.42-.25-6.85-.35s-4.58-.15-6.45-.15-4.1,0-6.5.15-4.67.22-6.8.35a2.28,2.28,0,0,1-.2-1v-.9c0-1.07.33-1.63,1-1.7a27.73,27.73,0,0,0,3.35-.65,5.08,5.08,0,0,0,1.85-.85,2.4,2.4,0,0,0,.8-1.15,5.8,5.8,0,0,0,.2-1.65V11A5.8,5.8,0,0,0,124,9.3a2.4,2.4,0,0,0-.8-1.15,5.08,5.08,0,0,0-1.85-.85A27.73,27.73,0,0,0,118,6.65c-.67-.2-1-.77-1-1.7v-.9a3,3,0,0,1,.2-1.1q3.19.19,6.8.35t6.5.15q2.81,0,6.45-.15c2.43-.1,4.72-.22,6.85-.35a8.36,8.36,0,0,1,.15,1.1c0,.4,0,.7,0,.9,0,.93-.33,1.5-1,1.7a27.73,27.73,0,0,0-3.35.65,5.64,5.64,0,0,0-1.9.85,2,2,0,0,0-.8,1.15,7.48,7.48,0,0,0-.15,1.65Z"/><path class="cls-1" d="M177,39.45h-4.3v20.9a3.33,3.33,0,0,0,1.95,3.25,23.56,23.56,0,0,0,6.65,1.55c.93.13,1.4.8,1.4,2a9.59,9.59,0,0,1-.2,1.8q-2.89-.2-7.25-.35t-9.45-.15q-3.6,0-6.95.15c-2.23.1-4.32.22-6.25.35a2,2,0,0,1-.2-.9v-.8c0-1.13.37-1.77,1.1-1.9,1.4-.27,2.53-.52,3.4-.75a7.18,7.18,0,0,0,2-.8,2.31,2.31,0,0,0,1-1.1,4.55,4.55,0,0,0,.25-1.65V11a3.15,3.15,0,0,0-1.45-2.9,15.19,15.19,0,0,0-5.55-1.4,1.79,1.79,0,0,1-.8-.6,2.42,2.42,0,0,1-.3-1.4v-.9a1.46,1.46,0,0,1,.2-.8q2.81.19,6.45.35c2.43.1,4.62.15,6.55.15h15.1a32,32,0,0,1,9.5,1.3,21.14,21.14,0,0,1,7.15,3.7,16,16,0,0,1,4.5,5.7,17,17,0,0,1,1.55,7.3,15.73,15.73,0,0,1-3.25,9.65,19.75,19.75,0,0,1-8.95,6.55l15.7,22.9a9.81,9.81,0,0,0,4.15,3.6,29,29,0,0,0,4.35,1.5,1.42,1.42,0,0,1,.8.45,2,2,0,0,1,.3,1.25v.9a2.74,2.74,0,0,1-.2,1c-.73-.07-1.77-.12-3.1-.15s-2.72-.08-4.15-.15-2.87-.12-4.3-.15-2.62,0-3.55,0a6.56,6.56,0,0,1-4.2-1.75,23.09,23.09,0,0,1-4.1-4.65Zm-1.3-5a24,24,0,0,0,5.6-.6,10.68,10.68,0,0,0,4.3-2.05A9.14,9.14,0,0,0,188.33,28a16.8,16.8,0,0,0,.95-6.1q0-6.2-3-9.8t-10.6-3.6h-3v26Z"/><path class="cls-1" d="M241.18,61.05a7.48,7.48,0,0,0,.15,1.65,2,2,0,0,0,.8,1.15,5.55,5.55,0,0,0,1.9.85,27.73,27.73,0,0,0,3.35.65c.66.13,1,.7,1,1.7,0,.2,0,.5,0,.9a8.66,8.66,0,0,1-.15,1q-3.21-.2-6.85-.35t-6.45-.15c-1.94,0-4.1,0-6.5.15s-4.67.22-6.8.35a2.15,2.15,0,0,1-.2-1v-.9c0-1.07.33-1.63,1-1.7a28.14,28.14,0,0,0,3.35-.65,5.08,5.08,0,0,0,1.85-.85,2.47,2.47,0,0,0,.8-1.15,5.8,5.8,0,0,0,.2-1.65V11a5.8,5.8,0,0,0-.2-1.65,2.47,2.47,0,0,0-.8-1.15,5.08,5.08,0,0,0-1.85-.85,28.14,28.14,0,0,0-3.35-.65c-.67-.2-1-.77-1-1.7v-.9a2.8,2.8,0,0,1,.2-1.1q3.19.19,6.8.35c2.4.1,4.56.15,6.5.15s4-.05,6.45-.15S246,3.08,248.18,3c.06.33.11.7.15,1.1s0,.7,0,.9c0,.93-.34,1.5-1,1.7A27.73,27.73,0,0,0,244,7.3a5.55,5.55,0,0,0-1.9.85,2,2,0,0,0-.8,1.15,7.48,7.48,0,0,0-.15,1.65Z"/><path class="cls-1" d="M308.78,46.65V11.15a3.32,3.32,0,0,0-1.5-3.1,14.93,14.93,0,0,0-5.3-1.4,1.68,1.68,0,0,1-1.3-1.9V4a2.55,2.55,0,0,1,.2-1c1.66.2,3.3.33,4.9.4s3.46.1,5.6.1,4,0,5.5-.1,3.06-.2,4.6-.4c.06.33.11.67.15,1s.05.6.05.8c0,1.13-.4,1.77-1.2,1.9a10.69,10.69,0,0,0-4.5,1.4,3.39,3.39,0,0,0-1.2,2.9v58.5a7.46,7.46,0,0,1-1.35.15l-1.25.05a3.79,3.79,0,0,1-1.5-.35,4.86,4.86,0,0,1-1.7-1.45l-39.4-50v43.2a7.48,7.48,0,0,0,.15,1.65,1.82,1.82,0,0,0,.8,1.1,6.28,6.28,0,0,0,1.9.8c.83.23,1.95.48,3.35.75a1.71,1.71,0,0,1,.85.45,2.14,2.14,0,0,1,.35,1.45,9.18,9.18,0,0,1-.2,1.7l-4.7-.35q-2.2-.15-5.1-.15t-5.55.15c-1.77.1-3.39.22-4.85.35a1.92,1.92,0,0,1-.2-.9v-.8a2.11,2.11,0,0,1,.35-1.4,1.46,1.46,0,0,1,.85-.5,12.15,12.15,0,0,0,4.8-1.5,3.27,3.27,0,0,0,1.2-2.8V10.45A3,3,0,0,0,262.53,8c-.7-.57-2.29-1-4.75-1.35-.8-.2-1.2-.83-1.2-1.9V4.3a1.65,1.65,0,0,1,.1-.55l.1-.8q1.39.1,2.7.15c.86,0,1.73.08,2.6.15,1.46.07,2.95.12,4.45.15s2.71.05,3.65.05a17.61,17.61,0,0,1,3.8.25,3.62,3.62,0,0,1,1.6,1Z"/></g></g></svg>