<svg xmlns="http://www.w3.org/2000/svg" viewBox="0 0 317.2 160.74"><defs><style>.cls-1{stroke:#000;stroke-miterlimit:10;stroke-width:6px;}</style></defs><g id="レイヤー_2" data-name="レイヤー 2"><g id="コンテ"><path class="cls-1" d="M18.35,70.9a152.64,152.64,0,0,1-7.16,22.18A2.6,2.6,0,0,1,8.63,95a6.41,6.41,0,0,1-3.07-1C3.68,92.91,3,91.55,3,90.52a3.2,3.2,0,0,1,.34-1.36C8,79.94,11.87,66.81,13.92,55.89c.34-1.88.68-3.07,2.56-3.07,2.22,0,4.78.68,4.78,3.24,0,.34-.18.85-.18,1.19l-1,6.49,57.33-2.9C91.38,44,92.23,38.32,92.23,35.07c.17-1.19.51-1.87,1.36-1.87,1.37,0,8.19,4.26,8.19,7.51,0,1.36-8.36,11.25-16.89,19.61l50.5-2.55h1.54c2.73,0,6.82,1.7,6.82,4.43,0,1.37-1.36,2.39-2,3.24-11.44,16.38-16,22.52-20,22.52-.85,0-1.36-.51-1.36-1.7s.85-3.42,2.73-6a88.72,88.72,0,0,0,8.36-14.85Zm12.8-35c-1.36,0-2.39.17-3.41.17-1.54,0-2.73-.17-3.58-1a11.44,11.44,0,0,1-3.59-6c0-.51.34-.68.86-.68.17,0,.34.17.68.17a31,31,0,0,0,5.46.51h1.87l38.9-2.39-.17-16.54A14.49,14.49,0,0,0,66.3,5.05a1.45,1.45,0,0,1-.52-1c0-.68,1.2-1,2.56-1C76.7,3,76.7,6.07,76.7,6.58L76.53,26.2l35.32-2A18.65,18.65,0,0,0,118,23a2.16,2.16,0,0,1,1-.17c2.56,0,6.66,3.92,6.66,5.46,0,1.19-1,1.88-2.73,2.05Zm77.46,59.88L76.87,97.52l-.17,57.15c0,1.54-.85,3.07-2.56,3.07s-6.82-2.73-6.82-5.8c0-.34.17-.68.17-1.19a70.48,70.48,0,0,0,.68-11.09l.17-41.8L39.85,99.39l1.2,36.17v.86c0,1.7-.52,2.9-1.88,2.9-1.19,0-6.83-1.54-6.83-5.12v-.51c.18-3.07.35-6,.35-8.53V122.6L32,101.1a31.66,31.66,0,0,0-1.53-9.21,9,9,0,0,1-.51-2c0-.51.34-.85,1.19-.85,1.19,0,3.92.85,9,3.24l28.15-1.54v-8a19.22,19.22,0,0,0-1.7-7.84,1.89,1.89,0,0,1-.17-.86c0-.68.34-.85,1.19-.85,1.88,0,9.21,1.19,9.21,4.95V90.18l32.76-1.71h1.71c3.24,0,6.48,2,6.48,4.61,0,1.2-.68,2-.85,3.41l-1.54,29.18c-.17,3.92.34,7.5-2.22,10.06a5.07,5.07,0,0,1-3.75,1.71c-4.44,0-25.08-10.92-25.08-14.67,0-.69.51-1,1.54-1a11.68,11.68,0,0,1,4.09,1,129.35,129.35,0,0,0,17.23,5.63Zm-51-35.49c-1.19,0-2-1-3.24-2.9A80.54,80.54,0,0,0,42.58,42.58a2.94,2.94,0,0,1-1-2c0-2.38,3.41-3.92,4.77-3.92,3.42,0,16.38,16.21,16.38,18.77C62.71,58.11,58.79,60.32,57.59,60.32Z"/><path class="cls-1" d="M314.2,107.58A238.87,238.87,0,0,1,311.47,134c-2.05,11.6-5.8,14-31.74,14-15.52,0-29.34-.34-29.34-16.72v-.51l.85-52.38-17.06,1c-9.55,40.44-27.64,57.84-57.83,72.17a12.28,12.28,0,0,1-4.95,1.54c-1.2,0-1.88-.52-1.88-1.37,0-1,1.2-2.73,4.27-4.44,23.71-14.16,42.65-31.05,50.67-67.56l-34,2a40.39,40.39,0,0,1-4.27.17c-2.22,0-3.41-.34-4.43-1.36-.35-.17-3.93-3.76-3.93-6.32,0-.51.34-.68.85-.68.35,0,.52.17.86.17a46,46,0,0,0,6.82.51h2.05l50.33-2.9-.34-53.23a15.83,15.83,0,0,0-1.54-6.82.62.62,0,0,1-.17-.51c0-.85,1-1.2,2.39-1.2,2.9,0,8.36,1.37,8.36,4.1l-.17,57.15,43.16-2.39A43.11,43.11,0,0,0,300,67a3.2,3.2,0,0,1,1.36-.34c2.39,0,7.51,3.92,7.51,6.48,0,1.19-1,1.88-2.22,2l-46.4,2.73-1,51v.68c0,8,3.93,9.9,21.67,9.9,19.62,0,20.64-2.56,22.35-8a187,187,0,0,0,5.12-24.23c.85-5.46,2.39-8,3.75-8,1,0,2.05,2.22,2.05,6.49Zm-98.1-46.4C210,52.82,202.45,45,194.6,37.12a3.19,3.19,0,0,1-1.36-2.39,3.51,3.51,0,0,1,1.53-2.56,3.78,3.78,0,0,1,2.56-1.36c.85,0,1.71.51,2.9,1.53,20,18.6,23.54,23.38,23.54,25.6,0,1.7-2.38,5.46-4.77,5.46C218,63.4,217.12,62.54,216.1,61.18Zm41.63,3.24c0-.85,1-2.73,3.24-5.29,10.06-11.77,20.3-25.59,20.3-32.42a1.21,1.21,0,0,1,1.19-1.36c2.22,0,8.88,3.75,8.88,6.48a2.34,2.34,0,0,1-.35,1c-15.35,22.69-29.34,32.41-32.41,32.41A.8.8,0,0,1,257.73,64.42Z"/></g></g></svg>