<svg xmlns="http://www.w3.org/2000/svg" viewBox="0 0 407.41 95.64"><defs><style>.cls-1{fill:#cf71cb;stroke:#000;stroke-miterlimit:10;stroke-width:4px;}</style></defs><g id="レイヤー_2" data-name="レイヤー 2"><g id="コンテ"><path class="cls-1" d="M54.94,76.07a135.33,135.33,0,0,0,.8,15.57H33.94a146.2,146.2,0,0,0,.8-15.57V56.6l-23-39.77c-1.8-3.26-4-6.73-8-12.73H29a52,52,0,0,0,4.7,11.05l11.1,21.36,11.1-21.25c2.5-4.84,3.9-8.1,4.6-11.16h25.3c-2.9,4.42-6.7,10.42-8,12.73L54.94,56.6Z"/><path class="cls-1" d="M170.94,47.45c0,27.78-16.1,46.19-40.4,46.19-24.5,0-40.3-18-40.3-45.87S106,2.21,130.64,2.21,170.94,19.89,170.94,47.45Zm-20.8.21c0-17-7.4-27.35-19.5-27.35s-19.7,10.41-19.7,27.35c0,17.15,7.5,27.78,19.7,27.78S150.14,64.92,150.14,47.66Z"/><path class="cls-1" d="M199.24,63.13c.4,3.78,1.1,5.68,2.6,7.78,2.4,3.16,6.6,5,11.7,5,7.7,0,12.3-3.58,12.3-9.47a8,8,0,0,0-4.2-7.37c-2.1-1.05-4.6-1.78-15-4.31-9.2-2.1-12.4-3.37-16.1-6.1-6.3-4.63-9.7-11.68-9.7-20.2,0-16.2,12.4-26.41,32.1-26.41,12.7,0,22.4,4.1,27.8,12,2.5,3.48,3.7,6.63,5,12.63L224.54,29c-1.2-6.84-4.8-9.68-12.4-9.68-6.1,0-10.6,3.47-10.6,8.31,0,2.95,1.5,5.16,4.7,6.73,2,1,2,1,13.8,3.48,7.6,1.68,12.4,3.47,16.2,6,7.2,4.74,10.8,11.79,10.8,21.47,0,7.89-2.4,14.62-7,19.35-5.8,5.9-14.6,9-26.3,9-8.5,0-16.9-1.9-22.3-5.16A24.57,24.57,0,0,1,180.64,75c-1-2.53-1.5-5-2.2-9.79Z"/><path class="cls-1" d="M320,92.38a121.33,121.33,0,0,0-16.5-.74H272c-7.6,0-10.4.1-14.7.31a101.87,101.87,0,0,0,.8-15.36V19.15a117.25,117.25,0,0,0-.8-15.36c4.1.21,6.9.31,14.7.31h31.9a118.06,118.06,0,0,0,14.9-.73V23a118.06,118.06,0,0,0-14.9-.73h-26V37.77h21.6a114.21,114.21,0,0,0,15-.73V56.5a116.62,116.62,0,0,0-15-.74h-21.6V73.44h25.8A127.85,127.85,0,0,0,320,72.7Z"/><path class="cls-1" d="M378,47.13a144.1,144.1,0,0,1,7.2,12.53c-.4-4.84-.6-9.68-.6-15.58v-24a120.39,120.39,0,0,0-.8-16h21.3a120.49,120.49,0,0,0-.8,16V76a135.56,135.56,0,0,0,.8,15.68h-21.9a114.76,114.76,0,0,0-7.5-13.36l-18.5-29.36A125.91,125.91,0,0,1,350,36c.5,4.74.7,10.52.7,15.68V75.23a121.16,121.16,0,0,0,.8,16.41h-21.3a114.17,114.17,0,0,0,.8-16.52V19.78a123.55,123.55,0,0,0-.8-15.68h21.7c1,2.85,3.2,7.05,7.1,13.16Z"/></g></g></svg>