<?xml version="1.0" encoding="utf-8"?>
<!-- Generator: Adobe Illustrator 25.4.1, SVG Export Plug-In . SVG Version: 6.00 Build 0)  -->
<svg version="1.1" id="レイヤー_1" xmlns="http://www.w3.org/2000/svg" xmlns:xlink="http://www.w3.org/1999/xlink" x="0px"
	 y="0px" viewBox="0 0 977 853" style="enable-background:new 0 0 977 853;" xml:space="preserve">
<style type="text/css">
	.st0{fill:#FDE4D0;}
	.st1{fill:#FDD2B5;}
</style>
<rect class="st0" width="977" height="853"/>
<ellipse class="st1" cx="641.5" cy="326.5" rx="128" ry="133"/>
<path class="st0" d="M765.9,290.4c-4.4-16.7-11.8-32.4-22-46.3c-10-13.7-22.5-25.4-36.9-34.3c-14.9-9.2-34.3-15.6-48.3-17.4
	s-34.5-1.1-51,3.6c-16.1,4.7-31.1,12.5-44.2,23c-13.1,10.5-24,23.4-32.3,38l0,0v0.1c-0.1,0.2-0.2,0.4-0.3,0.6
	c-8.8,15.7-14.4,32.9-16.6,50.7c-2.3,17.9-1.2,36.1,3.4,53.6c4.4,16.7,11.8,32.4,22,46.3c10,13.7,22.5,25.4,37,34.3
	c11.6,7.2,24.3,12.4,37.6,15.4c3.5,1.2,7.1,1.9,10.7,2h0.2c5.6,0.8,11.2,1.2,16.9,1.2c11.5,0,22.9-1.6,33.9-4.8
	c16.1-4.7,31.1-12.5,44.2-23.1c13.3-10.7,24.4-23.9,32.7-38.8c8.8-15.7,14.4-32.9,16.6-50.7C771.6,326,770.4,307.8,765.9,290.4z
	 M741.7,245.8c10,13.6,17.3,29,21.5,45.3c2.3,8.6,3.7,14,4.2,22.9c-1.2,1.9-7.2,13.1-22.5,23.9c-11.4,7.8-23.6,14.3-36.5,19.5
	c-17.2,7.1-33.1,12-58.5,16.6c-21.8,4.5-42.5,6.9-61,6.4c-6.9-0.1-13.8-0.6-20.6-1.5c-1.3-8.9-2.8-22.8-2-23.6s1.8-0.9,3.3-0.9
	c1.4,0,13.4,2,33.1-11.4s62.2-61.4,77.5-74.4c16.2-13.9,28.1-22.2,38.1-27.7c7.8-3.6,12.5-5.6,14.4-6.1
	C736,238.4,738.9,242.1,741.7,245.8L741.7,245.8z M705.5,212.3c8.7,5.1,16.6,11.3,23.5,18.6c-4.7,1.4-9.2,3.2-13.6,5.2
	c-16.7,7.6-29.6,20.3-38.7,28.1c-17.6,15-74.6,72.4-84.3,77s-18.5,7.2-21.6,7.4s-4-1.8-4.5-3.6s-0.2-7.7,0-13.6
	c2.9-32.1,6.1-43,21.2-79.8c8.9-16.4,20-33.9,34-44.7c8.6-6.1,17.5-8.5,24.4-10.1c4.1-1,8.2-1.5,12.4-1.6h0.1
	C675,197.5,691.1,203.3,705.5,212.3L705.5,212.3z M565.1,221.4c12.8-10.3,27.5-18,43.2-22.6c10.8-3.1,22-4.7,33.2-4.7
	c0.9,0,1.9,0,2.8,0c-15.3,2.3-23,9-29.2,13.7c-12.8,9.8-23.3,23.1-31.7,40.6c-17,37.4-20.9,64.5-21.2,79.7
	c-0.3,6.1-0.3,14.9-0.6,16.1s-1.7,3.9-5.8,2.3c-7.8-3-15.5-9.9-18.9-17.2c-9.3-20.1-9.8-37.3-8.5-49.3c0.7-7.3,2.4-14.5,5.1-21.4
	C541.6,244.2,552.3,231.6,565.1,221.4z M516.9,308.9c1.6-12.6,4.9-25,9.9-36.7c-0.4,2.2-0.8,4.7-1.1,7.3
	c-1.4,12.5-1.7,32.5,7.9,53.3c3.9,7.3,7.8,12.5,15.6,16.9c3.8,2.8,8.2,4.5,12.8,5c0,8.1,0.7,16.2,2,24.2c-6.7-0.3-9.5-1.7-14.8-3.2
	c-10.7-2.3-20.6-7.3-28.9-14.5C515.8,344.1,514.6,326.4,516.9,308.9L516.9,308.9z M521.9,365.9c5.3,6.7,12,9.1,25.6,13.1
	c5.8,1.7,11.8,2.9,17.8,3.8c3.1,21.6,6.4,22.2,4.7,22.8s-11.8-2.1-16.7-0.1s-6.1,3.5-7.2,5.4c-1.7-2-2.8-3.2-4.3-5.3
	C533,393.5,526.3,380.1,521.9,365.9L521.9,365.9z M577.9,440.1c-10.4-6.2-19.8-14.1-27.6-23.3c0.8-3.2,1.6-3.8,5-5.5
	c9.5-0.9,12-1.2,14.2,0.3c2.3,1.7,4.2,3.7,5.8,6c5.1,14.5,9.2,19.8,16.2,27c2.8,3,9,6.5,9,6.5S585.1,444.5,577.9,440.1L577.9,440.1z
	 M675.1,453.5c-16.2,4.7-33.2,5.9-49.9,3.6c-3.4-0.5-6.8-1.1-10.1-1.8c-8-2.8-15.3-7.5-21-13.8c-7.3-7.7-12-17.4-14.8-23.5
	c-0.8-3.5-0.5-4.9,0.5-4.8c11.4,0.9,22.5,4,32.7,9.2c21.4,10.7,41.5,16,56.8,17.2c6.4,0.6,12.8,0.7,19.2,0.3
	c8.7-1.1,17.4-3,25.8-5.6C702.4,442.9,689.2,449.5,675.1,453.5L675.1,453.5z M658.7,434.7c-2.3-0.3-4.7-0.8-6.9-1.5
	c-12.3-4.1-18.3-6-37.6-14.6c-18-9-39.2-12-39.8-12.2s-3.5-14.5-4.7-21.9c6.4,0.9,12.8,1.3,19.2,1.5c1.7,0,24.4,0,26.2,0
	c12.3-1,24.6-2.8,36.8-5.2c22-4.6,41.9-10.3,59.3-17.5c12.7-5.2,24.7-11.7,35.9-19.6c11.6-8.2,18.4-16.9,20.5-21.5
	c0.2,7.2-0.1,14.3-1,21.5c-2.1,17.4-7.7,34.3-16.2,49.6c-7.7,13.7-17.8,26-29.8,36.1c-12.5,5.2-27.5,9.2-50.9,6.9L658.7,434.7z"/>
<path class="st0" d="M641.9,461.7c-5.7,0-11.3-0.4-16.9-1.2h-0.2c-3.7-0.1-7.4-0.8-10.9-2c-13.3-3.1-26.1-8.3-37.7-15.5
	c-14.5-9-27.1-20.6-37.1-34.4c-10.2-14-17.7-29.7-22.1-46.5c-4.6-17.5-5.8-35.7-3.5-53.7c2.2-17.9,7.9-35.2,16.7-50.9l0.3-0.6
	l0.2-0.5h0.1c8.3-14.5,19.2-27.3,32.2-37.8c13.1-10.6,28.2-18.5,44.3-23.1c18.2-5.2,39-5.2,51.2-3.6c15.3,2,34.8,9,48.5,17.5
	c14.5,9,27.1,20.7,37.1,34.4c10.2,14,17.7,29.7,22.1,46.5c4.6,17.5,5.8,35.7,3.5,53.7c-2.2,17.9-7.9,35.2-16.7,50.9
	c-8.3,15-19.5,28.2-32.8,38.9c-13.1,10.6-28.2,18.5-44.3,23.2C664.9,460,653.5,461.7,641.9,461.7z M625,459.5L625,459.5
	c5.7,0.8,11.3,1.2,16.9,1.2c11.4,0,22.8-1.6,33.8-4.8c16.1-4.7,31-12.5,44-23c13.2-10.7,24.3-23.8,32.6-38.6
	c8.7-15.6,14.3-32.8,16.5-50.5c2.3-17.8,1.1-35.9-3.5-53.3c-4.3-16.6-11.8-32.3-21.9-46.2c-9.9-13.7-22.4-25.3-36.8-34.2
	c-13.6-8.4-32.9-15.4-48.2-17.3c-12.2-1.6-32.7-1.6-50.8,3.6c-16,4.7-31,12.5-44,23s-23.9,23.3-32.2,37.9l-0.2,0.4l0,0L531,258
	c-8.7,15.6-14.4,32.8-16.5,50.5c-2.3,17.8-1.1,35.9,3.5,53.3c4.4,16.6,11.8,32.3,22,46.2c9.9,13.7,22.4,25.3,36.8,34.2
	c11.6,7.1,24.2,12.3,37.5,15.4c3.4,1.2,7,1.9,10.6,2L625,459.5z M641.9,458.7c-5.6,0-11.2-0.4-16.8-1.2c-3.4-0.5-6.8-1.1-10.2-1.8
	c-8.2-2.8-15.5-7.6-21.4-13.9c-7.8-8.2-12.7-19-14.8-23.6c-0.7-2.7-0.7-4.4,0-5.1c0.2-0.3,0.6-0.4,1-0.4c11.4,0.9,22.6,4,32.9,9.2
	c19.4,9.7,39.5,15.8,56.6,17.1c6.4,0.6,12.8,0.7,19.1,0.3c8.7-1.1,17.3-3,25.7-5.6l2.7-0.8l-2.3,1.7c-11.8,8.7-25.1,15.3-39.2,19.4
	l0,0C664.4,457.1,653.2,458.7,641.9,458.7L641.9,458.7z M579.6,413.7c-0.1,0-0.1,0-0.1,0.1c-0.1,0.1-0.5,0.8,0.2,4.1
	c2,4.5,6.9,15.2,14.6,23.3c5.7,6.2,12.9,10.9,20.9,13.6c3.3,0.7,6.7,1.4,10,1.8c16.7,2.3,33.6,1.1,49.8-3.6l0,0
	c13.1-3.8,25.4-9.7,36.5-17.5c-7.6,2.2-15.3,3.8-23.1,4.9c-6.4,0.4-12.9,0.2-19.3-0.3c-17.2-1.3-37.5-7.5-56.9-17.2
	C602,417.6,591,414.5,579.6,413.7L579.6,413.7z M600.3,451.4c-0.2-0.1-15.5-6.5-22.7-11l0,0c-10.5-6.2-19.8-14.1-27.8-23.4l-0.2-0.2
	l0.1-0.2c0.9-3.5,1.9-4.1,5.3-5.9h0.2l1-0.1c8.9-0.8,11.3-1,13.6,0.5c2.3,1.7,4.4,3.8,6,6.2c5.2,14.8,9.5,20,16.1,26.9
	c2.7,2.9,8.9,6.3,8.9,6.4L600.3,451.4z M550.8,416.7c7.8,9.1,17.1,16.9,27.3,23c5.4,3.1,11,5.9,16.7,8.3c-1.3-0.9-2.6-2-3.7-3.1
	c-6.6-7-11.1-12.3-16.3-27.2c-1.6-2.2-3.5-4.1-5.6-5.7c-2-1.3-4.3-1.1-12.9-0.3l-0.9,0.1C552.2,413.4,551.6,413.9,550.8,416.7
	L550.8,416.7z M682.6,437.2c-4.3,0-8.7-0.2-13-0.7l-11-1.3c-2.4-0.3-4.7-0.8-7-1.6l-1.4-0.5c-11.4-3.8-17.7-5.9-36.2-14.2
	c-15.2-7.6-32.4-10.8-38.1-11.9c-0.6-0.1-1.2-0.2-1.8-0.4c-1.1-0.6-4.7-20.4-5-22.2l-0.1-0.7l0.7,0.1c6.4,0.8,12.8,1.3,19.2,1.5
	c1.4,0,16.6,0,23.2,0h3c12.3-1,24.5-2.8,36.7-5.2c23.1-4.8,42.4-10.5,59.2-17.5c12.6-5.2,24.6-11.7,35.8-19.5
	c12.2-8.6,18.5-17.5,20.4-21.3l0.9-1.9l0.1,2.1c0.2,7.2-0.2,14.4-1.1,21.5c-2.1,17.5-7.7,34.4-16.3,49.8
	c-7.7,13.8-17.8,26.1-29.9,36.2l-0.1,0.1C708.7,434.8,695.8,437.4,682.6,437.2L682.6,437.2z M658.8,434.2l10.9,1.3
	c24.1,2.4,39.1-2.1,50.5-6.8c12-10.1,22-22.2,29.6-35.9c8.5-15.3,14-32.1,16.2-49.4c0.8-6.5,1.2-13,1.1-19.5
	c-3,5.1-9.5,12.7-19.8,20c-11.2,7.8-23.3,14.4-36,19.6c-16.8,7-36.2,12.8-59.4,17.5c-12.2,2.5-24.4,4.2-36.8,5.3h-3
	c-6.5,0-21.8,0-23.2,0c-6.2-0.1-12.4-0.5-18.6-1.3c1.3,7.6,3.8,19.4,4.4,20.9l1.4,0.3c5.7,1,23,4.3,38.3,12
	c18.5,8.2,24.7,10.4,36.1,14.1l1.3,0.5C654.2,433.5,656.5,434,658.8,434.2L658.8,434.2z M546.2,411.7l-0.5-0.5
	c-0.5-0.6-1-1.2-1.4-1.7c-1-1.2-1.9-2.2-3-3.7c-8.8-12-15.6-25.5-20-39.7l-0.8-2.6l1.7,2.1c5.1,6.4,11.6,8.9,25.3,12.9
	c5.8,1.7,11.8,2.9,17.8,3.8h0.4l0.1,0.4c1.9,13.4,3.9,18.6,4.7,20.9c0.4,1,0.6,1.5,0.4,1.9c-0.1,0.3-0.4,0.5-0.7,0.5
	c-0.7,0.2-2.1,0.1-4.7-0.2c-3.8-0.5-9-1.1-12.1,0.1c-4.7,1.8-5.8,3.3-6.9,5.2L546.2,411.7z M523.1,368.1
	c4.4,13.3,10.8,25.8,19.1,37.1c1.1,1.5,1.9,2.5,2.9,3.6l1,1.1c1.1-1.8,2.6-3.3,7.1-5c3.3-1.3,8.6-0.6,12.5-0.1
	c1.4,0.3,2.8,0.4,4.2,0.3h0.1c-0.1-0.4-0.2-0.7-0.4-1.1c-0.8-2.2-2.8-7.5-4.7-20.7c-5.9-0.9-11.8-2.1-17.5-3.8
	C534.8,375.8,528.2,373.4,523.1,368.1L523.1,368.1z M593.5,381.1c-1.5,0-3,0-4.5,0c-6.9-0.1-13.8-0.6-20.7-1.5l-0.4-0.1v-0.4
	c0-0.2-3.2-22.6-1.8-24.1c1-1,2.1-1,3.7-1h0.5c11.7,0.8,24-5.7,32.3-11.3c12.1-8.2,32.5-29.3,50.5-47.8
	c11.2-11.6,20.9-21.6,26.8-26.6c15-12.8,27.1-21.6,38.2-27.8c8.2-3.8,12.7-5.7,14.6-6.1l0.3-0.1l0.2,0.2c14.5,16,25,35.4,30.4,56.3
	c2.2,8.4,3.7,13.9,4.2,23v0.2l-0.1,0.1l-0.4,0.6C761.6,324,754,332,745,338.2c-11.5,7.8-23.7,14.4-36.5,19.6
	c-18.2,7.6-34.6,12.3-58.5,16.7C629.2,379,610.2,381.1,593.5,381.1z M568.8,378.7c6.7,0.8,13.4,1.3,20.2,1.4
	c17.7,0.4,38.2-1.7,60.8-6.4c23.8-4.4,40.2-9.1,58.4-16.6c12.8-5.2,25-11.7,36.4-19.5c8.9-6.1,16.4-14,22-23.2l0.3-0.5
	c-0.6-8.9-2-14.4-4.2-22.6c-4.2-16.3-11.5-31.6-21.4-45.1l0,0c-2.7-3.7-5.5-7.2-8.6-10.6c-1.9,0.6-6.4,2.5-14.1,6
	c-11,6.1-23.1,14.9-38,27.6c-5.8,5-15.5,15-26.7,26.5c-18,18.6-38.5,39.6-50.7,47.9c-8.4,5.7-20.9,12.3-33,11.5h-0.5
	c-1.6,0-2.3,0-3,0.7C566.3,356.8,567.3,368.3,568.8,378.7z M564.5,379.4h-0.6c-4-0.2-8-0.9-11.8-2.3c-0.9-0.3-1.9-0.6-3-0.9
	c-10.8-2.3-20.8-7.4-29.1-14.6l-0.1-0.1v-0.1c-4.5-17.1-5.6-35-3.4-52.5l0.5,0.1l-0.5-0.1c1.6-12.7,4.9-25.1,9.9-36.9l1.8-4.2
	l-0.8,4.5c-0.5,2.4-0.8,4.8-1.1,7.3c-2.2,19.2,0.5,37.1,7.9,53c3.9,7.3,7.7,12.4,15.4,16.7c3.7,2.7,8.1,4.4,12.6,4.9h0.4v0.4
	c0,8.1,0.7,16.2,1.9,24.2L564.5,379.4z M520.7,360.9c8.2,7,18,11.9,28.6,14.2c1.1,0.3,2.1,0.6,3.1,1c3.5,1.3,7.2,2,11,2.2
	c-1.2-7.7-1.8-15.5-1.9-23.3c-4.6-0.6-8.9-2.3-12.6-5c-7.8-4.4-11.8-9.8-15.7-17.1c-7.5-16.1-10.1-34.1-8-53.6c0.1-1,0.2-2,0.4-2.9
	C515.1,303.4,513.4,332.9,520.7,360.9L520.7,360.9z M570.3,349.1c-3.3,0-4.2-2.5-4.6-4s-0.3-4.9-0.2-9.4c0-1.4,0.1-2.9,0.1-4.4
	c3-33,6.4-43.8,21.2-79.9c7.5-13.7,19.1-33.2,34.1-44.9c8.2-5.9,16.7-8.4,24.6-10.2c4.1-1,8.3-1.5,12.5-1.6h0.1
	c16.9,2.3,33,8.1,47.5,17.1c8.7,5.1,16.6,11.4,23.6,18.7l0.6,0.6l-0.8,0.2c-4.6,1.4-9.2,3.1-13.6,5.2c-14.1,6.5-25.8,16.7-34.3,24.2
	c-1.5,1.3-3,2.6-4.3,3.8c-6.7,5.8-19.4,17.8-32.8,30.6c-21.4,20.4-45.6,43.6-51.6,46.5c-10,4.8-18.8,7.2-21.8,7.4L570.3,349.1z
	 M657.6,195.7c-4,0.1-7.9,0.6-11.8,1.5c-7.8,1.8-16.2,4.3-24.3,10.1c-14.9,11.5-26.4,30.9-33.8,44.5c-14.7,36-18.1,46.8-21.1,79.6
	c0,1.5-0.1,3-0.1,4.4c-0.1,4-0.3,7.8,0.1,9c0.6,1.8,1.3,3.4,4,3.2c3-0.2,11.5-2.6,21.4-7.3c5.9-2.9,30.1-25.9,51.4-46.3
	c13.4-12.8,26-24.9,32.8-30.7c1.3-1.2,2.8-2.4,4.3-3.8c8.6-7.5,20.3-17.8,34.5-24.4c4.2-2,8.5-3.6,12.9-5c-6.8-7-14.4-13-22.8-17.9
	l0,0c-14.3-8.9-30.4-14.7-47.1-17L657.6,195.7z M558.1,347.4c-0.8,0-1.7-0.2-2.5-0.5c-8.1-3.1-15.8-10.1-19.2-17.5
	c-7.5-16.2-10.4-32.9-8.5-49.6c0.7-7.4,2.5-14.6,5.1-21.5c8.1-14.3,18.9-27,31.7-37.3l0.3,0.4l-0.3-0.4
	c12.8-10.4,27.6-18.1,43.4-22.6c11.7-3.4,23.9-5,36.2-4.7l0.1,1c-14.1,2.1-21.6,7.9-27.7,12.6l-1.3,1c-13,9.9-23.3,23.1-31.6,40.4
	c-17.8,39.1-20.8,66.6-21.1,79.4c-0.1,2.6-0.2,5.8-0.2,8.6c-0.1,4.3-0.2,6.9-0.3,7.6c-0.3,1.2-1,2.2-2.1,2.8
	C559.5,347.3,558.8,347.4,558.1,347.4L558.1,347.4z M639.1,194.6c-10.4,0.2-20.7,1.8-30.7,4.7c-15.7,4.5-30.3,12.2-43,22.5
	c-12.7,10.2-23.4,22.8-31.5,37c-2.6,6.8-4.3,13.9-5,21.2c-1.8,16.5,1,33,8.5,49.1c3.3,7.1,10.8,14,18.7,17c1.1,0.6,2.4,0.6,3.6,0.1
	c0.8-0.4,1.4-1.2,1.6-2.1c0.1-0.6,0.2-3.9,0.3-7.4c0.1-2.8,0.1-5.9,0.2-8.6c0.2-12.9,3.3-40.5,21.2-79.9
	c8.4-17.4,18.8-30.8,31.9-40.8l1.3-1C621.5,202.3,628,197.2,639.1,194.6L639.1,194.6z"/>
<path class="st1" d="M374,634.8c0-6.8,0.4-13.5-0.2-20.2c-0.7-8.5-1.4-17.2-8.7-23.3c-0.5-2.9-3.8-6.5-4.6-5.5c-4,4.7-5-0.4-6.8-1.7
	c-7.9-5.9-16.2-10.3-26.4-9.2c-4.2,0.5-11,3.5-10.4,5c2.4,5.7-3.2,4.6-4.4,6.8c-0.8-1-1.7-1.9-2.5-2.9c-0.3-1.6,0.3-3.6-1.6-4.7l0,0
	c-4.1-9.2-8.2-18.3-13.5-27c0.2-1.9-0.9-3.8-2.7-4.5l0,0l-3.1-2.7l0,0c-0.9-2.2-0.1-3.1,2.2-3.2c1.8-0.1,4,0.7,5.3-1.4
	c2-0.6,5.8,0.7,4.3-3.6c-1.6-4.8,1.6-6.4,4.6-8.4c2.5-0.1,4.7-0.6,5.9-3.1l0,0c4.2-0.2,3.2-3,2.3-5.2s-2.7-4.1-2.7-6.8l6.3-4.8
	c5.6-0.7,2.1-3.1,1.1-5.3c-2-3.9-7.5-6.6-4.2-12.4l1.7-1.8c4.6-3.7,7.9-7.2,0.7-11.9c-3.5-2.2-6.2-5.6-9.3-8.5
	c-2.4-2.3-6.2-18.9-4.1-21.2c3.8-4.1,0-4.6-2.2-6.1c2.3-3.5-2-6.1-0.8-10c4.5-14.7,3.9-30,3.6-45.2c-0.1-6.8-2.7-7.2-7.4-3.3
	c-1.1,0.1-2.5-0.2-3,1.4c-4.2,0.8-8.4,1.9-11.9,4.6c-6.8,1.4-11.5,6.3-16.6,10.3c-1.9,1.5-3.7,2.4-6,1.7
	c-20.2-6.4-40.4-8.1-60.7-0.4c-1.8,0.9-3.9,0.5-5.4-0.8c-11.6-9.3-25.7-12.4-39.4-16.8c-2-2.2-2.7-1.3-3,1.1
	c-0.6,5.3,0.7,10.3,1.7,15.4v1.5c0.1,2.6-1.1,5.3,1.2,7.5c0.5,3-1.1,6.4,1.5,9c0,5.7,1.7,11.3,4.9,16c1,1.5,2.8,3.6,1.7,5
	c-4.1,5.3-3.5,11.8-4.7,17.7c-1.8,9.3-3.7,17.9-12.9,23c-5.6,3.1-4.9,7.5-0.9,11.7c0.2-0.1,0.4-0.2,0.6-0.3
	c-0.2,0.1-0.4,0.2-0.6,0.3l0,0c5.1,6.5-1.6,10.1-3.9,14.3c1.7,3.4,8.9,1.3,6.5,5.8c-5.5,10,2.3,12.1,7.8,16l1.6,1.4
	c0.6,1,1.9,2.4,1.6,3c-4.5,8.5,2.3,5.5,5.8,5.8c0.4,0.2,0.9,0.3,1.4,0.3c1.2,2,6.6,0.9,3.7,6c-1.1,2,2.2,1.3,3.7,1.7
	c0.1,0.5,0.1,1.1,0.2,1.6l0,0c-0.9,2-3.6,2.9-3.1,5.7l0,0c-5.4,8.5-9.5,17.6-13.3,26.8l0,0c-1.9,1.3-1.4,3.2-1.4,5l0,0
	c-1.1,1.6-2,3.3-1.4,5.3l0,0c-3.7,10.6-6.2,21.6-7.6,32.8c-0.6,4.8,0.9,8.2,5.8,9.6l0,0l1.4,1.5c0.6,6.5,0.6,12.8-4.4,17.9
	c-17.2,13.4-26.9,35.5-15.2,58.3c5.8,14.2,15.7,26.3,28.5,34.8c1,1.8,2.4,3.1,4.6,2.9l0,0c0.1,1.4,0.1,2.8,0.2,4.3
	c-3.4,4.5-5.4,8.8,1.5,12.1h2.7l7.7,1.5l0,0l2.7-0.1l0,0c3.7,0.9,7.1-0.4,10.6-1.4l0,0l2.9,3.3l0,0c1.8,2.7,4,4.3,7.4,3l0,0
	c4.8,2.7,9.9,1.9,14.9,1c4.4-0.9,7.4-3.5,6.1-8.8l0,0l3-2.6l0,0c5.4-3.7,11,0,16.4-0.4c-0.3,6.6,1.9,11.1,9,12.1l0,0
	c3.9,2.4,7.8,2,11.6,0l0,0l3.2-1.5l0,0c2.1,1.4,3.3-0.2,4.5-1.5l0,0l2.9-4.5l0,0c0-0.4,0-0.8,0-1.2c0-0.2,0-0.3,0-0.5l0,0v0.4
	l1.5-0.3l0,0c3.1,3,6.9,1,10.4,1.3l1.7-1.1l0,0c2.5-0.5,5.2,0,7.4,1.2l0,0l1.6-1.2l0,0c8-1.7,4.7-7.5,4.3-12.2l0,0
	c2.2-4.4,8.7-3.9,10.4-9l0,0c12.5-7,18.9-18.7,23.9-31.5c1.4-3.9,3.5-7.7,4-11.7c0.8-5.8,1.3-11.3,6.7-13.2c0.4,0,0.7,0,1.1,0.1
	c0.8,0,1.5-0.2,2.1-0.7h0.9c2.9-1.4,0.3-4.2,1.5-6c4.6-0.3,8.4-2.5,11.8-5.5c10.5-9.2,13.2-21.8,15-34.8
	C377,635.9,376.3,634.7,374,634.8z M287.9,505.3c-0.3-0.3-0.4-1.1-0.2-1.4l0.1-0.1c0.2,0.7,0.3,1.3,0.5,2
	C288.1,505.6,288,505.4,287.9,505.3z M289.7,422.3c0,0.1,0,0.2,0,0.3V422.3L289.7,422.3z M170.5,417.6L170.5,417.6L170.5,417.6z
	 M172.2,417.7L172.2,417.7h0.2v0.2L172.2,417.7z M156.4,402.1L156.4,402.1L156.4,402.1z"/>
<path class="st0" d="M319,595.9c-1.3-0.1-2.4,0.9-2.4,2.2c0,0.1,0,0.3,0,0.4c0.5,3.8,3.1,7.4,4.1,11.2c1.1,4.2,0.5,8.6-1.8,12.3
	c-0.9,1.4-2.1,2.7-3,4.1c-2.3,3.6-3,8-3.6,12.2c-0.2,1.5-0.4,3.1,1.1,4.2c0.9,0.7,2.1,1,3.3,0.8c2.3-0.4,4-2.2,5.6-3.8l4.6-4.9
	c1.5-1.5,2.7-3.1,3.8-4.9c0.9-1.9,1.5-3.9,1.7-6c0.3-1.8,0.4-3.7,0.2-5.5c-0.4-4.7-2.8-9.1-6.6-12c0.6,0.2,1.2,0.3,1.8,0.2
	c0.6-0.1,1.1-0.5,1.3-1.1c0-0.4-0.1-0.8-0.2-1.1c-1.5-3.1-4.5-5.2-7.3-7.2c-0.6-0.5-1.4-0.9-2.1-1.1
	C319.2,595.9,319.1,595.9,319,595.9z"/>
</svg>
