<?xml version="1.0" encoding="utf-8"?>
<!-- Generator: Adobe Illustrator 25.4.1, SVG Export Plug-In . SVG Version: 6.00 Build 0)  -->
<svg version="1.1" id="レイヤー_1" xmlns="http://www.w3.org/2000/svg" xmlns:xlink="http://www.w3.org/1999/xlink" x="0px"
	 y="0px" viewBox="0 0 800 668.5" style="enable-background:new 0 0 800 668.5;" xml:space="preserve">
<style type="text/css">
	.st0{fill:#ACE3E0;}
	.st1{fill:#BBEDEB;}
	.st2{fill:#ACE3E0;stroke:#ACE3E0;stroke-width:4;stroke-miterlimit:10;}
</style>
<rect class="st0" width="800" height="668.5"/>
<ellipse class="st1" cx="201.3" cy="217.8" rx="104.9" ry="109"/>
<path class="st2" d="M306.1,232c-1.8,14.6-6.4,28.7-13.6,41.6c-6.8,12.2-15.9,23-26.8,31.8c-10.7,8.6-23,15.1-36.2,18.9
	c-13.5,3.9-27.7,4.9-41.6,3h-0.2c-3-0.1-6-0.6-8.8-1.6c-10.9-2.5-21.3-6.7-30.8-12.6c-11.8-7.3-22.1-16.9-30.3-28.1
	c-8.3-11.4-14.4-24.3-18-38c-3.8-14.3-4.7-29.2-2.9-43.9c1.8-14.6,6.4-28.7,13.6-41.6l0.3-0.5v-0.1l0,0c6.8-12,15.8-22.6,26.5-31.2
	s23-15.1,36.2-18.9c13.6-3.9,30.3-4.5,41.8-3c14,2.1,27.5,7,39.6,14.3c11.8,7.3,22.1,16.9,30.3,28.1c8.3,11.4,14.4,24.3,18,38
	C306.9,202.4,307.9,217.3,306.1,232z M276.1,142.8c-1.5,0.4-5.4,2-11.8,5c-8.2,4.6-18,11.4-31.3,22.7c-12.5,10.7-47.2,50-63.4,61
	s-26,9.3-27.1,9.3c-1.3,0-2.1,0-2.7,0.7s0.5,12.1,1.6,19.4c5.6,0.7,11.2,1.1,16.9,1.2c15.1,0.4,32.1-1.6,50-5.3
	c20.8-3.9,33.8-7.8,47.9-13.6c10.5-4.3,20.5-9.6,29.9-16c12.6-8.9,17.5-18.1,18.5-19.6c-0.5-7.3-1.6-11.7-3.5-18.8
	c-3.5-13.4-9.5-26-17.6-37.2C281.1,148.6,278.7,145.6,276.1,142.8L276.1,142.8z M215,110.2L215,110.2c-3.5,0-6.9,0.4-10.3,1.3
	c-5.7,1.3-13,3.3-20,8.3c-11.4,8.9-20.5,23.2-27.8,36.6c-12.3,30.1-15,39.1-17.3,65.4c-0.1,4.9-0.4,9.7,0,11.2s1.1,3.1,3.7,2.9
	s9.7-2.2,17.7-6.1s54.7-50.8,69.1-63.1c7.5-6.4,18.1-16.7,31.8-23c3.6-1.7,7.3-3.2,11.1-4.3c-5.7-5.9-12.2-11.1-19.2-15.2
	C242,116.8,228.8,112.1,215,110.2z M112.8,162.1c-2.2,5.6-3.6,11.5-4.2,17.5c-1.1,9.9-0.7,23.9,7,40.4c2.8,6,9.1,11.7,15.5,14.1
	c3.4,1.3,4.6-1,4.8-1.9s0.2-8.1,0.5-13.2c0.2-12.4,3.4-34.7,17.3-65.3c6.9-14.3,15.5-25.2,26-33.3c5.1-3.9,11.4-9.3,23.9-11.2
	c-0.8,0-1.5,0-2.3,0c-9.2,0-18.4,1.3-27.2,3.9c-12.9,3.7-25,10-35.4,18.5C128.2,140,119.4,150.4,112.8,162.1z M101.9,246.2
	c6.8,5.9,14.9,10,23.7,11.9c4.3,1.3,6.6,2.4,12.1,2.6c-1-6.6-1.6-13.2-1.6-19.9c-3.8-0.4-7.4-1.8-10.5-4.1
	c-6.4-3.6-9.6-7.9-12.8-13.9c-7.9-17.1-7.6-33.5-6.5-43.7c0.2-2.2,0.6-4.2,0.9-6C97.4,196.3,95.6,221.9,101.9,246.2L101.9,246.2z
	 M119.5,282.6c1.3,1.8,2.2,2.7,3.6,4.4c0.9-1.5,1.8-2.9,5.9-4.4c4.1-1.6,12.4,0.6,13.7,0.1s-1.4-1-3.9-18.7
	c-4.9-0.7-9.8-1.8-14.6-3.1c-11.1-3.3-16.7-5.3-21-10.7C106.8,261.7,112.3,272.7,119.5,282.6z M167.7,319.8c0,0-5.1-2.9-7.4-5.3
	c-5.7-6-9.1-10.3-13.3-22.2c-1.3-1.9-2.9-3.5-4.8-4.9c-1.8-1.2-3.9-1-11.6-0.2c-2.8,1.4-3.4,1.9-4.1,4.5c6.5,7.6,14.1,14,22.7,19.1
	C155.1,314.5,167.7,319.8,167.7,319.8z M260.8,306.1c-6.9,2.1-14,3.7-21.1,4.6c-5.2,0.3-10.5,0.2-15.7-0.2c-12.5-1-29-5.3-46.6-14.1
	c-8.4-4.2-17.5-6.8-26.8-7.5c-0.8-0.1-1.1,1-0.4,3.9c2.3,5,6.1,13,12.1,19.3c4.7,5.1,10.7,9,17.3,11.3c2.7,0.6,5.5,1.1,8.3,1.5
	c13.7,1.9,27.6,0.9,40.9-2.9C240.4,318.6,251.2,313.2,260.8,306.1z M224.4,307.6c19.2,1.9,31.5-1.4,41.7-5.7
	c9.9-8.3,18.1-18.3,24.4-29.6c7-12.6,11.5-26.4,13.3-40.7c0.7-5.8,1-11.7,0.9-17.6c-1.8,3.8-7.3,10.9-16.9,17.7
	c-9.2,6.4-19.1,11.8-29.4,16c-14.2,5.9-30.5,10.6-48.6,14.4c-9.9,2-20,3.5-30.1,4.3c-1.4,0-20,0-21.4,0c-5.3-0.1-10.5-0.5-15.7-1.2
	c1,6.1,3.4,17.7,3.9,17.9s17.9,2.6,32.6,10c10,4.7,20.3,8.7,30.8,12c1.8,0.6,3.7,1,5.6,1.3L224.4,307.6z"/>
<path class="st1" d="M554.1,322.6c3.6,0,7.2,1.3,9.9,3.7l2.6-3.1l-1.7-10.9l8.5,11.8l-3.9,7l3.9,4.3l27.2-35.5l22-56.3l3.4-60.8
	l-22.8-61.4l28.3,59.8l-3.3,62.9l-20.2,60l-26.3,37.2l42.4-27l43.9-64.8l0.9-56.4l3.3,59.8l-42,67l-46.1,33.7l39.6,25.9l50.9-7.2
	l42.2-35.5L678,379.2l-55,8.3L587.5,370l63.7,76.6l22,93.1l-49.6,77.2l43.4-77.7l-22.6-89.4l-39.5-34.1c0,0,2.1,46.2-46.7,49.7
	s-51.1-56.1-51.1-56.1l-45,40.3l-21.6,88.5l44.6,76.1L433.6,538l22.3-91.9l64.7-78l-36.2,18.6l-56.1-10L389.8,336l39.1,34l53.7,7.6
	l35.7-23.9l-37.9-28.3l-48.1-72.2l2-59l3.3,56.8l45.7,66.1l39.2,25.2l-23.9-37.9l-20.9-57.6l-1.9-64l25-59L479.3,183l3.3,62.7
	l21.8,55.7l27.8,35.2l5-5.9l-6.1-8l10.5-9.6l-2.4,9.6l5.7,3.9C547.4,324.1,550.7,322.6,554.1,322.6z"/>
</svg>
