<?xml version="1.0" encoding="utf-8"?>
<!-- Generator: Adobe Illustrator 25.4.1, SVG Export Plug-In . SVG Version: 6.00 Build 0)  -->
<svg version="1.1" id="レイヤー_1" xmlns="http://www.w3.org/2000/svg" xmlns:xlink="http://www.w3.org/1999/xlink" x="0px"
	 y="0px" viewBox="0 0 80 66.8" style="enable-background:new 0 0 80 66.8;" xml:space="preserve">
<style type="text/css">
	.st0{fill:#B4DCFC;}
	.st1{fill:#CFEAFC;}
	.st2{fill:#B4DCFC;stroke:#B4DCFC;stroke-width:0.5;stroke-miterlimit:10;}
</style>
<rect class="st0" width="80" height="66.8"/>
<ellipse class="st1" cx="22.9" cy="18.9" rx="11.5" ry="12"/>
<path class="st2" d="M34.4,20.4c-0.2,1.6-0.7,3.2-1.5,4.6c-0.7,1.3-1.7,2.5-2.9,3.5c-1.2,1-2.5,1.7-4,2.1c-1,0.3-2,0.4-3,0.5
	c-0.5,0-1,0-1.5-0.1l0,0c-0.3,0-0.7-0.1-1-0.2c-1.2-0.3-2.3-0.7-3.4-1.4c-1.3-0.8-2.4-1.8-3.3-3.1c-0.9-1.3-1.6-2.7-2-4.2
	c-0.4-1.6-0.5-3.2-0.3-4.8c0.2-1.6,0.7-3.2,1.5-4.6v-0.1l0,0c0.7-1.3,1.7-2.5,2.9-3.4c1.2-1,2.5-1.7,4-2.1s3.1-0.5,4.6-0.3
	s3,0.8,4.3,1.5c1.3,0.8,2.4,1.9,3.3,3.1c0.9,1.3,1.6,2.7,2,4.2C34.5,17.2,34.6,18.8,34.4,20.4z M31.1,10.6c-0.4,0.2-0.9,0.3-1.3,0.6
	c-1.2,0.7-2.4,1.6-3.4,2.5c-1.4,1.2-5.2,5.5-7,6.7c-0.8,0.7-1.9,1-3,1c-0.1,0-0.2,0-0.3,0.1c0,0.7,0,1.4,0.2,2.1
	c0.6,0.1,1.2,0.1,1.9,0.1c1.8,0,3.7-0.2,5.5-0.6c1.8-0.3,3.6-0.8,5.3-1.5c1.2-0.5,2.3-1.1,3.3-1.8c0.8-0.6,1.5-1.3,2-2.1
	c0-0.7-0.2-1.4-0.4-2.1c-0.4-1.5-1-2.9-1.9-4.1C31.6,11.2,31.4,10.9,31.1,10.6z M24.4,7L24.4,7c-0.4,0-0.8,0.1-1.1,0.1
	c-0.8,0.2-1.5,0.5-2.2,0.9c-1.3,1.1-2.3,2.5-3.1,4c-1.1,2.3-1.7,4.7-1.9,7.2c0,0.4,0,0.8,0,1.2c0,0.1,0.1,0.3,0.4,0.3
	c0.7-0.1,1.3-0.4,2-0.7c0.9-0.4,6-5.6,7.6-6.9c1-1,2.2-1.9,3.5-2.5c0.4-0.2,0.8-0.3,1.2-0.5c-0.6-0.7-1.3-1.2-2.1-1.7
	C27.4,7.7,25.9,7.2,24.4,7z M13.2,12.7c-0.2,0.6-0.4,1.3-0.5,1.9c-0.2,1.5,0.1,3.1,0.8,4.4c0.4,0.7,1,1.3,1.7,1.5
	c0.4,0.1,0.5-0.1,0.5-0.2s0-0.9,0-1.5c0.2-2.5,0.8-4.9,1.9-7.2c0.6-1.4,1.6-2.7,2.9-3.7c0.7-0.6,1.7-1.1,2.6-1.2h-0.2
	c-1,0-2,0.1-3,0.4c-1.4,0.4-2.7,1.1-3.9,2C14.8,10.3,13.9,11.4,13.2,12.7L13.2,12.7z M12,22c0.7,0.7,1.6,1.1,2.6,1.3
	c0.4,0.2,0.9,0.3,1.3,0.3c-0.1-0.7-0.2-1.5-0.2-2.2c-0.4,0-0.8-0.2-1.2-0.4c-0.6-0.4-1.1-0.9-1.4-1.5c-0.7-1.5-0.9-3.2-0.7-4.8
	c0-0.2,0.1-0.4,0.1-0.7C11.5,16.5,11.3,19.3,12,22z M13.9,26c0.1,0.2,0.2,0.3,0.4,0.5c0.1-0.2,0.2-0.3,0.6-0.5s1.3,0.1,1.5,0
	s-0.1-0.1-0.4-2c-0.5-0.1-1.1-0.2-1.6-0.3c-0.9-0.1-1.7-0.5-2.3-1.2C12.5,23.7,13.1,24.9,13.9,26L13.9,26z M19.2,30.1
	c-0.3-0.2-0.6-0.4-0.8-0.6c-0.7-0.7-1.2-1.6-1.4-2.5c-0.2-0.2-0.3-0.4-0.5-0.5s-0.4-0.1-1.3,0c-0.3,0.2-0.4,0.2-0.4,0.5
	c0.7,0.8,1.6,1.5,2.5,2.1C17.9,29.4,18.5,29.8,19.2,30.1L19.2,30.1z M29.5,28.6c-0.8,0.2-1.5,0.4-2.3,0.5c-0.6,0-1.2,0-1.7,0
	c-1.8-0.2-3.5-0.7-5.1-1.5c-0.9-0.5-1.9-0.7-2.9-0.8c-0.1,0-0.1,0.1,0,0.4c0.3,0.8,0.8,1.5,1.3,2.1s1.2,1,1.9,1.2
	c0.3,0.1,0.6,0.1,0.9,0.2c1.5,0.2,3,0.1,4.5-0.3C27.2,30,28.4,29.4,29.5,28.6L29.5,28.6z M25.5,28.8c1.5,0.2,3.1,0,4.5-0.7
	c1.1-0.9,2-2,2.7-3.2c0.8-1.4,1.3-2.9,1.5-4.5c0.1-0.6,0.1-1.3,0.1-1.9c-0.5,0.8-1.1,1.4-1.8,1.9c-1,0.7-2.1,1.3-3.2,1.8
	c-1.7,0.7-3.5,1.2-5.3,1.6c-1.1,0.2-2.2,0.4-3.3,0.5h-2.3c-0.6,0-1.2-0.1-1.7-0.1c0.1,0.7,0.2,1.3,0.4,2c1.2,0.2,2.4,0.6,3.6,1.1
	c1.1,0.5,2.2,1,3.4,1.3c0.2,0.1,0.4,0.1,0.6,0.1L25.5,28.8z"/>
<path class="st1" d="M73.3,35.7c-0.3-0.3-0.6-0.5-0.9-0.8c-1-0.6-2.1-1-3.3-1.3c-0.3-0.1-0.7-0.2-1.1-0.2l-4.3,0.8
	c-0.4,0.1-0.7,0.2-1.1,0.1c-0.4-0.1-0.8-0.2-1.2-0.2c-0.2,0-0.4-0.1-0.6,0c-0.1,0-0.2,0-0.3,0c-1.1-0.1-2.3-0.2-3.4-0.2
	c-1.7,0-3.3,0.1-5,0.3s-3.4,0.7-4.9,1.4c-0.6,0.3-1.2,0.8-1.6,1.4c0,0.1-0.1,0.1-0.1,0.2c-0.1,0.5-0.1,1.1,0,1.6
	c0,0.2,0,0.3,0.1,0.5c0.2,0.4,0.4,0.7,0.7,1c0.2,0.1,0.4,0.3,0.6,0.6c0.4,0.6,0.7,1.3,1,2s0.6,1.5,0.8,2.3c0.1,0.5,0.2,1,0.4,1.5
	c0.2,0.7,0.4,1.4,0.6,2c0.1,0.6,0.2,1.2,0.4,1.8c0.3,0.6,0.4,1.3,0.5,2c0.1,0.5,0.1,1,0.1,1.5c-0.2,0.9-0.3,1.8-0.5,2.8
	c-0.1,0.4-0.1,0.8-0.2,1.3l0,0l0.3-0.3l0.1,0.4l0.2-0.4l0,0c0,0,0-0.1,0.1-0.1v0.2v1.2c0.2-0.1,0.2-0.3,0.3-0.3
	c0.1,0.1,0,0.2,0.1,0.3l0.7-1.2l0.5,2.2l0.2-0.2c0,0,0.1-0.1,0.1,0c0.1,0.2,0.1,0,0.2,0c0.3-0.5,0.6-1,1-1.5l1,2.3l1.4-2.1l1.3,2.2
	l1.1-2.3c0.1,0.1,0.1,0.2,0.2,0.3c0.4,0.5,0.6,1.2,1.2,1.6l0.7-2.3l0.8,1.3c0.1-0.1,0-0.2,0.1-0.3l0.3,0.4l0.2-1.7l0,0v-0.1l0.1,0.1
	c0.1,0.2,0.2,0.4,0.3,0.6l0.1-0.4l0.3,0.3c0-0.3,0-0.7,0-1c0-0.1-0.1-0.2,0-0.3s0-0.1,0.1-0.1c-0.2-0.8-0.3-1.6-0.4-2.4
	c-0.1-0.4-0.1-0.7-0.1-1.1c0.1-0.7,0.2-1.3,0.4-2c0.6-1.9,1-3.9,1.6-5.8c0.2-0.6,0.3-1.3,0.6-1.9c0.4-1,0.9-1.9,1.3-2.8
	c0-0.1,0.1-0.2,0.2-0.2c0.4-0.2,0.7-0.5,0.9-0.8c0.1-0.1,0.2-0.2,0.2-0.3s0-0.3,0.2-0.3s0.1-0.1,0.1-0.2s0-0.3,0-0.5s0-0.2,0.2-0.2
	c1.6-0.3,3.2-0.6,4.8-0.9c0.2,0,0.3-0.2,0.3-0.4l0,0c0-0.3,0-0.7,0.1-1.1C73.4,35.8,73.4,35.7,73.3,35.7z M61.7,36
	c0.6,0.1,1.2,0.3,1.8,0.5c-0.6,0.7-1.1,1.3-1.7,2l-0.5-2C61.2,35.9,61.2,35.9,61.7,36z M61.7,52.6c-0.1-0.3-0.2-0.5,0.1-0.8
	C61.7,52.1,61.8,52.3,61.7,52.6z M61.4,51.4c-0.1-0.3-0.1-0.6-0.2-0.9s-0.1-0.3,0.2-0.5c0.1,0.3,0.2,0.6,0.3,0.9
	C61.7,51.1,61.5,51.2,61.4,51.4L61.4,51.4z M61.2,54.1c-0.3-0.4,0.1-0.8,0.1-1.2C61.5,53.3,61.3,53.7,61.2,54.1L61.2,54.1z
	 M61.8,55.3c-0.3-0.6-0.4-0.8-0.1-1.1C61.8,54.5,61.8,54.9,61.8,55.3L61.8,55.3z M61.3,48.7L60.9,48c0-0.1,0-0.1,0-0.2l0.8-1
	c0.1,0.4,0.1,0.7,0.2,1v0.1L61.3,48.7z M60.5,54.2c0,0.1,0,0.2-0.1,0.2C60.4,54.3,60.4,54.2,60.5,54.2c0-0.1,0.1-0.2,0.1-0.3
	C60.6,54,60.6,54.1,60.5,54.2z M60.3,51.7L60.3,51.7l0.6-1c0.1,0.5,0.2,0.8,0.2,1.2c0,0.1-0.1,0.2-0.1,0.2s-0.2,0.4-0.3,0.6
	C60.5,52.4,60.4,52.1,60.3,51.7L60.3,51.7z M59.9,54.3l-0.6-1c0-0.1,0-0.2,0-0.2c0.2-0.3,0.4-0.6,0.6-1c0.1,0.2,0.1,0.3,0.2,0.4
	C60.4,53.4,60.4,53.4,59.9,54.3L59.9,54.3z M60.3,54.5c0,0.1,0,0.2-0.1,0.2C60.2,54.6,60.2,54.5,60.3,54.5L60.3,54.5z M52.3,50.7
	c-0.2-0.4-0.4-0.7-0.6-1.1c-0.1-0.4-0.1-0.8,0-1.1l0.7,1.1v0.1C52.4,50,52.3,50.3,52.3,50.7L52.3,50.7z M52.4,53.3
	c0-0.1-0.2-0.2-0.1-0.4C52.3,53,52.3,53.2,52.4,53.3L52.4,53.3z M51.7,50.7l-0.1-0.3C51.7,50.5,51.7,50.6,51.7,50.7z M50.7,45.7
	c-0.1-0.2,0-0.5,0.1-0.7s0.1-0.4,0.2-0.6l0.8,1v0.1l-0.3,1.4C51.2,46.4,50.9,46.1,50.7,45.7L50.7,45.7z M51.4,52.5
	c0.3,0.3,0.2,0.5,0,0.8C51.3,53,51.3,52.7,51.4,52.5L51.4,52.5z M49.8,42.2c-0.1-0.1-0.1-0.2-0.1-0.3s0.1,0,0.2,0l0.9,0.2
	c0.1,0,0.1,0,0.1,0.1c-0.1,0.3-0.2,0.7-0.3,1.1C50.4,42.9,50.1,42.5,49.8,42.2L49.8,42.2z M53,43.5l0.8,1c0.1,0.1,0,0.1,0,0.2
	l-1,1.3l-0.5-0.6c0,0,0-0.1,0-0.2C52.5,44.6,52.7,44,53,43.5L53,43.5z M52.8,42.5c0.1,0,0.1-0.1,0.2,0v0.1
	C52.8,42.6,52.8,42.5,52.8,42.5L52.8,42.5z M57.3,45.7l0.5,1c0,0.1,0,0.1,0,0.2l-0.4,0.8l-0.9-1c0,0-0.1-0.1,0-0.1L57.3,45.7z
	 M56.8,45.4L56.8,45.4l0.1-0.2C57,45.3,56.9,45.5,56.8,45.4C56.7,45.5,56.8,45.4,56.8,45.4L56.8,45.4z M57.4,44.5
	c0.2,0.2,0.2,0.1,0,0.4C57.2,44.7,57.3,44.6,57.4,44.5L57.4,44.5z M58.8,44l0.3,0.6c0,0.1,0.2,0.2,0.1,0.3c-0.1,0.2-0.2,0.3-0.3,0.4
	c-0.1,0.1-0.1,0-0.1,0c-0.2-0.2-0.3-0.4-0.5-0.6s-0.1-0.1,0-0.2L58.8,44z M58.7,42.7c0-0.1,0.2-0.2,0.3-0.2s0.3,0,0.4,0l-0.1,0.1
	l-0.5,0.5C58.8,43,58.6,42.9,58.7,42.7z M59.2,45.7l0.2-0.3c0,0.1,0.1,0.2,0.1,0.4c0.1,0.2,0,0.2-0.1,0.3s-0.1,0-0.1,0
	S59.1,45.8,59.2,45.7L59.2,45.7z M58.9,46.7c-0.2,0.2-0.3,0.3-0.5,0.5c-0.1-0.1-0.1-0.3,0-0.4l0,0c0.1-0.1,0.1-0.2,0.2-0.3
	s0-0.2,0.2-0.1S59.1,46.5,58.9,46.7L58.9,46.7z M58.3,43.8c-0.1,0.1-0.2,0.2-0.2,0.3s-0.1,0.2-0.2,0.1s-0.2-0.2-0.1-0.3
	s0.3-0.4,0.5-0.7C58.5,43.4,58.5,43.6,58.3,43.8z M57.9,45l0.6,0.8c0,0.1,0,0.1,0,0.2c-0.1,0.1-0.2,0.3-0.3,0.5
	c-0.2-0.3-0.3-0.6-0.5-1S57.8,45.1,57.9,45z M57.9,47.7c0-0.1,0.1-0.2,0.2-0.3C58.2,47.5,58.1,47.6,57.9,47.7L57.9,47.7z M56.9,48.5
	l-0.7-1.3l0,0c0.3,0.3,0.5,0.6,0.8,0.9C57.1,48.2,56.9,48.3,56.9,48.5L56.9,48.5z M56.6,44.8l-0.7,1.3l-1.2-1.3
	c-0.1-0.1,0-0.1,0-0.2c0.3-0.5,0.6-1,0.9-1.5l1,1.4C56.7,44.6,56.7,44.7,56.6,44.8L56.6,44.8z M56.2,47.1
	C56.2,47.2,56.1,47.1,56.2,47.1C56,47.1,56.1,47.1,56.2,47.1C56.1,46.9,56.2,47,56.2,47.1L56.2,47.1z M55.4,46.7
	c0.1,0.2,0,0.3-0.1,0.4s-0.4,0.5-0.6,0.7c-0.1,0.1-0.1,0.1-0.2,0L53.7,47c0-0.1,0-0.1,0-0.2c0.2-0.5,0.4-1,0.7-1.6
	C54.7,45.7,55.1,46.2,55.4,46.7L55.4,46.7z M53.4,46.6c-0.2-0.1-0.2-0.3-0.1-0.4c0.1-0.1,0.2-0.3,0.3-0.5h0.1L53.4,46.6z M53.8,45.6
	C53.7,45.6,53.8,45.5,53.8,45.6l0.1-0.2C53.9,45.4,53.9,45.5,53.8,45.6L53.8,45.6z M52.5,46.2L52.5,46.2c-0.2,0.4-0.5,0.7-0.7,1l0,0
	l0.3-1.5C52.2,45.9,52.4,46.1,52.5,46.2L52.5,46.2z M52.1,47.7l0.7-1c0.2,0.2,0.3,0.5,0.2,0.8c-0.1,0.4-0.2,0.8-0.3,1.2l-0.6-0.8
	C52.1,47.8,52.1,47.7,52.1,47.7L52.1,47.7z M52.7,50.3l0.1-0.3C52.9,50.2,52.8,50.3,52.7,50.3c0.1,0.2,0.1,0.2,0,0.2
	C52.7,50.5,52.7,50.4,52.7,50.3z M53.2,50.7c0.4,0.4,0.4,0.7,0,1.4l0,0C52.7,51.5,52.7,51.5,53.2,50.7L53.2,50.7z M53.3,49.4
	c-0.3-0.2-0.3-0.5-0.2-0.8s0.2-0.7,0.3-1.1l0.6,0.9c0,0.1,0,0.1,0,0.1L53.3,49.4z M53.7,50.7C53.8,50.7,53.8,50.8,53.7,50.7
	C53.7,50.8,53.7,50.7,53.7,50.7z M53.9,49.6l0.4-0.5c0,0,0-0.1,0.1-0.1s0,0.1,0,0.1L54,50.2l0,0C53.6,49.9,53.6,49.9,53.9,49.6
	L53.9,49.6z M54.3,50.6l0.4-1.1c0.2,0.4,0.4,0.7,0.6,1c0.1,0.1,0.1,0.2,0,0.2l-0.4,0.6c0,0.1-0.1,0.1-0.2,0s-0.3-0.5-0.5-0.7
	C54.2,50.7,54.2,50.7,54.3,50.6L54.3,50.6z M55.3,49.6L55.3,49.6l0.5,0.6c0.1,0.1,0,0.1,0,0.2s-0.1,0-0.1-0.1
	C55.5,50,55.3,49.8,55.3,49.6L55.3,49.6z M55.2,48.7L55.2,48.7c0.1-0.5,0.3-0.9,0.5-1.2c0,0,0,0,0.1,0l0.8,1.5v0.1
	c-0.1,0.3-0.3,0.6-0.4,0.8c0,0.1-0.1,0-0.1,0C55.7,49.4,55.5,49,55.2,48.7L55.2,48.7z M56.2,50.7c0.2,0.2,0.3,0.3,0.4,0.5l0.2,0.3
	c0.3,0.4,0.3,0.4,0,0.9c-0.2-0.4-0.4-0.9-0.7-1.3C56.1,51,56,50.9,56.2,50.7L56.2,50.7z M56.5,50.2c0-0.1,0-0.1,0-0.2l0.4-0.5
	c0.2,0.4,0.4,0.9,0.7,1.3c0.1,0.1,0.1,0.2,0,0.3c0,0.1-0.1,0.2-0.2,0.3L56.5,50.2z M57.3,49.2c0-0.1,0-0.1,0-0.2l0.3-0.3l0.7,0.9
	c0.1,0.1,0.1,0.2,0,0.2l-0.4,0.7L57.3,49.2z M58.3,48.6c-0.3-0.4-0.3-0.4,0.1-0.7c0.2,0.4,0.3,0.7,0.4,1.1c0,0.1,0,0.1,0,0.2
	s-0.1,0-0.1-0.1S58.4,48.9,58.3,48.6L58.3,48.6z M58.7,47.6L58.7,47.6l0.6-0.8l0.5,0.6c0.1,0.1,0.1,0.2,0,0.2
	c-0.2,0.3-0.5,0.7-0.7,1.1L58.7,47.6z M59.7,46.4L59.7,46.4c0.1,0,0.1,0.1,0.2,0.3C59.7,46.5,59.7,46.5,59.7,46.4L59.7,46.4z
	 M59.5,48.9L59.5,48.9l0.1-0.2l0,0c0.2-0.2,0.3-0.5,0.5-0.8c0,0,0-0.1,0.1-0.1s0,0.1,0,0.2l-0.5,0.8L59.5,48.9l-0.1,0.2
	C59.4,49.1,59.4,49,59.5,48.9L59.5,48.9z M59.5,49.6l0.9-1.1c0.1,0.4,0.2,0.7,0.2,1.1v0.1l-0.7,1.2c-0.1-0.4-0.2-0.8-0.4-1.1
	C59.5,49.8,59.5,49.7,59.5,49.6L59.5,49.6z M60.6,47.5c-0.1-0.1-0.1-0.3,0-0.4c0.3-0.4,0.6-0.8,0.9-1.2c0.1,0.1,0.1,0.3,0,0.4
	C61.2,46.8,60.9,47.2,60.6,47.5L60.6,47.5z M61.3,45.5c-0.3,0.4-0.6,0.8-1,1.3L60,46v-0.1l1-1.2c0.1,0.2,0.1,0.4,0.2,0.6
	C61.4,45.4,61.4,45.5,61.3,45.5L61.3,45.5z M61,42.7c-0.2-0.3-0.2-0.4,0.2-0.4h0.3L61,42.7z M60.9,43.8c0.1,0.2,0.1,0.5-0.1,0.7
	c-0.3,0.3-0.6,0.6-0.8,1c-0.1-0.2-0.1-0.3-0.2-0.5s0-0.1,0.1-0.2C60.2,44.5,60.5,44.1,60.9,43.8C60.8,43.7,60.9,43.7,60.9,43.8
	L60.9,43.8z M60.2,43.6c-0.3,0.3-0.5,0.5-0.7,0.8l-0.4-0.8c-0.1-0.1-0.1-0.2,0-0.2c0.3-0.3,0.5-0.6,0.8-0.9s0.3-0.2,0.4,0
	c0.3,0.3,0.3,0.7,0.1,1C60.3,43.6,60.3,43.6,60.2,43.6L60.2,43.6z M57.5,40.8c-0.2,0-0.2-0.1-0.1-0.2c0.4-0.6,0.8-1.1,1.3-1.7
	l0.9,1.8C58.9,40.8,58.2,40.8,57.5,40.8L57.5,40.8z M57.9,42.6c0.1,0,0.2,0.1,0.1,0.2l-0.5,0.7c-0.1,0.1-0.1,0-0.1,0l-0.7-0.8v-0.1
	H57.9z M57,43.9c0,0.1,0.1,0.1,0,0.2s-0.1,0.1-0.2,0c-0.3-0.5-0.7-0.9-1-1.4c0.1-0.1,0.2,0,0.3,0.1C56.4,43.1,56.7,43.5,57,43.9z
	 M56.5,40.9c-0.5,0-0.9,0-1.4,0c-0.2,0-0.4,0-0.6,0s-0.1,0-0.1-0.1c0.3-0.6,0.7-1.2,1-1.8l1.3,1.6C56.8,40.7,56.7,40.8,56.5,40.9z
	 M55.2,42.6l-1,1.4c-0.1,0.1-0.1,0.1-0.2,0l-0.8-1c-0.1-0.2,0-0.2,0.1-0.4s0-0.2,0.2-0.2C54.1,42.6,54.6,42.6,55.2,42.6z M53.6,40.7
	L53.6,40.7L52,40.5l0.4-1.3l0.9,1.1c0.1,0.1,0.2,0.2,0.3,0.3C53.6,40.6,53.6,40.7,53.6,40.7z M52,42.3c0.2,0.2,0.4,0.5,0.6,0.7v0.1
	L52,44.8c-0.3-0.3-0.5-0.6-0.8-0.9c0-0.1,0-0.1,0-0.2l0.5-1.4C51.8,42.2,51.9,42.2,52,42.3z M52.5,52c0.5,0.5,0.5,0.6,0.2,1
	C52.7,52.7,52.4,52.4,52.5,52z M52.7,53.9c0.1,0.3,0.5,0.5,0.3,0.8C52.9,54.5,52.6,54.3,52.7,53.9z M53.2,53
	c0.1,0.2,0.3,0.4,0.4,0.6c0,0.1,0,0.1,0,0.2s-0.2,0.3-0.2,0.5C53,53.8,52.7,53.5,53.2,53L53.2,53z M53.7,51.7
	c0.1,0.3,0.3,0.5,0.4,0.8c0,0.1-0.1,0.2-0.1,0.3s-0.1,0.2-0.2,0.4l0,0C53.3,52.5,53.3,52.5,53.7,51.7L53.7,51.7z M54,51.3L54,51.3
	c0.1,0.3,0.5,0.4,0.4,0.8L54,51.3z M54.3,53.9c0.1-0.2,0.3-0.4,0.4-0.7l0.8,1.2c0.1,0.1,0,0.1,0,0.2l-0.4,0.7
	c-0.3-0.5-0.5-0.9-0.8-1.3C54.2,54,54.2,54,54.3,53.9z M55,53.2c-0.1-0.2,0-0.3,0-0.4s0.1,0,0.1,0l0.8,1.1c0,0,0,0,0,0.1
	s-0.1,0.2-0.2,0.2s-0.1-0.1-0.2-0.1C55.4,53.8,55.2,53.5,55,53.2L55,53.2z M55.4,52.4c0-0.1-0.1-0.1,0-0.2c0.1-0.2,0.3-0.5,0.4-0.8
	c0.3,0.5,0.5,0.9,0.8,1.4c0,0.1,0,0.1,0,0.2c-0.1,0.1-0.2,0.2-0.2,0.4c-0.1,0.1-0.1,0.1-0.2,0L55.4,52.4z M56.5,53.9l0.4-0.6
	c0.3,0.4,0.5,0.8,0.8,1.3c0,0.1,0,0.1,0,0.2c-0.1,0.2-0.2,0.4-0.3,0.6s-0.1,0.1-0.2,0c-0.2-0.4-0.5-0.8-0.7-1.2
	C56.5,54,56.5,54,56.5,53.9z M57.2,53.1c0,0,0-0.1,0-0.2c0.1-0.1,0.2-0.2,0.3-0.4c0.3,0.5,0.5,0.9,0.8,1.3c0.1,0.1,0,0.2,0,0.2
	l-0.2,0.3L57.2,53.1z M57.8,52.2c0-0.1,0-0.3,0.1-0.4c0.1,0,0.1,0,0.1,0.1c0.2,0.4,0.4,0.8,0.6,1.2c0.1,0.2,0,0.2-0.1,0.3L57.8,52.2
	z M58.3,51.5c-0.1-0.1-0.1-0.2,0-0.3c0.2-0.2,0.3-0.5,0.5-0.8l0.6,1v0.1l-0.5,1.2L58.3,51.5z M59,53.5c0.2,0.4,0.4,0.8,0.6,1.1
	c0.1,0.2-0.1,0.3-0.1,0.5c-0.2-0.4-0.5-0.8-0.7-1.2C58.8,53.7,59,53.7,59,53.5L59,53.5z M60.9,49c0.1,0,0.1,0.1,0,0.2
	C60.9,49.2,60.9,49.1,60.9,49L60.9,49z M61.5,43.7c-0.3-0.4-0.2-0.6,0.1-0.9c0.2-0.2,0.4-0.4,0.5-0.6c0-0.1,0.1-0.1,0.2-0.1
	c0.1,0,0,0.1,0.1,0.2c0.1,0.2,0,0.4-0.1,0.5C61.9,43.1,61.7,43.4,61.5,43.7L61.5,43.7z M61.7,40.4l-1.2,0.2l1.1-1.2
	C61.7,39.7,61.8,40,61.7,40.4C61.9,40.4,61.8,40.4,61.7,40.4z M60.7,36c0.2,0.8,0.4,1.6,0.6,2.3c0.1,0.4,0,0.8-0.3,1
	c-0.4,0.3-0.7,0.7-1,1.1c-0.1,0.1-0.1,0.1-0.2,0L59,38.6c0-0.1-0.1-0.1,0-0.2L60.7,36z M57.7,35.4c0.9,0,1.7,0.1,2.6,0.2h0.1
	L58.7,38L58,36.5c-0.1-0.3-0.3-0.6-0.4-0.9C57.6,35.5,57.6,35.4,57.7,35.4z M57.1,35.7l1.2,2.7c0,0.1,0,0.1,0,0.2l-1.4,1.8
	c-0.4-0.6-0.8-1.2-1.2-1.8c0-0.1,0-0.1,0-0.2L57.1,35.7z M56.7,35.4l-1.3,2.5l-1.6-2.4C54.8,35.5,55.7,35.4,56.7,35.4z M55.1,38.3
	c0.1,0.1,0.1,0.2,0,0.2c-0.3,0.6-0.7,1.2-1,1.8c-0.1,0.1-0.1,0.1-0.2,0c-0.4-0.5-0.8-1-1.3-1.5c0-0.1,0-0.1,0-0.2
	c0.3-0.9,0.6-1.8,0.9-2.8L55.1,38.3z M50.8,36l2-0.3c0.2,0,0.2,0,0.2,0.2c-0.3,0.8-0.5,1.6-0.8,2.4l-1.7-2.2
	C50.5,36,50.7,36,50.8,36L50.8,36z M49.9,39.3l0.2-2.7c0,0,0,0,0-0.1l1.2,1.5c0.1,0.1,0.2,0.2,0.3,0.3c0.3,0.2,0.4,0.6,0.2,0.9
	c-0.1,0.3-0.2,0.7-0.3,1c0,0.1-0.1,0.2-0.2,0.1C50.6,40.3,50.3,39.7,49.9,39.3C49.9,39.4,49.9,39.3,49.9,39.3L49.9,39.3z M49.8,40
	L49.8,40L49.8,40L49.8,40C49.9,40.1,49.9,40,49.8,40L49.8,40z M47.2,39c-0.2-0.2-0.4-0.5-0.6-0.8c-0.1-0.1-0.1-0.1,0-0.2l0.7-0.7
	l0.1,0.1c0.1,0.6,0.2,1.2,0.3,1.8C47.4,39.2,47.3,39.1,47.2,39L47.2,39z M49.2,42.4l-0.1,1c-0.4-0.5-0.3-1.2-0.4-1.8l0.5,0.6
	C49.2,42.2,49.3,42.3,49.2,42.4L49.2,42.4z M49.5,39.9C49.5,40,49.4,39.9,49.5,39.9l-1.2-0.4c-0.1,0-0.1-0.1-0.1-0.2
	c-0.1-0.6-0.2-1.2-0.3-1.7c0.1,0,0.2,0.1,0.2,0.2c0.5,0.5,0.9,1.1,1.4,1.6C49.6,39.6,49.5,39.7,49.5,39.9z M49.6,39l-1.7-2l2-0.8
	L49.6,39z M49.8,46.2c-0.1-0.2-0.1-0.4-0.1-0.6c0-0.1,0-0.2,0-0.2c0.1,0,0.1,0,0.1,0.1C49.9,45.7,50,45.9,49.8,46.2z M50.1,46.8
	c0,0,0-0.1,0-0.2C50.2,46.7,50.2,46.8,50.1,46.8z M50.5,43.8c0,0.4-0.1,0.7-0.3,1.1c-0.5-0.6-0.8-1.4-0.5-2.1L50.5,43.8
	C50.5,43.8,50.5,43.9,50.5,43.8L50.5,43.8z M50.8,48.9L50.8,48.9c-0.2-0.1-0.2-0.3-0.3-0.4C50.6,48.6,50.7,48.8,50.8,48.9
	c0.1,0,0.1,0.1,0.1,0.2C50.8,49.1,50.8,49.1,50.8,48.9L50.8,48.9z M50.6,46.7c0.3,0.3,0.5,0.6,0.7,1c0.1,0.3,0,0.6-0.2,0.9
	C50.7,48.1,50.5,47.4,50.6,46.7L50.6,46.7z M51.1,50.1v0.4C51,50.4,51,50.3,51.1,50.1L51.1,50.1z M51.7,57.4l-0.5,0.8h-0.1
	c0-0.6,0-1.2,0-1.8c0.1-0.3,0.1-0.5,0.3-0.8c0,0,0,0,0.1,0s0.1,0,0.1,0.1c0.1,0.5,0.2,1,0.2,1.5C51.7,57.3,51.7,57.4,51.7,57.4z
	 M51.5,51.1c0.1,0.3,0.5,0.6,0.3,1.1C51.7,51.8,51.3,51.5,51.5,51.1L51.5,51.1z M52,53.7c0.4,0.4,0,0.7-0.2,1
	C51.8,54.4,51.9,54,52,53.7L52,53.7z M52.5,54.6c0.1,0.2,0.2,0.4,0.3,0.7v0.1c-0.2,0.4-0.4,0.9-0.6,1.3C51.8,56,51.9,55.2,52.5,54.6
	L52.5,54.6z M53.5,58.1l-0.8,1.2c0,0,0,0.1-0.1,0c-0.1-0.6-0.3-1.2-0.4-1.8v-0.1l0.8-1.5c0.2,0.7,0.4,1.3,0.5,1.9
	C53.6,57.9,53.6,58,53.5,58.1L53.5,58.1z M53.3,55.5c0-0.1,0-0.3,0.2-0.4c0.2,0,0.2-0.1,0.3-0.3l0.3-0.5l0.7,1.3
	c0,0.1,0.1,0.1,0,0.2l-0.9,1.6C53.6,56.8,53.4,56.1,53.3,55.5L53.3,55.5z M55.8,58.5L54.9,60c-0.2-0.6-0.5-1.2-0.7-1.8
	c0-0.1,0-0.2,0-0.2l0.9-1.6h0.1c0.2,0.6,0.5,1.2,0.8,1.8C55.9,58.3,55.8,58.4,55.8,58.5L55.8,58.5z M55.4,56c0-0.1,0-0.1,0-0.2
	l0.8-1.4c0.3,0.5,0.6,0.9,0.8,1.4c0,0.1,0,0.1,0,0.2c-0.3,0.6-0.6,1.2-0.9,1.8L55.4,56z M58.3,58.4c-0.3,0.5-0.5,1.1-0.8,1.7
	c-0.1-0.1-0.2-0.2-0.2-0.3l-0.7-1.2c0-0.1-0.1-0.1-0.1-0.2c0.3-0.6,0.6-1.2,0.9-1.9l0.9,1.7C58.3,58.2,58.3,58.3,58.3,58.4
	L58.3,58.4z M58.6,57.5C58.6,57.6,58.5,57.6,58.6,57.5L57.7,56c0,0,0-0.1,0-0.2l0.9-1.5l0.7,1.2c0,0.1,0,0.2,0,0.2
	C59,56.3,58.8,56.9,58.6,57.5L58.6,57.5z M60.4,57.9c-0.2,0.6-0.4,1.2-0.5,1.8L59,58.3c0-0.1,0-0.2,0-0.2c0.2-0.6,0.4-1.2,0.6-1.9
	c0.1,0,0.1,0.1,0.1,0.1l0.7,1.3C60.4,57.7,60.4,57.8,60.4,57.9L60.4,57.9z M60.6,56.8c0,0,0,0.2-0.1,0.2s-0.1-0.1-0.1-0.1
	c-0.2-0.3-0.3-0.7-0.5-1s-0.2-0.3,0-0.6c0.1,0,0.1,0.1,0.2,0.2c0-0.2,0.3-0.2,0.3-0.4s0.2-0.4,0.3-0.6c0.1,0.2,0.2,0.5,0.2,0.7
	C60.7,55.6,60.7,56.2,60.6,56.8L60.6,56.8z M61.7,57.4c-0.1,0.5-0.1,1-0.1,1.5l-0.7-1.1c0-0.1,0-0.1,0-0.2c0.1-0.6,0.2-1.2,0.4-1.8
	C61.4,56.2,61.8,56.7,61.7,57.4L61.7,57.4z M61.7,55.9L61.7,55.9L61.7,55.9C61.7,55.8,61.7,55.8,61.7,55.9S61.8,55.9,61.7,55.9z
	 M61.8,49.9c-0.1-0.2-0.3-0.4,0-0.7C61.8,49.5,61.8,49.7,61.8,49.9z M61.9,45.8C61.9,45.8,61.9,45.7,61.9,45.8L61.9,45.8
	C61.9,45.7,61.9,45.7,61.9,45.8C62,45.9,61.9,45.8,61.9,45.8L61.9,45.8z M61.7,44.2L61.7,44.2l0.8-1.1c0.1,0.3,0.1,0.5,0.1,0.7
	c0,0.1,0,0.1,0,0.2l-0.7,0.8C61.9,44.6,61.8,44.4,61.7,44.2z M62.7,44.5L62.7,44.5c-0.1,0.2-0.2,0.4-0.3,0.5c0,0.1-0.1,0.3-0.2,0.2
	s0-0.2,0.1-0.3S62.6,44.7,62.7,44.5z M62.7,42.1L62.7,42.1c0.1,0,0,0.1,0,0.2S62.7,42.1,62.7,42.1L62.7,42.1z M62.1,47.5
	c0-0.4-0.2-0.8,0-1.2C62.5,46.8,62.5,47,62.1,47.5L62.1,47.5z M62.3,57.1L62.3,57.1L62.3,57.1c-0.1-0.1-0.2-0.3-0.1-0.5v-0.4
	c0,0,0.1,0.1,0.1,0.2l0.1,0.6C62.4,57,62.4,57,62.3,57.1L62.3,57.1z M62.4,50.5L62.4,50.5v0.2l0,0c0,0.1,0,0.2-0.1,0.3
	C62.2,50.8,62.2,50.7,62.4,50.5L62.4,50.5v-0.2C62.4,50.3,62.5,50.4,62.4,50.5L62.4,50.5z M62.2,49.5c-0.1-0.6,0-1.2,0.5-1.6
	C62.9,48.5,62.5,48.9,62.2,49.5L62.2,49.5z M62.7,46.5c-0.4-0.6-0.4-0.8,0-1.1C62.8,45.8,62.9,46.1,62.7,46.5L62.7,46.5z M63.1,44.1
	L63.1,44.1L63.1,44.1L63.1,44.1C63.1,44,63.2,44.1,63.1,44.1L63.1,44.1z M63.4,46.6c0,0.1-0.1,0.2-0.1,0.3s0,0.1-0.1,0.2
	c0-0.1,0-0.3,0-0.4l0.1-0.2l0,0v-0.1C63.4,46.4,63.5,46.6,63.4,46.6L63.4,46.6z M63.2,45.6c-0.2-0.6,0-1.2,0.5-1.6
	C63.8,44.6,63.6,45.2,63.2,45.6L63.2,45.6z M63.1,43.9c0-0.1,0.1-0.1,0.2-0.2C63.3,43.8,63.3,43.9,63.1,43.9
	C63.2,43.9,63.2,43.9,63.1,43.9L63.1,43.9z M63.3,43.7c0-0.1,0.1-0.1,0.1-0.2C63.5,43.7,63.4,43.7,63.3,43.7L63.3,43.7z M63.4,43.5
	C63.4,43.5,63.4,43.4,63.4,43.5C63.6,43.4,63.5,43.4,63.4,43.5C63.5,43.4,63.5,43.5,63.4,43.5C63.3,43.5,63.5,43.5,63.4,43.5
	L63.4,43.5z M63.6,43.3L63.6,43.3L63.6,43.3C63.7,43.3,63.7,43.3,63.6,43.3C63.6,43.4,63.6,43.3,63.6,43.3L63.6,43.3z M63,43.5
	c0-0.2-0.1-0.5-0.2-0.7v-0.1c0.3-0.3,0.6-0.7,0.9-1C64,42.6,63.4,43,63,43.5L63,43.5z M63.8,37.5v2c0,0.2-0.2,0.5-0.4,0.5l-1,0.3
	c-0.1,0-0.2,0-0.2-0.1c-0.1-0.4-0.2-0.7-0.3-1.1c0-0.1,0-0.1,0-0.2c0.6-0.7,1.2-1.4,1.8-2.1l0,0L63.8,37.5z M64.2,36.8
	C64.2,36.7,64.2,36.7,64.2,36.8c0.6,0.1,1,0.3,1.4,0.6c0.1,0,0.1,0.1,0,0.2l-1.4,1.6h-0.1L64.2,36.8z M64.2,43.7
	c-0.1-0.3,0-0.5,0.2-0.8C64.5,43.2,64.4,43.5,64.2,43.7L64.2,43.7z M64.5,41.6l-0.3,0.3C64.2,41.6,64.2,41.6,64.5,41.6L64.5,41.6z
	 M65.5,39.3C65.5,39.3,65.4,39.4,65.5,39.3c-0.5,0.2-0.8,0.4-1.2,0.5l1.5-1.6h0.1C65.7,38.6,65.6,38.9,65.5,39.3L65.5,39.3z
	 M66.5,38.8c-0.1,0.1-0.2,0.2-0.4,0.2l0.3-1l0.2,0.2C66.9,38.5,66.8,38.5,66.5,38.8L66.5,38.8z"/>
</svg>
