<?xml version="1.0" encoding="utf-8"?>
<!-- Generator: Adobe Illustrator 25.4.1, SVG Export Plug-In . SVG Version: 6.00 Build 0)  -->
<svg version="1.1" id="レイヤー_1" xmlns="http://www.w3.org/2000/svg" xmlns:xlink="http://www.w3.org/1999/xlink" x="0px"
	 y="0px" viewBox="0 0 800 668.5" style="enable-background:new 0 0 800 668.5;" xml:space="preserve">
<style type="text/css">
	.st0{fill:#B3DCFC;}
	.st1{fill:#C9E8FF;}
	.st2{fill:#B3DCFC;stroke:#B3DCFC;stroke-width:4;stroke-miterlimit:10;}
</style>
<rect class="st0" width="800" height="668.5"/>
<path class="st1" d="M520.9,390.4c-36.5,0.1-71,8.2-103.2,25.4c-32.9,17.3-60.1,43.7-78.4,76.1c-12.5,21.9-20.4,45.6-24.6,70.5
	c-2.1,13.2-3.3,26.5-3.5,39.8c0,1.9-0.6,2.5-2.5,2.4c-6.1-0.1-12.1-0.1-18.2,0c-1.3,0-2.1,0-2.1-1.7c0.4-30.8,5.1-60.7,16-89.6
	c13.8-36.9,35.8-68.1,66.2-93.1c24.6-20.1,53.1-34.8,83.7-43.2c26.8-7.5,54.7-10.4,82.5-8.5c33.4,2,66,11,95.7,26.5
	c41.1,21.4,74.4,55.2,95,96.7c9,18,15.5,37.2,19.6,56.9c3.7,17.9,5.7,36.1,5.8,54.4c0,1.9-0.4,2.5-2.4,2.5c-6.1-0.2-12.1-0.2-18.2,0
	c-1.9,0-2.3-0.6-2.3-2.4c-0.1-19.5-2.5-39-7.1-58c-9.3-37.3-27-69.9-54.8-96.8s-60.6-43.6-97.8-52.2
	C554.1,392.2,537.6,390.3,520.9,390.4z"/>
<path class="st1" d="M521.1,415.2c-32.9,0.3-63.6,7.3-92.2,22.8c-34,18.4-59.2,45.2-75.3,80.5c-8.5,19.1-13.9,39.4-16.1,60.2
	c-0.9,7.8-1.3,15.7-1.4,23.6c0,1.8-0.6,2.3-2.4,2.3c-5.2-0.1-10.4-0.1-15.6,0c-1.5,0-2.1-0.2-2.1-1.9c0.3-26.9,4.4-53.2,13.6-78.5
	c11.6-31.7,30-58.8,55.9-80.7c26.9-22.8,57.9-37,92.3-44c20.3-4.1,41.1-5.3,61.8-3.4c42,3.8,80.1,18.1,113,44.8
	c20,16.2,36.4,36.4,48.2,59.2c11.2,21.4,18,44.2,21.7,68c1.6,11.6,2.5,23.3,2.7,35c0,1.5-0.2,2.2-1.9,2.1c-5.3-0.1-10.6-0.1-15.9,0
	c-2,0-2.4-0.7-2.5-2.5c-0.1-10.7-0.9-21.3-2.4-31.9c-4.9-32.9-16.6-63-37.5-89.1c-17.3-21.6-38.8-37.9-64-49.3
	c-17.6-7.9-36.3-13.2-55.4-15.5C537.6,415.9,529.4,415.3,521.1,415.2z"/>
<path class="st1" d="M520,440.2c-27.4,0.2-54.2,6.3-79,19.7c-31.6,17-54.1,42.2-67.4,75.6c-8.6,21.3-12.1,43.6-12.4,66.5
	c0,2.4-0.8,2.8-2.9,2.8c-5.1-0.2-10.2-0.1-15.4,0c-1.5,0-1.9-0.4-1.9-1.9c0.5-33.5,7.1-65.5,23.6-95.1
	c11.9-21.5,28.6-40.1,48.8-54.2c22.7-16,48.8-26.5,76.2-30.7c35.8-5.7,70.6-2,104.2,11.8c23.8,9.6,45,24.6,62,43.7
	c18.1,20.4,30.2,44.1,37.3,70.4c4.8,17.8,6.8,36,7.2,54.4c0,1.5-0.3,2.1-2,2.1c-5.4-0.1-10.8-0.1-16.1,0c-1.8,0-2.1-0.7-2.1-2.3
	c-0.1-16.1-2.1-32.2-6-47.9c-5.9-22.7-16-43.3-31.2-61.2c-13.8-16.1-30.9-29.1-50.1-38C569.8,445.2,545.8,440.3,520,440.2z"/>
<path class="st1" d="M521.6,445.1c29.1,0.2,57.3,7.2,83,22.8c31.4,19,52,46.6,62.8,81.6c5.4,17.5,7.6,35.5,7.8,53.7
	c0,1.5-0.3,2-1.9,1.9c-6.2-0.1-12.5-0.1-18.7,0c-1.9,0-2.3-0.6-2.3-2.4c0-7.7-0.5-15.4-1.6-23.1c-7.6-51.6-34.6-87.9-84.7-104.5
	c-40.3-13.4-79.8-9.5-116.8,11.9c-27.7,16-45.2,40.3-54.1,70.9c-4.1,14.4-6.2,29.4-6.2,44.4c0,1.9-0.4,2.5-2.4,2.5
	c-6.1-0.2-12.1-0.1-18.2,0c-1.7,0-2.2-0.5-2.2-2.2c0.5-26.1,5-51.3,16.4-75c12.3-25.7,32.1-47,56.8-61.1
	c16.1-9.3,33.8-15.6,52.1-18.8C501.3,445.9,511.4,445.1,521.6,445.1z"/>
<ellipse class="st1" cx="172.4" cy="269.3" rx="115.3" ry="119.8"/>
<path class="st2" d="M287.5,284.9c-2,16-7,31.6-14.9,45.7c-7.5,13.4-17.5,25.3-29.5,34.9c-11.7,9.5-25.3,16.6-39.8,20.8
	c-9.9,2.9-20.2,4.3-30.5,4.3c-5.1,0-10.2-0.4-15.2-1h-0.2c-3.3-0.1-6.6-0.7-9.7-1.8c-12-2.7-23.4-7.4-33.9-13.9
	c-13-8-24.3-18.5-33.3-30.9c-9.2-12.5-15.9-26.7-19.8-41.7c-4.1-15.7-5.2-32.1-3.1-48.2c2-16,7.1-31.5,14.9-45.7l0.3-0.5v-0.1l0,0
	c7.5-13.1,17.3-24.7,29.1-34.2c11.7-9.5,25.3-16.6,39.8-20.8c14.9-4.3,33.2-4.9,45.9-3.3c12.7,1.7,30.2,7.4,43.5,15.7
	c13,8,24.3,18.5,33.3,30.9c9.2,12.5,15.9,26.7,19.8,41.7C288.5,252.4,289.5,268.8,287.5,284.9z M254.6,186.9c-1.7,0.4-6,2.2-13,5.5
	c-9,5-19.7,12.5-34.3,25c-13.7,11.7-51.9,54.9-69.7,67s-28.6,10.2-29.8,10.2c-1.4,0-2.2,0-3,0.8s0.6,13.3,1.8,21.3
	c6.2,0.8,12.3,1.2,18.6,1.3c16.6,0.4,35.3-1.7,54.9-5.8c22.8-4.2,37.2-8.5,52.6-15c11.5-4.7,22.6-10.6,32.8-17.6
	c13.9-9.7,19.2-19.9,20.3-21.6c-0.5-8-1.8-12.9-3.8-20.6C277.1,218.5,267.7,201.2,254.6,186.9L254.6,186.9z M187.4,151.1
	L187.4,151.1c-3.8,0-7.6,0.5-11.3,1.4c-6.3,1.5-14.2,3.6-22,9.1c-12.5,9.7-22.6,25.5-30.6,40.2c-13.5,33.1-16.4,43-19,71.8
	c-0.1,5.4-0.5,10.7,0,12.3c0.5,1.6,1.3,3.4,4.1,3.2s10.7-2.4,19.5-6.6s60.1-55.8,75.9-69.3c8.2-7,19.9-18.4,34.9-25.3
	c4-1.9,8.1-3.5,12.3-4.7c-6.2-6.5-13.3-12.2-21.1-16.8C217.1,158.4,202.6,153.1,187.4,151.1L187.4,151.1z M75.1,208.1
	c-2.4,6.2-3.9,12.6-4.6,19.2c-1.2,10.8-0.7,26.3,7.7,44.4c3.1,6.6,10,12.8,17,15.5c3.7,1.4,5-1.1,5.3-2.1c0.3-1.1,0.2-8.9,0.5-14.5
	c0.2-13.7,3.8-38.1,19.1-71.8c7.6-15.8,17-27.7,28.6-36.5c5.6-4.2,12.5-10.3,26.3-12.3c-0.9,0-1.7,0-2.5,0
	c-10.1,0-20.2,1.4-29.9,4.2c-14.2,4.1-27.4,11-38.9,20.2C92.1,183.8,82.4,195.2,75.1,208.1L75.1,208.1z M63.2,300.5
	c7.4,6.4,16.4,10.9,26,13c4.7,1.4,7.3,2.6,13.3,2.9c-1.1-7.2-1.7-14.6-1.7-21.9c-4.2-0.5-8.1-2-11.5-4.5c-7-4-10.5-8.7-14-15.2
	c-8.7-18.8-8.4-36.8-7.1-48c0.3-2.4,0.6-4.6,1-6.6C58.3,245.6,56.2,273.9,63.2,300.5z M82.6,340.5c1.4,1.9,2.4,3,3.9,4.8
	c1-1.7,2-3.1,6.5-4.9s13.6,0.7,15.1,0.1c1.5-0.5-1.5-1-4.3-20.5c-5.4-0.8-10.7-1.9-16-3.4c-12.2-3.6-18.3-5.8-23.1-11.8
	C68.6,317.6,74.7,329.6,82.6,340.5L82.6,340.5z M135.5,381.5c0,0-5.6-3.2-8.1-5.8c-6.2-6.5-10-11.3-14.6-24.3
	c-1.4-2.1-3.2-3.9-5.2-5.4c-2-1.3-4.3-1-12.8-0.3c-3,1.6-3.8,2.1-4.5,5c7.1,8.3,15.5,15.4,24.9,21
	C121.6,375.5,135.5,381.4,135.5,381.5L135.5,381.5z M237.8,366.3c-7.6,2.3-15.3,4-23.2,5.1c-5.8,0.3-11.5,0.2-17.3-0.3
	c-13.8-1.1-31.9-5.8-51.1-15.5c-9.2-4.6-19.2-7.4-29.4-8.2c-0.8-0.1-1.2,1.2-0.4,4.3c2.5,5.5,6.7,14.2,13.3,21.2
	c5.2,5.6,11.7,9.9,19,12.4c3,0.7,6,1.2,9.1,1.6c15,2.1,30.3,1,44.9-3.2C215.3,380.1,227.2,374.1,237.8,366.3L237.8,366.3z
	 M197.8,368c21.1,2.1,34.6-1.6,45.8-6.2c10.8-9.1,19.9-20.1,26.8-32.5c7.7-13.8,12.7-29,14.6-44.8c0.8-6.4,1.1-12.9,1-19.3
	c-2,4.1-8,12-18.5,19.4c-10.1,7-20.9,12.9-32.3,17.6c-15.6,6.5-33.5,11.7-53.4,15.8c-10.9,2.2-22,3.8-33.1,4.7c-1.6,0-22,0-23.6,0
	c-5.8-0.1-11.6-0.6-17.3-1.3c1.1,6.7,3.8,19.5,4.3,19.7c0.5,0.3,19.6,2.9,35.8,11c11,5.1,22.3,9.5,33.8,13.2c2,0.7,4.1,1.1,6.2,1.4
	L197.8,368z"/>
</svg>
