<?xml version="1.0" encoding="utf-8"?>
<!-- Generator: Adobe Illustrator 26.0.0, SVG Export Plug-In . SVG Version: 6.00 Build 0)  -->
<svg version="1.1" id="レイヤー_1" xmlns="http://www.w3.org/2000/svg" xmlns:xlink="http://www.w3.org/1999/xlink" x="0px"
	 y="0px" viewBox="0 0 800 668.5" style="enable-background:new 0 0 800 668.5;" xml:space="preserve">
<style type="text/css">
	.st0{fill:#E4C8FA;}
	.st1{fill:#F5D9FF;}
	.st2{fill:#E4C8FA;stroke:#E4C8FA;stroke-width:4;stroke-miterlimit:10;}
</style>
<rect class="st0" width="800" height="668.5"/>
<ellipse class="st1" cx="600.3" cy="481.4" rx="104.9" ry="109"/>
<path class="st2" d="M705.1,495.6c-1.8,14.6-6.4,28.7-13.6,41.6c-6.8,12.2-15.9,23-26.8,31.8c-10.7,8.6-23,15.1-36.2,18.9
	c-9,2.6-18.4,3.9-27.8,4c-4.6,0-9.2-0.3-13.8-1h-0.2c-3-0.1-6-0.6-8.8-1.6c-10.9-2.5-21.4-6.8-30.9-12.7
	c-11.8-7.3-22.1-16.9-30.3-28.1c-8.3-11.4-14.4-24.3-18-38c-3.7-14.3-4.7-29.2-2.8-43.8c1.8-14.6,6.4-28.7,13.6-41.6l0.3-0.5v-0.1
	l0,0c6.8-12,15.8-22.6,26.5-31.2c10.7-8.6,23-15.1,36.2-18.9c13.6-3.9,30.3-4.5,41.8-3s27.5,6.8,39.6,14.3
	c11.8,7.3,22.1,16.9,30.3,28.1c8.3,11.4,14.4,24.3,18,38C706,466.1,707,481,705.1,495.6z M675.2,406.4c-1.5,0.4-5.4,2-11.8,5
	c-8.2,4.5-18,11.4-31.3,22.7c-12.5,10.7-47.2,50-63.4,61s-26,9.3-27.2,9.3c-1.3,0-2,0-2.7,0.7s0.5,12.1,1.6,19.4
	c5.6,0.7,11.2,1.1,16.9,1.2c15.1,0.4,32.1-1.6,50-5.3c20.8-3.8,33.8-7.8,47.9-13.6c10.5-4.3,20.5-9.6,29.9-16
	c12.6-8.9,17.5-18.1,18.5-19.6c-0.5-7.2-1.6-11.7-3.5-18.8C695.6,435.3,687.1,419.6,675.2,406.4L675.2,406.4z M614,373.8L614,373.8
	c-3.4,0-6.9,0.4-10.2,1.3c-5.7,1.3-13,3.3-20,8.3c-11.4,8.9-20.5,23.2-27.8,36.6c-12.3,30.1-15,39.1-17.3,65.4
	c-0.1,4.9-0.5,9.7,0,11.2s1.2,3.1,3.7,2.9s9.7-2.2,17.7-6s54.7-50.9,69.1-63.1c7.5-6.4,18.1-16.7,31.8-23c3.6-1.7,7.3-3.2,11.1-4.3
	c-5.7-5.9-12.1-11.1-19.2-15.2C641,380.4,627.8,375.7,614,373.8z M511.8,425.7c-2.2,5.6-3.6,11.5-4.2,17.5c-1.1,9.9-0.7,23.9,7,40.5
	c2.8,6,9.1,11.7,15.5,14.1c3.4,1.3,4.6-1,4.8-1.9s0.2-8.1,0.5-13.2c0.2-12.4,3.4-34.7,17.3-65.3c6.9-14.4,15.5-25.2,26-33.3
	c5.1-3.9,11.4-9.3,23.9-11.2c-0.8,0-1.5,0-2.3,0c-9.2,0-18.4,1.3-27.2,3.9c-12.9,3.7-25,10-35.4,18.5
	C527.2,403.7,518.4,414,511.8,425.7z M500.9,509.8c6.8,5.9,14.9,10,23.7,11.9c4.3,1.3,6.6,2.4,12.1,2.6c-1-6.6-1.6-13.2-1.6-19.9
	c-3.8-0.4-7.4-1.8-10.5-4.1c-6.4-3.6-9.6-7.9-12.8-13.9c-7.9-17.1-7.6-33.5-6.5-43.7c0.2-2.2,0.5-4.2,0.9-6
	C496.5,459.9,494.6,485.6,500.9,509.8L500.9,509.8z M518.6,546.2c1.3,1.8,2.2,2.7,3.6,4.4c0.9-1.5,1.8-2.9,5.9-4.4
	s12.3,0.6,13.7,0.1s-1.4-1-3.9-18.7c-4.9-0.7-9.8-1.7-14.6-3.1c-11.1-3.3-16.7-5.3-21-10.7C505.9,525.4,511.4,536.3,518.6,546.2z
	 M566.7,583.5c0,0-5.1-2.9-7.4-5.3c-5.7-6-9.1-10.3-13.2-22.2c-1.3-1.9-2.9-3.5-4.8-4.9c-1.8-1.2-3.9-1-11.6-0.2
	c-2.8,1.4-3.4,1.9-4.1,4.5c6.5,7.6,14.1,14,22.7,19.1C554.1,578.1,566.7,583.5,566.7,583.5L566.7,583.5z M659.9,569.7
	c-6.9,2.1-14,3.7-21.1,4.6c-5.2,0.3-10.5,0.2-15.8-0.3c-12.5-1-29-5.3-46.5-14.1c-8.4-4.2-17.5-6.8-26.8-7.5c-0.8-0.1-1,1-0.4,3.9
	c2.3,5,6.1,13,12.1,19.3c4.7,5.2,10.7,9.1,17.3,11.3c2.7,0.6,5.5,1.1,8.3,1.5c13.7,1.9,27.6,0.9,40.9-2.9
	C639.4,582.2,650.2,576.9,659.9,569.7L659.9,569.7z M623.4,571.2c19.2,1.9,31.5-1.4,41.7-5.7c9.9-8.3,18.1-18.3,24.4-29.5
	c7-12.6,11.6-26.4,13.3-40.7c0.7-5.8,1-11.7,0.9-17.6c-1.8,3.8-7.3,10.9-16.8,17.6c-9.2,6.4-19.1,11.8-29.4,16
	c-14.2,6-30.5,10.6-48.6,14.4c-9.9,2-20,3.5-30.1,4.3c-1.5,0-20,0-21.5,0c-5.3-0.1-10.5-0.5-15.8-1.2c1,6.1,3.4,17.7,3.9,18
	s17.9,2.6,32.6,10c10,4.6,20.3,8.7,30.8,12c1.8,0.6,3.7,1,5.7,1.3L623.4,571.2z"/>
<path class="st1" d="M360.9,307.8c-1.1-2.7-2.4-5.4-1.9-8.6c1.7,0.6,2.1,2,2.9,3c0.4,0.4,0.5,0.9,1.1,0.7s0.5-0.9,0.3-1.3
	c-1.4-3.8-2.5-7.7-3.3-11.7c-2.1-8.3-4.3-16.5-7.1-24.5c-1.5-4.4-3-8.9-5.6-12.7c-5.6-7.9-10.9-16.1-16.8-23.9
	c-6.1-8-11.4-16.7-18.5-24.7c13.6,1.5,26.8,1.6,39.7,5.2c-3.6-1.8-7.2-3.7-11-4.9c-10-3-20.3-4.4-30.6-5.5c-0.6-0.1-1.4-0.1-1.4-0.8
	c-0.1-1.3,0.2-2.7-0.4-4c1.1-0.3,2.3-0.4,3.5-0.3l0.9,0.1c2-0.1,4,0.4,5.9-0.3l7.6-0.2c1.2-0.1,2.5,0.4,3.8-0.3l6.2-0.1
	c0.9,0.1,1.8,0.1,2.7,0c1.4-0.2,3,0.7,4.2-0.6l0,0c0.9-0.6,2.3,0.1,3.1-0.9c-0.5-0.9-1.4-0.5-2.2-0.8c-0.9-0.7-1.9-0.3-2.8-0.3l0,0
	l-5.4-0.1c-1.3-0.8-2.7-0.2-4.1-0.4c-2,0-4.1,0.1-6.1,0c-6.3-0.6-12.7-0.6-19.1,0c-0.5,0.1-1.1-0.1-1.4-0.6c-1-1.6-0.9-3.7-1.9-5.4
	c0-0.1,0.4-0.7,0.7-0.8c3.4-1.1,6.2-3.2,9.4-4.6s6.6-2.3,9.8-3.8c1.9-0.9,4-1.2,5.8-2.5c-10.1,2.2-20.4,3.6-30.2,7
	c-0.2-1.3,0.4-2.7-0.4-4c-0.2-0.8-0.3-1.6-0.3-2.4c-0.5-3.5-2.7-5.9-4.7-8.6c-3.9-5.1-7.8-10.3-11.4-15.6c-1.5-2.2-3.4-4.3-4.9-6.9
	c2.8,1.9,3.5-0.9,4.4-2s-1-2-1.9-2.7c-1-0.8-1.9-1.9-2.5-3.1c-0.3-0.6-0.3-1.3,0.1-1.8c0.4-0.6,0.9-0.1,1.4-0.1
	c1.6,0.2,3.1,0.1,4.1-1.7c1.5-2.7,3.2-5.3,4.9-8c1.1-0.4,0.9-1.3,1-2.2c2.4-6.4,3.7-13.1,3.7-19.9c0.6-0.8,0.6-1.9,0-2.7l0,0
	l-0.1-3.6l0,0c-0.1-1.1,0.4-2.2-0.3-3.2l0,0c-0.1-3.2-0.7-6.4-1.6-9.4c-1.1-4-2.5-7.8-5.8-10.7c-2-1.8-4-1.3-5.3,0.1
	c-2.1,2.2-4.5,3.9-6.2,6.5c-3.4,5-7.9,9.2-9.7,15.2c-1.4,4.5-3,9-3.9,13.7c-1,5.3-2.3,10.6-2.9,16.1c-0.2,1.9,0,2.5,1.6,2.9
	c0.9,0.2,2,0.8,2,1.6c0,1-1.2,1.5-2.1,1.6c-1.4,0.2-1.5,1-1.4,2c0,0.9,0.2,1.8,0.5,2.6c0.6,1.2,0.2,1.3-0.9,1.4
	c-2.4,0-4.7-0.5-7.1-0.6c-3.3-0.2-6.5-0.5-9.8-1c-4.9-0.6-9.9-1.5-14.8-1.6c-7.1,0-14.1,0.6-21.1,1.8c-2.9,0.4-5.7,1.2-8.5,1.8
	l-2-0.1c0.4-1,1.5-1.4,2-2.3c0.2-0.4,0.8-0.8,0.4-1.3c-0.3-0.4-0.9-0.6-1.4-0.3c-1.4,0.6-2.9,0.6-4.2,1.5c-0.6,0.4-1.1,0.4-0.9-0.5
	c0.8-2.9,0.2-6,1.4-8.9c0.6-0.7,0.3-1.5,0.4-2.3c0.1-5.3,1.7-10.4,1.5-15.8c0.5-0.6,0.5-1.6,0-2.2c0-3.9-0.7-7.7-2.1-11.3
	c-2.5-6.2-5.8-12-9.7-17.4c-1-1.3-2.3-2.4-3.8-3.2c-4.4-2.1-9.7-0.3-11.9,4.1c-2.9,6.1-5.2,12.4-7,18.8c-1.6,5.6-2.7,11.3-3.4,17
	c-0.4,3.2-0.7,6.5,0.5,9.7c1.7,4.7,4,9.3,6.6,13.5c0.6,1,0.6,1.6-0.3,2.1c-0.4,0.2-1.2-0.2-1.1,0.7c0.1,0.7,0.5,1,1.1,1.2
	c1.3,0.4,2.6,1,3.8,1.5c0.7,0.3,1.6,0.7,1.6,1.3s-0.8,1-1.5,1.3c-1.5,0.6-2.9,1.4-4.2,2.3c-0.5,0.4-1.5,0.5-1.2,1.3
	c0.2,0.5,1,0.7,1.7,0.8c1.6,0.3,3.3,0.1,5.4,1.1c-1.4,0.4-2.8,1-4.1,1.7c-3.3,1.2-6.5,2.7-9.6,4.5c-2.7,1.7-3.3,3.2-2.6,5.8l0.5,0.9
	c-0.3,0.1-0.6,0.1-0.8,0.3c-4.8,2.8-8.1,7.1-11.5,11.5c-0.4,0.3-0.5,0.7-0.1,1.1s0.8,0.2,1.1-0.1c0.5-0.2,1.1-0.1,1.5,0.2
	c-0.6,0.4-1.1,0.9-1.5,1.4c-1.4,1.9-3.3,3.6-3.5,6c-0.2,2.1-1.1,2.4-2.9,2.2c-4.1-0.4-8.1-1.2-12.1-2.3c-5.3-1.6-10.7-3-16.1-4.3
	c-4.7-1.2-9.4-2.5-14.3-2.8c-1,0-2.4-0.6-2.6,1.2c-0.1,1.4,0.6,1.9,2,2.4c8.1,3.1,16.6,3.6,25,4.9c5.6,0.9,11.2,1.5,16.7,2.8
	c0.6,0.1,1.5,0,1.6,0.8c0.1,0.7-0.2,1.5-0.8,1.9c-1.1,1.1-2.4,2.1-3.5,3.3c-1.5,1.7-3.5,3.2-6.2,2.4c-3.1-0.8-6.2-0.3-9.3-0.9
	c-4.5-0.8-9.1-1.1-13.7-1.5c-5.9-0.5-11.7-1.3-17.6-1.6c-1.1-0.2-2.3,0.1-3.2,0.7c0.9,0.5,1.8,0.8,2.8,1c4.4,0.6,8.7,1.3,13.1,1.7
	c3.4,0.4,6.7,1.2,10,1.4c6.3,0.3,12.4,1.7,18.7,2c1.3,0,3.1,0.6,3,2.3s0.3,3.4-0.3,5.1c-0.2,0.6,0.1,1.2-0.6,2
	c-2.7,3.2-6.1,3.3-9.8,3.2c-1.3,0.1-2.6-0.4-3.9,0.3c-1.9,0.4-3.8,0.6-5.8,0.6c-0.8,0-1.6-0.3-2.3,0.3l-9.8,1.1
	c-0.8,0-1.7-0.3-2.4,0.3c-3.5,0.6-7.1,1.3-10.6,1.8c-1,0-1.9,0.8-2.1,1.8c2.2,0,4.2,0.1,6.2,0c5.6-0.5,11.1-1.1,16.6-1.7
	c2.9-0.3,5.9-0.8,8.8-1.1c3.9-0.6,7.8-0.8,11.7-0.6c-0.2,0.9-0.7,1.7-1.2,2.5c-2.4,2.5-5,4.9-7.8,6.9c-3.3,2.4-7,4.3-7.8,9
	c-0.2,0.9,0.3,2.6-0.5,2.6c-2.2,0.2-3.3,1.9-4.9,2.9c-4.5,2.9-8.8,6.2-9.9,11.8c-1.5,7.5-5.4,13.5-9.9,19.4c-1.2,1.5-2.7,2.8-3.1,5
	c-0.8,3.6-1,7.3-0.8,10.9c0.1,1.7,0.3,3.6-0.8,5.1c-1,1.6-1.9,3.3-2.6,5c-2.6,6.1-5,12.2-4.7,19c0.2,4.9-0.8,9.5-1.9,14.1
	c-1.1,4.9-1.1,9.9-0.2,14.8c1,6.4,3,12.5,5.1,18.5c2.1,6.2,4.6,12.3,7.7,18.1c1.4,2.5,2.6,5.4,6,6.3c1.9,0.5,1.8,2.5,1.2,3.8
	c-1,2.4-0.5,4.8-1,7.2c-0.1,0.3-0.4,1,0.2,1.1s0.8-0.3,1-0.9c0.6-2.3,1.3-4.6,2.1-6.9c0.3-1-0.4-2.7,0.8-2.7c1.4,0,1,2,1.6,3.1
	c0.1,0.1,0,0.3,0,0.5c0.8,2.9,1.6,5.9,2.4,9c1.7-2.1,1.1-4.6,2-6.7c0.7,0.8,1.1,1.8,1,2.8c0.4,4.5,1.2,9,1.5,13.5
	c0.3,4.8,3.2,8.9,4.7,13.4c0.3,1,0.7,2.8,2.1,2.5c1.1-0.2,0.6-1.8,0.9-2.8c0-0.1,0.2-0.2,0.4-0.3c0.5,0.5,0.9,1.1,0.9,1.9
	c0,0.8-0.3,1.6,0.3,2.3c0.2,3.9,0.8,7.7,2,11.4c0.9-0.5,0.8-1,0.8-1.5c0.2-1-1.4-2.4-0.1-2.9c0.9-0.4,1.2,1.5,1.9,2.3
	c4.2,4.9,8.2,9.9,12,15.1c-1.2,2.1-0.2,3.5,2.6,3.7h1c1.4,1,2.4,2.6,3.6,3.8c3.4,3.5,7.1,6.6,11.9,8.3c4.4,1.6,8.8,0.5,13.1,0
	c7.1-0.9,14-2.6,20.6-5.2c2.5-1,4.8-2.1,6-4.7c0.7-1.5,2-2.6,3-3.9c0.5-0.6,1.3-0.8,2-0.5c2.5,1,5.2,1.4,7.9,1.2
	c2.7-0.1,5.4-0.4,8,0.2c4.8,1,9.4,2.6,14.1,3.7c3.4,0.8,6.9,1.8,10.5,0.8c1-0.3,1.9-0.7,1.8-1.9s0.6-1.5,1.6-1.3
	c4.9,1.1,9.9,0.9,14.9,1c1,0.1,1.9-0.2,2.7-0.8c0.9-0.6,1.9-1.1,2.9-1.5c0.6-0.4,1.5-2.1,2.4-0.1c0.4,1,0.9,2,1.5,2.9
	c0.5,0.7,1.4,1.2,1.9,1.9c4.7,6.6,11.4,8.8,19,8.4c4.1-0.3,8.2-0.9,12.3-1.8c5.4-1.1,10.5-2.8,14.6-6.9c3.5-3.4,6.9-6.7,9.5-10.9
	c2.8-4.5,5.3-9.1,6.2-14.4c0.1-0.8,0.3-1.7,1.1-2c2.8-1,5.1-2.3,6.6-5.1c0.7-1.4,1.1-2.3,0.2-3.6c-0.7-0.8-0.8-2-0.2-2.9
	c1.8-2.6,2.3-5.8,3.1-8.8c0.6-2.3,1.5-4.7,1.2-6.9c-0.3-1.9-0.1-2.7,1.4-3.8c1.2-0.8,1.2-0.5,1.6,0.5c0.4,1.3,1,2.6,1.8,4.4
	c1.4-4.2,0.3-8.3,2.4-11.8c0.5,1.3,0,3.4,1.6,3.4s1.2-2,1.8-3.2c0.4-0.9,0.6-2,0.5-3c0-1,0.4-2.1,1.2-2.8c1.8-2,3.7-3.9,5.5-5.9
	c1.5-1.7,2.6-3.8,3-6c0.4-2,0.1-4.1,1-6.1c2.7-6.3,5.3-12.7,7.8-19c2.6-6.6,4.2-13.5,4.6-20.6C365,320.8,363.7,314,360.9,307.8z"/>
</svg>
