<svg xmlns="http://www.w3.org/2000/svg" viewBox="0 0 800 668.49"><defs><style>.cls-1,.cls-3{fill:#e4c8fa;}.cls-2{fill:#f5d9ff;}.cls-3{stroke:#e4c8fa;stroke-miterlimit:10;stroke-width:4px;}</style></defs><g id="レイヤー_2" data-name="レイヤー 2"><g id="背景素材"><g id="ボールとトトロ_紫_" data-name="ボールとトトロ（紫）"><rect class="cls-1" width="800" height="668.49"/><ellipse class="cls-2" cx="600.32" cy="481.41" rx="104.93" ry="109.03"/><path class="cls-3" d="M705.11,495.62a113.63,113.63,0,0,1-13.6,41.56A109,109,0,0,1,664.7,569a103.48,103.48,0,0,1-36.22,18.9,100,100,0,0,1-27.81,3.95,102.11,102.11,0,0,1-13.82-.95h-.18a29.29,29.29,0,0,1-8.79-1.63A101.88,101.88,0,0,1,547,576.56a107,107,0,0,1-30.29-28.11,112.67,112.67,0,0,1-18-38,115.27,115.27,0,0,1-2.84-43.84,113.65,113.65,0,0,1,13.61-41.56l.28-.5,0-.08h0A108.7,108.7,0,0,1,536.3,393.3a103.35,103.35,0,0,1,36.21-18.9c13.56-3.91,30.27-4.48,41.81-3s27.46,6.76,39.63,14.27a106.77,106.77,0,0,1,30.29,28.11,112.48,112.48,0,0,1,18,38A115.07,115.07,0,0,1,705.11,495.62ZM675.2,406.39c-1.55.38-5.44,2-11.84,5-8.21,4.55-18,11.36-31.26,22.74-12.49,10.66-47.23,50-63.43,61s-26,9.34-27.16,9.34c-1.3,0-2,0-2.74.71s.51,12.07,1.6,19.38a146.06,146.06,0,0,0,16.89,1.2c15.09.37,32.11-1.57,50-5.26,20.76-3.83,33.85-7.78,47.92-13.64a160.33,160.33,0,0,0,29.89-16c12.61-8.87,17.5-18.07,18.48-19.63-.45-7.25-1.59-11.7-3.45-18.77a109.75,109.75,0,0,0-24.87-46ZM614,373.8H614a42.52,42.52,0,0,0-10.19,1.27c-5.71,1.34-13,3.29-20,8.32-11.41,8.85-20.54,23.21-27.84,36.61-12.32,30.15-15,39.09-17.35,65.39-.11,4.9-.45,9.74,0,11.18s1.15,3.11,3.73,2.94,9.74-2.22,17.72-6.05,54.7-50.85,69.11-63.14c7.47-6.39,18.09-16.74,31.75-23A79.17,79.17,0,0,1,672,403a89.09,89.09,0,0,0-19.23-15.25A99.44,99.44,0,0,0,614,373.8ZM511.8,425.68a66.85,66.85,0,0,0-4.18,17.51c-1.09,9.86-.68,23.94,7,40.45,2.78,6,9.09,11.66,15.51,14.12,3.38,1.29,4.57-1,4.79-1.92s.23-8.13.46-13.16c.23-12.44,3.42-34.7,17.34-65.32,6.89-14.35,15.49-25.23,26-33.26,5.06-3.86,11.4-9.34,23.92-11.22-.77,0-1.54,0-2.31,0a97.91,97.91,0,0,0-27.2,3.87,101.19,101.19,0,0,0-35.43,18.49A106.45,106.45,0,0,0,511.8,425.68Zm-10.88,84.15a53.42,53.42,0,0,0,23.71,11.85c4.3,1.26,6.61,2.4,12.09,2.64a134.2,134.2,0,0,1-1.6-19.86,22.09,22.09,0,0,1-10.49-4.07c-6.39-3.59-9.59-7.9-12.78-13.88-7.9-17.07-7.63-33.49-6.49-43.7.24-2.16.55-4.16.9-6a113.74,113.74,0,0,0-5.34,73Zm17.64,36.34c1.28,1.75,2.19,2.71,3.56,4.36.88-1.53,1.82-2.87,5.9-4.43s12.35.61,13.72.13-1.37-1-3.88-18.67a109,109,0,0,1-14.6-3.11c-11.12-3.28-16.66-5.26-21-10.74A109.75,109.75,0,0,0,518.56,546.17Zm48.16,37.29s-5.09-2.88-7.41-5.31c-5.68-5.95-9.11-10.28-13.25-22.15a21,21,0,0,0-4.78-4.89c-1.82-1.19-3.88-1-11.63-.23-2.77,1.42-3.43,1.91-4.11,4.54A91.2,91.2,0,0,0,548.2,574.5C554.11,578.14,566.72,583.46,566.72,583.46Zm93.14-13.76a127.22,127.22,0,0,1-21.14,4.63,114.41,114.41,0,0,1-15.75-.26c-12.52-1-29-5.3-46.55-14.1a72.1,72.1,0,0,0-26.78-7.51c-.75-.06-1,1-.37,3.92,2.28,5,6.09,13,12.09,19.28A42.35,42.35,0,0,0,578.68,587c2.73.61,5.49,1.12,8.29,1.5a97.86,97.86,0,0,0,40.9-2.91A100.65,100.65,0,0,0,659.86,569.7Zm-36.43,1.51c19.17,1.92,31.49-1.43,41.69-5.66A106.53,106.53,0,0,0,689.54,536a111.07,111.07,0,0,0,13.31-40.66,114.35,114.35,0,0,0,.86-17.6c-1.79,3.77-7.3,10.92-16.85,17.65a151.2,151.2,0,0,1-29.43,16c-14.24,6-30.53,10.63-48.6,14.36a255.9,255.9,0,0,1-30.12,4.31c-1.46,0-20,0-21.45,0a140.23,140.23,0,0,1-15.75-1.2c1,6.1,3.42,17.71,3.88,17.95s17.87,2.62,32.63,10.05a261.54,261.54,0,0,0,30.79,12,28.86,28.86,0,0,0,5.65,1.27Z"/><path class="cls-2" d="M360.89,307.81c-1.13-2.68-2.37-5.41-1.9-8.62,1.67.57,2.1,2,2.9,3,.35.43.51.93,1.12.71s.45-.91.28-1.33A88.94,88.94,0,0,1,360,289.9c-2.07-8.26-4.31-16.48-7.07-24.53-1.5-4.38-3-8.89-5.64-12.68-5.58-7.95-10.85-16.12-16.76-23.86-6.12-8-11.35-16.71-18.52-24.7,13.61,1.49,26.84,1.59,39.66,5.23-3.64-1.76-7.19-3.72-11-4.86-10-3-20.27-4.37-30.6-5.49-.65-.07-1.35-.13-1.41-.82-.11-1.33.25-2.7-.36-4a8.45,8.45,0,0,1,3.5-.28l.9.08c2-.1,4,.35,5.92-.26l7.57-.21c1.25-.09,2.55.41,3.75-.32l6.17-.13a16.12,16.12,0,0,0,2.69,0c1.39-.21,3,.72,4.19-.62h0c.94-.65,2.28.08,3.13-.9-.51-.86-1.44-.54-2.18-.79-.85-.68-1.85-.27-2.78-.34h0l-5.35-.11c-1.31-.75-2.74-.22-4.1-.35-2,0-4.07.11-6.09,0a95.79,95.79,0,0,0-19.08,0,1.32,1.32,0,0,1-1.37-.56c-1-1.64-.85-3.72-1.92-5.36,0-.08.39-.66.68-.75,3.37-1.06,6.21-3.23,9.43-4.59s6.63-2.31,9.82-3.75c1.91-.86,4-1.23,5.78-2.46-10.1,2.24-20.38,3.58-30.19,7-.17-1.32.4-2.7-.38-4a17.75,17.75,0,0,1-.33-2.4c-.54-3.47-2.69-5.93-4.7-8.58-3.9-5.14-7.75-10.34-11.43-15.64-1.55-2.25-3.36-4.32-4.93-6.85,2.83,1.88,3.55-.87,4.35-2s-1-2-1.94-2.74a8.84,8.84,0,0,1-2.46-3.06,1.58,1.58,0,0,1,.15-1.83c.37-.6.88-.11,1.37-.06,1.62.17,3.1.1,4.08-1.67,1.5-2.74,3.24-5.34,4.88-8,1.11-.4.93-1.35.95-2.22a56.64,56.64,0,0,0,3.69-19.9,2.35,2.35,0,0,0,0-2.7h0L292,94.28h0c-.09-1.09.37-2.23-.33-3.25h0a39,39,0,0,0-1.58-9.42c-1.07-4-2.53-7.82-5.8-10.68-2-1.77-4-1.31-5.33.11-2.07,2.15-4.52,3.94-6.22,6.48-3.35,5-7.9,9.21-9.71,15.16-1.37,4.53-3,9-3.88,13.66-1,5.34-2.34,10.62-2.88,16.07-.19,1.89,0,2.49,1.56,2.94.9.25,2,.84,2,1.55,0,1-1.25,1.47-2.09,1.57-1.43.19-1.49,1-1.38,2a7.5,7.5,0,0,0,.53,2.57c.63,1.24.18,1.34-.93,1.35-2.38,0-4.72-.53-7.12-.56a91.66,91.66,0,0,1-9.75-1c-4.92-.6-9.85-1.51-14.78-1.57a124.69,124.69,0,0,0-21.11,1.75c-2.87.45-5.69,1.2-8.53,1.82l-2-.06c.4-1,1.48-1.45,2-2.34.22-.38.75-.76.38-1.3a1.05,1.05,0,0,0-1.38-.28c-1.37.57-2.93.63-4.19,1.5-.59.42-1.09.35-.88-.46.75-2.92.23-6,1.43-8.88.64-.68.3-1.52.36-2.29.07-5.3,1.68-10.45,1.46-15.78a1.73,1.73,0,0,0,0-2.24,30,30,0,0,0-2.11-11.29A79.18,79.18,0,0,0,180,74a11.06,11.06,0,0,0-3.76-3.2,9,9,0,0,0-11.92,4.11,117.47,117.47,0,0,0-7,18.82,113.13,113.13,0,0,0-3.42,17c-.44,3.15-.72,6.48.53,9.72A73.25,73.25,0,0,0,161.05,134c.64,1,.65,1.57-.33,2.13-.38.22-1.16-.19-1.07.74.06.7.5,1,1.13,1.17,1.3.44,2.55,1,3.84,1.5.73.27,1.59.69,1.64,1.32s-.81,1-1.48,1.32a20.17,20.17,0,0,0-4.22,2.32c-.47.41-1.49.49-1.21,1.3.18.48,1,.67,1.69.78,1.61.27,3.33.12,5.35,1.11a19.37,19.37,0,0,0-4.14,1.7,62.52,62.52,0,0,0-9.58,4.52c-2.68,1.69-3.28,3.16-2.56,5.78l.52.9a3.91,3.91,0,0,0-.84.26c-4.79,2.84-8.15,7.13-11.46,11.46-.35.33-.52.72-.15,1.1s.77.22,1.11-.11a1.42,1.42,0,0,1,1.46.24,10.67,10.67,0,0,0-1.53,1.36c-1.43,1.85-3.26,3.58-3.46,6-.18,2.06-1.15,2.4-2.88,2.22a63.19,63.19,0,0,1-12.09-2.34c-5.31-1.63-10.69-3-16.08-4.32-4.71-1.16-9.41-2.51-14.29-2.79-1,0-2.44-.56-2.61,1.24-.14,1.41.58,1.91,2,2.42,8.06,3.05,16.58,3.61,25,4.89,5.59.85,11.22,1.47,16.72,2.8.56.13,1.48,0,1.64.84a2.18,2.18,0,0,1-.83,1.94c-1.12,1.13-2.39,2.08-3.47,3.28-1.54,1.7-3.5,3.16-6.19,2.44-3.06-.82-6.24-.34-9.35-.86-4.54-.76-9.12-1.15-13.71-1.54-5.86-.5-11.7-1.31-17.59-1.58a4.43,4.43,0,0,0-3.18.74,9.61,9.61,0,0,0,2.76,1c4.37.55,8.71,1.26,13.08,1.71,3.37.35,6.69,1.2,10,1.36,6.26.29,12.39,1.73,18.65,2,1.32,0,3.08.61,3,2.29s.28,3.44-.34,5.1c-.24.64.05,1.23-.6,2-2.66,3.18-6.13,3.3-9.75,3.24-1.29.09-2.63-.43-3.86.33a22.11,22.11,0,0,1-5.79.56c-.79,0-1.63-.28-2.34.31l-9.78,1.07c-.82,0-1.69-.33-2.43.33-3.54.62-7.07,1.31-10.62,1.84a2.16,2.16,0,0,0-2.07,1.77c2.15,0,4.17.15,6.16,0,5.55-.5,11.09-1.1,16.63-1.72,2.93-.33,5.86-.76,8.78-1.15a52.53,52.53,0,0,1,11.7-.55,7.07,7.07,0,0,1-1.23,2.47,54.94,54.94,0,0,1-7.79,6.91c-3.32,2.39-7,4.32-7.79,9-.15.89.27,2.56-.52,2.63-2.2.19-3.34,1.88-4.91,2.88-4.52,2.86-8.76,6.16-9.88,11.78-1.49,7.46-5.44,13.53-9.93,19.43-1.15,1.51-2.65,2.81-3.1,5a39.38,39.38,0,0,0-.8,10.93c.14,1.74.29,3.56-.85,5.15A27.09,27.09,0,0,0,72.68,293c-2.62,6.07-5,12.24-4.7,19,.22,4.86-.81,9.48-1.93,14.08a37.61,37.61,0,0,0-.21,14.83c1,6.36,3,12.47,5.13,18.54a117.21,117.21,0,0,0,7.69,18.06c1.4,2.54,2.56,5.4,6,6.29,1.91.49,1.76,2.49,1.21,3.77-1,2.36-.46,4.84-1,7.21-.07.32-.45,1,.2,1.12s.82-.34,1-.92c.64-2.33,1.32-4.65,2.08-6.94.32-1-.44-2.74.77-2.73,1.38,0,1,2,1.63,3.07.07.11,0,.31,0,.45.78,2.92,1.56,5.85,2.42,9.05,1.72-2.13,1.09-4.6,2-6.7A3.75,3.75,0,0,1,96,394c.45,4.51,1.15,9,1.46,13.52.33,4.81,3.23,8.87,4.7,13.37.32,1,.65,2.75,2.06,2.51,1.12-.19.56-1.82.86-2.78,0-.11.21-.17.42-.33a2.39,2.39,0,0,1,.86,1.85c0,.79-.28,1.62.34,2.33a44.92,44.92,0,0,0,2,11.4c.92-.46.76-1,.84-1.51.17-1.05-1.37-2.41-.13-2.93.92-.37,1.18,1.52,1.86,2.31,4.16,4.88,8.2,9.87,12,15.06-1.19,2.15-.24,3.53,2.55,3.68l1,0c1.45,1,2.39,2.56,3.6,3.82,3.41,3.53,7.14,6.59,11.86,8.28,4.38,1.57,8.81.55,13.11,0A85.68,85.68,0,0,0,176,459.35c2.53-1,4.76-2.06,6-4.71.69-1.45,2-2.59,3-3.9a1.58,1.58,0,0,1,2-.48,18.29,18.29,0,0,0,7.85,1.18c2.68-.07,5.45-.35,8,.17,4.76,1,9.37,2.59,14.11,3.68,3.41.78,6.88,1.8,10.46.75,1-.29,1.88-.71,1.76-1.94s.56-1.52,1.64-1.28c4.92,1.14,9.94.94,14.93,1a3.63,3.63,0,0,0,2.67-.81,17.8,17.8,0,0,1,2.87-1.54c.62-.35,1.46-2.15,2.35-.15a18.92,18.92,0,0,0,1.52,2.89c.5.73,1.35,1.22,1.86,1.94,4.69,6.6,11.38,8.82,19.05,8.42a83.72,83.72,0,0,0,12.28-1.77c5.4-1.1,10.47-2.79,14.64-6.92,3.45-3.42,6.88-6.71,9.45-10.9,2.77-4.52,5.31-9.09,6.22-14.4.14-.82.26-1.72,1.14-2,2.8-.95,5.12-2.28,6.58-5.14.71-1.4,1.07-2.26.16-3.58a2.39,2.39,0,0,1-.18-2.88c1.8-2.65,2.32-5.77,3.11-8.78.6-2.27,1.51-4.68,1.21-6.88-.26-1.9-.09-2.74,1.44-3.79,1.17-.8,1.25-.45,1.59.55.44,1.32,1,2.58,1.77,4.38,1.41-4.19.34-8.3,2.41-11.84.5,1.3,0,3.36,1.6,3.44s1.25-2,1.75-3.16a6.28,6.28,0,0,0,.46-3,3.51,3.51,0,0,1,1.17-2.75c1.84-2,3.71-3.9,5.46-5.93a12.51,12.51,0,0,0,3-6c.37-2,.11-4.1,1-6.1,2.72-6.3,5.26-12.67,7.78-19a65.75,65.75,0,0,0,4.6-20.57A43.87,43.87,0,0,0,360.89,307.81Z"/></g></g></g></svg>