<svg xmlns="http://www.w3.org/2000/svg" viewBox="0 0 800 668.49"><defs><style>.cls-1,.cls-3{fill:#fac5d3;}.cls-2{fill:#ffd6e7;}.cls-3{stroke:#fac5d3;stroke-miterlimit:10;stroke-width:4px;}</style></defs><g id="レイヤー_2" data-name="レイヤー 2"><g id="背景素材"><g id="ボールとサクランボ"><rect class="cls-1" width="800" height="668.49"/><path class="cls-2" d="M399.64,127.1C316.73,82.41,271,129.91,264.54,141l-.31.16c-9.56-66.22-77.32-73.71-110.87-72.31,7.1,80.64,98.62,76.64,103.22,76.39-14.67,8.09-36.39,21.65-54.76,39.57-9.91,9.67-17.7,19.52-23.17,29.28-6,10.7-9.26,21.42-9.7,31.88a54.28,54.28,0,1,0,3.5.66c.33-10.06,3.45-20.42,9.27-30.82,5.31-9.46,12.9-19,22.56-28.47,20-19.48,44-33.77,58.28-41.33-1.72,15-.91,35.8,2.2,54.18,5.17,30.65,14.74,46.6,22.37,54.77a54.37,54.37,0,1,0,3.56-1.39c-13.26-13.28-19.53-36.63-22.46-54-3.64-21.58-3.49-41.4-2.16-53.27C332.08,185.22,385.38,149.77,399.64,127.1Z"/><ellipse class="cls-2" cx="583.74" cy="479.56" rx="114.54" ry="119.01"/><path class="cls-3" d="M698.12,495.08a124,124,0,0,1-14.85,45.36A118.65,118.65,0,0,1,654,575.11a112.74,112.74,0,0,1-39.52,20.63,109.23,109.23,0,0,1-30.36,4.31A111.23,111.23,0,0,1,569,599h-.19a32.07,32.07,0,0,1-9.6-1.78,111.35,111.35,0,0,1-33.66-13.81,116.9,116.9,0,0,1-33.06-30.69,122.91,122.91,0,0,1-19.68-41.46,125.87,125.87,0,0,1-3.1-47.85,124.08,124.08,0,0,1,14.85-45.36l.31-.54,0-.1h0a118.52,118.52,0,0,1,28.91-34,112.53,112.53,0,0,1,39.53-20.63c14.79-4.28,33-4.9,45.63-3.26s30,7.38,43.26,15.57a116.75,116.75,0,0,1,33.06,30.69A123,123,0,0,1,695,447.22,125.93,125.93,0,0,1,698.12,495.08Zm-32.65-97.4c-1.69.41-5.94,2.23-12.92,5.44-9,5-19.61,12.4-34.12,24.81-13.64,11.64-51.56,54.59-69.24,66.6s-28.4,10.19-29.64,10.19c-1.42,0-2.24,0-3,.78s.55,13.18,1.74,21.16a161,161,0,0,0,18.43,1.3c16.48.4,35-1.71,54.55-5.74,22.66-4.18,36.94-8.49,52.3-14.89a173.8,173.8,0,0,0,32.63-17.5c13.77-9.67,19.1-19.72,20.17-21.41-.49-7.93-1.74-12.78-3.76-20.5a120.24,120.24,0,0,0-19.25-40.56A118.06,118.06,0,0,0,665.47,397.68ZM598.69,362.1h-.07a46.49,46.49,0,0,0-11.12,1.39c-6.24,1.46-14.15,3.6-21.88,9.08-12.45,9.67-22.41,25.34-30.38,40-13.45,32.91-16.34,42.68-18.93,71.38-.13,5.35-.5,10.63,0,12.2s1.24,3.4,4.07,3.21,10.62-2.43,19.34-6.61,59.7-55.5,75.43-68.91c8.15-7,19.75-18.27,34.66-25.11A88.12,88.12,0,0,1,662,394a97.3,97.3,0,0,0-21-16.65A108.63,108.63,0,0,0,598.69,362.1ZM487.11,418.74a73.2,73.2,0,0,0-4.56,19.11c-1.19,10.76-.73,26.12,7.61,44.15,3,6.59,9.93,12.72,16.93,15.41,3.69,1.41,5-1.05,5.23-2.09s.25-8.88.5-14.37c.25-13.58,3.74-37.87,18.93-71.3,7.52-15.66,16.9-27.53,28.39-36.3,5.53-4.22,12.46-10.19,26.12-12.25q-1.26,0-2.52,0a106.61,106.61,0,0,0-29.69,4.21,110.4,110.4,0,0,0-38.68,20.19A116.14,116.14,0,0,0,487.11,418.74Zm-11.86,91.85a58.26,58.26,0,0,0,25.87,12.93c4.69,1.38,7.22,2.62,13.2,2.88a145.89,145.89,0,0,1-1.75-21.68,24.07,24.07,0,0,1-11.45-4.44c-7-3.92-10.46-8.62-13.95-15.15-8.62-18.63-8.33-36.56-7.08-47.69.26-2.36.6-4.54,1-6.54a124,124,0,0,0-5.82,79.69Zm19.25,39.66c1.4,1.92,2.38,3,3.88,4.76,1-1.67,2-3.13,6.44-4.83s13.48.66,15,.13-1.5-1-4.24-20.37a121.14,121.14,0,0,1-15.94-3.39c-12.13-3.59-18.18-5.75-22.91-11.73A119.76,119.76,0,0,0,494.5,550.25ZM547.06,591s-5.56-3.14-8.09-5.79c-6.2-6.49-9.94-11.22-14.46-24.18a22.9,22.9,0,0,0-5.21-5.33c-2-1.31-4.24-1-12.7-.26-3,1.55-3.74,2.09-4.49,5a99.57,99.57,0,0,0,24.73,20.82C533.29,585.15,547.06,591,547.06,591Zm101.67-15a139.18,139.18,0,0,1-23.08,5,124.27,124.27,0,0,1-17.19-.27c-13.66-1.06-31.69-5.79-50.81-15.4a78.7,78.7,0,0,0-29.23-8.2c-.82-.06-1.15,1.15-.4,4.28,2.49,5.49,6.65,14.17,13.19,21.05a46.12,46.12,0,0,0,18.9,12.32c3,.67,6,1.22,9.06,1.65a106.78,106.78,0,0,0,44.64-3.19A110,110,0,0,0,648.73,575.94ZM609,577.59c20.92,2.09,34.37-1.57,45.51-6.18a116.44,116.44,0,0,0,26.65-32.29,121.19,121.19,0,0,0,14.53-44.39,125.06,125.06,0,0,0,.94-19.2c-2,4.12-8,11.91-18.39,19.26a165.41,165.41,0,0,1-32.13,17.5c-15.54,6.49-33.32,11.6-53.05,15.67a275,275,0,0,1-32.88,4.7c-1.58,0-21.85,0-23.41,0a150.91,150.91,0,0,1-17.18-1.3c1.09,6.66,3.73,19.33,4.23,19.59s19.5,2.86,35.62,11A282.72,282.72,0,0,0,593,575a31.28,31.28,0,0,0,6.17,1.39Z"/></g></g></g></svg>