<?xml version="1.0" encoding="utf-8"?>
<!-- Generator: Adobe Illustrator 26.0.0, SVG Export Plug-In . SVG Version: 6.00 Build 0)  -->
<svg version="1.1" id="レイヤー_1" xmlns="http://www.w3.org/2000/svg" xmlns:xlink="http://www.w3.org/1999/xlink" x="0px"
	 y="0px" viewBox="0 0 800 668.5" style="enable-background:new 0 0 800 668.5;" xml:space="preserve">
<style type="text/css">
	.st0{fill:#FAC5D3;}
	.st1{fill:#FFD6E7;}
	.st2{fill:#FAC5D3;stroke:#FAC5D3;stroke-width:4;stroke-miterlimit:10;}
</style>
<rect class="st0" width="800" height="668.5"/>
<path class="st1" d="M399.6,127.1C316.7,82.4,271,129.9,264.5,141l-0.3,0.2c-9.6-66.2-77.3-73.7-110.9-72.3
	c7.1,80.6,98.6,76.6,103.2,76.4c-14.7,8.1-36.4,21.6-54.8,39.6c-9.9,9.7-17.7,19.5-23.2,29.3c-6,10.7-9.3,21.4-9.7,31.9
	c-29.6-4.6-57.4,15.7-61.9,45.3s15.7,57.4,45.3,61.9c29.6,4.6,57.4-15.7,61.9-45.3c4.4-28.3-13.9-55.1-41.8-61.3
	c0.3-10.1,3.4-20.4,9.3-30.8c5.3-9.5,12.9-19,22.6-28.5c20-19.5,44-33.8,58.3-41.3c-1.7,15-0.9,35.8,2.2,54.2
	c5.2,30.6,14.7,46.6,22.4,54.8c-27.6,11.9-40.3,43.9-28.4,71.5c11.9,27.6,43.9,40.3,71.5,28.4c27.6-11.9,40.3-43.9,28.4-71.5
	c-11.3-26.2-41-39.2-67.9-29.8c-13.3-13.3-19.5-36.6-22.5-54c-3.6-21.6-3.5-41.4-2.2-53.3C332.1,185.2,385.4,149.8,399.6,127.1z"/>
<ellipse class="st1" cx="583.7" cy="479.6" rx="114.5" ry="119"/>
<path class="st2" d="M698.1,495.1c-2,15.9-7,31.3-14.8,45.4c-7.4,13.3-17.4,25.1-29.3,34.7c-11.7,9.4-25.1,16.5-39.5,20.6
	c-9.9,2.9-20.1,4.3-30.4,4.3c-5.1,0-10.1-0.4-15.1-1h-0.2c-3.3-0.1-6.5-0.7-9.6-1.8c-11.9-2.7-23.3-7.4-33.7-13.8
	c-12.9-8-24.1-18.4-33.1-30.7c-9.1-12.5-15.8-26.5-19.7-41.5c-4.1-15.6-5.1-31.8-3.1-47.9c2-15.9,7-31.3,14.9-45.4l0.3-0.5v-0.1l0,0
	c7.4-13.1,17.2-24.6,28.9-34c11.7-9.4,25.1-16.5,39.5-20.6c14.8-4.3,33-4.9,45.6-3.3s30,7.4,43.3,15.6c12.9,8,24.1,18.4,33.1,30.7
	c9.1,12.5,15.8,26.5,19.7,41.4C699.1,462.8,700.2,479.1,698.1,495.1z M665.5,397.7c-1.7,0.4-5.9,2.2-12.9,5.4
	c-9,5-19.6,12.4-34.1,24.8c-13.6,11.6-51.6,54.6-69.2,66.6s-28.4,10.2-29.6,10.2c-1.4,0-2.2,0-3,0.8s0.5,13.2,1.7,21.2
	c6.1,0.8,12.3,1.2,18.4,1.3c16.5,0.4,35-1.7,54.5-5.7c22.7-4.2,36.9-8.5,52.3-14.9c11.5-4.7,22.4-10.5,32.6-17.5
	c13.8-9.7,19.1-19.7,20.2-21.4c-0.5-7.9-1.7-12.8-3.8-20.5c-3.8-14.6-10.3-28.4-19.2-40.6C670.9,404,668.3,400.8,665.5,397.7z
	 M598.7,362.1L598.7,362.1c-3.8,0-7.6,0.5-11.2,1.4c-6.2,1.5-14.2,3.6-21.9,9.1c-12.5,9.7-22.4,25.3-30.4,40
	c-13.5,32.9-16.3,42.7-18.9,71.4c-0.1,5.4-0.5,10.6,0,12.2s1.2,3.4,4.1,3.2s10.6-2.4,19.3-6.6s59.7-55.5,75.4-68.9
	c8.2-7,19.8-18.3,34.7-25.1c3.9-1.9,8-3.5,12.2-4.7c-6.2-6.5-13.3-12.1-21-16.6C628.1,369.4,613.7,364.2,598.7,362.1z M487.1,418.7
	c-2.4,6.1-3.9,12.6-4.6,19.1c-1.2,10.8-0.7,26.1,7.6,44.1c3,6.6,9.9,12.7,16.9,15.4c3.7,1.4,5-1,5.2-2.1s0.2-8.9,0.5-14.4
	c0.2-13.6,3.7-37.9,18.9-71.3c7.5-15.7,16.9-27.5,28.4-36.3c5.5-4.2,12.5-10.2,26.1-12.2c-0.8,0-1.7,0-2.5,0c-10,0-20,1.4-29.7,4.2
	c-14.1,4.1-27.3,11-38.7,20.2C503.9,394.7,494.3,406,487.1,418.7z M475.2,510.6c7.4,6.4,16.3,10.9,25.9,12.9
	c4.7,1.4,7.2,2.6,13.2,2.9c-1.1-7.2-1.7-14.4-1.8-21.7c-4.1-0.5-8.1-2-11.5-4.4c-7-3.9-10.5-8.6-14-15.1
	c-8.6-18.6-8.3-36.6-7.1-47.7c0.3-2.4,0.6-4.5,1-6.5C470.4,456.1,468.4,484.1,475.2,510.6L475.2,510.6z M494.5,550.2
	c1.4,1.9,2.4,3,3.9,4.8c1-1.7,2-3.1,6.4-4.8s13.5,0.7,15,0.1s-1.5-1-4.2-20.4c-5.4-0.8-10.7-1.9-15.9-3.4
	c-12.1-3.6-18.2-5.8-22.9-11.7C480.6,527.5,486.6,539.5,494.5,550.2z M547.1,591c0,0-5.6-3.1-8.1-5.8c-6.2-6.5-9.9-11.2-14.5-24.2
	c-1.4-2-3.2-3.8-5.2-5.3c-2-1.3-4.2-1-12.7-0.3c-3,1.5-3.7,2.1-4.5,5c7.1,8.2,15.4,15.3,24.7,20.8C533.3,585.2,547.1,591,547.1,591z
	 M648.7,576c-7.5,2.3-15.3,4-23.1,5c-5.7,0.3-11.5,0.2-17.2-0.3c-13.7-1.1-31.7-5.8-50.8-15.4c-9.1-4.6-19-7.4-29.2-8.2
	c-0.8-0.1-1.2,1.2-0.4,4.3c2.5,5.5,6.7,14.2,13.2,21c5.2,5.6,11.7,9.8,18.9,12.3c3,0.7,6,1.2,9.1,1.7c14.9,2.1,30.2,1,44.6-3.2
	C626.4,589.6,638.2,583.7,648.7,576L648.7,576z M609,577.6c20.9,2.1,34.4-1.6,45.5-6.2c10.8-9.1,19.8-20,26.7-32.3
	c7.7-13.7,12.6-28.8,14.5-44.4c0.8-6.4,1.1-12.8,0.9-19.2c-2,4.1-8,11.9-18.4,19.3c-10,7-20.8,12.9-32.1,17.5
	c-15.5,6.5-33.3,11.6-53,15.7c-10.9,2.2-21.8,3.8-32.9,4.7c-1.6,0-21.8,0-23.4,0c-5.7-0.1-11.5-0.5-17.2-1.3
	c1.1,6.7,3.7,19.3,4.2,19.6s19.5,2.9,35.6,11c10.9,5.1,22.1,9.4,33.6,13c2,0.7,4.1,1.1,6.2,1.4L609,577.6z"/>
</svg>
