<?xml version="1.0" encoding="utf-8"?>
<!-- Generator: Adobe Illustrator 25.4.1, SVG Export Plug-In . SVG Version: 6.00 Build 0)  -->
<svg version="1.1" id="レイヤー_1" xmlns="http://www.w3.org/2000/svg" xmlns:xlink="http://www.w3.org/1999/xlink" x="0px"
	 y="0px" viewBox="0 0 800 668.5" style="enable-background:new 0 0 800 668.5;" xml:space="preserve">
<style type="text/css">
	.st0{fill:#FFD4D1;}
	.st1{fill:#FFB8B8;}
	.st2{fill:#FFD4D1;stroke:#FFD4D1;stroke-width:4;stroke-miterlimit:10;}
</style>
<rect class="st0" width="800" height="668.5"/>
<path class="st1" d="M309.4,425.2c63.1,24.1,126.3,48.1,189.5,72.1c6.9,2.8,12.6,2.8,3.3-3.3c-31.4-24.9-68.1-40.7-102.5-60.4
	c-39.9-23-80.4-45-120.7-67.2c-2.5-1.4-4.8-4.6-9.8-1.9c11.3,18.9,22.4,37.6,33.8,56.3C304.6,422.9,306.8,424.4,309.4,425.2z"/>
<path class="st1" d="M208.7,359.9c-4,8.9-1.4,15.5,4.7,23c61.8,75.9,123.6,151.9,185.3,227.9c3.5,4.3,6.5,8.8,15.6,10.7
	c-8-13.6-14.6-25.1-21.5-36.6c-50.5-84-101.2-167.8-151.3-252c-12-20.2-21.9-41.6-33-62.2c-5.3-9.8-1.6-18.3,2.3-27.1
	c6.9-15.7,14.6-31.2,8.7-49.4c-2.3-7.3-5.7-14.2-10.1-20.5c-15.3-21.2-14.4-39.2,2.7-58.7c2.7-3.1,7.9-5.1,5.9-12
	c-17,7-27.3,20.1-35.1,35.5c-4.4,8.6-9.1,13-20.4,12.9c-29.4-0.3-51.1,32.5-43.9,65.3c5.3,23.8,18.8,41.7,44,45.8
	c20,3.2,30.3,14.7,40.1,31.4C215.7,315.8,219,336.8,208.7,359.9z M172.8,246.9c-21.7,0.1-40.3-18.7-40.5-40.8
	c-0.2-20,15.1-36.2,34.1-36.2c22.1,0,40.3,16.6,40.7,37.1C207.5,227.6,190.9,246.9,172.8,246.9z M225.5,369.2c0-4.8,3.3-8.7,8.6-8.4
	c0.5,0,1,0.1,1.4,0.1c4.2,0.8,7,5,6.1,9.2c-0.6,4.2-3.4,7.4-7.9,6.8C228,376.9,225.4,373.3,225.5,369.2z"/>
<path class="st1" d="M27.4,362c11.2,22.1,34.9,32.2,59.9,24.5c10.7-3.6,21.1-8,31-13.3c8.1-4.2,17.4-5.4,26.2-3.2
	c18.9,4.1,38.1,6.6,59.5,13.8c-12.6-13.6,0.7-24.4-1.4-36.5c-4.6,1.6-9.1,2.5-12.8,4.8c-18.2,11.1-34.9,0.9-52-3.2
	c-1.3-0.4-2.4-1.2-3.2-2.3c-11.2-19.5-22.4-39-33.3-58.7c-1.1-2,0-5.3-0.2-7.9c-0.3-3.6,5.3-7.2,0-10.8c-3.9-2.7-9.3-2.3-12.7,1.1
	c-14.2,13.2-32.7,19-48.5,29.3C21.1,312,16.5,340.6,27.4,362z M38.1,337c-0.4-17,16-32.3,35-32.6c20.2-0.3,38.7,15.6,39.3,33.8
	c0.6,17.9-15.4,34-34.6,34.9C56.7,374.1,38.6,357.6,38.1,337z"/>
<ellipse class="st1" cx="557" cy="243.5" rx="115.3" ry="119.8"/>
<path class="st2" d="M672.1,259.1c-2,16-7.1,31.5-14.9,45.6c-7.5,13.4-17.5,25.3-29.5,34.9c-11.7,9.5-25.3,16.6-39.8,20.8
	c-9.9,2.9-20.2,4.3-30.5,4.3c-5.1,0-10.2-0.3-15.2-1H542c-3.3-0.1-6.6-0.7-9.7-1.8c-12-2.8-23.4-7.5-33.9-13.9
	c-13-8-24.3-18.5-33.3-30.9c-9.2-12.5-15.9-26.7-19.8-41.7c-4.1-15.7-5.2-32.1-3.1-48.2c2-16,7.1-31.5,14.9-45.6l0.3-0.5V181l0,0
	c7.4-13.2,17.3-24.8,29.1-34.3c11.7-9.5,25.3-16.6,39.8-20.8c14.9-4.3,33.2-4.9,45.9-3.3s30.2,7.4,43.5,15.7
	c13,8,24.3,18.5,33.3,30.9c9.2,12.5,15.9,26.7,19.9,41.7C673.1,226.6,674.1,243,672.1,259.1z M639.2,161.1c-1.7,0.4-6,2.2-13,5.5
	c-9,5-19.7,12.5-34.3,25c-13.7,11.7-51.9,54.9-69.7,67s-28.6,10.2-29.8,10.2c-1.4,0-2.2,0-3,0.8s0.6,13.3,1.8,21.3
	c6.2,0.8,12.3,1.2,18.5,1.3c16.6,0.4,35.3-1.7,54.9-5.8c22.8-4.2,37.2-8.5,52.6-15c11.5-4.7,22.5-10.6,32.8-17.6
	c13.9-9.7,19.2-19.9,20.3-21.6c-0.5-8-1.8-12.9-3.8-20.6c-3.8-14.7-10.4-28.6-19.4-40.8C644.7,167.4,642,164.2,639.2,161.1
	L639.2,161.1z M572,125.3L572,125.3c-3.8,0-7.6,0.5-11.3,1.4c-6.3,1.5-14.2,3.6-22,9.1c-12.5,9.7-22.6,25.5-30.6,40.2
	c-13.5,33.1-16.4,42.9-19,71.8c-0.1,5.4-0.5,10.7,0,12.3s1.3,3.4,4.1,3.2s10.7-2.4,19.5-6.6s60.1-55.9,75.9-69.4
	c8.2-7,19.9-18.4,34.9-25.3c4-1.9,8.1-3.5,12.3-4.7c-6.2-6.5-13.3-12.2-21.1-16.8C601.7,132.6,587.1,127.3,572,125.3z M459.7,182.3
	c-2.4,6.2-3.9,12.6-4.6,19.2c-1.2,10.8-0.7,26.3,7.7,44.4c3.1,6.6,10,12.8,17,15.5c3.7,1.4,5-1,5.3-2.1s0.2-8.9,0.5-14.5
	c0.3-13.7,3.8-38.1,19-71.8c7.6-15.8,17-27.7,28.6-36.5c5.6-4.2,12.5-10.2,26.3-12.3c-0.8,0-1.7,0-2.5,0c-10.1,0-20.2,1.4-29.9,4.2
	c-14.2,4.1-27.4,11-38.9,20.3C476.6,158.1,467,169.4,459.7,182.3L459.7,182.3z M447.8,274.7c7.4,6.4,16.4,10.9,26,13
	c4.7,1.4,7.3,2.6,13.3,2.9c-1.1-7.2-1.7-14.5-1.8-21.8c-4.2-0.5-8.1-2-11.5-4.5c-7-3.9-10.5-8.7-14-15.2c-8.7-18.8-8.4-36.8-7.1-48
	c0.3-2.4,0.6-4.6,1-6.6C442.9,219.8,440.9,248,447.8,274.7L447.8,274.7z M467.1,314.6c1.4,1.9,2.4,3,3.9,4.8c1-1.7,2-3.2,6.5-4.9
	s13.6,0.7,15.1,0.1s-1.5-1.1-4.3-20.5c-5.4-0.8-10.7-1.9-16-3.4c-12.2-3.6-18.4-5.8-23.1-11.8C453.2,291.8,459.3,303.8,467.1,314.6
	L467.1,314.6z M520,355.6c0,0-5.6-3.2-8.1-5.8c-6.2-6.5-10-11.3-14.5-24.3c-1.5-2.1-3.2-3.9-5.2-5.4c-2-1.3-4.3-1-12.8-0.3
	c-3,1.6-3.8,2.1-4.5,5c7.1,8.3,15.5,15.4,24.9,21C506.2,349.7,520,355.6,520,355.6L520,355.6z M622.4,340.5
	c-7.6,2.3-15.3,4-23.2,5.1c-5.8,0.3-11.5,0.2-17.3-0.3c-13.8-1.1-31.9-5.8-51.1-15.5c-9.2-4.6-19.2-7.4-29.4-8.2
	c-0.8-0.1-1.2,1.1-0.4,4.3c2.5,5.5,6.7,14.2,13.3,21.2c5.2,5.6,11.7,9.9,19,12.4c3,0.7,6,1.2,9.1,1.6c15,2.1,30.3,1,44.9-3.2
	C599.9,354.2,611.8,348.3,622.4,340.5L622.4,340.5z M582.4,342.2c21,2.1,34.6-1.6,45.8-6.2c10.8-9.1,19.9-20.2,26.9-32.5
	c7.7-13.8,12.7-29,14.6-44.7c0.8-6.4,1.1-12.9,1-19.3c-2,4.1-8,12-18.5,19.4c-10.1,7-20.9,13-32.3,17.6
	c-15.6,6.5-33.5,11.7-53.4,15.8c-10.9,2.2-22,3.8-33.1,4.7c-1.6,0-22,0-23.6,0c-5.8-0.1-11.6-0.5-17.3-1.3
	c1.1,6.7,3.8,19.5,4.3,19.7s19.6,2.9,35.8,11c11,5.1,22.3,9.5,33.8,13.2c2,0.7,4.1,1.1,6.2,1.4L582.4,342.2z"/>
</svg>
