<svg xmlns="http://www.w3.org/2000/svg" viewBox="0 0 800 668.49"><defs><style>.cls-1,.cls-3{fill:#afc4ed;}.cls-2{fill:#c8d9fa;}.cls-3{stroke:#afc4ed;stroke-miterlimit:10;stroke-width:4px;}</style></defs><g id="レイヤー_2" data-name="レイヤー 2"><g id="パターン"><g id="ボールとコーラ_青_" data-name="ボールとコーラ（青）"><rect class="cls-1" width="800" height="668.49"/><ellipse class="cls-2" cx="574.23" cy="218.16" rx="115.27" ry="119.77"/><path class="cls-3" d="M689.34,233.77a124.77,124.77,0,0,1-14.94,45.65,119.47,119.47,0,0,1-29.46,34.89,113.46,113.46,0,0,1-39.78,20.77,109.75,109.75,0,0,1-30.55,4.34,111,111,0,0,1-15.18-1.05h-.19a32.41,32.41,0,0,1-9.66-1.8,111.93,111.93,0,0,1-33.88-13.9,117.51,117.51,0,0,1-33.27-30.88,123.59,123.59,0,0,1-19.8-41.72,126.49,126.49,0,0,1-3.12-48.16,124.89,124.89,0,0,1,14.94-45.65l.31-.54.05-.1h0a119.25,119.25,0,0,1,29.08-34.26,113.61,113.61,0,0,1,39.78-20.76c14.9-4.3,33.25-4.93,45.93-3.28s30.16,7.43,43.53,15.67a117.58,117.58,0,0,1,33.28,30.89,123.54,123.54,0,0,1,19.8,41.71A126.49,126.49,0,0,1,689.34,233.77Zm-32.86-98c-1.7.42-6,2.24-13,5.48-9,5-19.73,12.47-34.34,25-13.73,11.71-51.89,54.93-69.68,67s-28.58,10.25-29.83,10.25c-1.43,0-2.26,0-3,.79s.56,13.26,1.76,21.29a162.71,162.71,0,0,0,18.55,1.32c16.58.4,35.27-1.73,54.89-5.79,22.81-4.2,37.18-8.54,52.63-15a174.83,174.83,0,0,0,32.84-17.61c13.86-9.73,19.22-19.85,20.3-21.55-.49-8-1.75-12.86-3.79-20.63a120.44,120.44,0,0,0-27.32-50.56ZM589.28,100h-.07a47.16,47.16,0,0,0-11.2,1.39c-6.27,1.48-14.24,3.63-22,9.15-12.53,9.72-22.56,25.49-30.58,40.21-13.53,33.12-16.44,42.95-19,71.83-.13,5.38-.5,10.7,0,12.28s1.26,3.42,4.1,3.23,10.69-2.44,19.46-6.65S590,175.53,605.84,162c8.21-7,19.88-18.38,34.88-25.26A87.62,87.62,0,0,1,653,132a97.69,97.69,0,0,0-21.13-16.75A109.11,109.11,0,0,0,589.28,100ZM477,156.94a73.57,73.57,0,0,0-4.59,19.23c-1.2,10.84-.74,26.3,7.65,44.44,3.07,6.63,10,12.8,17.05,15.5,3.71,1.43,5-1.05,5.26-2.1s.25-8.94.5-14.46c.25-13.66,3.76-38.11,19-71.75,7.57-15.76,17-27.71,28.58-36.54C556,107,563,101,576.77,98.94c-.85,0-1.69,0-2.54,0a107.28,107.28,0,0,0-29.88,4.24,110.94,110.94,0,0,0-38.92,20.32A116.8,116.8,0,0,0,477,156.94Zm-11.94,92.44a58.62,58.62,0,0,0,26,13c4.73,1.38,7.27,2.63,13.29,2.89a146.22,146.22,0,0,1-1.76-21.82A24.34,24.34,0,0,1,491.08,239c-7-3.95-10.52-8.68-14-15.25-8.68-18.75-8.38-36.79-7.13-48,.27-2.37.61-4.57,1-6.57a124.7,124.7,0,0,0-5.86,80.19Zm19.37,39.92c1.41,1.92,2.4,3,3.91,4.79,1-1.68,2-3.15,6.48-4.87s13.57.66,15.07.14-1.5-1.05-4.26-20.5a122.3,122.3,0,0,1-16-3.42c-12.21-3.61-18.3-5.78-23.06-11.8A120.81,120.81,0,0,0,484.42,289.3Zm52.9,40.95s-5.6-3.16-8.14-5.82c-6.24-6.54-10-11.29-14.56-24.34a22.94,22.94,0,0,0-5.24-5.36c-2-1.32-4.26-1.05-12.78-.27-3,1.57-3.76,2.11-4.51,5a100.21,100.21,0,0,0,24.88,21C523.46,324.42,537.32,330.25,537.32,330.25Zm102.31-15.11a139.88,139.88,0,0,1-23.22,5.08,121.25,121.25,0,0,1-17.3-.28c-13.75-1.06-31.89-5.81-51.13-15.49a79.12,79.12,0,0,0-29.42-8.25c-.83-.07-1.16,1.16-.41,4.31,2.51,5.52,6.7,14.25,13.28,21.18a46.46,46.46,0,0,0,19,12.4c3,.67,6,1.23,9.12,1.65a107.49,107.49,0,0,0,44.93-3.2A110.58,110.58,0,0,0,639.63,315.14Zm-40,1.67c21.06,2.1,34.59-1.58,45.8-6.22a117.33,117.33,0,0,0,26.83-32.5,122,122,0,0,0,14.61-44.66,125.62,125.62,0,0,0,.95-19.34c-2,4.15-8,12-18.51,19.4A166.89,166.89,0,0,1,637,251.1c-15.64,6.53-33.53,11.66-53.39,15.77a279.27,279.27,0,0,1-33.08,4.73c-1.6,0-22,0-23.56,0a152.79,152.79,0,0,1-17.3-1.32c1.1,6.71,3.76,19.45,4.26,19.72s19.63,2.88,35.84,11a285.83,285.83,0,0,0,33.82,13.18,31.83,31.83,0,0,0,6.21,1.39Z"/><path class="cls-2" d="M248.77,355.48c15.59.3,31.18.51,46.74,1.76,1.47.11,2.92.37,4.39.5s2.29,1.2,3,2.35c2.88,4.55,5.81,9.09,8.63,13.68a2.92,2.92,0,0,0,2.86,1.6c4.43-.08,8.83.44,13.24.78,1.62.12,2,.85,2,2.27-.05,2.6,0,5.2-.05,7.8,0,1.28.17,1.83,1.66,1.84,3.93,0,7.85.31,11.79.38,1.41,0,2,.41,2,1.93-.11,3.51-.11,7,0,10.54,0,1.26-.48,1.49-1.59,1.49-4.22,0-8.43.16-12.65.16-1.23,0-1.66.38-1.86,1.62q-7.17,45.21-14.44,90.4-6,37.5-12.09,75c-1.23,7.62-2.79,15.2-3.53,22.87-.51,5.34-4,7-8.06,8.25-10,3-20.29,4.3-30.66,5.19a376.07,376.07,0,0,1-47.59,1c-14.58-.6-29.13-1.65-43.38-5.2a37.3,37.3,0,0,1-8-3.25c-1.61-.83-2.28-2.65-2.56-4.38q-6.61-40.62-13.16-81.24-5.79-35.64-11.62-71.26c-2-12.4-4-24.79-6-37.2-.22-1.38-.64-1.87-2.08-1.86-4.07,0-8.15-.19-12.22-.13-1.8,0-2.23-.61-2.17-2.3a83,83,0,0,0,0-9.06c-.14-2.06.83-2.56,2.54-2.61,3.86-.13,7.72-.36,11.59-.39,1.31,0,1.67-.39,1.62-1.67-.1-2.52.08-5.06-.1-7.58-.14-1.89.77-2.55,2.37-2.69a102,102,0,0,1,12-.73,4.31,4.31,0,0,0,4.37-2.39c2.6-4.42,5.51-8.64,8.2-13a4.71,4.71,0,0,1,3.72-2.34c9.35-1.14,18.76-1.4,28.16-1.68,3.65-.11,7.31-.28,11-.31,1.25,0,1.46-.32,1.23-1.58-2.2-12.22-4.53-24.42-6.39-36.69-1.09-7.23.39-14,5.3-19.87,4.43-5.31,10.23-7.48,16.71-8.58q20.41-3.46,40.82-7c4.21-.72,8.43-1.4,12.62-2.21a1.35,1.35,0,0,1,1.82,1.15,60.67,60.67,0,0,1,1.59,9.74c.11,1.29-.55,1.47-1.58,1.64-9.55,1.62-19.08,3.29-28.62,4.93s-18.83,3.13-28.21,4.84c-2.93.54-6,1.2-7.53,4.32a12.38,12.38,0,0,0-.77,7.82c2.22,13.2,4.67,26.35,6.89,39.54.29,1.68,1,1.77,2.32,1.77C224.87,355.46,236.82,355.48,248.77,355.48Z"/></g></g></g></svg>