<?xml version="1.0" encoding="utf-8"?>
<!-- Generator: Adobe Illustrator 26.0.0, SVG Export Plug-In . SVG Version: 6.00 Build 0)  -->
<svg version="1.1" id="レイヤー_1" xmlns="http://www.w3.org/2000/svg" xmlns:xlink="http://www.w3.org/1999/xlink" x="0px"
	 y="0px" viewBox="0 0 800 668.5" style="enable-background:new 0 0 800 668.5;" xml:space="preserve">
<style type="text/css">
	.st0{fill:#AFC4ED;}
	.st1{fill:#C8D9FA;}
	.st2{fill:#AFC4ED;stroke:#AFC4ED;stroke-width:4;stroke-miterlimit:10;}
</style>
<rect class="st0" width="800" height="668.5"/>
<ellipse class="st1" cx="574.2" cy="218.2" rx="115.3" ry="119.8"/>
<path class="st2" d="M689.3,233.8c-2,16-7.1,31.5-14.9,45.7c-7.5,13.4-17.5,25.3-29.5,34.9c-11.7,9.5-25.3,16.6-39.8,20.8
	c-9.9,2.9-20.2,4.3-30.5,4.3c-5.1,0-10.1-0.4-15.2-1h-0.2c-3.3-0.1-6.6-0.7-9.7-1.8c-12-2.7-23.4-7.4-33.9-13.9
	c-13-8-24.3-18.5-33.3-30.9c-9.2-12.5-15.9-26.7-19.8-41.7c-4.1-15.7-5.2-32.1-3.1-48.2c2-16,7.1-31.5,14.9-45.6l0.3-0.5l0-0.1l0,0
	c7.4-13.2,17.3-24.8,29.1-34.3c11.7-9.5,25.3-16.6,39.8-20.8c14.9-4.3,33.2-4.9,45.9-3.3s30.2,7.4,43.5,15.7
	c13,8,24.3,18.5,33.3,30.9c9.2,12.5,15.9,26.7,19.8,41.7C690.3,201.3,691.4,217.7,689.3,233.8z M656.5,135.8c-1.7,0.4-6,2.2-13,5.5
	c-9,5-19.7,12.5-34.3,25c-13.7,11.7-51.9,54.9-69.7,67s-28.6,10.2-29.8,10.2c-1.4,0-2.3,0-3,0.8s0.6,13.3,1.8,21.3
	c6.2,0.8,12.3,1.2,18.6,1.3c16.6,0.4,35.3-1.7,54.9-5.8c22.8-4.2,37.2-8.5,52.6-15c11.5-4.7,22.6-10.6,32.8-17.6
	c13.9-9.7,19.2-19.9,20.3-21.6c-0.5-8-1.8-12.9-3.8-20.6C678.9,167.5,669.5,150.2,656.5,135.8L656.5,135.8z M589.3,100L589.3,100
	c-3.8,0-7.6,0.5-11.3,1.4c-6.3,1.5-14.2,3.6-22,9.2c-12.5,9.7-22.6,25.5-30.6,40.2c-13.5,33.1-16.4,42.9-19,71.8
	c-0.1,5.4-0.5,10.7,0,12.3s1.3,3.4,4.1,3.2s10.7-2.4,19.5-6.6s60-55.9,75.9-69.4c8.2-7,19.9-18.4,34.9-25.3c4-1.9,8.1-3.5,12.3-4.7
	c-6.2-6.5-13.3-12.2-21.1-16.8C618.9,107.2,604.4,102.1,589.3,100z M477,156.9c-2.4,6.2-3.9,12.6-4.6,19.2
	c-1.2,10.8-0.7,26.3,7.6,44.4c3.1,6.6,10,12.8,17,15.5c3.7,1.4,5-1.1,5.3-2.1s0.2-8.9,0.5-14.5c0.2-13.7,3.8-38.1,19-71.8
	c7.6-15.8,17-27.7,28.6-36.5C556,107,563,101,576.8,98.9c-0.8,0-1.7,0-2.5,0c-10.1,0-20.2,1.4-29.9,4.2c-14.2,4.1-27.4,11-38.9,20.3
	C493.9,132.7,484.3,144.1,477,156.9z M465.1,249.4c7.4,6.4,16.4,10.9,26,13c4.7,1.4,7.3,2.6,13.3,2.9c-1.1-7.2-1.7-14.5-1.8-21.8
	c-4.2-0.5-8.1-2-11.5-4.5c-7-3.9-10.5-8.7-14-15.2c-8.7-18.8-8.4-36.8-7.1-48c0.3-2.4,0.6-4.6,1-6.6
	C460.2,194.5,458.1,222.7,465.1,249.4L465.1,249.4z M484.4,289.3c1.4,1.9,2.4,3,3.9,4.8c1-1.7,2-3.1,6.5-4.9s13.6,0.7,15.1,0.1
	s-1.5-1-4.3-20.5c-5.4-0.8-10.7-1.9-16-3.4c-12.2-3.6-18.3-5.8-23.1-11.8C470.5,266.4,476.5,278.5,484.4,289.3L484.4,289.3z
	 M537.3,330.2c0,0-5.6-3.2-8.1-5.8c-6.2-6.5-10-11.3-14.6-24.3c-1.4-2.1-3.2-3.9-5.2-5.4c-2-1.3-4.3-1-12.8-0.3
	c-3,1.6-3.8,2.1-4.5,5c7.1,8.3,15.5,15.4,24.9,21C523.5,324.4,537.3,330.2,537.3,330.2L537.3,330.2z M639.6,315.1
	c-7.6,2.3-15.3,4-23.2,5.1c-5.8,0.3-11.5,0.2-17.3-0.3c-13.8-1.1-31.9-5.8-51.1-15.5c-9.2-4.6-19.2-7.4-29.4-8.2
	c-0.8-0.1-1.2,1.2-0.4,4.3c2.5,5.5,6.7,14.2,13.3,21.2c5.2,5.6,11.7,9.9,19,12.4c3,0.7,6,1.2,9.1,1.6c15,2.1,30.3,1,44.9-3.2
	C617.1,328.9,629,323,639.6,315.1L639.6,315.1z M599.6,316.8c21.1,2.1,34.6-1.6,45.8-6.2c10.8-9.1,19.9-20.1,26.8-32.5
	c7.7-13.8,12.7-29,14.6-44.7c0.8-6.4,1.1-12.9,1-19.3c-2,4.1-8,12-18.5,19.4c-10.1,7-20.9,12.9-32.3,17.6
	c-15.6,6.5-33.5,11.7-53.4,15.8c-10.9,2.2-22,3.8-33.1,4.7c-1.6,0-22,0-23.6,0c-5.8-0.1-11.6-0.6-17.3-1.3
	c1.1,6.7,3.8,19.5,4.3,19.7s19.6,2.9,35.8,11c11,5.1,22.3,9.5,33.8,13.2c2,0.7,4.1,1.1,6.2,1.4L599.6,316.8z"/>
<path class="st1" d="M248.8,355.5c15.6,0.3,31.2,0.5,46.7,1.8c1.5,0.1,2.9,0.4,4.4,0.5s2.3,1.2,3,2.4c2.9,4.5,5.8,9.1,8.6,13.7
	c0.5,1.1,1.7,1.7,2.9,1.6c4.4-0.1,8.8,0.4,13.2,0.8c1.6,0.1,2,0.9,2,2.3c0,2.6,0,5.2,0,7.8c0,1.3,0.2,1.8,1.7,1.8
	c3.9,0,7.9,0.3,11.8,0.4c1.4,0,2,0.4,2,1.9c-0.1,3.5-0.1,7,0,10.5c0,1.3-0.5,1.5-1.6,1.5c-4.2,0-8.4,0.2-12.6,0.2
	c-1.2,0-1.7,0.4-1.9,1.6c-4.8,30.1-9.6,60.3-14.4,90.4c-4,25-8,50-12.1,75c-1.2,7.6-2.8,15.2-3.5,22.9c-0.5,5.3-4,7-8.1,8.2
	c-10,3-20.3,4.3-30.7,5.2c-15.8,1.3-31.7,1.7-47.6,1c-14.6-0.6-29.1-1.7-43.4-5.2c-2.8-0.8-5.5-1.9-8-3.2c-1.6-0.8-2.3-2.7-2.6-4.4
	c-4.4-27.1-8.8-54.2-13.2-81.2c-3.9-23.8-7.7-47.5-11.6-71.3c-2-12.4-4-24.8-6-37.2c-0.2-1.4-0.6-1.9-2.1-1.9
	c-4.1,0-8.2-0.2-12.2-0.1c-1.8,0-2.2-0.6-2.2-2.3c0.2-3,0.2-6,0-9.1c-0.1-2.1,0.8-2.6,2.5-2.6c3.9-0.1,7.7-0.4,11.6-0.4
	c1.3,0,1.7-0.4,1.6-1.7c-0.1-2.5,0.1-5.1-0.1-7.6c-0.1-1.9,0.8-2.5,2.4-2.7c4-0.5,8-0.7,12-0.7c1.8,0.2,3.6-0.7,4.4-2.4
	c2.6-4.4,5.5-8.6,8.2-13c0.8-1.3,2.2-2.2,3.7-2.3c9.4-1.1,18.8-1.4,28.2-1.7c3.6-0.1,7.3-0.3,11-0.3c1.2,0,1.5-0.3,1.2-1.6
	c-2.2-12.2-4.5-24.4-6.4-36.7c-1.1-7.2,0.4-14,5.3-19.9c4.4-5.3,10.2-7.5,16.7-8.6c13.6-2.3,27.2-4.6,40.8-7
	c4.2-0.7,8.4-1.4,12.6-2.2c0.7-0.3,1.5,0.1,1.7,0.8c0,0.1,0.1,0.2,0.1,0.4c0.8,3.2,1.3,6.5,1.6,9.7c0.1,1.3-0.5,1.5-1.6,1.6
	c-9.5,1.6-19.1,3.3-28.6,4.9s-18.8,3.1-28.2,4.8c-2.9,0.5-6,1.2-7.5,4.3c-1.1,2.5-1.4,5.2-0.8,7.8c2.2,13.2,4.7,26.4,6.9,39.5
	c0.3,1.7,1,1.8,2.3,1.8C224.9,355.5,236.8,355.5,248.8,355.5z"/>
</svg>
