<?xml version="1.0" encoding="utf-8"?>
<!-- Generator: Adobe Illustrator 26.0.0, SVG Export Plug-In . SVG Version: 6.00 Build 0)  -->
<svg version="1.1" id="レイヤー_1" xmlns="http://www.w3.org/2000/svg" xmlns:xlink="http://www.w3.org/1999/xlink" x="0px"
	 y="0px" viewBox="0 0 800 668.5" style="enable-background:new 0 0 800 668.5;" xml:space="preserve">
<style type="text/css">
	.st0{fill:#FFF0BA;}
	.st1{fill:#FFE97D;}
	.st2{fill:#FFF0BA;stroke:#FFF0BA;stroke-width:4;stroke-miterlimit:10;}
</style>
<rect class="st0" width="800" height="668.5"/>
<ellipse class="st1" cx="570.5" cy="176.5" rx="123.7" ry="128.6"/>
<path class="st2" d="M694.1,193.3c-2.1,17.2-7.5,33.9-16,49c-8,14.4-18.8,27.1-31.6,37.5c-12.6,10.2-27.2,17.8-42.7,22.2
	c-10.7,3.1-21.7,4.7-32.8,4.6c-5.5,0-10.9-0.4-16.3-1.1h-0.2c-3.5-0.1-7-0.8-10.4-1.9c-12.9-2.9-25.1-8-36.4-14.9
	c-13.9-8.6-26.1-19.9-35.7-33.1c-9.8-13.5-17-28.6-21.2-44.8c-4.4-16.9-5.6-34.4-3.4-51.7c2.1-17.2,7.5-33.9,16-49l0.3-0.6l0-0.1
	l0,0c8-14.1,18.6-26.6,31.2-36.8c12.6-10.2,27.1-17.8,42.7-22.3c16-4.6,35.7-5.3,49.3-3.5s32.4,8,46.7,16.8
	c13.9,8.6,26.1,19.9,35.7,33.1c9.8,13.5,17.1,28.6,21.3,44.8C695.1,158.4,696.3,176,694.1,193.3z M658.8,88.1
	c-1.8,0.4-6.4,2.4-14,5.9c-9.7,5.4-21.2,13.4-36.9,26.8c-14.7,12.6-55.7,59-74.8,71.9s-30.7,11-32,11c-1.5,0-2.4,0-3.2,0.9
	s0.6,14.2,1.9,22.9c6.6,0.9,13.3,1.3,19.9,1.4c17.8,0.4,37.9-1.9,58.9-6.2c24.5-4.5,39.9-9.2,56.5-16.1c12.4-5,24.2-11.4,35.2-18.9
	c14.9-10.4,20.6-21.3,21.8-23.1c-0.5-8.6-1.9-13.8-4.1-22.1c-4.1-15.8-11.2-30.6-20.8-43.8C664.7,94.9,661.8,91.4,658.8,88.1z
	 M586.7,49.6L586.7,49.6c-4.1,0-8.2,0.5-12.1,1.5c-6.7,1.6-15.3,3.9-23.6,9.8c-13.5,10.4-24.2,27.4-32.8,43.2
	c-14.5,35.6-17.6,46.1-20.5,77.1c-0.1,5.8-0.5,11.5,0,13.2s1.4,3.7,4.4,3.5s11.5-2.6,20.9-7.1s64.5-59.9,81.5-74.4
	c8.8-7.5,21.3-19.7,37.4-27.1c4.3-2,8.7-3.7,13.2-5.1c-6.7-7-14.3-13.1-22.7-18C618.5,57.5,602.9,51.9,586.7,49.6z M466.1,110.8
	c-2.6,6.6-4.2,13.6-4.9,20.6c-1.3,11.6-0.8,28.2,8.2,47.7c3.3,7.1,10.7,13.7,18.3,16.6c4,1.5,5.4-1.1,5.6-2.2s0.3-9.6,0.5-15.5
	c0.3-14.7,4-40.9,20.4-77c8.1-16.9,18.2-29.7,30.7-39.2c6-4.5,13.5-11,28.2-13.2c-0.9,0-1.8,0-2.7,0c-10.9,0-21.7,1.5-32.1,4.5
	C523.2,57.6,509,65,496.7,74.9C484.3,84.9,474,97,466.1,110.8z M453.3,210.1c8,6.9,17.6,11.8,28,14c5.1,1.5,7.8,2.8,14.3,3.1
	c-1.2-7.7-1.8-15.6-1.9-23.4c-4.5-0.5-8.7-2.1-12.4-4.8c-7.5-4.2-11.3-9.3-15.1-16.4c-9.3-20.1-9-39.5-7.6-51.5
	c0.3-2.6,0.6-4.9,1.1-7.1C448.1,151.2,445.9,181.5,453.3,210.1L453.3,210.1z M474.1,252.9c1.5,2.1,2.6,3.2,4.2,5.2
	c1-1.8,2.1-3.4,7-5.2s14.6,0.7,16.2,0.1s-1.6-1.1-4.6-22c-5.8-0.8-11.6-2.1-17.2-3.7c-13.1-3.9-19.6-6.2-24.8-12.7
	C459.2,228.4,465.6,241.3,474.1,252.9L474.1,252.9z M530.9,296.9c0,0-6-3.4-8.7-6.3c-6.7-7-10.7-12.1-15.6-26.1
	c-1.5-2.2-3.5-4.2-5.6-5.8c-2.1-1.4-4.6-1.1-13.7-0.3c-3.3,1.7-4,2.3-4.8,5.4c7.6,8.9,16.6,16.5,26.7,22.5
	C516,290.6,530.9,296.9,530.9,296.9L530.9,296.9z M640.7,280.7c-8.1,2.5-16.5,4.3-24.9,5.5c-6.2,0.3-12.4,0.2-18.6-0.3
	c-14.8-1.1-34.2-6.2-54.9-16.6c-9.9-5-20.6-8-31.6-8.9c-0.9-0.1-1.2,1.2-0.4,4.6c2.7,5.9,7.2,15.3,14.3,22.7
	c5.6,6.1,12.6,10.6,20.4,13.3c3.2,0.7,6.5,1.3,9.8,1.8c16.1,2.3,32.6,1.1,48.2-3.5C616.6,295.4,629.4,289.1,640.7,280.7L640.7,280.7
	z M597.7,282.5c22.6,2.3,37.1-1.7,49.2-6.7c11.6-9.8,21.4-21.6,28.8-34.9c8.3-14.8,13.6-31.1,15.7-47.9c0.9-6.9,1.2-13.8,1-20.8
	c-2.1,4.4-8.6,12.9-19.9,20.8c-10.8,7.6-22.5,13.9-34.7,18.9c-16.8,7-36,12.5-57.3,16.9c-11.7,2.4-23.6,4.1-35.5,5.1
	c-1.7,0-23.6,0.1-25.3,0c-6.2-0.1-12.4-0.6-18.6-1.4c1.2,7.2,4,20.9,4.6,21.2s21.1,3.1,38.5,11.8c18.6,8.3,24.4,10.2,36.3,14.1
	c2.2,0.7,4.4,1.2,6.7,1.5L597.7,282.5z"/>
<path class="st1" d="M146.2,334.5c7.3,0.3,14.6,1.7,21.5,4.2c0.7,0.4,1.5,0.5,2.2,0.3c6.9-2.3,15.7,3.4,16.4,10.5
	c0.1,0.7,0.4,1.4,0.9,1.8c4.7,4.9,9,10.1,11.9,16.3c0.5,0.7,0.9,1.5,1.2,2.4c1.5,7.8,6.7,13.7,10.9,20c0.9,1.4,2.2,2.6,1.7,4.6
	c-0.3,1.3,1,1.6,1.7,2.1c17,12.7,34,25.4,51,38.1L389,527.2c5.1,3.8,10.1,7.6,15.2,11.3c1.4,1,1.8,1.9,0.9,3.5
	c-6,10.8-12.8,21.2-20.4,31c-1.4,1.8-2.5,1.8-4.5,0.7c-32.2-18.7-64.5-37.3-96.7-55.9c-35.5-20.5-71-41.1-106.6-61.6
	c-1.6-0.9-2.9-2-5.1-0.8c-1.6,0.9-3.7-0.4-5.5-0.7c-2.1-0.3-4.2-0.9-6.4-1.3c-3.7-0.8-7.5-1.1-11.2-0.8c-8.6,0.8-16.9-1.1-24.9-4.1
	c-1.1-0.6-2.4-0.6-3.6,0c-1.3,0.8-2.8,0.3-4.2,0c-5.4-1.2-10.2-6-11-11.2c-0.2-0.7-0.5-1.3-1.1-1.8c-7.5-8.1-12.9-18-15.6-28.7
	c-2.1-8.5-2.1-17.5,0-26c1.7-7.7,4.9-15,9.3-21.5c4.6-6.5,10.6-12,17.5-16c5.5-3.2,11.5-5.7,17.7-7.2
	C137.4,335.1,142.1,335.2,146.2,334.5z"/>
</svg>
