<svg xmlns="http://www.w3.org/2000/svg" viewBox="0 0 800 668.49"><defs><style>.cls-1,.cls-3{fill:#fff0ba;}.cls-2{fill:#ffe97d;}.cls-3{stroke:#fff0ba;stroke-miterlimit:10;stroke-width:4px;}</style></defs><g id="レイヤー_2" data-name="レイヤー 2"><g id="パターン"><g id="ボールとマイク"><rect class="cls-1" width="800" height="668.49"/><ellipse class="cls-2" cx="570.52" cy="176.53" rx="123.73" ry="128.57"/><path class="cls-3" d="M694.08,193.29a133.9,133.9,0,0,1-16,49,128.1,128.1,0,0,1-31.62,37.46A121.79,121.79,0,0,1,603.72,302a117.93,117.93,0,0,1-32.79,4.65,119.28,119.28,0,0,1-16.3-1.12h-.2a34.94,34.94,0,0,1-10.38-1.93,120,120,0,0,1-36.36-14.92A126.22,126.22,0,0,1,472,255.57a132.53,132.53,0,0,1-21.25-44.77,135.86,135.86,0,0,1-3.35-51.7,134,134,0,0,1,16-49l.33-.58.05-.1h0A128.09,128.09,0,0,1,495,72.64a121.79,121.79,0,0,1,42.7-22.29c16-4.61,35.69-5.29,49.29-3.51s32.38,8,46.74,16.82a126,126,0,0,1,35.71,33.15,132.5,132.5,0,0,1,21.26,44.78A135.85,135.85,0,0,1,694.08,193.29ZM658.8,88.07c-1.81.45-6.4,2.41-13.95,5.88-9.69,5.36-21.18,13.39-36.86,26.8-14.73,12.57-55.7,59-74.8,71.95s-30.68,11-32,11c-1.53,0-2.42,0-3.23.85s.6,14.23,1.89,22.85a170.06,170.06,0,0,0,19.91,1.41c17.8.44,37.86-1.85,58.92-6.2,24.49-4.52,39.91-9.18,56.5-16.09a187.77,187.77,0,0,0,35.25-18.9c14.88-10.45,20.63-21.3,21.8-23.13-.54-8.56-1.88-13.81-4.07-22.15a129.8,129.8,0,0,0-20.8-43.81A125.85,125.85,0,0,0,658.8,88.07ZM586.67,49.64h-.08a49.66,49.66,0,0,0-12,1.49C567.84,52.71,559.29,55,551,60.94c-13.45,10.44-24.22,27.37-32.83,43.17-14.53,35.55-17.64,46.09-20.45,77.11-.13,5.77-.53,11.48,0,13.17s1.35,3.67,4.4,3.47,11.48-2.62,20.9-7.14,64.49-59.95,81.48-74.45c8.81-7.53,21.34-19.73,37.44-27.12a95.75,95.75,0,0,1,13.19-5.08,105.54,105.54,0,0,0-22.68-18A117.32,117.32,0,0,0,586.67,49.64ZM466.14,110.82a78.31,78.31,0,0,0-4.93,20.64c-1.29,11.63-.8,28.23,8.21,47.7,3.29,7.12,10.73,13.74,18.3,16.64,4,1.53,5.38-1.13,5.65-2.25s.27-9.6.54-15.52c.27-14.67,4-40.91,20.45-77,8.11-16.91,18.25-29.74,30.67-39.22,6-4.55,13.45-11,28.21-13.23-.91,0-1.81,0-2.72,0a115.5,115.5,0,0,0-32.08,4.55,119.35,119.35,0,0,0-41.78,21.81A125.36,125.36,0,0,0,466.14,110.82Zm-12.83,99.23a63.07,63.07,0,0,0,27.95,14c5.07,1.48,7.8,2.82,14.26,3.1a157.78,157.78,0,0,1-1.88-23.42,25.93,25.93,0,0,1-12.38-4.79c-7.53-4.24-11.3-9.31-15.07-16.37-9.31-20.12-9-39.49-7.64-51.52.28-2.55.65-4.91,1.06-7.06a134.05,134.05,0,0,0-6.3,86.09Zm20.8,42.84c1.51,2.07,2.58,3.19,4.19,5.15,1.05-1.81,2.15-3.39,7-5.23s14.57.71,16.18.15-1.61-1.13-4.57-22a129.17,129.17,0,0,1-17.22-3.67c-13.11-3.87-19.64-6.2-24.75-12.66A129.58,129.58,0,0,0,474.11,252.89Zm56.78,44s-6-3.4-8.73-6.26c-6.7-7-10.74-12.12-15.63-26.12a24.69,24.69,0,0,0-5.63-5.76c-2.15-1.41-4.57-1.13-13.72-.28-3.26,1.68-4,2.26-4.84,5.36a107.75,107.75,0,0,0,26.71,22.5C516,290.59,530.89,296.86,530.89,296.86Zm109.83-16.22a150.91,150.91,0,0,1-24.93,5.45,133.21,133.21,0,0,1-18.57-.3c-14.76-1.14-34.23-6.25-54.88-16.63a84.76,84.76,0,0,0-31.59-8.85c-.88-.08-1.24,1.23-.43,4.62,2.69,5.92,7.18,15.3,14.26,22.73A49.7,49.7,0,0,0,545,301q4.85,1.09,9.79,1.78A115.64,115.64,0,0,0,603,299.32,119,119,0,0,0,640.72,280.64Zm-43,1.78c22.6,2.26,37.13-1.69,49.16-6.67a125.74,125.74,0,0,0,28.79-34.89,131,131,0,0,0,15.69-47.94,135.19,135.19,0,0,0,1-20.75c-2.11,4.45-8.61,12.87-19.87,20.81a178.89,178.89,0,0,1-34.7,18.91c-16.8,7-36,12.52-57.31,16.92A299,299,0,0,1,545,233.89c-1.71,0-23.61.05-25.29,0a165.46,165.46,0,0,1-18.57-1.41c1.18,7.2,4,20.88,4.58,21.16s21.06,3.1,38.47,11.85c18.57,8.31,24.38,10.17,36.31,14.15a33.24,33.24,0,0,0,6.66,1.5Z"/><path class="cls-2" d="M146.23,334.55a70.81,70.81,0,0,1,21.5,4.24,2.87,2.87,0,0,0,2.25.3c6.85-2.34,15.71,3.41,16.35,10.54a2.82,2.82,0,0,0,.92,1.83c4.71,4.89,9,10.13,11.89,16.33a11.36,11.36,0,0,1,1.24,2.39c1.54,7.82,6.66,13.66,10.9,20,.93,1.39,2.19,2.65,1.71,4.64-.31,1.28,1,1.58,1.74,2.13q25.49,19.08,51,38.13L389,527.15c5.07,3.79,10.1,7.62,15.22,11.33,1.42,1,1.83,1.91.93,3.54a247.6,247.6,0,0,1-20.38,31c-1.39,1.8-2.52,1.85-4.46.72q-48.33-28-96.73-55.91Q230.3,487.05,177,456.22c-1.55-.89-2.86-2-5.05-.8-1.58.87-3.67-.39-5.53-.66-2.14-.32-4.24-.87-6.37-1.3a38.46,38.46,0,0,0-11.25-.82c-8.58.77-16.85-1.09-24.88-4.06a3.76,3.76,0,0,0-3.55,0c-1.32.78-2.82.29-4.23,0-5.42-1.23-10.18-6-11-11.21a3.22,3.22,0,0,0-1.1-1.78A65.27,65.27,0,0,1,88.46,406.9a53.57,53.57,0,0,1,0-26,60.6,60.6,0,0,1,9.33-21.5,55.47,55.47,0,0,1,17.47-16,67.67,67.67,0,0,1,17.69-7.25C137.44,335.06,142.06,335.24,146.23,334.55Z"/></g></g></g></svg>