<?xml version="1.0" encoding="utf-8"?>
<!-- Generator: Adobe Illustrator 26.0.0, SVG Export Plug-In . SVG Version: 6.00 Build 0)  -->
<svg version="1.1" id="レイヤー_1" xmlns="http://www.w3.org/2000/svg" xmlns:xlink="http://www.w3.org/1999/xlink" x="0px"
	 y="0px" viewBox="0 0 800 668.5" style="enable-background:new 0 0 800 668.5;" xml:space="preserve">
<style type="text/css">
	.st0{fill:#B0FFB2;}
	.st1{fill:#95FC98;}
	.st2{fill:#B0FFB2;stroke:#B0FFB2;stroke-width:4;stroke-miterlimit:10;}
</style>
<rect class="st0" width="800" height="668.5"/>
<path class="st1" d="M637.4,380l22.5-4.2l-13.1-10.7c-4.7-2.7-9.1-5.9-13.2-9.4c-7.7,10.9-18.5,19.2-32.1,24.8
	c-2.3,0.9-4.7,1.8-7.1,2.5c-0.8,6.8-4.5,16-10.5,26.5c-6.8,11.5-14.5,22.5-23.1,32.8c-19.8,24.1-42.1,43.9-59.5,52.9
	c10.9,4,21.7,6,29,2.7l0.7-0.3l0.5,0.5c8.9,8.7,22,12.9,39,12.6c28.2-0.5,57-13.2,60.1-16.4l0.2,0.2c-4.4-16.3-7.4-40.2-8.7-69.3
	l-4.5-1.1l-4.2,13.6l-7.8-29.5l2.2-0.6l5.8,22l2.5-8.1l7.5,1.9l-2.5-17.6l13,0.9L637.4,380z"/>
<path class="st1" d="M462,533.8l-1.8-0.4l0.3-1.3l-8.7-10l-8.2-1c0.8,1.6,1.6,3.2,2.2,4.9c2.5,6.6,3.8,14.4,3.7,23.3
	c-0.1,9.5-1.4,19-3.9,28.2l-2.2-0.6c2.4-9,3.7-18.3,3.8-27.6c0.2-7.6-1-15.2-3.6-22.4c-2.6-7.4-7.7-13.6-14.4-17.6l1.1-1.9
	c4.8,2.8,8.8,6.7,11.7,11.4l10.8,1.3l8.1,9.4l7.8-35.1c-6.9-5.1-10.5-9.2-12.4-11.6l1.8-1.3c4.8,6.6,15.3,14.5,28.8,21.7
	c11.1,6,22.7,10.5,27.5,10.9l3,0.2l-2.4,1.8c-5.5,4.2-16.7,17.2-19.9,20.9l10.8,7l20.6-24.4l4.5,29c1-1.3,2.2-2.6,3.4-3.8
	c2.2-2.1,4.7-3.9,7.4-5.5h0.2c0-0.1-2.5-11.4-4.1-19l-0.5-2.4l2.2,1.2c8.7,4.9,39.8,9,64.7,1c13.7-4.4,23-11.6,27.6-21.5l0.3,0.1
	c-0.2-0.6-0.4-1.3-0.6-2c-2.8,2.1-10.5,5.8-20.8,9.1c-9.7,3.2-24.6,7-40.1,7.3H569c-16.5,0-29.4-4.3-38.4-12.8
	c-9.3,3.7-23.9,0.8-43.5-8.8c-9.5-4.6-18.6-9.9-27.3-15.8l1.3-1.9c0.2,0.1,6.2,4.3,14.9,9.2c7-2,15.5-7.1,25.2-15.2
	c9.3-8,18-16.7,26.1-26c-4.9-3.6-11.7-15.5-18-31.8c-6-15.4-9.8-30.4-9.9-38.3c-11.7-6.8-21-15.4-27-25l1.9-1.2
	c7.3,11.7,19.5,21.6,35.1,28.9c15.6,7,32.5,10.8,49.6,11.2c15.1,0.3,29.5-2.2,41.8-7.2c13.4-5.4,23.9-13.6,31.4-24.4
	c1.5-2.6,5.8-12.5,7.2-15.4c1.7-4.7,3.1-9.4,4.2-14.3l-0.3-0.4l0.4-0.3c1.5-6.4,2.3-12.9,2.5-19.5c-5.8,2.1-14.8,3.1-26.8,3.1
	c-1.8,0-3.7,0-5.6-0.1c-15.6-0.4-35.3-2.3-57-5.6c-19.3-2.9-38.8-6.6-54.7-10.5c-11-2.7-24.6-6.5-29.1-9.8
	c-3.6,22.9-4.9,49.2,0.1,63.3c0,0-4.3-4.3-6.8,0s1.1,9.3,4.8,14.5c-13.5,9-46.3,53.3-49.2,71.4s5.2,55.1,27.3,36.6
	c8.4,6.3,8.8,12.6,8.8,12.6s-27.3,1.8-27.3,4.5c0.3,5.3,3.4,10,8.1,12.4c-10.8,7-9.7,11.3-9.7,11.3s-4.3-3.2-9.3-2.5
	c-5.4-6.8-27.1-11.3-37.9-6.1c-21.2-6.1-53.8,53.1,7.2,88.5c21.2,8.4,47.2,12.4,58-13.3c13.2-7.8,28.2-17.1,32.7-19.9L462,533.8z
	 M558.1,313.3c5-4,12.8-2.5,17.4,3.2s4.4,13.7-0.5,17.7s-12.7,2.5-17.4-3.2S553.1,317.3,558.1,313.3L558.1,313.3z M522.2,327.8
	c1.8-2.3,15.8,0.5,16,3.6s-8.2,10-9,10.6l1.1,0.3c-1,5.1,0,9.5,2.8,13.2c2.8,3.3,6.6,5.7,10.8,6.7c10.5,2.7,18.2-1.7,20-7.2l2.1,0.7
	c-1.3,4-4.5,7-9.1,8.5c-2.3,0.7-4.6,1.1-7,1.1c-2.2,0-4.5-0.3-6.6-0.9c-4.7-1.1-8.9-3.8-12-7.5c-1.9-2.5-3.1-5.4-3.5-8.5
	c-3.1,5.8-7.7,9.4-12.2,9.4h-0.1c-4.2,0-10-3.2-14-17.8l2.2-0.6c2.8,10.3,7,16,11.8,16.1h0.1c4.9,0,10.1-5.8,12.5-13.8l1,0.2
	C528.4,341,520.4,330,522.2,327.8L522.2,327.8z M505.8,297c6.9,0,12.4,5.6,12.4,12.4c0,6.9-5.6,12.4-12.4,12.4s-12.4-5.6-12.4-12.4
	S498.9,297,505.8,297L505.8,297z M457,454.2l-2.2-0.2c0.1-1.9,0.4-4,0.8-6.2c-1.8,0.3-3.4,1.3-4.4,2.8c-2.2,3.3-2,8.8,0.6,15.5
	l-2.1,0.8c-3.7-9.5-2.2-14.8-0.4-17.6c1.5-2.2,4-3.6,6.6-3.8c2-9.7,4.7-19.1,8.2-28.4c3.3-9.3,6.5-16.9,7.7-19.7l-7.5-3l8.4-11.1
	l-8.2-6.6l9.7-11.1l-3.2-5.4l1.9-1.1l4,6.8l-9.2,10.6l8.1,6.5l-7.9,10.5l6.9,2.8l-0.5,1.1C474.1,397.7,458.5,433.5,457,454.2z
	 M412.5,509.3c1.5-2,3.8-3.3,6.2-3.7l0.1,1.1l0.1,1.1c-0.4,0-9.2,1.1-7.6,17.7l-2.2,0.2C408.4,518.5,409.5,512.9,412.5,509.3z
	 M380.4,501.4c1.6-1.8,3.8-2.9,6.2-3v2.2c-1.8,0.1-3.4,1-4.6,2.3c-3.6,4-3.7,11.4-3.2,17l-2.2,0.2
	C375.7,511.4,377,505.1,380.4,501.4z M418.8,572c-2.5,6.8-13.6,9-24.8,4.9s-18.3-13-15.8-19.8s13.6-9,24.8-4.9
	S421.3,565.2,418.8,572z"/>
<path class="st1" d="M494.1,238.6c-0.8,0.2-1.6,0.3-2.4,0.4c7.3,5.3,17.6,9.8,30.5,13.4c13.8,3.6,28,6.1,42.2,7.4
	c26,2.5,52.1,3,78.1,1.3c-1.8-3-4-5.7-6.6-8c24-23.6-6.2-69.7-36.3-33.9c-10.2-11.2-47.9-13.4-62.4-10.2c-15-33.3-45.7-22-35.5,20.3
	C499.3,231.6,494.1,238.6,494.1,238.6z M629,216.6c6.9,6.3,10.8,29.5,1.1,30.6s-23.5-9.5-23.5-20S622,210.3,629,216.6L629,216.6z
	 M516.6,197.2c9.3,0,10.3,11.2,9.3,14.9c-2.8,0.3-8.9,5.5-16.5,13.6C498.8,215,507.4,197.2,516.6,197.2z"/>
<path class="st1" d="M559.1,440.8c18.4-22.4,30.9-44.1,33-57.2c-8.3,2.3-16.7,3.7-25.3,4c-4.2,11.6-19.4,34.1-36.3,53.8
	c-8.5,10.1-17.8,19.5-27.9,28.1c-9,7.6-17.1,12.6-24,15c7.3,4.1,14.9,7.6,22.7,10.6l-1-2C517.5,484.3,539.5,464.7,559.1,440.8z"/>
<path class="st1" d="M665.7,404c0,0,14.3-27.9,14-62.8c-5.8-16.8-22-31.7-29.8-40.2l0.6,0.9c-1.3,0.8-2.6,1.5-4.1,2h2.1
	c-0.2,6.7-1,13.3-2.5,19.9c2.7,4.4,5,9.1,7,13.9c3.5,8.4,7.5,21.3,6.5,34.8h-0.2l5.7,4.7l-15.9,3c3.4,3.7,11.7,13.6,14.4,23.4
	l-2.2,0.6c-2.9-10.3-12.8-21.2-14.9-23.5l-7,1.3l-3.1,27.1l-12.3-0.9l2.5,18.1l-2-0.5c1.3,29,4.3,52.7,8.7,68.7
	c5.2,18.9,10.6,21.3,12.7,21.5c4.4,0.4,8.8-7.2,11.5-19.8l2.2,0.5c-1.4,6.8-3.3,12.1-5.5,15.7c4,0.6,9.9,1,11.6,0
	c2.2-1.4,7.4-6.6,7.4-25.7h2.3c0,19.5-5.3,25.7-8.5,27.6c-1.2,0.7-3.3,1-5.5,1c-2.9-0.1-5.8-0.3-8.7-0.8c-2,2.5-4.1,3.8-6.4,3.8
	c-0.2,0-0.3,0-0.5,0c-4.7-0.4-9.1-6.2-12.8-17c-5.1,9.5-14.5,16.5-28.1,20.9c-11.1,3.6-25,5.2-39,4.5c-10.4-0.5-19.8-2.2-25.4-4.6
	c1.3,6.3,3,13.9,3.5,16.1c9.1-4.8,19-6.3,23.3-5.9c1.8-3.1,6.1-4.8,12.2-4.7s13.5,2.1,17.2,5c0.3-0.1,0.7-0.2,1-0.3l0.2,1.1l0.1,0.4
	c0.1,0.1,0.3,0.3,0.4,0.5c4.9-2.2,10.4-2.3,15.4-0.3c13.6,5.5,21,24.9,21.3,25.7l-1.9,0.7c-0.1-0.2-7.4-19.3-20.2-24.5
	c-4.7-1.9-10.1-1.7-14.6,0.6l-1,0.5l-0.4-1c-0.1-0.3-0.3-0.6-0.5-0.8c-2.7,1.4-8.4,5.5-12.6,17.4l-2.1-0.8
	c4.1-11.5,9.5-16.2,12.8-18.2c-3.2-2-9.2-3.8-15.1-3.9c-2.7,0-9,0.2-10.6,4.1l-0.3,0.8l-0.8-0.2c-0.5-0.1-1-0.1-1.5-0.2l0.1,0.2
	c-2.9,1.3-5.3,3.3-7.1,5.9c-4.2,5.9-5.1,14.5-2.6,24.8l-2.2,0.5c-1.9-7.7-2.8-18.6,3-26.8c1.2-1.7,2.6-3.1,4.2-4.4
	c-7.2,1-18.1,4.6-25.5,11.6c-1.6,1.5-3.1,3.3-4.3,5.2l0.1,0.6l-0.5,0.1c-3.2,5.4-4.4,11.8-3.3,18l-2,0.3c-1-7.2,0.1-13.6,3.4-19.1
	l-4.1-26.5l-18.7,22.1l-14.6-9.7l0.8-1c0.5-0.6,12.1-14.3,19.1-20.6c-5.8-1.3-15.5-5.2-25.2-10.4c-1.7,7.4-7.4,33.2-6,46.6h-0.1
	l1.2,1.4l-0.5,0.4l14.2,15.1l14.5-10.6l10.4,14c2.2-0.7,4.5-1.2,6.8-1.6c0.5,9.7,13.5,48.3,41.5,56.6s67.9,12.8,66.8-65.5
	c5.1,4.9,23.2,11.4,17.6-30.5c9.8-0.3,25.6-3.7,11.7-15.6c6.7-2.2,15.7-4.4,20.5-21C690.4,455.4,665.7,404,665.7,404z M590.4,618.1
	c-7.4,7.4-21.3,5.4-31-4.4s-11.8-23.7-4.4-31.1s21.3-5.4,31,4.4S597.8,610.8,590.4,618.1z"/>
<path class="st1" d="M470.9,495.7l-8,35.8l15.3,17.7c-0.5-14.8,4.9-38.8,6.4-45C479.9,501.6,475.3,498.8,470.9,495.7z"/>
<path class="st1" d="M648.7,264.5c-1-2.6-5.4-2.3-5.4-2.3l0.1,1.1c-8.4,0.6-19.2,1-31.1,1c-16,0-32-0.7-48-2.3
	c-14.4-1.3-28.6-3.8-42.6-7.5c-14-3.9-25-8.8-32.5-14.7l0.7-0.9c-0.5,0-1.1-0.2-1.6-0.4c-4.6-2.5-11.1,17.4-15,41.4l0.8-0.8
	c5.5,5,43.6,14.3,83.2,20.2c47.8,7.2,82.2,7.5,92.1,0.8l0.6,0.9C652,295.3,649.7,267.1,648.7,264.5z"/>
<path class="st1" d="M508.4,376.3c-2.3-1.1-4.6-2.2-6.8-3.4c0.4,8,4.1,21.9,9.7,36.2c6.1,15.7,12.7,27.5,17.3,30.8l-1,1.5l1.2-1.4
	c5.2-6.1,10.3-12.4,14.9-18.6c-7-4.7-20.1-26-23.2-40.3C516.3,379.7,512.3,378.1,508.4,376.3z"/>
<path class="st1" d="M545,419.5c9.2-12.5,16.4-24.3,19.4-31.8c-0.9,0-1.9,0-2.8,0H559c-12.2-0.3-24.3-2.3-36-5.9
	c1.6,6.2,5,14.1,9.6,21.9S541.8,417.5,545,419.5z"/>
<path class="st1" d="M645.2,327c-1,4.3-2.3,8.5-3.9,12.7c6.9,5.9,7.3,18.7,6.9,23.7l9.1,7.5c0.3-7.3-0.7-18.4-6.4-32.2
	C649.3,334.6,647.4,330.8,645.2,327z"/>
<ellipse class="st1" cx="199.4" cy="194.1" rx="104.9" ry="109"/>
<path class="st2" d="M304.1,208.4c-1.8,14.6-6.4,28.7-13.6,41.6c-6.8,12.2-15.9,23-26.8,31.8c-10.7,8.6-23,15.1-36.2,18.9
	c-9,2.6-18.4,3.9-27.8,4c-4.6,0-9.2-0.3-13.8-1h-0.2c-3-0.1-6-0.6-8.8-1.6c-10.9-2.5-21.3-6.8-30.8-12.7
	c-11.8-7.3-22.1-16.9-30.3-28.1c-8.3-11.4-14.4-24.3-18-38C94,209,93.1,194.1,95,179.5c1.8-14.6,6.4-28.7,13.6-41.6l0.3-0.5v-0.1
	l0,0c6.8-12,15.8-22.6,26.5-31.2s23-15.1,36.2-18.9c13.6-3.9,30.3-4.5,41.8-3S240.9,91,253,98.5c11.8,7.3,22.1,16.9,30.3,28.1
	c8.3,11.4,14.4,24.3,18,38C305,178.8,306,193.7,304.1,208.4z M274.2,119.1c-1.5,0.4-5.4,2-11.8,5c-8.2,4.5-18,11.4-31.3,22.7
	c-12.5,10.6-47.2,50-63.4,61s-26,9.3-27.2,9.3c-1.3,0-2.1,0-2.7,0.7s0.5,12.1,1.6,19.4c5.6,0.7,11.2,1.1,16.9,1.2
	c15.1,0.4,32.1-1.6,50-5.3c20.8-3.8,33.9-7.8,47.9-13.6c10.5-4.3,20.5-9.6,29.9-16c12.6-8.9,17.5-18.1,18.5-19.6
	c-0.5-7.2-1.6-11.7-3.5-18.8c-3.5-13.4-9.5-26-17.7-37.2C279.2,124.9,276.8,122,274.2,119.1z M213.1,86.5L213.1,86.5
	c-3.5,0-6.9,0.4-10.2,1.3c-5.7,1.3-13,3.3-20,8.3c-11.4,8.8-20.5,23.2-27.8,36.6c-12.3,30.1-15,39.1-17.4,65.4
	c-0.1,4.9-0.4,9.7,0,11.2s1.1,3.1,3.7,2.9s9.7-2.2,17.7-6s54.7-50.9,69.1-63.1c7.5-6.4,18.1-16.7,31.8-23c3.6-1.7,7.3-3.2,11.2-4.3
	c-5.7-5.9-12.1-11.1-19.2-15.2C240.1,93.2,226.8,88.4,213.1,86.5z M110.8,138.4c-2.2,5.6-3.6,11.5-4.2,17.5
	c-1.1,9.9-0.7,23.9,7,40.4c2.8,6,9.1,11.6,15.5,14.1c3.4,1.3,4.6-0.9,4.8-1.9s0.2-8.1,0.4-13.2c0.2-12.4,3.4-34.7,17.3-65.3
	c6.9-14.3,15.5-25.2,26-33.3c5.1-3.9,11.4-9.3,23.9-11.2c-0.8,0-1.5,0-2.3,0c-9.2,0-18.4,1.3-27.2,3.9c-12.9,3.7-25,10-35.4,18.5
	C126.3,116.4,117.5,126.7,110.8,138.4z M100,222.6c6.8,5.9,14.9,10,23.7,11.9c4.3,1.3,6.6,2.4,12.1,2.6c-1-6.6-1.6-13.2-1.6-19.9
	c-3.8-0.4-7.4-1.8-10.5-4.1c-6.4-3.6-9.6-7.9-12.8-13.9c-7.9-17.1-7.6-33.5-6.5-43.7c0.2-2.2,0.6-4.2,0.9-6
	C95.6,172.6,93.7,198.3,100,222.6L100,222.6z M117.6,258.9c1.3,1.8,2.2,2.7,3.6,4.4c0.9-1.5,1.8-2.9,5.9-4.4s12.4,0.6,13.7,0.1
	s-1.4-1-3.9-18.7c-4.9-0.7-9.8-1.7-14.6-3.1c-11.1-3.3-16.7-5.3-21-10.7C104.9,238.1,110.4,249.1,117.6,258.9z M165.8,296.2
	c0,0-5.1-2.9-7.4-5.3c-5.7-6-9.1-10.3-13.2-22.1c-1.3-1.9-2.9-3.5-4.8-4.9c-1.8-1.2-3.9-1-11.6-0.2c-2.8,1.4-3.4,1.9-4.1,4.5
	c6.5,7.6,14.1,14,22.7,19.1C153.1,290.9,165.8,296.2,165.8,296.2z M258.9,282.4c-6.9,2.1-14,3.7-21.1,4.6
	c-5.3,0.3-10.5,0.2-15.8-0.2c-12.5-1-29-5.3-46.6-14.1c-8.4-4.2-17.5-6.8-26.8-7.5c-0.8-0.1-1.1,1-0.4,3.9c2.3,5,6.1,13,12.1,19.3
	c4.8,5.1,10.7,9,17.3,11.3c2.7,0.6,5.5,1.1,8.3,1.5c13.7,1.9,27.6,0.9,40.9-2.9C238.4,294.9,249.3,289.6,258.9,282.4z M222.5,283.9
	c19.2,1.9,31.5-1.4,41.7-5.7c9.9-8.3,18.1-18.3,24.4-29.6c7-12.6,11.6-26.4,13.3-40.7c0.7-5.8,1-11.7,0.9-17.6
	c-1.8,3.8-7.3,10.9-16.8,17.6c-9.2,6.4-19.1,11.8-29.4,16c-14.2,5.9-30.5,10.6-48.6,14.4c-9.9,2-20,3.5-30.1,4.3c-1.5,0-20,0-21.4,0
	c-5.3-0.1-10.5-0.5-15.8-1.2c1,6.1,3.4,17.7,3.9,18s17.9,2.6,32.6,10c10,4.6,20.3,8.7,30.8,12c1.8,0.6,3.7,1,5.6,1.3L222.5,283.9z"
	/>
</svg>
