<svg xmlns="http://www.w3.org/2000/svg" viewBox="0 0 800 668.49"><defs><style>.cls-1,.cls-3{fill:#b0ffb2;}.cls-2{fill:#8ef591;}.cls-3{stroke:#b0ffb2;stroke-miterlimit:10;stroke-width:4px;}</style></defs><g id="レイヤー_2" data-name="レイヤー 2"><g id="パターン"><g id="ボールとクマ"><rect class="cls-1" width="800" height="668.49"/><path class="cls-2" d="M637.41,380l22.5-4.2-13.06-10.73a81.74,81.74,0,0,1-13.19-9.43C626,366.55,615.2,374.86,601.6,380.4c-2.31.93-4.69,1.79-7.14,2.55-.83,6.79-4.47,15.95-10.55,26.54a247.43,247.43,0,0,1-23.06,32.77c-19.83,24.12-42.07,43.88-59.5,52.87,10.91,4,21.7,6,29,2.72l.71-.32.55.54c8.86,8.66,22,12.9,39,12.62,28.16-.46,57-13.18,60.14-16.43l.25.24c-4.39-16.26-7.38-40.17-8.66-69.26l-4.47-1.11-4.24,13.57-7.77-29.55,2.18-.57,5.78,21.95,2.53-8.11,7.54,1.88-2.45-17.56,13,.92Z"/><path class="cls-2" d="M462,533.81l-1.8-.4.3-1.33-8.67-10-8.2-1a42.4,42.4,0,0,1,2.21,4.87c2.5,6.57,3.75,14.4,3.72,23.26a113.87,113.87,0,0,1-3.89,28.15l-2.16-.64a111.57,111.57,0,0,0,3.79-27.57,62.63,62.63,0,0,0-3.58-22.42,33.75,33.75,0,0,0-14.38-17.6l1.15-1.94a34.38,34.38,0,0,1,11.72,11.44L453,519.93l8.14,9.4,7.84-35.09c-6.9-5.1-10.54-9.16-12.36-11.63l1.82-1.34c4.84,6.56,15.33,14.46,28.78,21.67,11.11,5.95,22.67,10.51,27.49,10.85l3,.21-2.4,1.81c-5.48,4.16-16.71,17.19-19.85,20.87l10.82,7,20.61-24.4,4.45,29a32.81,32.81,0,0,1,3.39-3.75,40.35,40.35,0,0,1,7.38-5.48l-.13,0c0-.11-2.5-11.38-4.06-19l-.5-2.43,2.16,1.22c8.67,4.89,39.84,9,64.74,1,13.73-4.4,23-11.64,27.62-21.5l.27.12c-.2-.65-.4-1.32-.6-2-2.85,2.12-10.5,5.76-20.82,9.14-9.74,3.18-24.6,7-40.09,7.29H569c-16.52,0-29.44-4.28-38.44-12.75-9.27,3.72-23.9.78-43.53-8.76a234.16,234.16,0,0,1-27.33-15.81l1.28-1.86c.17.12,6.22,4.27,14.89,9.2,7-2,15.54-7.07,25.25-15.2a241.81,241.81,0,0,0,26.05-26c-4.94-3.58-11.67-15.45-18-31.78-6-15.39-9.84-30.38-9.88-38.34-11.73-6.81-21-15.35-27-25l1.91-1.2c7.32,11.67,19.46,21.65,35.13,28.87a127.81,127.81,0,0,0,49.62,11.2c15.09.31,29.55-2.16,41.82-7.16,13.38-5.44,23.93-13.65,31.38-24.38,1.46-2.58,5.83-12.54,7.25-15.43a103.25,103.25,0,0,0,4.16-14.28l-.26-.4.41-.28a99.71,99.71,0,0,0,2.55-19.48c-5.81,2.09-14.78,3.14-26.8,3.14-1.8,0-3.66,0-5.59-.07-15.62-.38-35.34-2.3-57-5.56-19.34-2.9-38.77-6.64-54.72-10.53-10.95-2.68-24.63-6.49-29.07-9.78-3.65,22.9-4.89,49.21.12,63.27,0,0-4.29-4.29-6.78,0s1.13,9.26,4.75,14.45c-13.55,9-46.3,53.3-49.24,71.37s5.2,55.1,27.33,36.58c8.36,6.33,8.81,12.65,8.81,12.65s-27.33,1.81-27.33,4.52a15.05,15.05,0,0,0,8.13,12.42c-10.84,7-9.71,11.29-9.71,11.29s-4.29-3.16-9.26-2.49c-5.42-6.77-27.1-11.29-37.94-6.09-21.23-6.1-53.75,53.07,7.23,88.52,21.23,8.36,47.2,12.43,58-13.32,13.22-7.75,28.19-17.07,32.72-19.91Zm96.11-220.53c5-4,12.75-2.54,17.4,3.24s4.42,13.7-.54,17.69-12.74,2.54-17.4-3.24S553.14,317.27,558.09,313.28Zm-35.94,14.53c1.8-2.26,15.8.45,16,3.61s-8.21,9.95-9,10.57l1.06.26c-1,5.09,0,9.52,2.82,13.16a20,20,0,0,0,10.78,6.7c10.52,2.74,18.16-1.68,20-7.22l2.14.71c-1.31,3.95-4.53,6.95-9.06,8.46a22.1,22.1,0,0,1-7,1.09,25.76,25.76,0,0,1-6.64-.86,22.19,22.19,0,0,1-12-7.49,17,17,0,0,1-3.51-8.49c-3.11,5.76-7.67,9.41-12.19,9.41h-.11c-4.21-.05-10.05-3.18-14-17.76l2.18-.59c2.77,10.31,7,16,11.82,16.09h.08c4.86,0,10.09-5.76,12.46-13.75l1,.25C528.37,341,520.42,330,522.15,327.81ZM505.77,297a12.42,12.42,0,1,1-12.42,12.42A12.42,12.42,0,0,1,505.77,297ZM457,454.25l-2.25-.17c.14-1.9.39-4,.76-6.18a6.35,6.35,0,0,0-4.37,2.77c-2.24,3.28-2,8.79.59,15.5l-2.1.82c-3.72-9.52-2.25-14.83-.36-17.6a8.62,8.62,0,0,1,6.65-3.8,199.11,199.11,0,0,1,8.16-28.39c3.29-9.27,6.49-16.94,7.66-19.67l-7.5-3,8.37-11.1-8.2-6.6,9.72-11.11-3.19-5.39,1.94-1.15,4,6.8-9.25,10.57,8.07,6.5-7.9,10.48,6.91,2.75-.47,1.07C474.1,397.72,458.54,433.46,457,454.25ZM412.5,509.32a9.84,9.84,0,0,1,6.23-3.66l.1,1.12.1,1.13c-.38,0-9.22,1.13-7.56,17.73l-2.25.22C408.38,518.48,409.52,512.92,412.5,509.32Zm-32.1-7.9a8.69,8.69,0,0,1,6.16-3l0,2.25A6.53,6.53,0,0,0,382,503c-3.6,3.95-3.71,11.42-3.16,17l-2.25.22C375.74,511.4,377,505.07,380.4,501.42ZM418.79,572c-2.49,6.8-13.6,9-24.81,4.88s-18.27-13-15.77-19.76,13.6-9,24.81-4.88S421.29,565.23,418.79,572Z"/><path class="cls-2" d="M494.14,238.6a13.48,13.48,0,0,1-2.38.37c7.3,5.32,17.56,9.81,30.55,13.38a261.93,261.93,0,0,0,42.23,7.43,489.09,489.09,0,0,0,78.1,1.34,37,37,0,0,0-6.56-8c24-23.6-6.21-69.67-36.26-33.88-10.18-11.17-47.86-13.43-62.43-10.16-15-33.31-45.73-22-35.46,20.33C499.34,231.6,494.14,238.6,494.14,238.6Zm134.81-22c6.9,6.33,10.79,29.54,1.08,30.59s-23.53-9.49-23.53-20S622,210.29,629,216.63ZM516.61,197.16c9.26,0,10.28,11.18,9.26,14.91-2.82.34-8.92,5.53-16.48,13.55C498.77,215,507.35,197.16,516.61,197.16Z"/><path class="cls-2" d="M559.1,440.83c18.42-22.41,30.9-44.09,33-57.17a110.74,110.74,0,0,1-25.31,4c-4.23,11.62-19.41,34.12-36.31,53.8a248.45,248.45,0,0,1-27.85,28.08c-9,7.56-17.08,12.59-24,15a170.35,170.35,0,0,0,22.69,10.61l-1-2C517.47,484.28,539.45,464.73,559.1,440.83Z"/><path class="cls-2" d="M665.66,404s14.34-27.89,14-62.78c-5.76-16.83-22-31.73-29.81-40.2l.63.93a18.5,18.5,0,0,1-4.06,2h2.07A100.54,100.54,0,0,1,646,323.8,99.46,99.46,0,0,1,653,337.71c3.5,8.4,7.47,21.26,6.52,34.78h-.19l5.72,4.69-15.94,3c3.37,3.72,11.67,13.58,14.44,23.35l-2.17.62c-2.93-10.33-12.76-21.2-14.9-23.48l-7,1.32-3.07,27.12-12.33-.88,2.52,18.12-2-.49c1.3,29,4.3,52.68,8.7,68.67,5.19,18.86,10.6,21.3,12.68,21.47,4.42.37,8.83-7.2,11.48-19.75l2.21.47c-1.43,6.75-3.32,12.06-5.55,15.72,4,.59,9.9,1,11.6,0,2.21-1.36,7.37-6.59,7.37-25.69h2.26c0,19.51-5.29,25.67-8.45,27.61-1.18.73-3.29,1-5.54,1a59.86,59.86,0,0,1-8.66-.79c-2,2.47-4.11,3.76-6.4,3.76a4.35,4.35,0,0,1-.51,0c-4.73-.39-9.11-6.25-12.8-17-5.13,9.52-14.55,16.54-28.06,20.87-11.12,3.57-25,5.15-39,4.45-10.42-.52-19.82-2.24-25.42-4.61,1.31,6.28,3,13.91,3.45,16.1,9.09-4.75,19-6.34,23.3-5.9,1.78-3.14,6.08-4.79,12.21-4.66s13.45,2.13,17.16,5a8.15,8.15,0,0,1,1.05-.31l.19,1.12.08.41a5.45,5.45,0,0,1,.37.47,19.37,19.37,0,0,1,15.36-.27c13.57,5.55,21,24.86,21.28,25.68l-1.9.71c-.08-.19-7.4-19.3-20.15-24.51a17.66,17.66,0,0,0-14.61.62l-1,.46-.38-1a2.79,2.79,0,0,0-.49-.8c-2.74,1.37-8.39,5.5-12.61,17.38l-2.13-.76c4.08-11.46,9.47-16.23,12.83-18.18-3.23-2-9.17-3.8-15.09-3.93-2.66-.05-9,.24-10.64,4.14l-.32.77-.82-.17a10.29,10.29,0,0,0-1.55-.15l.08.22a16.65,16.65,0,0,0-7.1,5.91c-4.17,5.93-5.06,14.51-2.57,24.83l-2.19.53c-1.86-7.7-2.85-18.59,3-26.78a20.22,20.22,0,0,1,4.23-4.38c-7.16,1-18.06,4.56-25.51,11.64a28.18,28.18,0,0,0-4.34,5.16l.09.6-.52.08a26.32,26.32,0,0,0-3.3,18l-2,.29c-1-7.16.1-13.57,3.43-19.13l-4.07-26.49-18.69,22.12L492,537.18l.82-1c.54-.64,12.06-14.33,19.09-20.57-5.79-1.26-15.5-5.23-25.2-10.38-1.72,7.43-7.36,33.2-6,46.58h-.12l1.2,1.39-.49.43,14.21,15.1L510,558.16l10.39,14a42.36,42.36,0,0,1,6.77-1.58c.46,9.71,13.55,48.33,41.45,56.57s67.86,12.76,66.84-65.49c5.08,4.86,23.15,11.41,17.62-30.49,9.82-.34,25.63-3.72,11.74-15.58,6.66-2.15,15.7-4.4,20.55-21C690.39,455.4,665.66,404,665.66,404ZM590.44,618.12c-7.36,7.36-21.27,5.4-31.05-4.39S547.63,590,555,582.67s21.26-5.4,31,4.39S597.81,610.76,590.44,618.12Z"/><path class="cls-2" d="M470.93,495.68l-8,35.78,15.34,17.72c-.47-14.76,4.93-38.78,6.4-45A144.47,144.47,0,0,1,470.93,495.68Z"/><path class="cls-2" d="M648.73,264.46c-1-2.6-5.42-2.26-5.42-2.26l.08,1.13c-8.42.6-19.18,1-31.13,1a478.14,478.14,0,0,1-48-2.31,265.46,265.46,0,0,1-42.59-7.5c-14-3.85-25-8.79-32.55-14.69l.7-.89a6.44,6.44,0,0,1-1.59-.35c-4.59-2.52-11.11,17.37-15,41.36l.76-.83c5.53,5,43.62,14.26,83.17,20.2,47.77,7.17,82.19,7.46,92.07.78l.64.94C652,295.29,649.74,267.06,648.73,264.46Z"/><path class="cls-2" d="M508.37,376.31c-2.33-1.08-4.59-2.21-6.76-3.4.41,8,4.11,21.88,9.69,36.22,6.11,15.74,12.73,27.54,17.26,30.79l-1,1.46,1.22-1.42c5.22-6.08,10.27-12.41,14.87-18.61-7-4.66-20.07-26-23.21-40.3A120.31,120.31,0,0,1,508.37,376.31Z"/><path class="cls-2" d="M545,419.53c9.18-12.53,16.41-24.28,19.36-31.82-.94,0-1.88,0-2.83,0l-2.6,0a132.47,132.47,0,0,1-36-5.87c1.58,6.21,5,14.07,9.6,21.85S541.84,417.54,545,419.53Z"/><path class="cls-2" d="M645.23,327a97.3,97.3,0,0,1-3.88,12.67c6.89,5.93,7.3,18.66,6.93,23.71l9.11,7.49c.31-7.28-.67-18.4-6.41-32.23A100.75,100.75,0,0,0,645.23,327Z"/><ellipse class="cls-2" cx="199.36" cy="194.14" rx="104.93" ry="109.03"/><path class="cls-3" d="M304.15,208.35a113.44,113.44,0,0,1-13.6,41.56,109,109,0,0,1-26.81,31.77,103.4,103.4,0,0,1-36.22,18.9,100,100,0,0,1-27.81,3.95,102.22,102.22,0,0,1-13.82-.95h-.17a29.34,29.34,0,0,1-8.8-1.63,101.88,101.88,0,0,1-30.84-12.66,107,107,0,0,1-30.29-28.11,112.46,112.46,0,0,1-18-38,115.08,115.08,0,0,1-2.85-43.84,113.65,113.65,0,0,1,13.61-41.56l.28-.5,0-.08h0A108.7,108.7,0,0,1,135.34,106a103.44,103.44,0,0,1,36.21-18.9c13.56-3.91,30.27-4.48,41.81-3S240.82,90.91,253,98.42a107,107,0,0,1,30.29,28.11,112.65,112.65,0,0,1,18,38A115.07,115.07,0,0,1,304.15,208.35Zm-29.91-89.23c-1.55.38-5.44,2-11.84,5-8.21,4.55-18,11.36-31.26,22.74-12.49,10.65-47.23,50-63.43,61s-26,9.33-27.16,9.33c-1.3,0-2.05,0-2.74.72s.51,12.07,1.6,19.38a146.06,146.06,0,0,0,16.89,1.2c15.09.37,32.11-1.57,50-5.26,20.76-3.83,33.85-7.78,47.92-13.64a160,160,0,0,0,29.89-16c12.62-8.87,17.5-18.07,18.48-19.63-.45-7.25-1.59-11.7-3.45-18.77A110.08,110.08,0,0,0,281.48,128,111.8,111.8,0,0,0,274.24,119.12ZM213.06,86.53H213a42.47,42.47,0,0,0-10.19,1.27c-5.72,1.34-13,3.29-20,8.32-11.41,8.85-20.54,23.21-27.84,36.61-12.32,30.15-15,39.09-17.35,65.39-.11,4.9-.45,9.74,0,11.18s1.14,3.11,3.72,2.94,9.74-2.22,17.73-6,54.69-50.85,69.1-63.14c7.47-6.39,18.09-16.74,31.75-23a79.17,79.17,0,0,1,11.18-4.31,89.09,89.09,0,0,0-19.23-15.25A99.28,99.28,0,0,0,213.06,86.53ZM110.84,138.41a66.85,66.85,0,0,0-4.18,17.51c-1.09,9.86-.67,23.94,7,40.45,2.79,6,9.09,11.65,15.51,14.11,3.38,1.3,4.57-.95,4.8-1.91s.22-8.13.45-13.16c.23-12.44,3.42-34.7,17.34-65.32,6.89-14.35,15.49-25.23,26-33.26,5.06-3.86,11.41-9.34,23.92-11.22-.77,0-1.54,0-2.3,0a97.93,97.93,0,0,0-27.21,3.87,101.19,101.19,0,0,0-35.43,18.49A106.32,106.32,0,0,0,110.84,138.41ZM100,222.56a53.33,53.33,0,0,0,23.7,11.85c4.3,1.26,6.61,2.4,12.09,2.64a134.22,134.22,0,0,1-1.6-19.87,22,22,0,0,1-10.49-4.06c-6.39-3.59-9.59-7.9-12.78-13.88-7.9-17.07-7.63-33.49-6.49-43.7.24-2.16.56-4.16.9-6a113.66,113.66,0,0,0-5.33,73ZM117.6,258.9c1.28,1.75,2.19,2.71,3.56,4.36.88-1.53,1.82-2.87,5.9-4.43s12.35.61,13.72.13-1.37-1-3.88-18.67a109,109,0,0,1-14.6-3.11c-11.12-3.28-16.66-5.26-21-10.74A109.75,109.75,0,0,0,117.6,258.9Zm48.16,37.29s-5.09-2.88-7.41-5.31c-5.68-5.95-9.11-10.28-13.25-22.15a21,21,0,0,0-4.78-4.89c-1.82-1.19-3.87-.95-11.63-.23-2.77,1.42-3.43,1.91-4.11,4.54a91.38,91.38,0,0,0,22.66,19.08C153.15,290.87,165.76,296.19,165.76,296.19Zm93.14-13.76a126.19,126.19,0,0,1-21.14,4.62A112.9,112.9,0,0,1,222,286.8c-12.52-1-29-5.3-46.55-14.1a72.1,72.1,0,0,0-26.78-7.51c-.75-.07-1.05,1.05-.37,3.92,2.28,5,6.09,13,12.09,19.28a42.35,42.35,0,0,0,17.32,11.29c2.73.61,5.5,1.12,8.29,1.5a97.92,97.92,0,0,0,40.91-2.91A100.71,100.71,0,0,0,258.9,282.43Zm-36.43,1.51c19.17,1.92,31.49-1.43,41.69-5.66a106.35,106.35,0,0,0,24.42-29.58A111.07,111.07,0,0,0,301.89,208a114.35,114.35,0,0,0,.86-17.6c-1.78,3.77-7.3,10.92-16.84,17.65a151.3,151.3,0,0,1-29.44,16c-14.24,5.95-30.53,10.63-48.6,14.36a255.9,255.9,0,0,1-30.12,4.31c-1.46,0-20,0-21.45,0a140.23,140.23,0,0,1-15.75-1.2c1,6.1,3.43,17.71,3.88,18s17.87,2.62,32.63,10a261.54,261.54,0,0,0,30.79,12,28.86,28.86,0,0,0,5.65,1.27Z"/></g></g></g></svg>