<?xml version="1.0" encoding="utf-8"?>
<!-- Generator: Adobe Illustrator 25.4.1, SVG Export Plug-In . SVG Version: 6.00 Build 0)  -->
<svg version="1.1" id="レイヤー_1" xmlns="http://www.w3.org/2000/svg" xmlns:xlink="http://www.w3.org/1999/xlink" x="0px"
	 y="0px" viewBox="0 0 800 668.5" style="enable-background:new 0 0 800 668.5;" xml:space="preserve">
<style type="text/css">
	.st0{fill:#96B6FF;}
	.st1{fill:#B0C8FF;}
</style>
<rect class="st0" width="800" height="668.5"/>
<path class="st1" d="M559.4,428.5c-15.8-3.6-28.6-12.8-38.4-26.5c-9.1-12.7-15.7-26.8-21.6-41.1c-2.8-6.9-5.9-13.7-8.6-20.6
	c-3.1-8.5-9.7-15.2-18.2-18.4c-12-5-23.5-11.2-34.2-18.5c-16.5-11.2-22.5-28-16.8-47.1c2.9-9.5,8.1-17.8,13.8-25.7
	c1-1.4,0.9-2.1-0.5-3.2c-37.7-30.2-75.3-60.5-112.9-90.8c-1-0.7-1.9-1.5-2.7-2.4c-2.9-3.1-6.5-3.6-10.3-2.8c-1.2,0.4-2.5,0-3.4-0.9
	c-1.9-1.8-3.9-3.4-6-5.1c-0.4-0.3-0.8-1.3-1.5-0.7s-1.7,1.2-1.3,2.4c0.6,1.6,0.6,3-0.9,4c-1.3,0.8-3,0.6-4.2-0.4
	c-1.5-1-2.5-2.3-2.3-4.2c0.2-1.5,1.6-2.6,3.1-2.3c0.3,0,0.5,0.1,0.8,0.2c1.5,0.5,1.9-0.2,2.5-1.1c0.9-1.2-0.5-1.4-1-1.9
	c-2.2-2-4.5-3.9-6.8-5.8c-0.5-0.4-0.8-1.5-1.6-0.7s-1.7,1.3-1.3,2.4c0.5,1.6,0.6,3-0.9,4c-1.3,0.7-2.8,0.6-4-0.2
	c-1.6-0.8-2.5-2.4-2.5-4.2c0.1-1.7,1.8-2.7,3.8-2.3c0.7,0.1,1.4,0.6,2.1-0.2s1.3-1.6-0.1-2.6c-2.4-1.8-4.6-3.9-7-5.9
	c-0.5-0.4-1-1.4-1.7-0.5c-0.6,0.7-1.7,1.2-1.2,2.5c0.6,1.6,0.5,3-1,3.9s-3.2,0.4-4.5-0.7s-2.2-2.4-1.8-4.2c0.4-1.5,2-2.4,3.6-1.9
	c0.1,0,0.3,0.1,0.4,0.2c1.7,0.7,2-0.6,2.5-1.4c0.8-1-0.4-1.3-0.9-1.7c-5-4.3-9.9-8.7-14.9-12.9c-1.1-1-1.2-1.6-0.2-2.7
	c5.6-6.8,11.1-13.6,16.5-20.5c1-1.2,1.6-1.1,2.7-0.3c5.3,3.8,10.7,7.6,16.1,11.4c0.5,0.4,1.1,1.3,1.9,0.5c0.7-0.7,1.1-1.3,0.4-2.3
	c-0.9-1.1-0.8-2.7,0.2-3.7s2.5-1.2,3.8-0.6c1.1,0.4,2.1,1.2,2.7,2.3c0.7,1,0.7,2.2,0.2,3.2c-0.5,1.1-1.7,1.7-2.8,1.4
	c-1-0.3-2,0.2-2.3,1.2l0,0c-0.5,1.2,0.8,1.3,1.4,1.7c2.3,1.7,4.7,3.4,7.1,5c0.5,0.4,1,1.1,1.8,0.3c0.6-0.6,0.9-1.1,0.3-2
	c-1-1.1-0.9-2.9,0.1-3.9c1.1-1.2,2.6-1,4-0.5c1.1,0.4,2.1,1.3,2.6,2.4c1.3,2.4-0.1,4.7-2.7,4.4c-1-0.2-2,0.3-2.4,1.3
	c-0.3,1,0.8,1.2,1.4,1.6c2.4,1.8,5,3.5,7.4,5.2c0.5,0.3,0.9,0.9,1.6,0.2c0.5-0.4,0.7-1.2,0.3-1.7L319,93c-1-1.4-1.1-2.9,0.2-4
	s3-1,4.5,0c0.6,0.5,1.2,1,1.7,1.6c0.8,0.9,1,2.3,0.5,3.4s-1.8,1.8-3,1.5c-1-0.1-1.8,0.1-2.1,1c-0.4,1,0.7,1.2,1.2,1.6
	c2.4,1.8,4.2,4.2,6.4,6.2c0.8,0.7,0.5,1.7,0.5,2.6c0.1,2.5,1.3,4.8,3.2,6.2c39.2,29.3,78.3,58.7,117.4,88.2c1.8,1.4,3.7,3.9,5.4,3.7
	s3.1-3,4.6-4.6c6.7-7.3,13.8-14.1,22.8-18.5c8.3-4.1,17.1-5.9,26.4-4.2c8.3,1.5,15.2,5.7,21.3,11.3c6.4,5.9,11.5,12.9,17.1,19.5
	c2.6,3.1,5.3,6.1,7.9,9.2c6.5,7.9,15.2,11.3,25.1,12.8c16.8,2.6,33.8,4.4,50.2,9c11,3.1,21.9,6.8,31.1,13.7
	c18.4,13.9,26.9,32.3,25.4,55.5c-0.9,15.2-6.1,29.9-14.9,42.4c-8.7,12.5-16.9,25.3-27,36.8c-7.8,8.9-15.4,18-24.2,25.9
	c-13.9,12.4-30.2,18.4-49,17.1C567.8,430.4,564,429.4,559.4,428.5z"/>
<path class="st1" d="M336.2,395.2c-5.9,0.2-11.7,1.4-17.2,3.4c-0.5,0.3-1.2,0.4-1.8,0.2c-5.5-1.9-12.6,2.7-13.1,8.4
	c-0.1,0.6-0.3,1.1-0.7,1.5c-3.9,3.8-7.1,8.2-9.5,13.1c-0.4,0.6-0.7,1.2-1,1.9c-1.2,6.3-5.3,10.9-8.7,16c-0.8,1.1-1.8,2.1-1.4,3.7
	c0.2,1-0.8,1.3-1.4,1.7c-13.6,10.2-27.2,20.4-40.8,30.5l-98.7,73.8c-4.1,3-8.1,6.1-12.2,9.1c-1.1,0.8-1.5,1.5-0.7,2.8
	c4.8,8.7,10.3,17,16.3,24.8c1.1,1.5,2,1.5,3.6,0.6c25.8-15,51.6-29.9,77.5-44.8l85.4-49.3c1.2-0.7,2.3-1.6,4-0.6
	c1.3,0.7,2.9-0.3,4.4-0.5c1.7-0.3,3.4-0.7,5.1-1c3-0.7,6-0.9,9-0.7c6.9,0.6,13.5-0.9,19.9-3.2c0.9-0.5,2-0.5,2.8,0
	c1,0.6,2.3,0.2,3.4,0c4.3-1,8.1-4.8,8.8-9c0.1-0.6,0.4-1.1,0.9-1.4c6.1-6.5,10.4-14.4,12.5-23c1.7-6.8,1.7-14,0-20.8
	c-1.4-6.2-3.9-12-7.5-17.2c-3.7-5.2-8.5-9.6-14-12.8c-4.4-2.6-9.2-4.6-14.2-5.8C343.2,395.6,339.6,395.8,336.2,395.2z"/>
</svg>
