<?xml version="1.0" encoding="utf-8"?>
<!-- Generator: Adobe Illustrator 25.4.1, SVG Export Plug-In . SVG Version: 6.00 Build 0)  -->
<svg version="1.1" id="レイヤー_1" xmlns="http://www.w3.org/2000/svg" xmlns:xlink="http://www.w3.org/1999/xlink" x="0px"
	 y="0px" viewBox="0 0 800 668.5" style="enable-background:new 0 0 800 668.5;" xml:space="preserve">
<style type="text/css">
	.st0{fill:#FDD2B5;}
	.st1{fill:#FDE4D0;}
</style>
<rect class="st0" width="800" height="668.5"/>
<path class="st1" d="M315.6,142.1c-23.6-28.4-65.8-32.2-94.1-8.6c-25.8,21.5-31.7,58.9-13.6,87.3c3.1,4.8,6.7,9.1,10.8,13
	c0.4,0.3,1.1,0.6,0.2,1.2c-4.4,2.8-8.7,5.8-13.6,7.7c-4,1.7-8.5,1.9-12.7,0.6c-3.8-1.4-7.3-3.5-10.2-6.3
	c-6.2-5.4-11.3-11.7-16.4-18.2c-2.7-3.5-5.4-7-8.1-10.5c-0.3-0.4-0.5-1.1-1.3-0.8c-2,0.4-3.9,1.2-5.7,2.1c-8,5.3-16,10.6-24.1,15.9
	c-1,0.6-1.2,1.1-0.5,2.2c6.2,9.3,12.3,18.6,18.4,27.9c6.9,10.5,13.9,21.1,20.9,31.6c3.6,5.3,7.3,10.6,12.2,14.8
	c3.2,2.7,6.7,4.4,11,4.1s8.2-2,11.9-4c6.8-3.7,13.1-8.1,19.6-12.3c10.7-6.8,21.3-13.8,31.9-20.6c9-5.8,17.9-11.6,26.9-17.4
	c2.4-1.5,4.5-3.4,7.2-4.3c9.1-3.1,17.3-8.3,24.2-15c21.6-20.9,26.6-53.5,12.3-79.9C320.8,149,318.4,145.4,315.6,142.1z M275.1,205.8
	c-11.6,6.2-26,1.8-32.2-9.8c-6.2-11.6-1.8-26,9.8-32.2c11.6-6.2,25.9-1.8,32.2,9.7c6.2,11.6,1.9,26-9.7,32.2
	C275.2,205.7,275.1,205.7,275.1,205.8L275.1,205.8z"/>
<path class="st1" d="M672.6,362.3c-10.5,0.5-20.2,3.8-30.7,8.4c11-14.5,23.3-26.1,36.7-38.7c-10.3,2.6-18.5,6.7-27.7,10.9
	c9.8-14,23.1-22.9,35.1-33c-13.5,4.2-25.8,10.4-38.2,17.4c3.1-3.9,6.1-7.7,9.2-11.6l-0.6-0.9l-10.6,2.8
	c7.6-11.5,16.4-20.9,24.1-31.2c1.2-0.8,2.4-1.6,2.5-3.3c-1.3,0.2-2.5,1-3.3,2c-15.7,9.2-29.8,20.4-43.7,34.3
	c4.8-18,11.3-33.9,17.8-50.3c-9,3.7-13,8.4-33.7,38.6c2.4-18.3,3.3-36.8,2.7-55.2c-5.6,17.6-11.2,35.3-17.1,54.1
	c-4.9-18.1-9.8-34.8-22.5-49.3c2.5,15.2,5.9,28.9,6.6,43.8c-3.3-2.6-3.8-6.4-7.2-8.4c-0.5,5.4,2,10.2,1.4,15.7
	c-6.8-13-14.7-25.3-23.7-36.9c5.1,16.6,11.2,32.8,14.5,50c-8-9.4-16.3-18.1-26.9-24.5c-0.6-1.1-1.8-2-2.6-1.3s0.5,1.6,1.2,2.1
	c8.9,13,17.9,25.9,20.5,43.3c-6.6-7.9-12.5-14.7-21.1-20.3c0.8,1.8,1.1,2.5,1.5,3.1c4.9,8.7,9.9,17.4,13.5,26.7
	c0.4,1,1.3,2.4,0.4,3.3c-1.4,1.4-2.3-0.4-3.3-1c-4-2.1-7.7-4.8-13-6c9,12,19.4,22.1,24.7,35.8c-8.3-8.1-18.2-13-30.4-16.9
	c10.4,8.8,19.6,16.8,24.9,29.5c-5.6-4.7-11.9-8.3-18.8-10.7c-0.7-1-1.8-1.9-2.7-1.1c-0.6,0.7,0.8,1.3,1.6,1.8
	c9.2,6.1,16.1,15.1,19.6,25.5c-2.6,0.8-4.4-1-6.8-0.6c2.2,3.4,6.5,5,8.1,9.5c-1.5-0.7-3.1-1.3-4.7-1.7c-1.2-0.2-2.5-1.4-4-0.3
	c5.4,3.3,10.6,6.6,14.6,12.1c-1.2,0.4-2.5,0.6-3.8,0.8c-14.6-0.1-26.6,6.6-36.8,15.8c-6.5,6.1-12,13.3-16,21.2
	c-4.5,8.7-6.3,18.8-10.9,27.7c-1.4,2.9-2,6.1-1.9,9.2c0.1,5.8-1.6,11-3.8,16.2c-2.4,5.4-2.9,11.4-1.5,17.2c0.9,3.4,1,6.9,0.4,10.3
	c-1.1,6.7-0.3,13.3,3.9,19c0.7,0.9,1.2,2,1.5,3.1c2.6,11.6,12.5,18,19.5,26.4c2.1,2.5,6.3,3,8.9,5.2c10,8.7,22.6,8.6,34.5,10.8
	c3.8,0.7,7.7-1.7,11.7-1.7c11.6,0,20.9-6.5,30.7-11.5c1.4-0.7,2.3-2.3,3.5-3.5c1-1.1,2.1-2.1,3.3-2.9c5.2-2.8,9.1-7.5,10.8-13.2
	c1.5-4.9,3.9-9.5,7.1-13.5c3.4-4.5,4.7-9.9,4.8-15.5c0-4.6,1-9.2,2.9-13.4c2.9-5.9,4-12.5,3.2-19c-0.5-3.1-0.3-6.3,0.7-9.4
	c4.2-13.7-2.2-26.3-4.3-39.4c-0.2-1.3-1.5-2.5-2.5-3.7c-1.2-1.2-2-2.6-2.4-4.2c-0.9-4.5-3.9-7.5-7.3-10.4c-4.9-4.2-9.3-9-16-11.8
	c3.8-2.1,8-3.3,12.3-3.5l5.3,0.1c0-0.2,0-0.4-0.1-0.6l-5.7-1.3c1.5-2.3,2.2-3,8-5.1s12-4,19.3-6.4c-6.9-0.9-13.8-1-20.7-0.3
	c11.4-8.7,23.7-12.9,36.6-15.8c-8.2-2.3-16.3-2.6-25.1-2c8-8,17.8-11.1,28.1-14.1c-6.7-2.8-13.3-1.6-19.6-2.8
	C648,376.4,660.5,369.7,672.6,362.3z"/>
</svg>
